<svg width="48" height="48" fill="none" xmlns="http://www.w3.org/2000/svg"><path fill-rule="evenodd" clip-rule="evenodd" d="M0 24c0 13.255 10.745 24 24 24s24-10.745 24-24S37.255 0 24 0 0 10.745 0 24zm25.714 7.598c-.268.279-.792.335-.792.335H23.19s-3.824.222-7.193-3.168c-3.673-3.7-6.917-11.04-6.917-11.04s-.187-.482.015-.713c.229-.262.851-.279.851-.279l4.143-.026s.39.062.67.26c.231.165.36.471.36.471s.67 1.638 1.556 3.12c1.732 2.893 2.538 3.525 3.125 3.215.857-.451.6-4.09.6-4.09s.016-1.319-.431-1.907c-.346-.456-.999-.589-1.287-.626-.234-.03.15-.554.646-.789.746-.352 2.062-.373 3.618-.358 1.213.013 1.562.085 2.035.197 1.1.256 1.066 1.079.991 2.853a43.156 43.156 0 00-.047 1.858c0 .16-.005.33-.01.506-.026.91-.055 1.95.564 2.338.318.198 1.094.029 3.035-3.16.921-1.51 1.61-3.287 1.61-3.287s.152-.317.386-.453c.24-.138.563-.096.563-.096l4.36-.026s1.311-.152 1.522.421c.223.6-.489 2.002-2.27 4.298-1.689 2.177-2.511 2.98-2.437 3.689.054.519.588.988 1.615 1.909 2.142 1.923 2.716 2.934 2.854 3.177l.026.045c.96 1.54-1.066 1.661-1.066 1.661l-3.873.052s-.831.16-1.926-.568c-.574-.38-1.134-1.002-1.668-1.594-.816-.904-1.569-1.739-2.212-1.541-1.08.332-1.046 2.58-1.046 2.58s.008.481-.237.736z" fill="#203686"/></svg>