<svg width="140" height="38" fill="none" xmlns="http://www.w3.org/2000/svg"><rect width="140" height="38" rx="10" fill="#4ADD47"/><path fill-rule="evenodd" clip-rule="evenodd" d="M15.5 19c0 6.627 5.373 12 12 12s12-5.373 12-12-5.373-12-12-12-12 5.373-12 12zm19.531-.46c-.002 3.933-3.201 7.133-7.136 7.135h-.003a7.13 7.13 0 01-3.41-.869l-3.782.992 1.012-3.697a7.122 7.122 0 01-.952-3.567c.001-3.935 3.202-7.136 7.135-7.136a7.09 7.09 0 015.048 2.093 7.093 7.093 0 012.088 5.048z" fill="#fff"/><path fill-rule="evenodd" clip-rule="evenodd" d="M22.413 24.105l2.245-.589.217.129c.91.54 1.954.826 3.018.826h.003a5.94 5.94 0 005.93-5.93 5.896 5.896 0 00-1.735-4.196 5.89 5.89 0 00-4.193-1.74 5.94 5.94 0 00-5.933 5.93c0 1.121.313 2.213.907 3.157l.14.224-.599 2.189zm8.834-4.03c.124.06.208.101.244.161.044.074.044.431-.104.848-.149.416-.861.796-1.204.848a2.443 2.443 0 01-1.123-.071 10.212 10.212 0 01-1.016-.376c-1.672-.721-2.801-2.341-3.015-2.648l-.031-.044-.001-.002c-.095-.126-.727-.97-.727-1.842 0-.822.403-1.252.59-1.45l.034-.038a.655.655 0 01.476-.223 7.106 7.106 0 01.381.007c.104 0 .234-.001.361.306.05.118.121.293.197.478.154.373.323.786.353.846.045.089.074.193.015.312l-.025.05a1.023 1.023 0 01-.153.247l-.092.11c-.061.075-.122.15-.176.203-.09.089-.182.185-.078.363.104.179.462.763.992 1.236.57.508 1.065.723 1.316.831.049.022.089.039.118.054.178.089.282.074.386-.045.104-.119.446-.52.564-.7.12-.178.238-.148.402-.088.163.06 1.04.49 1.218.58l.098.047z" fill="#fff"/><path d="M51.167 24.5l-3.248-9.8h1.89l2.898 8.862h-.938l3.01-8.862h1.68l2.926 8.862h-.91l2.968-8.862h1.736l-3.248 9.8h-1.932l-2.674-7.994h.504L53.113 24.5h-1.946zm17.774-7.56c.597 0 1.13.117 1.596.35.476.233.85.593 1.12 1.078.27.476.406 1.092.406 1.848V24.5h-1.75v-4.06c0-.663-.159-1.157-.476-1.484-.308-.327-.742-.49-1.302-.49a2.3 2.3 0 00-1.092.252c-.318.168-.565.42-.742.756-.168.327-.252.742-.252 1.246v3.78h-1.75V14.112h1.75v4.928l-.378-.616c.261-.476.64-.84 1.134-1.092.504-.261 1.082-.392 1.736-.392zm9.948 7.56v-1.512l-.098-.322V20.02c0-.513-.154-.91-.462-1.19-.308-.29-.775-.434-1.4-.434-.42 0-.836.065-1.246.196a3.04 3.04 0 00-1.022.546l-.686-1.274a4.062 4.062 0 011.428-.686 6.336 6.336 0 011.736-.238c1.082 0 1.918.261 2.506.784.597.513.896 1.311.896 2.394V24.5h-1.652zm-2.352.098c-.56 0-1.05-.093-1.47-.28a2.391 2.391 0 01-.98-.798 2.09 2.09 0 01-.336-1.162c0-.42.098-.798.294-1.134.205-.336.536-.602.994-.798.457-.196 1.064-.294 1.82-.294h2.17v1.162h-2.044c-.598 0-.999.098-1.204.294a.907.907 0 00-.308.7c0 .317.126.57.378.756.252.187.602.28 1.05.28.43 0 .812-.098 1.148-.294a1.66 1.66 0 00.742-.868l.294 1.05a1.94 1.94 0 01-.91 1.022c-.43.243-.976.364-1.638.364zm9.064 0c-.822 0-1.456-.21-1.904-.63-.448-.43-.672-1.06-.672-1.89v-6.706h1.75v6.664c0 .355.088.63.266.826.186.196.443.294.77.294.392 0 .718-.103.98-.308l.49 1.246a2.057 2.057 0 01-.756.378 3.397 3.397 0 01-.924.126zm-3.808-6.118v-1.4h4.984v1.4h-4.984zm9.237 6.118a6.83 6.83 0 01-1.806-.238c-.57-.168-1.022-.369-1.358-.602l.672-1.33c.336.215.738.392 1.204.532.467.14.934.21 1.4.21.55 0 .948-.075 1.19-.224.252-.15.378-.35.378-.602a.506.506 0 00-.252-.462 1.864 1.864 0 00-.658-.252c-.27-.056-.574-.107-.91-.154a13.162 13.162 0 01-.994-.182 3.81 3.81 0 01-.896-.35 1.933 1.933 0 01-.658-.63c-.168-.261-.252-.607-.252-1.036 0-.476.136-.887.406-1.232.27-.355.649-.625 1.134-.812.495-.196 1.078-.294 1.75-.294a7.14 7.14 0 011.526.168c.514.112.938.27 1.274.476l-.672 1.33a3.398 3.398 0 00-1.078-.434 4.603 4.603 0 00-1.064-.126c-.532 0-.928.08-1.19.238-.252.159-.378.36-.378.602 0 .224.084.392.252.504.168.112.388.2.658.266.27.065.57.121.896.168.336.037.668.098.994.182.327.084.626.2.896.35.28.14.504.34.672.602.168.261.252.602.252 1.022 0 .467-.14.873-.42 1.218-.27.345-.658.616-1.162.812-.504.187-1.106.28-1.806.28zm3.677-.098l4.41-9.8h1.792l4.424 9.8h-1.904l-3.794-8.834h.728l-3.78 8.834h-1.876zm2.03-2.268l.49-1.428h5.292l.49 1.428h-6.272zm13.819 2.366c-.607 0-1.162-.14-1.666-.42-.495-.28-.892-.7-1.19-1.26-.29-.57-.434-1.288-.434-2.156 0-.877.14-1.596.42-2.156.289-.56.681-.975 1.176-1.246.494-.28 1.059-.42 1.694-.42.737 0 1.386.159 1.946.476a3.47 3.47 0 011.344 1.33c.336.57.504 1.241.504 2.016 0 .775-.168 1.451-.504 2.03a3.477 3.477 0 01-1.344 1.33c-.56.317-1.209.476-1.946.476zm-4.144 2.618V17.024h1.666v1.764l-.056 1.988.14 1.988v4.452h-1.75zm3.948-4.116c.42 0 .793-.093 1.12-.28.336-.187.602-.457.798-.812.196-.355.294-.77.294-1.246 0-.485-.098-.9-.294-1.246a2.026 2.026 0 00-.798-.812c-.327-.187-.7-.28-1.12-.28-.42 0-.798.093-1.134.28a2.026 2.026 0 00-.798.812c-.196.345-.294.76-.294 1.246 0 .476.098.891.294 1.246.196.355.462.625.798.812.336.187.714.28 1.134.28zm9.793 1.498c-.606 0-1.162-.14-1.666-.42-.494-.28-.891-.7-1.19-1.26-.289-.57-.434-1.288-.434-2.156 0-.877.14-1.596.42-2.156.29-.56.682-.975 1.176-1.246.495-.28 1.06-.42 1.694-.42.738 0 1.386.159 1.946.476.57.317 1.018.76 1.344 1.33.336.57.504 1.241.504 2.016 0 .775-.168 1.451-.504 2.03a3.463 3.463 0 01-1.344 1.33c-.56.317-1.208.476-1.946.476zm-4.144 2.618V17.024h1.666v1.764l-.056 1.988.14 1.988v4.452h-1.75zm3.948-4.116c.42 0 .794-.093 1.12-.28.336-.187.602-.457.798-.812.196-.355.294-.77.294-1.246 0-.485-.098-.9-.294-1.246a2.026 2.026 0 00-.798-.812c-.326-.187-.7-.28-1.12-.28-.42 0-.798.093-1.134.28a2.026 2.026 0 00-.798.812c-.196.345-.294.76-.294 1.246 0 .476.098.891.294 1.246.196.355.462.625.798.812.336.187.714.28 1.134.28z" fill="#fff"/></svg>