<svg width="24" height="24" fill="none" xmlns="http://www.w3.org/2000/svg"><path fill-rule="evenodd" clip-rule="evenodd" d="M0 12c0 6.627 5.373 12 12 12s12-5.373 12-12S18.627 0 12 0 0 5.373 0 12zm9.8 5.5l.204-3.058 5.564-5.022c.245-.217-.053-.322-.377-.126l-6.867 4.333-2.967-.926c-.64-.196-.645-.636.144-.953l11.56-4.457c.527-.24 1.037.127.835.935l-1.968 9.276c-.138.66-.536.817-1.088.513l-2.999-2.216-1.441 1.402a1.72 1.72 0 00-.014.013c-.16.157-.294.287-.586.287z" fill="#fff"/></svg>6 7.41795 17.8961 8.22598L15.9276 17.5023C15.7901 18.1615 15.3918 18.3191 14.84 18.0146L11.8413 15.7992L10.4 17.2007C10.3954 17.2051 10.3909 17.2095 10.3864 17.2139C10.2252 17.3709 10.0918 17.5007 9.79997 17.5007Z" fill="white"/>
</svg>
