<svg width="24" height="24" fill="none" xmlns="http://www.w3.org/2000/svg"><path fill-rule="evenodd" clip-rule="evenodd" d="M0 12c0 6.627 5.373 12 12 12s12-5.373 12-12S18.627 0 12 0 0 5.373 0 12zm12.857 3.8c-.134.138-.396.167-.396.167h-.867s-1.912.11-3.596-1.585c-1.837-1.85-3.459-5.52-3.459-5.52s-.093-.24.008-.356c.114-.131.426-.14.426-.14l2.071-.012s.195.03.335.13c.116.082.18.235.18.235s.335.819.778 1.56c.866 1.446 1.269 1.762 1.562 1.607.429-.225.3-2.044.3-2.044s.008-.66-.215-.954c-.173-.228-.5-.294-.643-.313-.117-.015.074-.277.322-.394.373-.177 1.031-.187 1.81-.18.606.007.78.043 1.017.099.55.128.533.54.496 1.427-.011.265-.024.573-.024.929 0 .08-.003.165-.005.253-.013.454-.028.975.282 1.168.159.1.547.015 1.518-1.579.46-.756.805-1.644.805-1.644s.076-.158.193-.226c.12-.07.281-.048.281-.048l2.18-.013s.655-.077.761.21c.111.3-.244 1-1.135 2.149-.845 1.088-1.256 1.49-1.219 1.844.027.26.295.494.808.955 1.07.961 1.358 1.467 1.427 1.589l.013.022c.48.77-.533.83-.533.83l-1.937.027s-.415.08-.963-.284c-.287-.19-.567-.501-.834-.797-.407-.452-.784-.87-1.105-.771-.54.166-.524 1.29-.524 1.29s.005.24-.118.368z" fill="#fff"/></svg>