<svg width="24" height="24" fill="none" xmlns="http://www.w3.org/2000/svg"><path fill-rule="evenodd" clip-rule="evenodd" d="M0 12c0 6.627 5.373 12 12 12s12-5.373 12-12S18.627 0 12 0 0 5.373 0 12zm19.531-.46c-.002 3.933-3.201 7.133-7.135 7.135h-.004c-1.194 0-2.367-.3-3.41-.869l-3.782.992 1.012-3.697a7.123 7.123 0 01-.952-3.567c.001-3.935 3.202-7.136 7.135-7.136a7.09 7.09 0 015.048 2.093 7.092 7.092 0 012.088 5.048z" fill="#fff"/><path fill-rule="evenodd" clip-rule="evenodd" d="M6.913 17.105l2.245-.589.217.129c.91.54 1.954.826 3.018.826h.003a5.94 5.94 0 005.93-5.93 5.895 5.895 0 00-1.735-4.196 5.89 5.89 0 00-4.193-1.74 5.94 5.94 0 00-5.933 5.93c0 1.121.313 2.213.907 3.157l.14.224-.598 2.189zm8.833-4.03c.125.06.209.101.245.161.044.074.044.431-.104.848-.149.416-.861.796-1.204.848a2.443 2.443 0 01-1.123-.071 10.212 10.212 0 01-1.016-.376c-1.672-.721-2.801-2.341-3.015-2.648l-.031-.044-.001-.002c-.095-.126-.727-.97-.727-1.842 0-.821.403-1.252.59-1.45l.034-.038a.655.655 0 01.475-.223c.12 0 .238.001.342.007h.04c.104 0 .234-.001.361.306.05.118.121.293.197.478.154.373.323.786.353.846.045.089.074.193.015.312l-.025.05a1.023 1.023 0 01-.153.247l-.092.11c-.061.075-.122.15-.176.203-.09.089-.182.185-.078.364.104.178.462.762.992 1.235.57.508 1.065.723 1.316.831.049.022.089.039.118.054.178.089.282.074.386-.045.104-.119.446-.52.565-.7.118-.178.237-.148.4-.088.164.06 1.04.49 1.219.58l.098.047z" fill="#fff"/></svg>