<svg width="24" height="24" fill="none" xmlns="http://www.w3.org/2000/svg"><path fill-rule="evenodd" clip-rule="evenodd" d="M0 12c0 6.627 5.373 12 12 12s12-5.373 12-12S18.627 0 12 0 0 5.373 0 12zm19.531-.46c-.002 3.933-3.201 7.133-7.135 7.135h-.004c-1.194 0-2.367-.3-3.41-.869l-3.782.992 1.012-3.697a7.123 7.123 0 01-.952-3.567c.001-3.935 3.202-7.136 7.135-7.136a7.09 7.09 0 015.048 2.093 7.092 7.092 0 012.088 5.048z" fill="#fff"/><path fill-rule="evenodd" clip-rule="evenodd" d="M6.913 17.105l2.245-.589.217.129c.91.54 1.954.826 3.018.826h.003a5.94 5.94 0 005.93-5.93 5.895 5.895 0 00-1.735-4.196 5.89 5.89 0 00-4.193-1.74 5.94 5.94 0 00-5.933 5.93c0 1.121.313 2.213.907 3.157l.14.224-.598 2.189zm8.833-4.03c.125.06.209.101.245.161.044.074.044.431-.104.848-.149.416-.861.796-1.204.848a2.443 2.443 0 01-1.123-.071 10.212 10.212 0 01-1.016-.376c-1.672-.721-2.801-2.341-3.015-2.648l-.031-.044-.001-.002c-.095-.126-.727-.97-.727-1.842 0-.821.403-1.252.59-1.45l.034-.038a.655.655 0 01.475-.223c.12 0 .238.001.342.007h.04c.104 0 .234-.001.361.306.05.118.121.293.197.478.154.373.323.786.353.846.045.089.074.193.015.312l-.025.05a1.023 1.023 0 01-.153.247l-.092.11c-.061.075-.122.15-.176.203-.09.089-.182.185-.078.364.104.178.462.762.992 1.235.57.508 1.065.723 1.316.831.049.022.089.039.118.054.178.089.282.074.386-.045.104-.119.446-.52.565-.7.118-.178.237-.148.4-.088.164.06 1.04.49 1.219.58l.098.047z" fill="#fff"/></svg>8.77002 10.8218 8.77002 9.94879C8.77002 9.12752 9.17344 8.69706 9.35913 8.49891C9.37186 8.48534 9.38356 8.47285 9.39404 8.46141C9.55746 8.28291 9.75063 8.23828 9.86948 8.23828C9.98833 8.23828 10.1073 8.23938 10.2112 8.2446C10.224 8.24524 10.2374 8.24516 10.2511 8.24508C10.355 8.24447 10.4846 8.24371 10.6124 8.55066C10.6615 8.66878 10.7334 8.8439 10.8093 9.0286C10.9627 9.40211 11.1322 9.81479 11.1621 9.87451C11.2066 9.96376 11.2364 10.0678 11.1769 10.1869C11.168 10.2047 11.1598 10.2216 11.1519 10.2377C11.1072 10.3288 11.0744 10.3958 10.9986 10.4843C10.9688 10.5191 10.9381 10.5566 10.9073 10.5941C10.8459 10.6688 10.7846 10.7435 10.7312 10.7967C10.6419 10.8856 10.549 10.982 10.653 11.1605C10.757 11.339 11.1149 11.9229 11.6449 12.3956C12.2146 12.9039 12.7098 13.1186 12.9608 13.2275C13.0099 13.2488 13.0496 13.266 13.0787 13.2806C13.2569 13.3699 13.3609 13.3549 13.4649 13.236C13.569 13.117 13.9106 12.7153 14.0295 12.5369C14.1483 12.3584 14.2672 12.3882 14.4306 12.4476C14.5941 12.5072 15.4707 12.9385 15.649 13.0277C15.6838 13.0451 15.7163 13.0609 15.7465 13.0754Z" fill="white"/>
</svg>
