<svg width="142" height="25" viewBox="0 0 142 25" fill="none" xmlns="http://www.w3.org/2000/svg">
<path d="M1.87245 9V0.599999H9.10845V9H7.93245V1.332L8.22045 1.644H2.76045L3.06045 1.332V9H1.87245ZM14.2599 9.072C13.6199 9.072 13.0519 8.932 12.5559 8.652C12.0599 8.372 11.6679 7.988 11.3799 7.5C11.0919 7.004 10.9479 6.444 10.9479 5.82C10.9479 5.188 11.0919 4.628 11.3799 4.14C11.6679 3.652 12.0599 3.272 12.5559 3C13.0519 2.72 13.6199 2.58 14.2599 2.58C14.8919 2.58 15.4559 2.72 15.9519 3C16.4559 3.272 16.8479 3.652 17.1279 4.14C17.4159 4.62 17.5599 5.18 17.5599 5.82C17.5599 6.452 17.4159 7.012 17.1279 7.5C16.8479 7.988 16.4559 8.372 15.9519 8.652C15.4559 8.932 14.8919 9.072 14.2599 9.072ZM14.2599 8.064C14.6679 8.064 15.0319 7.972 15.3519 7.788C15.6799 7.604 15.9359 7.344 16.1199 7.008C16.3039 6.664 16.3959 6.268 16.3959 5.82C16.3959 5.364 16.3039 4.972 16.1199 4.644C15.9359 4.308 15.6799 4.048 15.3519 3.864C15.0319 3.68 14.6679 3.588 14.2599 3.588C13.8519 3.588 13.4879 3.68 13.1679 3.864C12.8479 4.048 12.5919 4.308 12.3999 4.644C12.2079 4.972 12.1119 5.364 12.1119 5.82C12.1119 6.268 12.2079 6.664 12.3999 7.008C12.5919 7.344 12.8479 7.604 13.1679 7.788C13.4879 7.972 13.8519 8.064 14.2599 8.064ZM21.9954 9.072C21.3474 9.072 20.7674 8.932 20.2554 8.652C19.7514 8.372 19.3554 7.988 19.0674 7.5C18.7794 7.012 18.6354 6.452 18.6354 5.82C18.6354 5.188 18.7794 4.628 19.0674 4.14C19.3554 3.652 19.7514 3.272 20.2554 3C20.7674 2.72 21.3474 2.58 21.9954 2.58C22.5714 2.58 23.0834 2.696 23.5314 2.928C23.9874 3.152 24.3394 3.488 24.5874 3.936L23.7114 4.5C23.5034 4.188 23.2474 3.96 22.9434 3.816C22.6474 3.664 22.3274 3.588 21.9834 3.588C21.5674 3.588 21.1954 3.68 20.8674 3.864C20.5394 4.048 20.2794 4.308 20.0874 4.644C19.8954 4.972 19.7994 5.364 19.7994 5.82C19.7994 6.276 19.8954 6.672 20.0874 7.008C20.2794 7.344 20.5394 7.604 20.8674 7.788C21.1954 7.972 21.5674 8.064 21.9834 8.064C22.3274 8.064 22.6474 7.992 22.9434 7.848C23.2474 7.696 23.5034 7.464 23.7114 7.152L24.5874 7.704C24.3394 8.144 23.9874 8.484 23.5314 8.724C23.0834 8.956 22.5714 9.072 21.9954 9.072ZM27.2569 9V3.348L27.5449 3.648H24.9289V2.64H30.7369V3.648H28.1329L28.4089 3.348V9H27.2569ZM35.8148 9V7.656L35.7548 7.404V5.112C35.7548 4.624 35.6108 4.248 35.3228 3.984C35.0428 3.712 34.6188 3.576 34.0508 3.576C33.6748 3.576 33.3068 3.64 32.9468 3.768C32.5868 3.888 32.2828 4.052 32.0348 4.26L31.5548 3.396C31.8828 3.132 32.2748 2.932 32.7308 2.796C33.1948 2.652 33.6788 2.58 34.1828 2.58C35.0548 2.58 35.7268 2.792 36.1988 3.216C36.6708 3.64 36.9068 4.288 36.9068 5.16V9H35.8148ZM33.7268 9.072C33.2548 9.072 32.8388 8.992 32.4788 8.832C32.1268 8.672 31.8548 8.452 31.6628 8.172C31.4708 7.884 31.3748 7.56 31.3748 7.2C31.3748 6.856 31.4548 6.544 31.6148 6.264C31.7828 5.984 32.0508 5.76 32.4188 5.592C32.7948 5.424 33.2988 5.34 33.9308 5.34H35.9468V6.168H33.9788C33.4028 6.168 33.0148 6.264 32.8148 6.456C32.6148 6.648 32.5148 6.88 32.5148 7.152C32.5148 7.464 32.6388 7.716 32.8868 7.908C33.1348 8.092 33.4788 8.184 33.9188 8.184C34.3508 8.184 34.7268 8.088 35.0468 7.896C35.3748 7.704 35.6108 7.424 35.7548 7.056L35.9828 7.848C35.8308 8.224 35.5628 8.524 35.1788 8.748C34.7948 8.964 34.3108 9.072 33.7268 9.072ZM38.9812 9V2.64H41.9332C42.6772 2.64 43.2612 2.784 43.6852 3.072C44.1172 3.352 44.3332 3.752 44.3332 4.272C44.3332 4.792 44.1292 5.196 43.7212 5.484C43.3212 5.764 42.7892 5.904 42.1252 5.904L42.3052 5.592C43.0652 5.592 43.6292 5.732 43.9972 6.012C44.3652 6.292 44.5492 6.704 44.5492 7.248C44.5492 7.8 44.3412 8.232 43.9252 8.544C43.5172 8.848 42.8892 9 42.0412 9H38.9812ZM40.1092 8.112H41.9572C42.4372 8.112 42.7972 8.04 43.0372 7.896C43.2772 7.744 43.3972 7.504 43.3972 7.176C43.3972 6.84 43.2852 6.596 43.0612 6.444C42.8452 6.284 42.5012 6.204 42.0292 6.204H40.1092V8.112ZM40.1092 5.376H41.8372C42.2772 5.376 42.6092 5.296 42.8332 5.136C43.0652 4.968 43.1812 4.736 43.1812 4.44C43.1812 4.136 43.0652 3.908 42.8332 3.756C42.6092 3.604 42.2772 3.528 41.8372 3.528H40.1092V5.376ZM50.5763 7.992L50.3123 8.292V2.64H51.4643V8.292L51.1763 7.992H54.5363L54.2603 8.292V2.64H55.4123V9H46.3523V2.64H47.5043V8.292L47.2283 7.992H50.5763ZM55.2683 10.356V8.7L55.5443 9H54.2003V7.992H56.3483V10.356H55.2683ZM57.6492 9V2.64H58.8012V7.272L62.7012 2.64H63.7452V9H62.5932V4.368L58.7052 9H57.6492ZM70.5892 9L68.1292 5.904L69.0772 5.328L71.9452 9H70.5892ZM65.9812 9V2.64H67.1332V9H65.9812ZM66.7852 6.312V5.328H68.8852V6.312H66.7852ZM69.1732 5.952L68.1052 5.808L70.5412 2.64H71.7772L69.1732 5.952ZM76.3758 9V2.64H82.2678V9H81.1158V3.36L81.3918 3.648H77.2518L77.5278 3.36V9H76.3758ZM87.8689 9.072C87.3409 9.072 86.8569 8.952 86.4169 8.712C85.9849 8.464 85.6369 8.1 85.3729 7.62C85.1169 7.14 84.9889 6.54 84.9889 5.82C84.9889 5.1 85.1129 4.5 85.3609 4.02C85.6169 3.54 85.9609 3.18 86.3929 2.94C86.8329 2.7 87.3249 2.58 87.8689 2.58C88.4929 2.58 89.0449 2.716 89.5249 2.988C90.0049 3.26 90.3849 3.64 90.6649 4.128C90.9449 4.608 91.0849 5.172 91.0849 5.82C91.0849 6.468 90.9449 7.036 90.6649 7.524C90.3849 8.012 90.0049 8.392 89.5249 8.664C89.0449 8.936 88.4929 9.072 87.8689 9.072ZM84.4969 11.328V2.64H85.6009V4.356L85.5289 5.832L85.6489 7.308V11.328H84.4969ZM87.7729 8.064C88.1809 8.064 88.5449 7.972 88.8649 7.788C89.1929 7.604 89.4489 7.344 89.6329 7.008C89.8249 6.664 89.9209 6.268 89.9209 5.82C89.9209 5.364 89.8249 4.972 89.6329 4.644C89.4489 4.308 89.1929 4.048 88.8649 3.864C88.5449 3.68 88.1809 3.588 87.7729 3.588C87.3729 3.588 87.0089 3.68 86.6809 3.864C86.3609 4.048 86.1049 4.308 85.9129 4.644C85.7289 4.972 85.6369 5.364 85.6369 5.82C85.6369 6.268 85.7289 6.664 85.9129 7.008C86.1049 7.344 86.3609 7.604 86.6809 7.788C87.0089 7.972 87.3729 8.064 87.7729 8.064ZM95.4826 9.072C94.8426 9.072 94.2746 8.932 93.7786 8.652C93.2826 8.372 92.8906 7.988 92.6026 7.5C92.3146 7.004 92.1706 6.444 92.1706 5.82C92.1706 5.188 92.3146 4.628 92.6026 4.14C92.8906 3.652 93.2826 3.272 93.7786 3C94.2746 2.72 94.8426 2.58 95.4826 2.58C96.1146 2.58 96.6786 2.72 97.1746 3C97.6786 3.272 98.0706 3.652 98.3506 4.14C98.6386 4.62 98.7826 5.18 98.7826 5.82C98.7826 6.452 98.6386 7.012 98.3506 7.5C98.0706 7.988 97.6786 8.372 97.1746 8.652C96.6786 8.932 96.1146 9.072 95.4826 9.072ZM95.4826 8.064C95.8906 8.064 96.2546 7.972 96.5746 7.788C96.9026 7.604 97.1586 7.344 97.3426 7.008C97.5266 6.664 97.6186 6.268 97.6186 5.82C97.6186 5.364 97.5266 4.972 97.3426 4.644C97.1586 4.308 96.9026 4.048 96.5746 3.864C96.2546 3.68 95.8906 3.588 95.4826 3.588C95.0746 3.588 94.7106 3.68 94.3906 3.864C94.0706 4.048 93.8146 4.308 93.6226 4.644C93.4306 4.972 93.3346 5.364 93.3346 5.82C93.3346 6.268 93.4306 6.664 93.6226 7.008C93.8146 7.344 94.0706 7.604 94.3906 7.788C94.7106 7.972 95.0746 8.064 95.4826 8.064ZM104.743 8.46V3.648H101.983L101.923 4.872C101.907 5.272 101.879 5.66 101.839 6.036C101.807 6.404 101.751 6.744 101.671 7.056C101.599 7.368 101.491 7.624 101.347 7.824C101.203 8.024 101.011 8.148 100.771 8.196L99.6312 7.992C99.8792 8 100.079 7.92 100.231 7.752C100.383 7.576 100.499 7.336 100.579 7.032C100.667 6.728 100.731 6.384 100.771 6C100.811 5.608 100.843 5.204 100.867 4.788L100.963 2.64H105.895V8.46H104.743ZM99.3792 10.476V7.992H106.867V10.476H105.787V9H100.471V10.476H99.3792ZM108.692 11.4C108.388 11.4 108.092 11.348 107.804 11.244C107.516 11.148 107.268 11.004 107.06 10.812L107.552 9.948C107.712 10.1 107.888 10.216 108.08 10.296C108.272 10.376 108.476 10.416 108.692 10.416C108.972 10.416 109.204 10.344 109.388 10.2C109.572 10.056 109.744 9.8 109.904 9.432L110.3 8.556L110.42 8.412L112.916 2.64H114.044L110.96 9.636C110.776 10.084 110.568 10.436 110.336 10.692C110.112 10.948 109.864 11.128 109.592 11.232C109.32 11.344 109.02 11.4 108.692 11.4ZM110.204 9.204L107.3 2.64H108.5L110.972 8.304L110.204 9.204ZM119.831 9L117.371 5.904L118.319 5.328L121.187 9H119.831ZM115.223 9V2.64H116.375V9H115.223ZM116.027 6.312V5.328H118.127V6.312H116.027ZM118.415 5.952L117.347 5.808L119.783 2.64H121.019L118.415 5.952ZM123.55 9V3.348L123.838 3.648H121.222V2.64H127.03V3.648H124.426L124.702 3.348V9H123.55ZM130.651 9.072C130.011 9.072 129.443 8.932 128.947 8.652C128.451 8.372 128.059 7.988 127.771 7.5C127.483 7.004 127.339 6.444 127.339 5.82C127.339 5.188 127.483 4.628 127.771 4.14C128.059 3.652 128.451 3.272 128.947 3C129.443 2.72 130.011 2.58 130.651 2.58C131.283 2.58 131.847 2.72 132.343 3C132.847 3.272 133.239 3.652 133.519 4.14C133.807 4.62 133.951 5.18 133.951 5.82C133.951 6.452 133.807 7.012 133.519 7.5C133.239 7.988 132.847 8.372 132.343 8.652C131.847 8.932 131.283 9.072 130.651 9.072ZM130.651 8.064C131.059 8.064 131.423 7.972 131.743 7.788C132.071 7.604 132.327 7.344 132.511 7.008C132.695 6.664 132.787 6.268 132.787 5.82C132.787 5.364 132.695 4.972 132.511 4.644C132.327 4.308 132.071 4.048 131.743 3.864C131.423 3.68 131.059 3.588 130.651 3.588C130.243 3.588 129.879 3.68 129.559 3.864C129.239 4.048 128.983 4.308 128.791 4.644C128.599 4.972 128.503 5.364 128.503 5.82C128.503 6.268 128.599 6.664 128.791 7.008C128.983 7.344 129.239 7.604 129.559 7.788C129.879 7.972 130.243 8.064 130.651 8.064ZM135.614 9V2.64H138.566C139.31 2.64 139.894 2.784 140.318 3.072C140.75 3.352 140.966 3.752 140.966 4.272C140.966 4.792 140.762 5.196 140.354 5.484C139.954 5.764 139.422 5.904 138.758 5.904L138.938 5.592C139.698 5.592 140.262 5.732 140.63 6.012C140.998 6.292 141.182 6.704 141.182 7.248C141.182 7.8 140.974 8.232 140.558 8.544C140.15 8.848 139.522 9 138.674 9H135.614ZM136.742 8.112H138.59C139.07 8.112 139.43 8.04 139.67 7.896C139.91 7.744 140.03 7.504 140.03 7.176C140.03 6.84 139.918 6.596 139.694 6.444C139.478 6.284 139.134 6.204 138.662 6.204H136.742V8.112ZM136.742 5.376H138.47C138.91 5.376 139.242 5.296 139.466 5.136C139.698 4.968 139.814 4.736 139.814 4.44C139.814 4.136 139.698 3.908 139.466 3.756C139.242 3.604 138.91 3.528 138.47 3.528H136.742V5.376ZM6.02445 22.46V17.648H3.26445L3.20445 18.872C3.18845 19.272 3.16045 19.66 3.12045 20.036C3.08845 20.404 3.03245 20.744 2.95245 21.056C2.88045 21.368 2.77245 21.624 2.62845 21.824C2.48445 22.024 2.29245 22.148 2.05245 22.196L0.912453 21.992C1.16045 22 1.36045 21.92 1.51245 21.752C1.66445 21.576 1.78045 21.336 1.86045 21.032C1.94845 20.728 2.01245 20.384 2.05245 20C2.09245 19.608 2.12445 19.204 2.14845 18.788L2.24445 16.64H7.17645V22.46H6.02445ZM0.660453 24.476V21.992H8.14845V24.476H7.06845V23H1.75245V24.476H0.660453ZM8.5932 22.988L8.6652 22.016C8.7212 22.024 8.7732 22.032 8.8212 22.04C8.8692 22.048 8.9132 22.052 8.9532 22.052C9.2092 22.052 9.4092 21.964 9.5532 21.788C9.7052 21.612 9.8172 21.38 9.8892 21.092C9.9612 20.796 10.0132 20.464 10.0452 20.096C10.0772 19.728 10.1012 19.36 10.1172 18.992L10.2252 16.64H15.1092V23H13.9572V17.312L14.2332 17.648H10.9692L11.2332 17.3L11.1492 19.064C11.1252 19.624 11.0812 20.148 11.0172 20.636C10.9532 21.124 10.8532 21.552 10.7172 21.92C10.5892 22.288 10.4092 22.576 10.1772 22.784C9.9532 22.992 9.6612 23.096 9.3012 23.096C9.1972 23.096 9.0852 23.084 8.9652 23.06C8.8532 23.044 8.7292 23.02 8.5932 22.988ZM21.4047 23V20.768L21.5847 20.984H19.5567C18.7087 20.984 18.0447 20.804 17.5647 20.444C17.0927 20.084 16.8567 19.56 16.8567 18.872C16.8567 18.136 17.1087 17.58 17.6127 17.204C18.1247 16.828 18.8047 16.64 19.6527 16.64H22.4367V23H21.4047ZM16.7967 23L18.5247 20.564H19.7127L18.0327 23H16.7967ZM21.4047 20.408V17.324L21.5847 17.648H19.6887C19.1607 17.648 18.7527 17.748 18.4647 17.948C18.1767 18.14 18.0327 18.46 18.0327 18.908C18.0327 19.74 18.5687 20.156 19.6407 20.156H21.5847L21.4047 20.408ZM34.075 14.6H35.275V23H34.075V14.6ZM29.251 23H28.051V14.6H29.251V23ZM34.183 19.256H29.131V18.212H34.183V19.256ZM40.3453 23.072C39.7053 23.072 39.1373 22.932 38.6413 22.652C38.1453 22.372 37.7533 21.988 37.4653 21.5C37.1773 21.004 37.0333 20.444 37.0333 19.82C37.0333 19.188 37.1773 18.628 37.4653 18.14C37.7533 17.652 38.1453 17.272 38.6413 17C39.1373 16.72 39.7053 16.58 40.3453 16.58C40.9773 16.58 41.5413 16.72 42.0373 17C42.5413 17.272 42.9333 17.652 43.2133 18.14C43.5013 18.62 43.6453 19.18 43.6453 19.82C43.6453 20.452 43.5013 21.012 43.2133 21.5C42.9333 21.988 42.5413 22.372 42.0373 22.652C41.5413 22.932 40.9773 23.072 40.3453 23.072ZM40.3453 22.064C40.7533 22.064 41.1173 21.972 41.4373 21.788C41.7653 21.604 42.0213 21.344 42.2053 21.008C42.3893 20.664 42.4813 20.268 42.4813 19.82C42.4813 19.364 42.3893 18.972 42.2053 18.644C42.0213 18.308 41.7653 18.048 41.4373 17.864C41.1173 17.68 40.7533 17.588 40.3453 17.588C39.9373 17.588 39.5733 17.68 39.2533 17.864C38.9333 18.048 38.6773 18.308 38.4853 18.644C38.2933 18.972 38.1973 19.364 38.1973 19.82C38.1973 20.268 38.2933 20.664 38.4853 21.008C38.6773 21.344 38.9333 21.604 39.2533 21.788C39.5733 21.972 39.9373 22.064 40.3453 22.064ZM45.4065 23V14.6H48.6825C49.4185 14.6 50.0465 14.716 50.5665 14.948C51.0865 15.18 51.4865 15.516 51.7665 15.956C52.0465 16.396 52.1865 16.92 52.1865 17.528C52.1865 18.136 52.0465 18.66 51.7665 19.1C51.4865 19.532 51.0865 19.864 50.5665 20.096C50.0465 20.328 49.4185 20.444 48.6825 20.444H46.0665L46.6065 19.892V23H45.4065ZM51.0225 23L48.8865 19.952H50.1705L52.3305 23H51.0225ZM46.6065 20.012L46.0665 19.424H48.6465C49.4145 19.424 49.9945 19.26 50.3865 18.932C50.7865 18.596 50.9865 18.128 50.9865 17.528C50.9865 16.928 50.7865 16.464 50.3865 16.136C49.9945 15.808 49.4145 15.644 48.6465 15.644H46.0665L46.6065 15.044V20.012ZM56.7892 23.072C56.1092 23.072 55.5092 22.932 54.9892 22.652C54.4772 22.372 54.0772 21.988 53.7892 21.5C53.5092 21.012 53.3692 20.452 53.3692 19.82C53.3692 19.188 53.5052 18.628 53.7772 18.14C54.0572 17.652 54.4372 17.272 54.9172 17C55.4052 16.72 55.9532 16.58 56.5612 16.58C57.1772 16.58 57.7212 16.716 58.1932 16.988C58.6652 17.26 59.0332 17.644 59.2972 18.14C59.5692 18.628 59.7052 19.2 59.7052 19.856C59.7052 19.904 59.7012 19.96 59.6932 20.024C59.6932 20.088 59.6892 20.148 59.6812 20.204H54.2692V19.376H59.0812L58.6132 19.664C58.6212 19.256 58.5372 18.892 58.3612 18.572C58.1852 18.252 57.9412 18.004 57.6292 17.828C57.3252 17.644 56.9692 17.552 56.5612 17.552C56.1612 17.552 55.8052 17.644 55.4932 17.828C55.1812 18.004 54.9372 18.256 54.7612 18.584C54.5852 18.904 54.4972 19.272 54.4972 19.688V19.88C54.4972 20.304 54.5932 20.684 54.7852 21.02C54.9852 21.348 55.2612 21.604 55.6132 21.788C55.9652 21.972 56.3692 22.064 56.8252 22.064C57.2012 22.064 57.5412 22 57.8452 21.872C58.1572 21.744 58.4292 21.552 58.6612 21.296L59.2972 22.04C59.0092 22.376 58.6492 22.632 58.2172 22.808C57.7932 22.984 57.3172 23.072 56.7892 23.072ZM65.2289 23.096C64.5889 23.096 63.9969 22.992 63.4529 22.784C62.9169 22.568 62.4489 22.268 62.0489 21.884C61.6569 21.492 61.3489 21.036 61.1249 20.516C60.9009 19.996 60.7889 19.424 60.7889 18.8C60.7889 18.176 60.9009 17.604 61.1249 17.084C61.3489 16.564 61.6609 16.112 62.0609 15.728C62.4609 15.336 62.9289 15.036 63.4649 14.828C64.0089 14.612 64.6009 14.504 65.2409 14.504C65.8889 14.504 66.4849 14.616 67.0289 14.84C67.5809 15.056 68.0489 15.38 68.4329 15.812L67.6529 16.568C67.3329 16.232 66.9729 15.984 66.5729 15.824C66.1729 15.656 65.7449 15.572 65.2889 15.572C64.8169 15.572 64.3769 15.652 63.9689 15.812C63.5689 15.972 63.2209 16.196 62.9249 16.484C62.6289 16.772 62.3969 17.116 62.2289 17.516C62.0689 17.908 61.9889 18.336 61.9889 18.8C61.9889 19.264 62.0689 19.696 62.2289 20.096C62.3969 20.488 62.6289 20.828 62.9249 21.116C63.2209 21.404 63.5689 21.628 63.9689 21.788C64.3769 21.948 64.8169 22.028 65.2889 22.028C65.7449 22.028 66.1729 21.948 66.5729 21.788C66.9729 21.62 67.3329 21.364 67.6529 21.02L68.4329 21.776C68.0489 22.208 67.5809 22.536 67.0289 22.76C66.4849 22.984 65.8849 23.096 65.2289 23.096ZM73.8427 23V21.656L73.7827 21.404V19.112C73.7827 18.624 73.6387 18.248 73.3507 17.984C73.0707 17.712 72.6467 17.576 72.0787 17.576C71.7027 17.576 71.3347 17.64 70.9747 17.768C70.6147 17.888 70.3107 18.052 70.0627 18.26L69.5827 17.396C69.9107 17.132 70.3027 16.932 70.7587 16.796C71.2227 16.652 71.7067 16.58 72.2107 16.58C73.0827 16.58 73.7547 16.792 74.2267 17.216C74.6987 17.64 74.9347 18.288 74.9347 19.16V23H73.8427ZM71.7547 23.072C71.2827 23.072 70.8667 22.992 70.5067 22.832C70.1547 22.672 69.8827 22.452 69.6907 22.172C69.4987 21.884 69.4027 21.56 69.4027 21.2C69.4027 20.856 69.4827 20.544 69.6427 20.264C69.8107 19.984 70.0787 19.76 70.4467 19.592C70.8227 19.424 71.3267 19.34 71.9587 19.34H73.9747V20.168H72.0067C71.4307 20.168 71.0427 20.264 70.8427 20.456C70.6427 20.648 70.5427 20.88 70.5427 21.152C70.5427 21.464 70.6667 21.716 70.9147 21.908C71.1627 22.092 71.5067 22.184 71.9467 22.184C72.3787 22.184 72.7547 22.088 73.0747 21.896C73.4027 21.704 73.6387 21.424 73.7827 21.056L74.0107 21.848C73.8587 22.224 73.5907 22.524 73.2067 22.748C72.8227 22.964 72.3387 23.072 71.7547 23.072Z" fill="#70798E"/>
</svg>
