<svg width="119" height="44" viewBox="0 0 119 44" fill="none" xmlns="http://www.w3.org/2000/svg">
<path d="M0.757969 7V-4.76837e-07H6.78797V7H5.80797V0.609999L6.04797 0.87H1.49797L1.74797 0.609999V7H0.757969ZM11.0809 7.06C10.5475 7.06 10.0742 6.94333 9.66086 6.71C9.24753 6.47667 8.92086 6.15667 8.68086 5.75C8.44086 5.33667 8.32086 4.87 8.32086 4.35C8.32086 3.82333 8.44086 3.35667 8.68086 2.95C8.92086 2.54333 9.24753 2.22667 9.66086 2C10.0742 1.76667 10.5475 1.65 11.0809 1.65C11.6075 1.65 12.0775 1.76667 12.4909 2C12.9109 2.22667 13.2375 2.54333 13.4709 2.95C13.7109 3.35 13.8309 3.81667 13.8309 4.35C13.8309 4.87667 13.7109 5.34333 13.4709 5.75C13.2375 6.15667 12.9109 6.47667 12.4909 6.71C12.0775 6.94333 11.6075 7.06 11.0809 7.06ZM11.0809 6.22C11.4209 6.22 11.7242 6.14333 11.9909 5.99C12.2642 5.83667 12.4775 5.62 12.6309 5.34C12.7842 5.05333 12.8609 4.72333 12.8609 4.35C12.8609 3.97 12.7842 3.64333 12.6309 3.37C12.4775 3.09 12.2642 2.87333 11.9909 2.72C11.7242 2.56667 11.4209 2.49 11.0809 2.49C10.7409 2.49 10.4375 2.56667 10.1709 2.72C9.90419 2.87333 9.69086 3.09 9.53086 3.37C9.37086 3.64333 9.29086 3.97 9.29086 4.35C9.29086 4.72333 9.37086 5.05333 9.53086 5.34C9.69086 5.62 9.90419 5.83667 10.1709 5.99C10.4375 6.14333 10.7409 6.22 11.0809 6.22ZM17.5271 7.06C16.9871 7.06 16.5038 6.94333 16.0771 6.71C15.6571 6.47667 15.3271 6.15667 15.0871 5.75C14.8471 5.34333 14.7271 4.87667 14.7271 4.35C14.7271 3.82333 14.8471 3.35667 15.0871 2.95C15.3271 2.54333 15.6571 2.22667 16.0771 2C16.5038 1.76667 16.9871 1.65 17.5271 1.65C18.0071 1.65 18.4338 1.74667 18.8071 1.94C19.1871 2.12667 19.4804 2.40667 19.6871 2.78L18.9571 3.25C18.7838 2.99 18.5704 2.8 18.3171 2.68C18.0704 2.55333 17.8038 2.49 17.5171 2.49C17.1704 2.49 16.8604 2.56667 16.5871 2.72C16.3138 2.87333 16.0971 3.09 15.9371 3.37C15.7771 3.64333 15.6971 3.97 15.6971 4.35C15.6971 4.73 15.7771 5.06 15.9371 5.34C16.0971 5.62 16.3138 5.83667 16.5871 5.99C16.8604 6.14333 17.1704 6.22 17.5171 6.22C17.8038 6.22 18.0704 6.16 18.3171 6.04C18.5704 5.91333 18.7838 5.72 18.9571 5.46L19.6871 5.92C19.4804 6.28667 19.1871 6.57 18.8071 6.77C18.4338 6.96333 18.0071 7.06 17.5271 7.06ZM21.9116 7V2.29L22.1516 2.54H19.9716V1.7H24.8116V2.54H22.6416L22.8716 2.29V7H21.9116ZM29.0433 7V5.88L28.9933 5.67V3.76C28.9933 3.35333 28.8733 3.04 28.6333 2.82C28.3999 2.59333 28.0466 2.48 27.5733 2.48C27.2599 2.48 26.9533 2.53333 26.6533 2.64C26.3533 2.74 26.0999 2.87667 25.8933 3.05L25.4933 2.33C25.7666 2.11 26.0933 1.94333 26.4733 1.83C26.8599 1.71 27.2633 1.65 27.6833 1.65C28.4099 1.65 28.9699 1.82667 29.3633 2.18C29.7566 2.53333 29.9533 3.07333 29.9533 3.8V7H29.0433ZM27.3033 7.06C26.9099 7.06 26.5633 6.99333 26.2633 6.86C25.9699 6.72667 25.7433 6.54333 25.5833 6.31C25.4233 6.07 25.3433 5.8 25.3433 5.5C25.3433 5.21333 25.4099 4.95333 25.5433 4.72C25.6833 4.48667 25.9066 4.3 26.2133 4.16C26.5266 4.02 26.9466 3.95 27.4733 3.95H29.1533V4.64H27.5133C27.0333 4.64 26.7099 4.72 26.5433 4.88C26.3766 5.04 26.2933 5.23333 26.2933 5.46C26.2933 5.72 26.3966 5.93 26.6033 6.09C26.8099 6.24333 27.0966 6.32 27.4633 6.32C27.8233 6.32 28.1366 6.24 28.4033 6.08C28.6766 5.92 28.8733 5.68667 28.9933 5.38L29.1833 6.04C29.0566 6.35333 28.8333 6.60333 28.5133 6.79C28.1933 6.97 27.7899 7.06 27.3033 7.06ZM31.682 7V1.7H34.142C34.762 1.7 35.2486 1.82 35.602 2.06C35.962 2.29333 36.142 2.62667 36.142 3.06C36.142 3.49333 35.972 3.83 35.632 4.07C35.2986 4.30333 34.8553 4.42 34.302 4.42L34.452 4.16C35.0853 4.16 35.5553 4.27667 35.862 4.51C36.1686 4.74333 36.322 5.08667 36.322 5.54C36.322 6 36.1486 6.36 35.802 6.62C35.462 6.87333 34.9386 7 34.232 7H31.682ZM32.622 6.26H34.162C34.562 6.26 34.862 6.2 35.062 6.08C35.262 5.95333 35.362 5.75333 35.362 5.48C35.362 5.2 35.2686 4.99667 35.082 4.87C34.902 4.73667 34.6153 4.67 34.222 4.67H32.622V6.26ZM32.622 3.98H34.062C34.4286 3.98 34.7053 3.91333 34.892 3.78C35.0853 3.64 35.182 3.44667 35.182 3.2C35.182 2.94667 35.0853 2.75667 34.892 2.63C34.7053 2.50333 34.4286 2.44 34.062 2.44H32.622V3.98ZM41.6645 7L39.6145 4.42L40.4045 3.94L42.7945 7H41.6645ZM37.8245 7V1.7H38.7845V7H37.8245ZM38.4945 4.76V3.94H40.2445V4.76H38.4945ZM40.4845 4.46L39.5945 4.34L41.6245 1.7H42.6545L40.4845 4.46ZM43.8011 7V1.7H44.7611V5.56L48.0111 1.7H48.8811V7H47.9211V3.14L44.6811 7H43.8011ZM53.43 7V1.7H58.34V7H57.38V2.3L57.61 2.54H54.16L54.39 2.3V7H53.43ZM63.0076 7.06C62.5676 7.06 62.1642 6.96 61.7976 6.76C61.4376 6.55333 61.1476 6.25 60.9276 5.85C60.7142 5.45 60.6076 4.95 60.6076 4.35C60.6076 3.75 60.7109 3.25 60.9176 2.85C61.1309 2.45 61.4176 2.15 61.7776 1.95C62.1442 1.75 62.5542 1.65 63.0076 1.65C63.5276 1.65 63.9876 1.76333 64.3876 1.99C64.7876 2.21667 65.1042 2.53333 65.3376 2.94C65.5709 3.34 65.6876 3.81 65.6876 4.35C65.6876 4.89 65.5709 5.36333 65.3376 5.77C65.1042 6.17667 64.7876 6.49333 64.3876 6.72C63.9876 6.94667 63.5276 7.06 63.0076 7.06ZM60.1976 8.94V1.7H61.1176V3.13L61.0576 4.36L61.1576 5.59V8.94H60.1976ZM62.9276 6.22C63.2676 6.22 63.5709 6.14333 63.8376 5.99C64.1109 5.83667 64.3242 5.62 64.4776 5.34C64.6376 5.05333 64.7176 4.72333 64.7176 4.35C64.7176 3.97 64.6376 3.64333 64.4776 3.37C64.3242 3.09 64.1109 2.87333 63.8376 2.72C63.5709 2.56667 63.2676 2.49 62.9276 2.49C62.5942 2.49 62.2909 2.56667 62.0176 2.72C61.7509 2.87333 61.5376 3.09 61.3776 3.37C61.2242 3.64333 61.1476 3.97 61.1476 4.35C61.1476 4.72333 61.2242 5.05333 61.3776 5.34C61.5376 5.62 61.7509 5.83667 62.0176 5.99C62.2909 6.14333 62.5942 6.22 62.9276 6.22ZM69.3523 7.06C68.819 7.06 68.3457 6.94333 67.9323 6.71C67.519 6.47667 67.1923 6.15667 66.9523 5.75C66.7123 5.33667 66.5923 4.87 66.5923 4.35C66.5923 3.82333 66.7123 3.35667 66.9523 2.95C67.1923 2.54333 67.519 2.22667 67.9323 2C68.3457 1.76667 68.819 1.65 69.3523 1.65C69.879 1.65 70.349 1.76667 70.7623 2C71.1823 2.22667 71.509 2.54333 71.7423 2.95C71.9823 3.35 72.1023 3.81667 72.1023 4.35C72.1023 4.87667 71.9823 5.34333 71.7423 5.75C71.509 6.15667 71.1823 6.47667 70.7623 6.71C70.349 6.94333 69.879 7.06 69.3523 7.06ZM69.3523 6.22C69.6923 6.22 69.9957 6.14333 70.2623 5.99C70.5357 5.83667 70.749 5.62 70.9023 5.34C71.0557 5.05333 71.1323 4.72333 71.1323 4.35C71.1323 3.97 71.0557 3.64333 70.9023 3.37C70.749 3.09 70.5357 2.87333 70.2623 2.72C69.9957 2.56667 69.6923 2.49 69.3523 2.49C69.0123 2.49 68.709 2.56667 68.4423 2.72C68.1757 2.87333 67.9623 3.09 67.8023 3.37C67.6423 3.64333 67.5623 3.97 67.5623 4.35C67.5623 4.72333 67.6423 5.05333 67.8023 5.34C67.9623 5.62 68.1757 5.83667 68.4423 5.99C68.709 6.14333 69.0123 6.22 69.3523 6.22ZM77.0695 6.55V2.54H74.7695L74.7195 3.56C74.7062 3.89333 74.6829 4.21667 74.6495 4.53C74.6229 4.83667 74.5762 5.12 74.5095 5.38C74.4495 5.64 74.3595 5.85333 74.2395 6.02C74.1195 6.18667 73.9595 6.29 73.7595 6.33L72.8095 6.16C73.0162 6.16667 73.1829 6.1 73.3095 5.96C73.4362 5.81333 73.5329 5.61333 73.5995 5.36C73.6729 5.10667 73.7262 4.82 73.7595 4.5C73.7929 4.17333 73.8195 3.83667 73.8395 3.49L73.9195 1.7H78.0295V6.55H77.0695ZM72.5995 8.23V6.16H78.8395V8.23H77.9395V7H73.5095V8.23H72.5995ZM80.3602 9C80.1068 9 79.8602 8.95667 79.6202 8.87C79.3802 8.79 79.1735 8.67 79.0002 8.51L79.4102 7.79C79.5435 7.91667 79.6902 8.01333 79.8502 8.08C80.0102 8.14667 80.1802 8.18 80.3602 8.18C80.5935 8.18 80.7868 8.12 80.9402 8C81.0935 7.88 81.2368 7.66667 81.3702 7.36L81.7002 6.63L81.8002 6.51L83.8802 1.7H84.8202L82.2502 7.53C82.0968 7.90333 81.9235 8.19667 81.7302 8.41C81.5435 8.62333 81.3368 8.77333 81.1102 8.86C80.8835 8.95333 80.6335 9 80.3602 9ZM81.6202 7.17L79.2002 1.7H80.2002L82.2602 6.42L81.6202 7.17ZM89.643 7L87.593 4.42L88.383 3.94L90.773 7H89.643ZM85.803 7V1.7H86.763V7H85.803ZM86.473 4.76V3.94H88.223V4.76H86.473ZM88.463 4.46L87.573 4.34L89.603 1.7H90.633L88.463 4.46ZM92.7417 7V2.29L92.9817 2.54H90.8017V1.7H95.6417V2.54H93.4717L93.7017 2.29V7H92.7417ZM98.659 7.06C98.1257 7.06 97.6523 6.94333 97.239 6.71C96.8257 6.47667 96.499 6.15667 96.259 5.75C96.019 5.33667 95.899 4.87 95.899 4.35C95.899 3.82333 96.019 3.35667 96.259 2.95C96.499 2.54333 96.8257 2.22667 97.239 2C97.6523 1.76667 98.1257 1.65 98.659 1.65C99.1857 1.65 99.6557 1.76667 100.069 2C100.489 2.22667 100.816 2.54333 101.049 2.95C101.289 3.35 101.409 3.81667 101.409 4.35C101.409 4.87667 101.289 5.34333 101.049 5.75C100.816 6.15667 100.489 6.47667 100.069 6.71C99.6557 6.94333 99.1857 7.06 98.659 7.06ZM98.659 6.22C98.999 6.22 99.3023 6.14333 99.569 5.99C99.8423 5.83667 100.056 5.62 100.209 5.34C100.362 5.05333 100.439 4.72333 100.439 4.35C100.439 3.97 100.362 3.64333 100.209 3.37C100.056 3.09 99.8423 2.87333 99.569 2.72C99.3023 2.56667 98.999 2.49 98.659 2.49C98.319 2.49 98.0157 2.56667 97.749 2.72C97.4823 2.87333 97.269 3.09 97.109 3.37C96.949 3.64333 96.869 3.97 96.869 4.35C96.869 4.72333 96.949 5.05333 97.109 5.34C97.269 5.62 97.4823 5.83667 97.749 5.99C98.0157 6.14333 98.319 6.22 98.659 6.22ZM102.795 7V1.7H105.255C105.875 1.7 106.362 1.82 106.715 2.06C107.075 2.29333 107.255 2.62667 107.255 3.06C107.255 3.49333 107.085 3.83 106.745 4.07C106.412 4.30333 105.969 4.42 105.415 4.42L105.565 4.16C106.199 4.16 106.669 4.27667 106.975 4.51C107.282 4.74333 107.435 5.08667 107.435 5.54C107.435 6 107.262 6.36 106.915 6.62C106.575 6.87333 106.052 7 105.345 7H102.795ZM103.735 6.26H105.275C105.675 6.26 105.975 6.2 106.175 6.08C106.375 5.95333 106.475 5.75333 106.475 5.48C106.475 5.2 106.382 4.99667 106.195 4.87C106.015 4.73667 105.729 4.67 105.335 4.67H103.735V6.26ZM103.735 3.98H105.175C105.542 3.98 105.819 3.91333 106.005 3.78C106.199 3.64 106.295 3.44667 106.295 3.2C106.295 2.94667 106.199 2.75667 106.005 2.63C105.819 2.50333 105.542 2.44 105.175 2.44H103.735V3.98ZM0.597969 19V13.7H5.50797V19H4.54797V14.3L4.77797 14.54H1.32797L1.55797 14.3V19H0.597969ZM7.36555 19V13.7H8.32555V17.56L11.5755 13.7H12.4455V19H11.4855V15.14L8.24555 19H7.36555ZM15.3589 19V14.29L15.5989 14.54H13.4189V13.7H18.2589V14.54H16.0889L16.3189 14.29V19H15.3589ZM22.4905 19V17.88L22.4405 17.67V15.76C22.4405 15.3533 22.3205 15.04 22.0805 14.82C21.8472 14.5933 21.4939 14.48 21.0205 14.48C20.7072 14.48 20.4005 14.5333 20.1005 14.64C19.8005 14.74 19.5472 14.8767 19.3405 15.05L18.9405 14.33C19.2139 14.11 19.5405 13.9433 19.9205 13.83C20.3072 13.71 20.7105 13.65 21.1305 13.65C21.8572 13.65 22.4172 13.8267 22.8105 14.18C23.2039 14.5333 23.4005 15.0733 23.4005 15.8V19H22.4905ZM20.7505 19.06C20.3572 19.06 20.0105 18.9933 19.7105 18.86C19.4172 18.7267 19.1905 18.5433 19.0305 18.31C18.8705 18.07 18.7905 17.8 18.7905 17.5C18.7905 17.2133 18.8572 16.9533 18.9905 16.72C19.1305 16.4867 19.3539 16.3 19.6605 16.16C19.9739 16.02 20.3939 15.95 20.9205 15.95H22.6005V16.64H20.9605C20.4805 16.64 20.1572 16.72 19.9905 16.88C19.8239 17.04 19.7405 17.2333 19.7405 17.46C19.7405 17.72 19.8439 17.93 20.0505 18.09C20.2572 18.2433 20.5439 18.32 20.9105 18.32C21.2705 18.32 21.5839 18.24 21.8505 18.08C22.1239 17.92 22.3205 17.6867 22.4405 17.38L22.6305 18.04C22.5039 18.3533 22.2805 18.6033 21.9605 18.79C21.6405 18.97 21.2372 19.06 20.7505 19.06ZM25.1292 19V13.7H26.0892V15.95H29.1092V13.7H30.0692V19H29.1092V16.78H26.0892V19H25.1292ZM31.9359 19V13.7H32.8959V17.56L36.1459 13.7H37.0159V19H36.0559V15.14L32.8159 19H31.9359ZM42.2692 19V17.14L42.4192 17.32H40.7292C40.0226 17.32 39.4692 17.17 39.0692 16.87C38.6759 16.57 38.4792 16.1333 38.4792 15.56C38.4792 14.9467 38.6892 14.4833 39.1092 14.17C39.5359 13.8567 40.1026 13.7 40.8092 13.7H43.1292V19H42.2692ZM38.4292 19L39.8692 16.97H40.8592L39.4592 19H38.4292ZM42.2692 16.84V14.27L42.4192 14.54H40.8392C40.3992 14.54 40.0592 14.6233 39.8192 14.79C39.5792 14.95 39.4592 15.2167 39.4592 15.59C39.4592 16.2833 39.9059 16.63 40.7992 16.63H42.4192L42.2692 16.84ZM49.9578 19.06C49.4245 19.06 48.9511 18.9433 48.5378 18.71C48.1245 18.4767 47.7978 18.1567 47.5578 17.75C47.3178 17.3367 47.1978 16.87 47.1978 16.35C47.1978 15.8233 47.3178 15.3567 47.5578 14.95C47.7978 14.5433 48.1245 14.2267 48.5378 14C48.9511 13.7667 49.4245 13.65 49.9578 13.65C50.4845 13.65 50.9545 13.7667 51.3678 14C51.7878 14.2267 52.1145 14.5433 52.3478 14.95C52.5878 15.35 52.7078 15.8167 52.7078 16.35C52.7078 16.8767 52.5878 17.3433 52.3478 17.75C52.1145 18.1567 51.7878 18.4767 51.3678 18.71C50.9545 18.9433 50.4845 19.06 49.9578 19.06ZM49.9578 18.22C50.2978 18.22 50.6011 18.1433 50.8678 17.99C51.1411 17.8367 51.3545 17.62 51.5078 17.34C51.6611 17.0533 51.7378 16.7233 51.7378 16.35C51.7378 15.97 51.6611 15.6433 51.5078 15.37C51.3545 15.09 51.1411 14.8733 50.8678 14.72C50.6011 14.5667 50.2978 14.49 49.9578 14.49C49.6178 14.49 49.3145 14.5667 49.0478 14.72C48.7811 14.8733 48.5678 15.09 48.4078 15.37C48.2478 15.6433 48.1678 15.97 48.1678 16.35C48.1678 16.7233 48.2478 17.0533 48.4078 17.34C48.5678 17.62 48.7811 17.8367 49.0478 17.99C49.3145 18.1433 49.6178 18.22 49.9578 18.22ZM54.0941 19V13.7H59.0041V19H58.0441V14.3L58.2741 14.54H54.8241L55.0541 14.3V19H54.0941ZM61.9116 19V14.29L62.1516 14.54H59.9716V13.7H64.8116V14.54H62.6416L62.8716 14.29V19H61.9116ZM67.8289 19.06C67.2956 19.06 66.8222 18.9433 66.4089 18.71C65.9956 18.4767 65.6689 18.1567 65.4289 17.75C65.1889 17.3367 65.0689 16.87 65.0689 16.35C65.0689 15.8233 65.1889 15.3567 65.4289 14.95C65.6689 14.5433 65.9956 14.2267 66.4089 14C66.8222 13.7667 67.2956 13.65 67.8289 13.65C68.3556 13.65 68.8256 13.7667 69.2389 14C69.6589 14.2267 69.9856 14.5433 70.2189 14.95C70.4589 15.35 70.5789 15.8167 70.5789 16.35C70.5789 16.8767 70.4589 17.3433 70.2189 17.75C69.9856 18.1567 69.6589 18.4767 69.2389 18.71C68.8256 18.9433 68.3556 19.06 67.8289 19.06ZM67.8289 18.22C68.1689 18.22 68.4722 18.1433 68.7389 17.99C69.0122 17.8367 69.2256 17.62 69.3789 17.34C69.5322 17.0533 69.6089 16.7233 69.6089 16.35C69.6089 15.97 69.5322 15.6433 69.3789 15.37C69.2256 15.09 69.0122 14.8733 68.7389 14.72C68.4722 14.5667 68.1689 14.49 67.8289 14.49C67.4889 14.49 67.1856 14.5667 66.9189 14.72C66.6522 14.8733 66.4389 15.09 66.2789 15.37C66.1189 15.6433 66.0389 15.97 66.0389 16.35C66.0389 16.7233 66.1189 17.0533 66.2789 17.34C66.4389 17.62 66.6522 17.8367 66.9189 17.99C67.1856 18.1433 67.4889 18.22 67.8289 18.22ZM71.9652 19V13.7H72.9552L75.2352 17.62H74.8352L77.1752 13.7H78.0752V19H77.2052V14.78L77.3652 14.87L75.2252 18.4H74.8052L72.6552 14.8L72.8452 14.76V19H71.9652ZM86.2492 18.55V14.54H83.9492L83.8992 15.56C83.8859 15.8933 83.8626 16.2167 83.8292 16.53C83.8026 16.8367 83.7559 17.12 83.6892 17.38C83.6292 17.64 83.5392 17.8533 83.4192 18.02C83.2992 18.1867 83.1392 18.29 82.9392 18.33L81.9892 18.16C82.1959 18.1667 82.3626 18.1 82.4892 17.96C82.6159 17.8133 82.7126 17.6133 82.7792 17.36C82.8526 17.1067 82.9059 16.82 82.9392 16.5C82.9726 16.1733 82.9992 15.8367 83.0192 15.49L83.0992 13.7H87.2092V18.55H86.2492ZM81.7792 20.23V18.16H88.0192V20.23H87.1192V19H82.6892V20.23H81.7792ZM88.3898 18.99L88.4498 18.18C88.4965 18.1867 88.5398 18.1933 88.5798 18.2C88.6198 18.2067 88.6565 18.21 88.6898 18.21C88.9032 18.21 89.0698 18.1367 89.1898 17.99C89.3165 17.8433 89.4098 17.65 89.4698 17.41C89.5298 17.1633 89.5732 16.8867 89.5998 16.58C89.6265 16.2733 89.6465 15.9667 89.6598 15.66L89.7498 13.7H93.8198V19H92.8598V14.26L93.0898 14.54H90.3698L90.5898 14.25L90.5198 15.72C90.4998 16.1867 90.4632 16.6233 90.4098 17.03C90.3565 17.4367 90.2732 17.7933 90.1598 18.1C90.0532 18.4067 89.9032 18.6467 89.7098 18.82C89.5232 18.9933 89.2798 19.08 88.9798 19.08C88.8932 19.08 88.7998 19.07 88.6998 19.05C88.6065 19.0367 88.5032 19.0167 88.3898 18.99ZM99.0661 19V17.14L99.2161 17.32H97.5261C96.8194 17.32 96.2661 17.17 95.8661 16.87C95.4728 16.57 95.2761 16.1333 95.2761 15.56C95.2761 14.9467 95.4861 14.4833 95.9061 14.17C96.3328 13.8567 96.8994 13.7 97.6061 13.7H99.9261V19H99.0661ZM95.2261 19L96.6661 16.97H97.6561L96.2561 19H95.2261ZM99.0661 16.84V14.27L99.2161 14.54H97.6361C97.1961 14.54 96.8561 14.6233 96.6161 14.79C96.3761 14.95 96.2561 15.2167 96.2561 15.59C96.2561 16.2833 96.7028 16.63 97.5961 16.63H99.2161L99.0661 16.84ZM3.40797 31.06C2.96797 31.06 2.56464 30.96 2.19797 30.76C1.83797 30.5533 1.54797 30.25 1.32797 29.85C1.11464 29.45 1.00797 28.95 1.00797 28.35C1.00797 27.75 1.1113 27.25 1.31797 26.85C1.5313 26.45 1.81797 26.15 2.17797 25.95C2.54464 25.75 2.95464 25.65 3.40797 25.65C3.92797 25.65 4.38797 25.7633 4.78797 25.99C5.18797 26.2167 5.50464 26.5333 5.73797 26.94C5.9713 27.34 6.08797 27.81 6.08797 28.35C6.08797 28.89 5.9713 29.3633 5.73797 29.77C5.50464 30.1767 5.18797 30.4933 4.78797 30.72C4.38797 30.9467 3.92797 31.06 3.40797 31.06ZM0.597969 32.94V25.7H1.51797V27.13L1.45797 28.36L1.55797 29.59V32.94H0.597969ZM3.32797 30.22C3.66797 30.22 3.9713 30.1433 4.23797 29.99C4.5113 29.8367 4.72464 29.62 4.87797 29.34C5.03797 29.0533 5.11797 28.7233 5.11797 28.35C5.11797 27.97 5.03797 27.6433 4.87797 27.37C4.72464 27.09 4.5113 26.8733 4.23797 26.72C3.9713 26.5667 3.66797 26.49 3.32797 26.49C2.99464 26.49 2.6913 26.5667 2.41797 26.72C2.1513 26.8733 1.93797 27.09 1.77797 27.37C1.62464 27.6433 1.54797 27.97 1.54797 28.35C1.54797 28.7233 1.62464 29.0533 1.77797 29.34C1.93797 29.62 2.1513 29.8367 2.41797 29.99C2.6913 30.1433 2.99464 30.22 3.32797 30.22ZM9.84273 31.06C9.27607 31.06 8.77607 30.9433 8.34273 30.71C7.91607 30.4767 7.58273 30.1567 7.34273 29.75C7.1094 29.3433 6.99273 28.8767 6.99273 28.35C6.99273 27.8233 7.10607 27.3567 7.33273 26.95C7.56607 26.5433 7.88273 26.2267 8.28273 26C8.6894 25.7667 9.14607 25.65 9.65273 25.65C10.1661 25.65 10.6194 25.7633 11.0127 25.99C11.4061 26.2167 11.7127 26.5367 11.9327 26.95C12.1594 27.3567 12.2727 27.8333 12.2727 28.38C12.2727 28.42 12.2694 28.4667 12.2627 28.52C12.2627 28.5733 12.2594 28.6233 12.2527 28.67H7.74273V27.98H11.7527L11.3627 28.22C11.3694 27.88 11.2994 27.5767 11.1527 27.31C11.0061 27.0433 10.8027 26.8367 10.5427 26.69C10.2894 26.5367 9.99273 26.46 9.65273 26.46C9.3194 26.46 9.02273 26.5367 8.76273 26.69C8.50273 26.8367 8.2994 27.0467 8.15273 27.32C8.00607 27.5867 7.93273 27.8933 7.93273 28.24V28.4C7.93273 28.7533 8.01273 29.07 8.17273 29.35C8.3394 29.6233 8.5694 29.8367 8.86273 29.99C9.15607 30.1433 9.49273 30.22 9.87273 30.22C10.1861 30.22 10.4694 30.1667 10.7227 30.06C10.9827 29.9533 11.2094 29.7933 11.4027 29.58L11.9327 30.2C11.6927 30.48 11.3927 30.6933 11.0327 30.84C10.6794 30.9867 10.2827 31.06 9.84273 31.06ZM16.072 31.06C15.532 31.06 15.0487 30.9433 14.622 30.71C14.202 30.4767 13.872 30.1567 13.632 29.75C13.392 29.3433 13.272 28.8767 13.272 28.35C13.272 27.8233 13.392 27.3567 13.632 26.95C13.872 26.5433 14.202 26.2267 14.622 26C15.0487 25.7667 15.532 25.65 16.072 25.65C16.552 25.65 16.9787 25.7467 17.352 25.94C17.732 26.1267 18.0254 26.4067 18.232 26.78L17.502 27.25C17.3287 26.99 17.1154 26.8 16.862 26.68C16.6154 26.5533 16.3487 26.49 16.062 26.49C15.7154 26.49 15.4054 26.5667 15.132 26.72C14.8587 26.8733 14.642 27.09 14.482 27.37C14.322 27.6433 14.242 27.97 14.242 28.35C14.242 28.73 14.322 29.06 14.482 29.34C14.642 29.62 14.8587 29.8367 15.132 29.99C15.4054 30.1433 15.7154 30.22 16.062 30.22C16.3487 30.22 16.6154 30.16 16.862 30.04C17.1154 29.9133 17.3287 29.72 17.502 29.46L18.232 29.92C18.0254 30.2867 17.732 30.57 17.352 30.77C16.9787 30.9633 16.552 31.06 16.072 31.06ZM20.4566 31V26.29L20.6966 26.54H18.5166V25.7H23.3566V26.54H21.1866L21.4166 26.29V31H20.4566ZM26.3738 31.06C25.8405 31.06 25.3672 30.9433 24.9538 30.71C24.5405 30.4767 24.2138 30.1567 23.9738 29.75C23.7338 29.3367 23.6138 28.87 23.6138 28.35C23.6138 27.8233 23.7338 27.3567 23.9738 26.95C24.2138 26.5433 24.5405 26.2267 24.9538 26C25.3672 25.7667 25.8405 25.65 26.3738 25.65C26.9005 25.65 27.3705 25.7667 27.7838 26C28.2038 26.2267 28.5305 26.5433 28.7638 26.95C29.0038 27.35 29.1238 27.8167 29.1238 28.35C29.1238 28.8767 29.0038 29.3433 28.7638 29.75C28.5305 30.1567 28.2038 30.4767 27.7838 30.71C27.3705 30.9433 26.9005 31.06 26.3738 31.06ZM26.3738 30.22C26.7138 30.22 27.0172 30.1433 27.2838 29.99C27.5572 29.8367 27.7705 29.62 27.9238 29.34C28.0772 29.0533 28.1538 28.7233 28.1538 28.35C28.1538 27.97 28.0772 27.6433 27.9238 27.37C27.7705 27.09 27.5572 26.8733 27.2838 26.72C27.0172 26.5667 26.7138 26.49 26.3738 26.49C26.0338 26.49 25.7305 26.5667 25.4638 26.72C25.1972 26.8733 24.9838 27.09 24.8238 27.37C24.6638 27.6433 24.5838 27.97 24.5838 28.35C24.5838 28.7233 24.6638 29.0533 24.8238 29.34C24.9838 29.62 25.1972 29.8367 25.4638 29.99C25.7305 30.1433 26.0338 30.22 26.3738 30.22ZM33.3201 31.06C32.8801 31.06 32.4767 30.96 32.1101 30.76C31.7501 30.5533 31.4601 30.25 31.2401 29.85C31.0267 29.45 30.9201 28.95 30.9201 28.35C30.9201 27.75 31.0234 27.25 31.2301 26.85C31.4434 26.45 31.7301 26.15 32.0901 25.95C32.4567 25.75 32.8667 25.65 33.3201 25.65C33.8401 25.65 34.3001 25.7633 34.7001 25.99C35.1001 26.2167 35.4167 26.5333 35.6501 26.94C35.8834 27.34 36.0001 27.81 36.0001 28.35C36.0001 28.89 35.8834 29.3633 35.6501 29.77C35.4167 30.1767 35.1001 30.4933 34.7001 30.72C34.3001 30.9467 33.8401 31.06 33.3201 31.06ZM30.5101 32.94V25.7H31.4301V27.13L31.3701 28.36L31.4701 29.59V32.94H30.5101ZM33.2401 30.22C33.5801 30.22 33.8834 30.1433 34.1501 29.99C34.4234 29.8367 34.6367 29.62 34.7901 29.34C34.9501 29.0533 35.0301 28.7233 35.0301 28.35C35.0301 27.97 34.9501 27.6433 34.7901 27.37C34.6367 27.09 34.4234 26.8733 34.1501 26.72C33.8834 26.5667 33.5801 26.49 33.2401 26.49C32.9067 26.49 32.6034 26.5667 32.3301 26.72C32.0634 26.8733 31.8501 27.09 31.6901 27.37C31.5367 27.6433 31.4601 27.97 31.4601 28.35C31.4601 28.7233 31.5367 29.0533 31.6901 29.34C31.8501 29.62 32.0634 29.8367 32.3301 29.99C32.6034 30.1433 32.9067 30.22 33.2401 30.22ZM40.596 31V29.88L40.546 29.67V27.76C40.546 27.3533 40.426 27.04 40.186 26.82C39.9527 26.5933 39.5993 26.48 39.126 26.48C38.8127 26.48 38.506 26.5333 38.206 26.64C37.906 26.74 37.6527 26.8767 37.446 27.05L37.046 26.33C37.3193 26.11 37.646 25.9433 38.026 25.83C38.4127 25.71 38.816 25.65 39.236 25.65C39.9627 25.65 40.5227 25.8267 40.916 26.18C41.3093 26.5333 41.506 27.0733 41.506 27.8V31H40.596ZM38.856 31.06C38.4627 31.06 38.116 30.9933 37.816 30.86C37.5227 30.7267 37.296 30.5433 37.136 30.31C36.976 30.07 36.896 29.8 36.896 29.5C36.896 29.2133 36.9627 28.9533 37.096 28.72C37.236 28.4867 37.4593 28.3 37.766 28.16C38.0793 28.02 38.4993 27.95 39.026 27.95H40.706V28.64H39.066C38.586 28.64 38.2627 28.72 38.096 28.88C37.9293 29.04 37.846 29.2333 37.846 29.46C37.846 29.72 37.9493 29.93 38.156 30.09C38.3627 30.2433 38.6493 30.32 39.016 30.32C39.376 30.32 39.6893 30.24 39.956 30.08C40.2293 29.92 40.426 29.6867 40.546 29.38L40.736 30.04C40.6093 30.3533 40.386 30.6033 40.066 30.79C39.746 30.97 39.3427 31.06 38.856 31.06ZM43.2347 31V25.7H44.1947V27.95H47.2147V25.7H48.1747V31H47.2147V28.78H44.1947V31H43.2347ZM52.3113 31.06C51.778 31.06 51.3047 30.9433 50.8913 30.71C50.478 30.4767 50.1513 30.1567 49.9113 29.75C49.6713 29.3367 49.5513 28.87 49.5513 28.35C49.5513 27.8233 49.6713 27.3567 49.9113 26.95C50.1513 26.5433 50.478 26.2267 50.8913 26C51.3047 25.7667 51.778 25.65 52.3113 25.65C52.838 25.65 53.308 25.7667 53.7213 26C54.1413 26.2267 54.468 26.5433 54.7013 26.95C54.9413 27.35 55.0613 27.8167 55.0613 28.35C55.0613 28.8767 54.9413 29.3433 54.7013 29.75C54.468 30.1567 54.1413 30.4767 53.7213 30.71C53.308 30.9433 52.838 31.06 52.3113 31.06ZM52.3113 30.22C52.6513 30.22 52.9547 30.1433 53.2213 29.99C53.4947 29.8367 53.708 29.62 53.8613 29.34C54.0147 29.0533 54.0913 28.7233 54.0913 28.35C54.0913 27.97 54.0147 27.6433 53.8613 27.37C53.708 27.09 53.4947 26.8733 53.2213 26.72C52.9547 26.5667 52.6513 26.49 52.3113 26.49C51.9713 26.49 51.668 26.5667 51.4013 26.72C51.1347 26.8733 50.9213 27.09 50.7613 27.37C50.6013 27.6433 50.5213 27.97 50.5213 28.35C50.5213 28.7233 50.6013 29.0533 50.7613 29.34C50.9213 29.62 51.1347 29.8367 51.4013 29.99C51.668 30.1433 51.9713 30.22 52.3113 30.22ZM56.4476 31V25.7H58.9076C59.5276 25.7 60.0142 25.82 60.3676 26.06C60.7276 26.2933 60.9076 26.6267 60.9076 27.06C60.9076 27.4933 60.7376 27.83 60.3976 28.07C60.0642 28.3033 59.6209 28.42 59.0676 28.42L59.2176 28.16C59.8509 28.16 60.3209 28.2767 60.6276 28.51C60.9342 28.7433 61.0876 29.0867 61.0876 29.54C61.0876 30 60.9142 30.36 60.5676 30.62C60.2276 30.8733 59.7042 31 58.9976 31H56.4476ZM57.3876 30.26H58.9276C59.3276 30.26 59.6276 30.2 59.8276 30.08C60.0276 29.9533 60.1276 29.7533 60.1276 29.48C60.1276 29.2 60.0342 28.9967 59.8476 28.87C59.6676 28.7367 59.3809 28.67 58.9876 28.67H57.3876V30.26ZM57.3876 27.98H58.8276C59.1942 27.98 59.4709 27.9133 59.6576 27.78C59.8509 27.64 59.9476 27.4467 59.9476 27.2C59.9476 26.9467 59.8509 26.7567 59.6576 26.63C59.4709 26.5033 59.1942 26.44 58.8276 26.44H57.3876V27.98ZM62.1902 32.48L62.6902 30.46L62.8202 31.04C62.6268 31.04 62.4635 30.98 62.3302 30.86C62.2035 30.74 62.1402 30.5767 62.1402 30.37C62.1402 30.17 62.2035 30.0067 62.3302 29.88C62.4635 29.7533 62.6235 29.69 62.8102 29.69C63.0035 29.69 63.1602 29.7567 63.2802 29.89C63.4002 30.0167 63.4602 30.1767 63.4602 30.37C63.4602 30.4367 63.4535 30.5033 63.4402 30.57C63.4335 30.63 63.4168 30.7033 63.3902 30.79C63.3702 30.87 63.3368 30.97 63.2902 31.09L62.8202 32.48H62.1902ZM67.5413 31V25.7H68.5313L70.8113 29.62H70.4113L72.7513 25.7H73.6513V31H72.7813V26.78L72.9413 26.87L70.8013 30.4H70.3813L68.2313 26.8L68.4213 26.76V31H67.5413ZM78.7698 31V29.88L78.7198 29.67V27.76C78.7198 27.3533 78.5998 27.04 78.3598 26.82C78.1265 26.5933 77.7732 26.48 77.2998 26.48C76.9865 26.48 76.6798 26.5333 76.3798 26.64C76.0798 26.74 75.8265 26.8767 75.6198 27.05L75.2198 26.33C75.4932 26.11 75.8198 25.9433 76.1998 25.83C76.5865 25.71 76.9898 25.65 77.4098 25.65C78.1365 25.65 78.6965 25.8267 79.0898 26.18C79.4832 26.5333 79.6798 27.0733 79.6798 27.8V31H78.7698ZM77.0298 31.06C76.6365 31.06 76.2898 30.9933 75.9898 30.86C75.6965 30.7267 75.4698 30.5433 75.3098 30.31C75.1498 30.07 75.0698 29.8 75.0698 29.5C75.0698 29.2133 75.1365 28.9533 75.2698 28.72C75.4098 28.4867 75.6332 28.3 75.9398 28.16C76.2532 28.02 76.6732 27.95 77.1998 27.95H78.8798V28.64H77.2398C76.7598 28.64 76.4365 28.72 76.2698 28.88C76.1032 29.04 76.0198 29.2333 76.0198 29.46C76.0198 29.72 76.1232 29.93 76.3298 30.09C76.5365 30.2433 76.8232 30.32 77.1898 30.32C77.5498 30.32 77.8632 30.24 78.1298 30.08C78.4032 29.92 78.5998 29.6867 78.7198 29.38L78.9098 30.04C78.7832 30.3533 78.5598 30.6033 78.2398 30.79C77.9198 30.97 77.5165 31.06 77.0298 31.06ZM84.2185 31.06C83.7785 31.06 83.3752 30.96 83.0085 30.76C82.6485 30.5533 82.3585 30.25 82.1385 29.85C81.9252 29.45 81.8185 28.95 81.8185 28.35C81.8185 27.75 81.9218 27.25 82.1285 26.85C82.3418 26.45 82.6285 26.15 82.9885 25.95C83.3552 25.75 83.7652 25.65 84.2185 25.65C84.7385 25.65 85.1985 25.7633 85.5985 25.99C85.9985 26.2167 86.3152 26.5333 86.5485 26.94C86.7818 27.34 86.8985 27.81 86.8985 28.35C86.8985 28.89 86.7818 29.3633 86.5485 29.77C86.3152 30.1767 85.9985 30.4933 85.5985 30.72C85.1985 30.9467 84.7385 31.06 84.2185 31.06ZM81.4085 32.94V25.7H82.3285V27.13L82.2685 28.36L82.3685 29.59V32.94H81.4085ZM84.1385 30.22C84.4785 30.22 84.7818 30.1433 85.0485 29.99C85.3218 29.8367 85.5352 29.62 85.6885 29.34C85.8485 29.0533 85.9285 28.7233 85.9285 28.35C85.9285 27.97 85.8485 27.6433 85.6885 27.37C85.5352 27.09 85.3218 26.8733 85.0485 26.72C84.7818 26.5667 84.4785 26.49 84.1385 26.49C83.8052 26.49 83.5018 26.5667 83.2285 26.72C82.9618 26.8733 82.7485 27.09 82.5885 27.37C82.4352 27.6433 82.3585 27.97 82.3585 28.35C82.3585 28.7233 82.4352 29.0533 82.5885 29.34C82.7485 29.62 82.9618 29.8367 83.2285 29.99C83.5018 30.1433 83.8052 30.22 84.1385 30.22ZM92.1333 31L90.0833 28.42L90.8733 27.94L93.2633 31H92.1333ZM88.2933 31V25.7H89.2533V31H88.2933ZM88.9633 28.76V27.94H90.7133V28.76H88.9633ZM90.9533 28.46L90.0633 28.34L92.0933 25.7H93.1233L90.9533 28.46ZM96.4541 31.06C95.8874 31.06 95.3874 30.9433 94.9541 30.71C94.5274 30.4767 94.1941 30.1567 93.9541 29.75C93.7207 29.3433 93.6041 28.8767 93.6041 28.35C93.6041 27.8233 93.7174 27.3567 93.9441 26.95C94.1774 26.5433 94.4941 26.2267 94.8941 26C95.3007 25.7667 95.7574 25.65 96.2641 25.65C96.7774 25.65 97.2307 25.7633 97.6241 25.99C98.0174 26.2167 98.3241 26.5367 98.5441 26.95C98.7707 27.3567 98.8841 27.8333 98.8841 28.38C98.8841 28.42 98.8807 28.4667 98.8741 28.52C98.8741 28.5733 98.8707 28.6233 98.8641 28.67H94.3541V27.98H98.3641L97.9741 28.22C97.9807 27.88 97.9107 27.5767 97.7641 27.31C97.6174 27.0433 97.4141 26.8367 97.1541 26.69C96.9007 26.5367 96.6041 26.46 96.2641 26.46C95.9307 26.46 95.6341 26.5367 95.3741 26.69C95.1141 26.8367 94.9107 27.0467 94.7641 27.32C94.6174 27.5867 94.5441 27.8933 94.5441 28.24V28.4C94.5441 28.7533 94.6241 29.07 94.7841 29.35C94.9507 29.6233 95.1807 29.8367 95.4741 29.99C95.7674 30.1433 96.1041 30.22 96.4841 30.22C96.7974 30.22 97.0807 30.1667 97.3341 30.06C97.5941 29.9533 97.8207 29.7933 98.0141 29.58L98.5441 30.2C98.3041 30.48 98.0041 30.6933 97.6441 30.84C97.2907 30.9867 96.8941 31.06 96.4541 31.06ZM101.199 31V26.29L101.439 26.54H99.2588V25.7H104.099V26.54H101.929L102.159 26.29V31H101.199ZM107.116 31.06C106.583 31.06 106.109 30.9433 105.696 30.71C105.283 30.4767 104.956 30.1567 104.716 29.75C104.476 29.3367 104.356 28.87 104.356 28.35C104.356 27.8233 104.476 27.3567 104.716 26.95C104.956 26.5433 105.283 26.2267 105.696 26C106.109 25.7667 106.583 25.65 107.116 25.65C107.643 25.65 108.113 25.7667 108.526 26C108.946 26.2267 109.273 26.5433 109.506 26.95C109.746 27.35 109.866 27.8167 109.866 28.35C109.866 28.8767 109.746 29.3433 109.506 29.75C109.273 30.1567 108.946 30.4767 108.526 30.71C108.113 30.9433 107.643 31.06 107.116 31.06ZM107.116 30.22C107.456 30.22 107.759 30.1433 108.026 29.99C108.299 29.8367 108.513 29.62 108.666 29.34C108.819 29.0533 108.896 28.7233 108.896 28.35C108.896 27.97 108.819 27.6433 108.666 27.37C108.513 27.09 108.299 26.8733 108.026 26.72C107.759 26.5667 107.456 26.49 107.116 26.49C106.776 26.49 106.473 26.5667 106.206 26.72C105.939 26.8733 105.726 27.09 105.566 27.37C105.406 27.6433 105.326 27.97 105.326 28.35C105.326 28.7233 105.406 29.0533 105.566 29.34C105.726 29.62 105.939 29.8367 106.206 29.99C106.473 30.1433 106.776 30.22 107.116 30.22ZM111.252 31V25.7H113.712C114.332 25.7 114.819 25.82 115.172 26.06C115.532 26.2933 115.712 26.6267 115.712 27.06C115.712 27.4933 115.542 27.83 115.202 28.07C114.869 28.3033 114.426 28.42 113.872 28.42L114.022 28.16C114.656 28.16 115.126 28.2767 115.432 28.51C115.739 28.7433 115.892 29.0867 115.892 29.54C115.892 30 115.719 30.36 115.372 30.62C115.032 30.8733 114.509 31 113.802 31H111.252ZM112.192 30.26H113.732C114.132 30.26 114.432 30.2 114.632 30.08C114.832 29.9533 114.932 29.7533 114.932 29.48C114.932 29.2 114.839 28.9967 114.652 28.87C114.472 28.7367 114.186 28.67 113.792 28.67H112.192V30.26ZM112.192 27.98H113.632C113.999 27.98 114.276 27.9133 114.462 27.78C114.656 27.64 114.752 27.4467 114.752 27.2C114.752 26.9467 114.656 26.7567 114.462 26.63C114.276 26.5033 113.999 26.44 113.632 26.44H112.192V27.98ZM116.995 32.48L117.495 30.46L117.625 31.04C117.432 31.04 117.268 30.98 117.135 30.86C117.008 30.74 116.945 30.5767 116.945 30.37C116.945 30.17 117.008 30.0067 117.135 29.88C117.268 29.7533 117.428 29.69 117.615 29.69C117.808 29.69 117.965 29.7567 118.085 29.89C118.205 30.0167 118.265 30.1767 118.265 30.37C118.265 30.4367 118.258 30.5033 118.245 30.57C118.238 30.63 118.222 30.7033 118.195 30.79C118.175 30.87 118.142 30.97 118.095 31.09L117.625 32.48H116.995ZM2.86797 43.06C2.33464 43.06 1.8613 42.9433 1.44797 42.71C1.03464 42.4767 0.707969 42.1567 0.467969 41.75C0.227969 41.3367 0.107969 40.87 0.107969 40.35C0.107969 39.8233 0.227969 39.3567 0.467969 38.95C0.707969 38.5433 1.03464 38.2267 1.44797 38C1.8613 37.7667 2.33464 37.65 2.86797 37.65C3.39464 37.65 3.86464 37.7667 4.27797 38C4.69797 38.2267 5.02464 38.5433 5.25797 38.95C5.49797 39.35 5.61797 39.8167 5.61797 40.35C5.61797 40.8767 5.49797 41.3433 5.25797 41.75C5.02464 42.1567 4.69797 42.4767 4.27797 42.71C3.86464 42.9433 3.39464 43.06 2.86797 43.06ZM2.86797 42.22C3.20797 42.22 3.5113 42.1433 3.77797 41.99C4.0513 41.8367 4.26464 41.62 4.41797 41.34C4.5713 41.0533 4.64797 40.7233 4.64797 40.35C4.64797 39.97 4.5713 39.6433 4.41797 39.37C4.26464 39.09 4.0513 38.8733 3.77797 38.72C3.5113 38.5667 3.20797 38.49 2.86797 38.49C2.52797 38.49 2.22464 38.5667 1.95797 38.72C1.6913 38.8733 1.47797 39.09 1.31797 39.37C1.15797 39.6433 1.07797 39.97 1.07797 40.35C1.07797 40.7233 1.15797 41.0533 1.31797 41.34C1.47797 41.62 1.6913 41.8367 1.95797 41.99C2.22464 42.1433 2.52797 42.22 2.86797 42.22ZM7.00422 43V37.7H11.9142V43H10.9542V38.3L11.1842 38.54H7.73422L7.96422 38.3V43H7.00422ZM14.8218 43V38.29L15.0618 38.54H12.8818V37.7H17.7218V38.54H15.5518L15.7818 38.29V43H14.8218ZM20.7391 43.06C20.2057 43.06 19.7324 42.9433 19.3191 42.71C18.9057 42.4767 18.5791 42.1567 18.3391 41.75C18.0991 41.3367 17.9791 40.87 17.9791 40.35C17.9791 39.8233 18.0991 39.3567 18.3391 38.95C18.5791 38.5433 18.9057 38.2267 19.3191 38C19.7324 37.7667 20.2057 37.65 20.7391 37.65C21.2657 37.65 21.7357 37.7667 22.1491 38C22.5691 38.2267 22.8957 38.5433 23.1291 38.95C23.3691 39.35 23.4891 39.8167 23.4891 40.35C23.4891 40.8767 23.3691 41.3433 23.1291 41.75C22.8957 42.1567 22.5691 42.4767 22.1491 42.71C21.7357 42.9433 21.2657 43.06 20.7391 43.06ZM20.7391 42.22C21.0791 42.22 21.3824 42.1433 21.6491 41.99C21.9224 41.8367 22.1357 41.62 22.2891 41.34C22.4424 41.0533 22.5191 40.7233 22.5191 40.35C22.5191 39.97 22.4424 39.6433 22.2891 39.37C22.1357 39.09 21.9224 38.8733 21.6491 38.72C21.3824 38.5667 21.0791 38.49 20.7391 38.49C20.3991 38.49 20.0957 38.5667 19.8291 38.72C19.5624 38.8733 19.3491 39.09 19.1891 39.37C19.0291 39.6433 18.9491 39.97 18.9491 40.35C18.9491 40.7233 19.0291 41.0533 19.1891 41.34C19.3491 41.62 19.5624 41.8367 19.8291 41.99C20.0957 42.1433 20.3991 42.22 20.7391 42.22ZM24.8753 43V37.7H27.3353C27.9553 37.7 28.442 37.82 28.7953 38.06C29.1553 38.2933 29.3353 38.6267 29.3353 39.06C29.3353 39.4933 29.1653 39.83 28.8253 40.07C28.492 40.3033 28.0486 40.42 27.4953 40.42L27.6453 40.16C28.2786 40.16 28.7486 40.2767 29.0553 40.51C29.362 40.7433 29.5153 41.0867 29.5153 41.54C29.5153 42 29.342 42.36 28.9953 42.62C28.6553 42.8733 28.132 43 27.4253 43H24.8753ZM25.8153 42.26H27.3553C27.7553 42.26 28.0553 42.2 28.2553 42.08C28.4553 41.9533 28.5553 41.7533 28.5553 41.48C28.5553 41.2 28.462 40.9967 28.2753 40.87C28.0953 40.7367 27.8086 40.67 27.4153 40.67H25.8153V42.26ZM25.8153 39.98H27.2553C27.622 39.98 27.8986 39.9133 28.0853 39.78C28.2786 39.64 28.3753 39.4467 28.3753 39.2C28.3753 38.9467 28.2786 38.7567 28.0853 38.63C27.8986 38.5033 27.622 38.44 27.2553 38.44H25.8153V39.98ZM31.0179 43V37.7H31.9779V41.56L35.2279 37.7H36.0979V43H35.1379V39.14L31.8979 43H31.0179ZM41.8013 43L39.7513 40.42L40.5413 39.94L42.9313 43H41.8013ZM37.9613 43V37.7H38.9213V43H37.9613ZM38.6313 40.76V39.94H40.3813V40.76H38.6313ZM40.6213 40.46L39.7313 40.34L41.7613 37.7H42.7913L40.6213 40.46ZM46.032 43.06C45.4987 43.06 45.0254 42.9433 44.612 42.71C44.1987 42.4767 43.872 42.1567 43.632 41.75C43.392 41.3367 43.272 40.87 43.272 40.35C43.272 39.8233 43.392 39.3567 43.632 38.95C43.872 38.5433 44.1987 38.2267 44.612 38C45.0254 37.7667 45.4987 37.65 46.032 37.65C46.5587 37.65 47.0287 37.7667 47.442 38C47.862 38.2267 48.1887 38.5433 48.422 38.95C48.662 39.35 48.782 39.8167 48.782 40.35C48.782 40.8767 48.662 41.3433 48.422 41.75C48.1887 42.1567 47.862 42.4767 47.442 42.71C47.0287 42.9433 46.5587 43.06 46.032 43.06ZM46.032 42.22C46.372 42.22 46.6754 42.1433 46.942 41.99C47.2154 41.8367 47.4287 41.62 47.582 41.34C47.7354 41.0533 47.812 40.7233 47.812 40.35C47.812 39.97 47.7354 39.6433 47.582 39.37C47.4287 39.09 47.2154 38.8733 46.942 38.72C46.6754 38.5667 46.372 38.49 46.032 38.49C45.692 38.49 45.3887 38.5667 45.122 38.72C44.8554 38.8733 44.642 39.09 44.482 39.37C44.322 39.6433 44.242 39.97 44.242 40.35C44.242 40.7233 44.322 41.0533 44.482 41.34C44.642 41.62 44.8554 41.8367 45.122 41.99C45.3887 42.1433 45.692 42.22 46.032 42.22ZM50.1683 43V37.7H52.6283C53.2483 37.7 53.7349 37.82 54.0883 38.06C54.4483 38.2933 54.6283 38.6267 54.6283 39.06C54.6283 39.4933 54.4583 39.83 54.1183 40.07C53.7849 40.3033 53.3416 40.42 52.7883 40.42L52.9383 40.16C53.5716 40.16 54.0416 40.2767 54.3483 40.51C54.6549 40.7433 54.8083 41.0867 54.8083 41.54C54.8083 42 54.6349 42.36 54.2883 42.62C53.9483 42.8733 53.4249 43 52.7183 43H50.1683ZM51.1083 42.26H52.6483C53.0483 42.26 53.3483 42.2 53.5483 42.08C53.7483 41.9533 53.8483 41.7533 53.8483 41.48C53.8483 41.2 53.7549 40.9967 53.5683 40.87C53.3883 40.7367 53.1016 40.67 52.7083 40.67H51.1083V42.26ZM51.1083 39.98H52.5483C52.9149 39.98 53.1916 39.9133 53.3783 39.78C53.5716 39.64 53.6683 39.4467 53.6683 39.2C53.6683 38.9467 53.5716 38.7567 53.3783 38.63C53.1916 38.5033 52.9149 38.44 52.5483 38.44H51.1083V39.98Z" fill="white"/>
</svg>
