<svg width="24" height="24" fill="none" xmlns="http://www.w3.org/2000/svg"><path d="M20.707 3.293a1 1 0 010 1.414l-16 16a1 1 0 01-1.414-1.414l16-16a1 1 0 011.414 0zM15.8 5.372A8.852 8.852 0 0012 4.5c-2.944 0-5.301 1.504-6.977 3.1-1.679 1.6-2.768 3.38-3.2 4.15a1.846 1.846 0 00-.084 1.642c.162.374.438.953.844 1.625a1 1 0 101.712-1.034 11.896 11.896 0 01-.691-1.319c.406-.715 1.367-2.252 2.799-3.616C7.883 7.638 9.77 6.5 12 6.5c.802 0 1.56.147 2.27.401l1.53-1.529zm1.89 3.766c1.38 1.341 2.309 2.827 2.706 3.526-.138.31-.364.778-.691 1.319a1 1 0 001.712 1.034c.406-.672.681-1.25.843-1.625a1.846 1.846 0 00-.084-1.642c-.42-.75-1.465-2.46-3.071-4.026L17.69 9.138z" fill="#969BA8"/><path d="M12 8c.363 0 .717.039 1.059.112L11 10.17a3.008 3.008 0 00-1.831 1.831L7.112 14.06A5 5 0 0112 8zm0 8c-.351 0-.688-.06-1-.17l-1.502 1.5a5 5 0 006.832-6.832L14.829 12A3 3 0 0112 16z" fill="#969BA8"/></svg>