<svg width="40" height="40" fill="none" xmlns="http://www.w3.org/2000/svg"><rect width="40" height="40" rx="20" fill="#F4F7FB"/><path fill-rule="evenodd" clip-rule="evenodd" d="M23.711 12H17.29A5.28 5.28 0 0012 17.289v6.422A5.28 5.28 0 0017.289 29h6.422A5.28 5.28 0 0029 23.711V17.29A5.28 5.28 0 0023.711 12zM20.5 16.249a4.232 4.232 0 00-4.25 4.25 4.232 4.232 0 004.25 4.25 4.232 4.232 0 004.25-4.25 4.232 4.232 0 00-4.25-4.25zm0 6.894a2.64 2.64 0 01-2.644-2.644c0-1.417 1.227-2.644 2.644-2.644s2.644 1.227 2.644 2.644a2.64 2.64 0 01-2.644 2.644zm5.314-7.424a.531.531 0 11-1.063 0 .531.531 0 011.063 0z" fill="#203686"/></svg>