<svg width="40" height="40" fill="none" xmlns="http://www.w3.org/2000/svg"><rect width="40" height="40" rx="20" fill="#F4F7FB"/><path d="M25.631 22.077c.421-.422.482-1.024.12-1.626-.3-.481-.842-.722-1.444-.602a2.03 2.03 0 00-.723.362c-1.866 1.264-4.394 1.204-6.26-.06l-.362-.181c-.662-.301-1.324-.18-1.685.421-.422.602-.362 1.265.18 1.806.12.12.24.18.301.301l.06.06c.843.663 1.867 1.084 3.191 1.265l-.783.782-2.046 2.047c-.181.18-.422.482-.422.903 0 .542.301 1.084.843 1.325.18.12.361.12.542.12.3 0 .662-.12.903-.421l2.348-2.348.06-.06s.06 0 .06.06c.482.542 1.023 1.023 1.505 1.565l.722.722c.301.301.542.422.903.422.542.06 1.144-.301 1.385-.843.24-.482.12-1.084-.3-1.445-.603-.602-1.205-1.264-1.867-1.866l-1.024-1.024c.542-.06 1.144-.18 1.686-.42.903-.302 1.565-.723 2.107-1.265z" fill="#203686"/><path d="M20.454 20.391c2.588 0 4.695-2.046 4.695-4.635a4.735 4.735 0 00-1.384-3.371C22.862 11.482 21.718 11 20.514 11c-2.589 0-4.635 2.107-4.696 4.635 0 1.265.482 2.409 1.385 3.312.843.963 1.987 1.444 3.25 1.444zm-1.325-6.02a1.868 1.868 0 011.325-.542c1.083 0 1.866.843 1.866 1.867 0 1.083-.843 1.866-1.866 1.866-1.084 0-1.866-.843-1.866-1.866 0-.482.18-.964.541-1.325z" fill="#203686"/><path d="M25.631 22.077c.421-.422.482-1.024.12-1.626-.3-.481-.842-.722-1.444-.602a2.03 2.03 0 00-.723.362c-1.866 1.264-4.394 1.204-6.26-.06l-.362-.181c-.662-.301-1.324-.18-1.685.421-.422.602-.362 1.265.18 1.806.12.12.24.18.301.301l.06.06c.843.663 1.867 1.084 3.191 1.265l-.783.782-2.046 2.047c-.181.18-.422.482-.422.903 0 .542.301 1.084.843 1.325.18.12.361.12.542.12.3 0 .662-.12.903-.421l2.348-2.348.06-.06s.06 0 .06.06c.482.542 1.023 1.023 1.505 1.565l.722.722c.301.301.542.422.903.422.542.06 1.144-.301 1.385-.843.24-.482.12-1.084-.3-1.445-.603-.602-1.205-1.264-1.867-1.866l-1.024-1.024c.542-.06 1.144-.18 1.686-.42.903-.302 1.565-.723 2.107-1.265z" fill="#203686"/></svg>