<svg width="104" height="93" viewBox="0 0 104 93" fill="none" xmlns="http://www.w3.org/2000/svg">
<path d="M52 92.2013C80.3192 92.2013 103.276 83.1953 103.276 72.086C103.276 60.9766 80.3192 51.9707 52 51.9707C23.6809 51.9707 0.723633 60.9766 0.723633 72.086C0.723633 83.1953 23.6809 92.2013 52 92.2013Z" fill="#F4F7FB"/>
<path d="M31.4528 11.9072L29.4306 24.5878H22.8584L24.8806 11.9072H31.4528Z" fill="#F4F7FB"/>
<path d="M64.1348 25.0107C64.5723 25.0107 64.8723 25.3524 64.8043 25.7746C64.7376 26.1969 64.3293 26.5399 63.8904 26.5399H38.2029C37.7654 26.5399 37.464 26.1969 37.5321 25.7746C37.5987 25.3524 38.0084 25.0107 38.4459 25.0107H64.1348Z" fill="#70798E"/>
<path d="M66.269 15.954H81.2343L78.9898 30.0276L78.1009 35.6026H38.7176C37.2829 35.6026 36.1759 34.6748 36.0176 33.3373L35.8954 32.2915C35.737 30.9553 34.6301 30.0262 33.1954 30.0262H21.9912L22.6148 26.1123H30.7718L33.2815 10.3762H25.1245L26.5773 1.26367H68.3509L68.5704 1.51367L66.269 15.954ZM64.7079 21.4164C65.1454 21.4164 65.5537 21.0748 65.6204 20.6526C65.687 20.2303 65.3884 19.8873 64.9509 19.8873H39.262C38.8245 19.8873 38.4148 20.2303 38.3468 20.6526C38.2801 21.0748 38.5801 21.4164 39.0176 21.4164H64.7079ZM63.8912 26.5387C64.3287 26.5387 64.737 26.1956 64.8051 25.7734C64.8718 25.3512 64.5732 25.0095 64.1357 25.0095H38.4454C38.0079 25.0095 37.5982 25.3512 37.5315 25.7734C37.4648 26.1956 37.7648 26.5387 38.2023 26.5387H63.8912ZM63.0745 31.6581C63.512 31.6581 63.9204 31.3165 63.987 30.8942C64.0537 30.472 63.7551 30.129 63.3176 30.129H37.6287C37.1912 30.129 36.7815 30.472 36.7134 30.8942C36.6468 31.3165 36.9468 31.6581 37.3843 31.6581H63.0745Z" fill="#F4F7FB"/>
<path d="M63.3184 30.1309C63.7559 30.1309 64.0545 30.4739 63.9879 30.8961C63.9212 31.3184 63.5129 31.66 63.0754 31.66H37.3865C36.949 31.66 36.6476 31.3184 36.7156 30.8961C36.7823 30.4739 37.192 30.1309 37.6309 30.1309H63.3184Z" fill="#70798E"/>
<path d="M63.3184 30.1309C63.7559 30.1309 64.0545 30.4739 63.9879 30.8961C63.9212 31.3184 63.5129 31.66 63.0754 31.66H37.3865C36.949 31.66 36.6476 31.3184 36.7156 30.8961C36.7823 30.4739 37.192 30.1309 37.6309 30.1309H63.3184Z" fill="#70798E"/>
<path d="M91.5253 36.0615C91.5239 36.0184 91.5197 35.9754 91.5155 35.9323C91.5128 35.9073 91.5114 35.8809 91.5086 35.8559C91.503 35.8087 91.4947 35.7615 91.4864 35.7143C91.4836 35.6976 91.4822 35.6809 91.478 35.6643C91.478 35.6615 91.4766 35.6587 91.4753 35.6546C91.4655 35.6046 91.453 35.5546 91.4405 35.5059C91.4378 35.4934 91.435 35.4796 91.4308 35.4671C91.4142 35.4059 91.3947 35.3448 91.3725 35.2851C91.3725 35.2837 91.3711 35.2823 91.3711 35.2809C91.3697 35.2782 91.3683 35.2754 91.3669 35.2712C91.3336 35.1809 91.2961 35.0948 91.253 35.0101C91.2489 35.0032 91.2475 34.9948 91.2433 34.9879C91.2419 34.9837 91.2392 34.9809 91.2364 34.9768C91.1975 34.9032 91.1558 34.8309 91.11 34.7615C91.1058 34.7546 91.1017 34.7476 91.0975 34.7407C91.0767 34.7101 91.0558 34.6796 91.035 34.6504L88.4225 31.0879C88.4489 31.124 88.4739 31.1615 88.4975 31.199C88.5433 31.2684 88.585 31.3407 88.6239 31.4143C88.6294 31.4254 88.635 31.4365 88.6405 31.4476C88.6822 31.5323 88.7211 31.6198 88.7544 31.7087C88.7558 31.7129 88.7586 31.7171 88.76 31.7226C88.7808 31.7823 88.8003 31.8434 88.8183 31.9046C88.8225 31.9171 88.8239 31.9309 88.828 31.9434C88.8405 31.9921 88.853 32.0421 88.8628 32.0921C88.8669 32.1115 88.8697 32.1309 88.8725 32.1504C88.8808 32.1976 88.8878 32.2434 88.8947 32.2921C88.8975 32.3171 88.8989 32.3434 88.9017 32.3684C88.9058 32.4115 88.9086 32.4546 88.9114 32.4976C88.9128 32.5254 88.9128 32.5532 88.9128 32.5809C88.9128 32.6226 88.9128 32.6657 88.9114 32.7073C88.91 32.7351 88.91 32.7643 88.9072 32.7934C88.9044 32.8365 88.9003 32.8796 88.8961 32.924C88.8933 32.9518 88.8905 32.9796 88.8864 33.0087C88.8794 33.0559 88.8725 33.1018 88.8628 33.149C88.8586 33.174 88.8544 33.199 88.8489 33.224C88.8364 33.2851 88.8211 33.3462 88.8044 33.4073C88.8016 33.4184 88.7989 33.4296 88.7961 33.4421C88.7753 33.5143 88.7516 33.5879 88.7253 33.6601C88.7169 33.6823 88.7072 33.7046 88.6989 33.7268C88.6794 33.7782 88.6586 33.8296 88.6364 33.8796C88.61 33.9379 88.5836 33.9962 88.5544 34.0559L69.8114 71.0337L69.7169 70.9059C69.6836 70.9823 69.6475 71.0559 69.6086 71.1296C69.6058 71.1351 69.603 71.1393 69.6016 71.1448C69.5641 71.2157 69.5239 71.2837 69.4822 71.3518C69.4253 71.4434 69.3655 71.5309 69.3017 71.6171C69.2836 71.6421 69.2641 71.6643 69.2461 71.6879C69.203 71.7421 69.16 71.7962 69.1141 71.849C69.0905 71.8768 69.0655 71.9032 69.0405 71.9296C68.9989 71.974 68.9558 72.0184 68.9114 72.0615C68.885 72.0865 68.86 72.1129 68.8336 72.1365C68.7864 72.1796 68.7378 72.2212 68.6891 72.2629C68.6641 72.2837 68.6405 72.3046 68.6155 72.3254C68.5405 72.3865 68.4628 72.4448 68.3822 72.499C68.2989 72.5559 68.2128 72.6087 68.1253 72.6601C68.1016 72.674 68.0767 72.6865 68.0517 72.7004C67.9767 72.7421 67.9003 72.7809 67.8225 72.8171C67.7919 72.8323 67.76 72.8462 67.7294 72.8601C67.7003 72.8726 67.6711 72.8851 67.6419 72.8962C67.5947 72.9157 67.5475 72.9337 67.5003 72.9504C67.4697 72.9615 67.4405 72.9712 67.41 72.9823C67.3628 72.9976 67.3155 73.0129 67.2683 73.0254C67.235 73.0351 67.203 73.0448 67.1697 73.0532C67.1211 73.0657 67.0711 73.0768 67.0211 73.0879C66.9892 73.0948 66.9572 73.1018 66.9266 73.1087C66.8725 73.1184 66.8169 73.1268 66.7614 73.1337C66.735 73.1379 66.7072 73.1421 66.6808 73.1448C66.5989 73.1546 66.5155 73.1615 66.4336 73.1643L69.0461 76.7268C69.0503 76.7268 69.0544 76.7254 69.0586 76.7254L69.06 76.7268C69.0683 76.7268 69.0767 76.7268 69.0864 76.7268C69.1253 76.7268 69.1628 76.7254 69.2016 76.724C69.2183 76.7226 69.235 76.7198 69.2517 76.7198C69.335 76.7157 69.4183 76.7073 69.5003 76.6962C69.5253 76.6934 69.5489 76.6907 69.5739 76.6879C69.6794 76.6726 69.7836 76.6518 69.8878 76.6254C69.9128 76.6198 69.9364 76.6115 69.96 76.6059C70.0142 76.5907 70.0697 76.5782 70.1239 76.5601C70.153 76.5504 70.1822 76.5393 70.2114 76.5296C70.2336 76.5226 70.2544 76.5143 70.2767 76.5073C70.3669 76.474 70.4558 76.4393 70.5433 76.4004C70.5489 76.3976 70.5544 76.3934 70.5614 76.3921C70.5669 76.3893 70.5739 76.3879 70.5808 76.3837C70.5808 76.3837 70.5808 76.3823 70.5794 76.3823C70.5794 76.3823 70.5794 76.3837 70.5808 76.3837C70.678 76.3393 70.7725 76.2893 70.8655 76.2365C70.8683 76.2351 70.8697 76.2337 70.8725 76.2323C70.9003 76.2171 70.9253 76.199 70.9517 76.1823C71.0142 76.1448 71.0766 76.1073 71.1378 76.0657C71.1433 76.0629 71.1475 76.0601 71.153 76.0559C71.1905 76.0309 71.2253 76.0018 71.2614 75.974C71.3044 75.9421 71.3475 75.9129 71.3878 75.8796C71.3933 75.8754 71.3975 75.8726 71.403 75.8684C71.4419 75.8379 71.4767 75.8032 71.5142 75.7712C71.5461 75.7434 71.5794 75.7171 71.61 75.6879C71.6169 75.6809 71.6239 75.6754 71.6308 75.6684C71.6322 75.6671 71.6322 75.6671 71.6336 75.6657C71.635 75.6643 71.635 75.6643 71.6364 75.6629C71.6447 75.6559 71.653 75.6476 71.66 75.6407C71.678 75.624 71.6919 75.6046 71.71 75.5879C71.7572 75.5407 71.8058 75.4934 71.8503 75.4434C71.8628 75.4296 71.8739 75.4143 71.8864 75.4004C71.8961 75.3893 71.9086 75.3782 71.9183 75.3671C71.928 75.3559 71.9378 75.3434 71.9475 75.3323C71.9794 75.2934 72.01 75.2546 72.0405 75.2143C72.0461 75.2073 72.053 75.2004 72.0586 75.1921C72.06 75.1893 72.0614 75.1865 72.0642 75.1837C72.128 75.099 72.1878 75.0101 72.2447 74.9198C72.2503 74.9101 72.2572 74.9018 72.2628 74.8934C72.2683 74.8851 72.2725 74.8754 72.278 74.8671C72.3225 74.7934 72.3642 74.7198 72.403 74.6421L91.1739 37.6143C91.1989 37.5643 91.2239 37.5129 91.2461 37.4629C91.2503 37.4546 91.253 37.4462 91.2558 37.4393C91.278 37.3879 91.2989 37.3365 91.3183 37.2865C91.3267 37.2643 91.3364 37.2421 91.3447 37.2198C91.3711 37.1476 91.3947 37.074 91.4155 37.0018C91.4183 36.9907 91.4211 36.9796 91.4239 36.9671C91.4405 36.9059 91.4558 36.8448 91.4683 36.7837C91.4739 36.7587 91.478 36.7337 91.4822 36.7087C91.4905 36.6615 91.4989 36.6143 91.5058 36.5684C91.51 36.5407 91.5128 36.5129 91.5155 36.4837C91.5197 36.4407 91.5239 36.3962 91.5267 36.3532C91.528 36.324 91.5294 36.2962 91.5308 36.2671C91.5322 36.224 91.5322 36.1823 91.5322 36.1407C91.5267 36.1171 91.5267 36.0893 91.5253 36.0615Z" fill="#969BA8"/>
<path d="M68.8904 77.0504L65.832 72.8796L66.4181 72.8559C66.4931 72.8532 66.5681 72.8462 66.6431 72.8379C66.6556 72.8365 66.6668 72.8351 66.6793 72.8323L66.7168 72.8268C66.7668 72.8198 66.8167 72.8129 66.8667 72.8032C66.8862 72.799 66.9043 72.7948 66.9223 72.7921L66.9529 72.7851C66.9973 72.7754 67.0431 72.7657 67.0876 72.7546C67.1126 72.7476 67.1376 72.7407 67.1612 72.7337L67.1779 72.7282C67.2209 72.7157 67.2654 72.7032 67.3084 72.6879C67.3362 72.6782 67.364 72.6684 67.3918 72.6587C67.4348 72.6434 67.4793 72.6268 67.5223 72.6087C67.5529 72.5962 67.5779 72.5865 67.6029 72.5754C67.6223 72.5671 67.6418 72.5573 67.6612 72.5476L67.689 72.5351C67.7612 72.5018 67.8306 72.4657 67.9001 72.4268L67.9681 72.3893C68.0584 72.3365 68.1348 72.2893 68.2042 72.2407C68.2723 72.1934 68.3431 72.1421 68.4181 72.0809C68.432 72.0698 68.4445 72.0587 68.457 72.0476L68.4862 72.0226C68.5306 71.9851 68.5765 71.9462 68.6195 71.9059C68.6404 71.8865 68.6612 71.8657 68.682 71.8448C68.732 71.7962 68.7709 71.7559 68.8098 71.7143C68.832 71.6907 68.8543 71.6657 68.8765 71.6407C68.9195 71.5921 68.9598 71.5434 68.9987 71.4921L69.0209 71.4643C69.0306 71.4518 69.0404 71.4393 69.0501 71.4268C69.1112 71.3462 69.1668 71.2643 69.2154 71.1837C69.2543 71.1212 69.2904 71.0587 69.3251 70.9948L69.3306 70.9823C69.3668 70.9143 69.4001 70.8462 69.4292 70.7768L69.6459 70.2796L69.7598 70.4351L88.2779 33.9143C88.3056 33.8601 88.3293 33.8073 88.3529 33.7532C88.3737 33.7059 88.3918 33.6601 88.4098 33.6129L88.4334 33.5546C88.457 33.4879 88.4792 33.4212 88.4987 33.3559L88.507 33.324C88.5223 33.2698 88.5362 33.2143 88.5473 33.1601C88.5501 33.1476 88.5515 33.1351 88.5543 33.1226L88.5598 33.0921C88.5681 33.049 88.5751 33.0073 88.5806 32.9657C88.5834 32.9462 88.5848 32.9268 88.5876 32.9059L88.589 32.8907C88.5931 32.8518 88.5973 32.8129 88.5987 32.774C88.6001 32.749 88.6015 32.724 88.6015 32.6976C88.6029 32.6587 88.6029 32.6212 88.6029 32.5837C88.6029 32.5601 88.6029 32.5351 88.6015 32.5101C88.6001 32.4712 88.5973 32.4337 88.5931 32.3962L88.5904 32.3698C88.589 32.3559 88.5876 32.3421 88.5862 32.3282C88.5806 32.2865 88.5737 32.2448 88.5668 32.2032L88.5584 32.1504C88.5501 32.1059 88.539 32.0629 88.5279 32.0198L88.5209 31.9934C88.5043 31.9323 88.4876 31.8782 88.4681 31.8268L88.464 31.8171C88.4362 31.7393 88.4029 31.6643 88.364 31.5851L88.3542 31.5643C88.3181 31.4948 88.2806 31.4309 88.239 31.3671C88.2181 31.3351 88.1973 31.3032 88.1751 31.2726L88.1723 31.2698L88.6765 30.9004L91.289 34.4629C91.314 34.4962 91.3376 34.5296 91.3598 34.5643L91.3793 34.5962C91.4251 34.6671 91.4709 34.7421 91.5112 34.8198L91.5223 34.8407C91.5279 34.8518 91.5334 34.8629 91.5376 34.8754C91.5848 34.9698 91.6237 35.0601 91.657 35.149L91.6709 35.1837C91.6945 35.2518 91.7154 35.3157 91.7334 35.3796C91.7362 35.3907 91.739 35.4032 91.7418 35.4157C91.7584 35.4782 91.7709 35.5337 91.782 35.5893L91.7848 35.6046C91.7876 35.6157 91.789 35.6296 91.7918 35.6448C91.8029 35.7087 91.8112 35.7601 91.8181 35.8143C91.8209 35.8365 91.8223 35.8587 91.8251 35.8809L91.8265 35.899C91.8306 35.9462 91.8348 35.9934 91.8362 36.0421C91.8376 36.0726 91.8376 36.1032 91.839 36.1337C91.8404 36.1809 91.839 36.2282 91.8376 36.2754C91.8362 36.3059 91.8348 36.3379 91.8334 36.3698C91.8306 36.4171 91.8265 36.4657 91.8209 36.5143L91.8195 36.5282C91.8168 36.5546 91.814 36.5809 91.8098 36.6073C91.8029 36.6587 91.7945 36.7101 91.7848 36.7615L91.7806 36.7851C91.7779 36.8046 91.7737 36.8254 91.7695 36.8448C91.7556 36.9115 91.739 36.9796 91.7209 37.0462C91.7167 37.0629 91.714 37.074 91.7112 37.0851C91.689 37.1643 91.6626 37.2434 91.6334 37.3226C91.6265 37.3393 91.6209 37.3573 91.614 37.374L91.6056 37.3962C91.5848 37.4518 91.5626 37.5073 91.5376 37.5629C91.5348 37.5712 91.5306 37.5796 91.5265 37.5893C91.5015 37.6448 91.4751 37.699 91.4473 37.7546L72.6779 74.7865C72.639 74.8615 72.5945 74.9421 72.5418 75.0309C72.5376 75.0393 72.532 75.049 72.5265 75.0587C72.5195 75.0712 72.5112 75.0809 72.5043 75.0921C72.4418 75.1921 72.3806 75.2823 72.3168 75.3684L72.3098 75.3782L72.314 75.3837L72.1529 75.574L71.907 75.8629L71.8959 75.849C71.889 75.8559 71.882 75.8629 71.8751 75.8698L71.8209 75.9212C71.7973 75.9434 71.7737 75.9629 71.7501 75.9837L71.682 76.0434C71.6543 76.0684 71.6265 76.0934 71.5973 76.1171L71.5751 76.1337C71.5473 76.1559 71.5126 76.1809 71.4779 76.2059L71.407 76.2587C71.3806 76.2796 71.3529 76.3004 71.3251 76.3198L71.3015 76.3351C71.2459 76.374 71.1792 76.4129 71.114 76.4532L71.0834 76.4726C71.0695 76.4823 71.0543 76.4907 71.039 76.5004L71.0487 76.5129L70.7251 76.6643C70.7195 76.6671 70.714 76.6698 70.7084 76.6726L70.4806 76.7782L70.4751 76.7712C70.4445 76.7823 70.4126 76.7948 70.3793 76.8073L70.2806 76.8421C70.2584 76.8504 70.2376 76.8573 70.2154 76.8643C70.1681 76.8796 70.1195 76.8921 70.0723 76.9046L70.014 76.9171C69.9959 76.9226 69.9779 76.9268 69.9598 76.9323C69.8473 76.9601 69.732 76.9823 69.6181 77.0004C69.5987 77.0032 69.5806 77.0059 69.5612 77.0073L69.5376 77.0101C69.4459 77.0226 69.3543 77.0309 69.2668 77.0351C69.2459 77.0379 69.2292 77.0393 69.2126 77.0407C69.1695 77.0421 69.1279 77.0434 69.0862 77.0434H69.057H69.0515L68.8904 77.0504ZM67.0001 73.4143L69.2001 76.4129C69.2112 76.4115 69.2209 76.4101 69.232 76.4101C69.307 76.4059 69.3834 76.399 69.4584 76.3893L69.5251 76.3809C69.6209 76.3671 69.7167 76.3476 69.8112 76.324L69.9154 76.2962C69.9529 76.2865 69.9917 76.2768 70.0279 76.2643C70.0417 76.2601 70.0556 76.2546 70.0695 76.2504L70.1667 76.2157C70.2626 76.1809 70.3404 76.149 70.4112 76.1171C70.4084 76.1171 70.4181 76.1129 70.4265 76.1087L70.4501 76.099C70.5334 76.0601 70.6195 76.0157 70.7056 75.9671L70.7181 75.9601C70.7265 75.9559 70.7334 75.9504 70.7418 75.9448C70.7556 75.9351 70.7709 75.9268 70.7848 75.9171C70.8459 75.8809 70.9015 75.8462 70.9556 75.8101L70.9779 75.7962C70.9876 75.7893 71.007 75.774 71.0251 75.7601L71.1084 75.699C71.1348 75.6796 71.1612 75.6601 71.1876 75.6393L71.2084 75.624C71.2223 75.6129 71.2418 75.5948 71.2626 75.5768L71.3473 75.5032C71.3626 75.4907 71.3793 75.4768 71.3931 75.4629L71.4515 75.4059C71.4626 75.3934 71.4737 75.3823 71.4848 75.3698L71.5126 75.3421C71.5473 75.3073 71.582 75.274 71.614 75.2379C71.6292 75.2184 71.6376 75.2087 71.6459 75.199C71.6556 75.1879 71.664 75.1782 71.6737 75.1698L71.9112 75.3684L71.6765 75.1684L71.7029 75.1379C71.7306 75.1046 71.757 75.0698 71.782 75.0365C71.7917 75.024 71.7973 75.0171 71.8029 75.0101L71.8112 74.999C71.864 74.9296 71.9167 74.8504 71.9737 74.7601C71.9792 74.7504 71.9862 74.7407 71.9931 74.7309C71.9931 74.7296 71.9987 74.7198 72.0043 74.7115C72.0445 74.6448 72.0834 74.5768 72.1181 74.5073L90.889 37.4809C90.9126 37.4351 90.9348 37.3879 90.9556 37.3421C90.957 37.3365 90.9612 37.3282 90.9654 37.3184C90.9848 37.274 91.0043 37.2268 91.0209 37.181L91.0445 37.1212C91.0681 37.0559 91.0904 36.9893 91.1084 36.924L91.1168 36.8934C91.132 36.8379 91.1459 36.7837 91.157 36.7282L91.1695 36.6601C91.1765 36.6185 91.1848 36.5754 91.1904 36.5337C91.1931 36.5143 91.1945 36.4948 91.1973 36.474L91.1987 36.4587C91.2029 36.4198 91.207 36.3809 91.2084 36.3421C91.2098 36.3171 91.2112 36.2921 91.2112 36.2657C91.2126 36.2268 91.2126 36.1893 91.2126 36.1518C91.2126 36.1268 91.2126 36.1032 91.2112 36.0782C91.2098 36.0393 91.207 36.0018 91.2029 35.9643L91.2015 35.9421C91.2001 35.9268 91.1987 35.9115 91.1973 35.8962C91.1917 35.8546 91.1848 35.8129 91.1779 35.7712L91.1709 35.7282C91.1695 35.724 91.1695 35.7185 91.1681 35.7143C91.1598 35.6754 91.1501 35.6309 91.1376 35.5879L91.1306 35.5601C91.1154 35.5018 91.0987 35.449 91.0793 35.3976C91.0779 35.3934 91.0751 35.3879 91.0737 35.3823C91.0459 35.3073 91.014 35.2323 90.9737 35.1518L90.9598 35.1226C90.9279 35.0601 90.8918 34.999 90.8487 34.9337L90.8306 34.9046C90.8195 34.8893 90.8015 34.8629 90.782 34.8365L89.2223 32.7087C89.2223 32.7115 89.2223 32.7157 89.2223 32.7184C89.2209 32.749 89.2195 32.7809 89.2181 32.8129C89.2154 32.8615 89.2112 32.9087 89.2056 32.9573L89.2043 32.9712C89.2015 32.9976 89.1987 33.024 89.1959 33.049C89.189 33.1004 89.1793 33.1532 89.1709 33.2046L89.1667 33.2282C89.164 33.2476 89.1598 33.2684 89.1556 33.2879C89.1418 33.3546 89.1251 33.4226 89.107 33.4893L89.0973 33.5254C89.0737 33.6059 89.0487 33.6865 89.0195 33.7657C89.014 33.7823 89.007 33.799 89.0001 33.8157L88.9918 33.8365C88.9695 33.8921 88.9487 33.9476 88.9237 34.0032C88.8959 34.0671 88.8668 34.1309 88.8334 34.1948L69.857 71.6254L69.7584 71.4907C69.7542 71.4976 69.7501 71.5046 69.7445 71.5129C69.6848 71.6087 69.6195 71.7059 69.5487 71.8018C69.5348 71.8198 69.5209 71.8379 69.5056 71.8559L69.4876 71.8782C69.4404 71.9379 69.3931 71.9962 69.3445 72.0518C69.3195 72.0809 69.2931 72.1101 69.2654 72.1393C69.2195 72.1879 69.1737 72.2351 69.1265 72.2823C69.0931 72.3157 69.0681 72.3407 69.0418 72.3643C68.9918 72.4115 68.939 72.4559 68.8862 72.5004L68.8626 72.5198C68.8445 72.5351 68.8251 72.5518 68.807 72.5671C68.7195 72.6379 68.6362 72.699 68.5556 72.7546C68.4737 72.8115 68.3834 72.8685 68.2793 72.9282C68.2612 72.9393 68.2417 72.949 68.2237 72.9587L68.2001 72.9712C68.1195 73.0157 68.0362 73.0587 67.9515 73.0976L67.9265 73.1087C67.9015 73.1212 67.8751 73.1323 67.8501 73.1448C67.8209 73.1573 67.7917 73.1698 67.7626 73.1823C67.7056 73.2059 67.6543 73.2254 67.6015 73.2448C67.5695 73.2559 67.5362 73.2684 67.5043 73.2782C67.4529 73.2948 67.4015 73.3101 67.3501 73.3254L67.3334 73.3296C67.3029 73.3379 67.2723 73.3476 67.2417 73.3546C67.189 73.3684 67.1348 73.3796 67.0806 73.3921L67.0543 73.3976C67.039 73.4073 67.0195 73.4115 67.0001 73.4143ZM91.6737 35.1935V35.1948C91.6737 35.1934 91.6737 35.1935 91.6737 35.1935ZM91.6667 35.1754C91.6681 35.1796 91.6695 35.1823 91.6709 35.1865C91.6695 35.1823 91.6681 35.1782 91.6667 35.1754Z" fill="#F4F7FB"/>
<path d="M86.1943 30.0293C88.3596 30.0293 89.561 32.0765 88.5568 34.0557L69.786 71.0835C69.1541 72.3293 67.8082 73.1696 66.4443 73.1682C67.8179 73.1112 69.1513 72.1987 69.7166 70.9057L83.4721 39.4515C84.3207 37.5112 83.1082 35.6043 81.0235 35.6043H78.0985L78.9874 30.0293H86.1943Z" fill="#DDE1E6"/>
<path d="M66.4473 73.4803C66.4459 73.4803 66.4445 73.4803 66.4432 73.4803L66.4307 72.8553C67.6848 72.8039 68.9182 71.9511 69.4293 70.7803L83.1848 39.3261C83.5515 38.4872 83.5098 37.6192 83.0682 36.9456C82.6404 36.2928 81.8959 35.9178 81.0223 35.9178H77.7321L78.7209 29.7178H86.1932C87.3154 29.7178 88.2668 30.2192 88.8043 31.0955C89.3543 31.9914 89.3654 33.1525 88.8348 34.1983L70.064 71.2233C69.3793 72.5733 67.9265 73.4803 66.4473 73.4803ZM78.4668 35.2914H81.0251C82.1126 35.2914 83.0487 35.7692 83.5932 36.6025C84.1515 37.4567 84.2126 38.54 83.7584 39.5761L73.4043 63.2525L88.2779 33.9136C88.7168 33.0497 88.714 32.14 88.2723 31.4205C87.8515 30.7344 87.0946 30.3414 86.1946 30.3414H79.2557L78.4668 35.2914Z" fill="#F4F7FB"/>
<path d="M86.3537 41.6146C86.351 41.5674 86.3482 41.5202 86.3426 41.473C86.3399 41.4493 86.3371 41.4257 86.3343 41.4021C86.3287 41.3605 86.3232 41.3188 86.3148 41.2771C86.3121 41.2646 86.3121 41.2521 86.3093 41.2396C86.3065 41.2271 86.3037 41.216 86.3009 41.2035C86.2926 41.166 86.2843 41.1271 86.2746 41.0896C86.269 41.066 86.2621 41.0424 86.2565 41.0188C86.2454 40.9799 86.2329 40.941 86.219 40.9021C86.2135 40.8868 86.2093 40.8702 86.2037 40.8549C86.2023 40.8521 86.201 40.8493 86.1996 40.8452C86.1662 40.7549 86.1287 40.6688 86.0857 40.5841C86.0815 40.5771 86.0801 40.5688 86.076 40.5618C86.0732 40.5563 86.069 40.5521 86.0662 40.5466C86.0274 40.473 85.9857 40.4021 85.9412 40.3341C85.9371 40.3285 85.9343 40.323 85.9315 40.3174C85.9107 40.2868 85.8898 40.2577 85.869 40.2285L83.2565 36.666C83.2815 36.7007 83.3051 36.7368 83.3287 36.773C83.3732 36.8424 83.4162 36.9132 83.4537 36.9855C83.4607 36.998 83.4662 37.0105 83.4732 37.023C83.5162 37.1077 83.5537 37.1952 83.5871 37.2841C83.594 37.3035 83.5996 37.3216 83.6065 37.341C83.619 37.3799 83.6329 37.4188 83.644 37.4577C83.651 37.4813 83.6565 37.5049 83.6621 37.5285C83.6718 37.566 83.6801 37.6035 83.6885 37.6424C83.694 37.6674 83.6982 37.691 83.7023 37.716C83.7093 37.7577 83.7162 37.7993 83.7218 37.841C83.7246 37.8646 83.7287 37.8882 83.7301 37.9118C83.7343 37.9591 83.7385 38.0063 83.7399 38.0535C83.7412 38.073 83.7426 38.0924 83.7426 38.1118C83.744 38.1785 83.744 38.2466 83.7412 38.3146C83.7412 38.3257 83.7398 38.3368 83.7385 38.3493C83.7357 38.4063 83.7315 38.4632 83.7246 38.5216C83.7218 38.5452 83.7176 38.5688 83.7148 38.5924C83.7079 38.6382 83.701 38.6855 83.6926 38.7313C83.6885 38.7577 83.6829 38.7841 83.6773 38.8105C83.6676 38.8549 83.6565 38.9007 83.6454 38.9466C83.6385 38.973 83.6315 38.9993 83.6246 39.0257C83.6107 39.0743 83.5954 39.123 83.5787 39.1716C83.5704 39.1938 83.5635 39.2174 83.5551 39.2396C83.5301 39.3105 83.501 39.3827 83.4704 39.4535L69.7148 70.9077C69.6815 70.9841 69.6454 71.0577 69.6065 71.1313C69.6037 71.1368 69.601 71.141 69.5996 71.1466C69.5621 71.2174 69.5218 71.2855 69.4801 71.3535C69.4232 71.4452 69.3635 71.5327 69.2996 71.6188C69.2815 71.6438 69.2621 71.666 69.244 71.6896C69.201 71.7438 69.1579 71.798 69.1121 71.8507C69.0885 71.8785 69.0635 71.9049 69.0385 71.9313C68.9968 71.9757 68.9537 72.0202 68.9093 72.0632C68.8829 72.0882 68.8579 72.1146 68.8315 72.1382C68.7843 72.1813 68.7357 72.223 68.6871 72.2646C68.6621 72.2855 68.6385 72.3063 68.6135 72.3271C68.5385 72.3882 68.4607 72.4466 68.3801 72.5007C68.2968 72.5577 68.2107 72.6105 68.1232 72.6618C68.0996 72.6757 68.0746 72.6882 68.0496 72.7021C67.9746 72.7438 67.8982 72.7827 67.8204 72.8188C67.7898 72.8341 67.7579 72.848 67.7273 72.8618C67.6982 72.8743 67.669 72.8868 67.6398 72.898C67.5926 72.9174 67.5454 72.9355 67.4982 72.9521C67.4676 72.9632 67.4385 72.973 67.4079 72.9841C67.3607 72.9993 67.3135 73.0146 67.2662 73.0271C67.2329 73.0368 67.201 73.0466 67.1676 73.0549C67.119 73.0674 67.069 73.0785 67.019 73.0896C66.9871 73.0966 66.9551 73.1035 66.9246 73.1105C66.8704 73.1202 66.8148 73.1285 66.7593 73.1355C66.7329 73.1396 66.7051 73.1438 66.6787 73.1466C66.5968 73.1563 66.5135 73.1632 66.4315 73.166L19.5718 73.1688C18.626 73.1688 17.8232 72.7646 17.3398 72.1063L19.9523 75.6688C20.4357 76.3271 21.2385 76.7313 22.1843 76.7313L69.044 76.7285C69.1273 76.7257 69.2093 76.7188 69.2912 76.7091C69.319 76.7063 69.3454 76.7007 69.3718 76.698C69.4273 76.691 69.4815 76.6827 69.5357 76.673C69.5676 76.6674 69.5996 76.6591 69.6315 76.6521C69.6815 76.641 69.7301 76.6313 69.7787 76.6174C69.8121 76.6091 69.8454 76.5993 69.8787 76.5896C69.9079 76.5813 69.9371 76.5743 69.9662 76.5646C69.9843 76.5591 70.0023 76.5521 70.0204 76.5466C70.051 76.5368 70.0801 76.5257 70.1107 76.5146C70.1579 76.498 70.2051 76.4785 70.2523 76.4605C70.2815 76.448 70.3107 76.4368 70.3398 76.4243C70.3551 76.4174 70.3704 76.4118 70.3843 76.4063C70.401 76.3993 70.4162 76.3896 70.4329 76.3813C70.5107 76.3452 70.5871 76.3063 70.6621 76.2646C70.6787 76.2563 70.6954 76.2493 70.7107 76.2396C70.719 76.2341 70.7273 76.2285 70.7357 76.2243C70.9065 76.1257 71.0704 76.0132 71.2246 75.8896C71.2301 75.8855 71.2371 75.8813 71.2426 75.8757C71.2621 75.8605 71.2787 75.8424 71.2982 75.8271C71.3468 75.7855 71.3954 75.7438 71.4426 75.7007C71.4523 75.691 71.4635 75.6827 71.4746 75.673C71.4912 75.6577 71.5051 75.641 71.5218 75.6243C71.5662 75.5813 71.6093 75.5368 71.651 75.4924C71.6648 75.4771 71.6787 75.4646 71.6926 75.4493C71.7037 75.4368 71.7135 75.4243 71.7246 75.4118C71.7704 75.3591 71.8134 75.3063 71.8565 75.2507C71.8704 75.2327 71.8857 75.216 71.8996 75.198C71.9037 75.1924 71.9079 75.1855 71.9135 75.1785C71.9773 75.0924 72.0385 75.0035 72.094 74.9132C72.0968 74.9091 72.101 74.9049 72.1037 74.8993C72.1426 74.8355 72.1787 74.7716 72.2135 74.7063C72.2162 74.7007 72.219 74.6952 72.2218 74.6896C72.2523 74.6299 72.2829 74.5702 72.3107 74.5091C72.3176 74.4952 72.3232 74.4799 72.3301 74.466L86.0857 43.0118C86.1162 42.941 86.144 42.8688 86.1704 42.798C86.1787 42.7743 86.1857 42.7521 86.194 42.7299C86.2107 42.6813 86.226 42.6327 86.2399 42.5841C86.2468 42.5577 86.2537 42.5313 86.2607 42.5049C86.2718 42.4591 86.2829 42.4146 86.2926 42.3688C86.2982 42.3424 86.3037 42.316 86.3079 42.2896C86.3162 42.2438 86.3232 42.1966 86.3301 42.1507C86.3329 42.1271 86.3371 42.1035 86.3398 42.0799C86.3468 42.0216 86.351 41.9646 86.3537 41.9077C86.3537 41.8966 86.3551 41.8855 86.3565 41.873C86.3593 41.8049 86.3593 41.7368 86.3579 41.6702C86.3565 41.6535 86.3551 41.6341 86.3537 41.6146Z" fill="#DDE1E6"/>
<path d="M22.1847 77.0454C21.1611 77.0454 20.2555 76.6121 19.7014 75.8552L17.0889 72.2927L17.593 71.9232L17.5958 71.9274C18.0319 72.5191 18.7514 72.8579 19.5722 72.8579L66.4319 72.8552C66.4944 72.8524 66.5694 72.8454 66.6444 72.8371C66.6569 72.8357 66.668 72.8343 66.6805 72.8316L66.718 72.826C66.768 72.8191 66.818 72.8121 66.868 72.8024C66.8875 72.7982 66.9055 72.7941 66.9236 72.7913L66.9541 72.7843C66.9986 72.7746 67.0444 72.7649 67.0889 72.7538C67.1139 72.7468 67.1389 72.7399 67.1625 72.7329L67.1791 72.7274C67.2222 72.7149 67.2666 72.7024 67.3097 72.6871C67.3375 72.6774 67.3653 72.6677 67.393 72.6579C67.4361 72.6427 67.4805 72.626 67.5236 72.6079C67.5541 72.5954 67.5791 72.5857 67.6041 72.5746C67.6236 72.5663 67.643 72.5566 67.6625 72.5468L67.6903 72.5343C67.7625 72.501 67.8319 72.4649 67.9014 72.426L67.9694 72.3885C68.0597 72.3357 68.1361 72.2885 68.2055 72.2399C68.2736 72.1927 68.3444 72.1413 68.4194 72.0802C68.4333 72.0691 68.4458 72.0579 68.4583 72.0468L68.4875 72.0218C68.5319 71.9843 68.5778 71.9454 68.6208 71.9052C68.6416 71.8857 68.6625 71.8649 68.6833 71.8441C68.7333 71.7954 68.7722 71.7552 68.8111 71.7135C68.8333 71.6899 68.8555 71.6649 68.8778 71.6399C68.9208 71.5913 68.9611 71.5427 69 71.4913L69.0222 71.4635C69.0319 71.451 69.0416 71.4385 69.0514 71.426C69.1125 71.3454 69.168 71.2635 69.2166 71.1829C69.2555 71.1204 69.2916 71.0579 69.3264 70.9941L69.3319 70.9816C69.368 70.9135 69.4014 70.8454 69.4305 70.776L83.1861 39.3218C83.2139 39.2566 83.2403 39.1927 83.2625 39.1274L83.2833 39.0649C83.2986 39.0218 83.3125 38.9774 83.325 38.9329C83.3319 38.9107 83.3375 38.8885 83.343 38.8663C83.3555 38.8204 83.3653 38.7802 83.3736 38.7399C83.3792 38.7163 83.3833 38.6927 83.3875 38.6691C83.3958 38.6274 83.4014 38.5857 83.4069 38.544L83.4153 38.4802C83.4208 38.4288 83.425 38.3774 83.4278 38.326L83.4291 38.2996C83.4319 38.2343 83.4319 38.1746 83.4305 38.1149L83.4278 38.0635C83.425 38.0218 83.4236 37.9802 83.418 37.9385C83.4166 37.9232 83.4139 37.9079 83.4125 37.8927L83.4097 37.876C83.4055 37.8385 83.4 37.8024 83.393 37.7663C83.3889 37.7441 83.3847 37.7232 83.3805 37.701C83.3736 37.6677 83.3653 37.6343 83.3569 37.601L83.3403 37.5385C83.3305 37.5038 83.3194 37.4704 83.3069 37.4357L83.2903 37.3857C83.2625 37.3107 83.2305 37.2357 83.1903 37.1566L83.1736 37.1232C83.1403 37.0593 83.1041 36.9968 83.0639 36.9371C83.043 36.9052 83.0236 36.8746 83.0014 36.8454L83 36.8441L83.5042 36.4746C83.5042 36.476 83.5055 36.476 83.5055 36.4774L86.1166 40.0371C86.1403 40.0704 86.1639 40.1038 86.1875 40.1371L86.2028 40.1635C86.25 40.2371 86.2944 40.3121 86.3347 40.3885C86.3389 40.3968 86.3444 40.4038 86.3486 40.4121L86.3639 40.4454C86.4111 40.5399 86.45 40.6302 86.4833 40.7204L86.4903 40.7357C86.4972 40.7566 86.5028 40.7704 86.5069 40.7843C86.525 40.8385 86.5389 40.8829 86.5514 40.9274C86.5583 40.9524 86.5653 40.9774 86.5708 41.0024C86.5819 41.0482 86.593 41.0913 86.6014 41.1329C86.6055 41.1496 86.6083 41.1607 86.6111 41.1732C86.6139 41.1857 86.6153 41.1982 86.6166 41.2107C86.6264 41.2621 86.6333 41.3093 86.6389 41.3565C86.643 41.3899 86.6458 41.4135 86.6486 41.4371C86.6541 41.4885 86.6569 41.5413 86.6597 41.5941L86.6611 41.6121C86.6625 41.6274 86.6625 41.6427 86.6639 41.6593C86.6666 41.7329 86.6653 41.8079 86.6625 41.8843L86.6597 41.9163C86.6555 41.9857 86.6514 42.0496 86.643 42.1121C86.6403 42.1302 86.6389 42.1482 86.6361 42.1663L86.6333 42.1885C86.6264 42.2399 86.618 42.2913 86.6083 42.3427C86.6028 42.3718 86.5972 42.3996 86.5903 42.4288C86.5791 42.4788 86.568 42.5274 86.5555 42.5774C86.5472 42.6121 86.5403 42.6385 86.5319 42.6649C86.5166 42.7177 86.5 42.7704 86.4819 42.8246L86.4764 42.8441C86.4708 42.8635 86.4639 42.8816 86.4569 42.901C86.4292 42.9788 86.3986 43.0552 86.3653 43.1329L72.5875 74.6357C72.5583 74.701 72.525 74.7663 72.4916 74.8302L72.4833 74.8482C72.4458 74.9191 72.4055 74.9899 72.3639 75.0579L72.35 75.0788C72.2903 75.1746 72.2264 75.2691 72.1569 75.3607C72.1555 75.3635 72.15 75.3718 72.143 75.3816C72.1319 75.3968 72.1194 75.4107 72.1083 75.4246L72.0972 75.4385C72.05 75.4982 72.0028 75.5566 71.9541 75.6121C71.9403 75.6302 71.9305 75.6413 71.9208 75.6524C71.9097 75.6649 71.8972 75.6774 71.8861 75.6885L71.875 75.6996C71.8305 75.7482 71.7833 75.7954 71.7361 75.8427L71.7236 75.8552C71.7111 75.8691 71.6986 75.8816 71.6847 75.8941C71.675 75.9038 71.6653 75.9121 71.6555 75.9204C71.6 75.9704 71.5486 76.0163 71.4958 76.0607L71.4791 76.0746C71.4653 76.0871 71.45 76.101 71.4347 76.1121L71.4125 76.1302C71.2514 76.2593 71.0736 76.3816 70.8889 76.4885C70.8819 76.4941 70.8722 76.4996 70.8611 76.5052C70.8472 76.5135 70.8319 76.5204 70.8166 76.5274C70.7278 76.576 70.6444 76.6177 70.5611 76.6579C70.5389 76.6704 70.5236 76.6774 70.5083 76.6843C70.4972 76.6899 70.4847 76.6941 70.4722 76.6996C70.4278 76.7191 70.3972 76.7316 70.3653 76.7441C70.3153 76.7649 70.2639 76.7843 70.2125 76.8024C70.1805 76.8135 70.1472 76.826 70.1153 76.8371L70.0986 76.8427C70.0847 76.8482 70.0708 76.8524 70.0569 76.8566C70.0361 76.8635 70.0139 76.8691 69.9916 76.876L69.9458 76.8885C69.9153 76.8968 69.8847 76.9066 69.8541 76.9135C69.8014 76.9274 69.7472 76.9385 69.6944 76.951L69.668 76.9566C69.643 76.9621 69.6166 76.9677 69.5903 76.9732C69.5305 76.9843 69.4708 76.9927 69.4111 77.001L69.3847 77.0052C69.3639 77.0079 69.343 77.0121 69.3236 77.0135C69.2291 77.0246 69.1403 77.0316 69.0528 77.0343L22.1847 77.0454ZM18.643 73.3552L20.2055 75.4843C20.6416 76.0788 21.3625 76.4191 22.1847 76.4191L69.0444 76.4163C69.1069 76.4135 69.1819 76.4066 69.2569 76.3982C69.2694 76.3968 69.2819 76.3954 69.293 76.3927L69.3305 76.3871C69.3805 76.3802 69.4305 76.3732 69.4805 76.3635C69.5 76.3593 69.518 76.3552 69.5375 76.351L69.568 76.3441C69.6125 76.3343 69.6583 76.3246 69.7028 76.3135C69.7278 76.3065 69.7528 76.2996 69.7764 76.2927L69.8333 76.276C69.8472 76.2718 69.8597 76.2691 69.8736 76.2649L69.9236 76.2468C69.95 76.2385 69.9778 76.2274 70.0055 76.2177C70.0486 76.2024 70.093 76.1857 70.1361 76.1677C70.1639 76.1566 70.1903 76.1454 70.2166 76.1343L70.2653 76.1135C70.2778 76.1066 70.2903 76.101 70.3028 76.0941C70.375 76.0607 70.4444 76.0246 70.5139 75.9857C70.5264 75.9788 70.5389 75.9732 70.5514 75.9663C70.5639 75.9593 70.5722 75.9538 70.5819 75.9482C70.7403 75.8566 70.8917 75.7524 71.0319 75.6399L71.0667 75.6121C71.0778 75.6024 71.0889 75.5927 71.1 75.5829C71.1458 75.5454 71.1903 75.5066 71.2333 75.4663C71.2416 75.4579 71.25 75.451 71.2597 75.4441L71.2764 75.4274C71.2861 75.4177 71.2958 75.4079 71.3055 75.3982C71.3472 75.3579 71.3861 75.3177 71.425 75.276C71.4347 75.2663 71.443 75.2566 71.4528 75.2468L71.4639 75.2357C71.4764 75.2204 71.4833 75.2107 71.4916 75.201C71.5333 75.1524 71.5736 75.1038 71.6139 75.0538C71.6222 75.0427 71.6319 75.0316 71.6416 75.0204L71.6528 75.0066C71.6528 75.0052 71.6583 74.9968 71.6653 74.9885C71.725 74.9093 71.7805 74.8274 71.8305 74.7454L71.843 74.7274C71.8778 74.6718 71.9097 74.6149 71.9403 74.5566L71.9472 74.5413C71.975 74.4871 72.0028 74.4329 72.0278 74.3774L72.0444 74.3399L85.8014 42.8843C85.8291 42.819 85.8555 42.7538 85.8778 42.6899L85.8986 42.6288C85.9139 42.5843 85.9278 42.5399 85.9403 42.4968C85.9458 42.476 85.9514 42.4552 85.9569 42.4329C85.9694 42.3843 85.9791 42.3441 85.9875 42.3024C85.993 42.2788 85.9972 42.2552 86.0014 42.2316C86.0097 42.1899 86.0153 42.1482 86.0208 42.1066L86.0291 42.0427C86.0347 41.9913 86.0389 41.9413 86.0416 41.8899L86.043 41.8649C86.0458 41.7996 86.0458 41.7385 86.0444 41.6788L86.0416 41.6274C86.0389 41.5857 86.0361 41.5441 86.0319 41.5024C86.0305 41.4843 86.0278 41.4677 86.025 41.451C86.018 41.4024 86.0125 41.3663 86.0069 41.3288C86.0055 41.3204 86.0042 41.3093 86.0028 41.2982L85.9944 41.2621C85.9875 41.2302 85.9791 41.1968 85.9708 41.1635C85.9639 41.1385 85.9597 41.1204 85.9541 41.101C85.9444 41.0663 85.9333 41.0316 85.9208 40.9982L85.9111 40.9663C85.9083 40.9593 85.9055 40.9524 85.9028 40.9454C85.8764 40.8732 85.8444 40.7996 85.8041 40.7204L85.7875 40.6871C85.7542 40.6246 85.718 40.5621 85.6778 40.501L85.6639 40.4788C85.6486 40.4552 85.6319 40.4316 85.6139 40.4079L84.0541 38.2816C84.0541 38.2954 84.0528 38.3093 84.0528 38.3218L84.05 38.3538C84.0458 38.4232 84.0416 38.4871 84.0333 38.551C84.0305 38.5704 84.0278 38.5913 84.025 38.6121L84.0222 38.6302C84.0153 38.6802 84.0069 38.7316 83.9986 38.7829C83.993 38.8121 83.9875 38.8413 83.9805 38.8704C83.9694 38.9204 83.9583 38.9704 83.9458 39.0204C83.9375 39.0524 83.9305 39.0802 83.9222 39.1066C83.9069 39.1593 83.8903 39.2121 83.8722 39.2649L83.8653 39.2871C83.8597 39.3038 83.8541 39.3218 83.8472 39.3385C83.8194 39.4163 83.7889 39.4941 83.7542 39.5718L69.9986 71.026C69.9639 71.1038 69.9264 71.1843 69.8805 71.2691L69.8736 71.2843C69.8319 71.3621 69.7889 71.4371 69.743 71.5107C69.6833 71.6066 69.618 71.7038 69.5472 71.7996C69.5333 71.8177 69.5194 71.8357 69.5042 71.8538L69.4861 71.876C69.4389 71.9357 69.3916 71.9941 69.343 72.0496C69.318 72.0788 69.2916 72.1079 69.2639 72.1371C69.218 72.1857 69.1722 72.2329 69.125 72.2802C69.0916 72.3135 69.0666 72.3385 69.0403 72.3621C68.9903 72.4093 68.9375 72.4538 68.8847 72.4982L68.8611 72.5177C68.843 72.5329 68.8236 72.5496 68.8055 72.5649C68.718 72.6357 68.6347 72.6968 68.5541 72.7524C68.4722 72.8093 68.3819 72.8663 68.2778 72.926C68.2597 72.9371 68.2403 72.9468 68.2222 72.9566L68.1986 72.9691C68.118 73.0135 68.0347 73.0566 67.95 73.0954L67.925 73.1066C67.9 73.1191 67.8736 73.1302 67.8486 73.1427C67.8194 73.1552 67.7903 73.1677 67.7611 73.1802C67.7041 73.2038 67.6528 73.2232 67.6 73.2427C67.568 73.2538 67.5347 73.2663 67.5028 73.276C67.4514 73.2927 67.4 73.3079 67.3486 73.3232L67.3319 73.3274C67.3014 73.3357 67.2708 73.3454 67.2403 73.3524C67.1875 73.3663 67.1333 73.3774 67.0791 73.3899L67.0528 73.3954C67.0278 73.401 67.0014 73.4066 66.9764 73.4121C66.9166 73.4232 66.8569 73.4315 66.7972 73.4399L66.7708 73.4441C66.75 73.4468 66.7305 73.4496 66.7097 73.4524C66.6153 73.4635 66.5264 73.4704 66.4389 73.4732L19.5666 73.476C19.2472 73.4829 18.9361 73.4385 18.643 73.3552Z" fill="#F4F7FB"/>
<path d="M83.8468 19.5166L81.2343 15.9541L78.9899 30.0277L78.0996 35.6027H81.0246C81.1107 35.6027 81.1968 35.6055 81.2788 35.6124L81.6024 33.5888V33.5874L83.8468 19.5166Z" fill="#F4F7FB"/>
<path d="M81.5431 35.9498L81.2542 35.9261C81.1806 35.9206 81.1028 35.9164 81.0251 35.9164H77.7334L81.0431 15.165L84.1764 19.4359L81.9334 33.5039L81.9126 33.64L81.5431 35.9498ZM78.4667 35.2914H81.0153L81.2945 33.5414L83.5181 19.597L81.4251 16.7428L79.3181 29.9511L79.2987 30.0789L78.4667 35.2914Z" fill="#F4F7FB"/>
<path d="M83.4732 39.4492L69.7176 70.9033C69.1523 72.1964 67.819 73.1103 66.4315 73.1658L19.5718 73.1686C18.1371 73.1686 17.0315 72.238 16.8718 70.9019L12.4912 33.8742C12.2621 31.9339 14.0815 30.0283 16.1648 30.0283H33.194C34.6287 30.0283 35.7371 30.9561 35.8954 32.2922L36.019 33.338C36.1773 34.6755 37.2829 35.6047 38.719 35.6047H81.026C81.1121 35.6047 81.1982 35.6075 81.2801 35.6144C83.2065 35.7617 84.2857 37.5894 83.4732 39.4492Z" fill="#203686"/>
<path d="M19.5708 73.4829C17.9763 73.4829 16.7388 72.4371 16.5611 70.9412L12.1805 33.9107C12.0666 32.9454 12.4125 31.9273 13.1319 31.119C13.925 30.2273 15.0305 29.7148 16.1652 29.7148H33.1944C34.7902 29.7148 36.0291 30.7593 36.2055 32.2551L36.3291 33.301C36.468 34.4732 37.4499 35.2912 38.718 35.2912H81.0249C81.1208 35.2912 81.2138 35.2954 81.3055 35.3023C82.3111 35.3801 83.1666 35.8871 83.6513 36.6926C84.1555 37.5301 84.1944 38.5815 83.7611 39.5746L70.0055 71.0287C69.3916 72.4329 67.9611 73.4176 66.4458 73.4787L19.5708 73.4829ZM16.1652 30.3412C15.2222 30.3412 14.2638 30.7871 13.5986 31.5343C12.9986 32.2093 12.7083 33.0482 12.8013 33.8371L17.1819 70.8676C17.3208 72.0398 18.3027 72.8579 19.5708 72.8579L66.4305 72.8551C67.6805 72.8051 68.918 71.951 69.4305 70.7801L83.1861 39.326C83.5374 38.5204 83.5111 37.6787 83.1138 37.0162C82.7347 36.3857 82.0583 35.9885 81.2555 35.9273C81.1805 35.9218 81.1027 35.9176 81.0249 35.9176H38.718C37.1236 35.9176 35.8861 34.8718 35.7083 33.376L35.5847 32.3301C35.4458 31.1593 34.4625 30.3412 33.1944 30.3412H16.1652Z" fill="#F4F7FB"/>
<path d="M78.0995 35.9166H38.7176C37.1231 35.9166 35.8856 34.8722 35.7065 33.3763L35.5843 32.3305C35.4454 31.1597 34.462 30.3416 33.194 30.3416H21.9898C21.8981 30.3416 21.812 30.3013 21.7523 30.2319C21.6926 30.1624 21.6676 30.0708 21.6815 29.9805L22.3051 26.0666C22.3287 25.9152 22.4606 25.8027 22.6134 25.8027H30.5051L32.9148 10.6916H25.1231C25.0315 10.6916 24.9454 10.6513 24.8856 10.5819C24.8259 10.5124 24.8009 10.4208 24.8148 10.3305L26.2676 1.21799C26.2912 1.0666 26.4231 0.954102 26.5759 0.954102H68.3495C68.4398 0.954102 68.5245 0.992989 68.5843 1.06104L68.8037 1.31105C68.8648 1.38049 68.8926 1.47494 68.8773 1.5666L66.6343 15.6416H81.2329C81.3245 15.6416 81.4106 15.6819 81.4704 15.7513C81.5301 15.8208 81.5551 15.9124 81.5412 16.0027L78.4079 35.6527C78.3843 35.8055 78.2537 35.9166 78.0995 35.9166ZM22.3565 29.7166H33.1954C34.7898 29.7166 36.0287 30.761 36.2065 32.2569L36.3287 33.3027C36.4676 34.4735 37.4509 35.2916 38.719 35.2916H77.8329L80.8676 16.2666H66.269C66.1773 16.2666 66.0912 16.2263 66.0315 16.1569C65.9718 16.0874 65.9468 15.9958 65.9607 15.9055L68.2384 1.61243L68.2093 1.5791H26.844L25.4898 10.0666H33.2815C33.3731 10.0666 33.4593 10.1069 33.519 10.1763C33.5787 10.2458 33.6037 10.3374 33.5898 10.4277L31.0801 26.1638C31.0565 26.3152 30.9245 26.4277 30.7718 26.4277H22.8801L22.3565 29.7166ZM63.0745 31.9708H37.3856C37.0815 31.9708 36.8009 31.8472 36.6162 31.6305C36.4343 31.4166 36.3593 31.1374 36.4051 30.8458C36.4968 30.2694 37.0343 29.818 37.6287 29.818H63.3176C63.6204 29.818 63.9009 29.9416 64.0843 30.1569C64.2676 30.3708 64.3426 30.6513 64.2954 30.9444C64.2037 31.5194 63.6676 31.9708 63.0745 31.9708ZM37.6287 30.443C37.344 30.443 37.0662 30.6722 37.0231 30.9444C37.0051 31.0541 37.0301 31.1513 37.0926 31.2249C37.1593 31.3027 37.2634 31.3458 37.3856 31.3458H63.0745C63.3593 31.3458 63.6357 31.1166 63.6787 30.8458C63.6968 30.736 63.6718 30.636 63.6093 30.5624C63.5426 30.4847 63.4398 30.443 63.3176 30.443H37.6287ZM63.8912 26.8513H38.2009C37.8968 26.8513 37.6176 26.7277 37.4329 26.511C37.2495 26.2972 37.1745 26.018 37.2218 25.7249C37.3134 25.1499 37.8509 24.6985 38.4454 24.6985H64.1343C64.4384 24.6985 64.7176 24.8222 64.9023 25.0374C65.0843 25.2513 65.1593 25.5305 65.1134 25.8235C65.0204 26.3999 64.4843 26.8513 63.8912 26.8513ZM38.4454 25.3235C38.1606 25.3235 37.8829 25.5527 37.8398 25.8235C37.8218 25.9347 37.8468 26.0319 37.9093 26.1055C37.9759 26.1833 38.0801 26.2263 38.2023 26.2263H63.8912C64.1759 26.2263 64.4523 25.9972 64.4954 25.7249C64.5134 25.6138 64.4898 25.5166 64.4259 25.443C64.3593 25.3652 64.2565 25.3235 64.1343 25.3235H38.4454ZM64.7079 21.7291H39.019C38.7148 21.7291 38.4343 21.6055 38.2495 21.3888C38.0676 21.1749 37.9926 20.8958 38.0384 20.6041C38.1301 20.0277 38.6676 19.5763 39.262 19.5763H64.9509C65.2537 19.5763 65.5343 19.6999 65.7176 19.9152C65.9009 20.1291 65.9759 20.4097 65.9287 20.7027C65.837 21.2791 65.3009 21.7291 64.7079 21.7291ZM39.262 20.2013C38.9773 20.2013 38.6995 20.4305 38.6565 20.7027C38.6384 20.8124 38.6634 20.9097 38.7259 20.9833C38.7926 21.061 38.8968 21.1041 39.019 21.1041H64.7079C64.9926 21.1041 65.269 20.8749 65.312 20.6041C65.3301 20.4944 65.3051 20.3944 65.2426 20.3208C65.1759 20.243 65.0731 20.2013 64.9509 20.2013H39.262Z" fill="#F4F7FB"/>
<path d="M16.7514 10.126L14.1611 26.3676H30.9889L33.5792 10.126H16.7514ZM31.1556 12.1593L29.2139 24.3329H16.5806L18.5222 12.1593H31.1556Z" fill="#DDE1E6"/>
<path d="M68.5723 1.51855L81.2362 15.9547H66.2695L68.5723 1.51855Z" fill="#DDE1E6"/>
<path d="M81.2358 16.2669H66.2691C66.1774 16.2669 66.0913 16.2266 66.0316 16.1571C65.9719 16.0877 65.9469 15.996 65.9608 15.9058L68.2635 1.46964C68.283 1.3502 68.3691 1.25159 68.4858 1.21825C68.6024 1.18492 68.7274 1.22103 68.808 1.3127L81.4719 15.7488C81.5524 15.8405 81.5719 15.9724 81.5219 16.0835C81.4691 16.196 81.358 16.2669 81.2358 16.2669ZM66.6358 15.6419H80.5455L68.7747 2.2252L66.6358 15.6419Z" fill="#F4F7FB"/>
<path d="M65.6739 19.9538C65.4989 19.7482 65.242 19.6357 64.9531 19.6357H39.2628C38.6975 19.6357 38.185 20.0649 38.0989 20.6135C38.0545 20.8885 38.1253 21.1496 38.2961 21.351C38.4697 21.5538 38.7336 21.6705 39.0197 21.6705H64.7086C65.2739 21.6705 65.7836 21.2413 65.8711 20.6941C65.9156 20.4177 65.8447 20.1552 65.6739 19.9538Z" fill="#203686"/>
<path d="M64.1343 24.7578H38.4454C37.8801 24.7578 37.369 25.187 37.2815 25.7342C37.2371 26.0092 37.3079 26.2717 37.4787 26.4717C37.6524 26.6745 37.9149 26.7911 38.2024 26.7911H63.8912C64.4565 26.7911 64.9662 26.362 65.0537 25.8134C65.0982 25.5384 65.0274 25.2759 64.8565 25.0759C64.6843 24.8731 64.4204 24.7578 64.1343 24.7578Z" fill="#203686"/>
<path d="M63.3179 29.877H37.629C37.0637 29.877 36.5512 30.3061 36.4651 30.8547C36.4207 31.1297 36.4915 31.3908 36.6623 31.5922C36.8359 31.795 37.0998 31.9117 37.3859 31.9117H63.0748C63.6401 31.9117 64.1498 31.4825 64.2373 30.9353C64.2818 30.6603 64.2109 30.3978 64.0401 30.1964C63.8637 29.9895 63.6082 29.877 63.3179 29.877Z" fill="#203686"/>
</svg>
