<svg width="104" height="93" fill="none" xmlns="http://www.w3.org/2000/svg"><path d="M52 92.201c28.32 0 51.276-9.006 51.276-20.115 0-11.11-22.957-20.115-51.276-20.115C23.68 51.97.724 60.977.724 72.086.724 83.196 23.68 92.201 52 92.201zM31.453 11.907l-2.022 12.68h-6.573l2.023-12.68h6.572z" fill="#F4F7FB"/><path d="M64.135 25.01c.437 0 .737.342.67.765-.067.422-.476.765-.915.765H38.203c-.438 0-.739-.343-.67-.765.066-.423.475-.764.913-.764h25.689z" fill="#70798E"/><path d="M66.269 15.954h14.965L78.99 30.028l-.89 5.575H38.719c-1.435 0-2.542-.928-2.7-2.266l-.123-1.046c-.158-1.336-1.265-2.265-2.7-2.265H21.991l.624-3.914h8.157l2.51-15.736h-8.157l1.452-9.112h41.774l.22.25-2.302 14.44zm-1.561 5.462c.437 0 .846-.341.912-.763.067-.423-.232-.766-.67-.766H39.263c-.438 0-.847.343-.915.766-.067.422.233.763.67.763h25.69zm-.817 5.123c.438 0 .846-.343.914-.766.067-.422-.232-.764-.67-.764h-25.69c-.437 0-.847.342-.913.764-.067.423.233.766.67.766h25.69zm-.816 5.12c.437 0 .845-.342.912-.765.067-.422-.232-.765-.67-.765H37.63c-.438 0-.847.343-.916.765-.066.423.234.764.671.764h25.69z" fill="#F4F7FB"/><path d="M63.318 30.13c.438 0 .737.344.67.766-.067.422-.475.764-.913.764H37.386c-.437 0-.738-.342-.67-.764.066-.422.476-.765.915-.765h25.687z" fill="#70798E"/><path d="M63.318 30.13c.438 0 .737.344.67.766-.067.422-.475.764-.913.764H37.386c-.437 0-.738-.342-.67-.764.066-.422.476-.765.915-.765h25.687z" fill="#70798E"/><path d="M91.525 36.062a1.395 1.395 0 00-.01-.13l-.006-.076a2.33 2.33 0 00-.023-.142c-.002-.016-.004-.033-.008-.05l-.003-.01c-.01-.05-.022-.1-.034-.148l-.01-.039a2.103 2.103 0 00-.058-.182l-.002-.004a2.412 2.412 0 00-.118-.27c-.004-.008-.005-.016-.01-.023-.001-.004-.004-.007-.007-.011a2.574 2.574 0 00-.126-.215l-.013-.021a5.045 5.045 0 00-.062-.09l-2.612-3.563c.026.036.05.073.075.111.045.07.087.142.126.215l.017.034c.041.084.08.172.113.26l.006.015c.02.06.04.12.058.182.005.012.006.026.01.038a2.658 2.658 0 01.067.35l.007.075.01.13v.209c-.002.028-.002.057-.005.086l-.01.131-.01.085a2.534 2.534 0 01-.038.215 2.906 2.906 0 01-.053.218 3.06 3.06 0 01-.07.218 3 3 0 01-.089.22c-.027.058-.053.116-.083.176L69.811 71.034l-.094-.128c-.033.076-.07.15-.108.224-.003.005-.006.01-.007.015a3.78 3.78 0 01-.3.472c-.018.025-.038.047-.056.07-.043.055-.086.11-.132.162-.023.028-.049.054-.074.08a3.902 3.902 0 01-.129.132c-.026.025-.051.052-.077.075-.048.044-.096.085-.145.127l-.073.062c-.076.061-.153.12-.234.174a4.45 4.45 0 01-.257.161c-.023.014-.048.026-.073.04-.075.042-.152.08-.23.117a2.242 2.242 0 01-.18.08 2.93 2.93 0 01-.142.053l-.09.032a2.73 2.73 0 01-.142.043c-.033.01-.065.02-.098.028-.049.013-.099.024-.149.035l-.094.02a3.125 3.125 0 01-.246.037c-.082.01-.165.017-.247.02l2.612 3.562.013-.002.001.002h.026c.04 0 .077-.002.116-.003.016-.001.033-.004.05-.004a2.93 2.93 0 00.248-.024l.074-.008a2.86 2.86 0 00.314-.063c.025-.005.048-.013.072-.02.054-.014.11-.027.164-.045l.087-.03.066-.023a4.1 4.1 0 00.266-.107c.006-.002.011-.007.018-.008.006-.003.013-.004.02-.008 0 0 0-.002-.002-.002 0 0 0 .002.002.002.097-.045.191-.095.284-.147l.008-.005c.027-.015.052-.033.079-.05a3.86 3.86 0 00.201-.126c.037-.025.072-.054.108-.082.043-.032.087-.061.127-.094l.015-.012c.039-.03.074-.065.111-.097.032-.028.065-.054.096-.083l.02-.02.004-.002.002-.003.024-.022c.018-.017.032-.036.05-.053.047-.047.096-.095.14-.145.013-.013.024-.029.036-.043.01-.01.023-.022.032-.033l.03-.035c.031-.039.062-.077.093-.118l.018-.022.005-.008c.064-.085.124-.174.18-.264l.019-.027.015-.026a3.19 3.19 0 00.125-.225l18.77-37.028c.026-.05.05-.101.073-.151l.01-.024c.022-.051.043-.102.062-.153l.027-.066a3.289 3.289 0 00.123-.436.987.987 0 00.014-.075l.024-.14.01-.085a4.1 4.1 0 00.01-.13l.005-.087.001-.126c-.005-.024-.005-.052-.007-.08z" fill="#969BA8"/><path d="M68.89 77.05l-3.058-4.17.586-.024a3.043 3.043 0 00.261-.024l.038-.005c.05-.007.1-.014.15-.024.02-.004.037-.008.055-.01l.03-.008.136-.03.073-.021.017-.006c.043-.012.087-.025.13-.04l.084-.03a2.49 2.49 0 00.13-.05c.03-.012.056-.022.08-.033l.06-.027.027-.013a3.02 3.02 0 00.211-.108l.068-.038a3.415 3.415 0 00.489-.341l.03-.025a3.455 3.455 0 00.512-.53l.022-.029.03-.037a3.67 3.67 0 00.275-.432l.005-.013c.036-.068.07-.136.098-.205l.217-.497.114.155 18.518-36.52a2.865 2.865 0 00.132-.302l.023-.058c.024-.067.046-.134.066-.2l.008-.031c.015-.054.03-.11.04-.164l.007-.037.006-.03c.008-.044.015-.086.02-.127l.008-.06.001-.015c.004-.04.008-.078.01-.117l.002-.076c.002-.04.002-.077.002-.114l-.001-.074a1.502 1.502 0 00-.009-.114l-.003-.026-.004-.042a4.103 4.103 0 00-.02-.125l-.008-.053c-.008-.044-.019-.087-.03-.13l-.007-.027a1.786 1.786 0 00-.053-.166l-.004-.01a2.208 2.208 0 00-.1-.232l-.01-.02a2.282 2.282 0 00-.115-.198 1.552 1.552 0 00-.064-.094l-.003-.003.505-.37 2.612 3.563c.025.033.049.067.07.101l.02.032c.046.071.092.146.132.224l.011.02a2.818 2.818 0 01.135.308l.014.036a3.472 3.472 0 01.07.232c.017.062.03.118.041.173l.003.016c.003.01.004.025.007.04.01.064.02.115.026.17l.007.066.001.018c.005.047.009.094.01.143.002.03.002.061.003.092.001.047 0 .094-.001.141l-.005.095a2.62 2.62 0 01-.012.144l-.001.014a2.944 2.944 0 01-.035.233l-.004.024a3.485 3.485 0 01-.06.261l-.01.04a3.13 3.13 0 01-.078.237l-.019.051-.008.022a2.926 2.926 0 01-.068.167l-.011.026-.08.166-18.77 37.032a4.871 4.871 0 01-.135.244l-.016.028-.022.033c-.062.1-.123.19-.187.276l-.007.01.004.006-.161.19-.246.289-.011-.014-.02.02-.055.052-.07.063-.069.06c-.028.024-.056.05-.085.073l-.022.017-.097.072-.071.053c-.026.02-.054.041-.082.06l-.023.016c-.056.039-.123.078-.188.118l-.03.02c-.014.01-.03.018-.045.027l.01.013-.324.151-.017.009-.227.105-.006-.007-.096.036-.098.035a1.285 1.285 0 01-.066.022c-.047.016-.096.028-.143.04l-.058.013-.054.015c-.113.028-.228.05-.342.068-.02.003-.037.006-.057.007l-.023.003a3.13 3.13 0 01-.271.025l-.054.006a3.89 3.89 0 01-.127.002h-.034l-.162.007zM67 73.414l2.2 2.999c.011-.001.02-.003.032-.003.075-.004.151-.011.226-.02l.067-.01c.096-.013.192-.032.286-.056l.104-.028c.038-.01.077-.02.113-.032l.041-.014.098-.034c.096-.035.173-.067.244-.099-.003 0 .007-.004.016-.008l.023-.01a3.68 3.68 0 00.256-.132l.012-.007.024-.015.043-.028c.06-.036.117-.07.17-.107l.023-.014.047-.036.083-.061.08-.06.02-.015.055-.047.084-.074a.608.608 0 00.046-.04l.058-.057.034-.036.028-.028c.034-.035.069-.068.101-.104.015-.02.024-.03.032-.039l.028-.03.237.2-.234-.2.026-.031a2.59 2.59 0 00.079-.102l.02-.026.01-.011a3.915 3.915 0 00.182-.269l.01-.019c.04-.066.08-.134.114-.204L90.89 37.481a3.13 3.13 0 00.067-.139l.01-.024c.019-.044.038-.091.055-.137l.023-.06a2.69 2.69 0 00.064-.197l.009-.03a2.5 2.5 0 00.04-.166l.013-.068c.007-.041.015-.085.02-.126l.007-.06.002-.015a1.64 1.64 0 00.012-.193c.002-.04.002-.077.002-.114 0-.025 0-.049-.002-.074a1.556 1.556 0 00-.008-.114l-.002-.022c0-.015-.002-.03-.004-.046a1.905 1.905 0 00-.02-.125l-.006-.043c-.002-.004-.002-.01-.003-.014a1.805 1.805 0 00-.03-.126l-.007-.028a1.592 1.592 0 00-.052-.162l-.005-.016a2.268 2.268 0 00-.1-.23l-.014-.03a1.944 1.944 0 00-.111-.188l-.018-.03-.049-.068-1.56-2.127v.01l-.004.094a2.424 2.424 0 01-.012.144l-.002.014-.008.078c-.007.051-.017.104-.025.156l-.004.023a3.424 3.424 0 01-.06.261l-.01.036a2.92 2.92 0 01-.097.29l-.008.022c-.023.055-.043.11-.068.166a2.953 2.953 0 01-.09.192l-18.977 37.43-.099-.134-.013.022c-.06.096-.126.193-.196.289l-.043.054-.018.022a4.575 4.575 0 01-.223.261 6.944 6.944 0 01-.223.225c-.05.047-.103.092-.156.136l-.023.02-.056.047a4.065 4.065 0 01-.528.361.745.745 0 01-.055.03l-.024.013a3.42 3.42 0 01-.249.127l-.024.01-.077.037-.087.037a4.151 4.151 0 01-.162.063l-.097.033a6.974 6.974 0 01-.154.047l-.017.005c-.03.008-.06.018-.091.025l-.161.037-.027.006a.139.139 0 01-.054.016zm24.674-38.22zm-.007-.019l.004.012a.094.094 0 00-.004-.012z" fill="#F4F7FB"/><path d="M86.194 30.03c2.166 0 3.367 2.047 2.363 4.026L69.786 71.084c-.632 1.245-1.978 2.086-3.342 2.084 1.374-.057 2.707-.97 3.273-2.262L83.472 39.45c.849-1.94-.364-3.847-2.448-3.847h-2.925l.888-5.575h7.207z" fill="#DDE1E6"/><path d="M66.447 73.48h-.004l-.012-.625c1.254-.051 2.487-.904 2.998-2.075l13.756-31.454c.367-.839.325-1.707-.117-2.38-.428-.653-1.172-1.028-2.046-1.028h-3.29l.989-6.2h7.472c1.122 0 2.074.501 2.611 1.378.55.895.561 2.057.03 3.102l-18.77 37.025c-.685 1.35-2.137 2.257-3.617 2.257zm12.02-38.189h2.558c1.088 0 2.024.478 2.568 1.312.558.854.62 1.937.165 2.973L73.404 63.252l14.874-29.338c.439-.864.436-1.774-.006-2.494-.42-.686-1.177-1.079-2.077-1.079h-6.94l-.788 4.95z" fill="#F4F7FB"/><path d="M86.354 41.615a2.326 2.326 0 00-.02-.213c-.005-.041-.01-.083-.02-.125-.002-.012-.002-.025-.005-.037l-.008-.037-.026-.113-.019-.071a1.88 1.88 0 00-.037-.117l-.015-.047a2.452 2.452 0 00-.118-.27l-.01-.023-.01-.015a2.615 2.615 0 00-.135-.23l-.062-.089-2.612-3.562a2.778 2.778 0 01.197.32c.007.012.012.025.02.037.042.085.08.172.113.261l.02.057c.012.039.026.078.037.117.007.023.012.047.018.07a2.88 2.88 0 01.06.313c.003.024.007.047.008.07.004.048.008.095.01.142l.003.059c.001.066.001.135-.002.203l-.002.034a2.507 2.507 0 01-.014.173l-.01.07-.022.14c-.004.026-.01.052-.016.078l-.032.137-.02.079a2.92 2.92 0 01-.046.146c-.009.022-.015.045-.024.068-.025.07-.054.143-.085.213L69.715 70.909c-.034.076-.07.15-.109.223-.002.006-.005.01-.006.016a3.779 3.779 0 01-.3.472l-.056.07a4.637 4.637 0 01-.206.242 3.907 3.907 0 01-.129.132c-.026.025-.051.052-.078.075a5.986 5.986 0 01-.144.127l-.073.062a3.15 3.15 0 01-.234.174c-.083.057-.17.11-.257.16-.023.015-.048.027-.073.041-.075.042-.152.08-.23.117-.03.015-.062.029-.093.043l-.087.036c-.047.02-.095.038-.142.054l-.09.032c-.047.015-.094.03-.142.043-.033.01-.065.02-.098.028l-.149.035-.094.02a3.253 3.253 0 01-.246.037c-.082.01-.166.016-.248.019l-46.86.003c-.945 0-1.748-.404-2.231-1.063l2.612 3.563c.484.658 1.286 1.062 2.232 1.062l46.86-.002c.083-.003.165-.01.247-.02l.08-.011a2.98 2.98 0 00.165-.025l.096-.02c.05-.012.098-.022.147-.036l.1-.027.087-.025.054-.018.09-.032c.048-.017.095-.037.142-.055.03-.012.059-.023.088-.036l.044-.018c.017-.007.032-.016.049-.025.078-.036.154-.075.23-.116l.048-.025.025-.016c.17-.098.334-.21.489-.334l.018-.014c.02-.016.036-.034.055-.049a5.68 5.68 0 00.145-.126l.032-.028c.016-.015.03-.032.047-.049.044-.043.087-.087.129-.132.014-.015.028-.027.042-.043.01-.012.02-.025.032-.037.045-.053.088-.106.132-.161.013-.018.029-.035.043-.053l.013-.02a3.35 3.35 0 00.181-.265c.003-.004.007-.008.01-.014.039-.064.075-.127.11-.193l.008-.016.089-.18c.007-.015.012-.03.02-.044l13.755-31.454c.03-.071.058-.143.084-.214l.024-.068a2.917 2.917 0 00.067-.225l.032-.136.015-.08.022-.138.01-.071c.007-.058.011-.115.014-.172l.002-.035a3.273 3.273 0 00-.002-.258z" fill="#DDE1E6"/><path d="M22.185 77.045c-1.024 0-1.93-.433-2.484-1.19l-2.612-3.562.504-.37.003.004c.436.592 1.155.93 1.976.93l46.86-.002a3.424 3.424 0 00.248-.023l.038-.006c.05-.007.1-.014.15-.024.02-.004.038-.008.056-.01l.03-.008.135-.03.073-.021.017-.006c.043-.012.088-.025.13-.04l.084-.03c.043-.014.088-.031.13-.05.031-.012.056-.021.081-.032a1.03 1.03 0 00.058-.028l.028-.013a3.02 3.02 0 00.211-.108l.068-.038a3.415 3.415 0 00.45-.308c.014-.01.027-.022.04-.033l.028-.025a3.54 3.54 0 00.324-.309l.067-.073c.043-.049.083-.097.122-.149l.022-.028.03-.037a3.789 3.789 0 00.275-.432l.005-.012a2.76 2.76 0 00.099-.206l13.755-31.454c.028-.065.054-.13.076-.195l.021-.062a2.067 2.067 0 00.06-.199c.013-.046.022-.086.03-.126.006-.024.01-.047.014-.07.009-.043.014-.084.02-.126l.008-.064c.006-.051.01-.103.013-.154l.001-.026c.003-.066.003-.125.001-.185l-.002-.052c-.003-.041-.004-.083-.01-.125l-.006-.045-.002-.017a1.378 1.378 0 00-.017-.11l-.013-.065a2.41 2.41 0 00-.023-.1l-.017-.063a1.517 1.517 0 00-.033-.102l-.017-.05a2.142 2.142 0 00-.1-.23l-.016-.033a1.927 1.927 0 00-.11-.186c-.021-.032-.04-.062-.063-.092H83l.504-.37.001.002 2.612 3.56.07.1.016.026c.047.074.091.15.132.226l.014.023.015.033c.047.095.086.185.12.275l.006.016.017.048c.018.055.032.099.044.143l.02.075c.01.046.022.09.03.13l.01.041a2.061 2.061 0 01.028.183l.01.081c.005.052.008.104.01.157l.002.018.003.047c.003.074.001.149-.002.225l-.002.032c-.004.07-.009.134-.017.196l-.007.054-.003.023a2.944 2.944 0 01-.078.388 4.142 4.142 0 01-.074.247l-.005.02a3.952 3.952 0 01-.111.289L72.587 74.636c-.029.065-.062.13-.095.194l-.009.018a3.346 3.346 0 01-.12.21l-.013.02a3.723 3.723 0 01-.207.304l-.035.043-.01.014c-.048.06-.095.118-.144.173-.014.018-.023.03-.033.04l-.035.037-.011.01c-.044.05-.092.096-.139.144l-.012.012a.51.51 0 01-.069.065 6.21 6.21 0 01-.16.14l-.016.015c-.014.012-.029.026-.044.037l-.023.018a4.245 4.245 0 01-.55.375l-.045.022a5.509 5.509 0 01-.309.157c-.01.006-.023.01-.036.016a3.965 3.965 0 01-.259.102l-.098.035-.016.006a.522.522 0 01-.042.014c-.02.007-.043.012-.065.019l-.046.012c-.03.009-.061.019-.092.025-.053.014-.107.026-.16.038l-.026.006a3.984 3.984 0 01-.257.044l-.026.004c-.021.003-.042.007-.061.008a3.137 3.137 0 01-.271.021l-46.868.011zm-3.542-3.69l1.563 2.13c.436.594 1.157.934 1.979.934l46.86-.003a3.349 3.349 0 00.248-.023l.037-.006c.05-.007.1-.014.15-.023l.057-.013.031-.007.135-.03.073-.021.057-.017.04-.011.05-.018c.027-.008.055-.02.082-.03.044-.015.088-.031.131-.05.028-.01.054-.022.08-.033l.05-.02.037-.02c.072-.033.141-.07.21-.108l.038-.02.03-.018c.16-.091.31-.196.45-.308l.036-.028.033-.03a2.647 2.647 0 00.16-.138l.016-.017.03-.029c.041-.04.08-.08.119-.122l.028-.03.01-.01.029-.035c.041-.049.082-.097.122-.147l.028-.034.01-.013a3.002 3.002 0 00.178-.261l.013-.019c.035-.055.067-.112.097-.17l.007-.016c.028-.054.056-.108.08-.164l.017-.037 13.757-31.456c.028-.065.055-.13.077-.194l.02-.061c.016-.045.03-.09.042-.132l.017-.064a2.474 2.474 0 00.064-.326l.008-.064c.006-.052.01-.102.013-.153l.001-.025c.003-.065.003-.127.001-.186l-.002-.052a3.504 3.504 0 00-.017-.176l-.018-.122-.004-.03-.009-.037-.023-.099-.017-.062a1.27 1.27 0 00-.033-.103l-.01-.032-.008-.02a2.028 2.028 0 00-.099-.226l-.017-.033a2.339 2.339 0 00-.11-.186l-.013-.022a1.168 1.168 0 00-.05-.071l-1.56-2.126-.001.04-.003.032a2.87 2.87 0 01-.017.197l-.008.061-.003.018-.023.153-.018.087-.035.15-.024.087a3.48 3.48 0 01-.05.158l-.007.022c-.005.017-.01.035-.018.052a3.263 3.263 0 01-.093.233L70 71.026a3.469 3.469 0 01-.118.243l-.007.015a3.97 3.97 0 01-.37.57l-.018.022a4.497 4.497 0 01-.361.404 3.606 3.606 0 01-.24.218l-.024.02-.056.047a4.065 4.065 0 01-.527.361c-.018.011-.038.02-.056.03l-.023.013a3.627 3.627 0 01-.249.126l-.025.012c-.025.012-.051.023-.076.036l-.088.037a4.32 4.32 0 01-.161.063l-.097.033a5.331 5.331 0 01-.154.047l-.017.004c-.03.009-.061.018-.092.025-.052.014-.107.025-.16.038l-.027.005-.077.017c-.06.011-.12.02-.179.028l-.026.004-.061.008a3.174 3.174 0 01-.271.021l-46.872.003c-.32.007-.63-.037-.924-.12zm65.204-53.838l-2.613-3.563-2.244 14.074-.89 5.575h2.925c.086 0 .172.002.254.01l.323-2.024v-.002l2.245-14.07z" fill="#F4F7FB"/><path d="M81.543 35.95l-.289-.024a3.093 3.093 0 00-.229-.01h-3.292l3.31-20.751 3.133 4.27-2.243 14.069-.02.136-.37 2.31zm-3.076-.659h2.548l.28-1.75 2.223-13.944-2.093-2.854-2.107 13.208-.02.128-.831 5.212z" fill="#F4F7FB"/><path d="M83.473 39.45L69.718 70.902c-.566 1.293-1.899 2.207-3.287 2.263l-46.86.003c-1.434 0-2.54-.931-2.7-2.267l-4.38-37.028c-.229-1.94 1.59-3.846 3.674-3.846h17.029c1.435 0 2.543.928 2.701 2.264l.124 1.046c.158 1.337 1.264 2.267 2.7 2.267h42.307c.086 0 .172.003.254.01 1.927.147 3.006 1.974 2.193 3.834z" fill="#203686"/><path d="M19.57 73.483c-1.594 0-2.831-1.046-3.009-2.542l-4.38-37.03c-.114-.966.232-1.984.95-2.792.794-.892 1.9-1.404 3.034-1.404h17.03c1.595 0 2.834 1.044 3.01 2.54l.124 1.046c.139 1.172 1.12 1.99 2.389 1.99h42.307c.096 0 .189.004.28.011 1.006.078 1.862.585 2.346 1.39.505.838.543 1.89.11 2.883L70.006 71.029c-.614 1.404-2.045 2.389-3.56 2.45l-46.875.004zM16.166 30.34c-.943 0-1.901.446-2.566 1.193-.6.675-.89 1.514-.798 2.303l4.38 37.03c.14 1.173 1.122 1.99 2.39 1.99l46.86-.002c1.25-.05 2.487-.904 3-2.075l13.755-31.454c.351-.806.325-1.647-.072-2.31-.38-.63-1.056-1.027-1.859-1.089a3.164 3.164 0 00-.23-.01H38.718c-1.594 0-2.832-1.045-3.01-2.541l-.123-1.046c-.14-1.17-1.123-1.989-2.39-1.989h-17.03z" fill="#F4F7FB"/><path d="M78.1 35.917H38.718c-1.595 0-2.832-1.045-3.012-2.54l-.122-1.047c-.139-1.17-1.122-1.988-2.39-1.988H21.99a.313.313 0 01-.308-.361l.623-3.914a.313.313 0 01.308-.264h7.892l2.41-15.111h-7.792a.313.313 0 01-.308-.361l1.453-9.113a.313.313 0 01.308-.264h41.773c.09 0 .175.039.235.107l.22.25c.06.07.089.164.073.256l-2.243 14.075h14.599a.313.313 0 01.308.36l-3.133 19.65a.31.31 0 01-.308.265zm-55.743-6.2h10.838c1.595 0 2.834 1.044 3.011 2.54l.123 1.046c.139 1.17 1.122 1.989 2.39 1.989h39.114l3.035-19.025H66.269a.313.313 0 01-.308-.361l2.277-14.294-.029-.033H26.844l-1.354 8.488h7.792a.313.313 0 01.308.36l-2.51 15.737a.313.313 0 01-.308.264H22.88l-.523 3.289zm40.718 2.254h-25.69c-.303 0-.584-.124-.769-.34a.962.962 0 01-.21-.785c.09-.577.628-1.028 1.223-1.028h25.689a1 1 0 01.766.339.957.957 0 01.211.787c-.091.575-.627 1.027-1.22 1.027zm-25.446-1.528c-.285 0-.563.23-.606.501a.336.336 0 00.07.28.37.37 0 00.293.122h25.688c.285 0 .562-.23.605-.5a.342.342 0 00-.07-.284.373.373 0 00-.291-.119h-25.69zm26.262-3.592h-25.69a1 1 0 01-.768-.34.953.953 0 01-.211-.786c.091-.575.629-1.027 1.223-1.027h25.69a1 1 0 01.767.34.963.963 0 01.211.785c-.093.577-.629 1.028-1.222 1.028zm-25.446-1.527c-.284 0-.562.229-.605.5a.338.338 0 00.07.281c.066.078.17.121.292.121h25.69c.284 0 .56-.229.603-.501a.334.334 0 00-.07-.282.372.372 0 00-.29-.12h-25.69zm26.263-3.595H39.019c-.304 0-.585-.123-.77-.34a.962.962 0 01-.21-.785c.091-.576.629-1.028 1.223-1.028h25.689a1 1 0 01.767.34.957.957 0 01.21.787c-.091.576-.627 1.026-1.22 1.026zm-25.446-1.528c-.285 0-.563.23-.605.502a.336.336 0 00.069.28c.067.078.17.121.293.121h25.689c.285 0 .561-.23.604-.5a.342.342 0 00-.07-.283.373.373 0 00-.291-.12H39.262z" fill="#F4F7FB"/><path d="M16.751 10.126l-2.59 16.242H30.99l2.59-16.242H16.751zm14.405 2.033l-1.942 12.174H16.58l1.941-12.174h12.634zm37.416-10.64l12.664 14.436H66.27l2.303-14.436z" fill="#DDE1E6"/><path d="M81.236 16.267H66.269a.313.313 0 01-.308-.361L68.263 1.47a.313.313 0 01.545-.157l12.664 14.436c.08.091.1.223.05.335a.316.316 0 01-.286.183zm-14.6-.625h13.91L68.775 2.225l-2.14 13.417z" fill="#F4F7FB"/><path d="M65.674 19.954a.927.927 0 00-.72-.318H39.262c-.566 0-1.078.429-1.164.977a.899.899 0 00.197.738c.174.203.438.32.724.32h25.689c.565 0 1.075-.43 1.162-.977a.903.903 0 00-.197-.74zm-1.54 4.804H38.445c-.565 0-1.076.429-1.163.976a.897.897 0 00.197.738c.173.202.436.32.723.32h25.69c.565 0 1.074-.43 1.162-.979a.896.896 0 00-.198-.737.94.94 0 00-.722-.318zm-.816 5.119H37.629c-.565 0-1.078.43-1.164.978a.899.899 0 00.197.737c.174.203.438.32.724.32h25.689c.565 0 1.075-.43 1.162-.977a.901.901 0 00-.197-.739.927.927 0 00-.722-.319z" fill="#203686"/></svg>