<svg width="109" height="28" fill="none" xmlns="http://www.w3.org/2000/svg"><path d="M17.474 2.76a12.302 12.302 0 014.729 4.711c1.144 2.009 1.716 4.279 1.716 6.81 0 2.533-.572 4.803-1.716 6.811a12.302 12.302 0 01-4.73 4.711c-2.008 1.132-4.278 1.698-6.81 1.698-2.264 0-4.304-.39-6.117-1.169-1.813-.779-3.329-1.91-4.546-3.396l3.761-3.505c1.802 2.021 4.004 3.03 6.61 3.03 1.874 0 3.463-.547 4.765-1.643 1.302-1.095 2.149-2.568 2.538-4.418H7.304v-4.528H17.6c-.414-1.753-1.266-3.153-2.556-4.2-1.29-1.046-2.848-1.57-4.674-1.57-2.606 0-4.808 1.01-6.61 3.03L0 5.628c1.217-1.484 2.733-2.616 4.546-3.396 1.814-.78 3.854-1.169 6.117-1.169 2.532 0 4.802.566 6.81 1.698zm20.98 14.004h-4.09v10.298h-5.88V1.5h5.88v10.334H38.6L45.319 1.5h6.244l-8.362 12.343 8.618 13.22h-6.72l-6.645-10.299zm64.907-14.132c1.667.755 2.952 1.826 3.852 3.214.9 1.387 1.351 3.03 1.351 4.93 0 1.875-.451 3.511-1.351 4.911-.9 1.4-2.185 2.471-3.852 3.214-1.668.743-3.634 1.113-5.898 1.113h-5.149v7.048h-5.916V1.5h11.065c2.264 0 4.23.377 5.898 1.132zm-2.173 11.412c.925-.767 1.388-1.857 1.388-3.269 0-1.436-.463-2.538-1.388-3.304-.926-.767-2.277-1.15-4.053-1.15h-4.82v8.873h4.82c1.776 0 3.127-.383 4.053-1.15z" fill="#203686"/><path d="M62.477 25.552s5.522 3.2 12.21-.032c6.689-3.231 7.515-8.792 7.795-11.216.28-2.425-.558-6.107-2.224-7.032-1.665-.925-2.193.626-2.143 1.221.05.595 1.336 2.755 1.792 4.867.456 2.112.172 5.809-2.41 8.812-2.583 3.002-8.195 5.753-14.873 3.064l-.147.316z" fill="#FFAB01"/><path d="M66.426 25.383s4.151.938 8.853-2.532c4.702-3.469 4.292-10.14 2.8-10.488-1.302-.303-1.626.813-1.487 1.639.139.826.585 2.678.216 4.172-.37 1.494-3.059 7.252-10.382 7.209z" fill="#FFAB01"/><path d="M69.188 24.24s2.129-.208 4.603-2.557c2.474-2.35 1.509-5.196.328-5.334-1.181-.139-1.141.898-1.037 1.517.104.62.738 1.79-.29 3.568-1.026 1.777-2.765 2.412-3.605 2.806z" fill="#FFAB01"/><path d="M57.081 27.183s.535-2.261 1.594-3.783c0 0 2 1.473 5.177 2.78 0 0-.321-3.845-5.744-6.662 0 0-1.556-5.127 2.4-6.534 1.932-.687 4.8-.258 7.933-.763-1.117-.71-2.782-2.125-3.095-4.387-1.612-.052-7.93.178-8.781 6.842 0 0-.382-7.422 8.73-7.527-.013-.953.21-2.04.786-3.269 0 0-2.122 5.343 3.424 8.132 2.983-.695 6.13-2.412 8.891-6.844 0 0-5.233-6.207-12.944-4.306-7.71 1.902-13.714 10.067-8.833 19.339 0 0-1.752 3.552.462 6.982zM70.382 5.797a1.122 1.122 0 01-.073-1.616 1.201 1.201 0 011.664-.072c.48.427.512 1.151.073 1.617a1.201 1.201 0 01-1.664.071z" fill="#203686"/><path d="M59.558 3.328s-3.19 2.09-4.653 6.63c0 0-1.215-4.092.758-7.083l3.895.453zm6.768 9.61l-4.049.11-1.08 2.14s2.317.632 5.129-2.25z" fill="#203686"/></svg>