<svg width="129" height="32" fill="none" xmlns="http://www.w3.org/2000/svg"><path d="M20.71 2.677a14.579 14.579 0 015.604 5.583c1.356 2.38 2.034 5.07 2.034 8.071 0 3.002-.678 5.692-2.034 8.072a14.58 14.58 0 01-5.605 5.583C18.33 31.328 15.64 32 12.638 32c-2.684 0-5.1-.462-7.25-1.385C3.238 29.691 1.443 28.35 0 26.59l4.458-4.155c2.135 2.395 4.745 3.592 7.833 3.592 2.222 0 4.105-.65 5.648-1.948 1.543-1.298 2.547-3.044 3.008-5.236H8.656v-5.367h12.205c-.491-2.077-1.5-3.737-3.03-4.977-1.53-1.24-3.375-1.861-5.54-1.861-3.088 0-5.698 1.197-7.833 3.592L0 6.074c1.443-1.76 3.239-3.101 5.388-4.025 2.15-.923 4.566-1.385 7.25-1.385 3 0 5.691.67 8.071 2.013zM45.573 19.27h-4.847v12.206h-6.968V1.18h6.968v12.248h5.02L53.71 1.18h7.4L51.2 15.808l10.214 15.668H53.45L45.573 19.27zm76.929-16.749c1.976.895 3.498 2.164 4.566 3.809 1.067 1.645 1.601 3.592 1.601 5.843 0 2.222-.534 4.162-1.601 5.82-1.068 1.66-2.59 2.93-4.566 3.81-1.977.88-4.306 1.32-6.99 1.32h-6.102v8.353h-7.012V1.18h13.114c2.684 0 5.013.447 6.99 1.341zm-2.575 13.525c1.096-.909 1.644-2.2 1.644-3.873 0-1.703-.548-3.008-1.644-3.917-1.097-.909-2.699-1.363-4.804-1.363h-5.713V17.41h5.713c2.105 0 3.707-.455 4.804-1.364z" fill="#fff"/><path d="M74.047 29.694s6.545 3.791 14.472-.038c7.927-3.83 8.906-10.42 9.238-13.293.331-2.874-.661-7.238-2.636-8.334-1.973-1.097-2.6.741-2.54 1.447.059.705 1.584 3.264 2.124 5.768.54 2.503.204 6.884-2.857 10.444-3.06 3.558-9.711 6.818-17.626 3.63l-.175.376z" fill="#FFAB01"/><path d="M78.727 29.491s4.92 1.112 10.492-3c5.573-4.112 5.087-12.019 3.318-12.43-1.543-.36-1.927.962-1.761 1.941.164.979.693 3.175.256 4.945-.439 1.77-3.626 8.595-12.305 8.544z" fill="#FFAB01"/><path d="M82 28.134s2.524-.247 5.456-3.031c2.932-2.784 1.788-6.158.388-6.323-1.4-.163-1.352 1.066-1.228 1.8.123.733.874 2.122-.343 4.228S82.995 27.667 82 28.134z" fill="#FFAB01"/><path d="M67.654 31.625s.633-2.68 1.889-4.484c0 0 2.37 1.746 6.135 3.295 0 0-.38-4.557-6.808-7.896 0 0-1.844-6.076 2.846-7.744 2.288-.815 5.688-.306 9.4-.904-1.322-.841-3.296-2.518-3.667-5.2-1.91-.061-9.398.211-10.408 8.11 0 0-.452-8.798 10.347-8.921-.015-1.13.249-2.42.932-3.875 0 0-2.515 6.332 4.058 9.638 3.535-.824 7.266-2.86 10.537-8.111 0 0-6.202-7.357-15.34-5.104-9.139 2.255-16.255 11.931-10.47 22.92 0 0-2.076 4.21.549 8.276zM83.418 6.278a1.33 1.33 0 01-.087-1.916 1.424 1.424 0 011.972-.084c.569.505.607 1.364.086 1.916-.52.552-1.402.59-1.971.084z" fill="#fff"/><path d="M70.588 3.358s-3.781 2.476-5.515 7.857c0 0-1.44-4.85.899-8.395l4.616.538zM78.61 14.75l-4.8.13-1.279 2.538c.001 0 2.746.748 6.078-2.668z" fill="#fff"/></svg>