<svg width="240" height="26" fill="none" xmlns="http://www.w3.org/2000/svg"><path d="M1.976 9V.6h7.236V9H8.036V1.332l.288.312h-5.46l.3-.312V9H1.976zm12.387.072c-.64 0-1.208-.14-1.704-.42A3.126 3.126 0 0111.483 7.5a3.284 3.284 0 01-.432-1.68c0-.632.144-1.192.432-1.68.288-.488.68-.868 1.176-1.14.496-.28 1.064-.42 1.704-.42.632 0 1.196.14 1.692.42.504.272.896.652 1.176 1.14.288.48.432 1.04.432 1.68 0 .632-.144 1.192-.432 1.68-.28.488-.672.872-1.176 1.152-.496.28-1.06.42-1.692.42zm0-1.008a2.15 2.15 0 001.092-.276c.328-.184.584-.444.768-.78A2.48 2.48 0 0016.5 5.82c0-.456-.092-.848-.276-1.176a1.948 1.948 0 00-.768-.78 2.15 2.15 0 00-1.092-.276 2.15 2.15 0 00-1.092.276c-.32.184-.576.444-.768.78-.192.328-.288.72-.288 1.176 0 .448.096.844.288 1.188.192.336.448.596.768.78.32.184.684.276 1.092.276zM22.1 9.072c-.648 0-1.228-.14-1.74-.42-.504-.28-.9-.664-1.188-1.152-.288-.488-.432-1.048-.432-1.68 0-.632.144-1.192.432-1.68A3.016 3.016 0 0120.359 3c.512-.28 1.092-.42 1.74-.42.576 0 1.088.116 1.536.348.456.224.808.56 1.056 1.008l-.876.564a1.896 1.896 0 00-.768-.684 2.071 2.071 0 00-.96-.228c-.416 0-.788.092-1.116.276a2.03 2.03 0 00-.78.78c-.192.328-.288.72-.288 1.176 0 .456.096.852.288 1.188.192.336.452.596.78.78.328.184.7.276 1.116.276.344 0 .664-.072.96-.216a1.99 1.99 0 00.768-.696l.876.552c-.248.44-.6.78-1.056 1.02-.448.232-.96.348-1.536.348zM27.36 9V3.348l.288.3h-2.616V2.64h5.808v1.008h-2.604l.276-.3V9H27.36zm8.558 0V7.656l-.06-.252V5.112c0-.488-.144-.864-.432-1.128-.28-.272-.704-.408-1.272-.408-.376 0-.744.064-1.104.192a2.76 2.76 0 00-.912.492l-.48-.864c.328-.264.72-.464 1.176-.6a4.87 4.87 0 011.452-.216c.872 0 1.544.212 2.016.636.472.424.708 1.072.708 1.944V9h-1.092zm-2.088.072c-.472 0-.888-.08-1.248-.24a1.927 1.927 0 01-.816-.66 1.713 1.713 0 01-.288-.972c0-.344.08-.656.24-.936.168-.28.436-.504.804-.672.376-.168.88-.252 1.512-.252h2.016v.828h-1.968c-.576 0-.964.096-1.164.288a.93.93 0 00-.3.696.91.91 0 00.372.756c.248.184.592.276 1.032.276.432 0 .808-.096 1.128-.288a1.63 1.63 0 00.708-.84l.228.792a1.82 1.82 0 01-.804.9c-.384.216-.868.324-1.452.324zM39.085 9V2.64h2.952c.744 0 1.328.144 1.752.432.432.28.648.68.648 1.2 0 .52-.204.924-.612 1.212-.4.28-.932.42-1.596.42l.18-.312c.76 0 1.324.14 1.692.42.368.28.552.692.552 1.236 0 .552-.208.984-.624 1.296-.408.304-1.036.456-1.884.456h-3.06zm1.128-.888h1.848c.48 0 .84-.072 1.08-.216.24-.152.36-.392.36-.72 0-.336-.112-.58-.336-.732-.216-.16-.56-.24-1.032-.24h-1.92v1.908zm0-2.736h1.728c.44 0 .772-.08.996-.24a.812.812 0 00.348-.696c0-.304-.116-.532-.348-.684-.224-.152-.556-.228-.996-.228h-1.728v1.848zM51.063 9l-2.46-3.096.949-.576L52.42 9h-1.356zm-4.607 0V2.64h1.152V9h-1.152zm.804-2.688v-.984h2.1v.984h-2.1zm2.388-.36l-1.068-.144 2.436-3.168h1.236l-2.604 3.312zM53.628 9V2.64h1.152v4.632l3.9-4.632h1.044V9h-1.152V4.368L54.684 9h-1.056zm11.554 0V2.64h5.892V9h-1.152V3.36l.276.288h-4.14l.276-.288V9h-1.152zm11.493.072c-.528 0-1.011-.12-1.451-.36A2.751 2.751 0 0174.18 7.62c-.257-.48-.385-1.08-.385-1.8s.124-1.32.373-1.8c.255-.48.6-.84 1.031-1.08.44-.24.933-.36 1.477-.36.623 0 1.175.136 1.656.408a3 3 0 011.14 1.14c.28.48.42 1.044.42 1.692 0 .648-.14 1.216-.42 1.704a3 3 0 01-1.14 1.14c-.48.272-1.032.408-1.656.408zm-3.371 2.256V2.64h1.103v1.716l-.072 1.476.12 1.476v4.02h-1.151zm3.275-3.264a2.15 2.15 0 001.093-.276 1.94 1.94 0 00.767-.78c.193-.344.289-.74.289-1.188 0-.456-.096-.848-.288-1.176a1.948 1.948 0 00-.769-.78 2.15 2.15 0 00-1.092-.276c-.4 0-.763.092-1.091.276-.32.184-.576.444-.769.78-.183.328-.275.72-.275 1.176 0 .448.091.844.275 1.188.193.336.449.596.769.78.328.184.692.276 1.091.276zm7.71 1.008c-.64 0-1.208-.14-1.704-.42A3.126 3.126 0 0181.41 7.5a3.284 3.284 0 01-.432-1.68c0-.632.144-1.192.432-1.68.288-.488.68-.868 1.176-1.14.496-.28 1.064-.42 1.704-.42.632 0 1.196.14 1.692.42.504.272.896.652 1.176 1.14.288.48.432 1.04.432 1.68 0 .632-.144 1.192-.432 1.68-.28.488-.672.872-1.176 1.152-.496.28-1.06.42-1.692.42zm0-1.008a2.15 2.15 0 001.092-.276c.328-.184.584-.444.768-.78a2.48 2.48 0 00.276-1.188c0-.456-.092-.848-.276-1.176a1.948 1.948 0 00-.768-.78 2.15 2.15 0 00-1.092-.276 2.15 2.15 0 00-1.092.276c-.32.184-.576.444-.768.78-.192.328-.288.72-.288 1.176 0 .448.096.844.288 1.188.192.336.448.596.768.78.32.184.684.276 1.092.276zm9.26.396V3.648h-2.76l-.06 1.224c-.015.4-.043.788-.083 1.164a6.312 6.312 0 01-.168 1.02c-.072.312-.18.568-.324.768a.905.905 0 01-.576.372l-1.14-.204a.736.736 0 00.6-.24c.152-.176.268-.416.348-.72.088-.304.152-.648.192-1.032.04-.392.072-.796.096-1.212l.096-2.148h4.932v5.82H93.55zm-5.363 2.016V7.992h7.488v2.484h-1.08V9h-5.316v1.476h-1.092zm9.313.924c-.304 0-.6-.052-.888-.156a2.025 2.025 0 01-.744-.432l.492-.864c.16.152.336.268.528.348.192.08.396.12.612.12.28 0 .512-.072.696-.216.184-.144.356-.4.516-.768l.396-.876.12-.144 2.496-5.772h1.128l-3.084 6.996c-.184.448-.392.8-.624 1.056a1.888 1.888 0 01-.744.54 2.342 2.342 0 01-.9.168zm1.512-2.196L96.107 2.64h1.2l2.472 5.664-.768.9zM108.638 9l-2.46-3.096.948-.576L109.994 9h-1.356zm-4.608 0V2.64h1.152V9h-1.152zm.804-2.688v-.984h2.1v.984h-2.1zm2.388-.36l-1.068-.144 2.436-3.168h1.236l-2.604 3.312zM112.356 9V3.348l.288.3h-2.616V2.64h5.808v1.008h-2.604l.276-.3V9h-1.152zm7.101.072c-.64 0-1.208-.14-1.704-.42a3.126 3.126 0 01-1.176-1.152 3.284 3.284 0 01-.432-1.68c0-.632.144-1.192.432-1.68.288-.488.68-.868 1.176-1.14.496-.28 1.064-.42 1.704-.42.632 0 1.196.14 1.692.42.504.272.896.652 1.176 1.14.288.48.432 1.04.432 1.68 0 .632-.144 1.192-.432 1.68-.28.488-.672.872-1.176 1.152-.496.28-1.06.42-1.692.42zm0-1.008a2.15 2.15 0 001.092-.276c.328-.184.584-.444.768-.78a2.48 2.48 0 00.276-1.188c0-.456-.092-.848-.276-1.176a1.948 1.948 0 00-.768-.78 2.15 2.15 0 00-1.092-.276 2.15 2.15 0 00-1.092.276c-.32.184-.576.444-.768.78-.192.328-.288.72-.288 1.176 0 .448.096.844.288 1.188.192.336.448.596.768.78.32.184.684.276 1.092.276zm4.964.936V2.64h2.952c.744 0 1.328.144 1.752.432.432.28.648.68.648 1.2 0 .52-.204.924-.612 1.212-.4.28-.932.42-1.596.42l.18-.312c.76 0 1.324.14 1.692.42.368.28.552.692.552 1.236 0 .552-.208.984-.624 1.296-.408.304-1.036.456-1.884.456h-3.06zm1.128-.888h1.848c.48 0 .84-.072 1.08-.216.24-.152.36-.392.36-.72 0-.336-.112-.58-.336-.732-.216-.16-.56-.24-1.032-.24h-1.92v1.908zm0-2.736h1.728c.44 0 .772-.08.996-.24a.812.812 0 00.348-.696c0-.304-.116-.532-.348-.684-.224-.152-.556-.228-.996-.228h-1.728v1.848zM135.014 9V2.64h5.892V9h-1.152V3.36l.276.288h-4.14l.276-.288V9h-1.152zm8.122 0V2.64h1.152v4.632l3.9-4.632h1.044V9h-1.152V4.368L144.192 9h-1.056zm9.592 0V3.348l.288.3H150.4V2.64h5.808v1.008h-2.604l.276-.3V9h-1.152zm8.558 0V7.656l-.06-.252V5.112c0-.488-.144-.864-.432-1.128-.28-.272-.704-.408-1.272-.408-.376 0-.744.064-1.104.192a2.76 2.76 0 00-.912.492l-.48-.864c.328-.264.72-.464 1.176-.6a4.87 4.87 0 011.452-.216c.872 0 1.544.212 2.016.636.472.424.708 1.072.708 1.944V9h-1.092zm-2.088.072c-.472 0-.888-.08-1.248-.24a1.927 1.927 0 01-.816-.66 1.713 1.713 0 01-.288-.972c0-.344.08-.656.24-.936.168-.28.436-.504.804-.672.376-.168.88-.252 1.512-.252h2.016v.828h-1.968c-.576 0-.964.096-1.164.288a.93.93 0 00-.3.696.91.91 0 00.372.756c.248.184.592.276 1.032.276.432 0 .808-.096 1.128-.288a1.63 1.63 0 00.708-.84l.228.792a1.82 1.82 0 01-.804.9c-.384.216-.868.324-1.452.324zM164.452 9V2.64h1.152v2.7h3.624v-2.7h1.152V9h-1.152V6.336h-3.624V9h-1.152zm8.168 0V2.64h1.152v4.632l3.9-4.632h1.044V9h-1.152V4.368L173.676 9h-1.056zm12.4 0V6.768l.18.216h-2.028c-.848 0-1.512-.18-1.992-.54-.472-.36-.708-.884-.708-1.572 0-.736.252-1.292.756-1.668.512-.376 1.192-.564 2.04-.564h2.784V9h-1.032zm-4.608 0l1.728-2.436h1.188L181.648 9h-1.236zm4.608-2.592V3.324l.18.324h-1.896c-.528 0-.936.1-1.224.3-.288.192-.432.512-.432.96 0 .832.536 1.248 1.608 1.248h1.944l-.18.252zm9.226 2.664c-.64 0-1.208-.14-1.704-.42a3.126 3.126 0 01-1.176-1.152 3.284 3.284 0 01-.432-1.68c0-.632.144-1.192.432-1.68.288-.488.68-.868 1.176-1.14.496-.28 1.064-.42 1.704-.42.632 0 1.196.14 1.692.42.504.272.896.652 1.176 1.14.288.48.432 1.04.432 1.68 0 .632-.144 1.192-.432 1.68-.28.488-.672.872-1.176 1.152-.496.28-1.06.42-1.692.42zm0-1.008a2.15 2.15 0 001.092-.276c.328-.184.584-.444.768-.78a2.48 2.48 0 00.276-1.188c0-.456-.092-.848-.276-1.176a1.948 1.948 0 00-.768-.78 2.15 2.15 0 00-1.092-.276 2.15 2.15 0 00-1.092.276c-.32.184-.576.444-.768.78-.192.328-.288.72-.288 1.176 0 .448.096.844.288 1.188.192.336.448.596.768.78.32.184.684.276 1.092.276zM199.21 9V2.64h5.892V9h-1.152V3.36l.276.288h-4.14l.276-.288V9h-1.152zm9.381 0V3.348l.288.3h-2.616V2.64h5.808v1.008h-2.604l.276-.3V9h-1.152zm7.101.072c-.64 0-1.208-.14-1.704-.42a3.126 3.126 0 01-1.176-1.152 3.284 3.284 0 01-.432-1.68c0-.632.144-1.192.432-1.68.288-.488.68-.868 1.176-1.14.496-.28 1.064-.42 1.704-.42.632 0 1.196.14 1.692.42.504.272.896.652 1.176 1.14.288.48.432 1.04.432 1.68 0 .632-.144 1.192-.432 1.68-.28.488-.672.872-1.176 1.152-.496.28-1.06.42-1.692.42zm0-1.008a2.15 2.15 0 001.092-.276c.328-.184.584-.444.768-.78a2.48 2.48 0 00.276-1.188c0-.456-.092-.848-.276-1.176a1.948 1.948 0 00-.768-.78 2.15 2.15 0 00-1.092-.276 2.15 2.15 0 00-1.092.276c-.32.184-.576.444-.768.78-.192.328-.288.72-.288 1.176 0 .448.096.844.288 1.188.192.336.448.596.768.78.32.184.684.276 1.092.276zm4.963.936V2.64h1.188l2.736 4.704h-.48l2.808-4.704h1.08V9h-1.044V3.936l.192.108-2.568 4.236h-.504l-2.58-4.32.228-.048V9h-1.056zM6.128 22.46v-4.812h-2.76l-.06 1.224c-.016.4-.044.788-.084 1.164a6.312 6.312 0 01-.168 1.02c-.072.312-.18.568-.324.768a.905.905 0 01-.576.372l-1.14-.204a.736.736 0 00.6-.24c.152-.176.268-.416.348-.72.088-.304.152-.648.192-1.032.04-.392.072-.796.096-1.212l.096-2.148H7.28v5.82H6.128zM.764 24.476v-2.484h7.488v2.484h-1.08V23H1.856v1.476H.764zm7.933-1.488l.072-.972.156.024a.808.808 0 00.132.012c.256 0 .456-.088.6-.264.152-.176.264-.408.336-.696.072-.296.124-.628.156-.996s.056-.736.072-1.104l.108-2.352h4.884V23H14.06v-5.688l.276.336h-3.264l.264-.348-.084 1.764c-.024.56-.068 1.084-.132 1.572a5.948 5.948 0 01-.3 1.284c-.128.368-.308.656-.54.864-.224.208-.516.312-.876.312a1.72 1.72 0 01-.336-.036 4.283 4.283 0 01-.372-.072zM21.508 23v-2.232l.18.216H19.66c-.848 0-1.512-.18-1.992-.54-.472-.36-.708-.884-.708-1.572 0-.736.252-1.292.756-1.668.512-.376 1.192-.564 2.04-.564h2.784V23h-1.032zM16.9 23l1.728-2.436h1.188L18.136 23H16.9zm4.608-2.592v-3.084l.18.324h-1.896c-.528 0-.936.1-1.224.3-.288.192-.432.512-.432.96 0 .832.536 1.248 1.608 1.248h1.944l-.18.252zm9.875 2.664a2.99 2.99 0 01-1.453-.36 2.751 2.751 0 01-1.043-1.092c-.256-.48-.384-1.08-.384-1.8s.123-1.32.372-1.8c.256-.48.6-.84 1.032-1.08.44-.24.931-.36 1.476-.36.624 0 1.176.136 1.655.408a3 3 0 011.14 1.14c.28.48.42 1.044.42 1.692 0 .648-.14 1.216-.42 1.704a3 3 0 01-1.14 1.14c-.48.272-1.031.408-1.655.408zm-3.372 2.256V16.64h1.104v1.716l-.072 1.476.12 1.476v4.02H28.01zm3.276-3.264a2.15 2.15 0 001.092-.276c.328-.184.584-.444.768-.78.192-.344.288-.74.288-1.188 0-.456-.096-.848-.288-1.176a1.948 1.948 0 00-.768-.78 2.15 2.15 0 00-1.092-.276c-.4 0-.764.092-1.092.276-.32.184-.576.444-.768.78-.184.328-.276.72-.276 1.176 0 .448.091.844.276 1.188.192.336.448.596.768.78.328.184.692.276 1.091.276zm7.817 1.008c-.68 0-1.28-.14-1.8-.42a3.08 3.08 0 01-1.2-1.152c-.28-.488-.42-1.048-.42-1.68 0-.632.136-1.192.408-1.68a3 3 0 011.14-1.14 3.244 3.244 0 011.644-.42c.616 0 1.16.136 1.632.408.472.272.84.656 1.104 1.152.272.488.408 1.06.408 1.716 0 .048-.004.104-.012.168 0 .064-.004.124-.012.18h-5.412v-.828h4.812l-.468.288a2.139 2.139 0 00-.252-1.092 1.872 1.872 0 00-.732-.744 2.022 2.022 0 00-1.068-.276c-.4 0-.756.092-1.068.276a1.852 1.852 0 00-.732.756c-.176.32-.264.688-.264 1.104v.192c0 .424.096.804.288 1.14.2.328.476.584.828.768.352.184.756.276 1.212.276.376 0 .716-.064 1.02-.192.312-.128.584-.32.816-.576l.636.744a2.777 2.777 0 01-1.08.768c-.424.176-.9.264-1.428.264zm7.475 0c-.648 0-1.228-.14-1.74-.42-.504-.28-.9-.664-1.188-1.152-.288-.488-.432-1.048-.432-1.68 0-.632.144-1.192.432-1.68A3.016 3.016 0 0144.84 17c.512-.28 1.092-.42 1.74-.42.576 0 1.088.116 1.536.348.456.224.808.56 1.056 1.008l-.876.564a1.896 1.896 0 00-.768-.684 2.071 2.071 0 00-.96-.228c-.416 0-.788.092-1.116.276a2.03 2.03 0 00-.78.78c-.192.328-.288.72-.288 1.176 0 .456.096.852.288 1.188.192.336.452.596.78.78.328.184.7.276 1.116.276.344 0 .664-.072.96-.216a1.99 1.99 0 00.768-.696l.876.552c-.248.44-.6.78-1.056 1.02-.448.232-.96.348-1.536.348zM51.841 23v-5.652l.288.3h-2.616V16.64h5.808v1.008h-2.604l.276-.3V23H51.84zm7.1.072c-.64 0-1.207-.14-1.703-.42a3.126 3.126 0 01-1.176-1.152 3.284 3.284 0 01-.432-1.68c0-.632.144-1.192.432-1.68.288-.488.68-.868 1.176-1.14.496-.28 1.064-.42 1.704-.42.632 0 1.196.14 1.692.42.504.272.896.652 1.176 1.14.288.48.432 1.04.432 1.68 0 .632-.144 1.192-.432 1.68-.28.488-.672.872-1.176 1.152-.496.28-1.06.42-1.692.42zm0-1.008a2.15 2.15 0 001.093-.276c.328-.184.584-.444.768-.78a2.48 2.48 0 00.276-1.188c0-.456-.092-.848-.276-1.176a1.948 1.948 0 00-.768-.78 2.15 2.15 0 00-1.092-.276 2.15 2.15 0 00-1.092.276c-.32.184-.576.444-.768.78-.192.328-.288.72-.288 1.176 0 .448.096.844.288 1.188.192.336.448.596.768.78.32.184.684.276 1.092.276zm8.336 1.008c-.528 0-1.012-.12-1.452-.36a2.751 2.751 0 01-1.044-1.092c-.256-.48-.384-1.08-.384-1.8s.124-1.32.372-1.8c.256-.48.6-.84 1.032-1.08.44-.24.932-.36 1.476-.36.624 0 1.176.136 1.656.408a3 3 0 011.14 1.14c.28.48.42 1.044.42 1.692 0 .648-.14 1.216-.42 1.704a3 3 0 01-1.14 1.14c-.48.272-1.032.408-1.656.408zm-3.372 2.256V16.64h1.104v1.716l-.072 1.476.12 1.476v4.02h-1.152zm3.276-3.264a2.15 2.15 0 001.092-.276c.328-.184.584-.444.768-.78.192-.344.288-.74.288-1.188 0-.456-.096-.848-.288-1.176a1.948 1.948 0 00-.768-.78 2.15 2.15 0 00-1.092-.276c-.4 0-.764.092-1.092.276-.32.184-.576.444-.768.78-.184.328-.276.72-.276 1.176 0 .448.092.844.276 1.188.192.336.448.596.768.78.328.184.692.276 1.092.276zm8.827.936v-1.344l-.06-.252v-2.292c0-.488-.144-.864-.432-1.128-.28-.272-.704-.408-1.272-.408-.376 0-.744.064-1.104.192a2.76 2.76 0 00-.912.492l-.48-.864c.328-.264.72-.464 1.176-.6a4.87 4.87 0 011.452-.216c.872 0 1.544.212 2.016.636.472.424.708 1.072.708 1.944V23h-1.092zm-2.088.072c-.472 0-.888-.08-1.248-.24a1.927 1.927 0 01-.816-.66 1.713 1.713 0 01-.288-.972c0-.344.08-.656.24-.936.168-.28.436-.504.804-.672.376-.168.88-.252 1.512-.252h2.016v.828h-1.968c-.576 0-.964.096-1.164.288a.93.93 0 00-.3.696.91.91 0 00.372.756c.248.184.592.276 1.032.276.432 0 .808-.096 1.128-.288a1.63 1.63 0 00.708-.84l.228.792a1.82 1.82 0 01-.804.9c-.384.216-.868.324-1.452.324zM79.175 23v-6.36h1.152v2.7h3.624v-2.7h1.152V23H83.95v-2.664h-3.624V23h-1.152zm10.892.072c-.64 0-1.208-.14-1.704-.42a3.126 3.126 0 01-1.176-1.152 3.284 3.284 0 01-.432-1.68c0-.632.144-1.192.432-1.68.288-.488.68-.868 1.176-1.14.496-.28 1.064-.42 1.704-.42.632 0 1.196.14 1.692.42.504.272.896.652 1.176 1.14.288.48.432 1.04.432 1.68 0 .632-.144 1.192-.432 1.68-.28.488-.672.872-1.176 1.152-.496.28-1.06.42-1.692.42zm0-1.008a2.15 2.15 0 001.092-.276c.328-.184.584-.444.768-.78a2.48 2.48 0 00.276-1.188c0-.456-.092-.848-.276-1.176a1.948 1.948 0 00-.768-.78 2.15 2.15 0 00-1.092-.276 2.15 2.15 0 00-1.092.276c-.32.184-.576.444-.768.78-.192.328-.288.72-.288 1.176 0 .448.096.844.288 1.188.192.336.448.596.768.78.32.184.684.276 1.092.276zM95.03 23v-6.36h2.952c.744 0 1.328.144 1.752.432.432.28.648.68.648 1.2 0 .52-.204.924-.612 1.212-.4.28-.932.42-1.596.42l.18-.312c.76 0 1.324.14 1.692.42.368.28.552.692.552 1.236 0 .552-.208.984-.624 1.296-.408.304-1.036.456-1.884.456h-3.06zm1.128-.888h1.848c.48 0 .84-.072 1.08-.216.24-.152.36-.392.36-.72 0-.336-.112-.58-.336-.732-.216-.16-.56-.24-1.032-.24h-1.92v1.908zm0-2.736h1.728c.44 0 .772-.08.996-.24a.812.812 0 00.348-.696c0-.304-.116-.532-.348-.684-.224-.152-.556-.228-.996-.228h-1.728v1.848zm5.763 5.4l.6-2.424.156.696a.847.847 0 01-.588-.216c-.152-.144-.228-.34-.228-.588 0-.24.076-.436.228-.588a.807.807 0 01.576-.228c.232 0 .42.08.564.24a.804.804 0 01.216.576c0 .08-.008.16-.024.24-.008.072-.028.16-.06.264a3.127 3.127 0 01-.12.36l-.564 1.668h-.756zM108.343 23v-6.36h1.188l2.736 4.704h-.48l2.808-4.704h1.08V23h-1.044v-5.064l.192.108-2.568 4.236h-.504l-2.58-4.32.228-.048V23h-1.056zm13.474 0v-1.344l-.06-.252v-2.292c0-.488-.144-.864-.432-1.128-.28-.272-.704-.408-1.272-.408-.376 0-.744.064-1.104.192a2.76 2.76 0 00-.912.492l-.48-.864c.328-.264.72-.464 1.176-.6a4.87 4.87 0 011.452-.216c.872 0 1.544.212 2.016.636.472.424.708 1.072.708 1.944V23h-1.092zm-2.088.072c-.472 0-.888-.08-1.248-.24a1.927 1.927 0 01-.816-.66 1.713 1.713 0 01-.288-.972c0-.344.08-.656.24-.936.168-.28.436-.504.804-.672.376-.168.88-.252 1.512-.252h2.016v.828h-1.968c-.576 0-.964.096-1.164.288a.93.93 0 00-.3.696.91.91 0 00.372.756c.248.184.592.276 1.032.276.432 0 .808-.096 1.128-.288a1.63 1.63 0 00.708-.84l.228.792a1.82 1.82 0 01-.804.9c-.384.216-.868.324-1.452.324zm8.626 0c-.528 0-1.012-.12-1.452-.36a2.751 2.751 0 01-1.044-1.092c-.256-.48-.384-1.08-.384-1.8s.124-1.32.372-1.8c.256-.48.6-.84 1.032-1.08.44-.24.932-.36 1.476-.36.624 0 1.176.136 1.656.408a3 3 0 011.14 1.14c.28.48.42 1.044.42 1.692 0 .648-.14 1.216-.42 1.704a3 3 0 01-1.14 1.14c-.48.272-1.032.408-1.656.408zm-3.372 2.256V16.64h1.104v1.716l-.072 1.476.12 1.476v4.02h-1.152zm3.276-3.264a2.15 2.15 0 001.092-.276c.328-.184.584-.444.768-.78.192-.344.288-.74.288-1.188 0-.456-.096-.848-.288-1.176a1.948 1.948 0 00-.768-.78 2.15 2.15 0 00-1.092-.276c-.4 0-.764.092-1.092.276-.32.184-.576.444-.768.78-.184.328-.276.72-.276 1.176 0 .448.092.844.276 1.188.192.336.448.596.768.78.328.184.692.276 1.092.276zm9.594.936l-2.46-3.096.948-.576L139.209 23h-1.356zm-4.608 0v-6.36h1.152V23h-1.152zm.804-2.688v-.984h2.1v.984h-2.1zm2.388-.36l-1.068-.144 2.436-3.168h1.236l-2.604 3.312zm6.601 3.12c-.68 0-1.28-.14-1.8-.42a3.08 3.08 0 01-1.2-1.152c-.28-.488-.42-1.048-.42-1.68 0-.632.136-1.192.408-1.68a3 3 0 011.14-1.14 3.244 3.244 0 011.644-.42c.616 0 1.16.136 1.632.408.472.272.84.656 1.104 1.152.272.488.408 1.06.408 1.716 0 .048-.004.104-.012.168 0 .064-.004.124-.012.18h-5.412v-.828h4.812l-.468.288a2.139 2.139 0 00-.252-1.092 1.872 1.872 0 00-.732-.744 2.022 2.022 0 00-1.068-.276c-.4 0-.756.092-1.068.276a1.852 1.852 0 00-.732.756c-.176.32-.264.688-.264 1.104v.192c0 .424.096.804.288 1.14.2.328.476.584.828.768.352.184.756.276 1.212.276.376 0 .716-.064 1.02-.192.312-.128.584-.32.816-.576l.636.744a2.777 2.777 0 01-1.08.768c-.424.176-.9.264-1.428.264zm5.693-.072v-5.652l.288.3h-2.616V16.64h5.808v1.008h-2.604l.276-.3V23h-1.152zm7.101.072c-.64 0-1.208-.14-1.704-.42a3.126 3.126 0 01-1.176-1.152 3.284 3.284 0 01-.432-1.68c0-.632.144-1.192.432-1.68.288-.488.68-.868 1.176-1.14.496-.28 1.064-.42 1.704-.42.632 0 1.196.14 1.692.42.504.272.896.652 1.176 1.14.288.48.432 1.04.432 1.68 0 .632-.144 1.192-.432 1.68-.28.488-.672.872-1.176 1.152-.496.28-1.06.42-1.692.42zm0-1.008a2.15 2.15 0 001.092-.276c.328-.184.584-.444.768-.78a2.48 2.48 0 00.276-1.188c0-.456-.092-.848-.276-1.176a1.948 1.948 0 00-.768-.78 2.15 2.15 0 00-1.092-.276 2.15 2.15 0 00-1.092.276c-.32.184-.576.444-.768.78-.192.328-.288.72-.288 1.176 0 .448.096.844.288 1.188.192.336.448.596.768.78.32.184.684.276 1.092.276zm4.964.936v-6.36h2.952c.744 0 1.328.144 1.752.432.432.28.648.68.648 1.2 0 .52-.204.924-.612 1.212-.4.28-.932.42-1.596.42l.18-.312c.76 0 1.324.14 1.692.42.368.28.552.692.552 1.236 0 .552-.208.984-.624 1.296-.408.304-1.036.456-1.884.456h-3.06zm1.128-.888h1.848c.48 0 .84-.072 1.08-.216.24-.152.36-.392.36-.72 0-.336-.112-.58-.336-.732-.216-.16-.56-.24-1.032-.24h-1.92v1.908zm0-2.736h1.728c.44 0 .772-.08.996-.24a.812.812 0 00.348-.696c0-.304-.116-.532-.348-.684-.224-.152-.556-.228-.996-.228h-1.728v1.848zm5.763 5.4l.6-2.424.156.696a.847.847 0 01-.588-.216c-.152-.144-.228-.34-.228-.588 0-.24.076-.436.228-.588a.807.807 0 01.576-.228c.232 0 .42.08.564.24a.804.804 0 01.216.576c0 .08-.008.16-.024.24-.008.072-.028.16-.06.264a3.127 3.127 0 01-.12.36l-.564 1.668h-.756zm9.145-1.704c-.64 0-1.208-.14-1.704-.42a3.126 3.126 0 01-1.176-1.152 3.284 3.284 0 01-.432-1.68c0-.632.144-1.192.432-1.68.288-.488.68-.868 1.176-1.14.496-.28 1.064-.42 1.704-.42.632 0 1.196.14 1.692.42.504.272.896.652 1.176 1.14.288.48.432 1.04.432 1.68 0 .632-.144 1.192-.432 1.68-.28.488-.672.872-1.176 1.152-.496.28-1.06.42-1.692.42zm0-1.008a2.15 2.15 0 001.092-.276c.328-.184.584-.444.768-.78a2.48 2.48 0 00.276-1.188c0-.456-.092-.848-.276-1.176a1.948 1.948 0 00-.768-.78 2.15 2.15 0 00-1.092-.276 2.15 2.15 0 00-1.092.276c-.32.184-.576.444-.768.78-.192.328-.288.72-.288 1.176 0 .448.096.844.288 1.188.192.336.448.596.768.78.32.184.684.276 1.092.276zm4.964.936v-6.36h5.892V23h-1.152v-5.64l.276.288h-4.14l.276-.288V23h-1.152zm9.381 0v-5.652l.288.3h-2.616V16.64h5.808v1.008h-2.604l.276-.3V23h-1.152zm7.101.072c-.64 0-1.208-.14-1.704-.42a3.126 3.126 0 01-1.176-1.152 3.284 3.284 0 01-.432-1.68c0-.632.144-1.192.432-1.68.288-.488.68-.868 1.176-1.14.496-.28 1.064-.42 1.704-.42.632 0 1.196.14 1.692.42.504.272.896.652 1.176 1.14.288.48.432 1.04.432 1.68 0 .632-.144 1.192-.432 1.68-.28.488-.672.872-1.176 1.152-.496.28-1.06.42-1.692.42zm0-1.008a2.15 2.15 0 001.092-.276c.328-.184.584-.444.768-.78a2.48 2.48 0 00.276-1.188c0-.456-.092-.848-.276-1.176a1.948 1.948 0 00-.768-.78 2.15 2.15 0 00-1.092-.276 2.15 2.15 0 00-1.092.276c-.32.184-.576.444-.768.78-.192.328-.288.72-.288 1.176 0 .448.096.844.288 1.188.192.336.448.596.768.78.32.184.684.276 1.092.276zm4.963.936v-6.36h2.952c.744 0 1.328.144 1.752.432.432.28.648.68.648 1.2 0 .52-.204.924-.612 1.212-.4.28-.932.42-1.596.42l.18-.312c.76 0 1.324.14 1.692.42.368.28.552.692.552 1.236 0 .552-.208.984-.624 1.296-.408.304-1.036.456-1.884.456h-3.06zm1.128-.888h1.848c.48 0 .84-.072 1.08-.216.24-.152.36-.392.36-.72 0-.336-.112-.58-.336-.732-.216-.16-.56-.24-1.032-.24h-1.92v1.908zm0-2.736h1.728c.44 0 .772-.08.996-.24a.812.812 0 00.348-.696c0-.304-.116-.532-.348-.684-.224-.152-.556-.228-.996-.228h-1.728v1.848zM210.612 23v-6.36h1.152v4.632l3.9-4.632h1.044V23h-1.152v-4.632L211.668 23h-1.056zm12.94 0l-2.46-3.096.948-.576L224.908 23h-1.356zm-4.608 0v-6.36h1.152V23h-1.152zm.804-2.688v-.984h2.1v.984h-2.1zm2.388-.36l-1.068-.144 2.436-3.168h1.236l-2.604 3.312zm6.493 3.12c-.64 0-1.208-.14-1.704-.42a3.126 3.126 0 01-1.176-1.152 3.284 3.284 0 01-.432-1.68c0-.632.144-1.192.432-1.68.288-.488.68-.868 1.176-1.14.496-.28 1.064-.42 1.704-.42.632 0 1.196.14 1.692.42.504.272.896.652 1.176 1.14.288.48.432 1.04.432 1.68 0 .632-.144 1.192-.432 1.68-.28.488-.672.872-1.176 1.152-.496.28-1.06.42-1.692.42zm0-1.008a2.15 2.15 0 001.092-.276c.328-.184.584-.444.768-.78a2.48 2.48 0 00.276-1.188c0-.456-.092-.848-.276-1.176a1.948 1.948 0 00-.768-.78 2.15 2.15 0 00-1.092-.276 2.15 2.15 0 00-1.092.276c-.32.184-.576.444-.768.78-.192.328-.288.72-.288 1.176 0 .448.096.844.288 1.188.192.336.448.596.768.78.32.184.684.276 1.092.276zm4.964.936v-6.36h2.952c.744 0 1.328.144 1.752.432.432.28.648.68.648 1.2 0 .52-.204.924-.612 1.212-.4.28-.932.42-1.596.42l.18-.312c.76 0 1.324.14 1.692.42.368.28.552.692.552 1.236 0 .552-.208.984-.624 1.296-.408.304-1.036.456-1.884.456h-3.06zm1.128-.888h1.848c.48 0 .84-.072 1.08-.216.24-.152.36-.392.36-.72 0-.336-.112-.58-.336-.732-.216-.16-.56-.24-1.032-.24h-1.92v1.908zm0-2.736h1.728c.44 0 .772-.08.996-.24a.812.812 0 00.348-.696c0-.304-.116-.532-.348-.684-.224-.152-.556-.228-.996-.228h-1.728v1.848z" fill="#fff"/></svg>8 90.0666 17.588C89.6586 17.588 89.2946 17.68 88.9746 17.864C88.6546 18.048 88.3986 18.308 88.2066 18.644C88.0146 18.972 87.9186 19.364 87.9186 19.82C87.9186 20.268 88.0146 20.664 88.2066 21.008C88.3986 21.344 88.6546 21.604 88.9746 21.788C89.2946 21.972 89.6586 22.064 90.0666 22.064ZM95.0301 23V16.64H97.9821C98.7261 16.64 99.3101 16.784 99.7341 17.072C100.166 17.352 100.382 17.752 100.382 18.272C100.382 18.792 100.178 19.196 99.7701 19.484C99.3701 19.764 98.8381 19.904 98.1741 19.904L98.3541 19.592C99.1141 19.592 99.6781 19.732 100.046 20.012C100.414 20.292 100.598 20.704 100.598 21.248C100.598 21.8 100.39 22.232 99.9741 22.544C99.5661 22.848 98.9381 23 98.0901 23H95.0301ZM96.1581 22.112H98.0061C98.4861 22.112 98.8461 22.04 99.0861 21.896C99.3261 21.744 99.4461 21.504 99.4461 21.176C99.4461 20.84 99.3341 20.596 99.1101 20.444C98.8941 20.284 98.5501 20.204 98.0781 20.204H96.1581V22.112ZM96.1581 19.376H97.8861C98.3261 19.376 98.6581 19.296 98.8821 19.136C99.1141 18.968 99.2301 18.736 99.2301 18.44C99.2301 18.136 99.1141 17.908 98.8821 17.756C98.6581 17.604 98.3261 17.528 97.8861 17.528H96.1581V19.376ZM101.921 24.776L102.521 22.352L102.677 23.048C102.445 23.048 102.249 22.976 102.089 22.832C101.937 22.688 101.861 22.492 101.861 22.244C101.861 22.004 101.937 21.808 102.089 21.656C102.249 21.504 102.441 21.428 102.665 21.428C102.897 21.428 103.085 21.508 103.229 21.668C103.373 21.82 103.445 22.012 103.445 22.244C103.445 22.324 103.437 22.404 103.421 22.484C103.413 22.556 103.393 22.644 103.361 22.748C103.337 22.844 103.297 22.964 103.241 23.108L102.677 24.776H101.921ZM108.343 23V16.64H109.531L112.267 21.344H111.787L114.595 16.64H115.675V23H114.631V17.936L114.823 18.044L112.255 22.28H111.751L109.171 17.96L109.399 17.912V23H108.343ZM121.817 23V21.656L121.757 21.404V19.112C121.757 18.624 121.613 18.248 121.325 17.984C121.045 17.712 120.621 17.576 120.053 17.576C119.677 17.576 119.309 17.64 118.949 17.768C118.589 17.888 118.285 18.052 118.037 18.26L117.557 17.396C117.885 17.132 118.277 16.932 118.733 16.796C119.197 16.652 119.681 16.58 120.185 16.58C121.057 16.58 121.729 16.792 122.201 17.216C122.673 17.64 122.909 18.288 122.909 19.16V23H121.817ZM119.729 23.072C119.257 23.072 118.841 22.992 118.481 22.832C118.129 22.672 117.857 22.452 117.665 22.172C117.473 21.884 117.377 21.56 117.377 21.2C117.377 20.856 117.457 20.544 117.617 20.264C117.785 19.984 118.053 19.76 118.421 19.592C118.797 19.424 119.301 19.34 119.933 19.34H121.949V20.168H119.981C119.405 20.168 119.017 20.264 118.817 20.456C118.617 20.648 118.517 20.88 118.517 21.152C118.517 21.464 118.641 21.716 118.889 21.908C119.137 22.092 119.481 22.184 119.921 22.184C120.353 22.184 120.729 22.088 121.049 21.896C121.377 21.704 121.613 21.424 121.757 21.056L121.985 21.848C121.833 22.224 121.565 22.524 121.181 22.748C120.797 22.964 120.313 23.072 119.729 23.072ZM128.355 23.072C127.827 23.072 127.343 22.952 126.903 22.712C126.471 22.464 126.123 22.1 125.859 21.62C125.603 21.14 125.475 20.54 125.475 19.82C125.475 19.1 125.599 18.5 125.847 18.02C126.103 17.54 126.447 17.18 126.879 16.94C127.319 16.7 127.811 16.58 128.355 16.58C128.979 16.58 129.531 16.716 130.011 16.988C130.491 17.26 130.871 17.64 131.151 18.128C131.431 18.608 131.571 19.172 131.571 19.82C131.571 20.468 131.431 21.036 131.151 21.524C130.871 22.012 130.491 22.392 130.011 22.664C129.531 22.936 128.979 23.072 128.355 23.072ZM124.983 25.328V16.64H126.087V18.356L126.015 19.832L126.135 21.308V25.328H124.983ZM128.259 22.064C128.667 22.064 129.031 21.972 129.351 21.788C129.679 21.604 129.935 21.344 130.119 21.008C130.311 20.664 130.407 20.268 130.407 19.82C130.407 19.364 130.311 18.972 130.119 18.644C129.935 18.308 129.679 18.048 129.351 17.864C129.031 17.68 128.667 17.588 128.259 17.588C127.859 17.588 127.495 17.68 127.167 17.864C126.847 18.048 126.591 18.308 126.399 18.644C126.215 18.972 126.123 19.364 126.123 19.82C126.123 20.268 126.215 20.664 126.399 21.008C126.591 21.344 126.847 21.604 127.167 21.788C127.495 21.972 127.859 22.064 128.259 22.064ZM137.853 23L135.393 19.904L136.341 19.328L139.209 23H137.853ZM133.245 23V16.64H134.397V23H133.245ZM134.049 20.312V19.328H136.149V20.312H134.049ZM136.437 19.952L135.369 19.808L137.805 16.64H139.041L136.437 19.952ZM143.038 23.072C142.358 23.072 141.758 22.932 141.238 22.652C140.726 22.372 140.326 21.988 140.038 21.5C139.758 21.012 139.618 20.452 139.618 19.82C139.618 19.188 139.754 18.628 140.026 18.14C140.306 17.652 140.686 17.272 141.166 17C141.654 16.72 142.202 16.58 142.81 16.58C143.426 16.58 143.97 16.716 144.442 16.988C144.914 17.26 145.282 17.644 145.546 18.14C145.818 18.628 145.954 19.2 145.954 19.856C145.954 19.904 145.95 19.96 145.942 20.024C145.942 20.088 145.938 20.148 145.93 20.204H140.518V19.376H145.33L144.862 19.664C144.87 19.256 144.786 18.892 144.61 18.572C144.434 18.252 144.19 18.004 143.878 17.828C143.574 17.644 143.218 17.552 142.81 17.552C142.41 17.552 142.054 17.644 141.742 17.828C141.43 18.004 141.186 18.256 141.01 18.584C140.834 18.904 140.746 19.272 140.746 19.688V19.88C140.746 20.304 140.842 20.684 141.034 21.02C141.234 21.348 141.51 21.604 141.862 21.788C142.214 21.972 142.618 22.064 143.074 22.064C143.45 22.064 143.79 22 144.094 21.872C144.406 21.744 144.678 21.552 144.91 21.296L145.546 22.04C145.258 22.376 144.898 22.632 144.466 22.808C144.042 22.984 143.566 23.072 143.038 23.072ZM148.731 23V17.348L149.019 17.648H146.403V16.64H152.211V17.648H149.607L149.883 17.348V23H148.731ZM155.832 23.072C155.192 23.072 154.624 22.932 154.128 22.652C153.632 22.372 153.24 21.988 152.952 21.5C152.664 21.004 152.52 20.444 152.52 19.82C152.52 19.188 152.664 18.628 152.952 18.14C153.24 17.652 153.632 17.272 154.128 17C154.624 16.72 155.192 16.58 155.832 16.58C156.464 16.58 157.028 16.72 157.524 17C158.028 17.272 158.42 17.652 158.7 18.14C158.988 18.62 159.132 19.18 159.132 19.82C159.132 20.452 158.988 21.012 158.7 21.5C158.42 21.988 158.028 22.372 157.524 22.652C157.028 22.932 156.464 23.072 155.832 23.072ZM155.832 22.064C156.24 22.064 156.604 21.972 156.924 21.788C157.252 21.604 157.508 21.344 157.692 21.008C157.876 20.664 157.968 20.268 157.968 19.82C157.968 19.364 157.876 18.972 157.692 18.644C157.508 18.308 157.252 18.048 156.924 17.864C156.604 17.68 156.24 17.588 155.832 17.588C155.424 17.588 155.06 17.68 154.74 17.864C154.42 18.048 154.164 18.308 153.972 18.644C153.78 18.972 153.684 19.364 153.684 19.82C153.684 20.268 153.78 20.664 153.972 21.008C154.164 21.344 154.42 21.604 154.74 21.788C155.06 21.972 155.424 22.064 155.832 22.064ZM160.796 23V16.64H163.748C164.492 16.64 165.076 16.784 165.5 17.072C165.932 17.352 166.148 17.752 166.148 18.272C166.148 18.792 165.944 19.196 165.536 19.484C165.136 19.764 164.604 19.904 163.94 19.904L164.12 19.592C164.88 19.592 165.444 19.732 165.812 20.012C166.18 20.292 166.364 20.704 166.364 21.248C166.364 21.8 166.156 22.232 165.74 22.544C165.332 22.848 164.704 23 163.856 23H160.796ZM161.924 22.112H163.772C164.252 22.112 164.612 22.04 164.852 21.896C165.092 21.744 165.212 21.504 165.212 21.176C165.212 20.84 165.1 20.596 164.876 20.444C164.66 20.284 164.316 20.204 163.844 20.204H161.924V22.112ZM161.924 19.376H163.652C164.092 19.376 164.424 19.296 164.648 19.136C164.88 18.968 164.996 18.736 164.996 18.44C164.996 18.136 164.88 17.908 164.648 17.756C164.424 17.604 164.092 17.528 163.652 17.528H161.924V19.376ZM167.687 24.776L168.287 22.352L168.443 23.048C168.211 23.048 168.015 22.976 167.855 22.832C167.703 22.688 167.627 22.492 167.627 22.244C167.627 22.004 167.703 21.808 167.855 21.656C168.015 21.504 168.207 21.428 168.431 21.428C168.663 21.428 168.851 21.508 168.995 21.668C169.139 21.82 169.211 22.012 169.211 22.244C169.211 22.324 169.203 22.404 169.187 22.484C169.179 22.556 169.159 22.644 169.127 22.748C169.103 22.844 169.063 22.964 169.007 23.108L168.443 24.776H167.687ZM176.832 23.072C176.192 23.072 175.624 22.932 175.128 22.652C174.632 22.372 174.24 21.988 173.952 21.5C173.664 21.004 173.52 20.444 173.52 19.82C173.52 19.188 173.664 18.628 173.952 18.14C174.24 17.652 174.632 17.272 175.128 17C175.624 16.72 176.192 16.58 176.832 16.58C177.464 16.58 178.028 16.72 178.524 17C179.028 17.272 179.42 17.652 179.7 18.14C179.988 18.62 180.132 19.18 180.132 19.82C180.132 20.452 179.988 21.012 179.7 21.5C179.42 21.988 179.028 22.372 178.524 22.652C178.028 22.932 177.464 23.072 176.832 23.072ZM176.832 22.064C177.24 22.064 177.604 21.972 177.924 21.788C178.252 21.604 178.508 21.344 178.692 21.008C178.876 20.664 178.968 20.268 178.968 19.82C178.968 19.364 178.876 18.972 178.692 18.644C178.508 18.308 178.252 18.048 177.924 17.864C177.604 17.68 177.24 17.588 176.832 17.588C176.424 17.588 176.06 17.68 175.74 17.864C175.42 18.048 175.164 18.308 174.972 18.644C174.78 18.972 174.684 19.364 174.684 19.82C174.684 20.268 174.78 20.664 174.972 21.008C175.164 21.344 175.42 21.604 175.74 21.788C176.06 21.972 176.424 22.064 176.832 22.064ZM181.796 23V16.64H187.688V23H186.536V17.36L186.812 17.648H182.672L182.948 17.36V23H181.796ZM191.177 23V17.348L191.465 17.648H188.849V16.64H194.657V17.648H192.053L192.329 17.348V23H191.177ZM198.278 23.072C197.638 23.072 197.07 22.932 196.574 22.652C196.078 22.372 195.686 21.988 195.398 21.5C195.11 21.004 194.966 20.444 194.966 19.82C194.966 19.188 195.11 18.628 195.398 18.14C195.686 17.652 196.078 17.272 196.574 17C197.07 16.72 197.638 16.58 198.278 16.58C198.91 16.58 199.474 16.72 199.97 17C200.474 17.272 200.866 17.652 201.146 18.14C201.434 18.62 201.578 19.18 201.578 19.82C201.578 20.452 201.434 21.012 201.146 21.5C200.866 21.988 200.474 22.372 199.97 22.652C199.474 22.932 198.91 23.072 198.278 23.072ZM198.278 22.064C198.686 22.064 199.05 21.972 199.37 21.788C199.698 21.604 199.954 21.344 200.138 21.008C200.322 20.664 200.414 20.268 200.414 19.82C200.414 19.364 200.322 18.972 200.138 18.644C199.954 18.308 199.698 18.048 199.37 17.864C199.05 17.68 198.686 17.588 198.278 17.588C197.87 17.588 197.506 17.68 197.186 17.864C196.866 18.048 196.61 18.308 196.418 18.644C196.226 18.972 196.13 19.364 196.13 19.82C196.13 20.268 196.226 20.664 196.418 21.008C196.61 21.344 196.866 21.604 197.186 21.788C197.506 21.972 197.87 22.064 198.278 22.064ZM203.241 23V16.64H206.193C206.937 16.64 207.521 16.784 207.945 17.072C208.377 17.352 208.593 17.752 208.593 18.272C208.593 18.792 208.389 19.196 207.981 19.484C207.581 19.764 207.049 19.904 206.385 19.904L206.565 19.592C207.325 19.592 207.889 19.732 208.257 20.012C208.625 20.292 208.809 20.704 208.809 21.248C208.809 21.8 208.601 22.232 208.185 22.544C207.777 22.848 207.149 23 206.301 23H203.241ZM204.369 22.112H206.217C206.697 22.112 207.057 22.04 207.297 21.896C207.537 21.744 207.657 21.504 207.657 21.176C207.657 20.84 207.545 20.596 207.321 20.444C207.105 20.284 206.761 20.204 206.289 20.204H204.369V22.112ZM204.369 19.376H206.097C206.537 19.376 206.869 19.296 207.093 19.136C207.325 18.968 207.441 18.736 207.441 18.44C207.441 18.136 207.325 17.908 207.093 17.756C206.869 17.604 206.537 17.528 206.097 17.528H204.369V19.376ZM210.612 23V16.64H211.764V21.272L215.664 16.64H216.708V23H215.556V18.368L211.668 23H210.612ZM223.552 23L221.092 19.904L222.04 19.328L224.908 23H223.552ZM218.944 23V16.64H220.096V23H218.944ZM219.748 20.312V19.328H221.848V20.312H219.748ZM222.136 19.952L221.068 19.808L223.504 16.64H224.74L222.136 19.952ZM228.629 23.072C227.989 23.072 227.421 22.932 226.925 22.652C226.429 22.372 226.037 21.988 225.749 21.5C225.461 21.004 225.317 20.444 225.317 19.82C225.317 19.188 225.461 18.628 225.749 18.14C226.037 17.652 226.429 17.272 226.925 17C227.421 16.72 227.989 16.58 228.629 16.58C229.261 16.58 229.825 16.72 230.321 17C230.825 17.272 231.217 17.652 231.497 18.14C231.785 18.62 231.929 19.18 231.929 19.82C231.929 20.452 231.785 21.012 231.497 21.5C231.217 21.988 230.825 22.372 230.321 22.652C229.825 22.932 229.261 23.072 228.629 23.072ZM228.629 22.064C229.037 22.064 229.401 21.972 229.721 21.788C230.049 21.604 230.305 21.344 230.489 21.008C230.673 20.664 230.765 20.268 230.765 19.82C230.765 19.364 230.673 18.972 230.489 18.644C230.305 18.308 230.049 18.048 229.721 17.864C229.401 17.68 229.037 17.588 228.629 17.588C228.221 17.588 227.857 17.68 227.537 17.864C227.217 18.048 226.961 18.308 226.769 18.644C226.577 18.972 226.481 19.364 226.481 19.82C226.481 20.268 226.577 20.664 226.769 21.008C226.961 21.344 227.217 21.604 227.537 21.788C227.857 21.972 228.221 22.064 228.629 22.064ZM233.593 23V16.64H236.545C237.289 16.64 237.873 16.784 238.297 17.072C238.729 17.352 238.945 17.752 238.945 18.272C238.945 18.792 238.741 19.196 238.333 19.484C237.933 19.764 237.401 19.904 236.737 19.904L236.917 19.592C237.677 19.592 238.241 19.732 238.609 20.012C238.977 20.292 239.161 20.704 239.161 21.248C239.161 21.8 238.953 22.232 238.537 22.544C238.129 22.848 237.501 23 236.653 23H233.593ZM234.721 22.112H236.569C237.049 22.112 237.409 22.04 237.649 21.896C237.889 21.744 238.009 21.504 238.009 21.176C238.009 20.84 237.897 20.596 237.673 20.444C237.457 20.284 237.113 20.204 236.641 20.204H234.721V22.112ZM234.721 19.376H236.449C236.889 19.376 237.221 19.296 237.445 19.136C237.677 18.968 237.793 18.736 237.793 18.44C237.793 18.136 237.677 17.908 237.445 17.756C237.221 17.604 236.889 17.528 236.449 17.528H234.721V19.376Z" fill="white"/>
</svg>
