<svg width="240" height="26" fill="none" xmlns="http://www.w3.org/2000/svg"><path d="M1.976 9V.6h7.236V9H8.036V1.332l.288.312h-5.46l.3-.312V9H1.976zm12.387.072c-.64 0-1.208-.14-1.704-.42A3.126 3.126 0 0111.483 7.5a3.284 3.284 0 01-.432-1.68c0-.632.144-1.192.432-1.68.288-.488.68-.868 1.176-1.14.496-.28 1.064-.42 1.704-.42.632 0 1.196.14 1.692.42.504.272.896.652 1.176 1.14.288.48.432 1.04.432 1.68 0 .632-.144 1.192-.432 1.68-.28.488-.672.872-1.176 1.152-.496.28-1.06.42-1.692.42zm0-1.008a2.15 2.15 0 001.092-.276c.328-.184.584-.444.768-.78A2.48 2.48 0 0016.5 5.82c0-.456-.092-.848-.276-1.176a1.948 1.948 0 00-.768-.78 2.15 2.15 0 00-1.092-.276 2.15 2.15 0 00-1.092.276c-.32.184-.576.444-.768.78-.192.328-.288.72-.288 1.176 0 .448.096.844.288 1.188.192.336.448.596.768.78.32.184.684.276 1.092.276zM22.1 9.072c-.648 0-1.228-.14-1.74-.42-.504-.28-.9-.664-1.188-1.152-.288-.488-.432-1.048-.432-1.68 0-.632.144-1.192.432-1.68A3.016 3.016 0 0120.359 3c.512-.28 1.092-.42 1.74-.42.576 0 1.088.116 1.536.348.456.224.808.56 1.056 1.008l-.876.564a1.896 1.896 0 00-.768-.684 2.071 2.071 0 00-.96-.228c-.416 0-.788.092-1.116.276a2.03 2.03 0 00-.78.78c-.192.328-.288.72-.288 1.176 0 .456.096.852.288 1.188.192.336.452.596.78.78.328.184.7.276 1.116.276.344 0 .664-.072.96-.216a1.99 1.99 0 00.768-.696l.876.552c-.248.44-.6.78-1.056 1.02-.448.232-.96.348-1.536.348zM27.36 9V3.348l.288.3h-2.616V2.64h5.808v1.008h-2.604l.276-.3V9H27.36zm8.558 0V7.656l-.06-.252V5.112c0-.488-.144-.864-.432-1.128-.28-.272-.704-.408-1.272-.408-.376 0-.744.064-1.104.192a2.76 2.76 0 00-.912.492l-.48-.864c.328-.264.72-.464 1.176-.6a4.87 4.87 0 011.452-.216c.872 0 1.544.212 2.016.636.472.424.708 1.072.708 1.944V9h-1.092zm-2.088.072c-.472 0-.888-.08-1.248-.24a1.927 1.927 0 01-.816-.66 1.713 1.713 0 01-.288-.972c0-.344.08-.656.24-.936.168-.28.436-.504.804-.672.376-.168.88-.252 1.512-.252h2.016v.828h-1.968c-.576 0-.964.096-1.164.288a.93.93 0 00-.3.696.91.91 0 00.372.756c.248.184.592.276 1.032.276.432 0 .808-.096 1.128-.288a1.63 1.63 0 00.708-.84l.228.792a1.82 1.82 0 01-.804.9c-.384.216-.868.324-1.452.324zM39.085 9V2.64h2.952c.744 0 1.328.144 1.752.432.432.28.648.68.648 1.2 0 .52-.204.924-.612 1.212-.4.28-.932.42-1.596.42l.18-.312c.76 0 1.324.14 1.692.42.368.28.552.692.552 1.236 0 .552-.208.984-.624 1.296-.408.304-1.036.456-1.884.456h-3.06zm1.128-.888h1.848c.48 0 .84-.072 1.08-.216.24-.152.36-.392.36-.72 0-.336-.112-.58-.336-.732-.216-.16-.56-.24-1.032-.24h-1.92v1.908zm0-2.736h1.728c.44 0 .772-.08.996-.24a.812.812 0 00.348-.696c0-.304-.116-.532-.348-.684-.224-.152-.556-.228-.996-.228h-1.728v1.848zM51.063 9l-2.46-3.096.949-.576L52.42 9h-1.356zm-4.607 0V2.64h1.152V9h-1.152zm.804-2.688v-.984h2.1v.984h-2.1zm2.388-.36l-1.068-.144 2.436-3.168h1.236l-2.604 3.312zM53.628 9V2.64h1.152v4.632l3.9-4.632h1.044V9h-1.152V4.368L54.684 9h-1.056zm11.554 0V2.64h5.892V9h-1.152V3.36l.276.288h-4.14l.276-.288V9h-1.152zm11.493.072c-.528 0-1.011-.12-1.451-.36A2.751 2.751 0 0174.18 7.62c-.257-.48-.385-1.08-.385-1.8s.124-1.32.373-1.8c.255-.48.6-.84 1.031-1.08.44-.24.933-.36 1.477-.36.623 0 1.175.136 1.656.408a3 3 0 011.14 1.14c.28.48.42 1.044.42 1.692 0 .648-.14 1.216-.42 1.704a3 3 0 01-1.14 1.14c-.48.272-1.032.408-1.656.408zm-3.371 2.256V2.64h1.103v1.716l-.072 1.476.12 1.476v4.02h-1.151zm3.275-3.264a2.15 2.15 0 001.093-.276 1.94 1.94 0 00.767-.78c.193-.344.289-.74.289-1.188 0-.456-.096-.848-.288-1.176a1.948 1.948 0 00-.769-.78 2.15 2.15 0 00-1.092-.276c-.4 0-.763.092-1.091.276-.32.184-.576.444-.769.78-.183.328-.275.72-.275 1.176 0 .448.091.844.275 1.188.193.336.449.596.769.78.328.184.692.276 1.091.276zm7.71 1.008c-.64 0-1.208-.14-1.704-.42A3.126 3.126 0 0181.41 7.5a3.284 3.284 0 01-.432-1.68c0-.632.144-1.192.432-1.68.288-.488.68-.868 1.176-1.14.496-.28 1.064-.42 1.704-.42.632 0 1.196.14 1.692.42.504.272.896.652 1.176 1.14.288.48.432 1.04.432 1.68 0 .632-.144 1.192-.432 1.68-.28.488-.672.872-1.176 1.152-.496.28-1.06.42-1.692.42zm0-1.008a2.15 2.15 0 001.092-.276c.328-.184.584-.444.768-.78a2.48 2.48 0 00.276-1.188c0-.456-.092-.848-.276-1.176a1.948 1.948 0 00-.768-.78 2.15 2.15 0 00-1.092-.276 2.15 2.15 0 00-1.092.276c-.32.184-.576.444-.768.78-.192.328-.288.72-.288 1.176 0 .448.096.844.288 1.188.192.336.448.596.768.78.32.184.684.276 1.092.276zm9.26.396V3.648h-2.76l-.06 1.224c-.015.4-.043.788-.083 1.164a6.312 6.312 0 01-.168 1.02c-.072.312-.18.568-.324.768a.905.905 0 01-.576.372l-1.14-.204a.736.736 0 00.6-.24c.152-.176.268-.416.348-.72.088-.304.152-.648.192-1.032.04-.392.072-.796.096-1.212l.096-2.148h4.932v5.82H93.55zm-5.363 2.016V7.992h7.488v2.484h-1.08V9h-5.316v1.476h-1.092zm9.313.924c-.304 0-.6-.052-.888-.156a2.025 2.025 0 01-.744-.432l.492-.864c.16.152.336.268.528.348.192.08.396.12.612.12.28 0 .512-.072.696-.216.184-.144.356-.4.516-.768l.396-.876.12-.144 2.496-5.772h1.128l-3.084 6.996c-.184.448-.392.8-.624 1.056a1.888 1.888 0 01-.744.54 2.342 2.342 0 01-.9.168zm1.512-2.196L96.107 2.64h1.2l2.472 5.664-.768.9zM108.638 9l-2.46-3.096.948-.576L109.994 9h-1.356zm-4.608 0V2.64h1.152V9h-1.152zm.804-2.688v-.984h2.1v.984h-2.1zm2.388-.36l-1.068-.144 2.436-3.168h1.236l-2.604 3.312zM112.356 9V3.348l.288.3h-2.616V2.64h5.808v1.008h-2.604l.276-.3V9h-1.152zm7.101.072c-.64 0-1.208-.14-1.704-.42a3.126 3.126 0 01-1.176-1.152 3.284 3.284 0 01-.432-1.68c0-.632.144-1.192.432-1.68.288-.488.68-.868 1.176-1.14.496-.28 1.064-.42 1.704-.42.632 0 1.196.14 1.692.42.504.272.896.652 1.176 1.14.288.48.432 1.04.432 1.68 0 .632-.144 1.192-.432 1.68-.28.488-.672.872-1.176 1.152-.496.28-1.06.42-1.692.42zm0-1.008a2.15 2.15 0 001.092-.276c.328-.184.584-.444.768-.78a2.48 2.48 0 00.276-1.188c0-.456-.092-.848-.276-1.176a1.948 1.948 0 00-.768-.78 2.15 2.15 0 00-1.092-.276 2.15 2.15 0 00-1.092.276c-.32.184-.576.444-.768.78-.192.328-.288.72-.288 1.176 0 .448.096.844.288 1.188.192.336.448.596.768.78.32.184.684.276 1.092.276zm4.964.936V2.64h2.952c.744 0 1.328.144 1.752.432.432.28.648.68.648 1.2 0 .52-.204.924-.612 1.212-.4.28-.932.42-1.596.42l.18-.312c.76 0 1.324.14 1.692.42.368.28.552.692.552 1.236 0 .552-.208.984-.624 1.296-.408.304-1.036.456-1.884.456h-3.06zm1.128-.888h1.848c.48 0 .84-.072 1.08-.216.24-.152.36-.392.36-.72 0-.336-.112-.58-.336-.732-.216-.16-.56-.24-1.032-.24h-1.92v1.908zm0-2.736h1.728c.44 0 .772-.08.996-.24a.812.812 0 00.348-.696c0-.304-.116-.532-.348-.684-.224-.152-.556-.228-.996-.228h-1.728v1.848zM135.014 9V2.64h5.892V9h-1.152V3.36l.276.288h-4.14l.276-.288V9h-1.152zm8.122 0V2.64h1.152v4.632l3.9-4.632h1.044V9h-1.152V4.368L144.192 9h-1.056zm9.592 0V3.348l.288.3H150.4V2.64h5.808v1.008h-2.604l.276-.3V9h-1.152zm8.558 0V7.656l-.06-.252V5.112c0-.488-.144-.864-.432-1.128-.28-.272-.704-.408-1.272-.408-.376 0-.744.064-1.104.192a2.76 2.76 0 00-.912.492l-.48-.864c.328-.264.72-.464 1.176-.6a4.87 4.87 0 011.452-.216c.872 0 1.544.212 2.016.636.472.424.708 1.072.708 1.944V9h-1.092zm-2.088.072c-.472 0-.888-.08-1.248-.24a1.927 1.927 0 01-.816-.66 1.713 1.713 0 01-.288-.972c0-.344.08-.656.24-.936.168-.28.436-.504.804-.672.376-.168.88-.252 1.512-.252h2.016v.828h-1.968c-.576 0-.964.096-1.164.288a.93.93 0 00-.3.696.91.91 0 00.372.756c.248.184.592.276 1.032.276.432 0 .808-.096 1.128-.288a1.63 1.63 0 00.708-.84l.228.792a1.82 1.82 0 01-.804.9c-.384.216-.868.324-1.452.324zM164.452 9V2.64h1.152v2.7h3.624v-2.7h1.152V9h-1.152V6.336h-3.624V9h-1.152zm8.168 0V2.64h1.152v4.632l3.9-4.632h1.044V9h-1.152V4.368L173.676 9h-1.056zm12.4 0V6.768l.18.216h-2.028c-.848 0-1.512-.18-1.992-.54-.472-.36-.708-.884-.708-1.572 0-.736.252-1.292.756-1.668.512-.376 1.192-.564 2.04-.564h2.784V9h-1.032zm-4.608 0l1.728-2.436h1.188L181.648 9h-1.236zm4.608-2.592V3.324l.18.324h-1.896c-.528 0-.936.1-1.224.3-.288.192-.432.512-.432.96 0 .832.536 1.248 1.608 1.248h1.944l-.18.252zm9.226 2.664c-.64 0-1.208-.14-1.704-.42a3.126 3.126 0 01-1.176-1.152 3.284 3.284 0 01-.432-1.68c0-.632.144-1.192.432-1.68.288-.488.68-.868 1.176-1.14.496-.28 1.064-.42 1.704-.42.632 0 1.196.14 1.692.42.504.272.896.652 1.176 1.14.288.48.432 1.04.432 1.68 0 .632-.144 1.192-.432 1.68-.28.488-.672.872-1.176 1.152-.496.28-1.06.42-1.692.42zm0-1.008a2.15 2.15 0 001.092-.276c.328-.184.584-.444.768-.78a2.48 2.48 0 00.276-1.188c0-.456-.092-.848-.276-1.176a1.948 1.948 0 00-.768-.78 2.15 2.15 0 00-1.092-.276 2.15 2.15 0 00-1.092.276c-.32.184-.576.444-.768.78-.192.328-.288.72-.288 1.176 0 .448.096.844.288 1.188.192.336.448.596.768.78.32.184.684.276 1.092.276zM199.21 9V2.64h5.892V9h-1.152V3.36l.276.288h-4.14l.276-.288V9h-1.152zm9.381 0V3.348l.288.3h-2.616V2.64h5.808v1.008h-2.604l.276-.3V9h-1.152zm7.101.072c-.64 0-1.208-.14-1.704-.42a3.126 3.126 0 01-1.176-1.152 3.284 3.284 0 01-.432-1.68c0-.632.144-1.192.432-1.68.288-.488.68-.868 1.176-1.14.496-.28 1.064-.42 1.704-.42.632 0 1.196.14 1.692.42.504.272.896.652 1.176 1.14.288.48.432 1.04.432 1.68 0 .632-.144 1.192-.432 1.68-.28.488-.672.872-1.176 1.152-.496.28-1.06.42-1.692.42zm0-1.008a2.15 2.15 0 001.092-.276c.328-.184.584-.444.768-.78a2.48 2.48 0 00.276-1.188c0-.456-.092-.848-.276-1.176a1.948 1.948 0 00-.768-.78 2.15 2.15 0 00-1.092-.276 2.15 2.15 0 00-1.092.276c-.32.184-.576.444-.768.78-.192.328-.288.72-.288 1.176 0 .448.096.844.288 1.188.192.336.448.596.768.78.32.184.684.276 1.092.276zm4.963.936V2.64h1.188l2.736 4.704h-.48l2.808-4.704h1.08V9h-1.044V3.936l.192.108-2.568 4.236h-.504l-2.58-4.32.228-.048V9h-1.056zM6.128 22.46v-4.812h-2.76l-.06 1.224c-.016.4-.044.788-.084 1.164a6.312 6.312 0 01-.168 1.02c-.072.312-.18.568-.324.768a.905.905 0 01-.576.372l-1.14-.204a.736.736 0 00.6-.24c.152-.176.268-.416.348-.72.088-.304.152-.648.192-1.032.04-.392.072-.796.096-1.212l.096-2.148H7.28v5.82H6.128zM.764 24.476v-2.484h7.488v2.484h-1.08V23H1.856v1.476H.764zm7.933-1.488l.072-.972.156.024a.808.808 0 00.132.012c.256 0 .456-.088.6-.264.152-.176.264-.408.336-.696.072-.296.124-.628.156-.996s.056-.736.072-1.104l.108-2.352h4.884V23H14.06v-5.688l.276.336h-3.264l.264-.348-.084 1.764c-.024.56-.068 1.084-.132 1.572a5.948 5.948 0 01-.3 1.284c-.128.368-.308.656-.54.864-.224.208-.516.312-.876.312a1.72 1.72 0 01-.336-.036 4.283 4.283 0 01-.372-.072zM21.508 23v-2.232l.18.216H19.66c-.848 0-1.512-.18-1.992-.54-.472-.36-.708-.884-.708-1.572 0-.736.252-1.292.756-1.668.512-.376 1.192-.564 2.04-.564h2.784V23h-1.032zM16.9 23l1.728-2.436h1.188L18.136 23H16.9zm4.608-2.592v-3.084l.18.324h-1.896c-.528 0-.936.1-1.224.3-.288.192-.432.512-.432.96 0 .832.536 1.248 1.608 1.248h1.944l-.18.252zm9.875 2.664a2.99 2.99 0 01-1.453-.36 2.751 2.751 0 01-1.043-1.092c-.256-.48-.384-1.08-.384-1.8s.123-1.32.372-1.8c.256-.48.6-.84 1.032-1.08.44-.24.931-.36 1.476-.36.624 0 1.176.136 1.655.408a3 3 0 011.14 1.14c.28.48.42 1.044.42 1.692 0 .648-.14 1.216-.42 1.704a3 3 0 01-1.14 1.14c-.48.272-1.031.408-1.655.408zm-3.372 2.256V16.64h1.104v1.716l-.072 1.476.12 1.476v4.02H28.01zm3.276-3.264a2.15 2.15 0 001.092-.276c.328-.184.584-.444.768-.78.192-.344.288-.74.288-1.188 0-.456-.096-.848-.288-1.176a1.948 1.948 0 00-.768-.78 2.15 2.15 0 00-1.092-.276c-.4 0-.764.092-1.092.276-.32.184-.576.444-.768.78-.184.328-.276.72-.276 1.176 0 .448.091.844.276 1.188.192.336.448.596.768.78.328.184.692.276 1.091.276zm7.817 1.008c-.68 0-1.28-.14-1.8-.42a3.08 3.08 0 01-1.2-1.152c-.28-.488-.42-1.048-.42-1.68 0-.632.136-1.192.408-1.68a3 3 0 011.14-1.14 3.244 3.244 0 011.644-.42c.616 0 1.16.136 1.632.408.472.272.84.656 1.104 1.152.272.488.408 1.06.408 1.716 0 .048-.004.104-.012.168 0 .064-.004.124-.012.18h-5.412v-.828h4.812l-.468.288a2.139 2.139 0 00-.252-1.092 1.872 1.872 0 00-.732-.744 2.022 2.022 0 00-1.068-.276c-.4 0-.756.092-1.068.276a1.852 1.852 0 00-.732.756c-.176.32-.264.688-.264 1.104v.192c0 .424.096.804.288 1.14.2.328.476.584.828.768.352.184.756.276 1.212.276.376 0 .716-.064 1.02-.192.312-.128.584-.32.816-.576l.636.744a2.777 2.777 0 01-1.08.768c-.424.176-.9.264-1.428.264zm7.475 0c-.648 0-1.228-.14-1.74-.42-.504-.28-.9-.664-1.188-1.152-.288-.488-.432-1.048-.432-1.68 0-.632.144-1.192.432-1.68A3.016 3.016 0 0144.84 17c.512-.28 1.092-.42 1.74-.42.576 0 1.088.116 1.536.348.456.224.808.56 1.056 1.008l-.876.564a1.896 1.896 0 00-.768-.684 2.071 2.071 0 00-.96-.228c-.416 0-.788.092-1.116.276a2.03 2.03 0 00-.78.78c-.192.328-.288.72-.288 1.176 0 .456.096.852.288 1.188.192.336.452.596.78.78.328.184.7.276 1.116.276.344 0 .664-.072.96-.216a1.99 1.99 0 00.768-.696l.876.552c-.248.44-.6.78-1.056 1.02-.448.232-.96.348-1.536.348zM51.841 23v-5.652l.288.3h-2.616V16.64h5.808v1.008h-2.604l.276-.3V23H51.84zm7.1.072c-.64 0-1.207-.14-1.703-.42a3.126 3.126 0 01-1.176-1.152 3.284 3.284 0 01-.432-1.68c0-.632.144-1.192.432-1.68.288-.488.68-.868 1.176-1.14.496-.28 1.064-.42 1.704-.42.632 0 1.196.14 1.692.42.504.272.896.652 1.176 1.14.288.48.432 1.04.432 1.68 0 .632-.144 1.192-.432 1.68-.28.488-.672.872-1.176 1.152-.496.28-1.06.42-1.692.42zm0-1.008a2.15 2.15 0 001.093-.276c.328-.184.584-.444.768-.78a2.48 2.48 0 00.276-1.188c0-.456-.092-.848-.276-1.176a1.948 1.948 0 00-.768-.78 2.15 2.15 0 00-1.092-.276 2.15 2.15 0 00-1.092.276c-.32.184-.576.444-.768.78-.192.328-.288.72-.288 1.176 0 .448.096.844.288 1.188.192.336.448.596.768.78.32.184.684.276 1.092.276zm8.336 1.008c-.528 0-1.012-.12-1.452-.36a2.751 2.751 0 01-1.044-1.092c-.256-.48-.384-1.08-.384-1.8s.124-1.32.372-1.8c.256-.48.6-.84 1.032-1.08.44-.24.932-.36 1.476-.36.624 0 1.176.136 1.656.408a3 3 0 011.14 1.14c.28.48.42 1.044.42 1.692 0 .648-.14 1.216-.42 1.704a3 3 0 01-1.14 1.14c-.48.272-1.032.408-1.656.408zm-3.372 2.256V16.64h1.104v1.716l-.072 1.476.12 1.476v4.02h-1.152zm3.276-3.264a2.15 2.15 0 001.092-.276c.328-.184.584-.444.768-.78.192-.344.288-.74.288-1.188 0-.456-.096-.848-.288-1.176a1.948 1.948 0 00-.768-.78 2.15 2.15 0 00-1.092-.276c-.4 0-.764.092-1.092.276-.32.184-.576.444-.768.78-.184.328-.276.72-.276 1.176 0 .448.092.844.276 1.188.192.336.448.596.768.78.328.184.692.276 1.092.276zm8.827.936v-1.344l-.06-.252v-2.292c0-.488-.144-.864-.432-1.128-.28-.272-.704-.408-1.272-.408-.376 0-.744.064-1.104.192a2.76 2.76 0 00-.912.492l-.48-.864c.328-.264.72-.464 1.176-.6a4.87 4.87 0 011.452-.216c.872 0 1.544.212 2.016.636.472.424.708 1.072.708 1.944V23h-1.092zm-2.088.072c-.472 0-.888-.08-1.248-.24a1.927 1.927 0 01-.816-.66 1.713 1.713 0 01-.288-.972c0-.344.08-.656.24-.936.168-.28.436-.504.804-.672.376-.168.88-.252 1.512-.252h2.016v.828h-1.968c-.576 0-.964.096-1.164.288a.93.93 0 00-.3.696.91.91 0 00.372.756c.248.184.592.276 1.032.276.432 0 .808-.096 1.128-.288a1.63 1.63 0 00.708-.84l.228.792a1.82 1.82 0 01-.804.9c-.384.216-.868.324-1.452.324zM79.175 23v-6.36h1.152v2.7h3.624v-2.7h1.152V23H83.95v-2.664h-3.624V23h-1.152zm10.892.072c-.64 0-1.208-.14-1.704-.42a3.126 3.126 0 01-1.176-1.152 3.284 3.284 0 01-.432-1.68c0-.632.144-1.192.432-1.68.288-.488.68-.868 1.176-1.14.496-.28 1.064-.42 1.704-.42.632 0 1.196.14 1.692.42.504.272.896.652 1.176 1.14.288.48.432 1.04.432 1.68 0 .632-.144 1.192-.432 1.68-.28.488-.672.872-1.176 1.152-.496.28-1.06.42-1.692.42zm0-1.008a2.15 2.15 0 001.092-.276c.328-.184.584-.444.768-.78a2.48 2.48 0 00.276-1.188c0-.456-.092-.848-.276-1.176a1.948 1.948 0 00-.768-.78 2.15 2.15 0 00-1.092-.276 2.15 2.15 0 00-1.092.276c-.32.184-.576.444-.768.78-.192.328-.288.72-.288 1.176 0 .448.096.844.288 1.188.192.336.448.596.768.78.32.184.684.276 1.092.276zM95.03 23v-6.36h2.952c.744 0 1.328.144 1.752.432.432.28.648.68.648 1.2 0 .52-.204.924-.612 1.212-.4.28-.932.42-1.596.42l.18-.312c.76 0 1.324.14 1.692.42.368.28.552.692.552 1.236 0 .552-.208.984-.624 1.296-.408.304-1.036.456-1.884.456h-3.06zm1.128-.888h1.848c.48 0 .84-.072 1.08-.216.24-.152.36-.392.36-.72 0-.336-.112-.58-.336-.732-.216-.16-.56-.24-1.032-.24h-1.92v1.908zm0-2.736h1.728c.44 0 .772-.08.996-.24a.812.812 0 00.348-.696c0-.304-.116-.532-.348-.684-.224-.152-.556-.228-.996-.228h-1.728v1.848zm5.763 5.4l.6-2.424.156.696a.847.847 0 01-.588-.216c-.152-.144-.228-.34-.228-.588 0-.24.076-.436.228-.588a.807.807 0 01.576-.228c.232 0 .42.08.564.24a.804.804 0 01.216.576c0 .08-.008.16-.024.24-.008.072-.028.16-.06.264a3.127 3.127 0 01-.12.36l-.564 1.668h-.756zM108.343 23v-6.36h1.188l2.736 4.704h-.48l2.808-4.704h1.08V23h-1.044v-5.064l.192.108-2.568 4.236h-.504l-2.58-4.32.228-.048V23h-1.056zm13.474 0v-1.344l-.06-.252v-2.292c0-.488-.144-.864-.432-1.128-.28-.272-.704-.408-1.272-.408-.376 0-.744.064-1.104.192a2.76 2.76 0 00-.912.492l-.48-.864c.328-.264.72-.464 1.176-.6a4.87 4.87 0 011.452-.216c.872 0 1.544.212 2.016.636.472.424.708 1.072.708 1.944V23h-1.092zm-2.088.072c-.472 0-.888-.08-1.248-.24a1.927 1.927 0 01-.816-.66 1.713 1.713 0 01-.288-.972c0-.344.08-.656.24-.936.168-.28.436-.504.804-.672.376-.168.88-.252 1.512-.252h2.016v.828h-1.968c-.576 0-.964.096-1.164.288a.93.93 0 00-.3.696.91.91 0 00.372.756c.248.184.592.276 1.032.276.432 0 .808-.096 1.128-.288a1.63 1.63 0 00.708-.84l.228.792a1.82 1.82 0 01-.804.9c-.384.216-.868.324-1.452.324zm8.626 0c-.528 0-1.012-.12-1.452-.36a2.751 2.751 0 01-1.044-1.092c-.256-.48-.384-1.08-.384-1.8s.124-1.32.372-1.8c.256-.48.6-.84 1.032-1.08.44-.24.932-.36 1.476-.36.624 0 1.176.136 1.656.408a3 3 0 011.14 1.14c.28.48.42 1.044.42 1.692 0 .648-.14 1.216-.42 1.704a3 3 0 01-1.14 1.14c-.48.272-1.032.408-1.656.408zm-3.372 2.256V16.64h1.104v1.716l-.072 1.476.12 1.476v4.02h-1.152zm3.276-3.264a2.15 2.15 0 001.092-.276c.328-.184.584-.444.768-.78.192-.344.288-.74.288-1.188 0-.456-.096-.848-.288-1.176a1.948 1.948 0 00-.768-.78 2.15 2.15 0 00-1.092-.276c-.4 0-.764.092-1.092.276-.32.184-.576.444-.768.78-.184.328-.276.72-.276 1.176 0 .448.092.844.276 1.188.192.336.448.596.768.78.328.184.692.276 1.092.276zm9.594.936l-2.46-3.096.948-.576L139.209 23h-1.356zm-4.608 0v-6.36h1.152V23h-1.152zm.804-2.688v-.984h2.1v.984h-2.1zm2.388-.36l-1.068-.144 2.436-3.168h1.236l-2.604 3.312zm6.601 3.12c-.68 0-1.28-.14-1.8-.42a3.08 3.08 0 01-1.2-1.152c-.28-.488-.42-1.048-.42-1.68 0-.632.136-1.192.408-1.68a3 3 0 011.14-1.14 3.244 3.244 0 011.644-.42c.616 0 1.16.136 1.632.408.472.272.84.656 1.104 1.152.272.488.408 1.06.408 1.716 0 .048-.004.104-.012.168 0 .064-.004.124-.012.18h-5.412v-.828h4.812l-.468.288a2.139 2.139 0 00-.252-1.092 1.872 1.872 0 00-.732-.744 2.022 2.022 0 00-1.068-.276c-.4 0-.756.092-1.068.276a1.852 1.852 0 00-.732.756c-.176.32-.264.688-.264 1.104v.192c0 .424.096.804.288 1.14.2.328.476.584.828.768.352.184.756.276 1.212.276.376 0 .716-.064 1.02-.192.312-.128.584-.32.816-.576l.636.744a2.777 2.777 0 01-1.08.768c-.424.176-.9.264-1.428.264zm5.693-.072v-5.652l.288.3h-2.616V16.64h5.808v1.008h-2.604l.276-.3V23h-1.152zm7.101.072c-.64 0-1.208-.14-1.704-.42a3.126 3.126 0 01-1.176-1.152 3.284 3.284 0 01-.432-1.68c0-.632.144-1.192.432-1.68.288-.488.68-.868 1.176-1.14.496-.28 1.064-.42 1.704-.42.632 0 1.196.14 1.692.42.504.272.896.652 1.176 1.14.288.48.432 1.04.432 1.68 0 .632-.144 1.192-.432 1.68-.28.488-.672.872-1.176 1.152-.496.28-1.06.42-1.692.42zm0-1.008a2.15 2.15 0 001.092-.276c.328-.184.584-.444.768-.78a2.48 2.48 0 00.276-1.188c0-.456-.092-.848-.276-1.176a1.948 1.948 0 00-.768-.78 2.15 2.15 0 00-1.092-.276 2.15 2.15 0 00-1.092.276c-.32.184-.576.444-.768.78-.192.328-.288.72-.288 1.176 0 .448.096.844.288 1.188.192.336.448.596.768.78.32.184.684.276 1.092.276zm4.964.936v-6.36h2.952c.744 0 1.328.144 1.752.432.432.28.648.68.648 1.2 0 .52-.204.924-.612 1.212-.4.28-.932.42-1.596.42l.18-.312c.76 0 1.324.14 1.692.42.368.28.552.692.552 1.236 0 .552-.208.984-.624 1.296-.408.304-1.036.456-1.884.456h-3.06zm1.128-.888h1.848c.48 0 .84-.072 1.08-.216.24-.152.36-.392.36-.72 0-.336-.112-.58-.336-.732-.216-.16-.56-.24-1.032-.24h-1.92v1.908zm0-2.736h1.728c.44 0 .772-.08.996-.24a.812.812 0 00.348-.696c0-.304-.116-.532-.348-.684-.224-.152-.556-.228-.996-.228h-1.728v1.848zm5.763 5.4l.6-2.424.156.696a.847.847 0 01-.588-.216c-.152-.144-.228-.34-.228-.588 0-.24.076-.436.228-.588a.807.807 0 01.576-.228c.232 0 .42.08.564.24a.804.804 0 01.216.576c0 .08-.008.16-.024.24-.008.072-.028.16-.06.264a3.127 3.127 0 01-.12.36l-.564 1.668h-.756zm9.145-1.704c-.64 0-1.208-.14-1.704-.42a3.126 3.126 0 01-1.176-1.152 3.284 3.284 0 01-.432-1.68c0-.632.144-1.192.432-1.68.288-.488.68-.868 1.176-1.14.496-.28 1.064-.42 1.704-.42.632 0 1.196.14 1.692.42.504.272.896.652 1.176 1.14.288.48.432 1.04.432 1.68 0 .632-.144 1.192-.432 1.68-.28.488-.672.872-1.176 1.152-.496.28-1.06.42-1.692.42zm0-1.008a2.15 2.15 0 001.092-.276c.328-.184.584-.444.768-.78a2.48 2.48 0 00.276-1.188c0-.456-.092-.848-.276-1.176a1.948 1.948 0 00-.768-.78 2.15 2.15 0 00-1.092-.276 2.15 2.15 0 00-1.092.276c-.32.184-.576.444-.768.78-.192.328-.288.72-.288 1.176 0 .448.096.844.288 1.188.192.336.448.596.768.78.32.184.684.276 1.092.276zm4.964.936v-6.36h5.892V23h-1.152v-5.64l.276.288h-4.14l.276-.288V23h-1.152zm9.381 0v-5.652l.288.3h-2.616V16.64h5.808v1.008h-2.604l.276-.3V23h-1.152zm7.101.072c-.64 0-1.208-.14-1.704-.42a3.126 3.126 0 01-1.176-1.152 3.284 3.284 0 01-.432-1.68c0-.632.144-1.192.432-1.68.288-.488.68-.868 1.176-1.14.496-.28 1.064-.42 1.704-.42.632 0 1.196.14 1.692.42.504.272.896.652 1.176 1.14.288.48.432 1.04.432 1.68 0 .632-.144 1.192-.432 1.68-.28.488-.672.872-1.176 1.152-.496.28-1.06.42-1.692.42zm0-1.008a2.15 2.15 0 001.092-.276c.328-.184.584-.444.768-.78a2.48 2.48 0 00.276-1.188c0-.456-.092-.848-.276-1.176a1.948 1.948 0 00-.768-.78 2.15 2.15 0 00-1.092-.276 2.15 2.15 0 00-1.092.276c-.32.184-.576.444-.768.78-.192.328-.288.72-.288 1.176 0 .448.096.844.288 1.188.192.336.448.596.768.78.32.184.684.276 1.092.276zm4.963.936v-6.36h2.952c.744 0 1.328.144 1.752.432.432.28.648.68.648 1.2 0 .52-.204.924-.612 1.212-.4.28-.932.42-1.596.42l.18-.312c.76 0 1.324.14 1.692.42.368.28.552.692.552 1.236 0 .552-.208.984-.624 1.296-.408.304-1.036.456-1.884.456h-3.06zm1.128-.888h1.848c.48 0 .84-.072 1.08-.216.24-.152.36-.392.36-.72 0-.336-.112-.58-.336-.732-.216-.16-.56-.24-1.032-.24h-1.92v1.908zm0-2.736h1.728c.44 0 .772-.08.996-.24a.812.812 0 00.348-.696c0-.304-.116-.532-.348-.684-.224-.152-.556-.228-.996-.228h-1.728v1.848zM210.612 23v-6.36h1.152v4.632l3.9-4.632h1.044V23h-1.152v-4.632L211.668 23h-1.056zm12.94 0l-2.46-3.096.948-.576L224.908 23h-1.356zm-4.608 0v-6.36h1.152V23h-1.152zm.804-2.688v-.984h2.1v.984h-2.1zm2.388-.36l-1.068-.144 2.436-3.168h1.236l-2.604 3.312zm6.493 3.12c-.64 0-1.208-.14-1.704-.42a3.126 3.126 0 01-1.176-1.152 3.284 3.284 0 01-.432-1.68c0-.632.144-1.192.432-1.68.288-.488.68-.868 1.176-1.14.496-.28 1.064-.42 1.704-.42.632 0 1.196.14 1.692.42.504.272.896.652 1.176 1.14.288.48.432 1.04.432 1.68 0 .632-.144 1.192-.432 1.68-.28.488-.672.872-1.176 1.152-.496.28-1.06.42-1.692.42zm0-1.008a2.15 2.15 0 001.092-.276c.328-.184.584-.444.768-.78a2.48 2.48 0 00.276-1.188c0-.456-.092-.848-.276-1.176a1.948 1.948 0 00-.768-.78 2.15 2.15 0 00-1.092-.276 2.15 2.15 0 00-1.092.276c-.32.184-.576.444-.768.78-.192.328-.288.72-.288 1.176 0 .448.096.844.288 1.188.192.336.448.596.768.78.32.184.684.276 1.092.276zm4.964.936v-6.36h2.952c.744 0 1.328.144 1.752.432.432.28.648.68.648 1.2 0 .52-.204.924-.612 1.212-.4.28-.932.42-1.596.42l.18-.312c.76 0 1.324.14 1.692.42.368.28.552.692.552 1.236 0 .552-.208.984-.624 1.296-.408.304-1.036.456-1.884.456h-3.06zm1.128-.888h1.848c.48 0 .84-.072 1.08-.216.24-.152.36-.392.36-.72 0-.336-.112-.58-.336-.732-.216-.16-.56-.24-1.032-.24h-1.92v1.908zm0-2.736h1.728c.44 0 .772-.08.996-.24a.812.812 0 00.348-.696c0-.304-.116-.532-.348-.684-.224-.152-.556-.228-.996-.228h-1.728v1.848z" fill="#fff"/></svg>