<svg width="240" height="26" viewBox="0 0 240 26" fill="none" xmlns="http://www.w3.org/2000/svg">
<path d="M1.97597 9V0.599999H9.21197V9H8.03597V1.332L8.32397 1.644H2.86397L3.16397 1.332V9H1.97597ZM14.3634 9.072C13.7234 9.072 13.1554 8.932 12.6594 8.652C12.1634 8.372 11.7714 7.988 11.4834 7.5C11.1954 7.004 11.0514 6.444 11.0514 5.82C11.0514 5.188 11.1954 4.628 11.4834 4.14C11.7714 3.652 12.1634 3.272 12.6594 3C13.1554 2.72 13.7234 2.58 14.3634 2.58C14.9954 2.58 15.5594 2.72 16.0554 3C16.5594 3.272 16.9514 3.652 17.2314 4.14C17.5194 4.62 17.6634 5.18 17.6634 5.82C17.6634 6.452 17.5194 7.012 17.2314 7.5C16.9514 7.988 16.5594 8.372 16.0554 8.652C15.5594 8.932 14.9954 9.072 14.3634 9.072ZM14.3634 8.064C14.7714 8.064 15.1354 7.972 15.4554 7.788C15.7834 7.604 16.0394 7.344 16.2234 7.008C16.4074 6.664 16.4994 6.268 16.4994 5.82C16.4994 5.364 16.4074 4.972 16.2234 4.644C16.0394 4.308 15.7834 4.048 15.4554 3.864C15.1354 3.68 14.7714 3.588 14.3634 3.588C13.9554 3.588 13.5914 3.68 13.2714 3.864C12.9514 4.048 12.6954 4.308 12.5034 4.644C12.3114 4.972 12.2154 5.364 12.2154 5.82C12.2154 6.268 12.3114 6.664 12.5034 7.008C12.6954 7.344 12.9514 7.604 13.2714 7.788C13.5914 7.972 13.9554 8.064 14.3634 8.064ZM22.0989 9.072C21.4509 9.072 20.8709 8.932 20.3589 8.652C19.8549 8.372 19.4589 7.988 19.1709 7.5C18.8829 7.012 18.7389 6.452 18.7389 5.82C18.7389 5.188 18.8829 4.628 19.1709 4.14C19.4589 3.652 19.8549 3.272 20.3589 3C20.8709 2.72 21.4509 2.58 22.0989 2.58C22.6749 2.58 23.1869 2.696 23.6349 2.928C24.0909 3.152 24.4429 3.488 24.6909 3.936L23.8149 4.5C23.6069 4.188 23.3509 3.96 23.0469 3.816C22.7509 3.664 22.4309 3.588 22.0869 3.588C21.6709 3.588 21.2989 3.68 20.9709 3.864C20.6429 4.048 20.3829 4.308 20.1909 4.644C19.9989 4.972 19.9029 5.364 19.9029 5.82C19.9029 6.276 19.9989 6.672 20.1909 7.008C20.3829 7.344 20.6429 7.604 20.9709 7.788C21.2989 7.972 21.6709 8.064 22.0869 8.064C22.4309 8.064 22.7509 7.992 23.0469 7.848C23.3509 7.696 23.6069 7.464 23.8149 7.152L24.6909 7.704C24.4429 8.144 24.0909 8.484 23.6349 8.724C23.1869 8.956 22.6749 9.072 22.0989 9.072ZM27.3604 9V3.348L27.6484 3.648H25.0324V2.64H30.8404V3.648H28.2364L28.5124 3.348V9H27.3604ZM35.9183 9V7.656L35.8583 7.404V5.112C35.8583 4.624 35.7143 4.248 35.4263 3.984C35.1463 3.712 34.7223 3.576 34.1543 3.576C33.7783 3.576 33.4103 3.64 33.0503 3.768C32.6903 3.888 32.3863 4.052 32.1383 4.26L31.6583 3.396C31.9863 3.132 32.3783 2.932 32.8343 2.796C33.2983 2.652 33.7823 2.58 34.2863 2.58C35.1583 2.58 35.8303 2.792 36.3023 3.216C36.7743 3.64 37.0103 4.288 37.0103 5.16V9H35.9183ZM33.8303 9.072C33.3583 9.072 32.9423 8.992 32.5823 8.832C32.2303 8.672 31.9583 8.452 31.7663 8.172C31.5743 7.884 31.4783 7.56 31.4783 7.2C31.4783 6.856 31.5583 6.544 31.7183 6.264C31.8863 5.984 32.1543 5.76 32.5223 5.592C32.8983 5.424 33.4023 5.34 34.0343 5.34H36.0503V6.168H34.0823C33.5063 6.168 33.1183 6.264 32.9183 6.456C32.7183 6.648 32.6183 6.88 32.6183 7.152C32.6183 7.464 32.7423 7.716 32.9903 7.908C33.2383 8.092 33.5823 8.184 34.0223 8.184C34.4543 8.184 34.8303 8.088 35.1503 7.896C35.4783 7.704 35.7143 7.424 35.8583 7.056L36.0863 7.848C35.9343 8.224 35.6663 8.524 35.2823 8.748C34.8983 8.964 34.4143 9.072 33.8303 9.072ZM39.0848 9V2.64H42.0368C42.7808 2.64 43.3648 2.784 43.7888 3.072C44.2208 3.352 44.4368 3.752 44.4368 4.272C44.4368 4.792 44.2328 5.196 43.8248 5.484C43.4248 5.764 42.8928 5.904 42.2288 5.904L42.4088 5.592C43.1688 5.592 43.7328 5.732 44.1008 6.012C44.4688 6.292 44.6528 6.704 44.6528 7.248C44.6528 7.8 44.4448 8.232 44.0287 8.544C43.6208 8.848 42.9928 9 42.1448 9H39.0848ZM40.2128 8.112H42.0608C42.5408 8.112 42.9008 8.04 43.1408 7.896C43.3808 7.744 43.5008 7.504 43.5008 7.176C43.5008 6.84 43.3888 6.596 43.1648 6.444C42.9488 6.284 42.6048 6.204 42.1328 6.204H40.2128V8.112ZM40.2128 5.376H41.9408C42.3808 5.376 42.7128 5.296 42.9368 5.136C43.1688 4.968 43.2848 4.736 43.2848 4.44C43.2848 4.136 43.1688 3.908 42.9368 3.756C42.7128 3.604 42.3808 3.528 41.9408 3.528H40.2128V5.376ZM51.0638 9L48.6038 5.904L49.5518 5.328L52.4198 9H51.0638ZM46.4558 9V2.64H47.6078V9H46.4558ZM47.2598 6.312V5.328H49.3598V6.312H47.2598ZM49.6478 5.952L48.5798 5.808L51.0158 2.64H52.2518L49.6478 5.952ZM53.6277 9V2.64H54.7797V7.272L58.6797 2.64H59.7237V9H58.5717V4.368L54.6837 9H53.6277ZM65.1824 9V2.64H71.0744V9H69.9224V3.36L70.1984 3.648H66.0584L66.3344 3.36V9H65.1824ZM76.6755 9.072C76.1475 9.072 75.6635 8.952 75.2235 8.712C74.7915 8.464 74.4435 8.1 74.1795 7.62C73.9235 7.14 73.7955 6.54 73.7955 5.82C73.7955 5.1 73.9195 4.5 74.1675 4.02C74.4235 3.54 74.7675 3.18 75.1995 2.94C75.6395 2.7 76.1315 2.58 76.6755 2.58C77.2995 2.58 77.8515 2.716 78.3315 2.988C78.8115 3.26 79.1915 3.64 79.4715 4.128C79.7515 4.608 79.8915 5.172 79.8915 5.82C79.8915 6.468 79.7515 7.036 79.4715 7.524C79.1915 8.012 78.8115 8.392 78.3315 8.664C77.8515 8.936 77.2995 9.072 76.6755 9.072ZM73.3035 11.328V2.64H74.4075V4.356L74.3355 5.832L74.4555 7.308V11.328H73.3035ZM76.5795 8.064C76.9875 8.064 77.3515 7.972 77.6715 7.788C77.9995 7.604 78.2555 7.344 78.4395 7.008C78.6315 6.664 78.7275 6.268 78.7275 5.82C78.7275 5.364 78.6315 4.972 78.4395 4.644C78.2555 4.308 77.9995 4.048 77.6715 3.864C77.3515 3.68 76.9875 3.588 76.5795 3.588C76.1795 3.588 75.8155 3.68 75.4875 3.864C75.1675 4.048 74.9115 4.308 74.7195 4.644C74.5355 4.972 74.4435 5.364 74.4435 5.82C74.4435 6.268 74.5355 6.664 74.7195 7.008C74.9115 7.344 75.1675 7.604 75.4875 7.788C75.8155 7.972 76.1795 8.064 76.5795 8.064ZM84.2892 9.072C83.6492 9.072 83.0812 8.932 82.5852 8.652C82.0892 8.372 81.6972 7.988 81.4092 7.5C81.1212 7.004 80.9772 6.444 80.9772 5.82C80.9772 5.188 81.1212 4.628 81.4092 4.14C81.6972 3.652 82.0892 3.272 82.5852 3C83.0812 2.72 83.6492 2.58 84.2892 2.58C84.9212 2.58 85.4852 2.72 85.9812 3C86.4852 3.272 86.8772 3.652 87.1572 4.14C87.4452 4.62 87.5892 5.18 87.5892 5.82C87.5892 6.452 87.4452 7.012 87.1572 7.5C86.8772 7.988 86.4852 8.372 85.9812 8.652C85.4852 8.932 84.9212 9.072 84.2892 9.072ZM84.2892 8.064C84.6972 8.064 85.0612 7.972 85.3812 7.788C85.7092 7.604 85.9652 7.344 86.1492 7.008C86.3332 6.664 86.4252 6.268 86.4252 5.82C86.4252 5.364 86.3332 4.972 86.1492 4.644C85.9652 4.308 85.7092 4.048 85.3812 3.864C85.0612 3.68 84.6972 3.588 84.2892 3.588C83.8812 3.588 83.5172 3.68 83.1972 3.864C82.8772 4.048 82.6212 4.308 82.4292 4.644C82.2372 4.972 82.1412 5.364 82.1412 5.82C82.1412 6.268 82.2372 6.664 82.4292 7.008C82.6212 7.344 82.8772 7.604 83.1972 7.788C83.5172 7.972 83.8812 8.064 84.2892 8.064ZM93.5498 8.46V3.648H90.7898L90.7298 4.872C90.7138 5.272 90.6858 5.66 90.6458 6.036C90.6138 6.404 90.5578 6.744 90.4778 7.056C90.4058 7.368 90.2978 7.624 90.1538 7.824C90.0098 8.024 89.8178 8.148 89.5778 8.196L88.4378 7.992C88.6858 8 88.8858 7.92 89.0378 7.752C89.1898 7.576 89.3058 7.336 89.3858 7.032C89.4738 6.728 89.5378 6.384 89.5778 6C89.6178 5.608 89.6498 5.204 89.6738 4.788L89.7698 2.64H94.7018V8.46H93.5498ZM88.1858 10.476V7.992H95.6738V10.476H94.5938V9H89.2778V10.476H88.1858ZM97.4986 11.4C97.1946 11.4 96.8986 11.348 96.6106 11.244C96.3226 11.148 96.0746 11.004 95.8666 10.812L96.3586 9.948C96.5186 10.1 96.6946 10.216 96.8866 10.296C97.0786 10.376 97.2826 10.416 97.4986 10.416C97.7786 10.416 98.0106 10.344 98.1946 10.2C98.3786 10.056 98.5506 9.8 98.7106 9.432L99.1066 8.556L99.2266 8.412L101.723 2.64H102.851L99.7666 9.636C99.5826 10.084 99.3746 10.436 99.1426 10.692C98.9186 10.948 98.6706 11.128 98.3986 11.232C98.1266 11.344 97.8266 11.4 97.4986 11.4ZM99.0106 9.204L96.1066 2.64H97.3066L99.7786 8.304L99.0106 9.204ZM108.638 9L106.178 5.904L107.126 5.328L109.994 9H108.638ZM104.03 9V2.64H105.182V9H104.03ZM104.834 6.312V5.328H106.934V6.312H104.834ZM107.222 5.952L106.154 5.808L108.59 2.64H109.826L107.222 5.952ZM112.356 9V3.348L112.644 3.648H110.028V2.64H115.836V3.648H113.232L113.508 3.348V9H112.356ZM119.457 9.072C118.817 9.072 118.249 8.932 117.753 8.652C117.257 8.372 116.865 7.988 116.577 7.5C116.289 7.004 116.145 6.444 116.145 5.82C116.145 5.188 116.289 4.628 116.577 4.14C116.865 3.652 117.257 3.272 117.753 3C118.249 2.72 118.817 2.58 119.457 2.58C120.089 2.58 120.653 2.72 121.149 3C121.653 3.272 122.045 3.652 122.325 4.14C122.613 4.62 122.757 5.18 122.757 5.82C122.757 6.452 122.613 7.012 122.325 7.5C122.045 7.988 121.653 8.372 121.149 8.652C120.653 8.932 120.089 9.072 119.457 9.072ZM119.457 8.064C119.865 8.064 120.229 7.972 120.549 7.788C120.877 7.604 121.133 7.344 121.317 7.008C121.501 6.664 121.593 6.268 121.593 5.82C121.593 5.364 121.501 4.972 121.317 4.644C121.133 4.308 120.877 4.048 120.549 3.864C120.229 3.68 119.865 3.588 119.457 3.588C119.049 3.588 118.685 3.68 118.365 3.864C118.045 4.048 117.789 4.308 117.597 4.644C117.405 4.972 117.309 5.364 117.309 5.82C117.309 6.268 117.405 6.664 117.597 7.008C117.789 7.344 118.045 7.604 118.365 7.788C118.685 7.972 119.049 8.064 119.457 8.064ZM124.421 9V2.64H127.373C128.117 2.64 128.701 2.784 129.125 3.072C129.557 3.352 129.773 3.752 129.773 4.272C129.773 4.792 129.569 5.196 129.161 5.484C128.761 5.764 128.229 5.904 127.565 5.904L127.745 5.592C128.505 5.592 129.069 5.732 129.437 6.012C129.805 6.292 129.989 6.704 129.989 7.248C129.989 7.8 129.781 8.232 129.365 8.544C128.957 8.848 128.329 9 127.481 9H124.421ZM125.549 8.112H127.397C127.877 8.112 128.237 8.04 128.477 7.896C128.717 7.744 128.837 7.504 128.837 7.176C128.837 6.84 128.725 6.596 128.501 6.444C128.285 6.284 127.941 6.204 127.469 6.204H125.549V8.112ZM125.549 5.376H127.277C127.717 5.376 128.049 5.296 128.273 5.136C128.505 4.968 128.621 4.736 128.621 4.44C128.621 4.136 128.505 3.908 128.273 3.756C128.049 3.604 127.717 3.528 127.277 3.528H125.549V5.376ZM135.014 9V2.64H140.906V9H139.754V3.36L140.03 3.648H135.89L136.166 3.36V9H135.014ZM143.136 9V2.64H144.288V7.272L148.188 2.64H149.232V9H148.08V4.368L144.192 9H143.136ZM152.728 9V3.348L153.016 3.648H150.4V2.64H156.208V3.648H153.604L153.88 3.348V9H152.728ZM161.286 9V7.656L161.226 7.404V5.112C161.226 4.624 161.082 4.248 160.794 3.984C160.514 3.712 160.09 3.576 159.522 3.576C159.146 3.576 158.778 3.64 158.418 3.768C158.058 3.888 157.754 4.052 157.506 4.26L157.026 3.396C157.354 3.132 157.746 2.932 158.202 2.796C158.666 2.652 159.15 2.58 159.654 2.58C160.526 2.58 161.198 2.792 161.67 3.216C162.142 3.64 162.378 4.288 162.378 5.16V9H161.286ZM159.198 9.072C158.726 9.072 158.31 8.992 157.95 8.832C157.598 8.672 157.326 8.452 157.134 8.172C156.942 7.884 156.846 7.56 156.846 7.2C156.846 6.856 156.926 6.544 157.086 6.264C157.254 5.984 157.522 5.76 157.89 5.592C158.266 5.424 158.77 5.34 159.402 5.34H161.418V6.168H159.45C158.874 6.168 158.486 6.264 158.286 6.456C158.086 6.648 157.986 6.88 157.986 7.152C157.986 7.464 158.11 7.716 158.358 7.908C158.606 8.092 158.95 8.184 159.39 8.184C159.822 8.184 160.198 8.088 160.518 7.896C160.846 7.704 161.082 7.424 161.226 7.056L161.454 7.848C161.302 8.224 161.034 8.524 160.65 8.748C160.266 8.964 159.782 9.072 159.198 9.072ZM164.452 9V2.64H165.604V5.34H169.228V2.64H170.38V9H169.228V6.336H165.604V9H164.452ZM172.62 9V2.64H173.772V7.272L177.672 2.64H178.716V9H177.564V4.368L173.676 9H172.62ZM185.02 9V6.768L185.2 6.984H183.172C182.324 6.984 181.66 6.804 181.18 6.444C180.708 6.084 180.472 5.56 180.472 4.872C180.472 4.136 180.724 3.58 181.228 3.204C181.74 2.828 182.42 2.64 183.268 2.64H186.052V9H185.02ZM180.412 9L182.14 6.564H183.328L181.648 9H180.412ZM185.02 6.408V3.324L185.2 3.648H183.304C182.776 3.648 182.368 3.748 182.08 3.948C181.792 4.14 181.648 4.46 181.648 4.908C181.648 5.74 182.184 6.156 183.256 6.156H185.2L185.02 6.408ZM194.246 9.072C193.606 9.072 193.038 8.932 192.542 8.652C192.046 8.372 191.654 7.988 191.366 7.5C191.078 7.004 190.934 6.444 190.934 5.82C190.934 5.188 191.078 4.628 191.366 4.14C191.654 3.652 192.046 3.272 192.542 3C193.038 2.72 193.606 2.58 194.246 2.58C194.878 2.58 195.442 2.72 195.938 3C196.442 3.272 196.834 3.652 197.114 4.14C197.402 4.62 197.546 5.18 197.546 5.82C197.546 6.452 197.402 7.012 197.114 7.5C196.834 7.988 196.442 8.372 195.938 8.652C195.442 8.932 194.878 9.072 194.246 9.072ZM194.246 8.064C194.654 8.064 195.018 7.972 195.338 7.788C195.666 7.604 195.922 7.344 196.106 7.008C196.29 6.664 196.382 6.268 196.382 5.82C196.382 5.364 196.29 4.972 196.106 4.644C195.922 4.308 195.666 4.048 195.338 3.864C195.018 3.68 194.654 3.588 194.246 3.588C193.838 3.588 193.474 3.68 193.154 3.864C192.834 4.048 192.578 4.308 192.386 4.644C192.194 4.972 192.098 5.364 192.098 5.82C192.098 6.268 192.194 6.664 192.386 7.008C192.578 7.344 192.834 7.604 193.154 7.788C193.474 7.972 193.838 8.064 194.246 8.064ZM199.21 9V2.64H205.102V9H203.95V3.36L204.226 3.648H200.086L200.362 3.36V9H199.21ZM208.591 9V3.348L208.879 3.648H206.263V2.64H212.071V3.648H209.467L209.743 3.348V9H208.591ZM215.692 9.072C215.052 9.072 214.484 8.932 213.988 8.652C213.492 8.372 213.1 7.988 212.812 7.5C212.524 7.004 212.38 6.444 212.38 5.82C212.38 5.188 212.524 4.628 212.812 4.14C213.1 3.652 213.492 3.272 213.988 3C214.484 2.72 215.052 2.58 215.692 2.58C216.324 2.58 216.888 2.72 217.384 3C217.888 3.272 218.28 3.652 218.56 4.14C218.848 4.62 218.992 5.18 218.992 5.82C218.992 6.452 218.848 7.012 218.56 7.5C218.28 7.988 217.888 8.372 217.384 8.652C216.888 8.932 216.324 9.072 215.692 9.072ZM215.692 8.064C216.1 8.064 216.464 7.972 216.784 7.788C217.112 7.604 217.368 7.344 217.552 7.008C217.736 6.664 217.828 6.268 217.828 5.82C217.828 5.364 217.736 4.972 217.552 4.644C217.368 4.308 217.112 4.048 216.784 3.864C216.464 3.68 216.1 3.588 215.692 3.588C215.284 3.588 214.92 3.68 214.6 3.864C214.28 4.048 214.024 4.308 213.832 4.644C213.64 4.972 213.544 5.364 213.544 5.82C213.544 6.268 213.64 6.664 213.832 7.008C214.024 7.344 214.28 7.604 214.6 7.788C214.92 7.972 215.284 8.064 215.692 8.064ZM220.655 9V2.64H221.843L224.579 7.344H224.099L226.907 2.64H227.987V9H226.943V3.936L227.135 4.044L224.567 8.28H224.063L221.483 3.96L221.711 3.912V9H220.655ZM6.12797 22.46V17.648H3.36797L3.30797 18.872C3.29197 19.272 3.26397 19.66 3.22397 20.036C3.19197 20.404 3.13597 20.744 3.05597 21.056C2.98397 21.368 2.87597 21.624 2.73197 21.824C2.58797 22.024 2.39597 22.148 2.15597 22.196L1.01597 21.992C1.26397 22 1.46397 21.92 1.61597 21.752C1.76797 21.576 1.88397 21.336 1.96397 21.032C2.05197 20.728 2.11597 20.384 2.15597 20C2.19597 19.608 2.22797 19.204 2.25197 18.788L2.34797 16.64H7.27997V22.46H6.12797ZM0.763969 24.476V21.992H8.25197V24.476H7.17197V23H1.85597V24.476H0.763969ZM8.69672 22.988L8.76872 22.016C8.82472 22.024 8.87672 22.032 8.92472 22.04C8.97272 22.048 9.01672 22.052 9.05672 22.052C9.31272 22.052 9.51272 21.964 9.65672 21.788C9.80872 21.612 9.92072 21.38 9.99272 21.092C10.0647 20.796 10.1167 20.464 10.1487 20.096C10.1807 19.728 10.2047 19.36 10.2207 18.992L10.3287 16.64H15.2127V23H14.0607V17.312L14.3367 17.648H11.0727L11.3367 17.3L11.2527 19.064C11.2287 19.624 11.1847 20.148 11.1207 20.636C11.0567 21.124 10.9567 21.552 10.8207 21.92C10.6927 22.288 10.5127 22.576 10.2807 22.784C10.0567 22.992 9.76472 23.096 9.40472 23.096C9.30072 23.096 9.18872 23.084 9.06872 23.06C8.95672 23.044 8.83272 23.02 8.69672 22.988ZM21.5082 23V20.768L21.6882 20.984H19.6602C18.8122 20.984 18.1482 20.804 17.6682 20.444C17.1962 20.084 16.9602 19.56 16.9602 18.872C16.9602 18.136 17.2122 17.58 17.7162 17.204C18.2282 16.828 18.9082 16.64 19.7562 16.64H22.5402V23H21.5082ZM16.9002 23L18.6282 20.564H19.8162L18.1362 23H16.9002ZM21.5082 20.408V17.324L21.6882 17.648H19.7922C19.2642 17.648 18.8562 17.748 18.5682 17.948C18.2802 18.14 18.1362 18.46 18.1362 18.908C18.1362 19.74 18.6722 20.156 19.7442 20.156H21.6882L21.5082 20.408ZM31.3825 23.072C30.8545 23.072 30.3705 22.952 29.9305 22.712C29.4985 22.464 29.1505 22.1 28.8865 21.62C28.6305 21.14 28.5025 20.54 28.5025 19.82C28.5025 19.1 28.6265 18.5 28.8745 18.02C29.1305 17.54 29.4745 17.18 29.9065 16.94C30.3465 16.7 30.8385 16.58 31.3825 16.58C32.0065 16.58 32.5585 16.716 33.0385 16.988C33.5185 17.26 33.8985 17.64 34.1785 18.128C34.4585 18.608 34.5985 19.172 34.5985 19.82C34.5985 20.468 34.4585 21.036 34.1785 21.524C33.8985 22.012 33.5185 22.392 33.0385 22.664C32.5585 22.936 32.0065 23.072 31.3825 23.072ZM28.0105 25.328V16.64H29.1145V18.356L29.0425 19.832L29.1625 21.308V25.328H28.0105ZM31.2865 22.064C31.6945 22.064 32.0585 21.972 32.3785 21.788C32.7065 21.604 32.9625 21.344 33.1465 21.008C33.3385 20.664 33.4345 20.268 33.4345 19.82C33.4345 19.364 33.3385 18.972 33.1465 18.644C32.9625 18.308 32.7065 18.048 32.3785 17.864C32.0585 17.68 31.6945 17.588 31.2865 17.588C30.8865 17.588 30.5225 17.68 30.1945 17.864C29.8745 18.048 29.6185 18.308 29.4265 18.644C29.2425 18.972 29.1505 19.364 29.1505 19.82C29.1505 20.268 29.2425 20.664 29.4265 21.008C29.6185 21.344 29.8745 21.604 30.1945 21.788C30.5225 21.972 30.8865 22.064 31.2865 22.064ZM39.1043 23.072C38.4243 23.072 37.8243 22.932 37.3043 22.652C36.7923 22.372 36.3923 21.988 36.1043 21.5C35.8243 21.012 35.6843 20.452 35.6843 19.82C35.6843 19.188 35.8203 18.628 36.0923 18.14C36.3723 17.652 36.7523 17.272 37.2323 17C37.7203 16.72 38.2683 16.58 38.8763 16.58C39.4923 16.58 40.0363 16.716 40.5083 16.988C40.9803 17.26 41.3483 17.644 41.6123 18.14C41.8843 18.628 42.0203 19.2 42.0203 19.856C42.0203 19.904 42.0163 19.96 42.0083 20.024C42.0083 20.088 42.0043 20.148 41.9963 20.204H36.5843V19.376H41.3963L40.9283 19.664C40.9363 19.256 40.8523 18.892 40.6763 18.572C40.5003 18.252 40.2563 18.004 39.9443 17.828C39.6403 17.644 39.2843 17.552 38.8763 17.552C38.4763 17.552 38.1203 17.644 37.8083 17.828C37.4963 18.004 37.2523 18.256 37.0763 18.584C36.9003 18.904 36.8123 19.272 36.8123 19.688V19.88C36.8123 20.304 36.9083 20.684 37.1003 21.02C37.3003 21.348 37.5763 21.604 37.9283 21.788C38.2803 21.972 38.6843 22.064 39.1403 22.064C39.5163 22.064 39.8563 22 40.1603 21.872C40.4723 21.744 40.7443 21.552 40.9763 21.296L41.6123 22.04C41.3243 22.376 40.9643 22.632 40.5323 22.808C40.1083 22.984 39.6323 23.072 39.1043 23.072ZM46.5794 23.072C45.9314 23.072 45.3514 22.932 44.8394 22.652C44.3354 22.372 43.9394 21.988 43.6514 21.5C43.3634 21.012 43.2194 20.452 43.2194 19.82C43.2194 19.188 43.3634 18.628 43.6514 18.14C43.9394 17.652 44.3354 17.272 44.8394 17C45.3514 16.72 45.9314 16.58 46.5794 16.58C47.1554 16.58 47.6674 16.696 48.1154 16.928C48.5714 17.152 48.9234 17.488 49.1714 17.936L48.2954 18.5C48.0874 18.188 47.8314 17.96 47.5274 17.816C47.2314 17.664 46.9114 17.588 46.5674 17.588C46.1514 17.588 45.7794 17.68 45.4514 17.864C45.1234 18.048 44.8634 18.308 44.6714 18.644C44.4794 18.972 44.3834 19.364 44.3834 19.82C44.3834 20.276 44.4794 20.672 44.6714 21.008C44.8634 21.344 45.1234 21.604 45.4514 21.788C45.7794 21.972 46.1514 22.064 46.5674 22.064C46.9114 22.064 47.2314 21.992 47.5274 21.848C47.8314 21.696 48.0874 21.464 48.2954 21.152L49.1714 21.704C48.9234 22.144 48.5714 22.484 48.1154 22.724C47.6674 22.956 47.1554 23.072 46.5794 23.072ZM51.8408 23V17.348L52.1288 17.648H49.5128V16.64H55.3208V17.648H52.7168L52.9928 17.348V23H51.8408ZM58.9416 23.072C58.3016 23.072 57.7336 22.932 57.2376 22.652C56.7416 22.372 56.3496 21.988 56.0616 21.5C55.7736 21.004 55.6296 20.444 55.6296 19.82C55.6296 19.188 55.7736 18.628 56.0616 18.14C56.3496 17.652 56.7416 17.272 57.2376 17C57.7336 16.72 58.3016 16.58 58.9416 16.58C59.5736 16.58 60.1376 16.72 60.6336 17C61.1376 17.272 61.5296 17.652 61.8096 18.14C62.0976 18.62 62.2416 19.18 62.2416 19.82C62.2416 20.452 62.0976 21.012 61.8096 21.5C61.5296 21.988 61.1376 22.372 60.6336 22.652C60.1376 22.932 59.5736 23.072 58.9416 23.072ZM58.9416 22.064C59.3496 22.064 59.7136 21.972 60.0336 21.788C60.3616 21.604 60.6176 21.344 60.8016 21.008C60.9856 20.664 61.0776 20.268 61.0776 19.82C61.0776 19.364 60.9856 18.972 60.8016 18.644C60.6176 18.308 60.3616 18.048 60.0336 17.864C59.7136 17.68 59.3496 17.588 58.9416 17.588C58.5336 17.588 58.1696 17.68 57.8496 17.864C57.5296 18.048 57.2736 18.308 57.0816 18.644C56.8896 18.972 56.7936 19.364 56.7936 19.82C56.7936 20.268 56.8896 20.664 57.0816 21.008C57.2736 21.344 57.5296 21.604 57.8496 21.788C58.1696 21.972 58.5336 22.064 58.9416 22.064ZM67.2771 23.072C66.7491 23.072 66.2651 22.952 65.8251 22.712C65.3931 22.464 65.0451 22.1 64.7811 21.62C64.5251 21.14 64.3971 20.54 64.3971 19.82C64.3971 19.1 64.5211 18.5 64.7691 18.02C65.0251 17.54 65.3691 17.18 65.8011 16.94C66.2411 16.7 66.7331 16.58 67.2771 16.58C67.9011 16.58 68.4531 16.716 68.9331 16.988C69.4131 17.26 69.7931 17.64 70.0731 18.128C70.3531 18.608 70.4931 19.172 70.4931 19.82C70.4931 20.468 70.3531 21.036 70.0731 21.524C69.7931 22.012 69.4131 22.392 68.9331 22.664C68.4531 22.936 67.9011 23.072 67.2771 23.072ZM63.9051 25.328V16.64H65.0091V18.356L64.9371 19.832L65.0571 21.308V25.328H63.9051ZM67.1811 22.064C67.5891 22.064 67.9531 21.972 68.2731 21.788C68.6011 21.604 68.8571 21.344 69.0411 21.008C69.2331 20.664 69.3291 20.268 69.3291 19.82C69.3291 19.364 69.2331 18.972 69.0411 18.644C68.8571 18.308 68.6011 18.048 68.2731 17.864C67.9531 17.68 67.5891 17.588 67.1811 17.588C66.7811 17.588 66.4171 17.68 66.0891 17.864C65.7691 18.048 65.5131 18.308 65.3211 18.644C65.1371 18.972 65.0451 19.364 65.0451 19.82C65.0451 20.268 65.1371 20.664 65.3211 21.008C65.5131 21.344 65.7691 21.604 66.0891 21.788C66.4171 21.972 66.7811 22.064 67.1811 22.064ZM76.0082 23V21.656L75.9482 21.404V19.112C75.9482 18.624 75.8042 18.248 75.5162 17.984C75.2362 17.712 74.8122 17.576 74.2442 17.576C73.8682 17.576 73.5002 17.64 73.1402 17.768C72.7802 17.888 72.4762 18.052 72.2282 18.26L71.7482 17.396C72.0762 17.132 72.4682 16.932 72.9242 16.796C73.3882 16.652 73.8722 16.58 74.3762 16.58C75.2482 16.58 75.9202 16.792 76.3922 17.216C76.8642 17.64 77.1002 18.288 77.1002 19.16V23H76.0082ZM73.9202 23.072C73.4482 23.072 73.0322 22.992 72.6722 22.832C72.3202 22.672 72.0482 22.452 71.8562 22.172C71.6642 21.884 71.5682 21.56 71.5682 21.2C71.5682 20.856 71.6482 20.544 71.8082 20.264C71.9762 19.984 72.2442 19.76 72.6122 19.592C72.9882 19.424 73.4922 19.34 74.1242 19.34H76.1402V20.168H74.1722C73.5962 20.168 73.2082 20.264 73.0082 20.456C72.8082 20.648 72.7082 20.88 72.7082 21.152C72.7082 21.464 72.8322 21.716 73.0802 21.908C73.3282 22.092 73.6722 22.184 74.1122 22.184C74.5442 22.184 74.9202 22.088 75.2402 21.896C75.5682 21.704 75.8042 21.424 75.9482 21.056L76.1762 21.848C76.0242 22.224 75.7562 22.524 75.3722 22.748C74.9882 22.964 74.5042 23.072 73.9202 23.072ZM79.1746 23V16.64H80.3266V19.34H83.9506V16.64H85.1026V23H83.9506V20.336H80.3266V23H79.1746ZM90.0666 23.072C89.4266 23.072 88.8586 22.932 88.3626 22.652C87.8666 22.372 87.4746 21.988 87.1866 21.5C86.8986 21.004 86.7546 20.444 86.7546 19.82C86.7546 19.188 86.8986 18.628 87.1866 18.14C87.4746 17.652 87.8666 17.272 88.3626 17C88.8586 16.72 89.4266 16.58 90.0666 16.58C90.6986 16.58 91.2626 16.72 91.7586 17C92.2626 17.272 92.6546 17.652 92.9346 18.14C93.2226 18.62 93.3666 19.18 93.3666 19.82C93.3666 20.452 93.2226 21.012 92.9346 21.5C92.6546 21.988 92.2626 22.372 91.7586 22.652C91.2626 22.932 90.6986 23.072 90.0666 23.072ZM90.0666 22.064C90.4746 22.064 90.8386 21.972 91.1586 21.788C91.4866 21.604 91.7426 21.344 91.9266 21.008C92.1106 20.664 92.2026 20.268 92.2026 19.82C92.2026 19.364 92.1106 18.972 91.9266 18.644C91.7426 18.308 91.4866 18.048 91.1586 17.864C90.8386 17.68 90.4746 17.588 90.0666 17.588C89.6586 17.588 89.2946 17.68 88.9746 17.864C88.6546 18.048 88.3986 18.308 88.2066 18.644C88.0146 18.972 87.9186 19.364 87.9186 19.82C87.9186 20.268 88.0146 20.664 88.2066 21.008C88.3986 21.344 88.6546 21.604 88.9746 21.788C89.2946 21.972 89.6586 22.064 90.0666 22.064ZM95.0301 23V16.64H97.9821C98.7261 16.64 99.3101 16.784 99.7341 17.072C100.166 17.352 100.382 17.752 100.382 18.272C100.382 18.792 100.178 19.196 99.7701 19.484C99.3701 19.764 98.8381 19.904 98.1741 19.904L98.3541 19.592C99.1141 19.592 99.6781 19.732 100.046 20.012C100.414 20.292 100.598 20.704 100.598 21.248C100.598 21.8 100.39 22.232 99.9741 22.544C99.5661 22.848 98.9381 23 98.0901 23H95.0301ZM96.1581 22.112H98.0061C98.4861 22.112 98.8461 22.04 99.0861 21.896C99.3261 21.744 99.4461 21.504 99.4461 21.176C99.4461 20.84 99.3341 20.596 99.1101 20.444C98.8941 20.284 98.5501 20.204 98.0781 20.204H96.1581V22.112ZM96.1581 19.376H97.8861C98.3261 19.376 98.6581 19.296 98.8821 19.136C99.1141 18.968 99.2301 18.736 99.2301 18.44C99.2301 18.136 99.1141 17.908 98.8821 17.756C98.6581 17.604 98.3261 17.528 97.8861 17.528H96.1581V19.376ZM101.921 24.776L102.521 22.352L102.677 23.048C102.445 23.048 102.249 22.976 102.089 22.832C101.937 22.688 101.861 22.492 101.861 22.244C101.861 22.004 101.937 21.808 102.089 21.656C102.249 21.504 102.441 21.428 102.665 21.428C102.897 21.428 103.085 21.508 103.229 21.668C103.373 21.82 103.445 22.012 103.445 22.244C103.445 22.324 103.437 22.404 103.421 22.484C103.413 22.556 103.393 22.644 103.361 22.748C103.337 22.844 103.297 22.964 103.241 23.108L102.677 24.776H101.921ZM108.343 23V16.64H109.531L112.267 21.344H111.787L114.595 16.64H115.675V23H114.631V17.936L114.823 18.044L112.255 22.28H111.751L109.171 17.96L109.399 17.912V23H108.343ZM121.817 23V21.656L121.757 21.404V19.112C121.757 18.624 121.613 18.248 121.325 17.984C121.045 17.712 120.621 17.576 120.053 17.576C119.677 17.576 119.309 17.64 118.949 17.768C118.589 17.888 118.285 18.052 118.037 18.26L117.557 17.396C117.885 17.132 118.277 16.932 118.733 16.796C119.197 16.652 119.681 16.58 120.185 16.58C121.057 16.58 121.729 16.792 122.201 17.216C122.673 17.64 122.909 18.288 122.909 19.16V23H121.817ZM119.729 23.072C119.257 23.072 118.841 22.992 118.481 22.832C118.129 22.672 117.857 22.452 117.665 22.172C117.473 21.884 117.377 21.56 117.377 21.2C117.377 20.856 117.457 20.544 117.617 20.264C117.785 19.984 118.053 19.76 118.421 19.592C118.797 19.424 119.301 19.34 119.933 19.34H121.949V20.168H119.981C119.405 20.168 119.017 20.264 118.817 20.456C118.617 20.648 118.517 20.88 118.517 21.152C118.517 21.464 118.641 21.716 118.889 21.908C119.137 22.092 119.481 22.184 119.921 22.184C120.353 22.184 120.729 22.088 121.049 21.896C121.377 21.704 121.613 21.424 121.757 21.056L121.985 21.848C121.833 22.224 121.565 22.524 121.181 22.748C120.797 22.964 120.313 23.072 119.729 23.072ZM128.355 23.072C127.827 23.072 127.343 22.952 126.903 22.712C126.471 22.464 126.123 22.1 125.859 21.62C125.603 21.14 125.475 20.54 125.475 19.82C125.475 19.1 125.599 18.5 125.847 18.02C126.103 17.54 126.447 17.18 126.879 16.94C127.319 16.7 127.811 16.58 128.355 16.58C128.979 16.58 129.531 16.716 130.011 16.988C130.491 17.26 130.871 17.64 131.151 18.128C131.431 18.608 131.571 19.172 131.571 19.82C131.571 20.468 131.431 21.036 131.151 21.524C130.871 22.012 130.491 22.392 130.011 22.664C129.531 22.936 128.979 23.072 128.355 23.072ZM124.983 25.328V16.64H126.087V18.356L126.015 19.832L126.135 21.308V25.328H124.983ZM128.259 22.064C128.667 22.064 129.031 21.972 129.351 21.788C129.679 21.604 129.935 21.344 130.119 21.008C130.311 20.664 130.407 20.268 130.407 19.82C130.407 19.364 130.311 18.972 130.119 18.644C129.935 18.308 129.679 18.048 129.351 17.864C129.031 17.68 128.667 17.588 128.259 17.588C127.859 17.588 127.495 17.68 127.167 17.864C126.847 18.048 126.591 18.308 126.399 18.644C126.215 18.972 126.123 19.364 126.123 19.82C126.123 20.268 126.215 20.664 126.399 21.008C126.591 21.344 126.847 21.604 127.167 21.788C127.495 21.972 127.859 22.064 128.259 22.064ZM137.853 23L135.393 19.904L136.341 19.328L139.209 23H137.853ZM133.245 23V16.64H134.397V23H133.245ZM134.049 20.312V19.328H136.149V20.312H134.049ZM136.437 19.952L135.369 19.808L137.805 16.64H139.041L136.437 19.952ZM143.038 23.072C142.358 23.072 141.758 22.932 141.238 22.652C140.726 22.372 140.326 21.988 140.038 21.5C139.758 21.012 139.618 20.452 139.618 19.82C139.618 19.188 139.754 18.628 140.026 18.14C140.306 17.652 140.686 17.272 141.166 17C141.654 16.72 142.202 16.58 142.81 16.58C143.426 16.58 143.97 16.716 144.442 16.988C144.914 17.26 145.282 17.644 145.546 18.14C145.818 18.628 145.954 19.2 145.954 19.856C145.954 19.904 145.95 19.96 145.942 20.024C145.942 20.088 145.938 20.148 145.93 20.204H140.518V19.376H145.33L144.862 19.664C144.87 19.256 144.786 18.892 144.61 18.572C144.434 18.252 144.19 18.004 143.878 17.828C143.574 17.644 143.218 17.552 142.81 17.552C142.41 17.552 142.054 17.644 141.742 17.828C141.43 18.004 141.186 18.256 141.01 18.584C140.834 18.904 140.746 19.272 140.746 19.688V19.88C140.746 20.304 140.842 20.684 141.034 21.02C141.234 21.348 141.51 21.604 141.862 21.788C142.214 21.972 142.618 22.064 143.074 22.064C143.45 22.064 143.79 22 144.094 21.872C144.406 21.744 144.678 21.552 144.91 21.296L145.546 22.04C145.258 22.376 144.898 22.632 144.466 22.808C144.042 22.984 143.566 23.072 143.038 23.072ZM148.731 23V17.348L149.019 17.648H146.403V16.64H152.211V17.648H149.607L149.883 17.348V23H148.731ZM155.832 23.072C155.192 23.072 154.624 22.932 154.128 22.652C153.632 22.372 153.24 21.988 152.952 21.5C152.664 21.004 152.52 20.444 152.52 19.82C152.52 19.188 152.664 18.628 152.952 18.14C153.24 17.652 153.632 17.272 154.128 17C154.624 16.72 155.192 16.58 155.832 16.58C156.464 16.58 157.028 16.72 157.524 17C158.028 17.272 158.42 17.652 158.7 18.14C158.988 18.62 159.132 19.18 159.132 19.82C159.132 20.452 158.988 21.012 158.7 21.5C158.42 21.988 158.028 22.372 157.524 22.652C157.028 22.932 156.464 23.072 155.832 23.072ZM155.832 22.064C156.24 22.064 156.604 21.972 156.924 21.788C157.252 21.604 157.508 21.344 157.692 21.008C157.876 20.664 157.968 20.268 157.968 19.82C157.968 19.364 157.876 18.972 157.692 18.644C157.508 18.308 157.252 18.048 156.924 17.864C156.604 17.68 156.24 17.588 155.832 17.588C155.424 17.588 155.06 17.68 154.74 17.864C154.42 18.048 154.164 18.308 153.972 18.644C153.78 18.972 153.684 19.364 153.684 19.82C153.684 20.268 153.78 20.664 153.972 21.008C154.164 21.344 154.42 21.604 154.74 21.788C155.06 21.972 155.424 22.064 155.832 22.064ZM160.796 23V16.64H163.748C164.492 16.64 165.076 16.784 165.5 17.072C165.932 17.352 166.148 17.752 166.148 18.272C166.148 18.792 165.944 19.196 165.536 19.484C165.136 19.764 164.604 19.904 163.94 19.904L164.12 19.592C164.88 19.592 165.444 19.732 165.812 20.012C166.18 20.292 166.364 20.704 166.364 21.248C166.364 21.8 166.156 22.232 165.74 22.544C165.332 22.848 164.704 23 163.856 23H160.796ZM161.924 22.112H163.772C164.252 22.112 164.612 22.04 164.852 21.896C165.092 21.744 165.212 21.504 165.212 21.176C165.212 20.84 165.1 20.596 164.876 20.444C164.66 20.284 164.316 20.204 163.844 20.204H161.924V22.112ZM161.924 19.376H163.652C164.092 19.376 164.424 19.296 164.648 19.136C164.88 18.968 164.996 18.736 164.996 18.44C164.996 18.136 164.88 17.908 164.648 17.756C164.424 17.604 164.092 17.528 163.652 17.528H161.924V19.376ZM167.687 24.776L168.287 22.352L168.443 23.048C168.211 23.048 168.015 22.976 167.855 22.832C167.703 22.688 167.627 22.492 167.627 22.244C167.627 22.004 167.703 21.808 167.855 21.656C168.015 21.504 168.207 21.428 168.431 21.428C168.663 21.428 168.851 21.508 168.995 21.668C169.139 21.82 169.211 22.012 169.211 22.244C169.211 22.324 169.203 22.404 169.187 22.484C169.179 22.556 169.159 22.644 169.127 22.748C169.103 22.844 169.063 22.964 169.007 23.108L168.443 24.776H167.687ZM176.832 23.072C176.192 23.072 175.624 22.932 175.128 22.652C174.632 22.372 174.24 21.988 173.952 21.5C173.664 21.004 173.52 20.444 173.52 19.82C173.52 19.188 173.664 18.628 173.952 18.14C174.24 17.652 174.632 17.272 175.128 17C175.624 16.72 176.192 16.58 176.832 16.58C177.464 16.58 178.028 16.72 178.524 17C179.028 17.272 179.42 17.652 179.7 18.14C179.988 18.62 180.132 19.18 180.132 19.82C180.132 20.452 179.988 21.012 179.7 21.5C179.42 21.988 179.028 22.372 178.524 22.652C178.028 22.932 177.464 23.072 176.832 23.072ZM176.832 22.064C177.24 22.064 177.604 21.972 177.924 21.788C178.252 21.604 178.508 21.344 178.692 21.008C178.876 20.664 178.968 20.268 178.968 19.82C178.968 19.364 178.876 18.972 178.692 18.644C178.508 18.308 178.252 18.048 177.924 17.864C177.604 17.68 177.24 17.588 176.832 17.588C176.424 17.588 176.06 17.68 175.74 17.864C175.42 18.048 175.164 18.308 174.972 18.644C174.78 18.972 174.684 19.364 174.684 19.82C174.684 20.268 174.78 20.664 174.972 21.008C175.164 21.344 175.42 21.604 175.74 21.788C176.06 21.972 176.424 22.064 176.832 22.064ZM181.796 23V16.64H187.688V23H186.536V17.36L186.812 17.648H182.672L182.948 17.36V23H181.796ZM191.177 23V17.348L191.465 17.648H188.849V16.64H194.657V17.648H192.053L192.329 17.348V23H191.177ZM198.278 23.072C197.638 23.072 197.07 22.932 196.574 22.652C196.078 22.372 195.686 21.988 195.398 21.5C195.11 21.004 194.966 20.444 194.966 19.82C194.966 19.188 195.11 18.628 195.398 18.14C195.686 17.652 196.078 17.272 196.574 17C197.07 16.72 197.638 16.58 198.278 16.58C198.91 16.58 199.474 16.72 199.97 17C200.474 17.272 200.866 17.652 201.146 18.14C201.434 18.62 201.578 19.18 201.578 19.82C201.578 20.452 201.434 21.012 201.146 21.5C200.866 21.988 200.474 22.372 199.97 22.652C199.474 22.932 198.91 23.072 198.278 23.072ZM198.278 22.064C198.686 22.064 199.05 21.972 199.37 21.788C199.698 21.604 199.954 21.344 200.138 21.008C200.322 20.664 200.414 20.268 200.414 19.82C200.414 19.364 200.322 18.972 200.138 18.644C199.954 18.308 199.698 18.048 199.37 17.864C199.05 17.68 198.686 17.588 198.278 17.588C197.87 17.588 197.506 17.68 197.186 17.864C196.866 18.048 196.61 18.308 196.418 18.644C196.226 18.972 196.13 19.364 196.13 19.82C196.13 20.268 196.226 20.664 196.418 21.008C196.61 21.344 196.866 21.604 197.186 21.788C197.506 21.972 197.87 22.064 198.278 22.064ZM203.241 23V16.64H206.193C206.937 16.64 207.521 16.784 207.945 17.072C208.377 17.352 208.593 17.752 208.593 18.272C208.593 18.792 208.389 19.196 207.981 19.484C207.581 19.764 207.049 19.904 206.385 19.904L206.565 19.592C207.325 19.592 207.889 19.732 208.257 20.012C208.625 20.292 208.809 20.704 208.809 21.248C208.809 21.8 208.601 22.232 208.185 22.544C207.777 22.848 207.149 23 206.301 23H203.241ZM204.369 22.112H206.217C206.697 22.112 207.057 22.04 207.297 21.896C207.537 21.744 207.657 21.504 207.657 21.176C207.657 20.84 207.545 20.596 207.321 20.444C207.105 20.284 206.761 20.204 206.289 20.204H204.369V22.112ZM204.369 19.376H206.097C206.537 19.376 206.869 19.296 207.093 19.136C207.325 18.968 207.441 18.736 207.441 18.44C207.441 18.136 207.325 17.908 207.093 17.756C206.869 17.604 206.537 17.528 206.097 17.528H204.369V19.376ZM210.612 23V16.64H211.764V21.272L215.664 16.64H216.708V23H215.556V18.368L211.668 23H210.612ZM223.552 23L221.092 19.904L222.04 19.328L224.908 23H223.552ZM218.944 23V16.64H220.096V23H218.944ZM219.748 20.312V19.328H221.848V20.312H219.748ZM222.136 19.952L221.068 19.808L223.504 16.64H224.74L222.136 19.952ZM228.629 23.072C227.989 23.072 227.421 22.932 226.925 22.652C226.429 22.372 226.037 21.988 225.749 21.5C225.461 21.004 225.317 20.444 225.317 19.82C225.317 19.188 225.461 18.628 225.749 18.14C226.037 17.652 226.429 17.272 226.925 17C227.421 16.72 227.989 16.58 228.629 16.58C229.261 16.58 229.825 16.72 230.321 17C230.825 17.272 231.217 17.652 231.497 18.14C231.785 18.62 231.929 19.18 231.929 19.82C231.929 20.452 231.785 21.012 231.497 21.5C231.217 21.988 230.825 22.372 230.321 22.652C229.825 22.932 229.261 23.072 228.629 23.072ZM228.629 22.064C229.037 22.064 229.401 21.972 229.721 21.788C230.049 21.604 230.305 21.344 230.489 21.008C230.673 20.664 230.765 20.268 230.765 19.82C230.765 19.364 230.673 18.972 230.489 18.644C230.305 18.308 230.049 18.048 229.721 17.864C229.401 17.68 229.037 17.588 228.629 17.588C228.221 17.588 227.857 17.68 227.537 17.864C227.217 18.048 226.961 18.308 226.769 18.644C226.577 18.972 226.481 19.364 226.481 19.82C226.481 20.268 226.577 20.664 226.769 21.008C226.961 21.344 227.217 21.604 227.537 21.788C227.857 21.972 228.221 22.064 228.629 22.064ZM233.593 23V16.64H236.545C237.289 16.64 237.873 16.784 238.297 17.072C238.729 17.352 238.945 17.752 238.945 18.272C238.945 18.792 238.741 19.196 238.333 19.484C237.933 19.764 237.401 19.904 236.737 19.904L236.917 19.592C237.677 19.592 238.241 19.732 238.609 20.012C238.977 20.292 239.161 20.704 239.161 21.248C239.161 21.8 238.953 22.232 238.537 22.544C238.129 22.848 237.501 23 236.653 23H233.593ZM234.721 22.112H236.569C237.049 22.112 237.409 22.04 237.649 21.896C237.889 21.744 238.009 21.504 238.009 21.176C238.009 20.84 237.897 20.596 237.673 20.444C237.457 20.284 237.113 20.204 236.641 20.204H234.721V22.112ZM234.721 19.376H236.449C236.889 19.376 237.221 19.296 237.445 19.136C237.677 18.968 237.793 18.736 237.793 18.44C237.793 18.136 237.677 17.908 237.445 17.756C237.221 17.604 236.889 17.528 236.449 17.528H234.721V19.376Z" fill="white"/>
</svg>
