<svg width="119" height="44" fill="none" xmlns="http://www.w3.org/2000/svg"><path d="M.758 7V0h6.03v7h-.98V.61l.24.26h-4.55l.25-.26V7h-.99zm10.323.06c-.534 0-1.007-.117-1.42-.35a2.605 2.605 0 01-.98-.96c-.24-.413-.36-.88-.36-1.4 0-.527.12-.993.36-1.4.24-.407.567-.723.98-.95.413-.233.886-.35 1.42-.35.527 0 .997.117 1.41.35.42.227.747.543.98.95.24.4.36.867.36 1.4 0 .527-.12.993-.36 1.4-.233.407-.56.727-.98.96a2.82 2.82 0 01-1.41.35zm0-.84c.34 0 .643-.077.91-.23.273-.153.486-.37.64-.65.153-.287.23-.617.23-.99 0-.38-.077-.707-.23-.98a1.624 1.624 0 00-.64-.65 1.793 1.793 0 00-.91-.23c-.34 0-.643.077-.91.23-.267.153-.48.37-.64.65-.16.273-.24.6-.24.98 0 .373.08.703.24.99.16.28.373.497.64.65.267.153.57.23.91.23zm6.446.84c-.54 0-1.023-.117-1.45-.35a2.585 2.585 0 01-.99-.96 2.702 2.702 0 01-.36-1.4c0-.527.12-.993.36-1.4.24-.407.57-.723.99-.95.427-.233.91-.35 1.45-.35.48 0 .907.097 1.28.29.38.187.673.467.88.84l-.73.47a1.58 1.58 0 00-.64-.57 1.726 1.726 0 00-.8-.19 1.87 1.87 0 00-.93.23c-.273.153-.49.37-.65.65-.16.273-.24.6-.24.98s.08.71.24.99c.16.28.377.497.65.65.273.153.583.23.93.23.287 0 .553-.06.8-.18a1.66 1.66 0 00.64-.58l.73.46c-.207.367-.5.65-.88.85-.373.193-.8.29-1.28.29zM21.912 7V2.29l.24.25h-2.18V1.7h4.84v.84h-2.17l.23-.25V7h-.96zm7.131 0V5.88l-.05-.21V3.76c0-.407-.12-.72-.36-.94-.233-.227-.586-.34-1.06-.34-.313 0-.62.053-.92.16a2.3 2.3 0 00-.76.41l-.4-.72c.274-.22.6-.387.98-.5.387-.12.79-.18 1.21-.18.727 0 1.287.177 1.68.53.394.353.59.893.59 1.62V7h-.91zm-1.74.06c-.393 0-.74-.067-1.04-.2a1.606 1.606 0 01-.68-.55c-.16-.24-.24-.51-.24-.81 0-.287.067-.547.2-.78.14-.233.364-.42.67-.56.314-.14.734-.21 1.26-.21h1.68v.69h-1.64c-.48 0-.803.08-.97.24a.774.774 0 00-.25.58c0 .26.104.47.31.63.207.153.494.23.86.23.36 0 .674-.08.94-.24.274-.16.47-.393.59-.7l.19.66c-.126.313-.35.563-.67.75-.32.18-.723.27-1.21.27zM31.682 7V1.7h2.46c.62 0 1.107.12 1.46.36.36.233.54.567.54 1 0 .433-.17.77-.51 1.01-.333.233-.777.35-1.33.35l.15-.26c.633 0 1.103.117 1.41.35.307.233.46.577.46 1.03 0 .46-.173.82-.52 1.08-.34.253-.863.38-1.57.38h-2.55zm.94-.74h1.54c.4 0 .7-.06.9-.18.2-.127.3-.327.3-.6 0-.28-.093-.483-.28-.61-.18-.133-.467-.2-.86-.2h-1.6v1.59zm0-2.28h1.44c.367 0 .643-.067.83-.2a.677.677 0 00.29-.58c0-.253-.097-.443-.29-.57-.187-.127-.463-.19-.83-.19h-1.44v1.54zM41.664 7l-2.05-2.58.79-.48L42.794 7h-1.13zm-3.84 0V1.7h.96V7h-.96zm.67-2.24v-.82h1.75v.82h-1.75zm1.99-.3l-.89-.12 2.03-2.64h1.03l-2.17 2.76zM43.801 7V1.7h.96v3.86l3.25-3.86h.87V7h-.96V3.14L44.681 7h-.88zm9.629 0V1.7h4.91V7h-.96V2.3l.23.24h-3.45l.23-.24V7h-.96zm9.578.06c-.44 0-.844-.1-1.21-.3-.36-.207-.65-.51-.87-.91-.214-.4-.32-.9-.32-1.5s.103-1.1.31-1.5c.213-.4.5-.7.86-.9.366-.2.776-.3 1.23-.3.52 0 .98.113 1.38.34.4.227.716.543.95.95.233.4.35.87.35 1.41 0 .54-.117 1.013-.35 1.42a2.5 2.5 0 01-.95.95c-.4.227-.86.34-1.38.34zm-2.81 1.88V1.7h.92v1.43l-.06 1.23.1 1.23v3.35h-.96zm2.73-2.72c.34 0 .643-.077.91-.23.273-.153.486-.37.64-.65.16-.287.24-.617.24-.99 0-.38-.08-.707-.24-.98a1.624 1.624 0 00-.64-.65 1.793 1.793 0 00-.91-.23c-.334 0-.637.077-.91.23-.267.153-.48.37-.64.65-.154.273-.23.6-.23.98 0 .373.076.703.23.99.16.28.373.497.64.65.273.153.576.23.91.23zm6.424.84a2.844 2.844 0 01-1.42-.35 2.605 2.605 0 01-.98-.96c-.24-.413-.36-.88-.36-1.4 0-.527.12-.993.36-1.4.24-.407.567-.723.98-.95.414-.233.887-.35 1.42-.35.527 0 .997.117 1.41.35.42.227.747.543.98.95.24.4.36.867.36 1.4 0 .527-.12.993-.36 1.4-.233.407-.56.727-.98.96a2.82 2.82 0 01-1.41.35zm0-.84c.34 0 .644-.077.91-.23.274-.153.487-.37.64-.65.154-.287.23-.617.23-.99 0-.38-.076-.707-.23-.98a1.623 1.623 0 00-.64-.65 1.792 1.792 0 00-.91-.23c-.34 0-.643.077-.91.23-.266.153-.48.37-.64.65-.16.273-.24.6-.24.98 0 .373.08.703.24.99.16.28.374.497.64.65.267.153.57.23.91.23zm7.718.33V2.54h-2.3l-.05 1.02c-.014.333-.037.657-.07.97-.027.307-.074.59-.14.85-.06.26-.15.473-.27.64a.755.755 0 01-.48.31l-.95-.17a.613.613 0 00.5-.2c.126-.147.223-.347.29-.6.073-.253.126-.54.16-.86.033-.327.06-.663.08-1.01l.08-1.79h4.11v4.85h-.96zM72.6 8.23V6.16h6.24v2.07h-.9V7h-4.43v1.23h-.91zm7.76.77c-.253 0-.5-.043-.74-.13-.24-.08-.447-.2-.62-.36l.41-.72c.133.127.28.223.44.29.16.067.33.1.51.1a.91.91 0 00.58-.18c.154-.12.297-.333.43-.64l.33-.73.1-.12 2.08-4.81h.94l-2.57 5.83c-.153.373-.326.667-.52.88a1.574 1.574 0 01-.62.45 1.96 1.96 0 01-.75.14zm1.26-1.83L79.2 1.7h1l2.06 4.72-.64.75zM89.643 7l-2.05-2.58.79-.48L90.773 7h-1.13zm-3.84 0V1.7h.96V7h-.96zm.67-2.24v-.82h1.75v.82h-1.75zm1.99-.3l-.89-.12 2.03-2.64h1.03l-2.17 2.76zM92.742 7V2.29l.24.25h-2.18V1.7h4.84v.84h-2.17l.23-.25V7h-.96zm5.917.06a2.842 2.842 0 01-1.42-.35 2.605 2.605 0 01-.98-.96c-.24-.413-.36-.88-.36-1.4 0-.527.12-.993.36-1.4.24-.407.567-.723.98-.95.413-.233.887-.35 1.42-.35.527 0 .997.117 1.41.35.42.227.747.543.98.95.24.4.36.867.36 1.4 0 .527-.12.993-.36 1.4a2.51 2.51 0 01-.98.96 2.82 2.82 0 01-1.41.35zm0-.84c.34 0 .643-.077.91-.23.273-.153.487-.37.64-.65a2.07 2.07 0 00.23-.99c0-.38-.077-.707-.23-.98a1.621 1.621 0 00-.64-.65 1.793 1.793 0 00-.91-.23c-.34 0-.643.077-.91.23-.267.153-.48.37-.64.65-.16.273-.24.6-.24.98 0 .373.08.703.24.99.16.28.373.497.64.65.267.153.57.23.91.23zm4.136.78V1.7h2.46c.62 0 1.107.12 1.46.36.36.233.54.567.54 1 0 .433-.17.77-.51 1.01-.333.233-.776.35-1.33.35l.15-.26c.634 0 1.104.117 1.41.35.307.233.46.577.46 1.03 0 .46-.173.82-.52 1.08-.34.253-.863.38-1.57.38h-2.55zm.94-.74h1.54c.4 0 .7-.06.9-.18.2-.127.3-.327.3-.6 0-.28-.093-.483-.28-.61-.18-.133-.466-.2-.86-.2h-1.6v1.59zm0-2.28h1.44c.367 0 .644-.067.83-.2a.675.675 0 00.29-.58c0-.253-.096-.443-.29-.57-.186-.127-.463-.19-.83-.19h-1.44v1.54zM.598 19v-5.3h4.91V19h-.96v-4.7l.23.24h-3.45l.23-.24V19h-.96zm6.768 0v-5.3h.96v3.86l3.25-3.86h.87V19h-.96v-3.86L8.245 19h-.88zm7.993 0v-4.71l.24.25h-2.18v-.84h4.84v.84h-2.17l.23-.25V19h-.96zm7.132 0v-1.12l-.05-.21v-1.91c0-.407-.12-.72-.36-.94-.234-.227-.587-.34-1.06-.34-.314 0-.62.053-.92.16a2.3 2.3 0 00-.76.41l-.4-.72c.273-.22.6-.387.98-.5.386-.12.79-.18 1.21-.18.726 0 1.286.177 1.68.53.393.353.59.893.59 1.62V19h-.91zm-1.74.06a2.54 2.54 0 01-1.04-.2 1.606 1.606 0 01-.68-.55c-.16-.24-.24-.51-.24-.81 0-.287.066-.547.2-.78.14-.233.363-.42.67-.56.313-.14.733-.21 1.26-.21h1.68v.69h-1.64c-.48 0-.804.08-.97.24a.775.775 0 00-.25.58c0 .26.103.47.31.63.206.153.493.23.86.23.36 0 .673-.08.94-.24.273-.16.47-.393.59-.7l.19.66c-.127.313-.35.563-.67.75-.32.18-.724.27-1.21.27zm4.378-.06v-5.3h.96v2.25h3.02V13.7h.96V19h-.96v-2.22h-3.02V19h-.96zm6.807 0v-5.3h.96v3.86l3.25-3.86h.87V19h-.96v-3.86L32.816 19h-.88zm10.333 0v-1.86l.15.18h-1.69c-.706 0-1.26-.15-1.66-.45-.393-.3-.59-.737-.59-1.31 0-.613.21-1.077.63-1.39.427-.313.994-.47 1.7-.47h2.32V19h-.86zm-3.84 0l1.44-2.03h.99L39.46 19h-1.03zm3.84-2.16v-2.57l.15.27h-1.58c-.44 0-.78.083-1.02.25-.24.16-.36.427-.36.8 0 .693.447 1.04 1.34 1.04h1.62l-.15.21zm7.689 2.22a2.842 2.842 0 01-1.42-.35 2.605 2.605 0 01-.98-.96c-.24-.413-.36-.88-.36-1.4 0-.527.12-.993.36-1.4.24-.407.566-.723.98-.95.413-.233.887-.35 1.42-.35.526 0 .997.117 1.41.35.42.227.746.543.98.95.24.4.36.867.36 1.4 0 .527-.12.993-.36 1.4-.233.407-.56.727-.98.96-.413.233-.884.35-1.41.35zm0-.84c.34 0 .643-.077.91-.23.273-.153.486-.37.64-.65.153-.287.23-.617.23-.99 0-.38-.077-.707-.23-.98a1.623 1.623 0 00-.64-.65 1.793 1.793 0 00-.91-.23c-.34 0-.643.077-.91.23-.267.153-.48.37-.64.65-.16.273-.24.6-.24.98 0 .373.08.703.24.99.16.28.373.497.64.65.267.153.57.23.91.23zm4.136.78v-5.3h4.91V19h-.96v-4.7l.23.24h-3.45l.23-.24V19h-.96zm7.818 0v-4.71l.24.25h-2.18v-.84h4.84v.84h-2.17l.23-.25V19h-.96zm5.917.06a2.842 2.842 0 01-1.42-.35 2.605 2.605 0 01-.98-.96c-.24-.413-.36-.88-.36-1.4 0-.527.12-.993.36-1.4.24-.407.567-.723.98-.95.413-.233.887-.35 1.42-.35.527 0 .997.117 1.41.35.42.227.747.543.98.95.24.4.36.867.36 1.4 0 .527-.12.993-.36 1.4-.233.407-.56.727-.98.96a2.82 2.82 0 01-1.41.35zm0-.84c.34 0 .643-.077.91-.23.273-.153.487-.37.64-.65.153-.287.23-.617.23-.99 0-.38-.077-.707-.23-.98a1.623 1.623 0 00-.64-.65 1.793 1.793 0 00-.91-.23c-.34 0-.643.077-.91.23-.267.153-.48.37-.64.65-.16.273-.24.6-.24.98 0 .373.08.703.24.99.16.28.373.497.64.65.267.153.57.23.91.23zm4.136.78v-5.3h.99l2.28 3.92h-.4l2.34-3.92h.9V19h-.87v-4.22l.16.09-2.14 3.53h-.42l-2.15-3.6.19-.04V19h-.88zm14.284-.45v-4.01h-2.3l-.05 1.02c-.013.333-.036.657-.07.97-.026.307-.073.59-.14.85-.06.26-.15.473-.27.64a.754.754 0 01-.48.31l-.95-.17a.613.613 0 00.5-.2c.127-.147.224-.347.29-.6a4.85 4.85 0 00.16-.86c.034-.327.06-.663.08-1.01l.08-1.79h4.11v4.85h-.96zm-4.47 1.68v-2.07h6.24v2.07h-.9V19h-4.43v1.23h-.91zm6.61-1.24l.06-.81.13.02a.67.67 0 00.11.01.61.61 0 00.5-.22c.128-.147.22-.34.28-.58a5.56 5.56 0 00.13-.83c.027-.307.047-.613.06-.92l.09-1.96h4.07V19h-.96v-4.74l.23.28h-2.72l.22-.29-.07 1.47a14.8 14.8 0 01-.11 1.31 4.951 4.951 0 01-.25 1.07c-.106.307-.256.547-.45.72-.186.173-.43.26-.73.26-.086 0-.18-.01-.28-.03a3.551 3.551 0 01-.31-.06zm10.677.01v-1.86l.15.18h-1.69c-.707 0-1.26-.15-1.66-.45-.393-.3-.59-.737-.59-1.31 0-.613.21-1.077.63-1.39.427-.313.993-.47 1.7-.47h2.32V19h-.86zm-3.84 0l1.44-2.03h.99l-1.4 2.03h-1.03zm3.84-2.16v-2.57l.15.27h-1.58c-.44 0-.78.083-1.02.25-.24.16-.36.427-.36.8 0 .693.447 1.04 1.34 1.04h1.62l-.15.21zM3.408 31.06c-.44 0-.843-.1-1.21-.3-.36-.207-.65-.51-.87-.91-.213-.4-.32-.9-.32-1.5s.103-1.1.31-1.5c.213-.4.5-.7.86-.9.367-.2.777-.3 1.23-.3.52 0 .98.113 1.38.34.4.227.717.543.95.95.233.4.35.87.35 1.41 0 .54-.117 1.013-.35 1.42a2.5 2.5 0 01-.95.95c-.4.227-.86.34-1.38.34zm-2.81 1.88V25.7h.92v1.43l-.06 1.23.1 1.23v3.35h-.96zm2.73-2.72c.34 0 .643-.077.91-.23.273-.153.487-.37.64-.65.16-.287.24-.617.24-.99 0-.38-.08-.707-.24-.98a1.623 1.623 0 00-.64-.65 1.793 1.793 0 00-.91-.23c-.333 0-.637.077-.91.23-.267.153-.48.37-.64.65-.153.273-.23.6-.23.98 0 .373.077.703.23.99.16.28.373.497.64.65.273.153.577.23.91.23zm6.515.84c-.567 0-1.067-.117-1.5-.35a2.566 2.566 0 01-1-.96c-.234-.407-.35-.873-.35-1.4 0-.527.113-.993.34-1.4a2.5 2.5 0 01.95-.95c.406-.233.863-.35 1.37-.35.513 0 .966.113 1.36.34.393.227.7.547.92.96.226.407.34.883.34 1.43 0 .04-.004.087-.01.14 0 .053-.004.103-.01.15h-4.51v-.69h4.01l-.39.24a1.782 1.782 0 00-.21-.91 1.56 1.56 0 00-.61-.62 1.685 1.685 0 00-.89-.23c-.334 0-.63.077-.89.23-.26.147-.464.357-.61.63-.147.267-.22.573-.22.92v.16c0 .353.08.67.24.95.166.273.396.487.69.64.293.153.63.23 1.01.23.313 0 .596-.053.85-.16.26-.107.486-.267.68-.48l.53.62c-.24.28-.54.493-.9.64-.354.147-.75.22-1.19.22zm6.229 0c-.54 0-1.023-.117-1.45-.35a2.585 2.585 0 01-.99-.96 2.702 2.702 0 01-.36-1.4c0-.527.12-.993.36-1.4.24-.407.57-.723.99-.95.427-.233.91-.35 1.45-.35.48 0 .907.097 1.28.29.38.187.673.467.88.84l-.73.47a1.58 1.58 0 00-.64-.57 1.725 1.725 0 00-.8-.19 1.87 1.87 0 00-.93.23c-.273.153-.49.37-.65.65-.16.273-.24.6-.24.98s.08.71.24.99c.16.28.377.497.65.65.273.153.583.23.93.23.287 0 .553-.06.8-.18a1.66 1.66 0 00.64-.58l.73.46c-.207.367-.5.65-.88.85-.373.193-.8.29-1.28.29zm4.385-.06v-4.71l.24.25h-2.18v-.84h4.84v.84h-2.17l.23-.25V31h-.96zm5.917.06c-.534 0-1.007-.117-1.42-.35a2.605 2.605 0 01-.98-.96c-.24-.413-.36-.88-.36-1.4 0-.527.12-.993.36-1.4.24-.407.567-.723.98-.95.413-.233.886-.35 1.42-.35.527 0 .997.117 1.41.35.42.227.747.543.98.95.24.4.36.867.36 1.4 0 .527-.12.993-.36 1.4-.233.407-.56.727-.98.96a2.82 2.82 0 01-1.41.35zm0-.84c.34 0 .643-.077.91-.23.273-.153.486-.37.64-.65.153-.287.23-.617.23-.99 0-.38-.077-.707-.23-.98a1.622 1.622 0 00-.64-.65 1.793 1.793 0 00-.91-.23c-.34 0-.643.077-.91.23-.267.153-.48.37-.64.65-.16.273-.24.6-.24.98 0 .373.08.703.24.99.16.28.373.497.64.65.267.153.57.23.91.23zm6.946.84c-.44 0-.843-.1-1.21-.3-.36-.207-.65-.51-.87-.91-.213-.4-.32-.9-.32-1.5s.103-1.1.31-1.5c.213-.4.5-.7.86-.9.367-.2.777-.3 1.23-.3.52 0 .98.113 1.38.34.4.227.717.543.95.95.233.4.35.87.35 1.41 0 .54-.117 1.013-.35 1.42a2.5 2.5 0 01-.95.95c-.4.227-.86.34-1.38.34zm-2.81 1.88V25.7h.92v1.43l-.06 1.23.1 1.23v3.35h-.96zm2.73-2.72c.34 0 .643-.077.91-.23.273-.153.487-.37.64-.65.16-.287.24-.617.24-.99 0-.38-.08-.707-.24-.98a1.624 1.624 0 00-.64-.65 1.793 1.793 0 00-.91-.23c-.333 0-.637.077-.91.23-.267.153-.48.37-.64.65-.153.273-.23.6-.23.98 0 .373.077.703.23.99.16.28.373.497.64.65.273.153.577.23.91.23zm7.356.78v-1.12l-.05-.21v-1.91c0-.407-.12-.72-.36-.94-.233-.227-.587-.34-1.06-.34-.313 0-.62.053-.92.16-.3.1-.553.237-.76.41l-.4-.72c.273-.22.6-.387.98-.5.387-.12.79-.18 1.21-.18.727 0 1.287.177 1.68.53.393.353.59.893.59 1.62V31h-.91zm-1.74.06a2.54 2.54 0 01-1.04-.2 1.606 1.606 0 01-.68-.55c-.16-.24-.24-.51-.24-.81 0-.287.067-.547.2-.78.14-.233.363-.42.67-.56.313-.14.733-.21 1.26-.21h1.68v.69h-1.64c-.48 0-.803.08-.97.24a.774.774 0 00-.25.58c0 .26.103.47.31.63.207.153.493.23.86.23.36 0 .673-.08.94-.24.273-.16.47-.393.59-.7l.19.66c-.127.313-.35.563-.67.75-.32.18-.723.27-1.21.27zm4.379-.06v-5.3h.96v2.25h3.02V25.7h.96V31h-.96v-2.22h-3.02V31h-.96zm9.076.06a2.844 2.844 0 01-1.42-.35 2.605 2.605 0 01-.98-.96c-.24-.413-.36-.88-.36-1.4 0-.527.12-.993.36-1.4.24-.407.567-.723.98-.95.414-.233.887-.35 1.42-.35.527 0 .997.117 1.41.35.42.227.747.543.98.95.24.4.36.867.36 1.4 0 .527-.12.993-.36 1.4-.233.407-.56.727-.98.96a2.82 2.82 0 01-1.41.35zm0-.84c.34 0 .644-.077.91-.23.274-.153.487-.37.64-.65.154-.287.23-.617.23-.99 0-.38-.076-.707-.23-.98a1.622 1.622 0 00-.64-.65 1.793 1.793 0 00-.91-.23c-.34 0-.643.077-.91.23-.266.153-.48.37-.64.65-.16.273-.24.6-.24.98 0 .373.08.703.24.99.16.28.374.497.64.65.267.153.57.23.91.23zm4.137.78v-5.3h2.46c.62 0 1.106.12 1.46.36.36.233.54.567.54 1 0 .433-.17.77-.51 1.01-.334.233-.777.35-1.33.35l.15-.26c.633 0 1.103.117 1.41.35.306.233.46.577.46 1.03 0 .46-.174.82-.52 1.08-.34.253-.864.38-1.57.38h-2.55zm.94-.74h1.54c.4 0 .7-.06.9-.18.2-.127.3-.327.3-.6 0-.28-.094-.483-.28-.61-.18-.133-.467-.2-.86-.2h-1.6v1.59zm0-2.28h1.44c.366 0 .643-.067.83-.2a.677.677 0 00.29-.58c0-.253-.097-.443-.29-.57-.187-.127-.464-.19-.83-.19h-1.44v1.54zm4.802 4.5l.5-2.02.13.58a.706.706 0 01-.49-.18c-.127-.12-.19-.283-.19-.49 0-.2.063-.363.19-.49a.672.672 0 01.48-.19c.194 0 .35.067.47.2a.67.67 0 01.18.48c0 .067-.007.133-.02.2-.006.06-.023.133-.05.22-.02.08-.053.18-.1.3l-.47 1.39h-.63zM67.541 31v-5.3h.99l2.28 3.92h-.4l2.34-3.92h.9V31h-.87v-4.22l.16.09-2.14 3.53h-.42l-2.15-3.6.19-.04V31h-.88zm11.229 0v-1.12l-.05-.21v-1.91c0-.407-.12-.72-.36-.94-.234-.227-.587-.34-1.06-.34-.313 0-.62.053-.92.16-.3.1-.553.237-.76.41l-.4-.72c.273-.22.6-.387.98-.5.386-.12.79-.18 1.21-.18.727 0 1.287.177 1.68.53.393.353.59.893.59 1.62V31h-.91zm-1.74.06a2.54 2.54 0 01-1.04-.2 1.606 1.606 0 01-.68-.55c-.16-.24-.24-.51-.24-.81 0-.287.067-.547.2-.78.14-.233.363-.42.67-.56.313-.14.733-.21 1.26-.21h1.68v.69h-1.64c-.48 0-.803.08-.97.24a.775.775 0 00-.25.58c0 .26.103.47.31.63.207.153.493.23.86.23.36 0 .673-.08.94-.24.273-.16.47-.393.59-.7l.19.66c-.127.313-.35.563-.67.75-.32.18-.724.27-1.21.27zm7.189 0c-.44 0-.844-.1-1.21-.3-.36-.207-.65-.51-.87-.91-.214-.4-.32-.9-.32-1.5s.103-1.1.31-1.5c.213-.4.5-.7.86-.9.366-.2.776-.3 1.23-.3.52 0 .98.113 1.38.34.4.227.716.543.95.95.233.4.35.87.35 1.41 0 .54-.117 1.013-.35 1.42a2.5 2.5 0 01-.95.95c-.4.227-.86.34-1.38.34zm-2.81 1.88V25.7h.92v1.43l-.06 1.23.1 1.23v3.35h-.96zm2.73-2.72c.34 0 .643-.077.91-.23.273-.153.486-.37.64-.65.16-.287.24-.617.24-.99 0-.38-.08-.707-.24-.98a1.623 1.623 0 00-.64-.65 1.793 1.793 0 00-.91-.23c-.334 0-.637.077-.91.23-.267.153-.48.37-.64.65-.154.273-.23.6-.23.98 0 .373.076.703.23.99.16.28.373.497.64.65.273.153.576.23.91.23zm7.994.78l-2.05-2.58.79-.48 2.39 3.06h-1.13zm-3.84 0v-5.3h.96V31h-.96zm.67-2.24v-.82h1.75v.82h-1.75zm1.99-.3l-.89-.12 2.03-2.64h1.03l-2.17 2.76zm5.501 2.6c-.567 0-1.067-.117-1.5-.35a2.566 2.566 0 01-1-.96 2.766 2.766 0 01-.35-1.4c0-.527.113-.993.34-1.4a2.5 2.5 0 01.95-.95c.407-.233.863-.35 1.37-.35.513 0 .967.113 1.36.34.393.227.7.547.92.96.227.407.34.883.34 1.43 0 .04-.003.087-.01.14 0 .053-.003.103-.01.15h-4.51v-.69h4.01l-.39.24a1.784 1.784 0 00-.21-.91 1.56 1.56 0 00-.61-.62 1.686 1.686 0 00-.89-.23c-.333 0-.63.077-.89.23a1.55 1.55 0 00-.61.63c-.147.267-.22.573-.22.92v.16c0 .353.08.67.24.95.167.273.397.487.69.64.293.153.63.23 1.01.23.313 0 .597-.053.85-.16.26-.107.487-.267.68-.48l.53.62c-.24.28-.54.493-.9.64a3.07 3.07 0 01-1.19.22zM101.2 31v-4.71l.24.25h-2.18v-.84h4.84v.84h-2.17l.23-.25V31h-.96zm5.917.06a2.842 2.842 0 01-1.42-.35 2.607 2.607 0 01-.98-.96c-.24-.413-.36-.88-.36-1.4 0-.527.12-.993.36-1.4.24-.407.567-.723.98-.95.413-.233.887-.35 1.42-.35.527 0 .997.117 1.41.35.42.227.747.543.98.95.24.4.36.867.36 1.4 0 .527-.12.993-.36 1.4a2.51 2.51 0 01-.98.96 2.82 2.82 0 01-1.41.35zm0-.84c.34 0 .643-.077.91-.23.273-.153.487-.37.64-.65a2.07 2.07 0 00.23-.99c0-.38-.077-.707-.23-.98a1.623 1.623 0 00-.64-.65 1.794 1.794 0 00-.91-.23 1.71 1.71 0 00-1.55.88c-.16.273-.24.6-.24.98 0 .373.08.703.24.99a1.71 1.71 0 001.55.88zm4.136.78v-5.3h2.46c.62 0 1.107.12 1.46.36.36.233.54.567.54 1 0 .433-.17.77-.51 1.01-.333.233-.776.35-1.33.35l.15-.26c.634 0 1.104.117 1.41.35.307.233.46.577.46 1.03 0 .46-.173.82-.52 1.08-.34.253-.863.38-1.57.38h-2.55zm.94-.74h1.54c.4 0 .7-.06.9-.18.2-.127.3-.327.3-.6 0-.28-.093-.483-.28-.61-.18-.133-.466-.2-.86-.2h-1.6v1.59zm0-2.28h1.44c.367 0 .644-.067.83-.2a.675.675 0 00.29-.58c0-.253-.096-.443-.29-.57-.186-.127-.463-.19-.83-.19h-1.44v1.54zm4.803 4.5l.5-2.02.13.58a.706.706 0 01-.49-.18c-.127-.12-.19-.283-.19-.49 0-.2.063-.363.19-.49a.671.671 0 01.48-.19c.193 0 .35.067.47.2a.67.67 0 01.18.48c0 .067-.007.133-.02.2-.007.06-.023.133-.05.22-.02.08-.053.18-.1.3l-.47 1.39h-.63zM2.868 43.06a2.842 2.842 0 01-1.42-.35 2.605 2.605 0 01-.98-.96c-.24-.413-.36-.88-.36-1.4 0-.527.12-.993.36-1.4.24-.407.567-.723.98-.95.413-.233.887-.35 1.42-.35.527 0 .997.117 1.41.35.42.227.747.543.98.95.24.4.36.867.36 1.4 0 .527-.12.993-.36 1.4-.233.407-.56.727-.98.96a2.82 2.82 0 01-1.41.35zm0-.84c.34 0 .643-.077.91-.23.273-.153.487-.37.64-.65.153-.287.23-.617.23-.99 0-.38-.077-.707-.23-.98a1.623 1.623 0 00-.64-.65 1.793 1.793 0 00-.91-.23c-.34 0-.643.077-.91.23-.267.153-.48.37-.64.65-.16.273-.24.6-.24.98 0 .373.08.703.24.99.16.28.373.497.64.65.267.153.57.23.91.23zm4.136.78v-5.3h4.91V43h-.96v-4.7l.23.24h-3.45l.23-.24V43h-.96zm7.818 0v-4.71l.24.25h-2.18v-.84h4.84v.84h-2.17l.23-.25V43h-.96zm5.917.06a2.842 2.842 0 01-1.42-.35 2.604 2.604 0 01-.98-.96c-.24-.413-.36-.88-.36-1.4 0-.527.12-.993.36-1.4.24-.407.567-.723.98-.95.413-.233.887-.35 1.42-.35.527 0 .997.117 1.41.35.42.227.747.543.98.95.24.4.36.867.36 1.4 0 .527-.12.993-.36 1.4-.233.407-.56.727-.98.96a2.82 2.82 0 01-1.41.35zm0-.84c.34 0 .643-.077.91-.23.273-.153.487-.37.64-.65.153-.287.23-.617.23-.99 0-.38-.077-.707-.23-.98a1.624 1.624 0 00-.64-.65 1.793 1.793 0 00-.91-.23c-.34 0-.643.077-.91.23-.267.153-.48.37-.64.65-.16.273-.24.6-.24.98 0 .373.08.703.24.99.16.28.373.497.64.65.267.153.57.23.91.23zm4.136.78v-5.3h2.46c.62 0 1.107.12 1.46.36.36.233.54.567.54 1 0 .433-.17.77-.51 1.01-.333.233-.776.35-1.33.35l.15-.26c.634 0 1.104.117 1.41.35.307.233.46.577.46 1.03 0 .46-.173.82-.52 1.08-.34.253-.863.38-1.57.38h-2.55zm.94-.74h1.54c.4 0 .7-.06.9-.18.2-.127.3-.327.3-.6 0-.28-.093-.483-.28-.61-.18-.133-.466-.2-.86-.2h-1.6v1.59zm0-2.28h1.44c.367 0 .644-.067.83-.2a.677.677 0 00.29-.58c0-.253-.096-.443-.29-.57-.186-.127-.463-.19-.83-.19h-1.44v1.54zM31.018 43v-5.3h.96v3.86l3.25-3.86h.87V43h-.96v-3.86L31.898 43h-.88zM41.8 43l-2.05-2.58.79-.48L42.93 43H41.8zm-3.84 0v-5.3h.96V43h-.96zm.67-2.24v-.82h1.75v.82h-1.75zm1.99-.3l-.89-.12 2.03-2.64h1.03l-2.17 2.76zm5.411 2.6a2.842 2.842 0 01-1.42-.35 2.605 2.605 0 01-.98-.96c-.24-.413-.36-.88-.36-1.4 0-.527.12-.993.36-1.4.24-.407.567-.723.98-.95.413-.233.887-.35 1.42-.35.527 0 .997.117 1.41.35.42.227.747.543.98.95.24.4.36.867.36 1.4 0 .527-.12.993-.36 1.4-.233.407-.56.727-.98.96a2.82 2.82 0 01-1.41.35zm0-.84c.34 0 .643-.077.91-.23.273-.153.487-.37.64-.65.153-.287.23-.617.23-.99 0-.38-.077-.707-.23-.98a1.622 1.622 0 00-.64-.65 1.793 1.793 0 00-.91-.23c-.34 0-.643.077-.91.23-.267.153-.48.37-.64.65-.16.273-.24.6-.24.98 0 .373.08.703.24.99.16.28.373.497.64.65.267.153.57.23.91.23zm4.136.78v-5.3h2.46c.62 0 1.107.12 1.46.36.36.233.54.567.54 1 0 .433-.17.77-.51 1.01-.333.233-.776.35-1.33.35l.15-.26c.634 0 1.104.117 1.41.35.307.233.46.577.46 1.03 0 .46-.173.82-.52 1.08-.34.253-.863.38-1.57.38h-2.55zm.94-.74h1.54c.4 0 .7-.06.9-.18.2-.127.3-.327.3-.6 0-.28-.093-.483-.28-.61-.18-.133-.466-.2-.86-.2h-1.6v1.59zm0-2.28h1.44c.367 0 .644-.067.83-.2a.677.677 0 00.29-.58c0-.253-.096-.443-.29-.57-.186-.127-.463-.19-.83-.19h-1.44v1.54z" fill="#fff"/></svg>