<svg width="119" height="44" fill="none" xmlns="http://www.w3.org/2000/svg"><path d="M.758 7V0h6.03v7h-.98V.61l.24.26h-4.55l.25-.26V7h-.99zm10.323.06c-.534 0-1.007-.117-1.42-.35a2.605 2.605 0 01-.98-.96c-.24-.413-.36-.88-.36-1.4 0-.527.12-.993.36-1.4.24-.407.567-.723.98-.95.413-.233.886-.35 1.42-.35.527 0 .997.117 1.41.35.42.227.747.543.98.95.24.4.36.867.36 1.4 0 .527-.12.993-.36 1.4-.233.407-.56.727-.98.96a2.82 2.82 0 01-1.41.35zm0-.84c.34 0 .643-.077.91-.23.273-.153.486-.37.64-.65.153-.287.23-.617.23-.99 0-.38-.077-.707-.23-.98a1.624 1.624 0 00-.64-.65 1.793 1.793 0 00-.91-.23c-.34 0-.643.077-.91.23-.267.153-.48.37-.64.65-.16.273-.24.6-.24.98 0 .373.08.703.24.99.16.28.373.497.64.65.267.153.57.23.91.23zm6.446.84c-.54 0-1.023-.117-1.45-.35a2.585 2.585 0 01-.99-.96 2.702 2.702 0 01-.36-1.4c0-.527.12-.993.36-1.4.24-.407.57-.723.99-.95.427-.233.91-.35 1.45-.35.48 0 .907.097 1.28.29.38.187.673.467.88.84l-.73.47a1.58 1.58 0 00-.64-.57 1.726 1.726 0 00-.8-.19 1.87 1.87 0 00-.93.23c-.273.153-.49.37-.65.65-.16.273-.24.6-.24.98s.08.71.24.99c.16.28.377.497.65.65.273.153.583.23.93.23.287 0 .553-.06.8-.18a1.66 1.66 0 00.64-.58l.73.46c-.207.367-.5.65-.88.85-.373.193-.8.29-1.28.29zM21.912 7V2.29l.24.25h-2.18V1.7h4.84v.84h-2.17l.23-.25V7h-.96zm7.131 0V5.88l-.05-.21V3.76c0-.407-.12-.72-.36-.94-.233-.227-.586-.34-1.06-.34-.313 0-.62.053-.92.16a2.3 2.3 0 00-.76.41l-.4-.72c.274-.22.6-.387.98-.5.387-.12.79-.18 1.21-.18.727 0 1.287.177 1.68.53.394.353.59.893.59 1.62V7h-.91zm-1.74.06c-.393 0-.74-.067-1.04-.2a1.606 1.606 0 01-.68-.55c-.16-.24-.24-.51-.24-.81 0-.287.067-.547.2-.78.14-.233.364-.42.67-.56.314-.14.734-.21 1.26-.21h1.68v.69h-1.64c-.48 0-.803.08-.97.24a.774.774 0 00-.25.58c0 .26.104.47.31.63.207.153.494.23.86.23.36 0 .674-.08.94-.24.274-.16.47-.393.59-.7l.19.66c-.126.313-.35.563-.67.75-.32.18-.723.27-1.21.27zM31.682 7V1.7h2.46c.62 0 1.107.12 1.46.36.36.233.54.567.54 1 0 .433-.17.77-.51 1.01-.333.233-.777.35-1.33.35l.15-.26c.633 0 1.103.117 1.41.35.307.233.46.577.46 1.03 0 .46-.173.82-.52 1.08-.34.253-.863.38-1.57.38h-2.55zm.94-.74h1.54c.4 0 .7-.06.9-.18.2-.127.3-.327.3-.6 0-.28-.093-.483-.28-.61-.18-.133-.467-.2-.86-.2h-1.6v1.59zm0-2.28h1.44c.367 0 .643-.067.83-.2a.677.677 0 00.29-.58c0-.253-.097-.443-.29-.57-.187-.127-.463-.19-.83-.19h-1.44v1.54zM41.664 7l-2.05-2.58.79-.48L42.794 7h-1.13zm-3.84 0V1.7h.96V7h-.96zm.67-2.24v-.82h1.75v.82h-1.75zm1.99-.3l-.89-.12 2.03-2.64h1.03l-2.17 2.76zM43.801 7V1.7h.96v3.86l3.25-3.86h.87V7h-.96V3.14L44.681 7h-.88zm9.629 0V1.7h4.91V7h-.96V2.3l.23.24h-3.45l.23-.24V7h-.96zm9.578.06c-.44 0-.844-.1-1.21-.3-.36-.207-.65-.51-.87-.91-.214-.4-.32-.9-.32-1.5s.103-1.1.31-1.5c.213-.4.5-.7.86-.9.366-.2.776-.3 1.23-.3.52 0 .98.113 1.38.34.4.227.716.543.95.95.233.4.35.87.35 1.41 0 .54-.117 1.013-.35 1.42a2.5 2.5 0 01-.95.95c-.4.227-.86.34-1.38.34zm-2.81 1.88V1.7h.92v1.43l-.06 1.23.1 1.23v3.35h-.96zm2.73-2.72c.34 0 .643-.077.91-.23.273-.153.486-.37.64-.65.16-.287.24-.617.24-.99 0-.38-.08-.707-.24-.98a1.624 1.624 0 00-.64-.65 1.793 1.793 0 00-.91-.23c-.334 0-.637.077-.91.23-.267.153-.48.37-.64.65-.154.273-.23.6-.23.98 0 .373.076.703.23.99.16.28.373.497.64.65.273.153.576.23.91.23zm6.424.84a2.844 2.844 0 01-1.42-.35 2.605 2.605 0 01-.98-.96c-.24-.413-.36-.88-.36-1.4 0-.527.12-.993.36-1.4.24-.407.567-.723.98-.95.414-.233.887-.35 1.42-.35.527 0 .997.117 1.41.35.42.227.747.543.98.95.24.4.36.867.36 1.4 0 .527-.12.993-.36 1.4-.233.407-.56.727-.98.96a2.82 2.82 0 01-1.41.35zm0-.84c.34 0 .644-.077.91-.23.274-.153.487-.37.64-.65.154-.287.23-.617.23-.99 0-.38-.076-.707-.23-.98a1.623 1.623 0 00-.64-.65 1.792 1.792 0 00-.91-.23c-.34 0-.643.077-.91.23-.266.153-.48.37-.64.65-.16.273-.24.6-.24.98 0 .373.08.703.24.99.16.28.374.497.64.65.267.153.57.23.91.23zm7.718.33V2.54h-2.3l-.05 1.02c-.014.333-.037.657-.07.97-.027.307-.074.59-.14.85-.06.26-.15.473-.27.64a.755.755 0 01-.48.31l-.95-.17a.613.613 0 00.5-.2c.126-.147.223-.347.29-.6.073-.253.126-.54.16-.86.033-.327.06-.663.08-1.01l.08-1.79h4.11v4.85h-.96zM72.6 8.23V6.16h6.24v2.07h-.9V7h-4.43v1.23h-.91zm7.76.77c-.253 0-.5-.043-.74-.13-.24-.08-.447-.2-.62-.36l.41-.72c.133.127.28.223.44.29.16.067.33.1.51.1a.91.91 0 00.58-.18c.154-.12.297-.333.43-.64l.33-.73.1-.12 2.08-4.81h.94l-2.57 5.83c-.153.373-.326.667-.52.88a1.574 1.574 0 01-.62.45 1.96 1.96 0 01-.75.14zm1.26-1.83L79.2 1.7h1l2.06 4.72-.64.75zM89.643 7l-2.05-2.58.79-.48L90.773 7h-1.13zm-3.84 0V1.7h.96V7h-.96zm.67-2.24v-.82h1.75v.82h-1.75zm1.99-.3l-.89-.12 2.03-2.64h1.03l-2.17 2.76zM92.742 7V2.29l.24.25h-2.18V1.7h4.84v.84h-2.17l.23-.25V7h-.96zm5.917.06a2.842 2.842 0 01-1.42-.35 2.605 2.605 0 01-.98-.96c-.24-.413-.36-.88-.36-1.4 0-.527.12-.993.36-1.4.24-.407.567-.723.98-.95.413-.233.887-.35 1.42-.35.527 0 .997.117 1.41.35.42.227.747.543.98.95.24.4.36.867.36 1.4 0 .527-.12.993-.36 1.4a2.51 2.51 0 01-.98.96 2.82 2.82 0 01-1.41.35zm0-.84c.34 0 .643-.077.91-.23.273-.153.487-.37.64-.65a2.07 2.07 0 00.23-.99c0-.38-.077-.707-.23-.98a1.621 1.621 0 00-.64-.65 1.793 1.793 0 00-.91-.23c-.34 0-.643.077-.91.23-.267.153-.48.37-.64.65-.16.273-.24.6-.24.98 0 .373.08.703.24.99.16.28.373.497.64.65.267.153.57.23.91.23zm4.136.78V1.7h2.46c.62 0 1.107.12 1.46.36.36.233.54.567.54 1 0 .433-.17.77-.51 1.01-.333.233-.776.35-1.33.35l.15-.26c.634 0 1.104.117 1.41.35.307.233.46.577.46 1.03 0 .46-.173.82-.52 1.08-.34.253-.863.38-1.57.38h-2.55zm.94-.74h1.54c.4 0 .7-.06.9-.18.2-.127.3-.327.3-.6 0-.28-.093-.483-.28-.61-.18-.133-.466-.2-.86-.2h-1.6v1.59zm0-2.28h1.44c.367 0 .644-.067.83-.2a.675.675 0 00.29-.58c0-.253-.096-.443-.29-.57-.186-.127-.463-.19-.83-.19h-1.44v1.54zM.598 19v-5.3h4.91V19h-.96v-4.7l.23.24h-3.45l.23-.24V19h-.96zm6.768 0v-5.3h.96v3.86l3.25-3.86h.87V19h-.96v-3.86L8.245 19h-.88zm7.993 0v-4.71l.24.25h-2.18v-.84h4.84v.84h-2.17l.23-.25V19h-.96zm7.132 0v-1.12l-.05-.21v-1.91c0-.407-.12-.72-.36-.94-.234-.227-.587-.34-1.06-.34-.314 0-.62.053-.92.16a2.3 2.3 0 00-.76.41l-.4-.72c.273-.22.6-.387.98-.5.386-.12.79-.18 1.21-.18.726 0 1.286.177 1.68.53.393.353.59.893.59 1.62V19h-.91zm-1.74.06a2.54 2.54 0 01-1.04-.2 1.606 1.606 0 01-.68-.55c-.16-.24-.24-.51-.24-.81 0-.287.066-.547.2-.78.14-.233.363-.42.67-.56.313-.14.733-.21 1.26-.21h1.68v.69h-1.64c-.48 0-.804.08-.97.24a.775.775 0 00-.25.58c0 .26.103.47.31.63.206.153.493.23.86.23.36 0 .673-.08.94-.24.273-.16.47-.393.59-.7l.19.66c-.127.313-.35.563-.67.75-.32.18-.724.27-1.21.27zm4.378-.06v-5.3h.96v2.25h3.02V13.7h.96V19h-.96v-2.22h-3.02V19h-.96zm6.807 0v-5.3h.96v3.86l3.25-3.86h.87V19h-.96v-3.86L32.816 19h-.88zm10.333 0v-1.86l.15.18h-1.69c-.706 0-1.26-.15-1.66-.45-.393-.3-.59-.737-.59-1.31 0-.613.21-1.077.63-1.39.427-.313.994-.47 1.7-.47h2.32V19h-.86zm-3.84 0l1.44-2.03h.99L39.46 19h-1.03zm3.84-2.16v-2.57l.15.27h-1.58c-.44 0-.78.083-1.02.25-.24.16-.36.427-.36.8 0 .693.447 1.04 1.34 1.04h1.62l-.15.21zm7.689 2.22a2.842 2.842 0 01-1.42-.35 2.605 2.605 0 01-.98-.96c-.24-.413-.36-.88-.36-1.4 0-.527.12-.993.36-1.4.24-.407.566-.723.98-.95.413-.233.887-.35 1.42-.35.526 0 .997.117 1.41.35.42.227.746.543.98.95.24.4.36.867.36 1.4 0 .527-.12.993-.36 1.4-.233.407-.56.727-.98.96-.413.233-.884.35-1.41.35zm0-.84c.34 0 .643-.077.91-.23.273-.153.486-.37.64-.65.153-.287.23-.617.23-.99 0-.38-.077-.707-.23-.98a1.623 1.623 0 00-.64-.65 1.793 1.793 0 00-.91-.23c-.34 0-.643.077-.91.23-.267.153-.48.37-.64.65-.16.273-.24.6-.24.98 0 .373.08.703.24.99.16.28.373.497.64.65.267.153.57.23.91.23zm4.136.78v-5.3h4.91V19h-.96v-4.7l.23.24h-3.45l.23-.24V19h-.96zm7.818 0v-4.71l.24.25h-2.18v-.84h4.84v.84h-2.17l.23-.25V19h-.96zm5.917.06a2.842 2.842 0 01-1.42-.35 2.605 2.605 0 01-.98-.96c-.24-.413-.36-.88-.36-1.4 0-.527.12-.993.36-1.4.24-.407.567-.723.98-.95.413-.233.887-.35 1.42-.35.527 0 .997.117 1.41.35.42.227.747.543.98.95.24.4.36.867.36 1.4 0 .527-.12.993-.36 1.4-.233.407-.56.727-.98.96a2.82 2.82 0 01-1.41.35zm0-.84c.34 0 .643-.077.91-.23.273-.153.487-.37.64-.65.153-.287.23-.617.23-.99 0-.38-.077-.707-.23-.98a1.623 1.623 0 00-.64-.65 1.793 1.793 0 00-.91-.23c-.34 0-.643.077-.91.23-.267.153-.48.37-.64.65-.16.273-.24.6-.24.98 0 .373.08.703.24.99.16.28.373.497.64.65.267.153.57.23.91.23zm4.136.78v-5.3h.99l2.28 3.92h-.4l2.34-3.92h.9V19h-.87v-4.22l.16.09-2.14 3.53h-.42l-2.15-3.6.19-.04V19h-.88zm14.284-.45v-4.01h-2.3l-.05 1.02c-.013.333-.036.657-.07.97-.026.307-.073.59-.14.85-.06.26-.15.473-.27.64a.754.754 0 01-.48.31l-.95-.17a.613.613 0 00.5-.2c.127-.147.224-.347.29-.6a4.85 4.85 0 00.16-.86c.034-.327.06-.663.08-1.01l.08-1.79h4.11v4.85h-.96zm-4.47 1.68v-2.07h6.24v2.07h-.9V19h-4.43v1.23h-.91zm6.61-1.24l.06-.81.13.02a.67.67 0 00.11.01.61.61 0 00.5-.22c.128-.147.22-.34.28-.58a5.56 5.56 0 00.13-.83c.027-.307.047-.613.06-.92l.09-1.96h4.07V19h-.96v-4.74l.23.28h-2.72l.22-.29-.07 1.47a14.8 14.8 0 01-.11 1.31 4.951 4.951 0 01-.25 1.07c-.106.307-.256.547-.45.72-.186.173-.43.26-.73.26-.086 0-.18-.01-.28-.03a3.551 3.551 0 01-.31-.06zm10.677.01v-1.86l.15.18h-1.69c-.707 0-1.26-.15-1.66-.45-.393-.3-.59-.737-.59-1.31 0-.613.21-1.077.63-1.39.427-.313.993-.47 1.7-.47h2.32V19h-.86zm-3.84 0l1.44-2.03h.99l-1.4 2.03h-1.03zm3.84-2.16v-2.57l.15.27h-1.58c-.44 0-.78.083-1.02.25-.24.16-.36.427-.36.8 0 .693.447 1.04 1.34 1.04h1.62l-.15.21zM3.408 31.06c-.44 0-.843-.1-1.21-.3-.36-.207-.65-.51-.87-.91-.213-.4-.32-.9-.32-1.5s.103-1.1.31-1.5c.213-.4.5-.7.86-.9.367-.2.777-.3 1.23-.3.52 0 .98.113 1.38.34.4.227.717.543.95.95.233.4.35.87.35 1.41 0 .54-.117 1.013-.35 1.42a2.5 2.5 0 01-.95.95c-.4.227-.86.34-1.38.34zm-2.81 1.88V25.7h.92v1.43l-.06 1.23.1 1.23v3.35h-.96zm2.73-2.72c.34 0 .643-.077.91-.23.273-.153.487-.37.64-.65.16-.287.24-.617.24-.99 0-.38-.08-.707-.24-.98a1.623 1.623 0 00-.64-.65 1.793 1.793 0 00-.91-.23c-.333 0-.637.077-.91.23-.267.153-.48.37-.64.65-.153.273-.23.6-.23.98 0 .373.077.703.23.99.16.28.373.497.64.65.273.153.577.23.91.23zm6.515.84c-.567 0-1.067-.117-1.5-.35a2.566 2.566 0 01-1-.96c-.234-.407-.35-.873-.35-1.4 0-.527.113-.993.34-1.4a2.5 2.5 0 01.95-.95c.406-.233.863-.35 1.37-.35.513 0 .966.113 1.36.34.393.227.7.547.92.96.226.407.34.883.34 1.43 0 .04-.004.087-.01.14 0 .053-.004.103-.01.15h-4.51v-.69h4.01l-.39.24a1.782 1.782 0 00-.21-.91 1.56 1.56 0 00-.61-.62 1.685 1.685 0 00-.89-.23c-.334 0-.63.077-.89.23-.26.147-.464.357-.61.63-.147.267-.22.573-.22.92v.16c0 .353.08.67.24.95.166.273.396.487.69.64.293.153.63.23 1.01.23.313 0 .596-.053.85-.16.26-.107.486-.267.68-.48l.53.62c-.24.28-.54.493-.9.64-.354.147-.75.22-1.19.22zm6.229 0c-.54 0-1.023-.117-1.45-.35a2.585 2.585 0 01-.99-.96 2.702 2.702 0 01-.36-1.4c0-.527.12-.993.36-1.4.24-.407.57-.723.99-.95.427-.233.91-.35 1.45-.35.48 0 .907.097 1.28.29.38.187.673.467.88.84l-.73.47a1.58 1.58 0 00-.64-.57 1.725 1.725 0 00-.8-.19 1.87 1.87 0 00-.93.23c-.273.153-.49.37-.65.65-.16.273-.24.6-.24.98s.08.71.24.99c.16.28.377.497.65.65.273.153.583.23.93.23.287 0 .553-.06.8-.18a1.66 1.66 0 00.64-.58l.73.46c-.207.367-.5.65-.88.85-.373.193-.8.29-1.28.29zm4.385-.06v-4.71l.24.25h-2.18v-.84h4.84v.84h-2.17l.23-.25V31h-.96zm5.917.06c-.534 0-1.007-.117-1.42-.35a2.605 2.605 0 01-.98-.96c-.24-.413-.36-.88-.36-1.4 0-.527.12-.993.36-1.4.24-.407.567-.723.98-.95.413-.233.886-.35 1.42-.35.527 0 .997.117 1.41.35.42.227.747.543.98.95.24.4.36.867.36 1.4 0 .527-.12.993-.36 1.4-.233.407-.56.727-.98.96a2.82 2.82 0 01-1.41.35zm0-.84c.34 0 .643-.077.91-.23.273-.153.486-.37.64-.65.153-.287.23-.617.23-.99 0-.38-.077-.707-.23-.98a1.622 1.622 0 00-.64-.65 1.793 1.793 0 00-.91-.23c-.34 0-.643.077-.91.23-.267.153-.48.37-.64.65-.16.273-.24.6-.24.98 0 .373.08.703.24.99.16.28.373.497.64.65.267.153.57.23.91.23zm6.946.84c-.44 0-.843-.1-1.21-.3-.36-.207-.65-.51-.87-.91-.213-.4-.32-.9-.32-1.5s.103-1.1.31-1.5c.213-.4.5-.7.86-.9.367-.2.777-.3 1.23-.3.52 0 .98.113 1.38.34.4.227.717.543.95.95.233.4.35.87.35 1.41 0 .54-.117 1.013-.35 1.42a2.5 2.5 0 01-.95.95c-.4.227-.86.34-1.38.34zm-2.81 1.88V25.7h.92v1.43l-.06 1.23.1 1.23v3.35h-.96zm2.73-2.72c.34 0 .643-.077.91-.23.273-.153.487-.37.64-.65.16-.287.24-.617.24-.99 0-.38-.08-.707-.24-.98a1.624 1.624 0 00-.64-.65 1.793 1.793 0 00-.91-.23c-.333 0-.637.077-.91.23-.267.153-.48.37-.64.65-.153.273-.23.6-.23.98 0 .373.077.703.23.99.16.28.373.497.64.65.273.153.577.23.91.23zm7.356.78v-1.12l-.05-.21v-1.91c0-.407-.12-.72-.36-.94-.233-.227-.587-.34-1.06-.34-.313 0-.62.053-.92.16-.3.1-.553.237-.76.41l-.4-.72c.273-.22.6-.387.98-.5.387-.12.79-.18 1.21-.18.727 0 1.287.177 1.68.53.393.353.59.893.59 1.62V31h-.91zm-1.74.06a2.54 2.54 0 01-1.04-.2 1.606 1.606 0 01-.68-.55c-.16-.24-.24-.51-.24-.81 0-.287.067-.547.2-.78.14-.233.363-.42.67-.56.313-.14.733-.21 1.26-.21h1.68v.69h-1.64c-.48 0-.803.08-.97.24a.774.774 0 00-.25.58c0 .26.103.47.31.63.207.153.493.23.86.23.36 0 .673-.08.94-.24.273-.16.47-.393.59-.7l.19.66c-.127.313-.35.563-.67.75-.32.18-.723.27-1.21.27zm4.379-.06v-5.3h.96v2.25h3.02V25.7h.96V31h-.96v-2.22h-3.02V31h-.96zm9.076.06a2.844 2.844 0 01-1.42-.35 2.605 2.605 0 01-.98-.96c-.24-.413-.36-.88-.36-1.4 0-.527.12-.993.36-1.4.24-.407.567-.723.98-.95.414-.233.887-.35 1.42-.35.527 0 .997.117 1.41.35.42.227.747.543.98.95.24.4.36.867.36 1.4 0 .527-.12.993-.36 1.4-.233.407-.56.727-.98.96a2.82 2.82 0 01-1.41.35zm0-.84c.34 0 .644-.077.91-.23.274-.153.487-.37.64-.65.154-.287.23-.617.23-.99 0-.38-.076-.707-.23-.98a1.622 1.622 0 00-.64-.65 1.793 1.793 0 00-.91-.23c-.34 0-.643.077-.91.23-.266.153-.48.37-.64.65-.16.273-.24.6-.24.98 0 .373.08.703.24.99.16.28.374.497.64.65.267.153.57.23.91.23zm4.137.78v-5.3h2.46c.62 0 1.106.12 1.46.36.36.233.54.567.54 1 0 .433-.17.77-.51 1.01-.334.233-.777.35-1.33.35l.15-.26c.633 0 1.103.117 1.41.35.306.233.46.577.46 1.03 0 .46-.174.82-.52 1.08-.34.253-.864.38-1.57.38h-2.55zm.94-.74h1.54c.4 0 .7-.06.9-.18.2-.127.3-.327.3-.6 0-.28-.094-.483-.28-.61-.18-.133-.467-.2-.86-.2h-1.6v1.59zm0-2.28h1.44c.366 0 .643-.067.83-.2a.677.677 0 00.29-.58c0-.253-.097-.443-.29-.57-.187-.127-.464-.19-.83-.19h-1.44v1.54zm4.802 4.5l.5-2.02.13.58a.706.706 0 01-.49-.18c-.127-.12-.19-.283-.19-.49 0-.2.063-.363.19-.49a.672.672 0 01.48-.19c.194 0 .35.067.47.2a.67.67 0 01.18.48c0 .067-.007.133-.02.2-.006.06-.023.133-.05.22-.02.08-.053.18-.1.3l-.47 1.39h-.63zM67.541 31v-5.3h.99l2.28 3.92h-.4l2.34-3.92h.9V31h-.87v-4.22l.16.09-2.14 3.53h-.42l-2.15-3.6.19-.04V31h-.88zm11.229 0v-1.12l-.05-.21v-1.91c0-.407-.12-.72-.36-.94-.234-.227-.587-.34-1.06-.34-.313 0-.62.053-.92.16-.3.1-.553.237-.76.41l-.4-.72c.273-.22.6-.387.98-.5.386-.12.79-.18 1.21-.18.727 0 1.287.177 1.68.53.393.353.59.893.59 1.62V31h-.91zm-1.74.06a2.54 2.54 0 01-1.04-.2 1.606 1.606 0 01-.68-.55c-.16-.24-.24-.51-.24-.81 0-.287.067-.547.2-.78.14-.233.363-.42.67-.56.313-.14.733-.21 1.26-.21h1.68v.69h-1.64c-.48 0-.803.08-.97.24a.775.775 0 00-.25.58c0 .26.103.47.31.63.207.153.493.23.86.23.36 0 .673-.08.94-.24.273-.16.47-.393.59-.7l.19.66c-.127.313-.35.563-.67.75-.32.18-.724.27-1.21.27zm7.189 0c-.44 0-.844-.1-1.21-.3-.36-.207-.65-.51-.87-.91-.214-.4-.32-.9-.32-1.5s.103-1.1.31-1.5c.213-.4.5-.7.86-.9.366-.2.776-.3 1.23-.3.52 0 .98.113 1.38.34.4.227.716.543.95.95.233.4.35.87.35 1.41 0 .54-.117 1.013-.35 1.42a2.5 2.5 0 01-.95.95c-.4.227-.86.34-1.38.34zm-2.81 1.88V25.7h.92v1.43l-.06 1.23.1 1.23v3.35h-.96zm2.73-2.72c.34 0 .643-.077.91-.23.273-.153.486-.37.64-.65.16-.287.24-.617.24-.99 0-.38-.08-.707-.24-.98a1.623 1.623 0 00-.64-.65 1.793 1.793 0 00-.91-.23c-.334 0-.637.077-.91.23-.267.153-.48.37-.64.65-.154.273-.23.6-.23.98 0 .373.076.703.23.99.16.28.373.497.64.65.273.153.576.23.91.23zm7.994.78l-2.05-2.58.79-.48 2.39 3.06h-1.13zm-3.84 0v-5.3h.96V31h-.96zm.67-2.24v-.82h1.75v.82h-1.75zm1.99-.3l-.89-.12 2.03-2.64h1.03l-2.17 2.76zm5.501 2.6c-.567 0-1.067-.117-1.5-.35a2.566 2.566 0 01-1-.96 2.766 2.766 0 01-.35-1.4c0-.527.113-.993.34-1.4a2.5 2.5 0 01.95-.95c.407-.233.863-.35 1.37-.35.513 0 .967.113 1.36.34.393.227.7.547.92.96.227.407.34.883.34 1.43 0 .04-.003.087-.01.14 0 .053-.003.103-.01.15h-4.51v-.69h4.01l-.39.24a1.784 1.784 0 00-.21-.91 1.56 1.56 0 00-.61-.62 1.686 1.686 0 00-.89-.23c-.333 0-.63.077-.89.23a1.55 1.55 0 00-.61.63c-.147.267-.22.573-.22.92v.16c0 .353.08.67.24.95.167.273.397.487.69.64.293.153.63.23 1.01.23.313 0 .597-.053.85-.16.26-.107.487-.267.68-.48l.53.62c-.24.28-.54.493-.9.64a3.07 3.07 0 01-1.19.22zM101.2 31v-4.71l.24.25h-2.18v-.84h4.84v.84h-2.17l.23-.25V31h-.96zm5.917.06a2.842 2.842 0 01-1.42-.35 2.607 2.607 0 01-.98-.96c-.24-.413-.36-.88-.36-1.4 0-.527.12-.993.36-1.4.24-.407.567-.723.98-.95.413-.233.887-.35 1.42-.35.527 0 .997.117 1.41.35.42.227.747.543.98.95.24.4.36.867.36 1.4 0 .527-.12.993-.36 1.4a2.51 2.51 0 01-.98.96 2.82 2.82 0 01-1.41.35zm0-.84c.34 0 .643-.077.91-.23.273-.153.487-.37.64-.65a2.07 2.07 0 00.23-.99c0-.38-.077-.707-.23-.98a1.623 1.623 0 00-.64-.65 1.794 1.794 0 00-.91-.23 1.71 1.71 0 00-1.55.88c-.16.273-.24.6-.24.98 0 .373.08.703.24.99a1.71 1.71 0 001.55.88zm4.136.78v-5.3h2.46c.62 0 1.107.12 1.46.36.36.233.54.567.54 1 0 .433-.17.77-.51 1.01-.333.233-.776.35-1.33.35l.15-.26c.634 0 1.104.117 1.41.35.307.233.46.577.46 1.03 0 .46-.173.82-.52 1.08-.34.253-.863.38-1.57.38h-2.55zm.94-.74h1.54c.4 0 .7-.06.9-.18.2-.127.3-.327.3-.6 0-.28-.093-.483-.28-.61-.18-.133-.466-.2-.86-.2h-1.6v1.59zm0-2.28h1.44c.367 0 .644-.067.83-.2a.675.675 0 00.29-.58c0-.253-.096-.443-.29-.57-.186-.127-.463-.19-.83-.19h-1.44v1.54zm4.803 4.5l.5-2.02.13.58a.706.706 0 01-.49-.18c-.127-.12-.19-.283-.19-.49 0-.2.063-.363.19-.49a.671.671 0 01.48-.19c.193 0 .35.067.47.2a.67.67 0 01.18.48c0 .067-.007.133-.02.2-.007.06-.023.133-.05.22-.02.08-.053.18-.1.3l-.47 1.39h-.63zM2.868 43.06a2.842 2.842 0 01-1.42-.35 2.605 2.605 0 01-.98-.96c-.24-.413-.36-.88-.36-1.4 0-.527.12-.993.36-1.4.24-.407.567-.723.98-.95.413-.233.887-.35 1.42-.35.527 0 .997.117 1.41.35.42.227.747.543.98.95.24.4.36.867.36 1.4 0 .527-.12.993-.36 1.4-.233.407-.56.727-.98.96a2.82 2.82 0 01-1.41.35zm0-.84c.34 0 .643-.077.91-.23.273-.153.487-.37.64-.65.153-.287.23-.617.23-.99 0-.38-.077-.707-.23-.98a1.623 1.623 0 00-.64-.65 1.793 1.793 0 00-.91-.23c-.34 0-.643.077-.91.23-.267.153-.48.37-.64.65-.16.273-.24.6-.24.98 0 .373.08.703.24.99.16.28.373.497.64.65.267.153.57.23.91.23zm4.136.78v-5.3h4.91V43h-.96v-4.7l.23.24h-3.45l.23-.24V43h-.96zm7.818 0v-4.71l.24.25h-2.18v-.84h4.84v.84h-2.17l.23-.25V43h-.96zm5.917.06a2.842 2.842 0 01-1.42-.35 2.604 2.604 0 01-.98-.96c-.24-.413-.36-.88-.36-1.4 0-.527.12-.993.36-1.4.24-.407.567-.723.98-.95.413-.233.887-.35 1.42-.35.527 0 .997.117 1.41.35.42.227.747.543.98.95.24.4.36.867.36 1.4 0 .527-.12.993-.36 1.4-.233.407-.56.727-.98.96a2.82 2.82 0 01-1.41.35zm0-.84c.34 0 .643-.077.91-.23.273-.153.487-.37.64-.65.153-.287.23-.617.23-.99 0-.38-.077-.707-.23-.98a1.624 1.624 0 00-.64-.65 1.793 1.793 0 00-.91-.23c-.34 0-.643.077-.91.23-.267.153-.48.37-.64.65-.16.273-.24.6-.24.98 0 .373.08.703.24.99.16.28.373.497.64.65.267.153.57.23.91.23zm4.136.78v-5.3h2.46c.62 0 1.107.12 1.46.36.36.233.54.567.54 1 0 .433-.17.77-.51 1.01-.333.233-.776.35-1.33.35l.15-.26c.634 0 1.104.117 1.41.35.307.233.46.577.46 1.03 0 .46-.173.82-.52 1.08-.34.253-.863.38-1.57.38h-2.55zm.94-.74h1.54c.4 0 .7-.06.9-.18.2-.127.3-.327.3-.6 0-.28-.093-.483-.28-.61-.18-.133-.466-.2-.86-.2h-1.6v1.59zm0-2.28h1.44c.367 0 .644-.067.83-.2a.677.677 0 00.29-.58c0-.253-.096-.443-.29-.57-.186-.127-.463-.19-.83-.19h-1.44v1.54zM31.018 43v-5.3h.96v3.86l3.25-3.86h.87V43h-.96v-3.86L31.898 43h-.88zM41.8 43l-2.05-2.58.79-.48L42.93 43H41.8zm-3.84 0v-5.3h.96V43h-.96zm.67-2.24v-.82h1.75v.82h-1.75zm1.99-.3l-.89-.12 2.03-2.64h1.03l-2.17 2.76zm5.411 2.6a2.842 2.842 0 01-1.42-.35 2.605 2.605 0 01-.98-.96c-.24-.413-.36-.88-.36-1.4 0-.527.12-.993.36-1.4.24-.407.567-.723.98-.95.413-.233.887-.35 1.42-.35.527 0 .997.117 1.41.35.42.227.747.543.98.95.24.4.36.867.36 1.4 0 .527-.12.993-.36 1.4-.233.407-.56.727-.98.96a2.82 2.82 0 01-1.41.35zm0-.84c.34 0 .643-.077.91-.23.273-.153.487-.37.64-.65.153-.287.23-.617.23-.99 0-.38-.077-.707-.23-.98a1.622 1.622 0 00-.64-.65 1.793 1.793 0 00-.91-.23c-.34 0-.643.077-.91.23-.267.153-.48.37-.64.65-.16.273-.24.6-.24.98 0 .373.08.703.24.99.16.28.373.497.64.65.267.153.57.23.91.23zm4.136.78v-5.3h2.46c.62 0 1.107.12 1.46.36.36.233.54.567.54 1 0 .433-.17.77-.51 1.01-.333.233-.776.35-1.33.35l.15-.26c.634 0 1.104.117 1.41.35.307.233.46.577.46 1.03 0 .46-.173.82-.52 1.08-.34.253-.863.38-1.57.38h-2.55zm.94-.74h1.54c.4 0 .7-.06.9-.18.2-.127.3-.327.3-.6 0-.28-.093-.483-.28-.61-.18-.133-.466-.2-.86-.2h-1.6v1.59zm0-2.28h1.44c.367 0 .644-.067.83-.2a.677.677 0 00.29-.58c0-.253-.096-.443-.29-.57-.186-.127-.463-.19-.83-.19h-1.44v1.54z" fill="#fff"/></svg>0267 29.45 30.9201 28.95 30.9201 28.35C30.9201 27.75 31.0234 27.25 31.2301 26.85C31.4434 26.45 31.7301 26.15 32.0901 25.95C32.4567 25.75 32.8667 25.65 33.3201 25.65C33.8401 25.65 34.3001 25.7633 34.7001 25.99C35.1001 26.2167 35.4167 26.5333 35.6501 26.94C35.8834 27.34 36.0001 27.81 36.0001 28.35C36.0001 28.89 35.8834 29.3633 35.6501 29.77C35.4167 30.1767 35.1001 30.4933 34.7001 30.72C34.3001 30.9467 33.8401 31.06 33.3201 31.06ZM30.5101 32.94V25.7H31.4301V27.13L31.3701 28.36L31.4701 29.59V32.94H30.5101ZM33.2401 30.22C33.5801 30.22 33.8834 30.1433 34.1501 29.99C34.4234 29.8367 34.6367 29.62 34.7901 29.34C34.9501 29.0533 35.0301 28.7233 35.0301 28.35C35.0301 27.97 34.9501 27.6433 34.7901 27.37C34.6367 27.09 34.4234 26.8733 34.1501 26.72C33.8834 26.5667 33.5801 26.49 33.2401 26.49C32.9067 26.49 32.6034 26.5667 32.3301 26.72C32.0634 26.8733 31.8501 27.09 31.6901 27.37C31.5367 27.6433 31.4601 27.97 31.4601 28.35C31.4601 28.7233 31.5367 29.0533 31.6901 29.34C31.8501 29.62 32.0634 29.8367 32.3301 29.99C32.6034 30.1433 32.9067 30.22 33.2401 30.22ZM40.596 31V29.88L40.546 29.67V27.76C40.546 27.3533 40.426 27.04 40.186 26.82C39.9527 26.5933 39.5993 26.48 39.126 26.48C38.8127 26.48 38.506 26.5333 38.206 26.64C37.906 26.74 37.6527 26.8767 37.446 27.05L37.046 26.33C37.3193 26.11 37.646 25.9433 38.026 25.83C38.4127 25.71 38.816 25.65 39.236 25.65C39.9627 25.65 40.5227 25.8267 40.916 26.18C41.3093 26.5333 41.506 27.0733 41.506 27.8V31H40.596ZM38.856 31.06C38.4627 31.06 38.116 30.9933 37.816 30.86C37.5227 30.7267 37.296 30.5433 37.136 30.31C36.976 30.07 36.896 29.8 36.896 29.5C36.896 29.2133 36.9627 28.9533 37.096 28.72C37.236 28.4867 37.4593 28.3 37.766 28.16C38.0793 28.02 38.4993 27.95 39.026 27.95H40.706V28.64H39.066C38.586 28.64 38.2627 28.72 38.096 28.88C37.9293 29.04 37.846 29.2333 37.846 29.46C37.846 29.72 37.9493 29.93 38.156 30.09C38.3627 30.2433 38.6493 30.32 39.016 30.32C39.376 30.32 39.6893 30.24 39.956 30.08C40.2293 29.92 40.426 29.6867 40.546 29.38L40.736 30.04C40.6093 30.3533 40.386 30.6033 40.066 30.79C39.746 30.97 39.3427 31.06 38.856 31.06ZM43.2347 31V25.7H44.1947V27.95H47.2147V25.7H48.1747V31H47.2147V28.78H44.1947V31H43.2347ZM52.3113 31.06C51.778 31.06 51.3047 30.9433 50.8913 30.71C50.478 30.4767 50.1513 30.1567 49.9113 29.75C49.6713 29.3367 49.5513 28.87 49.5513 28.35C49.5513 27.8233 49.6713 27.3567 49.9113 26.95C50.1513 26.5433 50.478 26.2267 50.8913 26C51.3047 25.7667 51.778 25.65 52.3113 25.65C52.838 25.65 53.308 25.7667 53.7213 26C54.1413 26.2267 54.468 26.5433 54.7013 26.95C54.9413 27.35 55.0613 27.8167 55.0613 28.35C55.0613 28.8767 54.9413 29.3433 54.7013 29.75C54.468 30.1567 54.1413 30.4767 53.7213 30.71C53.308 30.9433 52.838 31.06 52.3113 31.06ZM52.3113 30.22C52.6513 30.22 52.9547 30.1433 53.2213 29.99C53.4947 29.8367 53.708 29.62 53.8613 29.34C54.0147 29.0533 54.0913 28.7233 54.0913 28.35C54.0913 27.97 54.0147 27.6433 53.8613 27.37C53.708 27.09 53.4947 26.8733 53.2213 26.72C52.9547 26.5667 52.6513 26.49 52.3113 26.49C51.9713 26.49 51.668 26.5667 51.4013 26.72C51.1347 26.8733 50.9213 27.09 50.7613 27.37C50.6013 27.6433 50.5213 27.97 50.5213 28.35C50.5213 28.7233 50.6013 29.0533 50.7613 29.34C50.9213 29.62 51.1347 29.8367 51.4013 29.99C51.668 30.1433 51.9713 30.22 52.3113 30.22ZM56.4476 31V25.7H58.9076C59.5276 25.7 60.0142 25.82 60.3676 26.06C60.7276 26.2933 60.9076 26.6267 60.9076 27.06C60.9076 27.4933 60.7376 27.83 60.3976 28.07C60.0642 28.3033 59.6209 28.42 59.0676 28.42L59.2176 28.16C59.8509 28.16 60.3209 28.2767 60.6276 28.51C60.9342 28.7433 61.0876 29.0867 61.0876 29.54C61.0876 30 60.9142 30.36 60.5676 30.62C60.2276 30.8733 59.7042 31 58.9976 31H56.4476ZM57.3876 30.26H58.9276C59.3276 30.26 59.6276 30.2 59.8276 30.08C60.0276 29.9533 60.1276 29.7533 60.1276 29.48C60.1276 29.2 60.0342 28.9967 59.8476 28.87C59.6676 28.7367 59.3809 28.67 58.9876 28.67H57.3876V30.26ZM57.3876 27.98H58.8276C59.1942 27.98 59.4709 27.9133 59.6576 27.78C59.8509 27.64 59.9476 27.4467 59.9476 27.2C59.9476 26.9467 59.8509 26.7567 59.6576 26.63C59.4709 26.5033 59.1942 26.44 58.8276 26.44H57.3876V27.98ZM62.1902 32.48L62.6902 30.46L62.8202 31.04C62.6268 31.04 62.4635 30.98 62.3302 30.86C62.2035 30.74 62.1402 30.5767 62.1402 30.37C62.1402 30.17 62.2035 30.0067 62.3302 29.88C62.4635 29.7533 62.6235 29.69 62.8102 29.69C63.0035 29.69 63.1602 29.7567 63.2802 29.89C63.4002 30.0167 63.4602 30.1767 63.4602 30.37C63.4602 30.4367 63.4535 30.5033 63.4402 30.57C63.4335 30.63 63.4168 30.7033 63.3902 30.79C63.3702 30.87 63.3368 30.97 63.2902 31.09L62.8202 32.48H62.1902ZM67.5413 31V25.7H68.5313L70.8113 29.62H70.4113L72.7513 25.7H73.6513V31H72.7813V26.78L72.9413 26.87L70.8013 30.4H70.3813L68.2313 26.8L68.4213 26.76V31H67.5413ZM78.7698 31V29.88L78.7198 29.67V27.76C78.7198 27.3533 78.5998 27.04 78.3598 26.82C78.1265 26.5933 77.7732 26.48 77.2998 26.48C76.9865 26.48 76.6798 26.5333 76.3798 26.64C76.0798 26.74 75.8265 26.8767 75.6198 27.05L75.2198 26.33C75.4932 26.11 75.8198 25.9433 76.1998 25.83C76.5865 25.71 76.9898 25.65 77.4098 25.65C78.1365 25.65 78.6965 25.8267 79.0898 26.18C79.4832 26.5333 79.6798 27.0733 79.6798 27.8V31H78.7698ZM77.0298 31.06C76.6365 31.06 76.2898 30.9933 75.9898 30.86C75.6965 30.7267 75.4698 30.5433 75.3098 30.31C75.1498 30.07 75.0698 29.8 75.0698 29.5C75.0698 29.2133 75.1365 28.9533 75.2698 28.72C75.4098 28.4867 75.6332 28.3 75.9398 28.16C76.2532 28.02 76.6732 27.95 77.1998 27.95H78.8798V28.64H77.2398C76.7598 28.64 76.4365 28.72 76.2698 28.88C76.1032 29.04 76.0198 29.2333 76.0198 29.46C76.0198 29.72 76.1232 29.93 76.3298 30.09C76.5365 30.2433 76.8232 30.32 77.1898 30.32C77.5498 30.32 77.8632 30.24 78.1298 30.08C78.4032 29.92 78.5998 29.6867 78.7198 29.38L78.9098 30.04C78.7832 30.3533 78.5598 30.6033 78.2398 30.79C77.9198 30.97 77.5165 31.06 77.0298 31.06ZM84.2185 31.06C83.7785 31.06 83.3752 30.96 83.0085 30.76C82.6485 30.5533 82.3585 30.25 82.1385 29.85C81.9252 29.45 81.8185 28.95 81.8185 28.35C81.8185 27.75 81.9218 27.25 82.1285 26.85C82.3418 26.45 82.6285 26.15 82.9885 25.95C83.3552 25.75 83.7652 25.65 84.2185 25.65C84.7385 25.65 85.1985 25.7633 85.5985 25.99C85.9985 26.2167 86.3152 26.5333 86.5485 26.94C86.7818 27.34 86.8985 27.81 86.8985 28.35C86.8985 28.89 86.7818 29.3633 86.5485 29.77C86.3152 30.1767 85.9985 30.4933 85.5985 30.72C85.1985 30.9467 84.7385 31.06 84.2185 31.06ZM81.4085 32.94V25.7H82.3285V27.13L82.2685 28.36L82.3685 29.59V32.94H81.4085ZM84.1385 30.22C84.4785 30.22 84.7818 30.1433 85.0485 29.99C85.3218 29.8367 85.5352 29.62 85.6885 29.34C85.8485 29.0533 85.9285 28.7233 85.9285 28.35C85.9285 27.97 85.8485 27.6433 85.6885 27.37C85.5352 27.09 85.3218 26.8733 85.0485 26.72C84.7818 26.5667 84.4785 26.49 84.1385 26.49C83.8052 26.49 83.5018 26.5667 83.2285 26.72C82.9618 26.8733 82.7485 27.09 82.5885 27.37C82.4352 27.6433 82.3585 27.97 82.3585 28.35C82.3585 28.7233 82.4352 29.0533 82.5885 29.34C82.7485 29.62 82.9618 29.8367 83.2285 29.99C83.5018 30.1433 83.8052 30.22 84.1385 30.22ZM92.1333 31L90.0833 28.42L90.8733 27.94L93.2633 31H92.1333ZM88.2933 31V25.7H89.2533V31H88.2933ZM88.9633 28.76V27.94H90.7133V28.76H88.9633ZM90.9533 28.46L90.0633 28.34L92.0933 25.7H93.1233L90.9533 28.46ZM96.4541 31.06C95.8874 31.06 95.3874 30.9433 94.9541 30.71C94.5274 30.4767 94.1941 30.1567 93.9541 29.75C93.7207 29.3433 93.6041 28.8767 93.6041 28.35C93.6041 27.8233 93.7174 27.3567 93.9441 26.95C94.1774 26.5433 94.4941 26.2267 94.8941 26C95.3007 25.7667 95.7574 25.65 96.2641 25.65C96.7774 25.65 97.2307 25.7633 97.6241 25.99C98.0174 26.2167 98.3241 26.5367 98.5441 26.95C98.7707 27.3567 98.8841 27.8333 98.8841 28.38C98.8841 28.42 98.8807 28.4667 98.8741 28.52C98.8741 28.5733 98.8707 28.6233 98.8641 28.67H94.3541V27.98H98.3641L97.9741 28.22C97.9807 27.88 97.9107 27.5767 97.7641 27.31C97.6174 27.0433 97.4141 26.8367 97.1541 26.69C96.9007 26.5367 96.6041 26.46 96.2641 26.46C95.9307 26.46 95.6341 26.5367 95.3741 26.69C95.1141 26.8367 94.9107 27.0467 94.7641 27.32C94.6174 27.5867 94.5441 27.8933 94.5441 28.24V28.4C94.5441 28.7533 94.6241 29.07 94.7841 29.35C94.9507 29.6233 95.1807 29.8367 95.4741 29.99C95.7674 30.1433 96.1041 30.22 96.4841 30.22C96.7974 30.22 97.0807 30.1667 97.3341 30.06C97.5941 29.9533 97.8207 29.7933 98.0141 29.58L98.5441 30.2C98.3041 30.48 98.0041 30.6933 97.6441 30.84C97.2907 30.9867 96.8941 31.06 96.4541 31.06ZM101.199 31V26.29L101.439 26.54H99.2588V25.7H104.099V26.54H101.929L102.159 26.29V31H101.199ZM107.116 31.06C106.583 31.06 106.109 30.9433 105.696 30.71C105.283 30.4767 104.956 30.1567 104.716 29.75C104.476 29.3367 104.356 28.87 104.356 28.35C104.356 27.8233 104.476 27.3567 104.716 26.95C104.956 26.5433 105.283 26.2267 105.696 26C106.109 25.7667 106.583 25.65 107.116 25.65C107.643 25.65 108.113 25.7667 108.526 26C108.946 26.2267 109.273 26.5433 109.506 26.95C109.746 27.35 109.866 27.8167 109.866 28.35C109.866 28.8767 109.746 29.3433 109.506 29.75C109.273 30.1567 108.946 30.4767 108.526 30.71C108.113 30.9433 107.643 31.06 107.116 31.06ZM107.116 30.22C107.456 30.22 107.759 30.1433 108.026 29.99C108.299 29.8367 108.513 29.62 108.666 29.34C108.819 29.0533 108.896 28.7233 108.896 28.35C108.896 27.97 108.819 27.6433 108.666 27.37C108.513 27.09 108.299 26.8733 108.026 26.72C107.759 26.5667 107.456 26.49 107.116 26.49C106.776 26.49 106.473 26.5667 106.206 26.72C105.939 26.8733 105.726 27.09 105.566 27.37C105.406 27.6433 105.326 27.97 105.326 28.35C105.326 28.7233 105.406 29.0533 105.566 29.34C105.726 29.62 105.939 29.8367 106.206 29.99C106.473 30.1433 106.776 30.22 107.116 30.22ZM111.252 31V25.7H113.712C114.332 25.7 114.819 25.82 115.172 26.06C115.532 26.2933 115.712 26.6267 115.712 27.06C115.712 27.4933 115.542 27.83 115.202 28.07C114.869 28.3033 114.426 28.42 113.872 28.42L114.022 28.16C114.656 28.16 115.126 28.2767 115.432 28.51C115.739 28.7433 115.892 29.0867 115.892 29.54C115.892 30 115.719 30.36 115.372 30.62C115.032 30.8733 114.509 31 113.802 31H111.252ZM112.192 30.26H113.732C114.132 30.26 114.432 30.2 114.632 30.08C114.832 29.9533 114.932 29.7533 114.932 29.48C114.932 29.2 114.839 28.9967 114.652 28.87C114.472 28.7367 114.186 28.67 113.792 28.67H112.192V30.26ZM112.192 27.98H113.632C113.999 27.98 114.276 27.9133 114.462 27.78C114.656 27.64 114.752 27.4467 114.752 27.2C114.752 26.9467 114.656 26.7567 114.462 26.63C114.276 26.5033 113.999 26.44 113.632 26.44H112.192V27.98ZM116.995 32.48L117.495 30.46L117.625 31.04C117.432 31.04 117.268 30.98 117.135 30.86C117.008 30.74 116.945 30.5767 116.945 30.37C116.945 30.17 117.008 30.0067 117.135 29.88C117.268 29.7533 117.428 29.69 117.615 29.69C117.808 29.69 117.965 29.7567 118.085 29.89C118.205 30.0167 118.265 30.1767 118.265 30.37C118.265 30.4367 118.258 30.5033 118.245 30.57C118.238 30.63 118.222 30.7033 118.195 30.79C118.175 30.87 118.142 30.97 118.095 31.09L117.625 32.48H116.995ZM2.86797 43.06C2.33464 43.06 1.8613 42.9433 1.44797 42.71C1.03464 42.4767 0.707969 42.1567 0.467969 41.75C0.227969 41.3367 0.107969 40.87 0.107969 40.35C0.107969 39.8233 0.227969 39.3567 0.467969 38.95C0.707969 38.5433 1.03464 38.2267 1.44797 38C1.8613 37.7667 2.33464 37.65 2.86797 37.65C3.39464 37.65 3.86464 37.7667 4.27797 38C4.69797 38.2267 5.02464 38.5433 5.25797 38.95C5.49797 39.35 5.61797 39.8167 5.61797 40.35C5.61797 40.8767 5.49797 41.3433 5.25797 41.75C5.02464 42.1567 4.69797 42.4767 4.27797 42.71C3.86464 42.9433 3.39464 43.06 2.86797 43.06ZM2.86797 42.22C3.20797 42.22 3.5113 42.1433 3.77797 41.99C4.0513 41.8367 4.26464 41.62 4.41797 41.34C4.5713 41.0533 4.64797 40.7233 4.64797 40.35C4.64797 39.97 4.5713 39.6433 4.41797 39.37C4.26464 39.09 4.0513 38.8733 3.77797 38.72C3.5113 38.5667 3.20797 38.49 2.86797 38.49C2.52797 38.49 2.22464 38.5667 1.95797 38.72C1.6913 38.8733 1.47797 39.09 1.31797 39.37C1.15797 39.6433 1.07797 39.97 1.07797 40.35C1.07797 40.7233 1.15797 41.0533 1.31797 41.34C1.47797 41.62 1.6913 41.8367 1.95797 41.99C2.22464 42.1433 2.52797 42.22 2.86797 42.22ZM7.00422 43V37.7H11.9142V43H10.9542V38.3L11.1842 38.54H7.73422L7.96422 38.3V43H7.00422ZM14.8218 43V38.29L15.0618 38.54H12.8818V37.7H17.7218V38.54H15.5518L15.7818 38.29V43H14.8218ZM20.7391 43.06C20.2057 43.06 19.7324 42.9433 19.3191 42.71C18.9057 42.4767 18.5791 42.1567 18.3391 41.75C18.0991 41.3367 17.9791 40.87 17.9791 40.35C17.9791 39.8233 18.0991 39.3567 18.3391 38.95C18.5791 38.5433 18.9057 38.2267 19.3191 38C19.7324 37.7667 20.2057 37.65 20.7391 37.65C21.2657 37.65 21.7357 37.7667 22.1491 38C22.5691 38.2267 22.8957 38.5433 23.1291 38.95C23.3691 39.35 23.4891 39.8167 23.4891 40.35C23.4891 40.8767 23.3691 41.3433 23.1291 41.75C22.8957 42.1567 22.5691 42.4767 22.1491 42.71C21.7357 42.9433 21.2657 43.06 20.7391 43.06ZM20.7391 42.22C21.0791 42.22 21.3824 42.1433 21.6491 41.99C21.9224 41.8367 22.1357 41.62 22.2891 41.34C22.4424 41.0533 22.5191 40.7233 22.5191 40.35C22.5191 39.97 22.4424 39.6433 22.2891 39.37C22.1357 39.09 21.9224 38.8733 21.6491 38.72C21.3824 38.5667 21.0791 38.49 20.7391 38.49C20.3991 38.49 20.0957 38.5667 19.8291 38.72C19.5624 38.8733 19.3491 39.09 19.1891 39.37C19.0291 39.6433 18.9491 39.97 18.9491 40.35C18.9491 40.7233 19.0291 41.0533 19.1891 41.34C19.3491 41.62 19.5624 41.8367 19.8291 41.99C20.0957 42.1433 20.3991 42.22 20.7391 42.22ZM24.8753 43V37.7H27.3353C27.9553 37.7 28.442 37.82 28.7953 38.06C29.1553 38.2933 29.3353 38.6267 29.3353 39.06C29.3353 39.4933 29.1653 39.83 28.8253 40.07C28.492 40.3033 28.0486 40.42 27.4953 40.42L27.6453 40.16C28.2786 40.16 28.7486 40.2767 29.0553 40.51C29.362 40.7433 29.5153 41.0867 29.5153 41.54C29.5153 42 29.342 42.36 28.9953 42.62C28.6553 42.8733 28.132 43 27.4253 43H24.8753ZM25.8153 42.26H27.3553C27.7553 42.26 28.0553 42.2 28.2553 42.08C28.4553 41.9533 28.5553 41.7533 28.5553 41.48C28.5553 41.2 28.462 40.9967 28.2753 40.87C28.0953 40.7367 27.8086 40.67 27.4153 40.67H25.8153V42.26ZM25.8153 39.98H27.2553C27.622 39.98 27.8986 39.9133 28.0853 39.78C28.2786 39.64 28.3753 39.4467 28.3753 39.2C28.3753 38.9467 28.2786 38.7567 28.0853 38.63C27.8986 38.5033 27.622 38.44 27.2553 38.44H25.8153V39.98ZM31.0179 43V37.7H31.9779V41.56L35.2279 37.7H36.0979V43H35.1379V39.14L31.8979 43H31.0179ZM41.8013 43L39.7513 40.42L40.5413 39.94L42.9313 43H41.8013ZM37.9613 43V37.7H38.9213V43H37.9613ZM38.6313 40.76V39.94H40.3813V40.76H38.6313ZM40.6213 40.46L39.7313 40.34L41.7613 37.7H42.7913L40.6213 40.46ZM46.032 43.06C45.4987 43.06 45.0254 42.9433 44.612 42.71C44.1987 42.4767 43.872 42.1567 43.632 41.75C43.392 41.3367 43.272 40.87 43.272 40.35C43.272 39.8233 43.392 39.3567 43.632 38.95C43.872 38.5433 44.1987 38.2267 44.612 38C45.0254 37.7667 45.4987 37.65 46.032 37.65C46.5587 37.65 47.0287 37.7667 47.442 38C47.862 38.2267 48.1887 38.5433 48.422 38.95C48.662 39.35 48.782 39.8167 48.782 40.35C48.782 40.8767 48.662 41.3433 48.422 41.75C48.1887 42.1567 47.862 42.4767 47.442 42.71C47.0287 42.9433 46.5587 43.06 46.032 43.06ZM46.032 42.22C46.372 42.22 46.6754 42.1433 46.942 41.99C47.2154 41.8367 47.4287 41.62 47.582 41.34C47.7354 41.0533 47.812 40.7233 47.812 40.35C47.812 39.97 47.7354 39.6433 47.582 39.37C47.4287 39.09 47.2154 38.8733 46.942 38.72C46.6754 38.5667 46.372 38.49 46.032 38.49C45.692 38.49 45.3887 38.5667 45.122 38.72C44.8554 38.8733 44.642 39.09 44.482 39.37C44.322 39.6433 44.242 39.97 44.242 40.35C44.242 40.7233 44.322 41.0533 44.482 41.34C44.642 41.62 44.8554 41.8367 45.122 41.99C45.3887 42.1433 45.692 42.22 46.032 42.22ZM50.1683 43V37.7H52.6283C53.2483 37.7 53.7349 37.82 54.0883 38.06C54.4483 38.2933 54.6283 38.6267 54.6283 39.06C54.6283 39.4933 54.4583 39.83 54.1183 40.07C53.7849 40.3033 53.3416 40.42 52.7883 40.42L52.9383 40.16C53.5716 40.16 54.0416 40.2767 54.3483 40.51C54.6549 40.7433 54.8083 41.0867 54.8083 41.54C54.8083 42 54.6349 42.36 54.2883 42.62C53.9483 42.8733 53.4249 43 52.7183 43H50.1683ZM51.1083 42.26H52.6483C53.0483 42.26 53.3483 42.2 53.5483 42.08C53.7483 41.9533 53.8483 41.7533 53.8483 41.48C53.8483 41.2 53.7549 40.9967 53.5683 40.87C53.3883 40.7367 53.1016 40.67 52.7083 40.67H51.1083V42.26ZM51.1083 39.98H52.5483C52.9149 39.98 53.1916 39.9133 53.3783 39.78C53.5716 39.64 53.6683 39.4467 53.6683 39.2C53.6683 38.9467 53.5716 38.7567 53.3783 38.63C53.1916 38.5033 52.9149 38.44 52.5483 38.44H51.1083V39.98Z" fill="white"/>
</svg>
