<svg width="28" height="28" fill="none" xmlns="http://www.w3.org/2000/svg"><circle cx="14" cy="14" transform="matrix(1 0 0 -1 0 28)" fill="#F4F7FB" r="14"/><path d="M11.813 10.935L14.942 14l-3.13 3.065 1.121 1.1L17.194 14l-4.26-4.165-1.121 1.1z" fill="#fff"/><mask id="a" style="mask-type:luminance" maskUnits="userSpaceOnUse" x="11" y="9" width="7" height="10"><path d="M11.813 10.935L14.942 14l-3.13 3.065 1.121 1.1L17.194 14l-4.26-4.165-1.121 1.1z" fill="#fff"/></mask><g mask="url(#a)"><rect width="10.5" height="10.5" rx="1.75" transform="matrix(1 0 0 -1 8.75 19.25)" fill="#203686"/></g></svg>"url(#mask0_2788_39593)">
<rect width="10.5" height="10.5" rx="1.75" transform="matrix(1 0 0 -1 8.75 19.25)" fill="#203686"/>
</g>
</svg>
