<svg width="20" height="20" viewBox="0 0 20 20" fill="none" xmlns="http://www.w3.org/2000/svg">
<path d="M8.58575 7.17231C8.19523 6.78178 7.56206 6.78178 7.17154 7.17231C6.78101 7.56283 6.78101 8.196 7.17154 8.58652L8.58575 10.0007L7.17154 11.4149C6.78101 11.8055 6.78101 12.4386 7.17154 12.8292C7.56206 13.2197 8.19523 13.2197 8.58575 12.8292L9.99997 11.4149L11.4142 12.8292C11.8047 13.2197 12.4379 13.2197 12.8284 12.8292C13.2189 12.4386 13.2189 11.8055 12.8284 11.4149L11.4142 10.0007L12.8284 8.58652C13.2189 8.196 13.2189 7.56283 12.8284 7.17231C12.4379 6.78178 11.8047 6.78178 11.4142 7.17231L9.99997 8.58652L8.58575 7.17231Z" fill="#F10B34"/>
<path fill-rule="evenodd" clip-rule="evenodd" d="M10 0.000732422C4.47715 0.000732422 0 4.47789 0 10.0007C0 15.5236 4.47715 20.0007 10 20.0007C15.5228 20.0007 20 15.5236 20 10.0007C20 4.47789 15.5228 0.000732422 10 0.000732422ZM2 10.0007C2 5.58245 5.58172 2.00073 10 2.00073C14.4183 2.00073 18 5.58245 18 10.0007C18 14.419 14.4183 18.0007 10 18.0007C5.58172 18.0007 2 14.419 2 10.0007Z" fill="#F10B34"/>
</svg>
