<svg width="52" height="52" fill="none" xmlns="http://www.w3.org/2000/svg"><rect width="52" height="52" rx="26" fill="#F4F7FB"/><path fill-rule="evenodd" clip-rule="evenodd" d="M11.185 19.205c.03-.247.079-.577.183-.88.063-.308.203-.555.326-.726a2.98 2.98 0 01.566-.58c.38-.304.87-.588 1.383-.847 1.039-.526 2.416-1.07 3.832-1.576 2.846-1.018 6.032-1.947 7.432-2.344a3.868 3.868 0 012.209.026c1.395.43 4.574 1.43 7.413 2.47 1.413.519 2.779 1.06 3.804 1.555.506.244.981.502 1.348.764.18.13.386.296.559.5.114.136.3.387.383.734.11.31.16.65.191.904.048.383.08.845.103 1.35.045 1.016.053 2.29.04 3.627a248.198 248.198 0 01-.215 7.5 3.976 3.976 0 01-2.502 3.522l-10.755 4.303a4 4 0 01-2.971 0l-10.755-4.303a3.976 3.976 0 01-2.502-3.522 248.558 248.558 0 01-.214-7.5 70.513 70.513 0 01.039-3.626c.022-.506.055-.968.103-1.35zm13.481 17.49V24.897c-.05-.017-.1-.036-.149-.056l-10.764-4.306-.007.14c-.042.943-.05 2.161-.037 3.48.026 2.634.136 5.598.212 7.415.022.51.342.964.828 1.158l9.917 3.967zm2.667 0V24.897c.05-.017.1-.036.15-.056l10.764-4.306.006.14c.042.943.05 2.161.037 3.48a246.153 246.153 0 01-.212 7.415c-.022.51-.342.964-.828 1.158l-9.917 3.967zm6.278-19.443c1.057.387 2.041.772 2.85 1.126l-3.773 1.509-9.792-4.263a143.56 143.56 0 012.739-.806c.231-.066.463-.063.695.008 1.384.427 4.51 1.41 7.281 2.426zm-14.548-.388l10.143 4.415-2.714 1.086a1.318 1.318 0 01-.985 0l-10.15-4.06c.83-.382 1.878-.791 3.016-1.198.228-.082.458-.163.69-.243z" fill="#203686"/></svg>