<svg width="52" height="52" fill="none" xmlns="http://www.w3.org/2000/svg"><rect width="52" height="52" rx="26" fill="#F4F7FB"/><path fill-rule="evenodd" clip-rule="evenodd" d="M19.334 38a4.002 4.002 0 003.772-2.667h8.455a4.002 4.002 0 007.545 0h.227c.737 0 1.334-.597 1.334-1.333v-4.485c0-.746-.157-1.484-.46-2.166l-1.266-2.848a5.333 5.333 0 00-4.874-3.168h-2.733v-2A5.333 5.333 0 0026 14h-9.333a5.333 5.333 0 00-5.334 5.333v13.334A2.667 2.667 0 0014 35.333h1.561A4.002 4.002 0 0019.334 38zM14 19.333a2.667 2.667 0 012.667-2.666H26a2.667 2.667 0 012.667 2.666v13.334h-5.561a4.002 4.002 0 00-7.545 0h-1.56V19.333zm23.77 9.1c.152.34.23.71.23 1.082v1.503a4.002 4.002 0 00-6.44 1.648h-.227V24h2.734c1.054 0 2.01.62 2.437 1.584l1.266 2.849zM18 34a1.333 1.333 0 112.667 0A1.333 1.333 0 0118 34zm16 0a1.333 1.333 0 112.667 0A1.333 1.333 0 0134 34z" fill="#203686"/></svg>