<svg width="52" height="52" fill="none" xmlns="http://www.w3.org/2000/svg"><rect width="52" height="52" rx="26" fill="#F4F7FB"/><path fill-rule="evenodd" clip-rule="evenodd" d="M28.667 19.96v-1.294c0-1.902-1.21-3.434-2.766-4.424-1.571-1-3.661-1.576-5.9-1.576-2.24 0-4.33.575-5.902 1.576-1.556.99-2.765 2.522-2.765 4.424v14.667c0 1.903 1.209 3.435 2.765 4.425 1.572 1 3.662 1.575 5.901 1.575 2.24 0 4.33-.575 5.901-1.575.71-.451 1.346-1.015 1.83-1.674.385.795 1.017 1.458 1.748 1.955 1.214.826 2.816 1.294 4.521 1.294s3.308-.468 4.522-1.294c1.207-.821 2.145-2.095 2.145-3.669V22.963c0-1.574-.938-2.848-2.145-3.669C37.308 18.468 35.705 18 34 18s-3.307.468-4.521 1.294c-.29.197-.563.42-.812.666zM14 18.666c0-.674.432-1.476 1.53-2.174 1.083-.69 2.66-1.159 4.47-1.159 1.81 0 3.387.47 4.47 1.159 1.098.698 1.53 1.5 1.53 2.174 0 .675-.432 1.477-1.53 2.175C23.387 21.532 21.81 22 20 22c-1.81 0-3.387-.47-4.47-1.159-1.098-.698-1.53-1.5-1.53-2.175zm11.901 4.425c.034-.02.066-.042.1-.064V24c0 .674-.433 1.476-1.531 2.175-1.083.688-2.66 1.158-4.47 1.158-1.81 0-3.387-.47-4.47-1.158C14.432 25.476 14 24.675 14 24v-.973l.099.064c1.572 1 3.662 1.575 5.901 1.575 2.24 0 4.33-.575 5.901-1.575zm0 5.334l.1-.064v.972c0 .675-.433 1.476-1.531 2.175-1.083.689-2.66 1.159-4.47 1.159-1.81 0-3.387-.47-4.47-1.159-1.098-.699-1.53-1.5-1.53-2.175v-.972l.099.064C15.67 29.425 17.76 30 20 30c2.24 0 4.33-.575 5.901-1.575zm0 5.333l.052-.033c-.139.58-.591 1.215-1.483 1.783-1.083.689-2.66 1.158-4.47 1.158-1.81 0-3.387-.47-4.47-1.158-.892-.568-1.344-1.203-1.483-1.783l.052.033c1.572 1 3.662 1.575 5.901 1.575 2.24 0 4.33-.575 5.901-1.575zm4.1-10.795c0-.43.255-.972.978-1.465.716-.487 1.78-.832 3.021-.832 1.24 0 2.305.345 3.021.832.724.493.98 1.034.98 1.465 0 .43-.256.972-.98 1.464-.716.488-1.78.832-3.02.832-1.241 0-2.306-.344-3.022-.832-.723-.492-.979-1.034-.979-1.464zm4 4.963c1.47 0 2.864-.348 4-.974v.159c0 .43-.256.972-.98 1.464-.716.488-1.78.832-3.02.832-1.241 0-2.306-.344-3.022-.832-.723-.492-.979-1.034-.979-1.464v-.16c1.135.627 2.53.975 4 .975zm0 4.148c1.47 0 2.864-.348 4-.974v.16c0 .43-.256.971-.98 1.463-.716.488-1.78.832-3.02.832-1.241 0-2.306-.344-3.022-.832-.723-.492-.979-1.033-.979-1.464v-.16c1.135.627 2.53.975 4 .975zm0 4.148c1.214 0 2.377-.238 3.384-.673a3.267 3.267 0 01-.364.285c-.716.488-1.78.832-3.02.832-1.241 0-2.306-.344-3.022-.831a3.267 3.267 0 01-.364-.286c1.008.435 2.17.673 3.385.673z" fill="#203686" stroke="#F4F7FB" stroke-width=".2"/></svg>