<svg width="52" height="52" fill="none" xmlns="http://www.w3.org/2000/svg"><rect width="52" height="52" rx="26" fill="#F4F7FB"/><path fill-rule="evenodd" clip-rule="evenodd" d="M22 12.666a1.333 1.333 0 00-2.667 0V14H18a5.333 5.333 0 00-5.334 5.333V34A5.333 5.333 0 0018 39.333h12a1.333 1.333 0 100-2.667H18A2.667 2.667 0 0115.333 34V22.666h21.334v8.667a1.333 1.333 0 002.666 0v-12A5.333 5.333 0 0034 14h-1.334v-1.334a1.333 1.333 0 00-2.666 0V14h-8v-1.334zM31.333 18A1.333 1.333 0 0130 16.666h-8a1.333 1.333 0 11-2.667 0H18a2.667 2.667 0 00-2.667 2.667V20h21.334v-.667A2.667 2.667 0 0034 16.666h-1.334c0 .737-.596 1.334-1.333 1.334z" fill="#203686"/><path d="M40.261 36.943a1.333 1.333 0 00-1.885-1.886l-2.585 2.585-.376-.376a1.333 1.333 0 00-1.886 1.886l1.319 1.318c.52.52 1.365.52 1.886 0l3.527-3.527z" fill="#203686"/></svg>