<svg width="44" height="44" fill="none" xmlns="http://www.w3.org/2000/svg"><rect width="44" height="44" rx="22" fill="#F4F7FB"/><path d="M15.091 16.416a1 1 0 10-.174 1.993l1.992.174a1 1 0 00.175-1.992l-1.993-.175zm10.917 1.909a1 1 0 011.083-.909l1.992.175a1 1 0 11-.174 1.992l-1.992-.174a1 1 0 01-.91-1.084zm-10.917 6.678a1 1 0 00-.174 1.993l1.992.174a1 1 0 10.175-1.992l-1.993-.175zm10.917 2.322a1 1 0 011.083-.909l1.992.175a1 1 0 11-.174 1.992l-1.992-.174a1 1 0 01-.91-1.084z" fill="#203686"/><path fill-rule="evenodd" clip-rule="evenodd" d="M22 19a3 3 0 110 6 3 3 0 010-6zm1 3a1 1 0 10-2 0 1 1 0 002 0z" fill="#203686"/><path fill-rule="evenodd" clip-rule="evenodd" d="M15.244 13.241C12.931 13.043 11 14.876 11 17.168v7.991c0 2.126 1.655 3.871 3.748 4.047.858.073 1.91.167 3.154.289.223.022.719.123 1.436.289.47.109 1.001.237 1.558.371l.804.194c.84.2 1.697.401 2.436.552.707.145 1.4.265 1.86.267a94.085 94.085 0 003.22-.046c2.14-.065 3.784-1.834 3.784-3.941v-7.989c0-2.312-1.944-4.12-4.216-4.058a89.77 89.77 0 01-2.78.034c-.23 0-.733-.076-1.467-.226a77.185 77.185 0 01-2.371-.538l-.787-.19c-.564-.136-1.11-.268-1.59-.379-.68-.157-1.313-.293-1.691-.33-1.1-.108-2.051-.195-2.854-.264zM13 17.168c0-1.15.957-2.03 2.073-1.934.795.068 1.739.154 2.83.26.222.023.718.124 1.435.29.47.109 1.001.237 1.559.371l.803.194c.84.2 1.697.401 2.436.552.707.145 1.4.265 1.86.267.996.005 1.974-.011 2.842-.035 1.186-.032 2.162.911 2.162 2.06v7.988c0 1.061-.82 1.911-1.846 1.942-.94.03-2.035.05-3.15.045-.23 0-.733-.076-1.467-.226a77.185 77.185 0 01-2.371-.538l-.788-.19c-.562-.136-1.109-.268-1.59-.379-.68-.157-1.312-.293-1.69-.33a233.648 233.648 0 00-3.182-.292C13.834 27.123 13 26.221 13 25.16v-7.99z" fill="#203686"/><path d="M15.091 16.416a1 1 0 10-.174 1.993l1.992.174a1 1 0 00.175-1.992l-1.993-.175zm10.917 1.909a1 1 0 011.083-.909l1.992.175a1 1 0 11-.174 1.992l-1.992-.174a1 1 0 01-.91-1.084zm-10.917 6.678a1 1 0 00-.174 1.993l1.992.174a1 1 0 10.175-1.992l-1.993-.175zm10.917 2.322a1 1 0 011.083-.909l1.992.175a1 1 0 11-.174 1.992l-1.992-.174a1 1 0 01-.91-1.084z" stroke="#F4F7FB" stroke-width=".2"/><path clip-rule="evenodd" d="M22 19a3 3 0 110 6 3 3 0 010-6zm1 3a1 1 0 10-2 0 1 1 0 002 0z" stroke="#F4F7FB" stroke-width=".2"/><path clip-rule="evenodd" d="M15.244 13.241C12.931 13.043 11 14.876 11 17.168v7.991c0 2.126 1.655 3.871 3.748 4.047.858.073 1.91.167 3.154.289.223.022.719.123 1.436.289.47.109 1.001.237 1.558.371l.804.194c.84.2 1.697.401 2.436.552.707.145 1.4.265 1.86.267a94.085 94.085 0 003.22-.046c2.14-.065 3.784-1.834 3.784-3.941v-7.989c0-2.312-1.944-4.12-4.216-4.058a89.77 89.77 0 01-2.78.034c-.23 0-.733-.076-1.467-.226a77.185 77.185 0 01-2.371-.538l-.787-.19h0c-.564-.136-1.11-.268-1.59-.379-.68-.157-1.313-.293-1.691-.33-1.1-.108-2.051-.195-2.854-.264zM13 17.168c0-1.15.957-2.03 2.073-1.934.795.068 1.739.154 2.83.26.222.023.718.124 1.435.29.47.109 1.001.237 1.559.371l.803.194c.84.2 1.697.401 2.436.552.707.145 1.4.265 1.86.267.996.005 1.974-.011 2.842-.035 1.186-.032 2.162.911 2.162 2.06v7.988c0 1.061-.82 1.911-1.846 1.942-.94.03-2.035.05-3.15.045-.23 0-.733-.076-1.467-.226a77.185 77.185 0 01-2.371-.538l-.788-.19c-.562-.136-1.109-.268-1.59-.379-.68-.157-1.312-.293-1.69-.33a233.648 233.648 0 00-3.182-.292C13.834 27.123 13 26.221 13 25.16v-7.99z" stroke="#F4F7FB" stroke-width=".2"/></svg>