<svg width="28" height="28" fill="none" xmlns="http://www.w3.org/2000/svg"><path fill-rule="evenodd" clip-rule="evenodd" d="M2.785 8.3c1.73-1.795 4.721-3.517 9.756-3.438 3.498.056 6.621 1.076 8.859 2.086 1.12.506 2.025 1.01 2.65 1.397a13.102 13.102 0 01.861.577h.316v1.273h-.003v2.71c1.2.49 1.888 1.484 2.268 2.376a6.42 6.42 0 01.421 1.465c.032.194.048.359.054.48a1.477 1.477 0 01-.002.187 203.146 203.146 0 010 1.998 1.369 1.369 0 01-.274.85c-.171.22-.39.346-.584.416a1.779 1.779 0 01-.698.103l-.15.009a389.974 389.974 0 00-2.25.138c-1.418.09-3.236.21-4.84.33-1.558.115-2.632.402-3.692.738-.206.065-.413.133-.623.201-.877.287-1.821.596-3.044.844-3.653.743-6.271.103-8.592-1.095-1.266-.655-1.948-1.54-2.31-2.275a4.3 4.3 0 01-.333-.929 3.264 3.264 0 01-.063-.372l-.002-.027-.001-.008v-.005l.499-.031-.5.03v-4.735a5.14 5.14 0 01.015-1.128 4.164 4.164 0 01.107-.55l.004-.013.018-.068c.017-.058.041-.14.076-.241.069-.203.177-.488.339-.827A9.409 9.409 0 012.785 8.3zM1.6 12.163l-.004.016-.005.016v.001l-.004.015-.018.073a3.173 3.173 0 00-.053.306 4.173 4.173 0 00.02 1.156l5.709-7.11c-1.7.605-2.9 1.487-3.739 2.358a8.41 8.41 0 00-1.536 2.202 6.621 6.621 0 00-.355.91l-.012.047-.003.01zm7.296-5.986l-7.007 8.727c.289.62.771 1.286 1.566 1.918.338.268.692.511 1.058.727l3.274-4.26a.5.5 0 01.793.61L5.411 18.02c1.539.707 3.19.988 4.604.852l4.097-5.754a2.65 2.65 0 01-.484-.171 1.984 1.984 0 01-.774-.628c-.224-.312-.357-.708-.355-1.191.002-.48.132-.87.352-1.178a1.89 1.89 0 01.761-.613 2.57 2.57 0 01.998-.226h.033l2.838.023 1.516-2.07a21.71 21.71 0 00-4.547-1.07L11.295 10.1a.5.5 0 11-.793-.61l2.768-3.6a18.198 18.198 0 00-.744-.027m7.446 1.566l-1.257 1.715 4.788.039A22.65 22.65 0 0020.99 7.86a24.53 24.53 0 00-1.018-.433zm4.253 2.76l-9.591-.077h-.006l-.034.001a1.62 1.62 0 00-.565.134.893.893 0 00-.364.287c-.088.122-.164.307-.165.6-.002.287.075.474.167.602a.988.988 0 00.389.307 1.762 1.762 0 00.639.16h.067l.212-.001a134.484 134.484 0 013.354.043c1.962.05 4.322.158 5.897.396v-2.453zM15.28 13.2a134.843 134.843 0 013.02.042c.564.014 1.156.033 1.748.059l-2.866 3.989c-.955.163-1.961.405-2.927.648l-.678.172c-.774.197-1.508.384-2.168.526L15.28 13.2zm3.26 3.914l.19-.013c1.315-.077 3.478-.144 5.317-.184a176.561 176.561 0 012.874-.04 5.418 5.418 0 00-.35-1.205c-.392-.92-1.104-1.824-2.406-2.03-.795-.126-1.831-.216-2.928-.281l-2.697 3.753zm8.426.764l-.53.001c-.612.005-1.45.018-2.367.038-1.838.04-3.985.106-5.28.183-1.252.073-2.771.426-4.29.808l-.663.168c-1.267.323-2.504.638-3.48.763-2.354.302-5.27-.443-7.525-2.236a6.814 6.814 0 01-1.324-1.377v2.05a2.27 2.27 0 00.042.24 3.3 3.3 0 00.256.711c.278.566.816 1.282 1.87 1.828 2.139 1.104 4.526 1.697 7.935 1.005 1.16-.236 2.042-.524 2.913-.81l.651-.21c1.105-.35 2.259-.658 3.919-.781a439.05 439.05 0 016.601-.44l.505-.03.18-.01.04-.003.034.004h.017a.84.84 0 00.292-.042.302.302 0 00.139-.092c.023-.03.061-.095.062-.243.004-.484.004-1.036.003-1.466v-.06zm-25.46.386zM8.895 6.177c1.054-.218 2.257-.337 3.63-.315l-3.63.315zm.677 5.593a.045.045 0 100-.09.045.045 0 000 .09zm-.955-.045a.955.955 0 111.91 0 .955.955 0 01-1.91 0z" fill="#203686"/></svg>