<svg width="28" height="28" fill="none" xmlns="http://www.w3.org/2000/svg"><path d="M16.69 4.601a.46.46 0 00-.496.095.52.52 0 00-.095.15.452.452 0 00.039.427.446.446 0 00.378.2.441.441 0 00.322-.133.756.756 0 00.101-.15.48.48 0 00.032-.172c0-.06-.01-.12-.035-.172a.396.396 0 00-.245-.245z" fill="#203686"/><path d="M19.789.016h-3.724a.454.454 0 100 .91h3.724a5.31 5.31 0 015.372 5.229 5.308 5.308 0 01-5.372 5.229 5.398 5.398 0 01-4.239-2.02l7.931-2.551a.456.456 0 00-.028-.875l-2.768-.693 2.04-1.701a.453.453 0 00.137-.504.46.46 0 00-.427-.301H11.063a1.813 1.813 0 00-1.589.952C4.326 4.79.602 9.196.602 14.226c0 .2.007.399.017.598a.445.445 0 00.021.27c.462 5.492 5.264 9.835 11.137 9.93l1.796 1.799c.283.297.672.472 1.085.479h.038a1.566 1.566 0 001.13-.578l1.313-1.637c.007-.011.01-.021.018-.032a1.25 1.25 0 00.171-.133 1.707 1.707 0 000-2.517 1.544 1.544 0 00-.171-.126c-.007-.01-.01-.024-.018-.035l-1.33-1.655a1.56 1.56 0 00-1.116-.563 1.538 1.538 0 00-1.124.479l-1.781 1.782c-1.887-.07-3.388-1.267-4.19-3.175h.277a.994.994 0 01.756.375l.714.833a.455.455 0 00.69-.591l-.715-.834a1.93 1.93 0 00-1.449-.693H7.28a8.957 8.957 0 01-.196-.91h.938c.36 0 .707.143.966.399l.833.833a.456.456 0 00.644-.644l-.833-.833a2.256 2.256 0 00-1.607-.665H6.982a10.61 10.61 0 01-.02-.672c0-.08.003-.158.006-.238H8.18c.427-.003.844.144 1.173.42l.952.833a.454.454 0 00.598-.683l-.948-.833a2.668 2.668 0 00-1.771-.643H7.02c.16-1.618.682-2.85 1.554-3.693.003 0 .003.004.007.007l2.786 1.393c.399.2.675.585.742 1.029l.318 2.24a.458.458 0 00.448.392c.021 0 .042 0 .067-.003a.454.454 0 00.385-.515l-.319-2.24a2.269 2.269 0 00-1.235-1.712l-2.398-1.197a5.1 5.1 0 011.337-.539.413.413 0 00.053-.024 1.813 1.813 0 001.641.668.717.717 0 00.084-.017l2.142-.69a6.31 6.31 0 005.156 2.636 6.217 6.217 0 006.279-6.139 6.214 6.214 0 00-6.28-6.146zm-4.655 26.12a.679.679 0 01-.462.256.604.604 0 01-.452-.213l-1.05-1.05 2.597.216-.633.792zm-.917-4.987a.64.64 0 01.437-.213h.014a.662.662 0 01.448.238l.648.808-2.597.217 1.05-1.05zm-1.792 2.026l3.682-.308a.801.801 0 01.802 1.12.797.797 0 01-.799.476l-3.685-.308v-.98zm-6.367-7.458c0 4.217 2.223 7.21 5.457 7.469v.924c-4.914-.2-8.957-3.619-9.828-8.078.493.294 1.06.448 1.634.451h.067a.453.453 0 00.444-.458.458.458 0 00-.455-.451h-.056a2.616 2.616 0 01-1.799-.806 9.14 9.14 0 01-.017-.539c.003-.77.101-1.54.294-2.285a3.386 3.386 0 002.163.987h.024a.454.454 0 00.024-.906 2.675 2.675 0 01-1.882-1.079c-.004-.006-.014-.01-.018-.017a9.72 9.72 0 011.456-2.562 3.42 3.42 0 001.887 1.631.455.455 0 10.29-.861 2.662 2.662 0 01-1.526-1.519A10.508 10.508 0 019.24 4.692v.262c0 1.386.35 2.748 1.022 3.959-1.97.563-4.204 2.219-4.204 6.804zm8.97-7.14a5.065 5.065 0 01-.35-.816.453.453 0 10-.86.287c.094.277.206.55.34.812l-1.894.61a.907.907 0 01-.833-.403l-.056-.077a7.236 7.236 0 01-1.222-4.036v-.388c0-.5.406-.91.91-.91h10.112l-1.764 1.47a.456.456 0 00.182.791l2.093.521-6.657 2.139z" fill="#203686"/></svg>