<svg width="28" height="28" fill="none" xmlns="http://www.w3.org/2000/svg"><path d="M3.267 11.943a1.23 1.23 0 00.619.719l.59.298.397.201-1.054.67a.457.457 0 00-.148.635.456.456 0 00.473.202.459.459 0 00.167-.068l1.511-.96 2.65 1.34a1.245 1.245 0 001.671-.543l1.986-3.891a1.228 1.228 0 00.07-.952l3.495-2.22 7.798-2.062a.46.46 0 00.337-.38.453.453 0 00-.224-.456.46.46 0 00-.348-.046l-5.02 1.327 4.593-2.915a.457.457 0 10-.493-.77l-7.019 4.454-5.51 1.458-2.811-1.422a1.246 1.246 0 00-1.67.543L3.34 10.997a1.224 1.224 0 00-.074.946zm2.033.41L7.58 7.88l2.648 1.34-.408.8-4.05 2.572-.471-.239zm3.705-.733l-1.057 2.072-1.228-.622 2.285-1.45zm.32 2.405a.326.326 0 01-.439.142l-.121-.062 1.76-3.45.768-.488-1.968 3.857zm3.45-5.88L11.6 8.89l-.017-.01-.529-.267-.015-.009 1.736-.46zm-8.616 3.269l1.985-3.892a.326.326 0 01.44-.143l.18.091-2.28 4.474-.182-.092a.326.326 0 01-.143-.437v-.001zM14.83 24.157h-1.661a.46.46 0 00-.474.455.454.454 0 00.474.456h1.66a.46.46 0 00.473-.456.454.454 0 00-.473-.455zm8.736.257h-1.66a.46.46 0 00-.424.282.455.455 0 00.423.63h1.66a.459.459 0 00.459-.456.455.455 0 00-.458-.456z" fill="#203686"/><path d="M26.542 22.758H25.34V18.53c0-.306-.123-.6-.34-.816a1.163 1.163 0 00-.819-.338h-4.553a1.158 1.158 0 00-1.159 1.154v3.7h-1.034v-3.7c0-.306-.122-.6-.34-.816a1.163 1.163 0 00-.819-.338h-4.552c-.307 0-.602.122-.82.338-.216.217-.339.51-.34.816v3.7H9.53v-3.7a1.163 1.163 0 00-1.158-1.154H3.82a1.153 1.153 0 00-1.159 1.154v4.23H1.458a.459.459 0 00-.458.456v3.332a.455.455 0 00.458.456h25.084a.459.459 0 00.458-.456v-3.335a.455.455 0 00-.458-.454zm-7.156 0v-2.601h5.036v2.601h-5.036zm.243-4.468h4.552a.243.243 0 01.241.24v.715h-5.036v-.716a.241.241 0 01.242-.242l.001.003zm-7.905 0h4.552a.243.243 0 01.243.242v.715h-5.038v-.718a.24.24 0 01.15-.223.242.242 0 01.093-.019v.003zm-.243 1.868h5.038v2.072h-5.038v-2.072zm-7.66-1.868h4.551a.244.244 0 01.243.242v.715H3.578v-.718a.241.241 0 01.24-.242l.003.003zm-.243 1.867h5.038v2.601H3.578v-2.601zm-1.662 3.511h6.698v2.42H1.916v-2.42zm16.554 2.42H9.53v-2.947h8.94v2.948zm7.614 0h-6.698v-2.42h6.698v2.42z" fill="#203686"/><path d="M6.095 24.414h-1.66a.459.459 0 00-.458.456.455.455 0 00.458.456h1.66a.46.46 0 00.458-.456.455.455 0 00-.458-.456z" fill="#203686"/></svg>