<svg width="26" height="26" fill="none" xmlns="http://www.w3.org/2000/svg"><path d="M20.644 3.395a.508.508 0 10-.719-.719.508.508 0 00.719.719zm-4.307 6.168a.422.422 0 00.3-.721c-1.778-1.778-.833-2.873-.716-2.994a.427.427 0 00-.006-.594.427.427 0 00-.595-.004c-.016.017-1.706 1.765.718 4.19a.429.429 0 00.3.123zm-1.495 1.073c-1.927-1.928-1.358-3.8-1.332-3.878a.43.43 0 00-.085-.416.426.426 0 00-.403-.133c-.15.03-.27.14-.315.283-.032.097-.773 2.428 1.537 4.742a.422.422 0 00.598 0 .428.428 0 000-.598z" fill="#203686"/><path d="M22.317 13.74c3.536-4.148 3.442-9.715 3.221-11.977A1.521 1.521 0 0024.186.418C22.223.226 17.738.132 13.874 2.442c-1.567-.422-4.687-.598-8.635 2.659a.937.937 0 00-.335.666.935.935 0 00.273.705l3.152 3.156a19.695 19.695 0 00-.841 4.157 4.462 4.462 0 00-3.296 1.16L.601 18.533a.422.422 0 000 .598c.1.1 2.255 2.22 4.693 1.768-.452 2.438 1.667 4.596 1.768 4.693a.422.422 0 00.598 0l3.591-3.591c1.024-1.024 1.212-2.431 1.154-3.559.25-.03.494-.058.738-.094a6.342 6.342 0 004.589 7.14 6.34 6.34 0 004.585-11.749zm1.791-12.477a.67.67 0 01.588.585 18.229 18.229 0 01-.728 7.198 9.238 9.238 0 01-4.576-2.48 9.283 9.283 0 01-2.483-4.575 18.222 18.222 0 017.2-.728zM5.778 5.88c-.02-.016-.026-.042-.026-.068a.07.07 0 01.026-.056c3.071-2.531 5.548-2.84 7.095-2.648-.36.263-.705.546-1.034.845a12.786 12.786 0 00-3.198 4.79L5.778 5.881zm4.875 15.525L7.38 24.68c-.575-.705-1.774-2.464-1.092-4.176l.654-.654a.432.432 0 00.117-.412.424.424 0 00-.715-.185l-.654.653c-1.712.682-3.47-.517-4.176-1.092l3.276-3.27a3.618 3.618 0 012.626-.91c-.052.8-.075 1.628-.055 2.493.03.8.67 1.44 1.469 1.475a26.887 26.887 0 002.733-.072c.042.934-.11 2.078-.91 2.877zM8.846 17.75a.676.676 0 01-.64-.644c-.114-5.622 1.3-9.837 4.209-12.532a11.859 11.859 0 013.692-2.294 10.114 10.114 0 002.684 4.885 10.078 10.078 0 004.878 2.684 11.905 11.905 0 01-2.17 3.543 6.326 6.326 0 00-8.158 4.075c-1.485.228-2.99.322-4.495.283zM19.4 24.87a5.502 5.502 0 115.502-5.502 5.51 5.51 0 01-5.502 5.503z" fill="#203686"/><path d="M22.85 16.889l-.416.24.05-.734a.423.423 0 00-.703-.345.406.406 0 00-.14.293l-.084 1.296-1.736 1.001v-2.002l1.083-.718a.422.422 0 00-.046-.731.427.427 0 00-.422.026l-.611.406v-.478a.422.422 0 10-.845 0v.478l-.618-.41a.422.422 0 10-.468.705l1.082.722v2.002l-1.735-1-.085-1.297a.41.41 0 00-.143-.293.426.426 0 00-.598.04.423.423 0 00-.104.305l.05.734-.417-.24a.421.421 0 00-.637.367.42.42 0 00.215.367l.412.24-.66.326a.423.423 0 00-.191.568.423.423 0 00.569.192l1.163-.578 1.736 1-1.736 1.002-1.163-.576a.426.426 0 00-.566.192.422.422 0 00.189.566l.66.325-.413.24a.423.423 0 10.423.731l.415-.24-.049.734a.423.423 0 00.394.449h.026a.42.42 0 00.422-.397l.085-1.296L18.97 20.1v2.002l-1.082.718a.424.424 0 10.47.705l.612-.406v.484a.422.422 0 10.845 0v-.478l.61.41a.424.424 0 10.472-.705l-1.082-.722v-2.002l1.735 1.001.085 1.297a.421.421 0 00.422.396h.026a.415.415 0 00.29-.143.438.438 0 00.104-.305l-.05-.735.417.24c.13.079.292.079.426.004a.416.416 0 00.21-.367.42.42 0 00-.214-.367l-.412-.24.66-.326a.422.422 0 00-.377-.757l-1.164.575-1.736-1 1.736-1.002 1.163.579c.208.1.462.016.566-.192a.422.422 0 00-.189-.566l-.66-.325.413-.24a.423.423 0 00.003-.735.398.398 0 00-.419-.01z" fill="#203686"/></svg>