<svg width="28" height="28" fill="none" xmlns="http://www.w3.org/2000/svg"><path d="M22.448 16.493c-2.274-2.353-5.371-3.548-9.209-3.548-.051 0-.103.004-.154.004-.004 0-.007-.004-.01-.004-.004 0-.007.004-.01.004-3.756.035-6.792 1.225-9.024 3.544C-.08 20.767-.003 27.279 0 27.555a.459.459 0 00.171.349.437.437 0 00.377.08c.08-.017 7.772-1.878 12.69-1.84 4.908.038 12.649 1.823 12.728 1.84a.44.44 0 00.374-.084.458.458 0 00.171-.349c0-.272.062-6.784-4.064-11.058zm.082 7.539a16.268 16.268 0 00-1.269-2.86l2.432-1.425c.676 1.268 1.111 2.577 1.396 3.754l-2.418.471a.5.5 0 00-.14.06zm.707-5.064l-2.449 1.436c-.62-.936-1.396-1.823-2.35-2.546l1.565-2.214c.655.42 1.258.915 1.807 1.48a11.241 11.241 0 011.427 1.845zm-9.717-2.793v-2.318c2.171.035 4.078.482 5.704 1.334l-1.533 2.168c-1.146-.688-2.524-1.135-4.17-1.184zm-4.726 1.156l-1.52-2.147c1.537-.804 3.328-1.247 5.355-1.32v2.322a8.513 8.513 0 00-3.835 1.145zm-4.115-.206a10.072 10.072 0 011.817-1.491L8.04 17.82c-.967.709-1.76 1.585-2.411 2.51l-2.363-1.386c.4-.635.864-1.253 1.413-1.82zm-.913 6.805l-2.349-.457c.285-1.177.72-2.486 1.396-3.747l2.322 1.362c-.59.97-1.036 1.959-1.369 2.842zm-2.541.43l2.24.436a18.94 18.94 0 00-.467 1.722 78.32 78.32 0 00-2.095.453c.03-.558.11-1.494.322-2.611zm11.86.88c-2.847 0-6.472.576-9.127 1.089.553-2.28 2.768-9.256 9.257-9.256h.028c1.735.003 3.145.485 4.29 1.229.01.007.014.02.024.027.017.014.041.021.059.032 3.2 2.137 4.307 6.34 4.62 7.94-2.683-.496-6.229-1.037-8.993-1.058-.052-.003-.103-.003-.158-.003zm10.087 1.236a17.393 17.393 0 00-.381-1.607c.017 0 .03 0 .048-.003l2.442-.475c.213 1.107.291 2.032.319 2.588-.525-.12-1.379-.3-2.428-.503z" fill="#203686"/><path d="M26.605 6.95C25.13 4.01 22.527 1.922 18.867.753c-.051-.018-.1-.028-.147-.046-.004 0-.007-.003-.01-.003h-.014c-3.591-1.114-6.84-.905-9.655.621-5.19 2.818-7.038 9.054-7.113 9.316a.468.468 0 00.061.388.464.464 0 00.337.195c.078.007 7.967.583 12.645 2.123 4.671 1.537 11.527 5.604 11.596 5.646.116.07.257.08.38.032a.452.452 0 00.268-.283c.086-.259 2.065-6.453-.61-11.792zm-.8.409c.36.716.625 1.456.82 2.196l-2.76.618c-.32-1.082-.793-2.165-1.493-3.146l2.147-1.634c.501.604.933 1.257 1.286 1.966zm-6.941-5.65c2.06.699 3.748 1.708 5.045 3.014l-2.103 1.599c-.891-1.006-2.071-1.854-3.628-2.406l.686-2.207zm-.85-.265l-.687 2.214a8.45 8.45 0 00-3.996-.08l-.816-2.515c1.705-.296 3.543-.17 5.498.38zm-8.548.677a9.97 9.97 0 012.175-.866l.83 2.556c-1.132.38-2.147.974-3.039 1.659L7.583 3.427c.57-.485 1.194-.929 1.883-1.306zm-4.37 8.45a87.438 87.438 0 00-2.132-.21c.192-.523.545-1.392 1.076-2.391l2.01 1.1a17.526 17.526 0 00-.953 1.501zm-.613-3.39C5.1 6.144 5.903 5.03 6.918 4.035l1.814 2.007A16.791 16.791 0 006.59 8.337L4.483 7.18zm10.759 5.3c-.048-.017-.1-.031-.151-.049-2.716-.87-6.342-1.428-9.027-1.749 1.197-2.008 5.37-7.986 11.558-6.002a.062.062 0 00.024.007c1.653.534 2.857 1.424 3.732 2.486.006.01.006.024.013.031.014.018.031.032.048.05 2.425 3.016 2.24 7.363 2.065 8.983-2.408-1.288-5.632-2.89-8.262-3.757zm9.215 1.687a16.66 16.66 0 00-.367-3.115l2.74-.615c.272 1.415.303 2.797.227 4.009l-2.445-.29a.448.448 0 00-.154.01zm-.11 2.528c.042-.339.097-.915.11-1.648l.049.01 2.469.293a19.095 19.095 0 01-.456 2.567 84.11 84.11 0 00-2.171-1.222z" fill="#203686"/><path d="M9.39 20.819s.954-2.053 3.705-2.053c2.75 0 3.556 2.053 3.556 2.053M13.037 7.218s1.516-1.666 4.14-.824c2.627.845 2.785 3.048 2.785 3.048" stroke="#203686" stroke-miterlimit="10" stroke-linecap="round"/></svg>