<svg width="28" height="28" fill="none" xmlns="http://www.w3.org/2000/svg"><path d="M22.448 16.493c-2.274-2.353-5.371-3.548-9.209-3.548-.051 0-.103.004-.154.004-.004 0-.007-.004-.01-.004-.004 0-.007.004-.01.004-3.756.035-6.792 1.225-9.024 3.544C-.08 20.767-.003 27.279 0 27.555a.459.459 0 00.171.349.437.437 0 00.377.08c.08-.017 7.772-1.878 12.69-1.84 4.908.038 12.649 1.823 12.728 1.84a.44.44 0 00.374-.084.458.458 0 00.171-.349c0-.272.062-6.784-4.064-11.058zm.082 7.539a16.268 16.268 0 00-1.269-2.86l2.432-1.425c.676 1.268 1.111 2.577 1.396 3.754l-2.418.471a.5.5 0 00-.14.06zm.707-5.064l-2.449 1.436c-.62-.936-1.396-1.823-2.35-2.546l1.565-2.214c.655.42 1.258.915 1.807 1.48a11.241 11.241 0 011.427 1.845zm-9.717-2.793v-2.318c2.171.035 4.078.482 5.704 1.334l-1.533 2.168c-1.146-.688-2.524-1.135-4.17-1.184zm-4.726 1.156l-1.52-2.147c1.537-.804 3.328-1.247 5.355-1.32v2.322a8.513 8.513 0 00-3.835 1.145zm-4.115-.206a10.072 10.072 0 011.817-1.491L8.04 17.82c-.967.709-1.76 1.585-2.411 2.51l-2.363-1.386c.4-.635.864-1.253 1.413-1.82zm-.913 6.805l-2.349-.457c.285-1.177.72-2.486 1.396-3.747l2.322 1.362c-.59.97-1.036 1.959-1.369 2.842zm-2.541.43l2.24.436a18.94 18.94 0 00-.467 1.722 78.32 78.32 0 00-2.095.453c.03-.558.11-1.494.322-2.611zm11.86.88c-2.847 0-6.472.576-9.127 1.089.553-2.28 2.768-9.256 9.257-9.256h.028c1.735.003 3.145.485 4.29 1.229.01.007.014.02.024.027.017.014.041.021.059.032 3.2 2.137 4.307 6.34 4.62 7.94-2.683-.496-6.229-1.037-8.993-1.058-.052-.003-.103-.003-.158-.003zm10.087 1.236a17.393 17.393 0 00-.381-1.607c.017 0 .03 0 .048-.003l2.442-.475c.213 1.107.291 2.032.319 2.588-.525-.12-1.379-.3-2.428-.503z" fill="#203686"/><path d="M26.605 6.95C25.13 4.01 22.527 1.922 18.867.753c-.051-.018-.1-.028-.147-.046-.004 0-.007-.003-.01-.003h-.014c-3.591-1.114-6.84-.905-9.655.621-5.19 2.818-7.038 9.054-7.113 9.316a.468.468 0 00.061.388.464.464 0 00.337.195c.078.007 7.967.583 12.645 2.123 4.671 1.537 11.527 5.604 11.596 5.646.116.07.257.08.38.032a.452.452 0 00.268-.283c.086-.259 2.065-6.453-.61-11.792zm-.8.409c.36.716.625 1.456.82 2.196l-2.76.618c-.32-1.082-.793-2.165-1.493-3.146l2.147-1.634c.501.604.933 1.257 1.286 1.966zm-6.941-5.65c2.06.699 3.748 1.708 5.045 3.014l-2.103 1.599c-.891-1.006-2.071-1.854-3.628-2.406l.686-2.207zm-.85-.265l-.687 2.214a8.45 8.45 0 00-3.996-.08l-.816-2.515c1.705-.296 3.543-.17 5.498.38zm-8.548.677a9.97 9.97 0 012.175-.866l.83 2.556c-1.132.38-2.147.974-3.039 1.659L7.583 3.427c.57-.485 1.194-.929 1.883-1.306zm-4.37 8.45a87.438 87.438 0 00-2.132-.21c.192-.523.545-1.392 1.076-2.391l2.01 1.1a17.526 17.526 0 00-.953 1.501zm-.613-3.39C5.1 6.144 5.903 5.03 6.918 4.035l1.814 2.007A16.791 16.791 0 006.59 8.337L4.483 7.18zm10.759 5.3c-.048-.017-.1-.031-.151-.049-2.716-.87-6.342-1.428-9.027-1.749 1.197-2.008 5.37-7.986 11.558-6.002a.062.062 0 00.024.007c1.653.534 2.857 1.424 3.732 2.486.006.01.006.024.013.031.014.018.031.032.048.05 2.425 3.016 2.24 7.363 2.065 8.983-2.408-1.288-5.632-2.89-8.262-3.757zm9.215 1.687a16.66 16.66 0 00-.367-3.115l2.74-.615c.272 1.415.303 2.797.227 4.009l-2.445-.29a.448.448 0 00-.154.01zm-.11 2.528c.042-.339.097-.915.11-1.648l.049.01 2.469.293a19.095 19.095 0 01-.456 2.567 84.11 84.11 0 00-2.171-1.222z" fill="#203686"/><path d="M9.39 20.819s.954-2.053 3.705-2.053c2.75 0 3.556 2.053 3.556 2.053M13.037 7.218s1.516-1.666 4.14-.824c2.627.845 2.785 3.048 2.785 3.048" stroke="#203686" stroke-miterlimit="10" stroke-linecap="round"/></svg>55514L23.8642 10.1732C23.5452 9.09074 23.0719 8.00831 22.3722 7.02714L24.5192 5.39302C25.02 5.99709 25.4521 6.65004 25.8054 7.35885ZM18.8636 1.70927C20.9249 2.40761 22.6123 3.41672 23.9087 4.72261L21.8063 6.32182C20.9146 5.31621 19.7348 4.46772 18.1777 3.91603L18.8636 1.70927ZM18.0131 1.4439L17.3271 3.65764C15.8832 3.28752 14.5491 3.30498 13.3315 3.57734L12.5153 1.06331C14.2198 0.766511 16.0581 0.892212 18.0131 1.4439ZM9.46624 2.12129C10.1625 1.74419 10.8861 1.45787 11.6407 1.25535L12.4707 3.81128C11.3389 4.19188 10.3237 4.78547 9.43195 5.46984L7.58333 3.42719C8.15267 2.94184 8.77687 2.4984 9.46624 2.12129ZM5.0968 10.5712C4.18793 10.47 3.44369 10.4036 2.96353 10.3617C3.15559 9.83797 3.50884 8.96853 4.04044 7.9699L6.05027 9.06979C5.59755 9.71226 5.27857 10.2465 5.0968 10.5712ZM4.48289 7.18078C5.10024 6.14374 5.90278 5.02989 6.91797 4.03475L8.73228 6.04248C7.88171 6.78971 7.1649 7.59629 6.58871 8.33653L4.48289 7.18078ZM15.2419 12.4812C15.1939 12.4637 15.1424 12.4498 15.091 12.4323C12.3746 11.5629 8.74944 11.0042 6.06398 10.683C7.26094 8.67523 11.4349 2.69743 17.6221 4.68071C17.6289 4.68421 17.6392 4.6877 17.6461 4.6877C19.2992 5.22193 20.503 6.11231 21.3776 7.17379C21.3845 7.18427 21.3845 7.19824 21.3913 7.20522C21.4051 7.22268 21.4222 7.23664 21.4394 7.2541C23.8642 10.2709 23.6789 14.6181 23.504 16.2383C21.0964 14.9498 17.8725 13.3471 15.2419 12.4812ZM24.4575 14.1677C24.4335 13.2389 24.334 12.1634 24.0905 11.0531L26.8308 10.4385C27.1018 11.8527 27.1327 13.2354 27.0572 14.447L24.6118 14.1572C24.557 14.1502 24.5055 14.1572 24.4575 14.1677ZM24.3477 16.6957C24.3889 16.357 24.4438 15.7808 24.4575 15.0476C24.4746 15.0511 24.4884 15.0546 24.5055 15.0581L26.9749 15.3514C26.8514 16.4722 26.6559 17.3801 26.5187 17.9178C26.0523 17.6454 25.2909 17.209 24.3477 16.6957Z" fill="#203686"/>
<path d="M9.39062 20.8187C9.39062 20.8187 10.3441 18.7656 13.0947 18.7656C15.8453 18.7656 16.6513 20.8187 16.6513 20.8187" stroke="#203686" stroke-miterlimit="10" stroke-linecap="round"/>
<path d="M13.0371 7.21774C13.0371 7.21774 14.553 5.5522 17.1768 6.3937C19.8039 7.23869 19.9617 9.44196 19.9617 9.44196" stroke="#203686" stroke-miterlimit="10" stroke-linecap="round"/>
</svg>
