<svg width="28" height="28" fill="none" xmlns="http://www.w3.org/2000/svg"><path d="M24.533 17.79l-.445.256.05-.784a.456.456 0 00-.424-.483.434.434 0 00-.33.109.45.45 0 00-.15.315l-.087 1.386-1.855 1.07v-2.141l1.155-.77a.455.455 0 00-.504-.756l-.655.434v-.511a.453.453 0 00-.903 0v.51l-.654-.437a.445.445 0 00-.452-.028.457.457 0 00-.252.378.457.457 0 00.2.406l1.155.77v2.142l-1.855-1.07-.091-1.387a.442.442 0 00-.48-.42.453.453 0 00-.423.483l.052.784-.444-.255a.459.459 0 00-.455-.004.454.454 0 00-.228.392c0 .161.088.312.228.392l.444.256-.703.35a.455.455 0 10.402.815l1.246-.62 1.855 1.072-1.855 1.07-1.246-.615a.455.455 0 00-.605.206.45.45 0 00.203.606l.703.35-.444.255a.454.454 0 00-.228.392.45.45 0 00.682.388l.445-.255-.049.784a.456.456 0 00.424.483h.028a.452.452 0 00.451-.423l.091-1.386 1.855-1.071v2.142l-1.155.77a.455.455 0 00-.126.626c.137.207.42.263.627.126l.654-.434v.511a.453.453 0 00.903 0v-.51l.655.437c.206.14.49.084.626-.126a.45.45 0 00-.126-.627l-1.155-.77v-2.142l1.855 1.071.091 1.386a.452.452 0 00.452.424h.028a.453.453 0 00.423-.483l-.052-.788.444.256c.14.08.315.084.455.003a.454.454 0 00.228-.392.454.454 0 00-.228-.392l-.444-.255.703-.35a.453.453 0 00-.402-.812l-1.246.616-1.855-1.071 1.855-1.071 1.246.62a.455.455 0 00.605-.207.45.45 0 00-.203-.606l-.703-.35.444-.255a.454.454 0 00.228-.392.454.454 0 00-.68-.392z" fill="#203686"/><path d="M26.108 13.955a2.62 2.62 0 00.728-.508c1.2-1.2 1.008-3.353-.438-4.802a4.297 4.297 0 00-1.375-.92c.647-1.236.311-2.937-.9-4.148-1.21-1.21-2.915-1.547-4.147-.9a4.265 4.265 0 00-.924-1.378C17.606-.14 15.45-.336 14.253.865a2.57 2.57 0 00-.507.728 4.291 4.291 0 00-2.842-1.06H10.9A4.446 4.446 0 006.473 4.96a4.288 4.288 0 001.554 3.32 3.926 3.926 0 00-.074 3.038 8.293 8.293 0 01-2.243 4.865L.862 21.032a1.397 1.397 0 00.035 1.97l3.805 3.801c.27.273.637.427 1.022.43.357.004.7-.136.952-.388l4.847-4.847a7.5 7.5 0 012.534-1.631c0 .028-.003.052-.003.08a6.79 6.79 0 0011.652 4.75 6.798 6.798 0 001.364-7.459 4.345 4.345 0 00-.962-3.783zM7.376 4.963a3.543 3.543 0 013.52-3.524 3.39 3.39 0 012.42.997c.097.102.188.207.276.319a.454.454 0 00.472.16.455.455 0 00.333-.37c.049-.389.22-.75.493-1.033.85-.85 2.43-.654 3.518.434.43.43.735.97.882 1.561a.447.447 0 00.742.231c.875-.79 2.387-.574 3.447.487 1.06 1.06 1.274 2.576.487 3.447a.454.454 0 00.23.746 3.282 3.282 0 011.558.878c1.085 1.092 1.285 2.67.434 3.521a1.83 1.83 0 01-1.032.494.455.455 0 00-.371.332.454.454 0 00.16.473 3.363 3.363 0 011.285 2.233 6.776 6.776 0 00-6.03-2.657 6.764 6.764 0 00-5.432 3.728c-.9-1.288-.917-2.923.038-3.878a.453.453 0 00-.64-.64 2.588 2.588 0 01-2.09.703 3.828 3.828 0 01-2.348-1.134c-1.183-1.183-1.495-2.888-.742-4.057a.453.453 0 00-.126-.62 3.34 3.34 0 01-.487-.402 3.478 3.478 0 01-.997-2.429zm5.94 11.358c.094.399.237.784.433 1.144a12.74 12.74 0 00-2.236.658l1.802-1.802zm-3.077-2.37c.36.196.742.343 1.14.438l-1.802 1.799c.287-.725.508-1.474.662-2.237zm.633 7.406l-4.847 4.851a.5.5 0 01-.686-.038l-1.9-1.9v-.004l-1.901-1.904a.494.494 0 01-.035-.69l4.844-4.847a8.755 8.755 0 002.289-4.256c.14.185.294.364.458.528.105.105.217.196.326.29-.137.84-.364 1.667-.68 2.458a.895.895 0 00.34 1.092.902.902 0 001.148-.116l2.328-2.327c.259-.01.514-.05.766-.112a3.715 3.715 0 00-.108.76l-2.335 2.334a.903.903 0 00-.126 1.148c.238.364.7.507 1.103.34a11.776 11.776 0 012.46-.683c.021.024.046.049.067.077a7.034 7.034 0 00-.238 1.008 8.536 8.536 0 00-3.266 1.988l-.007.003zm9.965 4.974a5.883 5.883 0 110-11.767 5.883 5.883 0 110 11.767z" fill="#203686"/><path d="M14.054 6.79c.21.133.49.074.623-.136a2.9 2.9 0 00.399-2.128.455.455 0 00-.89.182 1.993 1.993 0 01-.272 1.463.46.46 0 00.14.62zm.392.743a.45.45 0 00.084.633c.609.476.959 1.211.941 1.981a.453.453 0 00.438.466h.014a.45.45 0 00.451-.438 3.36 3.36 0 00-1.295-2.73.462.462 0 00-.336-.09.49.49 0 00-.297.178zm3.29.265a.44.44 0 00.238-.07 3.217 3.217 0 001.463-2.243.453.453 0 10-.896-.13 2.3 2.3 0 01-1.047 1.603.455.455 0 00.242.84zm-6.864-.86c.074 0 .15-.018.214-.056.427-.228.92-.291 1.39-.175.24.059.49-.088.549-.33a.455.455 0 00-.33-.549 2.862 2.862 0 00-2.036.259.453.453 0 00.213.85zm9.944 4.462a.452.452 0 00.343.056.462.462 0 00.283-.204 2.29 2.29 0 011.603-1.046.45.45 0 00.382-.515.451.451 0 00-.515-.381 3.225 3.225 0 00-2.243 1.463.464.464 0 00.147.627zM7.32 17.154l-2.91 2.908a.449.449 0 00-.122.441.448.448 0 00.322.322.459.459 0 00.44-.122l2.91-2.909a.451.451 0 00-.008-.633.451.451 0 00-.633-.007zm-4.204 4.203l-.322.322a.449.449 0 00-.122.441.448.448 0 00.322.322.459.459 0 00.44-.122l.323-.323a.451.451 0 00-.007-.633.451.451 0 00-.634-.007z" fill="#203686"/></svg>