<svg width="28" height="28" fill="none" xmlns="http://www.w3.org/2000/svg"><path d="M1.04 26.736h25.78M1.04 9.578h25.78M2.09 12.736h23.68M2.09 23.408h23.68M2.04 9.578h23.765v17.157H2.04V9.578z" stroke="#203686" stroke-miterlimit="10" stroke-linecap="round"/><path d="M18.585 16.102s-3.976 4-6.56 4.021c-1.97.018-2.74-.896-2.74-1.97 0-1.075.998-1.943 2.64-1.922 2.848.039 6.66 3.79 6.66 3.79" stroke="#203686" stroke-miterlimit="10" stroke-linecap="round"/><path d="M21.554 4.34c-.046 0-.091.004-.137.008a2.85 2.85 0 00-2.5-4.207c-1.108 0-2.07.64-2.54 1.571a2.847 2.847 0 00-2.54-1.571 2.85 2.85 0 00-2.601 1.694A2.85 2.85 0 008.636.14a2.85 2.85 0 00-2.503 4.203A2.845 2.845 0 003.34 7.186a2.85 2.85 0 002.845 2.846c1.159 0 1.47-.05 2.57-.714 1.067.41 1.473.714 2.631.714 1.11 0 1.698-.035 2.573-.802.836.627 1.396.802 2.51.802 1.112 0 1.179-.05 2.544-.644 1.204.577 1.431.644 2.54.644A2.85 2.85 0 0024.4 7.186a2.85 2.85 0 00-2.845-2.845zm-2.636-3.29c1.068 0 1.936.869 1.936 1.936a1.937 1.937 0 01-1.936 1.936 1.937 1.937 0 01-1.935-1.936c0-1.067.868-1.935 1.935-1.935zm-5.085 0c1.067 0 1.935.869 1.935 1.936a1.937 1.937 0 01-1.935 1.936 1.937 1.937 0 01-1.936-1.936c0-1.067.868-1.935 1.936-1.935zm-5.201 0c1.067 0 1.935.869 1.935 1.936a1.937 1.937 0 01-1.935 1.936 1.937 1.937 0 01-1.936-1.936c0-1.067.868-1.935 1.936-1.935zm-2.45 8.072a1.937 1.937 0 01-1.936-1.936c0-1.067.868-1.935 1.936-1.935 1.067 0 1.935.868 1.935 1.935a1.937 1.937 0 01-1.935 1.936zm5.2 0a1.937 1.937 0 01-1.935-1.936c0-1.067.868-1.935 1.936-1.935a1.935 1.935 0 110 3.871zm5.086 0a1.937 1.937 0 01-1.935-1.936c0-1.067.868-1.935 1.935-1.935 1.068 0 1.936.868 1.936 1.935a1.937 1.937 0 01-1.936 1.936zm5.086 0a1.937 1.937 0 01-1.936-1.936c0-1.067.868-1.935 1.936-1.935 1.067 0 1.935.868 1.935 1.935a1.937 1.937 0 01-1.935 1.936z" fill="#203686"/></svg>