<svg width="28" height="28" fill="none" xmlns="http://www.w3.org/2000/svg"><path d="M1.04 26.736h25.78M1.04 9.578h25.78M2.09 12.736h23.68M2.09 23.408h23.68M2.04 9.578h23.765v17.157H2.04V9.578z" stroke="#203686" stroke-miterlimit="10" stroke-linecap="round"/><path d="M18.585 16.102s-3.976 4-6.56 4.021c-1.97.018-2.74-.896-2.74-1.97 0-1.075.998-1.943 2.64-1.922 2.848.039 6.66 3.79 6.66 3.79" stroke="#203686" stroke-miterlimit="10" stroke-linecap="round"/><path d="M21.554 4.34c-.046 0-.091.004-.137.008a2.85 2.85 0 00-2.5-4.207c-1.108 0-2.07.64-2.54 1.571a2.847 2.847 0 00-2.54-1.571 2.85 2.85 0 00-2.601 1.694A2.85 2.85 0 008.636.14a2.85 2.85 0 00-2.503 4.203A2.845 2.845 0 003.34 7.186a2.85 2.85 0 002.845 2.846c1.159 0 1.47-.05 2.57-.714 1.067.41 1.473.714 2.631.714 1.11 0 1.698-.035 2.573-.802.836.627 1.396.802 2.51.802 1.112 0 1.179-.05 2.544-.644 1.204.577 1.431.644 2.54.644A2.85 2.85 0 0024.4 7.186a2.85 2.85 0 00-2.845-2.845zm-2.636-3.29c1.068 0 1.936.869 1.936 1.936a1.937 1.937 0 01-1.936 1.936 1.937 1.937 0 01-1.935-1.936c0-1.067.868-1.935 1.935-1.935zm-5.085 0c1.067 0 1.935.869 1.935 1.936a1.937 1.937 0 01-1.935 1.936 1.937 1.937 0 01-1.936-1.936c0-1.067.868-1.935 1.936-1.935zm-5.201 0c1.067 0 1.935.869 1.935 1.936a1.937 1.937 0 01-1.935 1.936 1.937 1.937 0 01-1.936-1.936c0-1.067.868-1.935 1.936-1.935zm-2.45 8.072a1.937 1.937 0 01-1.936-1.936c0-1.067.868-1.935 1.936-1.935 1.067 0 1.935.868 1.935 1.935a1.937 1.937 0 01-1.935 1.936zm5.2 0a1.937 1.937 0 01-1.935-1.936c0-1.067.868-1.935 1.936-1.935a1.935 1.935 0 110 3.871zm5.086 0a1.937 1.937 0 01-1.935-1.936c0-1.067.868-1.935 1.935-1.935 1.068 0 1.936.868 1.936 1.935a1.937 1.937 0 01-1.936 1.936zm5.086 0a1.937 1.937 0 01-1.936-1.936c0-1.067.868-1.935 1.936-1.935 1.067 0 1.935.868 1.935 1.935a1.937 1.937 0 01-1.935 1.936z" fill="#203686"/></svg>2C15.7683 4.05362 14.9004 4.92162 13.8329 4.92162C12.7654 4.92162 11.8973 4.05362 11.8973 2.98612C11.8973 1.91862 12.7654 1.05063 13.8329 1.05063ZM8.63184 1.05063C9.69934 1.05063 10.5674 1.91862 10.5674 2.98612C10.5674 4.05362 9.69934 4.92162 8.63184 4.92162C7.56434 4.92162 6.69635 4.05362 6.69635 2.98612C6.69635 1.91862 7.56434 1.05063 8.63184 1.05063ZM6.18184 9.12162C5.11434 9.12162 4.24635 8.25362 4.24635 7.18613C4.24635 6.11863 5.11434 5.25063 6.18184 5.25063C7.24934 5.25063 8.11735 6.11863 8.11735 7.18613C8.11735 8.25362 7.24934 9.12162 6.18184 9.12162ZM11.3829 9.12162C10.3154 9.12162 9.44735 8.25362 9.44735 7.18613C9.44735 6.11863 10.3154 5.25063 11.3829 5.25063C12.4504 5.25063 13.3183 6.11863 13.3183 7.18613C13.3183 8.25362 12.4539 9.12162 11.3829 9.12162ZM16.4683 9.12162C15.4008 9.12162 14.5329 8.25362 14.5329 7.18613C14.5329 6.11863 15.4008 5.25063 16.4683 5.25063C17.5358 5.25063 18.4039 6.11863 18.4039 7.18613C18.4039 8.25362 17.5358 9.12162 16.4683 9.12162ZM21.5539 9.12162C20.4864 9.12162 19.6183 8.25362 19.6183 7.18613C19.6183 6.11863 20.4864 5.25063 21.5539 5.25063C22.6214 5.25063 23.4893 6.11863 23.4893 7.18613C23.4893 8.25362 22.6214 9.12162 21.5539 9.12162Z" fill="#203686"/>
</svg>
