<svg width="28" height="28" fill="none" xmlns="http://www.w3.org/2000/svg"><path d="M5.954 8.18v.944c-.7 0-1.267.613-1.267 1.369v15.505c0 .756.567 1.368 1.267 1.368h6.342c.7 0 1.267-.612 1.267-1.368V10.493c0-.756-.567-1.369-1.267-1.369V7.756c0-.756-.567-1.369-1.267-1.369h-.49l-.612-3.646c.402-.088.689-.47.682-.914V.913c0-.504-.378-.913-.847-.913h-1.69a.84.84 0 00-.728.455H6.38C4.512.455 3 2.09 3 4.102v.455C2.993 6.398 4.264 7.948 5.954 8.18zm6.766 12.799H5.53v-5.015h7.19v5.015zm-.424 5.47H5.954c-.234 0-.423-.203-.423-.455V21.89h7.189v4.105c0 .253-.193.456-.424.456zm.424-15.96v4.561H5.53v-4.56c0-.252.19-.456.424-.456h6.342c.231 0 .424.204.424.455zm-1.271-2.737v1.369H6.798V7.752c0-.252.189-.454.423-.454h3.804c.235 0 .424.206.424.455zM8.152 6.389l.609-3.647h.305l.609 3.647H8.152zM9.759.913v.914H8.068V.913h1.69zM3.84 4.105c0-1.512 1.138-2.737 2.538-2.737h.847v.455c-.007.442.28.827.682.914l-.612 3.647c-.557-.038-1.071.322-1.267.885-1.253-.192-2.181-1.343-2.181-2.708v-.456H3.84z" fill="#203686"/><path d="M7.644 10.944h-.847c-.234 0-.423.203-.423.455s.189.455.423.455h.847c.235 0 .424-.203.424-.455s-.19-.455-.424-.455zm3.805 0H9.335c-.235 0-.424.203-.424.455s.19.455.424.455h2.114c.234 0 .423-.203.423-.455s-.189-.455-.423-.455zm1.869 1.408l-.389 13.132a1.824 1.824 0 001.824 1.88h8.127a1.824 1.824 0 001.823-1.88l-.388-13.132a3.936 3.936 0 01.315-1.652 4.821 4.821 0 00-.57-4.77l-.914-1.219a.916.916 0 00.227-.605V1.369C23.373.613 22.761 0 22.005 0H15.62a1.37 1.37 0 00-1.369 1.369v2.737c0 .224.084.437.231.602l-.917 1.221a4.828 4.828 0 00-.57 4.774 3.77 3.77 0 01.322 1.649zm1.851-9.615h7.298v1.369h-7.298V2.737zm.459-1.823h6.384c.252 0 .455.203.455.455v.455h-7.298v-.455a.46.46 0 01.459-.455zm-1.323 5.558L15.4 5.016h6.84l1.095 1.456a3.901 3.901 0 01.455 3.867 4.911 4.911 0 00-.389 2.037l.389 13.132a.91.91 0 01-.91.938h-8.12a.908.908 0 01-.91-.938l.388-13.132a4.9 4.9 0 00-.388-2.037 3.884 3.884 0 01.455-3.867z" fill="#203686"/><path d="M16.083 11.403a.914.914 0 00-.914.914l-.273 8.207a.918.918 0 00.914.945c2.002.056 4.063.056 6.065 0a.92.92 0 00.658-.28.924.924 0 00.256-.665l-.319-8.207a.914.914 0 00-.913-.914c-3.15.098-5.275 0-5.474 0zm5.47.91l.256 8.208c-1.992.056-4.018.056-6.013 0l.287-8.208c1.823.067 3.647.067 5.47 0zm-6.3-2.279a.454.454 0 00.424-.623 1.874 1.874 0 01.532-2.201.454.454 0 00.09-.637.454.454 0 00-.636-.091 2.786 2.786 0 00-.833 3.269.456.456 0 00.423.283zm.83 14.592h-.914a.454.454 0 100 .91h.914a.454.454 0 100-.91zm1.823 0a.454.454 0 100 .91h4.56a.454.454 0 100-.91h-4.56z" fill="#203686"/></svg>