<svg width="28" height="28" fill="none" xmlns="http://www.w3.org/2000/svg"><path d="M19.907 14.082a.563.563 0 110 1.127H2.015a.563.563 0 110-1.127h17.892zm5.877 3.077v2.824H20.27v-1.918a3.715 3.715 0 003.035-3.647 3.71 3.71 0 00-3.707-3.706 3.716 3.716 0 00-3.531 2.58h-2.653V9.755h12.372v7.403h-.003zm.787-1.813V6.61a1.353 1.353 0 00-.364-2.657h-13.22a1.353 1.353 0 00-.364 2.656v6.69H8.236l.227-2.062A1.324 1.324 0 007.15 9.77H5.799a1.319 1.319 0 00-1.313 1.466l.228 2.061H2.019a1.353 1.353 0 00-.364 2.656v7.844c-.57.161-.99.683-.99 1.302 0 .746.605 1.355 1.354 1.355h24.195a1.353 1.353 0 00.364-2.656v-8.453h-.007zM2.011 25.66a.563.563 0 110-1.127h17.893a.563.563 0 110 1.127H2.012zm11.4-16.688V6.66h12.373v2.313H13.41zm-.99-3.668c0-.311.252-.563.563-.563h13.22a.563.563 0 110 1.127h-13.22a.565.565 0 01-.563-.564zM5.263 11.15a.521.521 0 01.133-.413.526.526 0 01.4-.178h1.35a.531.531 0 01.532.591l-.234 2.146h-1.94l-.24-2.146zm20.52 9.622v2.971h-5.512v-2.971h5.513zm-6.303 2.971H2.435V16H19.48v7.742zm1.778-9.093c0-.745-.605-1.354-1.354-1.354H16.9a2.922 2.922 0 015.614 1.127 2.93 2.93 0 01-2.247 2.842v-1.31c.57-.16.99-.685.99-1.305zm4.95 11.011h-5.072a1.368 1.368 0 000-1.127h5.071a.563.563 0 110 1.127z" fill="#203686"/><path d="M6.887 11.432h-.836a.395.395 0 100 .791h.836a.395.395 0 100-.79zM6.593 21.58a.186.186 0 01.136.174v.018c0 .532.434.966.966.966h6.521a.968.968 0 00.966-.966v-.014c0-.077.056-.147.14-.175a1.784 1.784 0 001.26-1.712c0-.773-.494-1.456-1.225-1.7a.256.256 0 01-.175-.246.968.968 0 00-.966-.966H7.699a.968.968 0 00-.966.966.272.272 0 01-.179.252c-.717.252-1.2.931-1.2 1.69a1.78 1.78 0 001.239 1.712zm.22-2.654c.424-.147.707-.55.707-.997a.18.18 0 01.179-.179h6.52a.18.18 0 01.179.179c0 .451.287.847.714.99a1.005 1.005 0 01-.021 1.911.973.973 0 00-.693.928v.014a.18.18 0 01-.178.178H7.699a.18.18 0 01-.179-.178v-.018a.975.975 0 00-.682-.924 1.004 1.004 0 01-.024-1.904z" fill="#203686"/><path d="M19.907 14.082a.563.563 0 110 1.127H2.015a.563.563 0 110-1.127h17.892zm5.877 3.077v2.824H20.27v-1.918a3.715 3.715 0 003.035-3.647 3.71 3.71 0 00-3.707-3.706 3.716 3.716 0 00-3.531 2.58h-2.653V9.755h12.372v7.403h-.003zm.787-1.813V6.61a1.353 1.353 0 00-.364-2.657h-13.22a1.353 1.353 0 00-.364 2.656v6.69H8.236l.227-2.062A1.324 1.324 0 007.15 9.77H5.799a1.319 1.319 0 00-1.313 1.466l.228 2.061H2.019a1.353 1.353 0 00-.364 2.656v7.844c-.57.161-.99.683-.99 1.302 0 .746.605 1.355 1.354 1.355h24.195a1.353 1.353 0 00.364-2.656v-8.453h-.007zM2.011 25.66a.563.563 0 110-1.127h17.893a.563.563 0 110 1.127H2.012zm11.4-16.688V6.66h12.373v2.313H13.41zm-.99-3.668c0-.311.252-.563.563-.563h13.22a.563.563 0 110 1.127h-13.22a.565.565 0 01-.563-.564zM5.263 11.15a.521.521 0 01.133-.413.526.526 0 01.4-.178h1.35a.531.531 0 01.532.591l-.234 2.146h-1.94l-.24-2.146zm20.52 9.622v2.971h-5.512v-2.971h5.513zm-6.303 2.971H2.435V16H19.48v7.742zm1.778-9.093c0-.745-.605-1.354-1.354-1.354H16.9a2.922 2.922 0 015.614 1.127 2.93 2.93 0 01-2.247 2.842v-1.31c.57-.16.99-.685.99-1.305zm4.95 11.011h-5.072a1.368 1.368 0 000-1.127h5.071a.563.563 0 110 1.127z" stroke="#203686" stroke-width=".122" stroke-miterlimit="10"/><path d="M6.887 11.432h-.836a.395.395 0 100 .791h.836a.395.395 0 100-.79zM6.593 21.58a.186.186 0 01.136.174v.018c0 .532.434.966.966.966h6.521a.968.968 0 00.966-.966v-.014c0-.077.056-.147.14-.175a1.784 1.784 0 001.26-1.712c0-.773-.494-1.456-1.225-1.7a.256.256 0 01-.175-.246.968.968 0 00-.966-.966H7.699a.968.968 0 00-.966.966.272.272 0 01-.179.252c-.717.252-1.2.931-1.2 1.69a1.78 1.78 0 001.239 1.712zm.22-2.654c.424-.147.707-.55.707-.997a.18.18 0 01.179-.179h6.52a.18.18 0 01.179.179c0 .451.287.847.714.99a1.005 1.005 0 01-.021 1.911.973.973 0 00-.693.928v.014a.18.18 0 01-.178.178H7.699a.18.18 0 01-.179-.178v-.018a.975.975 0 00-.682-.924 1.004 1.004 0 01-.024-1.904z" stroke="#203686" stroke-width=".122" stroke-miterlimit="10"/></svg>