<svg width="28" height="28" fill="none" xmlns="http://www.w3.org/2000/svg"><path d="M17.55 22.988a.413.413 0 00.353-.466c-.109-.784-1.694-.171-1.523 1.047.168 1.214 1.862 1.379 1.75.591a.413.413 0 00-.465-.354.413.413 0 01-.116-.819zm-.638-2.428a1.239 1.239 0 10-2.478 0 1.239 1.239 0 002.478 0zm-1.656 0a.414.414 0 01.826 0 .414.414 0 01-.826 0zm-1.652 2.893a1.239 1.239 0 100 2.478 1.239 1.239 0 000-2.478zm0 1.652a.414.414 0 010-.826.414.414 0 010 .826z" fill="#203686" stroke="#203686" stroke-width=".084" stroke-miterlimit="10"/><path d="M17.083 26.403c-2.293.777-4.872.249-6.65-1.34l.318-.83c1.103-.266 1.596-1.624.977-2.537l1.092-2.835c1.785.553 2.845-2.307 1.19-3.094l.896-2.328 1.214 3.157c.196.511.97.214.77-.297L15.504 12.7h2.01l.465 1.21c-1.246 1.04-.378 3.371 1.501 2.864a.412.412 0 10-.21-.798h-.007c-1.092.294-1.372-1.145-.595-1.537a.413.413 0 00.2-.518l-.686-1.785a.412.412 0 00-.385-.266c-2.972 0-3.14-.098-3.28.266-1.424 3.854-1.589 3.787-1.414 4.092a.416.416 0 00.29.203c.893.147.676 1.214.193 1.554-.227.16-.49.147-.78-.039a.413.413 0 00-.57.126.775.775 0 00-.04.074l-1.336 3.468a.412.412 0 00.087.438c.445.458.144 1.35-.535 1.39a.416.416 0 00-.36.262l-.505 1.312a.412.412 0 00.098.445c2.062 2.005 4.95 2.653 7.69 1.715a.413.413 0 00.259-.525c-.06-.207-.294-.322-.511-.249z" fill="#203686" stroke="#203686" stroke-width=".084" stroke-miterlimit="10"/><path d="M24.822 24.111l.511-5.62h.448a.414.414 0 000-.827h-9.093a.414.414 0 000 .826h.448l.791 8.719a.412.412 0 00.413.374h5.79a.417.417 0 00.412-.374l.301-3.311a.413.413 0 10-.822-.088v.01l-.266 2.934h-5.033l-.753-8.267h6.535L24 24.034" fill="#203686"/><path d="M24.822 24.111l.511-5.62h.448a.414.414 0 000-.827h-9.093a.414.414 0 000 .826h.448l.791 8.719a.412.412 0 00.413.374h5.79a.417.417 0 00.412-.374l.301-3.311a.413.413 0 10-.822-.088v.01l-.266 2.934h-5.033l-.753-8.267h6.535L24 24.034" stroke="#203686" stroke-width=".084" stroke-miterlimit="10"/><path d="M15.257 11.04a.412.412 0 00.486-.321 3.722 3.722 0 011.414-2.233.443.443 0 00.046-.039c.549-.55.63-1.578-.431-2.464-.192-.161-.262-.434-.206-.588.014-.035.049-.133.283-.133 5.005.095 5.257-.147 5.362.14.056.15-.007.417-.203.581-.521.438-.798.913-.822 1.41-.021.494.244.949.437 1.093.934.703 1.484 2.505 1.487 3.675a.414.414 0 00.826 0c-.003-1.415-.661-3.451-1.785-4.313-.339-.42-.024-.888.386-1.231.748-.627.703-1.877-.256-2.139v-2.94a.414.414 0 00-.413-.413h-4.96a.414.414 0 00-.413.413v2.936c-.969.26-1.004 1.513-.255 2.139.417.346.721.815.385 1.232a4.563 4.563 0 00-1.694 2.702.423.423 0 00.326.493zm2.068-9.085h4.134v.825h-2.895a.414.414 0 000 .827h2.895v.825h-4.134V1.954zM5.336 20.558a.414.414 0 00-.413-.413 1.653 1.653 0 01-1.652-1.651c0-.63.914-2.055 1.652-3.046.742.991 1.652 2.415 1.652 3.046a.414.414 0 00.826 0c0-1.25-1.935-3.704-2.156-3.98a.412.412 0 00-.644 0c-.22.277-2.156 2.73-2.156 3.98-.003 2.278 2.891 3.062 2.891 2.064z" fill="#203686" stroke="#203686" stroke-width=".084" stroke-miterlimit="10"/><path d="M14.035 15.787V8.152c0-.21.021-.042-2.499-4.263V1.538a.414.414 0 00-.413-.413H3.682a.414.414 0 00-.413.413v2.366l-.329.553-1.701 2.835c-.41.686-.448.71-.448.861v19.016c0 .227.186.412.413.412h12.943a.414.414 0 000-.825H9.058V8.268l2.072-3.454 2.079 3.454v7.518h.826zM6.989 8.566h1.24v3.307H1.614V8.566h5.375zM5.338 7.74H1.932l.014-.025 1.698-2.827c0-.004.003-.004.003-.008l.27-.447h6.478L8.411 7.74H5.338zM4.095 3.603V1.951h6.615v1.652H4.095zm4.134 23.153H1.614v-3.308h6.615v3.308zm0-4.134H1.614V12.7h6.615v9.922zm15.297-11.067a.414.414 0 00-.413.413v5.852a.414.414 0 00.826 0v-5.852a.414.414 0 00-.413-.413z" fill="#203686" stroke="#203686" stroke-width=".084" stroke-miterlimit="10"/><path d="M7.403 18.486c0-1.25-1.935-3.703-2.156-3.98a.412.412 0 00-.644 0c-.22.277-2.156 2.73-2.156 3.98a.414.414 0 00.826 0c0-.63.914-2.055 1.652-3.045.742.99 1.652 2.415 1.652 3.045 0 .913-.742 1.652-1.652 1.652a.414.414 0 00-.413.413c-.003 1 2.891.217 2.891-2.065z" fill="#203686" stroke="#203686" stroke-width=".084" stroke-miterlimit="10"/><path d="M15.281 12.15s.035-1.588.112-1.798" stroke="#203686" stroke-width=".898" stroke-miterlimit="10"/><path d="M16.971 17.95l-.535-1.716m1.683 10.118s-.301.252-.536.332c-.234.08-1.134.333-1.134.333m2.906-10.603l.403 1.642" stroke="#203686" stroke-width=".91" stroke-miterlimit="10"/></svg>.084" stroke-miterlimit="10"/>
<path d="M15.2565 11.0405C15.4805 11.086 15.6975 10.9425 15.743 10.7185C15.925 9.826 16.429 9.0315 17.157 8.4855C17.171 8.475 17.1885 8.461 17.2025 8.447C17.752 7.8975 17.8325 6.8685 16.772 5.983C16.5795 5.822 16.5095 5.549 16.5655 5.395C16.5795 5.36 16.6145 5.262 16.849 5.262C21.854 5.3565 22.106 5.115 22.211 5.402C22.267 5.5525 22.204 5.8185 22.008 5.983C21.4865 6.4205 21.21 6.8965 21.1855 7.3935C21.1645 7.887 21.4305 8.342 21.623 8.4855C22.5575 9.189 23.107 10.9915 23.1105 12.1605C23.1105 12.388 23.296 12.5735 23.5235 12.5735C23.751 12.5735 23.9365 12.388 23.9365 12.1605C23.933 10.7465 23.275 8.7095 22.1515 7.8485C21.812 7.4285 22.127 6.9595 22.5365 6.6165C23.2855 5.99 23.24 4.7405 22.281 4.478V1.538C22.281 1.3105 22.0955 1.125 21.868 1.125H16.9085C16.681 1.125 16.4955 1.3105 16.4955 1.538V4.4745C15.526 4.7335 15.491 5.9865 16.24 6.613C16.6565 6.9595 16.961 7.4285 16.625 7.845C15.7535 8.5135 15.1515 9.4725 14.931 10.547C14.889 10.778 15.036 10.995 15.2565 11.0405ZM17.325 1.9545H21.4585V2.7805H18.564C18.3365 2.7805 18.151 2.966 18.151 3.1935C18.151 3.421 18.3365 3.6065 18.564 3.6065H21.4585V4.4325H17.325V1.9545Z" fill="#203686" stroke="#203686" stroke-width="0.084" stroke-miterlimit="10"/>
<path d="M5.33632 20.5585C5.33632 20.331 5.15082 20.1455 4.92332 20.1455C4.00982 20.1455 3.27131 19.4035 3.27131 18.4935C3.27131 17.8635 4.18482 16.439 4.92332 15.4485C5.66532 16.439 6.57531 17.8635 6.57531 18.4935C6.57531 18.721 6.76081 18.9065 6.98831 18.9065C7.21581 18.9065 7.40133 18.721 7.40133 18.4935C7.40133 17.244 5.46582 14.7905 5.24532 14.514C5.10182 14.3355 4.84282 14.3075 4.66432 14.451C4.63983 14.4685 4.61883 14.493 4.60133 14.514C4.38083 14.7905 2.44532 17.244 2.44532 18.4935C2.44182 20.772 5.33632 21.556 5.33632 20.5585Z" fill="#203686" stroke="#203686" stroke-width="0.084" stroke-miterlimit="10"/>
<path d="M14.035 15.7865V8.153C14.035 7.943 14.056 8.111 11.536 3.89V1.538C11.536 1.3105 11.3505 1.125 11.123 1.125H3.68202C3.45452 1.125 3.26902 1.3105 3.26902 1.538V3.904L2.94002 4.457L1.239 7.292C0.829505 7.978 0.791016 8.0025 0.791016 8.153V27.1685C0.791016 27.396 0.976513 27.5815 1.20401 27.5815H14.147C14.3745 27.5815 14.56 27.396 14.56 27.1685C14.56 26.941 14.3745 26.7555 14.147 26.7555H9.05801V8.2685L11.13 4.814L13.209 8.2685V15.7865H14.035ZM6.9895 8.566H8.22852V11.8735H1.61351V8.566H5.33401H6.9895ZM5.33751 7.74H1.93202L1.94601 7.7155L3.6435 4.8875C3.6435 4.884 3.64701 4.884 3.64701 4.8805L3.91651 4.4325H10.395L8.41052 7.74H6.9895H5.33751ZM4.09502 3.603V1.951H10.71V3.603H4.09502ZM8.22852 26.7555H1.61351V23.448H8.22852V26.7555ZM8.22852 22.622H1.61351V12.6995H8.22852V22.622Z" fill="#203686" stroke="#203686" stroke-width="0.084" stroke-miterlimit="10"/>
<path d="M23.5263 11.5547C23.2988 11.5547 23.1133 11.7402 23.1133 11.9677V17.8197C23.1133 18.0472 23.2988 18.2327 23.5263 18.2327C23.7538 18.2327 23.9393 18.0472 23.9393 17.8197V11.9677C23.9393 11.7402 23.7538 11.5547 23.5263 11.5547Z" fill="#203686" stroke="#203686" stroke-width="0.084" stroke-miterlimit="10"/>
<path d="M7.40328 18.4857C7.40328 17.2362 5.46777 14.7827 5.24727 14.5062C5.22977 14.4817 5.20527 14.4607 5.18427 14.4432C5.00577 14.2997 4.74678 14.3277 4.60328 14.5062C4.38278 14.7827 2.44727 17.2362 2.44727 18.4857C2.44727 18.7132 2.63276 18.8987 2.86026 18.8987C3.08776 18.8987 3.27326 18.7132 3.27326 18.4857C3.27326 17.8557 4.18677 16.4312 4.92527 15.4407C5.66727 16.4312 6.57726 17.8557 6.57726 18.4857C6.57726 19.3992 5.83527 20.1377 4.92527 20.1377C4.69777 20.1377 4.51227 20.3232 4.51227 20.5507C4.50877 21.5517 7.40328 20.7677 7.40328 18.4857Z" fill="#203686" stroke="#203686" stroke-width="0.084" stroke-miterlimit="10"/>
<path d="M15.2812 12.1506C15.2812 12.1506 15.3163 10.5616 15.3933 10.3516" stroke="#203686" stroke-width="0.8981" stroke-miterlimit="10"/>
<path d="M16.971 17.9494L16.4355 16.2344" stroke="#203686" stroke-width="0.91" stroke-miterlimit="10"/>
<path d="M18.1187 26.3516C18.1187 26.3516 17.8177 26.6036 17.5832 26.6841C17.3487 26.7646 16.4492 27.0166 16.4492 27.0166" stroke="#203686" stroke-width="0.91" stroke-miterlimit="10"/>
<path d="M19.3555 16.4141L19.758 18.0556" stroke="#203686" stroke-width="0.91" stroke-miterlimit="10"/>
</svg>
