<svg width="28" height="28" fill="none" xmlns="http://www.w3.org/2000/svg"><path d="M17.55 22.988a.413.413 0 00.353-.466c-.109-.784-1.694-.171-1.523 1.047.168 1.214 1.862 1.379 1.75.591a.413.413 0 00-.465-.354.413.413 0 01-.116-.819zm-.638-2.428a1.239 1.239 0 10-2.478 0 1.239 1.239 0 002.478 0zm-1.656 0a.414.414 0 01.826 0 .414.414 0 01-.826 0zm-1.652 2.893a1.239 1.239 0 100 2.478 1.239 1.239 0 000-2.478zm0 1.652a.414.414 0 010-.826.414.414 0 010 .826z" fill="#203686" stroke="#203686" stroke-width=".084" stroke-miterlimit="10"/><path d="M17.083 26.403c-2.293.777-4.872.249-6.65-1.34l.318-.83c1.103-.266 1.596-1.624.977-2.537l1.092-2.835c1.785.553 2.845-2.307 1.19-3.094l.896-2.328 1.214 3.157c.196.511.97.214.77-.297L15.504 12.7h2.01l.465 1.21c-1.246 1.04-.378 3.371 1.501 2.864a.412.412 0 10-.21-.798h-.007c-1.092.294-1.372-1.145-.595-1.537a.413.413 0 00.2-.518l-.686-1.785a.412.412 0 00-.385-.266c-2.972 0-3.14-.098-3.28.266-1.424 3.854-1.589 3.787-1.414 4.092a.416.416 0 00.29.203c.893.147.676 1.214.193 1.554-.227.16-.49.147-.78-.039a.413.413 0 00-.57.126.775.775 0 00-.04.074l-1.336 3.468a.412.412 0 00.087.438c.445.458.144 1.35-.535 1.39a.416.416 0 00-.36.262l-.505 1.312a.412.412 0 00.098.445c2.062 2.005 4.95 2.653 7.69 1.715a.413.413 0 00.259-.525c-.06-.207-.294-.322-.511-.249z" fill="#203686" stroke="#203686" stroke-width=".084" stroke-miterlimit="10"/><path d="M24.822 24.111l.511-5.62h.448a.414.414 0 000-.827h-9.093a.414.414 0 000 .826h.448l.791 8.719a.412.412 0 00.413.374h5.79a.417.417 0 00.412-.374l.301-3.311a.413.413 0 10-.822-.088v.01l-.266 2.934h-5.033l-.753-8.267h6.535L24 24.034" fill="#203686"/><path d="M24.822 24.111l.511-5.62h.448a.414.414 0 000-.827h-9.093a.414.414 0 000 .826h.448l.791 8.719a.412.412 0 00.413.374h5.79a.417.417 0 00.412-.374l.301-3.311a.413.413 0 10-.822-.088v.01l-.266 2.934h-5.033l-.753-8.267h6.535L24 24.034" stroke="#203686" stroke-width=".084" stroke-miterlimit="10"/><path d="M15.257 11.04a.412.412 0 00.486-.321 3.722 3.722 0 011.414-2.233.443.443 0 00.046-.039c.549-.55.63-1.578-.431-2.464-.192-.161-.262-.434-.206-.588.014-.035.049-.133.283-.133 5.005.095 5.257-.147 5.362.14.056.15-.007.417-.203.581-.521.438-.798.913-.822 1.41-.021.494.244.949.437 1.093.934.703 1.484 2.505 1.487 3.675a.414.414 0 00.826 0c-.003-1.415-.661-3.451-1.785-4.313-.339-.42-.024-.888.386-1.231.748-.627.703-1.877-.256-2.139v-2.94a.414.414 0 00-.413-.413h-4.96a.414.414 0 00-.413.413v2.936c-.969.26-1.004 1.513-.255 2.139.417.346.721.815.385 1.232a4.563 4.563 0 00-1.694 2.702.423.423 0 00.326.493zm2.068-9.085h4.134v.825h-2.895a.414.414 0 000 .827h2.895v.825h-4.134V1.954zM5.336 20.558a.414.414 0 00-.413-.413 1.653 1.653 0 01-1.652-1.651c0-.63.914-2.055 1.652-3.046.742.991 1.652 2.415 1.652 3.046a.414.414 0 00.826 0c0-1.25-1.935-3.704-2.156-3.98a.412.412 0 00-.644 0c-.22.277-2.156 2.73-2.156 3.98-.003 2.278 2.891 3.062 2.891 2.064z" fill="#203686" stroke="#203686" stroke-width=".084" stroke-miterlimit="10"/><path d="M14.035 15.787V8.152c0-.21.021-.042-2.499-4.263V1.538a.414.414 0 00-.413-.413H3.682a.414.414 0 00-.413.413v2.366l-.329.553-1.701 2.835c-.41.686-.448.71-.448.861v19.016c0 .227.186.412.413.412h12.943a.414.414 0 000-.825H9.058V8.268l2.072-3.454 2.079 3.454v7.518h.826zM6.989 8.566h1.24v3.307H1.614V8.566h5.375zM5.338 7.74H1.932l.014-.025 1.698-2.827c0-.004.003-.004.003-.008l.27-.447h6.478L8.411 7.74H5.338zM4.095 3.603V1.951h6.615v1.652H4.095zm4.134 23.153H1.614v-3.308h6.615v3.308zm0-4.134H1.614V12.7h6.615v9.922zm15.297-11.067a.414.414 0 00-.413.413v5.852a.414.414 0 00.826 0v-5.852a.414.414 0 00-.413-.413z" fill="#203686" stroke="#203686" stroke-width=".084" stroke-miterlimit="10"/><path d="M7.403 18.486c0-1.25-1.935-3.703-2.156-3.98a.412.412 0 00-.644 0c-.22.277-2.156 2.73-2.156 3.98a.414.414 0 00.826 0c0-.63.914-2.055 1.652-3.045.742.99 1.652 2.415 1.652 3.045 0 .913-.742 1.652-1.652 1.652a.414.414 0 00-.413.413c-.003 1 2.891.217 2.891-2.065z" fill="#203686" stroke="#203686" stroke-width=".084" stroke-miterlimit="10"/><path d="M15.281 12.15s.035-1.588.112-1.798" stroke="#203686" stroke-width=".898" stroke-miterlimit="10"/><path d="M16.971 17.95l-.535-1.716m1.683 10.118s-.301.252-.536.332c-.234.08-1.134.333-1.134.333m2.906-10.603l.403 1.642" stroke="#203686" stroke-width=".91" stroke-miterlimit="10"/></svg>