<svg width="28" height="28" fill="none" xmlns="http://www.w3.org/2000/svg"><path d="M25.86 16.773c-.043-.063-1.095-1.546-4.472-2.603a19.06 19.06 0 00-3.875-.782c3.328-3.78 4.268-7.128-.534-8.299-3.312-.703-9.491 2.883-12.177 6.295-2.186 2.43-4.388 6.599-3.66 8.953a2.92 2.92 0 002.466 2.311 5.87 5.87 0 002.275-.189c1.602.856 3.8 1.29 6.565 1.29 1.109.024 2.456-.142 3.59-.125 3.856.156 14.424-.607 9.822-6.85zm-4.96-1.78a11.64 11.64 0 01.752 3.806c.008.175-.029.349-.108.505-.207.436-.521.553-.965.207a.57.57 0 01-.191-.538c.125-1.09-.27-2.474-.623-3.44a10.26 10.26 0 00-.39-.928c.515.104 1.023.234 1.524.389zm-5.319.368c.374 1.026.616 2.095.72 3.182a.974.974 0 01-.453.948.68.68 0 01-.804-.69 6.648 6.648 0 00-.478-2.517c.349-.305.687-.612 1.015-.923zm-4.074-8.093c.19-.093.37-.175.552-.258a11.635 11.635 0 013.079 2.371c.12.126.207.281.25.45.13.466-.03.762-.59.792a.575.575 0 01-.499-.28c-.622-.904-1.83-1.686-2.731-2.182-.917-.494-1.149-.355-.06-.893zm-4.396 3.055c1.584.367 3.32 1.908 3.83 2.389a.969.969 0 01.28 1.007.684.684 0 01-1.062.008 7.579 7.579 0 00-2.589-1.896c-1.463-.722-1.967-.073-.46-1.508zM3.8 14.299a11.67 11.67 0 012.933 2.293c.123.129.211.286.258.457a.769.769 0 01-.031.573.691.691 0 01-1.065-.059c-.598-.874-1.748-1.64-2.737-2.185.191-.351.405-.711.642-1.079zm-.072 7.43c-2.473-.562-1.946-3.381-.987-5.52.802.444 1.88 1.135 2.392 1.882a1.51 1.51 0 001.384.672 1.437 1.437 0 001.376-1.927 1.995 1.995 0 00-.483-.876 12.847 12.847 0 00-3.093-2.442c.31-.45.653-.885 1.012-1.322 1.442-.016 3.439 1.26 4.1 2.103 1.038 1.346 3.329.248 2.674-1.418a1.912 1.912 0 00-.525-.843 12.043 12.043 0 00-3.64-2.43 18.794 18.794 0 011.734-1.28c1.358.446 3.295 1.668 3.86 2.536.543.937 2.052.84 2.582.074.435-.563.242-1.663-.304-2.195a13.647 13.647 0 00-2.644-2.189c2.329-.843 3.573-.569 3.599-.563 1.426.313 2.27.869 2.51 1.652.793 1.994-3.433 6.467-5.794 8.355-2.729 2.51-5.907 6.001-9.753 5.73zm22.146-1.44c-1.02 2.206-7.31 2.463-11.255 2.45-3.099.227-5.643-.029-7.464-.724 2.13-.912 4.238-2.673 5.93-4.386.201-.2.453-.445.728-.69.207.58.311 1.19.306 1.806a1.477 1.477 0 00.65 1.36 1.444 1.444 0 002.294-.663c.138-.309.194-.648.162-.984a13.217 13.217 0 00-.929-3.79c.135-.134.271-.27.409-.412.515.031 1.023.083 1.52.155.73 1.226 1.388 3.426 1.243 4.45a1.482 1.482 0 00.569 1.402 1.443 1.443 0 002.33-.533c.154-.299.226-.633.211-.97a13.62 13.62 0 00-.546-3.382c2.304.893 3.06 1.914 3.074 1.934.9 1.215 1.159 2.216.768 2.976z" fill="#203686"/></svg>