<svg width="28" height="28" fill="none" xmlns="http://www.w3.org/2000/svg"><path d="M19.602 16.798h3.735a.466.466 0 010 .93h-3.735a.466.466 0 010-.93zm-5.135 0h3.266a.466.466 0 010 .93h-3.266a.466.466 0 010-.93zm4.201-1.866h2.335a.466.466 0 010 .931h-2.335a.466.466 0 010-.93zm-2.335 0h.465a.466.466 0 010 .931h-.465a.466.466 0 010-.93zm.469 3.731h3.735a.466.466 0 010 .93h-3.735a.466.466 0 010-.93zM4.666 25.197h.465a.466.466 0 010 .93h-.465a.466.466 0 010-.93zM7 24.262h.466a.466.466 0 010 .93h-.465a.466.466 0 010-.93zm0-2.33h.466a.466.466 0 010 .93h-.465a.466.466 0 010-.93zm5.136 3.265h.465a.466.466 0 010 .93h-.465a.466.466 0 010-.93zm-.469-3.265h.469a.466.466 0 010 .93h-.466a.466.466 0 01-.003-.93zm-1.866-2.335h.466a.466.466 0 010 .931H9.8a.466.466 0 010-.93zm4.201 4.2h.465a.466.466 0 010 .93h-.465a.466.466 0 010-.93z" fill="#203686"/><path d="M26.156.33a.87.87 0 00-.681-.33h-13.46c-.36 0-.7.165-.924.443l-1.54 1.924a.974.974 0 00-.216.612v14.332a2.491 2.491 0 00-1.43.828L.114 27.227a.466.466 0 00.051.66A.46.46 0 00.47 28h25.005c.25 0 .488-.099.664-.275l1.62-1.62A.832.832 0 0028 25.52V2.961a.905.905 0 00-.198-.564L26.156.33zM12.283.934H25.17c.172 0 .337.077.444.213l1.301 1.623a.703.703 0 01.154.436V7.93h-4.226a4.2 4.2 0 00-8.35-.004h-4.226V3.188c0-.15.05-.293.142-.41l1.236-1.547a.85.85 0 01.638-.297zm-.587 17.201a2.51 2.51 0 00-1.43-.828V8.864h4.227a4.195 4.195 0 004.64 3.705 4.2 4.2 0 003.71-3.708h4.226v14.463h-10.92l-4.453-5.189zm7.906-7.713l1.027-1.367a.467.467 0 00-.744-.56l-.33.439a3.846 3.846 0 00-.224-.81l.48-.964a.469.469 0 00-.209-.626.47.47 0 00-.626.209l-.21.417a3.876 3.876 0 00-.842-.78.465.465 0 00-.514.777c.246.168.466.373.65.608l-.69-.172a.464.464 0 00-.564.34.464.464 0 00.34.565l1.415.352c.011.003.019.003.03.007.055.227.084.462.084.696v.114l-.836-.21a.464.464 0 00-.564.342.464.464 0 00.34.564l1.06.264v1.037a3.269 3.269 0 01-3.27-3.357c.048-1.704 1.467-3.125 3.175-3.177a3.272 3.272 0 013.365 3.265c0 1.444-.95 2.72-2.335 3.133l-.008-1.106zM1.48 27.062l7.137-8.326c.187-.22.429-.4.707-.48a1.598 1.598 0 011.66.488l7.134 8.318H1.48zm23.749 0h-5.88l-2.4-2.8h10.12v.916a.69.69 0 01-.205.495l-1.214 1.213a.594.594 0 01-.421.176z" fill="#203686"/></svg>