<svg width="28" height="28" fill="none" xmlns="http://www.w3.org/2000/svg"><path d="M19.583 26.368v-.5h-.026l-.026.003.052.497zm-4.49-1.907l.357-.35-.358.35zm-5.51-2.835l-.036.498.036-.498zm-7.427-2.793l-.42.27.42-.27zM1.45 7.717l.456.205-.456-.205zm.053 6.92l-.45.216v.002l.45-.219zm.658 1.179l-.42.27.42-.27zm7.427 2.793l.036-.499-.036.499zm5.509 2.835l.357-.35-.357.35zm4.49 1.907v-.5h-.025l-.026.003.051.497zm7.424-13.45l.497-.054-.002-.016-.003-.016-.492.086zm-5.597-6.122l-.02.5.02-.5zm-14.752 0l-.01-.5H6.65l.012.5zM1.908 6.8l.434.248.004-.006-.438-.241zm18.943-.465a.5.5 0 00-.793-.609l.793.61zm-7.909 8.652a.5.5 0 00.793.61l-.793-.61zm3.68-8.652a.5.5 0 10-.792-.609l.793.61zm-7.904 8.652a.5.5 0 10.793.61l-.793-.61zm3.474-8.652a.5.5 0 00-.793-.609l.793.61zm-7.909 8.652a.5.5 0 10.793.61l-.793-.61zm22.8-2.31l-.497.05v.001a.35.35 0 000 .006l.003.027.01.109a24.974 24.974 0 01.06 1.943c-.01 1.262-.115 2.936-.488 4.6-.374 1.672-1.01 3.292-2.051 4.488-1.027 1.178-2.468 1.968-4.537 1.968v1c2.366 0 4.08-.921 5.29-2.31 1.196-1.372 1.881-3.174 2.274-4.927.394-1.758.501-3.507.512-4.812a25.916 25.916 0 00-.064-2.028 10.725 10.725 0 00-.01-.12l-.003-.032v-.011l-.001-.001-.498.05zm-7.5 13.692l-.052-.497h.001-.012a3.408 3.408 0 01-.321.002 4.944 4.944 0 01-.952-.136c-.784-.19-1.818-.626-2.797-1.626l-.715.7c1.132 1.155 2.343 1.672 3.277 1.898a6.02 6.02 0 001.146.164 4.412 4.412 0 00.462-.006l.01-.001h.004l-.051-.498zm-4.133-2.257c-1.69-1.726-3.344-2.804-5.83-2.984l-.073.997c2.162.157 3.601 1.066 5.188 2.686l.715-.7zm-5.83-2.984c-1.165-.084-2.598-.198-3.921-.568-1.327-.372-2.466-.98-3.123-1.998l-.84.543C2.585 20.418 4 21.122 5.43 21.522c1.434.401 2.962.519 4.118.602l.073-.997zm-7.043-2.565c-.685-1.061-1.03-2.688-1.194-4.112a22.112 22.112 0 01-.14-2.513l-.5-.01a121.503 121.503 0 00-.5-.009v.004a4.092 4.092 0 00-.001.053v.155a23.113 23.113 0 00.148 2.434c.167 1.447.529 3.273 1.346 4.54l.84-.542zM.993 7.512c-1.052 2.337-1.058 5.023.058 7.341l.901-.434C.97 12.377.97 10.001 1.905 7.922l-.912-.41zm.06 7.343c.195.403.422.82.686 1.231l.841-.54a11.263 11.263 0 01-.629-1.128l-.899.437zm.687 1.232c.846 1.312 2.26 2.016 3.69 2.417 1.434.401 2.963.52 4.12.604l.073-.998c-1.166-.084-2.6-.198-3.923-.57-1.327-.371-2.465-.98-3.12-1.995l-.84.542zm7.81 3.02c2.159.157 3.599 1.063 5.189 2.687l.714-.7c-1.693-1.73-3.347-2.804-5.83-2.984l-.072.998zm5.188 2.687c1.13 1.154 2.341 1.67 3.276 1.897.466.112.862.153 1.146.165a4.402 4.402 0 00.434-.004l.029-.002a.255.255 0 00.012-.001h.002l-.05-.498-.051-.497h.001-.013a3.454 3.454 0 01-.322.002 4.966 4.966 0 01-.953-.137c-.784-.19-1.819-.627-2.796-1.625l-.714.7zm4.848 2.057c2.363 0 4.072-.903 5.277-2.27 1.19-1.35 1.866-3.123 2.25-4.846.383-1.73.481-3.45.484-4.731a24.954 24.954 0 00-.075-1.995 12.4 12.4 0 00-.01-.118l-.004-.031a.757.757 0 010-.011l-.001-.001-.497.053-.497.053v.007l.003.027.01.107a24.015 24.015 0 01.071 1.907c-.003 1.24-.098 2.882-.461 4.516-.364 1.639-.99 3.229-2.023 4.401-1.018 1.155-2.455 1.932-4.527 1.932v1zm7.424-13.95l.492-.087v-.006l-.004-.016-.01-.056a10.983 10.983 0 00-.232-.91 11.281 11.281 0 00-.896-2.156c-.867-1.577-2.393-3.285-4.926-3.39l-.041.999c2.027.084 3.3 1.436 4.09 2.873a10.286 10.286 0 011.034 2.833v.002l.493-.086zM21.434 3.28c-2.292-.095-5.992-.095-9.11-.072a598.952 598.952 0 00-5.643.07l-.022.001a1.266 1.266 0 01-.007 0 165.74 165.74 0 00.018 1h.03l.086-.002a337.107 337.107 0 011.547-.024 597.88 597.88 0 014-.045c3.12-.023 6.796-.023 9.06.07l.042-.998zm-14.773.5l-.012-.5h-.006a2.167 2.167 0 00-.163.01c-.1.009-.242.025-.416.054a6.779 6.779 0 00-1.355.375 6.236 6.236 0 00-3.24 2.84l.877.482A5.237 5.237 0 015.075 4.65a5.778 5.778 0 011.153-.32 4.46 4.46 0 01.443-.05h.002l-.012-.5zM1.473 6.551c-.182.32-.34.647-.48.96l.913.41c.132-.297.276-.593.436-.875l-.869-.495zm19.741 9.439c0 1-.81 1.81-1.81 1.81v1a2.81 2.81 0 002.81-2.81h-1zm-1.81 1.81c-1 0-1.81-.81-1.81-1.81h-1a2.81 2.81 0 002.81 2.81v-1zm-1.81-1.81c0-1 .81-1.81 1.81-1.81v-1a2.81 2.81 0 00-2.81 2.81h1zm1.81-1.81c1 0 1.81.81 1.81 1.81h1a2.81 2.81 0 00-2.81-2.81v1zm.654-8.456l-7.116 9.261.793.61 7.116-9.262-.793-.609zm-4.228 0l-7.112 9.261.793.61 7.112-9.262-.793-.609zm-4.431 0l-7.116 9.261.793.61 7.116-9.262-.793-.609z" fill="#203686"/></svg>