<svg width="28" height="28" fill="none" xmlns="http://www.w3.org/2000/svg"><path d="M21.416 3.318a.553.553 0 000-.774.534.534 0 00-.763 0 .553.553 0 000 .774.54.54 0 00.383.16.553.553 0 00.38-.16zm-4.572 6.64a.448.448 0 00.414-.28.464.464 0 00-.097-.497c-1.887-1.915-.883-3.094-.759-3.224a.464.464 0 00-.007-.64.449.449 0 00-.631-.004c-.017.018-1.812 1.9.762 4.512a.432.432 0 00.318.133zm-1.591 1.155c-2.046-2.076-1.442-4.092-1.415-4.176a.469.469 0 00-.09-.448.448.448 0 00-.762.161c-.035.105-.821 2.615 1.632 5.107a.443.443 0 00.635 0 .459.459 0 000-.644z" fill="#203686"/><path d="M23.193 14.459c3.755-4.467 3.654-10.462 3.42-12.898A1.627 1.627 0 0025.177.112c-2.084-.207-6.846-.308-10.949 2.18-1.663-.455-4.976-.644-9.168 2.863-.21.179-.342.441-.356.718-.014.283.093.56.29.76l3.344 3.391a21.477 21.477 0 00-.894 4.477 4.698 4.698 0 00-3.499 1.249L.132 19.614a.459.459 0 000 .644c.107.108 2.395 2.39 4.983 1.904-.48 2.625 1.77 4.949 1.877 5.054a.443.443 0 00.635 0l3.813-3.867c1.087-1.103 1.287-2.619 1.225-3.833.266-.031.7-.049 1.539-.276v-1.8c.086-.024 1.713-1.409 1.796-1.444 1.015-.418 2.102-1.912 4 .133.746.07 1.397.044 1.792-.274l1.401-1.396zm1.898-13.44a.72.72 0 01.625.63 19.898 19.898 0 01-.773 7.752 9.77 9.77 0 01-4.859-2.67 10.04 10.04 0 01-2.636-4.929 19.096 19.096 0 017.643-.784zM5.629 5.991a.098.098 0 01-.028-.074c0-.024.01-.045.028-.059 3.26-2.727 5.89-3.059 7.533-2.853-.383.284-.749.588-1.097.91a13.784 13.784 0 00-3.396 5.16L5.63 5.991zm5.176 16.72L7.33 26.236c-.61-.76-1.884-2.653-1.16-4.498l.694-.703a.47.47 0 00.125-.445.448.448 0 00-.76-.199l-.693.704c-1.819.735-3.686-.557-4.434-1.176l3.475-3.525a3.808 3.808 0 012.788-.98c-.056.861-.08 1.754-.059 2.685.031.86.71 1.55 1.56 1.588.234.004.466.008.697.008.759 0 1.49-.029 2.205-.085.052 1.009-.11 2.24-.963 3.102zm-1.919-3.934a.723.723 0 01-.68-.694c-.12-6.054 1.381-10.594 4.47-13.496a12.563 12.563 0 013.92-2.47 10.935 10.935 0 002.85 5.26 10.659 10.659 0 005.18 2.891 12.852 12.852 0 01-2.306 3.815c-.968.908-1.457 1.382-2.32 1.412-.893.031-1.5-1.5-2.5-.5-1.767.82-1.122 1.321-3.079 1.853-.144.038-.69 1.613-.838 1.634a29.22 29.22 0 01-4.697.294z" fill="#203686"/><path d="M17.513 16.288a.454.454 0 00-.349.05l-.527.332a.461.461 0 00.11.84.448.448 0 00.342-.05l.535-.335a.461.461 0 00.165-.627.453.453 0 00-.276-.21zm6.311 3.927a.454.454 0 00-.348.05l-.528.332a.457.457 0 00.228.85c.079 0 .155-.02.224-.063l.535-.336a.465.465 0 00.165-.626.476.476 0 00-.276-.207z" fill="#203686"/><path d="M27.59 20.565L24.403 18.7a.82.82 0 00-.821 0l-.856.5v-1.827a.905.905 0 00-.442-.777L18.57 14.42a.868.868 0 00-.883 0l-.773.452a.285.285 0 00-.062.045l-.004.004-2.874 1.676a.9.9 0 00-.442.777v4.35c0 .32.17.617.442.778l3.716 2.177c.273.16.61.16.884 0l1.414-.83v1.17c0 .297.16.573.411.72l3.185 1.866c.128.073.27.112.41.112a.824.824 0 00.411-.112l3.185-1.866a.837.837 0 00.41-.72V21.29a.847.847 0 00-.41-.725zm-9.911-.756v3.805l-3.244-1.89-.01-3.945 3.254 2.03zm2.308 1.48v1.502l-1.407.833v-3.808l2.177-1.26a.461.461 0 00-.107-.84.447.447 0 00-.342.046l-2.174 1.26-3.14-1.96 2.305-1.344c.02-.014.045-.028.062-.046l.004-.003.756-.455 3.706 2.16v2.355l-1.426.836a.843.843 0 00-.414.725zm.904.431l2.65 1.69v3.112l-2.65-1.554V21.72zm3.555 1.69l2.65-1.69v3.248l-2.65 1.554v-3.111zm-.452-.794l-2.533-1.613 2.533-1.484 2.532 1.484-2.532 1.613z" fill="#203686"/></svg>