<svg width="26" height="26" fill="none" xmlns="http://www.w3.org/2000/svg"><path d="M11.898 24.411c.215.301.452.6.709.894.383.439.94.695 1.527.695h6.097a1.98 1.98 0 001.482-.644c.982-1.102 1.69-2.322 2-3.476.022-.09.11-.531.113-.778l.01-.538a6.9 6.9 0 00-.53-2.65 4.398 4.398 0 001.927-3.632c0-2.438-2.008-4.421-4.478-4.421-.208 0-.42.013-.624.041l.107-.121a2.54 2.54 0 00.647-1.689v-.611a.82.82 0 00-.823-.81h-.078v-.33c0-.645-.53-1.17-1.186-1.17h-3.347c-.654 0-1.187.522-1.187 1.17v.33a.817.817 0 00-.78.806v.612c0 .622.231 1.22.647 1.688l.705.789c.11.124.238.3.231.467l-.107.945c-.24 1.035-.861 2.16-1.667 2.883-1.2 1.077-.969 1.07-1.083 3.576l-.312 5.974zm3.978-13.38c0-.366-.133-.715-.377-.988l-.728-.813a1.708 1.708 0 01-.435-1.134v-.583h5.694v.583c0 .416-.153.82-.436 1.134l-.728.813a1.46 1.46 0 00-.377.968 5.931 5.931 0 00.79 2.963h-4.192c.289-.503.5-1.041.633-1.605l.156-1.339zm6.946 10.75c-.26.984-.836 1.986-1.71 2.976-.22.253-.543.4-.88.4h-6.098c-.338 0-.66-.147-.88-.4a9.135 9.135 0 01-1.138-1.585c.003-.148 0-.292-.01-.433-.048-.724.316-1.3-.052-1.759-.026-.032.316-.17.286-.201-.006-.09-.442-.837-.442-.923 0-2.358.832-3.354 1.963-4.367a6.07 6.07 0 00.647-.672h5.353c.198.24.416.467.643.672 1.112.997 2.435 2.66 2.48 4.953 0 .08-.003.163.003.295l-.045.528c-.078.4-.1.44-.12.516zm-1.703-9.463c.572.1 1.082.448 1.371.945a1.98 1.98 0 01-.471 2.572 9.858 9.858 0 00-.943-.97 5.237 5.237 0 01-1.469-2.23c.436-.295.969-.41 1.512-.317zm2.018.381a2.779 2.779 0 00-1.125-.97 2.928 2.928 0 00-2.61.05 5.11 5.11 0 01-.055-.8s0-.003.004-.003c.445-.186.92-.28 1.407-.28 2.002 0 3.63 1.61 3.63 3.586 0 1.124-.54 2.188-1.45 2.864a6.996 6.996 0 00-.4-.641 2.819 2.819 0 00.599-3.806zm-8.021-6.026v-.33c0-.182.15-.33.335-.33h3.347c.185 0 .335.148.335.33v.33h-4.017z" fill="#203686"/><path d="M12.678 12.17V4.873c0-.9-.744-1.634-1.657-1.634H9.376a.395.395 0 01-.396-.391v-.394a.42.42 0 00.413-.417V.417A.419.419 0 008.97 0H5.678a.419.419 0 00-.423.416v1.621c0 .228.182.41.413.417v.394a.4.4 0 01-.393.394H3.628c-.914 0-1.658.734-1.658 1.634v7.298c0 .46.204.903.562 1.217-.358.31-.562.756-.562 1.214v8.512c0 1.57 1.296 2.848 2.889 2.848h4.93c1.593 0 2.89-1.279 2.89-2.848v-8.512c0-.461-.205-.903-.563-1.214.358-.317.563-.76.563-1.22zm-.845-6.474v5.654H2.816V5.696h9.019zM6.1 1.62V.833h2.444v.788H6.1zm.413 1.23v-.394h1.622v.394c0 .676.559 1.227 1.245 1.227h1.644a.81.81 0 01.813.788H2.815a.807.807 0 01.812-.788h1.628c.004 0 .007.003.01.003a1.244 1.244 0 001.248-1.23zm4.508 10.12a.419.419 0 00-.423.417c0 .23.189.416.423.416.448 0 .813.359.813.798v.394h-.4a.419.419 0 00-.423.416c0 .23.189.417.423.417h.4v.788h-.4a.419.419 0 00-.423.416c0 .23.189.417.423.417h.4v.788h-.4a.419.419 0 00-.423.416c0 .23.189.417.423.417h.4v4.043c0 1.111-.917 2.015-2.045 2.015H4.86c-1.128 0-2.044-.904-2.044-2.015V19.07h.396a.419.419 0 00.423-.417.419.419 0 00-.423-.416h-.396v-.788h.396a.419.419 0 00.423-.417.419.419 0 00-.423-.416h-.396v-.788h.396a.419.419 0 00.423-.417.419.419 0 00-.423-.416h-.396v-.394c0-.442.364-.798.812-.798a.419.419 0 00.423-.416.419.419 0 00-.423-.417.809.809 0 01-.812-.788h9.018a.807.807 0 01-.812.788z" fill="#203686"/></svg>