<svg width="28" height="28" fill="none" xmlns="http://www.w3.org/2000/svg"><path d="M12.813 26.29c.231.323.487.644.763.962a2.185 2.185 0 001.646.748h6.566c.608 0 1.196-.245 1.595-.693 1.057-1.187 1.82-2.501 2.153-3.743.024-.097.119-.573.122-.839l.01-.58a7.43 7.43 0 00-.57-2.852 4.736 4.736 0 002.076-3.913c0-2.625-2.163-4.76-4.823-4.76-.224 0-.451.013-.672.044l.116-.13a2.735 2.735 0 00.696-1.82v-.658a.883.883 0 00-.886-.873h-.084v-.355c0-.694-.57-1.26-1.277-1.26h-3.605c-.704 0-1.277.563-1.277 1.26v.355a.88.88 0 00-.84.87v.658c0 .67.248 1.315.696 1.819l.76.848c.118.135.255.325.248.504L16.11 12.9c-.258 1.114-.927 2.325-1.795 3.105-1.291 1.159-1.043 1.152-1.165 3.85l-.337 6.434zm4.284-14.411c0-.394-.143-.77-.405-1.063l-.784-.876a1.84 1.84 0 01-.47-1.222V8.09h6.132v.628c0 .449-.164.884-.468 1.222l-.785.876c-.259.29-.405.659-.405 1.042a6.386 6.386 0 00.85 3.191h-4.515a6.421 6.421 0 00.683-1.728l.168-1.442zm7.48 11.578c-.28 1.059-.9 2.139-1.841 3.205a1.262 1.262 0 01-.948.431h-6.566c-.364 0-.711-.159-.949-.431a9.839 9.839 0 01-1.225-1.708c.004-.159 0-.314-.01-.466-.053-.78.339-1.4-.056-1.894-.028-.034.339-.183.308-.217-.007-.097-.476-.9-.476-.994 0-2.539.896-3.612 2.114-4.702.248-.22.482-.466.696-.725h5.764c.214.26.448.504.693.725 1.198 1.073 2.622 2.863 2.671 5.334 0 .086-.003.175.004.317l-.05.57c-.084.43-.108.472-.129.555zm-1.834-10.192a2.14 2.14 0 011.477 1.018c.577.983.29 2.136-.508 2.77a10.618 10.618 0 00-1.014-1.045 5.64 5.64 0 01-1.582-2.401 2.213 2.213 0 011.627-.342zm2.174.411a2.992 2.992 0 00-1.212-1.045 3.153 3.153 0 00-2.81.055 5.498 5.498 0 01-.06-.863s0-.003.004-.003c.48-.2.99-.3 1.516-.3 2.155 0 3.909 1.732 3.909 3.86a3.85 3.85 0 01-1.561 3.085 7.54 7.54 0 00-.43-.69 3.036 3.036 0 00.643-4.099zm-8.639-6.49v-.355c0-.196.162-.355.361-.355h3.605c.2 0 .36.159.36.355v.356H16.28z" fill="#203686"/><path d="M13.654 13.107v-7.86c0-.969-.802-1.76-1.785-1.76h-1.771a.426.426 0 01-.427-.42v-.424a.453.453 0 00.444-.449V.448A.45.45 0 009.66 0H6.115a.45.45 0 00-.455.448v1.746a.45.45 0 00.444.449v.424a.43.43 0 01-.423.424H3.906c-.983 0-1.785.79-1.785 1.76v7.859c0 .497.22.973.606 1.31a1.741 1.741 0 00-.606 1.308v9.167c0 1.69 1.397 3.067 3.112 3.067h5.31c1.714 0 3.11-1.377 3.11-3.067v-9.167c0-.496-.22-.973-.605-1.307.385-.342.606-.818.606-1.314zm-.91-6.973v6.09H3.03v-6.09h9.713zM6.57 1.746V.897h2.632v.849H6.57zm.444 1.324v-.424h1.747v.424c0 .728.602 1.322 1.34 1.322h1.771c.476 0 .868.38.875.849H3.031a.869.869 0 01.875-.85H5.66c.003 0 .007.004.01.004A1.34 1.34 0 007.014 3.07zm4.856 10.9a.45.45 0 00-.455.448.45.45 0 00.455.449c.483 0 .875.386.875.859v.424h-.43a.45.45 0 00-.456.449.45.45 0 00.455.448h.43v.849h-.43a.45.45 0 00-.455.448.45.45 0 00.455.449h.43v.849h-.43a.45.45 0 00-.455.448.45.45 0 00.455.449h.43v4.354c0 1.197-.986 2.17-2.2 2.17h-5.31c-1.215 0-2.202-.973-2.202-2.17v-4.354h.427a.45.45 0 00.455-.449.45.45 0 00-.455-.448h-.427v-.849h.427a.45.45 0 00.455-.449.45.45 0 00-.455-.448h-.427v-.849h.427a.45.45 0 00.455-.448.45.45 0 00-.455-.449h-.427v-.424c0-.476.392-.86.875-.86a.45.45 0 00.455-.448.45.45 0 00-.455-.448.871.871 0 01-.875-.849h9.713a.869.869 0 01-.875.849z" fill="#203686"/></svg>