<svg width="28" height="28" fill="none" xmlns="http://www.w3.org/2000/svg"><path d="M12.813 26.29c.231.323.487.644.763.962a2.185 2.185 0 001.646.748h6.566c.608 0 1.196-.245 1.595-.693 1.057-1.187 1.82-2.501 2.153-3.743.024-.097.119-.573.122-.839l.01-.58a7.43 7.43 0 00-.57-2.852 4.736 4.736 0 002.076-3.913c0-2.625-2.163-4.76-4.823-4.76-.224 0-.451.013-.672.044l.116-.13a2.735 2.735 0 00.696-1.82v-.658a.883.883 0 00-.886-.873h-.084v-.355c0-.694-.57-1.26-1.277-1.26h-3.605c-.704 0-1.277.563-1.277 1.26v.355a.88.88 0 00-.84.87v.658c0 .67.248 1.315.696 1.819l.76.848c.118.135.255.325.248.504L16.11 12.9c-.258 1.114-.927 2.325-1.795 3.105-1.291 1.159-1.043 1.152-1.165 3.85l-.337 6.434zm4.284-14.411c0-.394-.143-.77-.405-1.063l-.784-.876a1.84 1.84 0 01-.47-1.222V8.09h6.132v.628c0 .449-.164.884-.468 1.222l-.785.876c-.259.29-.405.659-.405 1.042a6.386 6.386 0 00.85 3.191h-4.515a6.421 6.421 0 00.683-1.728l.168-1.442zm7.48 11.578c-.28 1.059-.9 2.139-1.841 3.205a1.262 1.262 0 01-.948.431h-6.566c-.364 0-.711-.159-.949-.431a9.839 9.839 0 01-1.225-1.708c.004-.159 0-.314-.01-.466-.053-.78.339-1.4-.056-1.894-.028-.034.339-.183.308-.217-.007-.097-.476-.9-.476-.994 0-2.539.896-3.612 2.114-4.702.248-.22.482-.466.696-.725h5.764c.214.26.448.504.693.725 1.198 1.073 2.622 2.863 2.671 5.334 0 .086-.003.175.004.317l-.05.57c-.084.43-.108.472-.129.555zm-1.834-10.192a2.14 2.14 0 011.477 1.018c.577.983.29 2.136-.508 2.77a10.618 10.618 0 00-1.014-1.045 5.64 5.64 0 01-1.582-2.401 2.213 2.213 0 011.627-.342zm2.174.411a2.992 2.992 0 00-1.212-1.045 3.153 3.153 0 00-2.81.055 5.498 5.498 0 01-.06-.863s0-.003.004-.003c.48-.2.99-.3 1.516-.3 2.155 0 3.909 1.732 3.909 3.86a3.85 3.85 0 01-1.561 3.085 7.54 7.54 0 00-.43-.69 3.036 3.036 0 00.643-4.099zm-8.639-6.49v-.355c0-.196.162-.355.361-.355h3.605c.2 0 .36.159.36.355v.356H16.28z" fill="#203686"/><path d="M13.654 13.107v-7.86c0-.969-.802-1.76-1.785-1.76h-1.771a.426.426 0 01-.427-.42v-.424a.453.453 0 00.444-.449V.448A.45.45 0 009.66 0H6.115a.45.45 0 00-.455.448v1.746a.45.45 0 00.444.449v.424a.43.43 0 01-.423.424H3.906c-.983 0-1.785.79-1.785 1.76v7.859c0 .497.22.973.606 1.31a1.741 1.741 0 00-.606 1.308v9.167c0 1.69 1.397 3.067 3.112 3.067h5.31c1.714 0 3.11-1.377 3.11-3.067v-9.167c0-.496-.22-.973-.605-1.307.385-.342.606-.818.606-1.314zm-.91-6.973v6.09H3.03v-6.09h9.713zM6.57 1.746V.897h2.632v.849H6.57zm.444 1.324v-.424h1.747v.424c0 .728.602 1.322 1.34 1.322h1.771c.476 0 .868.38.875.849H3.031a.869.869 0 01.875-.85H5.66c.003 0 .007.004.01.004A1.34 1.34 0 007.014 3.07zm4.856 10.9a.45.45 0 00-.455.448.45.45 0 00.455.449c.483 0 .875.386.875.859v.424h-.43a.45.45 0 00-.456.449.45.45 0 00.455.448h.43v.849h-.43a.45.45 0 00-.455.448.45.45 0 00.455.449h.43v.849h-.43a.45.45 0 00-.455.448.45.45 0 00.455.449h.43v4.354c0 1.197-.986 2.17-2.2 2.17h-5.31c-1.215 0-2.202-.973-2.202-2.17v-4.354h.427a.45.45 0 00.455-.449.45.45 0 00-.455-.448h-.427v-.849h.427a.45.45 0 00.455-.449.45.45 0 00-.455-.448h-.427v-.849h.427a.45.45 0 00.455-.448.45.45 0 00-.455-.449h-.427v-.424c0-.476.392-.86.875-.86a.45.45 0 00.455-.448.45.45 0 00-.455-.448.871.871 0 01-.875-.849h9.713a.869.869 0 01-.875.849z" fill="#203686"/></svg>C9.91559 2.63578 10.1151 2.43913 10.1151 2.19418V0.448493C10.1151 0.200094 9.91209 0 9.66009 0H6.11459C5.86259 0 5.65959 0.200094 5.65959 0.448493V2.19418C5.65959 2.43913 5.85559 2.63578 6.10409 2.64268V3.06702C6.10409 3.29472 5.91509 3.48792 5.68059 3.49137C5.68059 3.49137 5.67709 3.49137 5.67359 3.49137H3.90609C2.92259 3.49137 2.12109 4.28142 2.12109 5.25086V13.1099C2.12109 13.6067 2.34159 14.0828 2.72659 14.4209C2.34159 14.7555 2.12109 15.2351 2.12109 15.7284V24.895C2.12109 26.5855 3.51759 27.962 5.23259 27.962H10.5421C12.2571 27.962 13.6536 26.5855 13.6536 24.895V15.7284C13.6536 15.2316 13.4331 14.7555 13.0481 14.4209C13.4331 14.0793 13.6536 13.6032 13.6536 13.1065ZM12.7436 6.13406V12.2233H3.03109V6.13406H12.7436ZM6.56959 1.74569V0.896996H9.20159V1.74569H6.56959ZM7.01409 3.07048V2.64612H8.76059V3.07048C8.76059 3.79842 9.36259 4.39182 10.1011 4.39182C10.1046 4.39182 10.1046 4.39182 10.1081 4.39182H11.8721C12.3481 4.39182 12.7401 4.77132 12.7471 5.24051H3.03109C3.03809 4.77132 3.42659 4.39182 3.90609 4.39182H5.65959C5.66309 4.39182 5.66659 4.39526 5.67009 4.39526C6.41209 4.39181 7.01409 3.79842 7.01409 3.07048ZM11.8686 13.9689C11.6166 13.9689 11.4136 14.1691 11.4136 14.4174C11.4136 14.6658 11.6166 14.8659 11.8686 14.8659C12.3516 14.8659 12.7436 15.2523 12.7436 15.725V16.1493H12.3131C12.0611 16.1493 11.8581 16.3494 11.8581 16.5978C11.8581 16.8462 12.0611 17.0463 12.3131 17.0463H12.7436V17.895H12.3131C12.0611 17.895 11.8581 18.0951 11.8581 18.3435C11.8581 18.5919 12.0611 18.792 12.3131 18.792H12.7436V19.6407H12.3131C12.0611 19.6407 11.8581 19.8408 11.8581 20.0892C11.8581 20.3376 12.0611 20.5377 12.3131 20.5377H12.7436V24.8916C12.7436 26.0887 11.7566 27.0616 10.5421 27.0616H5.23259C4.01809 27.0616 3.03109 26.0887 3.03109 24.8916V20.5377H3.45809C3.71009 20.5377 3.91309 20.3376 3.91309 20.0892C3.91309 19.8408 3.71009 19.6407 3.45809 19.6407H3.03109V18.792H3.45809C3.71009 18.792 3.91309 18.5919 3.91309 18.3435C3.91309 18.0951 3.71009 17.895 3.45809 17.895H3.03109V17.0463H3.45809C3.71009 17.0463 3.91309 16.8462 3.91309 16.5978C3.91309 16.3494 3.71009 16.1493 3.45809 16.1493H3.03109V15.725C3.03109 15.2489 3.42309 14.8659 3.90609 14.8659C4.15809 14.8659 4.36109 14.6658 4.36109 14.4174C4.36109 14.1691 4.15809 13.9689 3.90609 13.9689C3.43009 13.9689 3.03809 13.5895 3.03109 13.1203H12.7436C12.7366 13.5895 12.3481 13.9689 11.8686 13.9689Z" fill="#203686"/>
</svg>
