<svg width="28" height="28" fill="none" xmlns="http://www.w3.org/2000/svg"><path d="M6.283 0a2.26 2.26 0 00-1.614.684A2.363 2.363 0 004 2.334v23.333c0 .618.241 1.211.67 1.649A2.26 2.26 0 006.282 28h16.434a2.26 2.26 0 001.614-.684c.428-.438.668-1.03.669-1.65V2.334c0-.618-.241-1.211-.67-1.649A2.26 2.26 0 0022.718 0H6.283zm16.434 27.067H6.283c-.364 0-.712-.148-.969-.41a1.416 1.416 0 01-.401-.99V16.8h19.174v8.867c0 .371-.144.727-.401.99-.257.262-.605.41-.969.41zM15.413 5.6c.121 0 .237-.05.323-.137a.472.472 0 00.134-.33v-.801a13.7 13.7 0 013.42 5.556c-.904.418-2.41.845-4.79.845s-3.886-.427-4.79-.845a13.686 13.686 0 014.53-6.533.426.426 0 01.518 0c.062.047.131.105.199.16v1.618c0 .124.048.243.133.33a.452.452 0 00.323.137zm5.471 8.566l.032.019c.271.165.496.4.652.68.156.282.237.6.236.922v.08h-.97c.036-.5.055-1.002.057-1.503 0-.068-.006-.13-.007-.198zm-11.862.198a14.749 14.749 0 01.432-3.572c1.607.637 3.323.934 5.046.875 1.723.06 3.439-.238 5.046-.875a14.75 14.75 0 01.432 3.572c0 .5-.024 1.003-.06 1.503H9.083a20.95 20.95 0 01-.06-1.503zm-.855 1.503h-.971v-.08a1.88 1.88 0 01.236-.92c.156-.28.38-.515.652-.68l.032-.02c0 .067-.007.13-.007.198 0 .499.023 1.001.058 1.502zm15.92-13.534v13.534h-1.37v-.08a2.83 2.83 0 00-.353-1.381 2.754 2.754 0 00-.978-1.02l-.548-.338a14.799 14.799 0 00-1.677-5.821A14.48 14.48 0 0015.31 2.61a1.331 1.331 0 00-1.619 0A14.481 14.481 0 009.84 7.227a14.801 14.801 0 00-1.676 5.821l-.55.338a2.75 2.75 0 00-.977 1.02 2.832 2.832 0 00-.353 1.381v.08h-1.37V2.333c0-.371.144-.727.401-.99.257-.262.605-.41.969-.41h16.434c.364 0 .712.148.969.41.257.263.401.619.401.99z" fill="#203686"/><path d="M16.542 21.267l1.062.293a.455.455 0 00.42-.1.47.47 0 00.078-.61.457.457 0 00-.261-.192l-.183-.05.232-.136a.475.475 0 00.164-.636.448.448 0 00-.62-.172l-.232.136.048-.187a.476.476 0 00-.163-.49.45.45 0 00-.718.249l-.286 1.088-1.126.665v-1.332l.779-.796a.472.472 0 00-.006-.655.451.451 0 00-.64-.005l-.133.137V18.2a.472.472 0 00-.134-.33.452.452 0 00-.646 0 .472.472 0 00-.133.33v.274l-.134-.137a.451.451 0 00-.64.005.471.471 0 00-.006.655l.78.796v1.332l-1.129-.666-.287-1.088a.466.466 0 00-.213-.284.448.448 0 00-.623.171.476.476 0 00-.046.355l.05.186-.232-.136a.448.448 0 00-.621.172.475.475 0 00.164.636l.232.137-.183.05a.457.457 0 00-.261.19.475.475 0 00.078.611.45.45 0 00.42.1l1.064-.292 1.13.666-1.129.666-1.062-.292a.447.447 0 00-.48.166.47.47 0 00-.034.518.463.463 0 00.277.217l.183.05-.232.137a.462.462 0 00-.215.283.476.476 0 00.164.493.453.453 0 00.508.032l.231-.136-.049.186a.474.474 0 00.163.491.452.452 0 00.72-.25l.285-1.087 1.127-.665v1.331l-.78.797a.472.472 0 00.006.654.451.451 0 00.64.006l.133-.137v.274c0 .123.049.242.134.33a.451.451 0 00.646 0 .472.472 0 00.133-.33v-.274l.134.137a.451.451 0 00.64-.006.472.472 0 00.006-.654l-.78-.797v-1.331l1.129.665.285 1.089a.47.47 0 00.163.25.45.45 0 00.673-.138.474.474 0 00.046-.354l-.049-.187.232.137a.448.448 0 00.626-.17.473.473 0 00-.17-.638l-.231-.137.182-.05a.459.459 0 00.277-.218.476.476 0 00-.168-.638.448.448 0 00-.347-.046l-1.064.291-1.127-.665 1.129-.666zM13.13 6.533c-.27 0-.535.082-.76.236a1.394 1.394 0 00-.505.629 1.429 1.429 0 00.297 1.525 1.342 1.342 0 001.492.303 1.37 1.37 0 00.615-.515 1.422 1.422 0 00-.17-1.768 1.355 1.355 0 00-.969-.41zm0 1.867a.45.45 0 01-.253-.079.476.476 0 01-.07-.718.454.454 0 01.498-.1.474.474 0 01.148.761.451.451 0 01-.323.136zm4.11 4.667a.451.451 0 00-.324.136.472.472 0 00-.133.33.472.472 0 01-.134.33.452.452 0 01-.646 0 .472.472 0 01-.133-.33.472.472 0 00-.134-.33.452.452 0 00-.646 0 .472.472 0 00-.133.33.472.472 0 01-.134.33.452.452 0 01-.646 0 .472.472 0 01-.133-.33.472.472 0 00-.134-.33.451.451 0 00-.646 0 .472.472 0 00-.134.33.472.472 0 01-.133.33.452.452 0 01-.646 0 .472.472 0 01-.134-.33.472.472 0 00-.133-.33.451.451 0 00-.646 0 .472.472 0 00-.134.33c0 .27.077.535.221.761.144.227.349.406.59.517a1.342 1.342 0 001.472-.235 1.35 1.35 0 001.826 0 1.342 1.342 0 001.472.235c.241-.11.446-.29.59-.517.144-.226.22-.49.22-.76a.472.472 0 00-.133-.33.451.451 0 00-.323-.137zM6.604 3.597l.913-.934a.467.467 0 00.14-.331.476.476 0 00-.134-.334.456.456 0 00-.327-.137.448.448 0 00-.324.142l-.913.934a.467.467 0 00-.14.331.476.476 0 00.134.334.456.456 0 00.327.137.448.448 0 00.324-.142zm3.007-1.594L6.416 5.27a.467.467 0 00-.139.332.476.476 0 00.134.334.456.456 0 00.326.136.448.448 0 00.325-.142l3.196-3.267a.469.469 0 00.105-.512.466.466 0 00-.25-.255.448.448 0 00-.501.107z" fill="#203686"/></svg>