<svg width="28" height="28" fill="none" xmlns="http://www.w3.org/2000/svg"><path d="M6.283 0a2.26 2.26 0 00-1.614.684A2.363 2.363 0 004 2.334v23.333c0 .618.241 1.211.67 1.649A2.26 2.26 0 006.282 28h16.434a2.26 2.26 0 001.614-.684c.428-.438.668-1.03.669-1.65V2.334c0-.618-.241-1.211-.67-1.649A2.26 2.26 0 0022.718 0H6.283zm16.434 27.067H6.283c-.364 0-.712-.148-.969-.41a1.416 1.416 0 01-.401-.99V16.8h19.174v8.867c0 .371-.144.727-.401.99-.257.262-.605.41-.969.41zM15.413 5.6c.121 0 .237-.05.323-.137a.472.472 0 00.134-.33v-.801a13.7 13.7 0 013.42 5.556c-.904.418-2.41.845-4.79.845s-3.886-.427-4.79-.845a13.686 13.686 0 014.53-6.533.426.426 0 01.518 0c.062.047.131.105.199.16v1.618c0 .124.048.243.133.33a.452.452 0 00.323.137zm5.471 8.566l.032.019c.271.165.496.4.652.68.156.282.237.6.236.922v.08h-.97c.036-.5.055-1.002.057-1.503 0-.068-.006-.13-.007-.198zm-11.862.198a14.749 14.749 0 01.432-3.572c1.607.637 3.323.934 5.046.875 1.723.06 3.439-.238 5.046-.875a14.75 14.75 0 01.432 3.572c0 .5-.024 1.003-.06 1.503H9.083a20.95 20.95 0 01-.06-1.503zm-.855 1.503h-.971v-.08a1.88 1.88 0 01.236-.92c.156-.28.38-.515.652-.68l.032-.02c0 .067-.007.13-.007.198 0 .499.023 1.001.058 1.502zm15.92-13.534v13.534h-1.37v-.08a2.83 2.83 0 00-.353-1.381 2.754 2.754 0 00-.978-1.02l-.548-.338a14.799 14.799 0 00-1.677-5.821A14.48 14.48 0 0015.31 2.61a1.331 1.331 0 00-1.619 0A14.481 14.481 0 009.84 7.227a14.801 14.801 0 00-1.676 5.821l-.55.338a2.75 2.75 0 00-.977 1.02 2.832 2.832 0 00-.353 1.381v.08h-1.37V2.333c0-.371.144-.727.401-.99.257-.262.605-.41.969-.41h16.434c.364 0 .712.148.969.41.257.263.401.619.401.99z" fill="#203686"/><path d="M16.542 21.267l1.062.293a.455.455 0 00.42-.1.47.47 0 00.078-.61.457.457 0 00-.261-.192l-.183-.05.232-.136a.475.475 0 00.164-.636.448.448 0 00-.62-.172l-.232.136.048-.187a.476.476 0 00-.163-.49.45.45 0 00-.718.249l-.286 1.088-1.126.665v-1.332l.779-.796a.472.472 0 00-.006-.655.451.451 0 00-.64-.005l-.133.137V18.2a.472.472 0 00-.134-.33.452.452 0 00-.646 0 .472.472 0 00-.133.33v.274l-.134-.137a.451.451 0 00-.64.005.471.471 0 00-.006.655l.78.796v1.332l-1.129-.666-.287-1.088a.466.466 0 00-.213-.284.448.448 0 00-.623.171.476.476 0 00-.046.355l.05.186-.232-.136a.448.448 0 00-.621.172.475.475 0 00.164.636l.232.137-.183.05a.457.457 0 00-.261.19.475.475 0 00.078.611.45.45 0 00.42.1l1.064-.292 1.13.666-1.129.666-1.062-.292a.447.447 0 00-.48.166.47.47 0 00-.034.518.463.463 0 00.277.217l.183.05-.232.137a.462.462 0 00-.215.283.476.476 0 00.164.493.453.453 0 00.508.032l.231-.136-.049.186a.474.474 0 00.163.491.452.452 0 00.72-.25l.285-1.087 1.127-.665v1.331l-.78.797a.472.472 0 00.006.654.451.451 0 00.64.006l.133-.137v.274c0 .123.049.242.134.33a.451.451 0 00.646 0 .472.472 0 00.133-.33v-.274l.134.137a.451.451 0 00.64-.006.472.472 0 00.006-.654l-.78-.797v-1.331l1.129.665.285 1.089a.47.47 0 00.163.25.45.45 0 00.673-.138.474.474 0 00.046-.354l-.049-.187.232.137a.448.448 0 00.626-.17.473.473 0 00-.17-.638l-.231-.137.182-.05a.459.459 0 00.277-.218.476.476 0 00-.168-.638.448.448 0 00-.347-.046l-1.064.291-1.127-.665 1.129-.666zM13.13 6.533c-.27 0-.535.082-.76.236a1.394 1.394 0 00-.505.629 1.429 1.429 0 00.297 1.525 1.342 1.342 0 001.492.303 1.37 1.37 0 00.615-.515 1.422 1.422 0 00-.17-1.768 1.355 1.355 0 00-.969-.41zm0 1.867a.45.45 0 01-.253-.079.476.476 0 01-.07-.718.454.454 0 01.498-.1.474.474 0 01.148.761.451.451 0 01-.323.136zm4.11 4.667a.451.451 0 00-.324.136.472.472 0 00-.133.33.472.472 0 01-.134.33.452.452 0 01-.646 0 .472.472 0 01-.133-.33.472.472 0 00-.134-.33.452.452 0 00-.646 0 .472.472 0 00-.133.33.472.472 0 01-.134.33.452.452 0 01-.646 0 .472.472 0 01-.133-.33.472.472 0 00-.134-.33.451.451 0 00-.646 0 .472.472 0 00-.134.33.472.472 0 01-.133.33.452.452 0 01-.646 0 .472.472 0 01-.134-.33.472.472 0 00-.133-.33.451.451 0 00-.646 0 .472.472 0 00-.134.33c0 .27.077.535.221.761.144.227.349.406.59.517a1.342 1.342 0 001.472-.235 1.35 1.35 0 001.826 0 1.342 1.342 0 001.472.235c.241-.11.446-.29.59-.517.144-.226.22-.49.22-.76a.472.472 0 00-.133-.33.451.451 0 00-.323-.137zM6.604 3.597l.913-.934a.467.467 0 00.14-.331.476.476 0 00-.134-.334.456.456 0 00-.327-.137.448.448 0 00-.324.142l-.913.934a.467.467 0 00-.14.331.476.476 0 00.134.334.456.456 0 00.327.137.448.448 0 00.324-.142zm3.007-1.594L6.416 5.27a.467.467 0 00-.139.332.476.476 0 00.134.334.456.456 0 00.326.136.448.448 0 00.325-.142l3.196-3.267a.469.469 0 00.105-.512.466.466 0 00-.25-.255.448.448 0 00-.501.107z" fill="#203686"/></svg>154 20.4591L12.6283 19.3709C12.5969 19.2513 12.5204 19.1494 12.4155 19.0875C12.3106 19.0256 12.186 19.0089 12.069 19.0409C11.9521 19.073 11.8523 19.1512 11.7918 19.2584C11.7313 19.3656 11.7149 19.493 11.7463 19.6126L11.7951 19.7993L11.5637 19.6625C11.4589 19.6016 11.3347 19.5856 11.2184 19.6179C11.1021 19.6501 11.0029 19.7282 10.9427 19.8349C10.8824 19.9416 10.8658 20.0684 10.8967 20.1875C10.9275 20.3066 11.0031 20.4085 11.1071 20.4708L11.3386 20.6075L11.156 20.6575C11.049 20.6867 10.9561 20.7548 10.8945 20.8489C10.833 20.943 10.807 21.0567 10.8214 21.169C10.8358 21.2812 10.8896 21.3843 10.9728 21.459C11.0561 21.5337 11.163 21.5749 11.2738 21.5749C11.3138 21.5749 11.3537 21.5696 11.3925 21.5591L12.4566 21.2674L13.587 21.9333L12.4584 22.5993L11.3957 22.3067C11.3377 22.2908 11.2773 22.2867 11.2179 22.2947C11.1584 22.3027 11.1011 22.3226 11.0492 22.3532C10.9973 22.3839 10.9517 22.4247 10.9152 22.4733C10.8787 22.5219 10.8519 22.5774 10.8364 22.6366C10.8209 22.6958 10.8169 22.7575 10.8247 22.8183C10.8326 22.8791 10.852 22.9377 10.882 22.9908C10.9119 23.0438 10.9518 23.0904 10.9994 23.1277C11.047 23.165 11.1013 23.1924 11.1592 23.2083L11.3418 23.2582L11.1103 23.3949C11.058 23.4254 11.0121 23.4661 10.9752 23.5147C10.9383 23.5633 10.9112 23.6189 10.8954 23.6783C10.8796 23.7377 10.8755 23.7997 10.8833 23.8608C10.891 23.9218 10.9105 23.9807 10.9406 24.034C10.9707 24.0873 11.0108 24.1339 11.0587 24.1713C11.1065 24.2087 11.1611 24.236 11.2193 24.2518C11.2775 24.2675 11.3382 24.2713 11.3978 24.263C11.4575 24.2546 11.5149 24.2343 11.5668 24.2032L11.7983 24.0665L11.7495 24.2531C11.7339 24.3123 11.7299 24.3741 11.7378 24.4349C11.7456 24.4956 11.765 24.5542 11.795 24.6073C11.825 24.6604 11.8649 24.7069 11.9124 24.7442C11.96 24.7816 12.0143 24.8089 12.0722 24.8248C12.1108 24.8353 12.1505 24.8406 12.1905 24.8407C12.2909 24.8407 12.3886 24.8068 12.4684 24.7443C12.5481 24.6818 12.6054 24.5941 12.6315 24.4949L12.9168 23.4066L14.0435 22.7416V24.0735L13.2642 24.8701C13.181 24.9581 13.135 25.076 13.1361 25.1983C13.1371 25.3207 13.1851 25.4377 13.2698 25.5243C13.3544 25.6108 13.4689 25.6599 13.5886 25.6609C13.7083 25.662 13.8236 25.6149 13.9097 25.5299L14.0435 25.3932V25.6667C14.0435 25.7904 14.0916 25.9091 14.1772 25.9967C14.2628 26.0842 14.3789 26.1333 14.5 26.1333C14.6211 26.1333 14.7372 26.0842 14.8228 25.9967C14.9084 25.9091 14.9565 25.7904 14.9565 25.6667V25.3932L15.0903 25.5299C15.1764 25.6149 15.2917 25.662 15.4114 25.6609C15.5311 25.6599 15.6456 25.6108 15.7302 25.5243C15.8149 25.4377 15.8629 25.3207 15.8639 25.1983C15.865 25.076 15.819 24.9581 15.7358 24.8701L14.9565 24.0735V22.7416L16.0846 23.4075L16.3699 24.4958C16.3959 24.595 16.4533 24.6827 16.533 24.7452C16.6127 24.8077 16.7104 24.8416 16.8109 24.8416C16.8508 24.8415 16.8906 24.8362 16.9292 24.8257C16.9871 24.8099 17.0414 24.7825 17.0889 24.7452C17.1365 24.7079 17.1764 24.6613 17.2064 24.6082C17.2363 24.5552 17.2558 24.4966 17.2636 24.4358C17.2714 24.375 17.2674 24.3133 17.2519 24.2541L17.2031 24.0674L17.4345 24.2041C17.4865 24.2353 17.5439 24.2556 17.6036 24.2639C17.6632 24.2723 17.7239 24.2684 17.7821 24.2527C17.8403 24.237 17.8949 24.2096 17.9427 24.1723C17.9905 24.1349 18.0307 24.0882 18.0608 24.0349C18.0909 23.9816 18.1104 23.9227 18.1181 23.8617C18.1259 23.8007 18.1218 23.7387 18.106 23.6793C18.0902 23.6199 18.0631 23.5643 18.0262 23.5156C17.9893 23.467 17.9434 23.4263 17.891 23.3959L17.6596 23.2591L17.8422 23.2092C17.9593 23.177 18.059 23.0985 18.1195 22.9911C18.18 22.8836 18.1963 22.7561 18.1647 22.6364C18.1332 22.5167 18.0564 22.4147 17.9513 22.3529C17.8462 22.291 17.7214 22.2744 17.6043 22.3067L16.5402 22.5983L15.413 21.9333L16.5416 21.2674ZM13.1304 6.53333C12.8596 6.53333 12.5948 6.61544 12.3695 6.76928C12.1443 6.92311 11.9688 7.14176 11.8651 7.39758C11.7615 7.65339 11.7343 7.93489 11.7872 8.20646C11.84 8.47803 11.9705 8.72749 12.162 8.92328C12.3535 9.11908 12.5976 9.25241 12.8632 9.30643C13.1289 9.36045 13.4043 9.33273 13.6545 9.22676C13.9048 9.1208 14.1187 8.94136 14.2692 8.71113C14.4197 8.4809 14.5 8.21023 14.5 7.93333C14.5 7.56203 14.3557 7.20593 14.0989 6.94338C13.842 6.68083 13.4937 6.53333 13.1304 6.53333ZM13.1304 8.4C13.0401 8.4 12.9519 8.37263 12.8768 8.32135C12.8017 8.27007 12.7432 8.19719 12.7087 8.11192C12.6741 8.02665 12.6651 7.93282 12.6827 7.84229C12.7003 7.75177 12.7438 7.66861 12.8076 7.60335C12.8715 7.53809 12.9528 7.49364 13.0414 7.47563C13.1299 7.45763 13.2217 7.46687 13.3051 7.50219C13.3886 7.53751 13.4599 7.59732 13.51 7.67407C13.5602 7.75081 13.587 7.84104 13.587 7.93333C13.587 8.0571 13.5389 8.1758 13.4532 8.26332C13.3676 8.35083 13.2515 8.4 13.1304 8.4ZM17.2391 13.0667C17.1181 13.0667 17.0019 13.1158 16.9163 13.2034C16.8307 13.2909 16.7826 13.4096 16.7826 13.5333C16.7826 13.6571 16.7345 13.7758 16.6489 13.8633C16.5633 13.9508 16.4472 14 16.3261 14C16.205 14 16.0889 13.9508 16.0033 13.8633C15.9177 13.7758 15.8696 13.6571 15.8696 13.5333C15.8696 13.4096 15.8215 13.2909 15.7359 13.2034C15.6502 13.1158 15.5341 13.0667 15.413 13.0667C15.292 13.0667 15.1758 13.1158 15.0902 13.2034C15.0046 13.2909 14.9565 13.4096 14.9565 13.5333C14.9565 13.6571 14.9084 13.7758 14.8228 13.8633C14.7372 13.9508 14.6211 14 14.5 14C14.3789 14 14.2628 13.9508 14.1772 13.8633C14.0916 13.7758 14.0435 13.6571 14.0435 13.5333C14.0435 13.4096 13.9954 13.2909 13.9098 13.2034C13.8242 13.1158 13.708 13.0667 13.587 13.0667C13.4659 13.0667 13.3498 13.1158 13.2641 13.2034C13.1785 13.2909 13.1304 13.4096 13.1304 13.5333C13.1304 13.6571 13.0823 13.7758 12.9967 13.8633C12.9111 13.9508 12.795 14 12.6739 14C12.5528 14 12.4367 13.9508 12.3511 13.8633C12.2655 13.7758 12.2174 13.6571 12.2174 13.5333C12.2174 13.4096 12.1693 13.2909 12.0837 13.2034C11.9981 13.1158 11.8819 13.0667 11.7609 13.0667C11.6398 13.0667 11.5237 13.1158 11.4381 13.2034C11.3524 13.2909 11.3043 13.4096 11.3043 13.5333C11.3045 13.8035 11.3812 14.0679 11.5251 14.2945C11.6689 14.5211 11.8739 14.7004 12.1152 14.8106C12.3565 14.9208 12.6239 14.9573 12.885 14.9156C13.1462 14.874 13.39 14.756 13.587 14.5759C13.8378 14.806 14.1629 14.9333 14.5 14.9333C14.8371 14.9333 15.1622 14.806 15.413 14.5759C15.61 14.756 15.8538 14.874 16.115 14.9156C16.3761 14.9573 16.6435 14.9208 16.8848 14.8106C17.1261 14.7004 17.3311 14.5211 17.4749 14.2945C17.6188 14.0679 17.6955 13.8035 17.6957 13.5333C17.6957 13.4096 17.6476 13.2909 17.5619 13.2034C17.4763 13.1158 17.3602 13.0667 17.2391 13.0667ZM6.60537 3.5966L7.51841 2.66327C7.56202 2.62022 7.59679 2.56872 7.62072 2.51179C7.64465 2.45485 7.65724 2.39362 7.65777 2.33165C7.65829 2.26969 7.64674 2.20824 7.62379 2.15089C7.60083 2.09354 7.56694 2.04143 7.52407 1.99762C7.48121 1.9538 7.43024 1.91915 7.37413 1.89568C7.31803 1.87222 7.25791 1.86041 7.1973 1.86095C7.13668 1.86149 7.07677 1.87436 7.02108 1.89882C6.96538 1.92328 6.915 1.95883 6.87289 2.0034L5.95985 2.93673C5.91625 2.97978 5.88147 3.03128 5.85754 3.08821C5.83361 3.14515 5.82102 3.20638 5.82049 3.26835C5.81997 3.33031 5.83152 3.39176 5.85447 3.44911C5.87743 3.50646 5.91133 3.55857 5.95419 3.60238C5.99705 3.6462 6.04802 3.68085 6.10413 3.70432C6.16023 3.72778 6.22035 3.73959 6.28097 3.73905C6.34158 3.73851 6.40149 3.72564 6.45718 3.70118C6.51288 3.67672 6.56326 3.64117 6.60537 3.5966ZM9.61202 2.0034L6.41637 5.27007C6.37277 5.31312 6.33799 5.36461 6.31406 5.42154C6.29014 5.47848 6.27754 5.53972 6.27702 5.60168C6.27649 5.66364 6.28804 5.72509 6.31099 5.78245C6.33395 5.8398 6.36785 5.8919 6.41071 5.93572C6.45358 5.97953 6.50455 6.01419 6.56065 6.03765C6.61676 6.06111 6.67687 6.07292 6.73749 6.07238C6.7981 6.07185 6.85801 6.05897 6.91371 6.03451C6.9694 6.01006 7.01978 5.9745 7.06189 5.92993L10.2575 2.66327C10.3011 2.62022 10.3359 2.56872 10.3599 2.51179C10.3838 2.45485 10.3964 2.39362 10.3969 2.33165C10.3974 2.26969 10.3859 2.20824 10.3629 2.15089C10.34 2.09354 10.3061 2.04143 10.2632 1.99762C10.2203 1.9538 10.1694 1.91915 10.1133 1.89568C10.0572 1.87222 9.99704 1.86041 9.93643 1.86095C9.87581 1.86149 9.8159 1.87436 9.76021 1.89882C9.70451 1.92328 9.65413 1.95883 9.61202 2.0034Z" fill="#203686"/>
</svg>
