<svg width="20" height="20" fill="none" xmlns="http://www.w3.org/2000/svg"><path fill-rule="evenodd" clip-rule="evenodd" d="M5.257 3.6a1.77 1.77 0 00-.41.047 3.475 3.475 0 00-.681-1.014C3.71 2.178 2.993 1.999 2 1.999v1.6c.607 0 .956.087 1.034.165.303.303.566.917.566 1.435l.008.113.784 5.487C3.08 10.867 2.064 11.886 2 13.16V14c.077 1.315 1.09 2.327 2.355 2.398h.181a2.401 2.401 0 004.527.002h1.874a2.4 2.4 0 100-1.6H9.063a2.401 2.401 0 00-4.526 0H4.4c-.408-.025-.774-.39-.801-.848L3.6 13.2c.022-.415.385-.779.84-.801h9.654l.118-.037a2.1 2.1 0 001.322-1.24l.084-.167.274-.543.842-1.673a125.223 125.223 0 001.196-2.412c.484-1.079-.496-1.91-1.497-1.927L5.257 3.601zm8.559 7.201H6.09a.136.136 0 01-.099-.112l-.784-5.487 11.107.795a276.05 276.05 0 01-1.01 2.025l-.012.023-.83 1.648-.273.542-.104.205-.039.091a.5.5 0 01-.231.27zm-.616 5.59a.8.8 0 100-1.6.8.8 0 000 1.6zm-5.6-.8a.8.8 0 11-1.6 0 .8.8 0 011.6 0z" fill="#203686"/></svg>