<svg width="20" height="20" fill="none" xmlns="http://www.w3.org/2000/svg"><path fill-rule="evenodd" clip-rule="evenodd" d="M8.716 2.276c.533.27.968.586 1.285.852a6.786 6.786 0 011.284-.852c1.21-.612 2.95-.991 4.907 0 1.25.633 2.096 1.591 2.556 2.754.454 1.148.516 2.447.297 3.765-.372 2.245-1.907 4.249-3.483 5.793-1.596 1.563-3.346 2.761-4.333 3.386a2.282 2.282 0 01-2.457 0c-.986-.625-2.736-1.823-4.332-3.386C2.863 13.044 1.328 11.04.956 8.795.737 7.477.799 6.178 1.253 5.03c.46-1.163 1.307-2.12 2.557-2.754 1.957-.991 3.698-.612 4.907 0zm.65 2.545a.833.833 0 001.27 0l.013-.014a4.634 4.634 0 01.342-.332 5.15 5.15 0 011.048-.712c.867-.44 2.034-.692 3.4 0 .891.451 1.45 1.101 1.76 1.88.314.796.385 1.774.202 2.879-.284 1.714-1.507 3.407-3.005 4.875-1.48 1.448-3.12 2.575-4.059 3.17a.615.615 0 01-.673 0c-.938-.595-2.58-1.722-4.058-3.17-1.499-1.468-2.721-3.16-3.006-4.875-.183-1.105-.112-2.083.203-2.878.308-.78.868-1.43 1.76-1.881 1.365-.692 2.532-.44 3.4 0a5.15 5.15 0 011.39 1.044l.013.014z" fill="#203686"/></svg>