<svg width="20" height="20" fill="none" xmlns="http://www.w3.org/2000/svg"><path fill-rule="evenodd" clip-rule="evenodd" d="M10 19.167A9.167 9.167 0 1110 .833a9.167 9.167 0 010 18.334zm6.167-4.897a7.5 7.5 0 10-12.332 0c.936-1.237 3.14-1.77 6.165-1.77 3.024 0 5.228.532 6.166 1.77zm-1.196 1.347c-.244-.878-1.996-1.45-4.97-1.45-2.975 0-4.727.572-4.97 1.45A7.472 7.472 0 0010 17.5a7.472 7.472 0 004.97-1.883zM10.001 5C7.983 5 6.667 6.463 6.667 8.333c0 2.857 1.468 4.167 3.334 4.167 1.848 0 3.333-1.267 3.333-4 0-1.899-1.322-3.5-3.333-3.5zM8.334 8.333c0 1.891.682 2.5 1.667 2.5.981 0 1.666-.584 1.666-2.333 0-1.041-.653-1.833-1.666-1.833-1.056 0-1.667.68-1.667 1.666z" fill="#203686"/></svg>