<svg width="28" height="24" fill="none" xmlns="http://www.w3.org/2000/svg"><path fill-rule="evenodd" clip-rule="evenodd" d="M20.298 4c0 1.105 1.01 2 2.255 2 1.246 0 2.256-.895 2.256-2s-1.01-2-2.256-2c-1.245 0-2.255.895-2.255 2zm2.255 10c-1.245 0-2.255-.895-2.255-2s1.01-2 2.255-2c1.246 0 2.256.895 2.256 2s-1.01 2-2.256 2zm0 8c-1.245 0-2.255-.895-2.255-2s1.01-2 2.255-2c1.246 0 2.256.895 2.256 2s-1.01 2-2.256 2zm-9.02 0c-1.246 0-2.256-.895-2.256-2s1.01-2 2.255-2c1.246 0 2.256.895 2.256 2s-1.01 2-2.256 2zm-2.256-10c0 1.105 1.01 2 2.255 2 1.246 0 2.256-.895 2.256-2s-1.01-2-2.256-2c-1.245 0-2.255.895-2.255 2zm2.255-6c-1.245 0-2.255-.895-2.255-2s1.01-2 2.255-2c1.246 0 2.256.895 2.256 2s-1.01 2-2.256 2zM2.256 20c0 1.105 1.01 2 2.255 2 1.246 0 2.255-.895 2.255-2s-1.01-2-2.255-2c-1.245 0-2.255.895-2.255 2zm2.255-6c-1.245 0-2.255-.895-2.255-2s1.01-2 2.255-2c1.246 0 2.255.895 2.255 2s-1.01 2-2.255 2zM2.256 4c0 1.105 1.01 2 2.255 2 1.246 0 2.255-.895 2.255-2s-1.01-2-2.255-2c-1.245 0-2.255.895-2.255 2z" fill="#fff"/></svg>