<svg width="24" height="24" fill="none" xmlns="http://www.w3.org/2000/svg"><path fill-rule="evenodd" clip-rule="evenodd" d="M10.458 2.731A8.14 8.14 0 0112 3.754c.38-.32.902-.699 1.542-1.023 1.45-.735 3.539-1.19 5.887 0 1.5.76 2.515 1.91 3.068 3.305.545 1.377.619 2.936.357 4.517-.447 2.695-2.29 5.1-4.18 6.952-1.916 1.876-4.016 3.314-5.2 4.064a2.738 2.738 0 01-2.948 0c-1.184-.75-3.284-2.188-5.2-4.064-1.89-1.852-3.733-4.257-4.18-6.952-.262-1.581-.188-3.14.357-4.517.553-1.396 1.567-2.545 3.068-3.305 2.348-1.19 4.436-.735 5.887 0zm.78 3.054a1 1 0 001.523.002v-.001l.001-.001.015-.017c.016-.017.042-.046.079-.083a6.18 6.18 0 011.59-1.17c1.04-.527 2.44-.83 4.08 0 1.07.542 1.74 1.322 2.111 2.257.378.954.464 2.128.244 3.454-.342 2.058-1.81 4.09-3.607 5.85-1.775 1.738-3.745 3.09-4.87 3.804a.738.738 0 01-.808 0c-1.126-.713-3.095-2.066-4.87-3.804-1.798-1.76-3.265-3.792-3.607-5.85-.22-1.326-.134-2.5.244-3.454.37-.935 1.041-1.715 2.111-2.257 1.64-.83 3.04-.527 4.08 0a6.18 6.18 0 011.669 1.253l.015.017z" fill="#fff"/></svg>