<svg width="16" height="16" viewBox="0 0 16 16" fill="none" xmlns="http://www.w3.org/2000/svg">
<path fill-rule="evenodd" clip-rule="evenodd" d="M14.1725 3.89027C14.6821 2.54681 13.3665 1.23126 12.0231 1.74085L2.49218 5.35601C1.15291 5.86401 1.03597 7.71313 2.30058 8.38579L5.6227 10.1529C5.68131 10.1841 5.72928 10.232 5.76045 10.2906L7.52754 13.6127C8.2002 14.8774 10.0493 14.7604 10.5573 13.4211L14.1725 3.89027ZM12.4959 2.98751C12.7646 2.88559 13.0277 3.1487 12.9258 3.4174L9.31066 12.9483C9.20906 13.2161 8.83923 13.2395 8.7047 12.9866L6.93762 9.66448C6.78174 9.37143 6.5419 9.13159 6.24885 8.97571L2.92673 7.20863C2.67381 7.0741 2.6972 6.70427 2.96505 6.60267L12.4959 2.98751Z" fill="#203686"/>
</svg>
