<svg width="88" height="16" fill="none" xmlns="http://www.w3.org/2000/svg"><path d="M6.845 2.3a1.367 1.367 0 012.308 0l1.286 2.045c.187.298.484.511.828.595l2.364.577c.978.239 1.362 1.409.713 2.17l-1.57 1.84a1.333 1.333 0 00-.315.963l.175 2.402c.072.992-.935 1.716-1.867 1.34l-2.256-.906a1.373 1.373 0 00-1.024 0l-2.256.907c-.933.375-1.94-.349-1.867-1.341l.175-2.402a1.333 1.333 0 00-.316-.962l-1.57-1.84a1.338 1.338 0 01.713-2.17L4.73 4.94c.344-.084.642-.297.829-.595l1.286-2.044zm18 0a1.367 1.367 0 012.308 0l1.286 2.045c.187.298.484.511.828.595l2.364.577c.978.239 1.362 1.409.713 2.17l-1.57 1.84a1.333 1.333 0 00-.316.963l.176 2.402c.072.992-.935 1.716-1.867 1.34l-2.256-.906a1.373 1.373 0 00-1.024 0l-2.256.907c-.933.375-1.94-.349-1.868-1.341l.176-2.402a1.333 1.333 0 00-.317-.962l-1.57-1.84a1.339 1.339 0 01.714-2.17l2.364-.578c.345-.084.642-.297.829-.595l1.286-2.044zm18 0a1.367 1.367 0 012.308 0l1.286 2.045c.187.298.484.511.828.595l2.364.577c.978.239 1.362 1.409.713 2.17l-1.57 1.84a1.333 1.333 0 00-.316.963l.176 2.402c.072.992-.935 1.716-1.867 1.34l-2.256-.906a1.373 1.373 0 00-1.024 0l-2.256.907c-.933.375-1.94-.349-1.867-1.341l.175-2.402a1.333 1.333 0 00-.317-.962l-1.57-1.84a1.339 1.339 0 01.714-2.17l2.364-.578c.345-.084.642-.297.829-.595l1.286-2.044zm18 0a1.367 1.367 0 012.308 0l1.286 2.045c.187.298.484.511.828.595l2.364.577c.978.239 1.362 1.409.713 2.17l-1.57 1.84a1.333 1.333 0 00-.316.963l.176 2.402c.072.992-.935 1.716-1.867 1.34l-2.256-.906a1.373 1.373 0 00-1.024 0l-2.256.907c-.933.375-1.94-.349-1.867-1.341l.175-2.402a1.333 1.333 0 00-.317-.962l-1.57-1.84a1.339 1.339 0 01.714-2.17l2.364-.578c.345-.084.642-.297.829-.595l1.286-2.044zm18 0a1.367 1.367 0 012.308 0l1.286 2.045c.187.298.484.511.828.595l2.364.577c.978.239 1.362 1.409.713 2.17l-1.57 1.84a1.333 1.333 0 00-.316.963l.176 2.402c.072.992-.935 1.716-1.867 1.34l-2.256-.906a1.373 1.373 0 00-1.024 0l-2.256.907c-.933.375-1.94-.349-1.867-1.341l.175-2.402a1.333 1.333 0 00-.317-.962l-1.57-1.84a1.339 1.339 0 01.714-2.17l2.365-.578c.344-.084.64-.297.828-.595l1.286-2.044z" fill="#FFA200"/></svg>