<svg width="24" height="24" fill="none" xmlns="http://www.w3.org/2000/svg"><path d="M8.534 3.524c1.217-.383 2.3-.697 2.919-.872a1.9 1.9 0 011.09.012c1.658.512 6.67 2.095 8.644 3.152l-3.493 1.471-9.16-3.763zm-2.188.722C4.89 4.754 3.51 5.3 2.71 5.78a.758.758 0 01.08.028L12 9.685l3.745-1.577-9.4-3.862zM1.892 6.94c-.235 1.658-.053 6.849.05 9.28.033.78.523 1.465 1.248 1.755l8.067 3.227.023.009a.75.75 0 01-.03-.212V10.997L2.207 7.19a.746.746 0 01-.316-.25zM12.72 21.21l.022-.008 8.067-3.227a1.981 1.981 0 001.248-1.756c.103-2.43.285-7.621.05-9.28a.746.746 0 01-.316.25l-9.042 3.808v10.002a.75.75 0 01-.03.212z" fill="#70798E"/></svg>