<svg width="24" height="24" fill="none" xmlns="http://www.w3.org/2000/svg"><path fill-rule="evenodd" clip-rule="evenodd" d="M6.309 4.32c-.17 0-.335.02-.491.056a4.17 4.17 0 00-.819-1.216c-.546-.546-1.407-.762-2.599-.762v1.92c.728 0 1.147.105 1.242.2.362.362.678 1.1.678 1.72l.01.136.94 6.585c-1.573.082-2.793 1.304-2.868 2.832L2.4 16.798c.093 1.579 1.309 2.793 2.826 2.879h.218a2.881 2.881 0 005.433.001h2.247a2.881 2.881 0 100-1.92h-2.248a2.881 2.881 0 00-5.432 0H5.28c-.49-.029-.928-.468-.961-1.017l.001-.903c.026-.497.462-.934 1.008-.96h11.585l.141-.044a2.52 2.52 0 001.587-1.49l.1-.2.33-.65c.34-.674.68-1.35 1.01-2.009.812-1.615 1.322-2.642 1.435-2.894.58-1.295-.595-2.291-1.796-2.312L6.309 4.32zm10.27 8.641H7.31a.163.163 0 01-.118-.134l-.94-6.585 13.327.955c-.233.475-.657 1.325-1.212 2.43l-.014.027-.995 1.978-.329.65-.124.246-.047.11a.6.6 0 01-.278.323zm-.739 6.709a.96.96 0 100-1.92.96.96 0 000 1.92zm-6.72-.96a.96.96 0 11-1.92 0 .96.96 0 011.92 0z" fill="#203686"/></svg>