<svg width="24" height="24" fill="none" xmlns="http://www.w3.org/2000/svg"><path d="M21.802 17.524a.283.283 0 00-.284-.28h-.75l-2.596-7.788 1.62-1.214a.773.773 0 10-.929-1.238l-1.19.893c-.747-.51-2.274-1.431-4.225-1.782C13.091 4.922 11.901 5 11.901 5s-1.19-.08-1.547 1.114c-1.95.351-3.478 1.273-4.224 1.782l-1.19-.893a.772.772 0 00-1.237.655.77.77 0 00.308.583l1.62 1.213-2.597 7.79h-.75a.283.283 0 00-.283.28H2v.003C2.004 18.765 3.836 20 6.126 20c2.292 0 4.125-1.238 4.125-2.475h-.003a.283.283 0 00-.283-.28h-.748l-2.596-7.79c.028-.024 1.592-1.322 3.799-1.777.42 1.063 1.481.985 1.481.985s1.062.078 1.482-.985c2.213.456 3.78 1.762 3.799 1.777l-2.597 7.79h-.748a.283.283 0 00-.283.28h-.002c0 1.237 1.833 2.475 4.125 2.475s4.126-1.238 4.126-2.476H21.8zm-13.454-.28H3.903l2.223-6.666 2.222 6.666zm9.329-6.666l2.223 6.666h-4.445l2.222-6.666z" fill="#70798E"/></svg>