<svg width="24" height="24" fill="none" xmlns="http://www.w3.org/2000/svg"><path d="M4.764 12.969a48.68 48.68 0 011.288-.385.84.84 0 01.48.005c.732.226 2.943.925 3.814 1.391l-1.54.649-4.042-1.66zm-.965.318c-.642.224-1.25.465-1.604.677a.335.335 0 01.035.012l4.063 1.71 1.652-.695L3.8 13.287zm-1.965 1.189c-.104.731-.024 3.021.022 4.094.014.344.23.646.55.774l3.56 1.424.01.004a.33.33 0 01-.014-.094v-4.413l-3.989-1.679a.33.33 0 01-.139-.11zm4.776 6.296l.01-.004 3.56-1.424a.874.874 0 00.55-.774c.046-1.073.126-3.363.022-4.095a.329.329 0 01-.14.111l-3.988 1.68v4.412a.331.331 0 01-.014.094zm9.92-7.803a48.768 48.768 0 011.287-.385.84.84 0 01.481.005c.732.226 2.943.925 3.814 1.391l-1.541.649-4.041-1.66zm-.966.318c-.642.224-1.25.465-1.603.677a.334.334 0 01.035.012l4.063 1.71 1.652-.695-4.147-1.704zM13.6 14.476c-.104.731-.024 3.021.021 4.094a.875.875 0 00.551.774l3.559 1.424.01.004a.331.331 0 01-.013-.094v-4.413l-3.989-1.679a.33.33 0 01-.14-.11zm4.776 6.296l.01-.004 3.56-1.424a.874.874 0 00.55-.774c.045-1.073.126-3.363.022-4.095a.329.329 0 01-.14.111l-3.988 1.68v4.412a.332.332 0 01-.014.094zM10.647 3.555a48.31 48.31 0 011.288-.385.839.839 0 01.48.005c.732.226 2.943.925 3.814 1.391l-1.54.649-4.042-1.66zm-.966.318c-.641.224-1.25.465-1.603.677a.333.333 0 01.035.012l4.063 1.71 1.652-.695-4.147-1.704zM7.717 5.062c-.104.731-.024 3.021.022 4.094.014.344.23.646.55.774l3.56 1.424.01.004a.332.332 0 01-.014-.094V6.851L7.856 5.172a.33.33 0 01-.14-.11zm4.776 6.296l.01-.004 3.56-1.424a.874.874 0 00.55-.774c.045-1.073.126-3.363.022-4.095a.33.33 0 01-.14.111l-3.988 1.68v4.412a.329.329 0 01-.014.094z" fill="#70798E"/></svg>