<svg width="20" height="20" fill="none" xmlns="http://www.w3.org/2000/svg"><path d="M14.167 3.333a.833.833 0 011.666 0V6c0 .46-.373.833-.833.833h-2.593a.833.833 0 010-1.666h.57a5.497 5.497 0 00-3.162-1c-3.098 0-5.648 2.589-5.648 5.833A.833.833 0 012.5 10c0-4.12 3.253-7.5 7.315-7.5 1.633 0 3.138.549 4.352 1.472v-.639zM5.833 16.667a.833.833 0 01-1.666 0V14c0-.46.373-.833.833-.833h2.593a.833.833 0 110 1.666h-.57c.904.633 1.993 1 3.162 1 3.098 0 5.648-2.589 5.648-5.833a.833.833 0 011.667 0c0 4.12-3.253 7.5-7.315 7.5a7.164 7.164 0 01-4.352-1.472v.639z" fill="#70798E"/></svg>