<svg width="32" height="32" fill="none" xmlns="http://www.w3.org/2000/svg"><rect width="32" height="32" rx="8" fill="#F4F7FB"/><path fill-rule="evenodd" clip-rule="evenodd" d="M16.749 9.267a.748.748 0 00-1.496 0v.427a5.236 5.236 0 00-4.488 5.182v2.992c0 .001 0 .012-.004.031a.955.955 0 01-.022.097c-.023.083-.06.188-.111.31-.103.247-.249.53-.41.817-.302.539-.454 1.18-.34 1.79a1.925 1.925 0 001.243 1.475c.632.24 1.473.46 2.584.591a3.722 3.722 0 00.57.4c.402.23.998.473 1.726.473s1.324-.242 1.727-.473a3.724 3.724 0 00.57-.4c1.11-.13 1.951-.35 2.583-.591a1.923 1.923 0 001.242-1.474c.115-.61-.038-1.252-.34-1.79a8.248 8.248 0 01-.41-.818 2.674 2.674 0 01-.11-.31.955.955 0 01-.027-.128v-2.992a5.236 5.236 0 00-4.487-5.182v-.427zm-4.488 5.609a3.739 3.739 0 117.48 0v2.993c0 .346.13.72.253 1.015.134.32.31.66.485.971.17.303.21.59.174.783-.03.16-.11.278-.304.352-.804.306-2.161.618-4.348.618s-3.544-.312-4.348-.618c-.194-.074-.274-.192-.304-.352-.037-.193.004-.48.174-.783a9.69 9.69 0 00.485-.971c.123-.296.253-.67.253-1.015v-2.993z" fill="#203686"/></svg>