<svg width="24" height="24" fill="none" xmlns="http://www.w3.org/2000/svg"><path d="M9.5 1.75a1 1 0 00-.935.646l-.23.606a109.03 109.03 0 01-1.97-.215l-.18-.022-.061-.007a1 1 0 00-.247 1.984l.067.009.186.022a105.46 105.46 0 002.78.293c1.071.098 2.246.184 3.09.184.844 0 2.02-.086 3.091-.184a104.245 104.245 0 002.78-.293l.185-.022.067-.009a1 1 0 00-.246-1.984l-.062.007-.18.022a103.44 103.44 0 01-1.97.215l-.23-.606a1 1 0 00-.935-.646h-5zm1.5 10a1 1 0 10-2 0v5a1 1 0 102 0v-5zm3-1a1 1 0 011 1v5a1 1 0 11-2 0v-5a1 1 0 011-1z" fill="#969BA8"/><path fill-rule="evenodd" clip-rule="evenodd" d="M18.91 8.05a2.018 2.018 0 00-2.247-2.142c-1.272.147-3.235.342-4.663.342-1.428 0-3.391-.195-4.663-.342A2.018 2.018 0 005.09 8.051l.857 11.994a1.974 1.974 0 001.672 1.818c.996.15 2.825.389 4.382.387 1.538-.002 3.375-.24 4.376-.389a1.975 1.975 0 001.676-1.819l.857-11.991zm-2.017-.155h.009a.027.027 0 01.013.011v.002l-.856 11.979c-.99.146-2.688.361-4.06.363-1.387.002-3.074-.214-4.058-.361l-.856-11.98v-.003l.004-.005a.027.027 0 01.01-.005l.002-.001h.006c1.274.147 3.339.355 4.893.355 1.555 0 3.619-.208 4.893-.355z" fill="#969BA8"/></svg>