<svg width="32" height="32" fill="none" xmlns="http://www.w3.org/2000/svg"><rect width="32" height="32" rx="8" fill="#F4F7FB"/><path fill-rule="evenodd" clip-rule="evenodd" d="M8.593 12.603c.015-.124.04-.289.091-.44a.958.958 0 01.163-.364c.085-.117.188-.213.283-.29a4.05 4.05 0 01.691-.423c.52-.263 1.209-.535 1.917-.788a63.055 63.055 0 013.716-1.172 1.935 1.935 0 011.104.013 81.35 81.35 0 013.707 1.235c.706.26 1.39.53 1.902.777.253.123.49.251.674.383.09.064.193.147.28.25a.9.9 0 01.19.366c.055.155.08.326.096.453.024.19.04.422.052.675.022.508.026 1.145.02 1.813a123.912 123.912 0 01-.108 3.75 1.988 1.988 0 01-1.25 1.761l-5.378 2.151a2 2 0 01-1.486 0l-5.377-2.15a1.988 1.988 0 01-1.251-1.762c-.039-.912-.094-2.411-.108-3.75a35.297 35.297 0 01.02-1.813 8.85 8.85 0 01.052-.675zm6.74 8.745v-5.9a2.321 2.321 0 01-.074-.027l-5.382-2.153-.004.07c-.02.47-.025 1.08-.018 1.74.013 1.317.068 2.799.106 3.707.01.255.17.482.414.58l4.958 1.983zm1.334 0v-5.9a2.24 2.24 0 00.074-.027l5.383-2.153.003.07c.02.47.025 1.08.018 1.74a122.773 122.773 0 01-.106 3.707.654.654 0 01-.414.58l-4.958 1.983zm3.139-9.722a26 26 0 011.425.563l-1.887.754-4.896-2.13a73.938 73.938 0 011.37-.404.602.602 0 01.348.004c.691.213 2.254.705 3.64 1.213zm-7.274-.194l5.071 2.208-1.357.543a.659.659 0 01-.492 0l-5.075-2.03c.415-.191.939-.396 1.508-.6l.345-.12z" fill="#203686"/></svg>