<svg width="24" height="24" fill="none" xmlns="http://www.w3.org/2000/svg"><path fill-rule="evenodd" clip-rule="evenodd" d="M20.596 2.908a3.448 3.448 0 00-4.876 0l-8.526 8.526a4 4 0 00-1.131 2.263l-.247 1.729a2 2 0 002.262 2.263l1.73-.247a4 4 0 002.263-1.132l8.525-8.525a3.448 3.448 0 000-4.877zm-3.253 1.24a1.449 1.449 0 012.012 2.013L17.343 4.15zm-1.432 1.397l2.048 2.048-7.303 7.303a2 2 0 01-1.131.566l-1.73.247.248-1.73a2 2 0 01.565-1.13l7.303-7.304z" fill="#70798E"/><path d="M6 1.998a4 4 0 00-4 4v12a4 4 0 004 4h12a4 4 0 004-4v-6a1 1 0 10-2 0v6a2 2 0 01-2 2H6a2 2 0 01-2-2v-12a2 2 0 012-2h2.684a1 1 0 100-2H6z" fill="#70798E"/></svg>