<svg width="48" height="48" viewBox="0 0 48 48" fill="none" xmlns="http://www.w3.org/2000/svg">
<rect width="48" height="48" rx="24" fill="#F4F7FB"/>
<path fill-rule="evenodd" clip-rule="evenodd" d="M24.0002 17.5001C21.5149 17.5001 19.5002 19.5148 19.5002 22.0001C19.5002 24.4854 21.5149 26.5001 24.0002 26.5001C26.4854 26.5001 28.5002 24.4854 28.5002 22.0001C28.5002 19.5148 26.4854 17.5001 24.0002 17.5001ZM21.5002 22.0001C21.5002 20.6194 22.6194 19.5001 24.0002 19.5001C25.3809 19.5001 26.5002 20.6194 26.5002 22.0001C26.5002 23.3808 25.3809 24.5001 24.0002 24.5001C22.6194 24.5001 21.5002 23.3808 21.5002 22.0001Z" fill="#203686"/>
<path fill-rule="evenodd" clip-rule="evenodd" d="M19.8094 15.5921C22.3471 13.9003 25.6532 13.9003 28.1909 15.5921C31.6218 17.8794 32.585 22.4951 30.3553 25.9637L26.5237 31.9239C25.3428 33.7608 22.6575 33.7608 21.4766 31.9239L17.6451 25.9637C15.4153 22.4951 16.3785 17.8794 19.8094 15.5921ZM20.9188 17.2562C22.7847 16.0123 25.2156 16.0123 27.0815 17.2562C29.6042 18.938 30.3124 22.3318 28.6729 24.8821L24.8413 30.8424C24.4477 31.4547 23.5526 31.4547 23.159 30.8424L19.3274 24.8821C17.6879 22.3318 18.3961 18.938 20.9188 17.2562Z" fill="#203686"/>
</svg>
