<svg width="16" height="16" fill="none" xmlns="http://www.w3.org/2000/svg"><path d="M6.334 1.164a.667.667 0 00-.624.43L5.557 2a72.756 72.756 0 01-1.313-.144l-.12-.014-.041-.005a.667.667 0 00-.165 1.323l.045.005.124.015a71.928 71.928 0 001.853.196c.714.065 1.497.122 2.06.122s1.346-.057 2.06-.122a69.538 69.538 0 001.854-.196l.124-.015.044-.005a.667.667 0 00-.164-1.323l-.041.005-.12.014A69.792 69.792 0 0110.442 2l-.153-.404a.667.667 0 00-.623-.43H6.334zm1 6.666A.667.667 0 006 7.83v3.334a.667.667 0 001.334 0V7.831zm2-.666c.368 0 .666.299.666.667v3.333a.667.667 0 11-1.333 0V7.831c0-.368.298-.667.667-.667z" fill="#F10B34"/><path fill-rule="evenodd" clip-rule="evenodd" d="M12.607 5.364a1.345 1.345 0 00-1.498-1.428c-.848.098-2.157.228-3.109.228s-2.26-.13-3.109-.228a1.345 1.345 0 00-1.497 1.428l.57 7.997a1.316 1.316 0 001.115 1.211c.665.1 1.884.26 2.922.259 1.025-.002 2.25-.16 2.917-.26a1.316 1.316 0 001.118-1.212l.57-7.995zm-1.345-.103h.006c.002 0 .004.002.006.004a.023.023 0 01.003.003v.001l-.57 7.986c-.661.098-1.793.241-2.708.242-.924.002-2.049-.142-2.705-.24l-.57-7.988s0-.003.002-.004a.018.018 0 01.006-.004h.006c.85.098 2.226.236 3.262.236 1.037 0 2.413-.138 3.262-.236z" fill="#F10B34"/></svg>