<svg width="32" height="33" viewBox="0 0 32 33" fill="none" xmlns="http://www.w3.org/2000/svg">
<rect x="0.5" y="1" width="31" height="31" rx="7.5" fill="white"/>
<rect x="0.5" y="1" width="31" height="31" rx="7.5" stroke="#DDE1E6"/>
<path d="M17 11.1666C17 11.7189 16.5523 12.1666 16 12.1666C15.4477 12.1666 15 11.7189 15 11.1666C15 10.6143 15.4477 10.1666 16 10.1666C16.5523 10.1666 17 10.6143 17 11.1666Z" fill="#70798E"/>
<path d="M17 16.5C17 17.0522 16.5523 17.5 16 17.5C15.4477 17.5 15 17.0522 15 16.5C15 15.9477 15.4477 15.5 16 15.5C16.5523 15.5 17 15.9477 17 16.5Z" fill="#70798E"/>
<path d="M16 22.8333C16.5523 22.8333 17 22.3856 17 21.8333C17 21.281 16.5523 20.8333 16 20.8333C15.4477 20.8333 15 21.281 15 21.8333C15 22.3856 15.4477 22.8333 16 22.8333Z" fill="#70798E"/>
</svg>
