<svg width="48" height="48" fill="none" xmlns="http://www.w3.org/2000/svg"><rect width="48" height="48" rx="24" fill="#F4F7FB"/><path fill-rule="evenodd" clip-rule="evenodd" d="M19 33a3.001 3.001 0 002.83-2h6.34a3.001 3.001 0 005.66 0H34a1 1 0 001-1v-3.363a4 4 0 00-.344-1.625l-.95-2.137A4 4 0 0030.05 20.5H28V19a4 4 0 00-4-4h-7a4 4 0 00-4 4v10a2 2 0 002 2h1.17A3.001 3.001 0 0019 33zm-4-14a2 2 0 012-2h7a2 2 0 012 2v10h-4.17a3.001 3.001 0 00-5.66 0H15V19zm17.828 6.824a2 2 0 01.172.813v1.127A3.001 3.001 0 0028.17 29H28v-6.5h2.05a2 2 0 011.828 1.188l.95 2.136zM18 30a1 1 0 112 0 1 1 0 01-2 0zm12 0a1 1 0 112 0 1 1 0 01-2 0z" fill="#203686" stroke="#fff" stroke-width=".1" stroke-linecap="round" stroke-linejoin="round"/></svg>