<svg width="370" height="255" fill="none" xmlns="http://www.w3.org/2000/svg"><g filter="url(#filter0_d_2710_96845)"><rect x="37.091" y="220" width="200" height="310.909" rx="21.453" transform="rotate(-90 37.09 220)" fill="url(#paint0_linear_2710_96845)"/><rect x="37.538" y="219.553" width="199.106" height="310.016" rx="21.006" transform="rotate(-90 37.538 219.553)" stroke="url(#paint1_linear_2710_96845)" stroke-width=".894"/></g><mask id="a" style="mask-type:alpha" maskUnits="userSpaceOnUse" x="37" y="20" width="311" height="201"><rect x="37.538" y="219.553" width="199.106" height="310.016" rx="21.006" transform="rotate(-90 37.538 219.553)" fill="url(#paint2_linear_2710_96845)" stroke="url(#paint3_linear_2710_96845)" stroke-width=".894"/></mask><g opacity=".2" fill="#0071BC" mask="url(#a)"><path d="M183.319 262.034s37.833 21.897 83.65-.221c45.817-22.117 51.479-60.178 53.396-76.771 1.914-16.597-3.823-41.802-15.234-48.134-11.408-6.336-15.027 4.283-14.685 8.357.342 4.074 9.156 18.855 12.279 33.316 3.123 14.456 1.176 39.76-16.515 60.315-17.69 20.551-56.132 39.377-101.878 20.972l-1.013 2.166z"/><path d="M210.364 260.858s28.439 6.42 60.647-17.33c32.213-23.746 29.403-69.41 19.179-71.789-8.918-2.075-11.136 5.562-10.181 11.215.95 5.653 4.007 18.335 1.48 28.558-2.535 10.223-20.955 49.642-71.125 49.346z"/><path d="M229.286 253.06s14.589-1.425 31.537-17.506 10.336-35.565 2.243-36.515c-8.088-.946-7.813 6.153-7.1 10.39.713 4.237 5.053 12.257-1.981 24.421-7.033 12.165-18.945 16.51-24.699 19.21zm-82.925 20.135s3.66-15.481 10.919-25.896c0 0 13.705 10.082 35.465 19.031 0 0-2.202-26.321-39.355-45.606 0 0-10.657-35.09 16.448-44.726 13.23-4.703 32.88-1.762 54.339-5.22-7.646-4.858-19.054-14.543-21.201-30.033-11.04-.35-54.318 1.221-60.155 46.839 0 0-2.614-50.809 59.805-51.521-.088-6.528 1.438-13.973 5.387-22.38 0 0-14.539 36.573 23.452 55.662 20.438-4.753 42.002-16.51 60.91-46.843 0 0-35.848-42.489-88.673-29.478-52.822 13.023-93.952 68.91-60.514 132.375 0 0-12.004 24.312 3.173 47.796zm91.112-146.389c-3.281-2.916-3.51-7.874-.5-11.065s8.109-3.408 11.395-.488c3.289 2.921 3.51 7.878.5 11.065-2.998 3.192-8.105 3.408-11.395.488z"/><path d="M163.318 109.916s-21.856 14.302-31.875 45.381c0 0-8.322-28.012 5.195-48.484l26.68 3.103zm46.363 65.795l-27.735.75-7.396 14.66c.004 0 15.872 4.32 35.131-15.41z"/></g><g filter="url(#filter1_dd_2710_96845)"><rect x="27.999" y="99.094" width="200" height="29.091" rx="9.091" fill="#FFCB05"/><rect x="27.999" y="99.094" width="200" height="29.091" rx="9.091" fill="url(#paint4_linear_2710_96845)"/><rect x="28.446" y="99.541" width="199.106" height="28.197" rx="8.644" stroke="url(#paint5_linear_2710_96845)" stroke-width=".894"/></g><path d="M51.444 116.22v-5.88h1.642v5.88h-1.642zm-2.202-2.164v-1.553H55.3v1.553h-6.058zm17.307 3.678l-2.774-4.289 1.667-1.005 3.449 5.294h-2.342zm-5.79 0v-8.909h2.048v8.909h-2.049zm1.45-3.589v-1.718h3.106v1.718h-3.106zm3.424-.636l-1.897-.229 2.89-4.455h2.176l-3.17 4.684zm5.259 1.451v-1.362h3.576v1.362h-3.576zm.955-4.2c.746 0 1.408.153 1.985.458.577.297 1.03.713 1.362 1.247.33.535.496 1.15.496 1.846 0 .687-.165 1.302-.496 1.845a3.48 3.48 0 01-1.362 1.26c-.577.297-1.239.446-1.985.446a4.775 4.775 0 01-1.782-.319 3.44 3.44 0 01-1.311-.941l1.132-1.069c.255.254.535.453.84.598.314.135.662.203 1.044.203.416 0 .776-.084 1.082-.254.314-.17.56-.407.738-.713.178-.305.267-.657.267-1.056 0-.408-.089-.764-.267-1.069a1.863 1.863 0 00-.738-.713c-.306-.17-.666-.255-1.082-.255-.382 0-.73.072-1.043.217a2.671 2.671 0 00-.84.598l-1.133-1.056c.348-.416.785-.73 1.31-.942a4.622 4.622 0 011.783-.331zm9.861 5.345l-.433.458v-5.676h1.986v5.676l-.458-.458h3.156l-.445.458v-5.676h1.972v6.847H77.037v-6.847h1.973v5.676l-.446-.458h3.144zm11.082 1.782c-.56 0-1.07-.081-1.528-.242a3.196 3.196 0 01-1.196-.776c-.33-.356-.59-.81-.776-1.362-.178-.551-.268-1.209-.268-1.973 0-.543.047-1.039.14-1.489.094-.449.234-.857.42-1.222a3.6 3.6 0 01.713-.98c.297-.288.64-.526 1.031-.712a5.612 5.612 0 011.35-.446l3.257-.649.268 1.706-2.877.572c-.17.034-.364.081-.585.14a3.065 3.065 0 00-.65.242c-.211.11-.41.267-.597.471a2.185 2.185 0 00-.433.776c-.11.314-.166.705-.166 1.171 0 .145.005.255.013.331.017.077.03.157.038.242.017.085.026.216.026.395l-.637-.624c.187-.399.425-.738.713-1.018.297-.28.636-.492 1.018-.637a3.55 3.55 0 011.299-.229c.644 0 1.209.132 1.692.395.492.254.874.615 1.146 1.082.271.466.407.997.407 1.591 0 .644-.161 1.213-.484 1.705-.322.484-.772.861-1.349 1.133-.568.271-1.23.407-1.985.407zm.102-1.54c.33 0 .623-.072.878-.216.254-.153.45-.352.585-.598a1.7 1.7 0 00.217-.853c0-.306-.073-.577-.217-.815a1.44 1.44 0 00-.585-.56 1.874 1.874 0 00-.891-.203c-.331 0-.628.068-.891.203a1.453 1.453 0 00-.61.535 1.472 1.472 0 00-.217.802c0 .314.072.602.216.865.153.255.356.458.611.611.263.153.564.229.904.229zm6.3-1.387v-1.362h3.577v1.362h-3.576zm.955-4.2c.747 0 1.409.153 1.986.458a3.398 3.398 0 011.362 1.247c.33.535.496 1.15.496 1.846 0 .687-.166 1.302-.496 1.845a3.48 3.48 0 01-1.362 1.26c-.577.297-1.239.446-1.986.446a4.775 4.775 0 01-1.782-.319 3.44 3.44 0 01-1.31-.941l1.132-1.069c.255.254.535.453.84.598.314.135.662.203 1.044.203.416 0 .776-.084 1.082-.254.314-.17.56-.407.738-.713.178-.305.267-.657.267-1.056 0-.408-.089-.764-.267-1.069a1.861 1.861 0 00-.738-.713c-.306-.17-.666-.255-1.082-.255-.382 0-.73.072-1.044.217a2.674 2.674 0 00-.84.598l-1.132-1.056c.347-.416.784-.73 1.31-.942a4.621 4.621 0 011.782-.331zm10.04 6.974l-2.291-3.245 1.617-.955 3.016 4.2h-2.342zm-4.849 0v-6.847h1.985v6.847h-1.985zm1.4-2.596v-1.591h2.393v1.591h-2.393zm2.965-.598l-1.858-.204 2.406-3.449h2.112l-2.66 3.653zm10.523 3.271c-.678 0-1.281-.149-1.807-.446a3.31 3.31 0 01-1.247-1.222c-.306-.526-.458-1.12-.458-1.781 0-.671.152-1.265.458-1.782a3.212 3.212 0 011.247-1.209c.526-.297 1.129-.446 1.807-.446.671 0 1.269.149 1.795.446.534.288.95.691 1.247 1.209.306.509.458 1.103.458 1.782 0 .67-.152 1.264-.458 1.781a3.2 3.2 0 01-1.247 1.222c-.526.297-1.124.446-1.795.446zm0-1.069c.433 0 .819-.098 1.159-.293a2.07 2.07 0 00.814-.827c.195-.365.293-.785.293-1.26 0-.484-.098-.9-.293-1.248a2.07 2.07 0 00-.814-.827 2.287 2.287 0 00-1.159-.293c-.432 0-.818.098-1.158.293a2.178 2.178 0 00-.814.827c-.204.348-.306.764-.306 1.248 0 .475.102.895.306 1.26.203.356.475.632.814.827.34.195.726.293 1.158.293zm6.353.992v-5.994l.305.318h-2.775v-1.069h6.16v1.069h-2.761l.292-.318v5.994h-1.221zm9.872-4.009v-1.043h4.773v1.043h-4.773zm1.146-5.002a4.54 4.54 0 011.782.344 4.044 4.044 0 011.412.955c.408.407.721.886.942 1.438.229.551.344 1.158.344 1.82 0 .662-.115 1.268-.344 1.82a4.374 4.374 0 01-.942 1.451 4.286 4.286 0 01-1.412.954 4.683 4.683 0 01-1.782.331 5.341 5.341 0 01-1.973-.356 3.934 3.934 0 01-1.502-1.044l.802-.802c.356.365.751.632 1.184.802.441.17.916.255 1.425.255.467 0 .899-.085 1.298-.255.399-.17.743-.403 1.031-.7.297-.305.526-.666.687-1.082.162-.424.242-.882.242-1.374 0-.492-.08-.946-.242-1.362a3.027 3.027 0 00-.687-1.082 3.04 3.04 0 00-1.031-.713 3.291 3.291 0 00-1.298-.254c-.509 0-.984.085-1.425.254-.433.17-.828.437-1.184.802l-.802-.802a3.921 3.921 0 011.502-1.043 5.321 5.321 0 011.973-.357zm12.537 9.011l-3.233-4.391 1.031-.636 3.652 5.027h-1.45zm-5.995 0v-8.909h1.247v8.909h-1.247zm.865-3.92v-1.12h2.89v1.12h-2.89zm3.042-.394l-1.171-.178 3.195-4.417h1.362l-3.386 4.595zm8.827 4.416a5.155 5.155 0 01-1.896-.343 4.605 4.605 0 01-1.502-.955 4.518 4.518 0 01-.993-1.451 4.528 4.528 0 01-.356-1.807c0-.654.119-1.256.356-1.807a4.382 4.382 0 01.993-1.439 4.49 4.49 0 011.502-.967 5.095 5.095 0 011.896-.344 4.96 4.96 0 011.871.344 4.327 4.327 0 011.502.955c.433.407.764.886.993 1.438a4.56 4.56 0 01.356 1.82c0 .662-.119 1.268-.356 1.82a4.259 4.259 0 01-.993 1.451 4.586 4.586 0 01-1.502.954 5.12 5.12 0 01-1.871.331zm0-1.133c.492 0 .946-.084 1.362-.254a3.224 3.224 0 001.82-1.807c.178-.416.267-.87.267-1.362 0-.492-.089-.946-.267-1.362a3.175 3.175 0 00-.725-1.082 3.125 3.125 0 00-1.095-.725 3.566 3.566 0 00-1.362-.255c-.5 0-.963.085-1.387.255a3.277 3.277 0 00-1.095.725c-.314.306-.56.666-.738 1.082-.17.416-.254.87-.254 1.362 0 .492.084.946.254 1.362.178.415.424.78.738 1.094.314.306.679.543 1.095.713.424.17.887.254 1.387.254zm6.779 1.031v-8.909h3.475c.781 0 1.447.123 1.998.369.552.246.976.603 1.273 1.069.297.467.445 1.023.445 1.668s-.148 1.2-.445 1.667c-.297.458-.721.815-1.273 1.069-.551.246-1.217.369-1.998.369h-2.775l.573-.598v3.296h-1.273zm1.273-3.169l-.573-.636h2.737c.814 0 1.43-.174 1.845-.522.425-.348.637-.84.637-1.476 0-.637-.212-1.129-.637-1.477-.415-.348-1.031-.521-1.845-.521h-2.737l.573-.637v5.269zm12.166 2.571c-1.086 0-2.015-.148-2.788-.445-.772-.306-1.361-.747-1.769-1.324-.407-.577-.611-1.277-.611-2.1 0-.823.204-1.523.611-2.1.408-.577.997-1.018 1.769-1.324.773-.305 1.702-.458 2.788-.458h.318c1.086 0 2.011.153 2.774.458.773.306 1.362.747 1.77 1.324.407.577.61 1.277.61 2.1 0 .815-.203 1.515-.61 2.1-.399.577-.98 1.018-1.744 1.324-.755.297-1.672.445-2.749.445h-.369zm.14-.993h.102c.865-.008 1.595-.118 2.189-.33.594-.221 1.043-.543 1.349-.968.314-.432.471-.963.471-1.591 0-.619-.157-1.141-.471-1.565-.314-.424-.768-.747-1.362-.967-.586-.221-1.302-.331-2.151-.331h-.127c-.874 0-1.617.11-2.228.331-.602.212-1.06.53-1.374.954-.314.424-.471.955-.471 1.591s.161 1.167.484 1.591c.322.424.785.747 1.387.967.611.212 1.345.318 2.202.318zm-.573 1.922v-9.571h1.184v9.571h-1.184zm7.863-.331v-8.909h1.26v6.873l5.269-6.873h1.171v8.909h-1.248v-6.86l-5.281 6.86h-1.171zm15.734-1.107l-.293.331v-8.133h1.247v8.133l-.318-.331h4.34l-.318.331v-8.133h1.247v8.909h-11.162v-8.909h1.26v8.133l-.318-.331h4.315z" fill="#202329"/><g opacity=".6" filter="url(#filter2_dd_2710_96845)"><rect x="289.899" y="89.188" width="46.48" height="37.542" rx="7.151" transform="rotate(-90 289.899 89.188)" fill="#ECF2F9"/><rect x="289.452" y="89.634" width="47.374" height="38.436" rx="7.598" transform="rotate(-90 289.452 89.634)" stroke="url(#paint6_linear_2710_96845)" stroke-width=".894"/></g><mask id="b" style="mask-type:alpha" maskUnits="userSpaceOnUse" x="289" y="42" width="40" height="48"><rect x="289.913" y="90" width="47.273" height="38.182" rx="3.636" transform="rotate(-90 289.913 90)" fill="#E5E9F4"/></mask><g mask="url(#b)"><path opacity=".6" d="M271.128 52.547h30.492m0 0v9.012m0-9.012h41.016M301.62 70.57v8.793m0-8.793h-30.492m30.492 0v-9.01m0 17.803h-30.492m30.492 0h10.149M301.62 61.56h-30.492m40.641 17.803h30.867m-30.867 0v-8.901m30.867-8.902h-29.597c-.702 0-1.27.787-1.27 1.758v7.144m0 0h30.867" stroke="url(#paint7_linear_2710_96845)" stroke-width="1.251" stroke-linejoin="round"/></g><path d="M84.1 44.247a13.253 13.253 0 015.094 5.075c1.233 2.164 1.85 4.61 1.85 7.338 0 2.729-.617 5.174-1.85 7.338a13.254 13.254 0 01-5.095 5.076c-2.164 1.22-4.61 1.83-7.338 1.83-2.44 0-4.637-.42-6.59-1.26-1.954-.839-3.587-2.059-4.899-3.659l4.053-3.777c1.941 2.178 4.314 3.266 7.121 3.266 2.02 0 3.732-.59 5.135-1.77 1.403-1.181 2.315-2.768 2.735-4.762H73.14v-4.878h11.096c-.447-1.889-1.364-3.397-2.754-4.525-1.391-1.127-3.07-1.692-5.037-1.692-2.807 0-5.18 1.089-7.121 3.266l-4.053-3.777c1.312-1.6 2.945-2.82 4.899-3.66 1.953-.839 4.15-1.259 6.59-1.259 2.728 0 5.174.61 7.338 1.83zm22.602 15.089h-4.406V70.43h-6.335V42.89h6.335v11.134h4.564l7.239-11.135h6.728l-9.01 13.3 9.286 14.242h-7.24l-7.161-11.095zm69.935-15.227c1.797.813 3.181 1.968 4.151 3.463.97 1.495 1.456 3.265 1.456 5.311 0 2.02-.486 3.784-1.456 5.292-.97 1.51-2.354 2.663-4.151 3.463-1.796.8-3.914 1.2-6.354 1.2h-5.548v7.593h-6.374V42.89h11.922c2.44 0 4.557.406 6.354 1.22zm-2.341 12.296c.997-.827 1.495-2 1.495-3.522 0-1.547-.498-2.734-1.495-3.56-.997-.827-2.453-1.24-4.367-1.24h-5.194v9.561h5.194c1.914 0 3.37-.413 4.367-1.24zm-41.707 12.4s5.95 3.447 13.156-.035c7.207-3.481 8.097-9.472 8.399-12.084.301-2.612-.602-6.58-2.396-7.577-1.795-.997-2.364.674-2.31 1.316.054.641 1.44 2.968 1.931 5.244.491 2.275.185 6.258-2.597 9.494-2.783 3.235-8.829 6.198-16.024 3.301l-.159.341zm4.254-.184s4.473 1.01 9.539-2.728c5.066-3.737 4.624-10.925 3.016-11.3-1.403-.326-1.752.876-1.601 1.766.149.89.63 2.886.232 4.495-.398 1.61-3.295 7.814-11.186 7.767zm2.976-1.228s2.294-.224 4.96-2.755c2.665-2.532 1.625-5.599.353-5.748-1.273-.149-1.229.968-1.117 1.635.112.667.795 1.93-.312 3.845-1.106 1.914-2.98 2.598-3.884 3.023zm-13.043 3.17s.575-2.437 1.717-4.077c0 0 2.156 1.587 5.578 2.996 0 0-.346-4.143-6.19-7.179 0 0-1.676-5.523 2.587-7.04 2.081-.74 5.172-.277 8.547-.822-1.203-.764-2.997-2.289-3.335-4.727-1.736-.055-8.543.192-9.461 7.373 0 0-.411-7.998 9.406-8.11-.014-1.028.226-2.2.847-3.523 0 0-2.286 5.757 3.689 8.762 3.215-.748 6.606-2.599 9.58-7.374 0 0-5.638-6.688-13.947-4.64-8.307 2.05-14.776 10.847-9.517 20.837 0 0-1.888 3.827.499 7.523zm14.331-23.043a1.208 1.208 0 01-.079-1.742 1.294 1.294 0 011.792-.077c.517.46.552 1.24.079 1.742a1.294 1.294 0 01-1.792.077zm-15.86-3.147c-2.125 3.222-.817 7.632-.817 7.632 1.576-4.892 5.013-7.144 5.013-7.144l-4.196-.488zm11.488 10.845l-4.362.118-1.163 2.307c.001 0 2.496.68 5.525-2.425z" fill="url(#paint8_linear_2710_96845)"/><path d="M235.735 168.951c-.473 0-.885-.115-1.234-.346-.343-.231-.639-.595-.888-1.092l-1.58-3.143a2.417 2.417 0 01-.213-.595 4.056 4.056 0 010-1.42c.047-.225.118-.426.213-.604l1.58-3.143c.237-.491.53-.852.879-1.083.349-.237.764-.355 1.243-.355h2.699c.255 0 .459.071.613.213a.706.706 0 01.239.551c0 .219-.08.402-.239.55a.889.889 0 01-.613.213h-2.699a.77.77 0 00-.417.124.889.889 0 00-.311.347l-1.562 3.169a1.595 1.595 0 00-.107.337 1.93 1.93 0 00-.035.382c0 .142.011.272.035.391.024.118.059.231.107.337l1.562 3.152a.957.957 0 00.311.355c.13.089.269.133.417.133h2.699c.255 0 .459.071.613.213a.706.706 0 01.239.551c0 .224-.08.408-.239.55a.889.889 0 01-.613.213h-2.699zm10.426-3.853a.698.698 0 00-.506.222.717.717 0 00-.222.524v.852c0 .195.071.367.213.515a.743.743 0 00.533.213h2.033l1.642-.923-.017-.675a.67.67 0 00-.222-.515.732.732 0 00-.524-.213h-2.93zm.089-4.732h2.708c.615 0 1.142.213 1.58.639.438.426.669.965.693 1.616l.204 5.46v.035a.843.843 0 01-.222.595.674.674 0 01-.524.24.71.71 0 01-.524-.204c-.136-.13-.222-.317-.257-.559l-.888.559a1.285 1.285 0 01-.337.142 1.095 1.095 0 01-.338.062h-2.166a2.19 2.19 0 01-1.607-.666 2.15 2.15 0 01-.666-1.589v-.852c0-.622.225-1.154.675-1.598.45-.45.983-.675 1.598-.675h2.912c.124 0 .24.012.346.036a1.4 1.4 0 01.32.088l-.053-1.074a.754.754 0 00-.222-.524.711.711 0 00-.524-.204h-2.708c-.254 0-.456-.068-.604-.204-.142-.136-.213-.323-.213-.559a.73.73 0 01.222-.551.843.843 0 01.595-.213zm11.935 0h3.232c.497 0 .95.154 1.358.462.415.308.622.621.622.941a.721.721 0 01-.231.541.727.727 0 01-.533.222c-.189 0-.393-.106-.612-.319-.213-.213-.421-.32-.622-.32h-3.214a.42.42 0 00-.319.133.47.47 0 00-.124.347c0 .065.026.133.079.204a.52.52 0 00.196.16l4.128 1.757c.438.196.784.486 1.039.87.254.379.381.805.381 1.279 0 .633-.227 1.175-.683 1.624a2.219 2.219 0 01-1.625.684h-3.001a2.644 2.644 0 01-1.5-.471c-.467-.307-.701-.618-.701-.932 0-.201.071-.378.213-.532a.712.712 0 01.533-.231c.165 0 .39.106.674.319.284.213.545.32.781.32h3.001a.743.743 0 00.542-.231.736.736 0 00.239-.55.752.752 0 00-.133-.435.741.741 0 00-.364-.293l-4.101-1.785a1.973 1.973 0 01-.897-.728 1.866 1.866 0 01-.328-1.065c0-.545.192-1.009.577-1.394a1.896 1.896 0 011.393-.577zm11.545-2.344v3.605l1.11-.728c.024-.018.053-.039.089-.062.461-.314.917-.471 1.367-.471h.959c.621 0 1.148.213 1.58.639.438.426.669.965.692 1.616l.187 5.46v.035a.863.863 0 01-.213.595.665.665 0 01-.515.24.769.769 0 01-.568-.222c-.142-.148-.219-.346-.231-.595l-.187-5.513a.751.751 0 00-.23-.524.7.7 0 00-.515-.204h-.977a.675.675 0 00-.248.045 1.81 1.81 0 00-.302.177l-1.998 1.349v4.635c0 .254-.071.458-.213.612a.701.701 0 01-.55.24.703.703 0 01-.551-.24.888.888 0 01-.213-.612v-10.077c0-.26.068-.467.204-.621a.726.726 0 01.56-.231c.219 0 .399.08.541.24.148.16.222.364.222.612zm14.164 3.871a.74.74 0 00-.275.053.893.893 0 00-.249.169l-1.296 1.039a.59.59 0 00-.142.222.838.838 0 00-.053.302v1.944a.89.89 0 00.053.319.443.443 0 00.151.213l1.287 1.048c.089.071.178.127.266.169a.704.704 0 00.258.053h1.181a.7.7 0 00.248-.044c.077-.03.169-.086.275-.169l.515-.408a.539.539 0 00.151-.222.698.698 0 00.071-.302v-3.258a.657.657 0 00-.071-.284.526.526 0 00-.151-.222l-.506-.4a.908.908 0 00-.266-.177.73.73 0 00-.266-.045h-1.181zm-2.015-3.871v3.365l.559-.488c.195-.166.42-.296.675-.391.26-.095.52-.142.781-.142h1.181c.272 0 .532.045.781.133.248.089.479.222.692.4l.515.399c.231.178.423.426.577.746.16.32.24.627.24.923v3.312c0 .319-.077.642-.231.967a2.228 2.228 0 01-.586.782l-.515.399a2.482 2.482 0 01-.701.391c-.243.089-.5.133-.772.133h-1.181a2.26 2.26 0 01-.781-.142 2.094 2.094 0 01-.675-.382l-.559-.497v.169c0 .254-.071.458-.213.612a.703.703 0 01-.551.24.701.701 0 01-.55-.24.888.888 0 01-.213-.612v-10.077c0-.26.068-.467.204-.621a.724.724 0 01.559-.231c.219 0 .4.08.542.24.148.16.222.364.222.612zm12.876 7.076a.698.698 0 00-.506.222.717.717 0 00-.222.524v.852c0 .195.071.367.213.515a.743.743 0 00.533.213h2.033l1.642-.923-.018-.675a.669.669 0 00-.221-.515.732.732 0 00-.524-.213h-2.93zm.089-4.732h2.708c.615 0 1.142.213 1.58.639.438.426.669.965.692 1.616l.205 5.46v.035a.843.843 0 01-.222.595.674.674 0 01-.524.24.71.71 0 01-.524-.204c-.136-.13-.222-.317-.257-.559l-.888.559a1.278 1.278 0 01-.338.142 1.084 1.084 0 01-.337.062h-2.166a2.189 2.189 0 01-1.607-.666 2.15 2.15 0 01-.666-1.589v-.852c0-.622.225-1.154.675-1.598.45-.45.982-.675 1.598-.675h2.912c.124 0 .239.012.346.036.112.017.219.047.32.088l-.054-1.074a.75.75 0 00-.222-.524.708.708 0 00-.523-.204h-2.708c-.255 0-.456-.068-.604-.204-.142-.136-.213-.323-.213-.559a.73.73 0 01.222-.551.843.843 0 01.595-.213zm13.436 0h3.045c.248 0 .452.074.612.222.16.142.24.323.24.542 0 .23-.077.414-.231.55-.148.13-.355.195-.621.195h-3.045a.565.565 0 00-.258.063 1.004 1.004 0 00-.266.177l-1.359 1.181a.572.572 0 00-.159.222.69.69 0 00-.062.284v1.696c0 .1.02.201.062.301a.616.616 0 00.151.222l1.376 1.19c.106.083.198.139.275.169a.676.676 0 00.24.044h3.045c.254 0 .458.071.612.213.16.142.24.326.24.551 0 .224-.08.408-.24.55a.888.888 0 01-.612.213h-3.045c-.255 0-.518-.05-.791-.151a2.168 2.168 0 01-.674-.373l-1.367-1.207a2.372 2.372 0 01-.595-.79 2.208 2.208 0 01-.204-.932v-1.678c0-.32.068-.628.204-.924.136-.302.334-.568.595-.799l1.367-1.198c.183-.16.408-.287.674-.382.273-.101.536-.151.791-.151zm10.044-2.344v5.966l3.942-3.4c.112-.089.21-.151.293-.186a.72.72 0 01.275-.054c.207 0 .382.074.524.222a.717.717 0 01.222.524.781.781 0 01-.08.337c-.054.107-.13.208-.231.302l-3.019 2.619 3.747 3.196c.112.095.195.193.248.293.054.101.08.21.08.329a.752.752 0 01-.213.541.687.687 0 01-.515.222.962.962 0 01-.319-.053 1.023 1.023 0 01-.284-.169l-3.924-3.356-.746.631v2.113c0 .254-.071.458-.213.612a.703.703 0 01-.551.24.702.702 0 01-.55-.24.888.888 0 01-.213-.612v-10.077c0-.26.068-.467.204-.621a.726.726 0 01.559-.231c.219 0 .4.08.542.24.148.16.222.364.222.612zm-24.972 21.148h3.676v10.254h1.474v-3.001c0-.26.068-.464.204-.612a.739.739 0 01.559-.222c.225 0 .408.077.55.231.142.153.214.355.214.603v3.765c0 .224-.08.408-.24.55a.889.889 0 01-.613.213h-5.824c-.254 0-.461-.071-.621-.213a.715.715 0 01-.231-.55c0-.225.08-.409.24-.551a.888.888 0 01.612-.213h2.149v-8.727h-2.149c-.26 0-.467-.068-.621-.204a.726.726 0 01-.231-.559c0-.225.08-.409.24-.551a.888.888 0 01.612-.213zm12.824 1.527v8.727h4.474v-8.727h-4.474zm.159-1.527h4.146c.545 0 .962.145 1.252.435.296.29.444.707.444 1.252v8.407c0 .545-.148.962-.444 1.252-.29.29-.707.435-1.252.435h-4.146c-.544 0-.961-.145-1.251-.435-.29-.29-.435-.707-.435-1.252v-8.407c0-.545.145-.962.435-1.252.29-.29.707-.435 1.251-.435zm15.735 8.967h1.492c.219 0 .399.08.541.239.148.16.222.364.222.613v1.11c0 .254-.071.458-.213.612a.701.701 0 01-.55.24h-1.492a.701.701 0 01-.55-.24.888.888 0 01-.213-.612v-1.11c0-.26.068-.468.204-.621a.726.726 0 01.559-.231zm2.033-6.401l-5.886 7.581a1.028 1.028 0 01-.301.267.754.754 0 01-.356.08.752.752 0 01-.541-.213.727.727 0 01-.169-.799c.036-.095.089-.19.16-.284l5.895-7.564a1.03 1.03 0 01.302-.267.698.698 0 01.355-.097c.201 0 .379.074.533.222.153.148.23.322.23.523 0 .089-.02.181-.062.276-.035.088-.089.18-.16.275zm-6.543-2.566h1.492c.219 0 .399.08.541.24.148.16.222.364.222.612v1.11c0 .261-.071.468-.213.622a.699.699 0 01-.55.23h-1.492a.705.705 0 01-.55-.239.889.889 0 01-.213-.613v-1.11c0-.26.068-.467.204-.621a.726.726 0 01.559-.231z" fill="url(#paint9_linear_2710_96845)"/><path d="M73.804 157.17c.255 0 .459.071.613.213.16.142.24.326.24.551 0 .219-.08.402-.24.55a.888.888 0 01-.613.213h-2.148v8.727h2.148c.255 0 .459.071.613.213.16.142.24.326.24.551 0 .224-.08.408-.24.55a.888.888 0 01-.613.213H67.98c-.254 0-.461-.071-.621-.213a.715.715 0 01-.231-.55c0-.225.08-.409.24-.551a.888.888 0 01.612-.213h2.149v-8.727H67.98c-.254 0-.461-.071-.621-.213a.715.715 0 01-.231-.55c0-.225.08-.409.24-.551a.888.888 0 01.612-.213h5.824zm4.927 0h1.89l1.874 2.655 1.873-2.655h1.891v10.929c0 .254-.07.458-.213.612a.702.702 0 01-.55.24.702.702 0 01-.55-.24.888.888 0 01-.214-.612v-8.763l-1.473 2.033v.329c0 .254-.071.461-.213.621a.715.715 0 01-.55.231.702.702 0 01-.551-.24.886.886 0 01-.213-.612v-.329l-1.474-2.033v8.763c0 .254-.071.458-.213.612a.702.702 0 01-.55.24.702.702 0 01-.551-.24.887.887 0 01-.213-.612V157.17zm13.13.852v.95l2.237 2.797 2.237-2.797v-.95c0-.248.071-.452.213-.612a.702.702 0 01.55-.24.7.7 0 01.551.24c.142.154.213.358.213.612v1.474l-3 3.782v4.821c0 .254-.071.458-.213.612a.702.702 0 01-.55.24.702.702 0 01-.551-.24.887.887 0 01-.213-.612v-4.821l-3.001-3.782v-1.474c0-.26.068-.467.204-.621a.725.725 0 01.56-.231.69.69 0 01.54.24c.149.16.223.364.223.612zm13.84 2.637l-1.234 4.199h2.45l-1.216-4.199zm.817-2.637l2.876 9.881c.018.054.03.107.036.16a.698.698 0 01-.204.666.717.717 0 01-.524.222.727.727 0 01-.48-.178.88.88 0 01-.284-.452l-.568-1.936h-3.329l-.577 1.927c-.071.219-.172.379-.302.479a.707.707 0 01-.479.16.706.706 0 01-.515-.222.692.692 0 01-.213-.506c0-.089.003-.154.009-.195a.746.746 0 01.026-.133l2.877-9.873c.088-.319.195-.541.319-.665a.712.712 0 01.515-.187c.207 0 .373.059.497.178.125.118.231.343.32.674zm-39.39 21.148h6.676c.255 0 .459.071.613.213.16.142.24.326.24.551 0 .219-.08.402-.24.55a.888.888 0 01-.613.213h-5.15v2.326h3.659c.248 0 .45.071.603.213a.716.716 0 01.231.551c0 .224-.08.408-.24.55a.843.843 0 01-.594.213h-3.658v5.549c0 .254-.071.458-.213.612a.702.702 0 01-.55.24.702.702 0 01-.551-.24.888.888 0 01-.213-.612V179.17zm15.367 3.489l-1.234 4.199h2.45l-1.216-4.199zm.817-2.637l2.876 9.881c.018.054.03.107.036.16a.698.698 0 01-.204.666.716.716 0 01-.524.222.727.727 0 01-.48-.178.875.875 0 01-.284-.452l-.568-1.936h-3.329l-.577 1.927c-.071.219-.172.379-.302.479a.709.709 0 01-.48.16.706.706 0 01-.514-.222.692.692 0 01-.213-.506c0-.089.003-.154.008-.195a.857.857 0 01.027-.133l2.877-9.873c.088-.319.195-.541.32-.665a.712.712 0 01.514-.187c.207 0 .373.059.497.178.125.118.231.343.32.674zm7.022-.852h1.89l1.874 2.655 1.873-2.655h1.891v10.929c0 .254-.07.458-.213.612a.702.702 0 01-.55.24.702.702 0 01-.55-.24.887.887 0 01-.214-.612v-8.763l-1.473 2.033v.329c0 .254-.071.461-.213.621a.715.715 0 01-.55.231.702.702 0 01-.551-.24.886.886 0 01-.213-.612v-.329l-1.474-2.033v8.763c0 .254-.071.458-.213.612a.702.702 0 01-.55.24.702.702 0 01-.551-.24.887.887 0 01-.213-.612V179.17zm18.279 0c.255 0 .459.071.613.213a.706.706 0 01.239.551c0 .219-.08.402-.239.55a.889.889 0 01-.613.213h-2.148v8.727h2.148c.255 0 .459.071.613.213a.706.706 0 01.239.551c0 .224-.08.408-.239.55a.889.889 0 01-.613.213h-5.824c-.254 0-.462-.071-.621-.213a.715.715 0 01-.231-.55c0-.225.08-.409.24-.551a.886.886 0 01.612-.213h2.149v-8.727h-2.149c-.254 0-.462-.071-.621-.213a.715.715 0 01-.231-.55c0-.225.08-.409.24-.551a.886.886 0 01.612-.213h5.824zm6.454.852v9.402h5.149c.254 0 .459.071.613.213a.706.706 0 01.239.551c0 .224-.08.408-.239.55a.889.889 0 01-.613.213h-6.676v-10.929c0-.26.068-.467.204-.621a.726.726 0 01.559-.231c.219 0 .4.08.542.24.148.16.222.364.222.612zm16.752-.852c.254 0 .459.071.613.213a.706.706 0 01.239.551c0 .219-.08.402-.239.55a.889.889 0 01-.613.213h-2.148v8.727h2.148c.254 0 .459.071.613.213a.706.706 0 01.239.551c0 .224-.08.408-.239.55a.889.889 0 01-.613.213h-5.824c-.254 0-.462-.071-.621-.213a.715.715 0 01-.231-.55c0-.225.08-.409.24-.551a.886.886 0 01.612-.213h2.149v-8.727h-2.149c-.254 0-.462-.071-.621-.213a.715.715 0 01-.231-.55c0-.225.08-.409.24-.551a.886.886 0 01.612-.213h5.824zm6.454.852v.95l2.237 2.797 2.237-2.797v-.95c0-.248.071-.452.213-.612a.703.703 0 01.551-.24c.225 0 .408.08.55.24.142.154.213.358.213.612v1.474l-3 3.782v4.821c0 .254-.072.458-.214.612a.701.701 0 01-.55.24.701.701 0 01-.55-.24.888.888 0 01-.213-.612v-4.821l-3.001-3.782v-1.474c0-.26.068-.467.204-.621a.724.724 0 01.559-.231c.219 0 .4.08.542.24.148.16.222.364.222.612zm13.84 2.637l-1.234 4.199h2.45l-1.216-4.199zm.817-2.637l2.876 9.881c.018.054.03.107.036.16a.701.701 0 01-.204.666.717.717 0 01-.524.222.727.727 0 01-.48-.178.874.874 0 01-.284-.452l-.568-1.936h-3.329l-.577 1.927c-.071.219-.172.379-.302.479a.707.707 0 01-.479.16.706.706 0 01-.515-.222.692.692 0 01-.213-.506c0-.089.003-.154.008-.195a.845.845 0 01.027-.133l2.876-9.873c.089-.319.196-.541.32-.665a.712.712 0 01.515-.187c.207 0 .373.059.497.178.124.118.231.343.32.674z" fill="url(#paint10_linear_2710_96845)"/><defs><linearGradient id="paint0_linear_2710_96845" x1="260.305" y1="-2.078" x2="-241.903" y2="545.263" gradientUnits="userSpaceOnUse"><stop offset=".335" stop-color="#EBF2F9"/><stop offset="1" stop-color="#C6D7EB"/></linearGradient><linearGradient id="paint1_linear_2710_96845" x1="218.934" y1="205.682" x2="-37.435" y2="282.64" gradientUnits="userSpaceOnUse"><stop offset=".263" stop-color="#fff"/><stop offset=".507" stop-color="#DBE6F2" stop-opacity="0"/><stop offset="1" stop-color="#8F9FAE"/></linearGradient><linearGradient id="paint2_linear_2710_96845" x1="260.305" y1="-2.078" x2="-241.903" y2="545.263" gradientUnits="userSpaceOnUse"><stop offset=".335" stop-color="#EBF2F9"/><stop offset="1" stop-color="#C6D7EB"/></linearGradient><linearGradient id="paint3_linear_2710_96845" x1="218.934" y1="205.682" x2="-37.435" y2="282.64" gradientUnits="userSpaceOnUse"><stop offset=".263" stop-color="#fff"/><stop offset=".507" stop-color="#DBE6F2" stop-opacity="0"/><stop offset="1" stop-color="#8F9FAE"/></linearGradient><linearGradient id="paint4_linear_2710_96845" x1="100.61" y1="88.412" x2="121.304" y2="162.1" gradientUnits="userSpaceOnUse"><stop stop-color="#FFCB05" stop-opacity="0"/><stop offset="1" stop-color="#FFA200"/></linearGradient><linearGradient id="paint5_linear_2710_96845" x1="37.999" y1="73.639" x2="101.99" y2="12.481" gradientUnits="userSpaceOnUse"><stop offset=".263" stop-color="#FFE583"/><stop offset=".507" stop-color="#FFCB05"/><stop offset="1" stop-color="#FFB101"/></linearGradient><linearGradient id="paint6_linear_2710_96845" x1="318.95" y1="89.187" x2="307.777" y2="136.562" gradientUnits="userSpaceOnUse"><stop offset=".15" stop-color="#fff"/><stop offset="1" stop-color="#37536F" stop-opacity=".4"/></linearGradient><linearGradient id="paint7_linear_2710_96845" x1="337.273" y1="79.362" x2="277.385" y2="45.396" gradientUnits="userSpaceOnUse"><stop stop-color="#48647D"/><stop offset=".234" stop-color="#6B8299"/><stop offset=".443" stop-color="#DAE2EB"/><stop offset=".682" stop-color="#8CA2B7"/><stop offset="1" stop-color="#EDF2F7"/></linearGradient><linearGradient id="paint8_linear_2710_96845" x1="182.244" y1="70.903" x2="-192.417" y2="11.935" gradientUnits="userSpaceOnUse"><stop stop-color="#202F45"/><stop offset="1" stop-color="#6E8BB3" stop-opacity="0"/></linearGradient><linearGradient id="paint9_linear_2710_96845" x1="326.181" y1="198.187" x2="91.879" y2="128.842" gradientUnits="userSpaceOnUse"><stop stop-color="#202E43"/><stop offset="1" stop-color="#9BABC0" stop-opacity=".4"/></linearGradient><linearGradient id="paint10_linear_2710_96845" x1="269.818" y1="198.187" x2="-114.83" y2="-38.986" gradientUnits="userSpaceOnUse"><stop stop-color="#202E43"/><stop offset=".777" stop-color="#9BABC0" stop-opacity=".4"/></linearGradient><filter id="filter0_d_2710_96845" x="4.364" y="0" width="365.455" height="254.545" filterUnits="userSpaceOnUse" color-interpolation-filters="sRGB"><feFlood flood-opacity="0" result="BackgroundImageFix"/><feColorMatrix in="SourceAlpha" values="0 0 0 0 0 0 0 0 0 0 0 0 0 0 0 0 0 0 127 0" result="hardAlpha"/><feOffset dx="-5.455" dy="7.273"/><feGaussianBlur stdDeviation="13.636"/><feColorMatrix values="0 0 0 0 0.0705882 0 0 0 0 0.239216 0 0 0 0 0.396078 0 0 0 0.2 0"/><feBlend in2="BackgroundImageFix" result="effect1_dropShadow_2710_96845"/><feBlend in="SourceGraphic" in2="effect1_dropShadow_2710_96845" result="shape"/></filter><filter id="filter1_dd_2710_96845" x=".726" y="79.094" width="254.545" height="83.636" filterUnits="userSpaceOnUse" color-interpolation-filters="sRGB"><feFlood flood-opacity="0" result="BackgroundImageFix"/><feColorMatrix in="SourceAlpha" values="0 0 0 0 0 0 0 0 0 0 0 0 0 0 0 0 0 0 127 0" result="hardAlpha"/><feOffset dy="1.818"/><feGaussianBlur stdDeviation="1.818"/><feColorMatrix values="0 0 0 0 0 0 0 0 0 0.027451 0 0 0 0 0.482353 0 0 0 0.04 0"/><feBlend in2="BackgroundImageFix" result="effect1_dropShadow_2710_96845"/><feColorMatrix in="SourceAlpha" values="0 0 0 0 0 0 0 0 0 0 0 0 0 0 0 0 0 0 127 0" result="hardAlpha"/><feOffset dy="7.273"/><feGaussianBlur stdDeviation="13.636"/><feColorMatrix values="0 0 0 0 0.0297049 0 0 0 0 0.159612 0 0 0 0 0.245833 0 0 0 0.26 0"/><feBlend in2="effect1_dropShadow_2710_96845" result="effect2_dropShadow_2710_96845"/><feBlend in="SourceGraphic" in2="effect2_dropShadow_2710_96845" result="shape"/></filter><filter id="filter2_dd_2710_96845" x="246.1" y="4.271" width="103.687" height="112.626" filterUnits="userSpaceOnUse" color-interpolation-filters="sRGB"><feFlood flood-opacity="0" result="BackgroundImageFix"/><feColorMatrix in="SourceAlpha" values="0 0 0 0 0 0 0 0 0 0 0 0 0 0 0 0 0 0 127 0" result="hardAlpha"/><feOffset dx="3.575" dy="3.575"/><feGaussianBlur stdDeviation="6.257"/><feColorMatrix values="0 0 0 0 0.534167 0 0 0 0 0.645967 0 0 0 0 0.749167 0 0 0 0.6 0"/><feBlend in2="BackgroundImageFix" result="effect1_dropShadow_2710_96845"/><feColorMatrix in="SourceAlpha" values="0 0 0 0 0 0 0 0 0 0 0 0 0 0 0 0 0 0 127 0" result="hardAlpha"/><feOffset dx="-10.726" dy="-5.363"/><feGaussianBlur stdDeviation="16.089"/><feColorMatrix values="0 0 0 0 1 0 0 0 0 1 0 0 0 0 1 0 0 0 1 0"/><feBlend in2="effect1_dropShadow_2710_96845" result="effect2_dropShadow_2710_96845"/><feBlend in="SourceGraphic" in2="effect2_dropShadow_2710_96845" result="shape"/></filter></defs></svg>