<svg width="290" height="197" viewBox="0 0 290 197" fill="none" xmlns="http://www.w3.org/2000/svg">
<g filter="url(#filter0_d_2710_96674)">
<rect x="25" y="169.383" width="154.386" height="240" rx="16.5598" transform="rotate(-90 25 169.383)" fill="url(#paint0_linear_2710_96674)"/>
<rect x="25.345" y="169.038" width="153.696" height="239.31" rx="16.2148" transform="rotate(-90 25.345 169.038)" stroke="url(#paint1_linear_2710_96674)" stroke-width="0.689993"/>
</g>
<mask id="mask0_2710_96674" style="mask-type:alpha" maskUnits="userSpaceOnUse" x="25" y="14" width="240" height="156">
<rect x="25.345" y="169.038" width="153.696" height="239.31" rx="16.2148" transform="rotate(-90 25.345 169.038)" fill="url(#paint2_linear_2710_96674)" stroke="url(#paint3_linear_2710_96674)" stroke-width="0.689993"/>
</mask>
<g mask="url(#mask0_2710_96674)">
<g opacity="0.2">
<path d="M137.877 201.828C137.877 201.828 167.081 218.731 202.448 201.658C237.816 184.585 242.186 155.205 243.667 142.396C245.144 129.584 240.716 110.128 231.907 105.24C223.101 100.348 220.308 108.546 220.571 111.691C220.835 114.836 227.639 126.246 230.05 137.408C232.46 148.567 230.957 168.1 217.301 183.967C203.646 199.831 173.972 214.364 138.659 200.156L137.877 201.828Z" fill="#0071BC"/>
<path d="M158.756 200.922C158.756 200.922 180.709 205.878 205.571 187.544C230.437 169.214 228.268 133.964 220.376 132.128C213.492 130.527 211.78 136.421 212.517 140.785C213.25 145.149 215.61 154.938 213.659 162.83C211.702 170.722 197.483 201.15 158.756 200.922Z" fill="#0071BC"/>
<path d="M173.359 194.899C173.359 194.899 184.621 193.799 197.704 181.386C210.787 168.973 205.682 153.932 199.435 153.199C193.191 152.469 193.404 157.949 193.954 161.219C194.504 164.49 197.855 170.68 192.425 180.071C186.996 189.461 177.801 192.815 173.359 194.899Z" fill="#0071BC"/>
<path d="M109.348 210.445C109.348 210.445 112.174 198.495 117.777 190.455C117.777 190.455 128.356 198.237 145.153 205.145C145.153 205.145 143.454 184.827 114.774 169.941C114.774 169.941 106.548 142.854 127.471 135.415C137.683 131.785 152.852 134.055 169.417 131.386C163.514 127.636 154.709 120.159 153.051 108.203C144.529 107.932 111.121 109.145 106.616 144.359C106.616 144.359 104.598 105.138 152.781 104.588C152.713 99.5487 153.891 93.8019 156.939 87.3123C156.939 87.3123 145.716 115.544 175.043 130.28C190.819 126.61 207.465 117.535 222.061 94.1203C222.061 94.1203 194.389 61.3217 153.611 71.3648C112.837 81.4176 81.0869 124.558 106.899 173.549C106.899 173.549 97.6329 192.317 109.348 210.445ZM179.68 97.4423C177.148 95.1912 176.971 91.3643 179.294 88.9009C181.618 86.4376 185.554 86.2704 188.09 88.5247C190.63 90.779 190.8 94.6059 188.476 97.066C186.162 99.5294 182.22 99.6966 179.68 97.4423Z" fill="#0071BC"/>
<path d="M122.438 84.4036C122.438 84.4036 105.567 95.4437 97.8332 119.434C97.8332 119.434 91.4092 97.8106 101.843 82.0078L122.438 84.4036Z" fill="#0071BC"/>
<path d="M158.228 135.195L136.819 135.774L131.109 147.091C131.113 147.091 143.362 150.426 158.228 135.195Z" fill="#0071BC"/>
</g>
</g>
<g filter="url(#filter1_dd_2710_96674)">
<rect x="17.9824" y="76.0547" width="154.386" height="22.4561" rx="7.01754" fill="#FFCB05"/>
<rect x="17.9824" y="76.0547" width="154.386" height="22.4561" rx="7.01754" fill="url(#paint4_linear_2710_96674)"/>
<rect x="18.3274" y="76.3997" width="153.696" height="21.7661" rx="6.67255" stroke="url(#paint5_linear_2710_96674)" stroke-width="0.689993"/>
</g>
<path d="M36.0811 89.6903V85.1513H37.3485V89.6903H36.0811ZM34.3815 88.0201V86.8215H39.0579V88.0201H34.3815ZM47.7412 90.8594L45.5995 87.5485L46.8865 86.7724L49.549 90.8594H47.7412ZM43.2711 90.8594V83.9822H44.8528V90.8594H43.2711ZM44.3911 88.0888V86.7625H46.7883V88.0888H44.3911ZM47.0339 87.5976L45.57 87.4208L47.8002 83.9822H49.4802L47.0339 87.5976ZM51.0936 88.7176V87.6664H53.8543V88.7176H51.0936ZM51.8304 85.4755C52.4068 85.4755 52.9177 85.5934 53.363 85.8292C53.8084 86.0584 54.1588 86.3794 54.4143 86.792C54.6697 87.2046 54.7974 87.6795 54.7974 88.2166C54.7974 88.7471 54.6697 89.2219 54.4143 89.6411C54.1588 90.0538 53.8084 90.378 53.363 90.6138C52.9177 90.843 52.4068 90.9576 51.8304 90.9576C51.3261 90.9576 50.8676 90.8757 50.455 90.712C50.0489 90.5417 49.7116 90.2994 49.443 89.985L50.3174 89.1597C50.5139 89.3562 50.7301 89.5101 50.9659 89.6215C51.2082 89.7263 51.4767 89.7787 51.7715 89.7787C52.0924 89.7787 52.3708 89.7132 52.6066 89.5822C52.8489 89.4512 53.0388 89.2678 53.1764 89.032C53.3139 88.7962 53.3827 88.5244 53.3827 88.2166C53.3827 87.9022 53.3139 87.6271 53.1764 87.3913C53.0388 87.1555 52.8489 86.9721 52.6066 86.8411C52.3708 86.7101 52.0924 86.6446 51.7715 86.6446C51.4767 86.6446 51.2082 86.7003 50.9659 86.8117C50.7301 86.9165 50.5139 87.0704 50.3174 87.2734L49.443 86.458C49.7116 86.137 50.0489 85.8947 50.455 85.731C50.8676 85.5607 51.3261 85.4755 51.8304 85.4755ZM59.4429 89.6018L59.1089 89.9555V85.5738H60.6415V89.9555L60.2878 89.6018H62.7243L62.3805 89.9555V85.5738H63.9033V90.8594H55.8373V85.5738H57.3601V89.9555L57.0162 89.6018H59.4429ZM67.9972 90.9773C67.5649 90.9773 67.1719 90.915 66.8182 90.7906C66.4646 90.6596 66.1567 90.4598 65.8947 90.1913C65.6393 89.9162 65.4395 89.5658 65.2954 89.1401C65.1579 88.7143 65.0891 88.2067 65.0891 87.6173C65.0891 87.1981 65.1251 86.8149 65.1972 86.4678C65.2692 86.1207 65.3773 85.8063 65.5214 85.5246C65.6655 85.2365 65.8489 84.9843 66.0716 84.7681C66.3008 84.5455 66.5661 84.3621 66.8674 84.218C67.1752 84.0673 67.5223 83.9527 67.9088 83.8741L70.4239 83.3731L70.6302 84.6895L68.4098 85.1317C68.2788 85.1579 68.1282 85.1939 67.9579 85.2397C67.7942 85.279 67.6271 85.3412 67.4568 85.4264C67.2931 85.5115 67.1392 85.6327 66.9951 85.7899C66.8575 85.9405 66.7462 86.1403 66.6611 86.3892C66.5759 86.6315 66.5333 86.9328 66.5333 87.2931C66.5333 87.4044 66.5366 87.4896 66.5432 87.5485C66.5563 87.6074 66.5661 87.6697 66.5726 87.7352C66.5857 87.8007 66.5923 87.9022 66.5923 88.0397L66.1011 87.5583C66.2451 87.2505 66.4285 86.9885 66.6512 86.7724C66.8805 86.5562 67.1425 86.3925 67.4372 86.2811C67.7385 86.1632 68.0725 86.1043 68.4393 86.1043C68.9371 86.1043 69.3726 86.2058 69.746 86.4088C70.1258 86.6053 70.4206 86.8837 70.6302 87.2439C70.8398 87.6042 70.9446 88.0135 70.9446 88.472C70.9446 88.9698 70.8201 89.4086 70.5712 89.7885C70.3223 90.1618 69.9752 90.4533 69.5298 90.6629C69.091 90.8725 68.5801 90.9773 67.9972 90.9773ZM68.0758 89.7885C68.3312 89.7885 68.5572 89.7328 68.7537 89.6215C68.9502 89.5036 69.1008 89.3497 69.2056 89.1597C69.317 88.9632 69.3726 88.7438 69.3726 88.5015C69.3726 88.2657 69.317 88.0561 69.2056 87.8727C69.1008 87.6893 68.9502 87.5452 68.7537 87.4404C68.5572 87.3356 68.328 87.2832 68.066 87.2832C67.8105 87.2832 67.5813 87.3356 67.3782 87.4404C67.1752 87.5387 67.018 87.6762 66.9067 87.8531C66.7953 88.0299 66.7396 88.2362 66.7396 88.472C66.7396 88.7143 66.7953 88.937 66.9067 89.1401C67.0246 89.3366 67.1818 89.4938 67.3782 89.6117C67.5813 89.7296 67.8138 89.7885 68.0758 89.7885ZM72.9398 88.7176V87.6664H75.7005V88.7176H72.9398ZM73.6766 85.4755C74.253 85.4755 74.7639 85.5934 75.2093 85.8292C75.6546 86.0584 76.0051 86.3794 76.2605 86.792C76.5159 87.2046 76.6436 87.6795 76.6436 88.2166C76.6436 88.7471 76.5159 89.2219 76.2605 89.6411C76.0051 90.0538 75.6546 90.378 75.2093 90.6138C74.7639 90.843 74.253 90.9576 73.6766 90.9576C73.1723 90.9576 72.7138 90.8757 72.3012 90.712C71.8951 90.5417 71.5578 90.2994 71.2893 89.985L72.1636 89.1597C72.3601 89.3562 72.5763 89.5101 72.8121 89.6215C73.0544 89.7263 73.3229 89.7787 73.6177 89.7787C73.9386 89.7787 74.217 89.7132 74.4528 89.5822C74.6951 89.4512 74.8851 89.2678 75.0226 89.032C75.1601 88.7962 75.2289 88.5244 75.2289 88.2166C75.2289 87.9022 75.1601 87.6271 75.0226 87.3913C74.8851 87.1555 74.6951 86.9721 74.4528 86.8411C74.217 86.7101 73.9386 86.6446 73.6177 86.6446C73.3229 86.6446 73.0544 86.7003 72.8121 86.8117C72.5763 86.9165 72.3601 87.0704 72.1636 87.2734L71.2893 86.458C71.5578 86.137 71.8951 85.8947 72.3012 85.731C72.7138 85.5607 73.1723 85.4755 73.6766 85.4755ZM81.4267 90.8594L79.6583 88.3541L80.906 87.6173L83.2344 90.8594H81.4267ZM77.6835 90.8594V85.5738H79.2161V90.8594H77.6835ZM78.7642 88.8552V87.6271H80.6112V88.8552H78.7642ZM81.0533 88.3934L79.619 88.2362L81.4758 85.5738H83.1067L81.0533 88.3934ZM89.1763 90.9183C88.6524 90.9183 88.1873 90.8037 87.7813 90.5745C87.3752 90.3452 87.0542 90.0308 86.8184 89.6313C86.5827 89.2252 86.4648 88.7667 86.4648 88.2559C86.4648 87.7384 86.5827 87.28 86.8184 86.8804C87.0542 86.4809 87.3752 86.1698 87.7813 85.9471C88.1873 85.7179 88.6524 85.6032 89.1763 85.6032C89.6938 85.6032 90.1555 85.7179 90.5616 85.9471C90.9742 86.1698 91.2952 86.4809 91.5244 86.8804C91.7602 87.2734 91.8781 87.7319 91.8781 88.2559C91.8781 88.7733 91.7602 89.2318 91.5244 89.6313C91.2952 90.0308 90.9742 90.3452 90.5616 90.5745C90.1555 90.8037 89.6938 90.9183 89.1763 90.9183ZM89.1763 90.0931C89.5104 90.0931 89.8084 90.0177 90.0704 89.8671C90.3389 89.7165 90.5485 89.5036 90.6991 89.2285C90.8498 88.9469 90.9251 88.6226 90.9251 88.2559C90.9251 87.8825 90.8498 87.5616 90.6991 87.2931C90.5485 87.018 90.3389 86.8051 90.0704 86.6545C89.8084 86.5038 89.5104 86.4285 89.1763 86.4285C88.8423 86.4285 88.5443 86.5038 88.2823 86.6545C88.0203 86.8051 87.8107 87.018 87.6535 87.2931C87.4963 87.5616 87.4177 87.8825 87.4177 88.2559C87.4177 88.6226 87.4963 88.9469 87.6535 89.2285C87.8107 89.5036 88.0203 89.7165 88.2823 89.8671C88.5443 90.0177 88.8423 90.0931 89.1763 90.0931ZM94.0797 90.8594V86.232L94.3155 86.4776H92.1738V85.6524H96.9288V86.4776H94.7969L95.0229 86.232V90.8594H94.0797ZM101.701 87.7646V86.959H105.385V87.7646H101.701ZM102.585 83.9036C103.083 83.9036 103.541 83.992 103.96 84.1688C104.38 84.3391 104.743 84.5848 105.051 84.9057C105.365 85.2201 105.608 85.5901 105.778 86.0159C105.955 86.4416 106.043 86.9099 106.043 87.4208C106.043 87.9317 105.955 88.4 105.778 88.8257C105.608 89.2514 105.365 89.6248 105.051 89.9457C104.743 90.2601 104.38 90.5057 103.96 90.6825C103.541 90.8528 103.083 90.938 102.585 90.938C102.035 90.938 101.527 90.8463 101.062 90.6629C100.604 90.4795 100.217 90.211 99.9029 89.8573L100.522 89.2383C100.797 89.52 101.102 89.7263 101.436 89.8573C101.776 89.9883 102.143 90.0538 102.536 90.0538C102.896 90.0538 103.23 89.9883 103.538 89.8573C103.846 89.7263 104.111 89.5462 104.334 89.3169C104.563 89.0811 104.74 88.8028 104.864 88.4818C104.989 88.1543 105.051 87.8007 105.051 87.4208C105.051 87.0409 104.989 86.6905 104.864 86.3695C104.74 86.0421 104.563 85.7637 104.334 85.5345C104.111 85.2987 103.846 85.1153 103.538 84.9843C103.23 84.8533 102.896 84.7878 102.536 84.7878C102.143 84.7878 101.776 84.8533 101.436 84.9843C101.102 85.1153 100.797 85.3216 100.522 85.6032L99.9029 84.9843C100.217 84.6306 100.604 84.3621 101.062 84.1787C101.527 83.9953 102.035 83.9036 102.585 83.9036ZM112.263 90.8594L109.767 87.4699L110.563 86.9787L113.383 90.8594H112.263ZM107.635 90.8594V83.9822H108.598V90.8594H107.635ZM108.303 87.8334V86.9688H110.533V87.8334H108.303ZM110.651 87.5288L109.747 87.3913L112.213 83.9822H113.265L110.651 87.5288ZM117.465 90.938C116.941 90.938 116.453 90.8496 116.001 90.6727C115.556 90.4959 115.169 90.2503 114.842 89.9359C114.514 89.6149 114.259 89.2416 114.076 88.8159C113.892 88.3901 113.801 87.9251 113.801 87.4208C113.801 86.9165 113.892 86.4514 114.076 86.0257C114.259 85.6 114.514 85.2299 114.842 84.9155C115.169 84.5946 115.556 84.3457 116.001 84.1688C116.447 83.992 116.935 83.9036 117.465 83.9036C117.989 83.9036 118.47 83.992 118.909 84.1688C119.355 84.3391 119.741 84.5848 120.069 84.9057C120.403 85.2201 120.658 85.5901 120.835 86.0159C121.018 86.4416 121.11 86.9099 121.11 87.4208C121.11 87.9317 121.018 88.4 120.835 88.8257C120.658 89.2514 120.403 89.6248 120.069 89.9457C119.741 90.2601 119.355 90.5057 118.909 90.6825C118.47 90.8528 117.989 90.938 117.465 90.938ZM117.465 90.0636C117.845 90.0636 118.195 89.9981 118.516 89.8671C118.844 89.7361 119.125 89.5527 119.361 89.3169C119.604 89.0746 119.79 88.7929 119.921 88.472C120.059 88.1511 120.128 87.8007 120.128 87.4208C120.128 87.0409 120.059 86.6905 119.921 86.3695C119.79 86.0486 119.604 85.7703 119.361 85.5345C119.125 85.2921 118.844 85.1055 118.516 84.9745C118.195 84.8435 117.845 84.778 117.465 84.778C117.079 84.778 116.722 84.8435 116.394 84.9745C116.073 85.1055 115.792 85.2921 115.549 85.5345C115.307 85.7703 115.117 86.0486 114.979 86.3695C114.848 86.6905 114.783 87.0409 114.783 87.4208C114.783 87.8007 114.848 88.1511 114.979 88.472C115.117 88.7929 115.307 89.0746 115.549 89.3169C115.792 89.5527 116.073 89.7361 116.394 89.8671C116.722 89.9981 117.079 90.0636 117.465 90.0636ZM122.698 90.8594V83.9822H125.38C125.983 83.9822 126.497 84.0772 126.923 84.2671C127.348 84.457 127.676 84.7321 127.905 85.0924C128.134 85.4526 128.249 85.8816 128.249 86.3794C128.249 86.8772 128.134 87.3062 127.905 87.6664C127.676 88.0201 127.348 88.2952 126.923 88.4917C126.497 88.6816 125.983 88.7766 125.38 88.7766H123.239L123.681 88.3148V90.8594H122.698ZM123.681 88.4131L123.239 87.9218H125.351C125.98 87.9218 126.454 87.7876 126.775 87.519C127.103 87.2505 127.267 86.8706 127.267 86.3794C127.267 85.8881 127.103 85.5083 126.775 85.2397C126.454 84.9712 125.98 84.8369 125.351 84.8369H123.239L123.681 84.3457V88.4131ZM133.072 90.3976C132.233 90.3976 131.516 90.283 130.92 90.0538C130.324 89.818 129.869 89.4774 129.554 89.032C129.24 88.5866 129.083 88.0463 129.083 87.411C129.083 86.7756 129.24 86.2353 129.554 85.7899C129.869 85.3445 130.324 85.0039 130.92 84.7681C131.516 84.5324 132.233 84.4145 133.072 84.4145C133.085 84.4145 133.108 84.4145 133.14 84.4145C133.18 84.4145 133.216 84.4145 133.248 84.4145C133.288 84.4145 133.311 84.4145 133.317 84.4145C134.156 84.4145 134.87 84.5324 135.459 84.7681C136.055 85.0039 136.51 85.3445 136.825 85.7899C137.139 86.2353 137.296 86.7756 137.296 87.411C137.296 88.0397 137.139 88.5801 136.825 89.032C136.517 89.4774 136.068 89.818 135.479 90.0538C134.896 90.283 134.188 90.3976 133.357 90.3976C133.343 90.3976 133.314 90.3976 133.268 90.3976C133.229 90.3976 133.19 90.3976 133.15 90.3976C133.111 90.3976 133.085 90.3976 133.072 90.3976ZM133.18 89.6313C133.193 89.6313 133.209 89.6313 133.229 89.6313C133.248 89.6313 133.258 89.6313 133.258 89.6313C133.926 89.6248 134.49 89.5396 134.948 89.3759C135.407 89.2056 135.754 88.9567 135.99 88.6292C136.232 88.2952 136.353 87.8858 136.353 87.4011C136.353 86.923 136.232 86.5202 135.99 86.1927C135.747 85.8652 135.397 85.6163 134.938 85.446C134.486 85.2757 133.933 85.1906 133.278 85.1906C133.271 85.1906 133.255 85.1906 133.229 85.1906C133.209 85.1906 133.193 85.1906 133.18 85.1906C132.505 85.1906 131.932 85.2757 131.46 85.446C130.995 85.6098 130.642 85.8554 130.399 86.1829C130.157 86.5104 130.036 86.9197 130.036 87.411C130.036 87.9022 130.16 88.3115 130.409 88.639C130.658 88.9665 131.015 89.2154 131.48 89.3857C131.952 89.5494 132.518 89.6313 133.18 89.6313ZM132.738 91.1148V83.7267H133.651V91.1148H132.738ZM138.807 90.8594V83.9822H139.78V89.2874L143.847 83.9822H144.751V90.8594H143.788V85.5639L139.711 90.8594H138.807ZM150.953 90.0046L150.727 90.2601V83.9822H151.689V90.2601L151.444 90.0046H154.794L154.548 90.2601V83.9822H155.511V90.8594H146.895V83.9822H147.868V90.2601L147.622 90.0046H150.953Z" fill="#202329"/>
<g opacity="0.6" filter="url(#filter2_dd_2710_96674)">
<rect x="220.15" y="68.4141" width="35.8796" height="28.9797" rx="5.51995" transform="rotate(-90 220.15 68.4141)" fill="#ECF2F9"/>
<rect x="219.805" y="68.7591" width="36.5696" height="29.6697" rx="5.86494" transform="rotate(-90 219.805 68.7591)" stroke="url(#paint6_linear_2710_96674)" stroke-width="0.689993"/>
</g>
<mask id="mask1_2710_96674" style="mask-type:alpha" maskUnits="userSpaceOnUse" x="220" y="32" width="29" height="37">
<rect x="220.461" y="68.1797" width="35.3344" height="28.5393" rx="5.52" transform="rotate(-90 220.461 68.1797)" fill="#E5E9F4"/>
</mask>
<g mask="url(#mask1_2710_96674)">
<path opacity="0.6" d="M205.662 40.125L229.2 40.125M229.2 40.125V47.0815M229.2 40.125L260.862 40.125M229.2 54.038V60.8248M229.2 54.038L205.662 54.038M229.2 54.038V47.0815M229.2 60.8248L205.662 60.8248M229.2 60.8248H237.034M229.2 47.0815H205.662M237.034 60.8248L260.862 60.8248M237.034 60.8248V53.9531M260.862 47.0815H238.015C237.473 47.0815 237.034 47.6892 237.034 48.4389V53.9531M237.034 53.9531H260.862" stroke="url(#paint7_linear_2710_96674)" stroke-width="0.96599" stroke-linejoin="round"/>
</g>
<path d="M61.2868 33.723C62.9573 34.6645 64.2678 35.9705 65.22 37.6409C66.1716 39.3114 66.6474 41.1995 66.6474 43.3053C66.6474 45.4116 66.1716 47.2992 65.22 48.9696C64.2678 50.6401 62.9573 51.9461 61.2868 52.8876C59.6164 53.8291 57.7283 54.2999 55.6225 54.2999C53.7394 54.2999 52.0432 53.9759 50.5352 53.328C49.0267 52.6801 47.7663 51.7385 46.7539 50.5034L49.8822 47.5877C51.3805 49.2688 53.2125 50.1086 55.3795 50.1086C56.9386 50.1086 58.2598 49.653 59.343 48.7418C60.4258 47.8307 61.1299 46.6057 61.4539 45.0669H52.8283V41.3008H61.3931C61.0484 39.8429 60.3402 38.6787 59.2671 37.808C58.1935 36.9378 56.8981 36.502 55.3795 36.502C53.2125 36.502 51.3805 37.3423 49.8822 39.0229L46.7539 36.1072C47.7663 34.8726 49.0267 33.931 50.5352 33.2826C52.0432 32.6347 53.7394 32.3107 55.6225 32.3107C57.7283 32.3107 59.6164 32.7815 61.2868 33.723ZM78.7349 45.3706H75.3333V53.9354H70.4434V32.6752H75.3333V41.2704H78.8564L84.4448 32.6752H89.6384L82.6833 42.9408L89.851 53.9354H84.2626L78.7349 45.3706ZM132.72 33.6167C134.106 34.2444 135.175 35.1353 135.924 36.2894C136.673 37.4435 137.048 38.8103 137.048 40.3896C137.048 41.9492 136.673 43.3104 135.924 44.4746C135.175 45.6394 134.106 46.5298 132.72 47.1473C131.333 47.7654 129.698 48.0737 127.815 48.0737H123.532V53.9354H118.612V32.6752H127.815C129.698 32.6752 131.332 32.989 132.72 33.6167ZM130.913 43.1079C131.682 42.4701 132.067 41.564 132.067 40.3896C132.067 39.195 131.682 38.2788 130.913 37.6409C130.143 37.0031 129.019 36.6842 127.541 36.6842H123.532V44.0646H127.541C129.019 44.0646 130.143 43.7457 130.913 43.1079ZM98.7176 52.6801C98.7176 52.6801 103.311 55.3406 108.873 52.6532C114.436 49.9658 115.123 45.3412 115.356 43.325C115.589 41.3083 114.892 38.2459 113.507 37.4764C112.122 36.7065 111.682 37.9968 111.724 38.4919C111.765 38.9869 112.835 40.7829 113.215 42.5399C113.594 44.2964 113.357 47.3711 111.209 49.8686C109.062 52.3657 104.395 54.6532 98.8406 52.4168L98.7176 52.6801ZM102.001 52.5383C102.001 52.5383 105.454 53.3184 109.364 50.4325C113.275 47.5472 112.934 41.9988 111.693 41.7098C110.61 41.4577 110.341 42.3855 110.457 43.0724C110.572 43.7594 110.943 45.3002 110.636 46.5424C110.329 47.7846 108.092 52.5743 102.001 52.5383ZM104.298 51.5902C104.298 51.5902 106.07 51.4171 108.127 49.4632C110.185 47.5093 109.382 45.1418 108.4 45.0264C107.418 44.9115 107.451 45.774 107.538 46.2888C107.624 46.8036 108.151 47.778 107.297 49.2561C106.443 50.7342 104.996 51.2622 104.298 51.5902ZM94.2301 54.0367C94.2301 54.0367 94.6746 52.1556 95.5559 50.8901C95.5559 50.8901 97.2197 52.1151 99.8616 53.2025C99.8616 53.2025 99.5943 50.0043 95.0836 47.6611C95.0836 47.6611 93.7897 43.3974 97.0805 42.2266C98.6867 41.6551 101.072 42.0125 103.678 41.5923C102.749 41.0021 101.364 39.8252 101.104 37.9431C99.7634 37.9006 94.509 38.0915 93.8004 43.6343C93.8004 43.6343 93.483 37.4607 101.061 37.3742C101.051 36.581 101.236 35.6764 101.715 34.6549C101.715 34.6549 99.9501 39.0988 104.563 41.4182C107.044 40.8406 109.662 39.4121 111.958 35.7265C111.958 35.7265 107.605 30.5638 101.192 32.1447C94.7793 33.727 89.7857 40.5177 93.8454 48.2291C93.8454 48.2291 92.3881 51.1832 94.2301 54.0367ZM105.293 36.2494C104.894 35.8951 104.866 35.2927 105.232 34.905C105.597 34.5172 106.216 34.4909 106.615 34.8457C107.015 35.2006 107.041 35.8029 106.676 36.1902C106.312 36.5779 105.692 36.6043 105.293 36.2494ZM93.0502 33.8202C91.4096 36.3076 92.4195 39.7113 92.4195 39.7113C93.6358 35.9351 96.2893 34.1973 96.2893 34.1973L93.0502 33.8202ZM101.918 42.1917L98.551 42.2828L97.653 44.0641C97.6535 44.0641 99.5801 44.589 101.918 42.1917Z" fill="url(#paint8_linear_2710_96674)"/>
<path d="M192.301 130.12C192.009 130.12 191.755 130.049 191.539 129.906C191.327 129.764 191.144 129.539 190.991 129.232L190.015 127.291C189.957 127.178 189.913 127.055 189.883 126.924C189.858 126.792 189.845 126.65 189.845 126.496C189.845 126.335 189.858 126.185 189.883 126.046C189.913 125.908 189.957 125.783 190.015 125.674L190.991 123.733C191.137 123.43 191.318 123.207 191.534 123.064C191.749 122.918 192.005 122.845 192.301 122.845H193.968C194.125 122.845 194.251 122.889 194.346 122.976C194.445 123.064 194.494 123.177 194.494 123.316C194.494 123.451 194.445 123.565 194.346 123.656C194.247 123.744 194.121 123.788 193.968 123.788H192.301C192.21 123.788 192.124 123.813 192.044 123.864C191.963 123.916 191.899 123.987 191.852 124.078L190.887 126.035C190.858 126.101 190.836 126.171 190.821 126.244C190.806 126.317 190.799 126.396 190.799 126.48C190.799 126.567 190.806 126.648 190.821 126.721C190.836 126.794 190.858 126.863 190.887 126.929L191.852 128.875C191.899 128.967 191.963 129.04 192.044 129.095C192.124 129.15 192.21 129.177 192.301 129.177H193.968C194.125 129.177 194.251 129.221 194.346 129.309C194.445 129.396 194.494 129.51 194.494 129.648C194.494 129.787 194.445 129.901 194.346 129.988C194.247 130.076 194.121 130.12 193.968 130.12H192.301ZM198.74 127.741C198.623 127.741 198.519 127.786 198.427 127.878C198.336 127.969 198.29 128.077 198.29 128.201V128.727C198.29 128.848 198.334 128.954 198.422 129.045C198.513 129.133 198.623 129.177 198.751 129.177H200.006L201.021 128.607L201.01 128.19C201.01 128.062 200.964 127.956 200.872 127.872C200.781 127.784 200.673 127.741 200.549 127.741H198.74ZM198.795 124.818H200.467C200.847 124.818 201.172 124.95 201.443 125.213C201.713 125.476 201.856 125.809 201.87 126.211L201.996 129.583V129.605C201.996 129.751 201.951 129.873 201.859 129.972C201.772 130.071 201.664 130.12 201.536 130.12C201.404 130.12 201.296 130.078 201.212 129.994C201.128 129.913 201.075 129.798 201.053 129.648L200.505 129.994C200.447 130.03 200.377 130.06 200.297 130.082C200.22 130.107 200.151 130.12 200.089 130.12H198.751C198.363 130.12 198.033 129.983 197.758 129.709C197.484 129.438 197.347 129.111 197.347 128.727V128.201C197.347 127.817 197.486 127.488 197.764 127.214C198.042 126.936 198.371 126.798 198.751 126.798H200.549C200.626 126.798 200.697 126.805 200.763 126.819C200.832 126.83 200.898 126.849 200.96 126.874L200.927 126.211C200.92 126.076 200.874 125.968 200.79 125.887C200.706 125.803 200.598 125.761 200.467 125.761H198.795C198.637 125.761 198.513 125.719 198.422 125.635C198.334 125.551 198.29 125.436 198.29 125.29C198.29 125.151 198.336 125.038 198.427 124.95C198.522 124.862 198.645 124.818 198.795 124.818ZM206.165 124.818H208.161C208.468 124.818 208.747 124.913 209 125.103C209.256 125.294 209.383 125.487 209.383 125.685C209.383 125.816 209.336 125.928 209.241 126.019C209.15 126.11 209.04 126.156 208.912 126.156C208.795 126.156 208.669 126.09 208.534 125.959C208.402 125.827 208.274 125.761 208.15 125.761H206.165C206.085 125.761 206.019 125.789 205.968 125.844C205.917 125.895 205.891 125.966 205.891 126.057C205.891 126.098 205.908 126.14 205.94 126.184C205.973 126.227 206.014 126.26 206.061 126.282L208.61 127.368C208.881 127.488 209.095 127.667 209.252 127.905C209.409 128.139 209.488 128.402 209.488 128.694C209.488 129.086 209.347 129.42 209.065 129.698C208.784 129.979 208.45 130.12 208.062 130.12H206.209C205.88 130.12 205.571 130.023 205.283 129.829C204.994 129.639 204.849 129.447 204.849 129.254C204.849 129.129 204.893 129.02 204.981 128.925C205.072 128.83 205.182 128.782 205.31 128.782C205.412 128.782 205.551 128.848 205.727 128.98C205.902 129.111 206.063 129.177 206.209 129.177H208.062C208.19 129.177 208.302 129.129 208.397 129.034C208.495 128.939 208.545 128.826 208.545 128.694C208.545 128.596 208.517 128.506 208.462 128.426C208.408 128.342 208.333 128.281 208.238 128.245L205.705 127.143C205.471 127.044 205.286 126.894 205.151 126.693C205.016 126.492 204.948 126.273 204.948 126.035C204.948 125.699 205.067 125.412 205.305 125.175C205.542 124.937 205.829 124.818 206.165 124.818ZM213.295 123.371V125.597L213.98 125.147C213.995 125.136 214.013 125.124 214.035 125.109C214.32 124.915 214.601 124.818 214.879 124.818H215.471C215.855 124.818 216.18 124.95 216.447 125.213C216.718 125.476 216.86 125.809 216.875 126.211L216.99 129.583V129.605C216.99 129.751 216.946 129.873 216.858 129.972C216.771 130.071 216.665 130.12 216.54 130.12C216.398 130.12 216.281 130.074 216.189 129.983C216.102 129.891 216.054 129.769 216.047 129.616L215.932 126.211C215.924 126.079 215.877 125.972 215.789 125.887C215.705 125.803 215.599 125.761 215.471 125.761H214.868C214.813 125.761 214.762 125.771 214.715 125.789C214.671 125.807 214.609 125.844 214.528 125.898L213.295 126.732V129.594C213.295 129.751 213.251 129.877 213.163 129.972C213.075 130.071 212.962 130.12 212.823 130.12C212.684 130.12 212.571 130.071 212.483 129.972C212.396 129.873 212.352 129.747 212.352 129.594V123.371C212.352 123.21 212.394 123.082 212.478 122.987C212.565 122.892 212.681 122.845 212.823 122.845C212.958 122.845 213.07 122.894 213.158 122.993C213.249 123.091 213.295 123.218 213.295 123.371ZM222.041 125.761C221.983 125.761 221.926 125.772 221.871 125.794C221.82 125.816 221.769 125.851 221.718 125.898L220.917 126.54C220.885 126.569 220.855 126.615 220.83 126.677C220.808 126.735 220.797 126.798 220.797 126.863V128.064C220.797 128.137 220.808 128.203 220.83 128.261C220.852 128.32 220.883 128.364 220.923 128.393L221.718 129.04C221.773 129.084 221.828 129.118 221.882 129.144C221.937 129.166 221.99 129.177 222.041 129.177H222.771C222.825 129.177 222.877 129.168 222.924 129.15C222.972 129.131 223.028 129.097 223.094 129.045L223.412 128.793C223.449 128.764 223.48 128.718 223.505 128.656C223.534 128.594 223.549 128.532 223.549 128.47V126.458C223.549 126.403 223.534 126.344 223.505 126.282C223.48 126.22 223.449 126.174 223.412 126.145L223.099 125.898C223.037 125.844 222.983 125.807 222.935 125.789C222.887 125.771 222.833 125.761 222.771 125.761H222.041ZM220.797 123.371V125.449L221.142 125.147C221.263 125.045 221.402 124.965 221.559 124.906C221.72 124.848 221.881 124.818 222.041 124.818H222.771C222.939 124.818 223.099 124.846 223.253 124.901C223.406 124.955 223.549 125.038 223.681 125.147L223.999 125.394C224.141 125.504 224.26 125.657 224.355 125.855C224.454 126.052 224.503 126.242 224.503 126.425V128.47C224.503 128.667 224.455 128.866 224.36 129.067C224.265 129.268 224.145 129.429 223.999 129.55L223.681 129.796C223.545 129.902 223.401 129.983 223.247 130.038C223.098 130.093 222.939 130.12 222.771 130.12H222.041C221.881 130.12 221.72 130.091 221.559 130.032C221.402 129.977 221.263 129.899 221.142 129.796L220.797 129.489V129.594C220.797 129.751 220.753 129.877 220.665 129.972C220.578 130.071 220.464 130.12 220.325 130.12C220.186 130.12 220.073 130.071 219.985 129.972C219.898 129.873 219.854 129.747 219.854 129.594V123.371C219.854 123.21 219.896 123.082 219.98 122.987C220.068 122.892 220.183 122.845 220.325 122.845C220.461 122.845 220.572 122.894 220.66 122.993C220.751 123.091 220.797 123.218 220.797 123.371ZM228.749 127.741C228.632 127.741 228.527 127.786 228.436 127.878C228.345 127.969 228.299 128.077 228.299 128.201V128.727C228.299 128.848 228.343 128.954 228.431 129.045C228.522 129.133 228.632 129.177 228.76 129.177H230.015L231.029 128.607L231.018 128.19C231.018 128.062 230.973 127.956 230.881 127.872C230.79 127.784 230.682 127.741 230.558 127.741H228.749ZM228.803 124.818H230.476C230.856 124.818 231.181 124.95 231.451 125.213C231.722 125.476 231.864 125.809 231.879 126.211L232.005 129.583V129.605C232.005 129.751 231.959 129.873 231.868 129.972C231.78 130.071 231.673 130.12 231.545 130.12C231.413 130.12 231.305 130.078 231.221 129.994C231.137 129.913 231.084 129.798 231.062 129.648L230.514 129.994C230.455 130.03 230.386 130.06 230.306 130.082C230.229 130.107 230.159 130.12 230.097 130.12H228.76C228.372 130.12 228.041 129.983 227.767 129.709C227.493 129.438 227.356 129.111 227.356 128.727V128.201C227.356 127.817 227.495 127.488 227.773 127.214C228.05 126.936 228.379 126.798 228.76 126.798H230.558C230.635 126.798 230.706 126.805 230.772 126.819C230.841 126.83 230.907 126.849 230.969 126.874L230.936 126.211C230.929 126.076 230.883 125.968 230.799 125.887C230.715 125.803 230.607 125.761 230.476 125.761H228.803C228.646 125.761 228.522 125.719 228.431 125.635C228.343 125.551 228.299 125.436 228.299 125.29C228.299 125.151 228.345 125.038 228.436 124.95C228.531 124.862 228.654 124.818 228.803 124.818ZM237.101 124.818H238.981C239.135 124.818 239.261 124.864 239.359 124.955C239.458 125.043 239.507 125.155 239.507 125.29C239.507 125.432 239.46 125.546 239.365 125.63C239.273 125.71 239.146 125.75 238.981 125.75H237.101C237.046 125.75 236.993 125.763 236.942 125.789C236.89 125.811 236.836 125.847 236.777 125.898L235.938 126.628C235.898 126.66 235.865 126.706 235.84 126.765C235.814 126.823 235.801 126.882 235.801 126.94V127.987C235.801 128.049 235.814 128.112 235.84 128.174C235.865 128.232 235.896 128.278 235.933 128.311L236.783 129.045C236.848 129.097 236.905 129.131 236.953 129.15C237 129.168 237.049 129.177 237.101 129.177H238.981C239.138 129.177 239.264 129.221 239.359 129.309C239.458 129.396 239.507 129.51 239.507 129.648C239.507 129.787 239.458 129.901 239.359 129.988C239.261 130.076 239.135 130.12 238.981 130.12H237.101C236.943 130.12 236.781 130.089 236.613 130.027C236.448 129.968 236.309 129.891 236.196 129.796L235.352 129.051C235.191 128.908 235.068 128.746 234.984 128.563C234.9 128.38 234.858 128.188 234.858 127.987V126.951C234.858 126.754 234.9 126.564 234.984 126.381C235.068 126.194 235.191 126.03 235.352 125.887L236.196 125.147C236.309 125.049 236.448 124.97 236.613 124.912C236.781 124.849 236.943 124.818 237.101 124.818ZM243.303 123.371V127.055L245.738 124.955C245.807 124.901 245.867 124.862 245.919 124.84C245.973 124.818 246.03 124.807 246.089 124.807C246.216 124.807 246.324 124.853 246.412 124.944C246.503 125.036 246.549 125.144 246.549 125.268C246.549 125.337 246.533 125.407 246.5 125.476C246.467 125.542 246.419 125.604 246.357 125.663L244.493 127.28L246.807 129.254C246.876 129.312 246.927 129.372 246.96 129.435C246.993 129.497 247.01 129.564 247.01 129.637C247.01 129.769 246.966 129.881 246.878 129.972C246.79 130.063 246.684 130.109 246.56 130.109C246.491 130.109 246.425 130.098 246.363 130.076C246.304 130.054 246.246 130.019 246.187 129.972L243.764 127.9L243.303 128.289V129.594C243.303 129.751 243.26 129.877 243.172 129.972C243.084 130.071 242.971 130.12 242.832 130.12C242.693 130.12 242.58 130.071 242.492 129.972C242.404 129.873 242.36 129.747 242.36 129.594V123.371C242.36 123.21 242.402 123.082 242.487 122.987C242.574 122.892 242.689 122.845 242.832 122.845C242.967 122.845 243.079 122.894 243.166 122.993C243.258 123.091 243.303 123.218 243.303 123.371ZM227.882 138.845H230.152V145.177H231.062V143.324C231.062 143.163 231.104 143.037 231.188 142.946C231.276 142.854 231.391 142.809 231.534 142.809C231.673 142.809 231.786 142.856 231.874 142.951C231.961 143.046 232.005 143.17 232.005 143.324V145.648C232.005 145.787 231.956 145.901 231.857 145.988C231.758 146.076 231.632 146.12 231.479 146.12H227.882C227.725 146.12 227.597 146.076 227.499 145.988C227.404 145.901 227.356 145.787 227.356 145.648C227.356 145.51 227.405 145.396 227.504 145.309C227.603 145.221 227.729 145.177 227.882 145.177H229.209V139.788H227.882C227.722 139.788 227.594 139.746 227.499 139.662C227.404 139.574 227.356 139.459 227.356 139.316C227.356 139.177 227.405 139.064 227.504 138.976C227.603 138.889 227.729 138.845 227.882 138.845ZM235.801 139.788V145.177H238.564V139.788H235.801ZM235.9 138.845H238.46C238.796 138.845 239.054 138.934 239.233 139.113C239.416 139.292 239.507 139.55 239.507 139.886V145.078C239.507 145.415 239.416 145.672 239.233 145.851C239.054 146.03 238.796 146.12 238.46 146.12H235.9C235.564 146.12 235.306 146.03 235.127 145.851C234.948 145.672 234.858 145.415 234.858 145.078V139.886C234.858 139.55 234.948 139.292 235.127 139.113C235.306 138.934 235.564 138.845 235.9 138.845ZM245.617 144.382H246.538C246.673 144.382 246.785 144.431 246.872 144.53C246.964 144.629 247.01 144.755 247.01 144.908V145.594C247.01 145.751 246.966 145.877 246.878 145.972C246.79 146.071 246.677 146.12 246.538 146.12H245.617C245.478 146.12 245.365 146.071 245.277 145.972C245.189 145.873 245.146 145.747 245.146 145.594V144.908C245.146 144.747 245.188 144.62 245.272 144.525C245.359 144.43 245.474 144.382 245.617 144.382ZM246.872 140.429L243.238 145.111C243.179 145.184 243.117 145.239 243.051 145.276C242.989 145.309 242.916 145.325 242.832 145.325C242.7 145.325 242.589 145.281 242.497 145.193C242.406 145.102 242.36 144.992 242.36 144.864C242.36 144.81 242.371 144.755 242.393 144.7C242.415 144.641 242.448 144.583 242.492 144.525L246.132 139.853C246.191 139.78 246.253 139.726 246.319 139.689C246.388 139.649 246.461 139.629 246.538 139.629C246.662 139.629 246.772 139.674 246.867 139.766C246.962 139.857 247.01 139.965 247.01 140.089C247.01 140.144 246.997 140.201 246.971 140.259C246.949 140.314 246.916 140.371 246.872 140.429ZM242.832 138.845H243.753C243.888 138.845 244 138.894 244.087 138.993C244.179 139.091 244.224 139.218 244.224 139.371V140.056C244.224 140.217 244.181 140.345 244.093 140.44C244.009 140.535 243.896 140.583 243.753 140.583H242.832C242.693 140.583 242.58 140.533 242.492 140.435C242.404 140.336 242.36 140.21 242.36 140.056V139.371C242.36 139.21 242.402 139.082 242.487 138.987C242.574 138.892 242.689 138.845 242.832 138.845Z" fill="url(#paint9_linear_2710_96674)"/>
<path d="M52.0225 122.845C52.1797 122.845 52.3058 122.889 52.4008 122.976C52.4995 123.064 52.5489 123.177 52.5489 123.316C52.5489 123.451 52.4995 123.565 52.4008 123.656C52.3022 123.744 52.1761 123.788 52.0225 123.788H50.6958V129.177H52.0225C52.1797 129.177 52.3058 129.221 52.4008 129.309C52.4995 129.396 52.5489 129.51 52.5489 129.648C52.5489 129.787 52.4995 129.901 52.4008 129.988C52.3022 130.076 52.1761 130.12 52.0225 130.12H48.4261C48.2689 130.12 48.141 130.076 48.0423 129.988C47.9473 129.901 47.8997 129.787 47.8997 129.648C47.8997 129.51 47.9491 129.396 48.0478 129.309C48.1465 129.221 48.2725 129.177 48.4261 129.177H49.7528V123.788H48.4261C48.2689 123.788 48.141 123.744 48.0423 123.656C47.9473 123.568 47.8997 123.455 47.8997 123.316C47.8997 123.177 47.9491 123.064 48.0478 122.976C48.1465 122.889 48.2725 122.845 48.4261 122.845H52.0225ZM55.0651 122.845H56.2329L57.3897 124.484L58.5465 122.845H59.7142V129.594C59.7142 129.751 59.6704 129.877 59.5826 129.972C59.4949 130.071 59.3816 130.12 59.2427 130.12C59.1038 130.12 58.9905 130.071 58.9028 129.972C58.8151 129.873 58.7712 129.747 58.7712 129.594V124.182L57.8611 125.438V125.641C57.8611 125.798 57.8173 125.926 57.7296 126.025C57.6418 126.12 57.5285 126.167 57.3897 126.167C57.2508 126.167 57.1375 126.118 57.0497 126.019C56.962 125.92 56.9182 125.794 56.9182 125.641V125.438L56.0081 124.182V129.594C56.0081 129.751 55.9642 129.877 55.8765 129.972C55.7888 130.071 55.6755 130.12 55.5366 130.12C55.3977 130.12 55.2844 130.071 55.1967 129.972C55.109 129.873 55.0651 129.747 55.0651 129.594V122.845ZM63.1734 123.371V123.958L64.555 125.685L65.9366 123.958V123.371C65.9366 123.218 65.9804 123.091 66.0682 122.993C66.1559 122.894 66.2692 122.845 66.4081 122.845C66.547 122.845 66.6603 122.894 66.748 122.993C66.8357 123.088 66.8796 123.214 66.8796 123.371V124.281L65.0265 126.617V129.594C65.0265 129.751 64.9826 129.877 64.8949 129.972C64.8072 130.071 64.6939 130.12 64.555 130.12C64.4161 130.12 64.3028 130.071 64.2151 129.972C64.1274 129.873 64.0835 129.747 64.0835 129.594V126.617L62.2304 124.281V123.371C62.2304 123.21 62.2725 123.082 62.3565 122.987C62.4443 122.892 62.5594 122.845 62.7019 122.845C62.8372 122.845 62.9486 122.894 63.0364 122.993C63.1277 123.091 63.1734 123.218 63.1734 123.371ZM71.7204 124.999L70.9583 127.593H72.4715L71.7204 124.999ZM72.2247 123.371L74.0011 129.473C74.012 129.506 74.0193 129.539 74.023 129.572C74.0303 129.605 74.034 129.634 74.034 129.659C74.034 129.787 73.9883 129.895 73.8969 129.983C73.8055 130.074 73.6977 130.12 73.5734 130.12C73.4638 130.12 73.3651 130.083 73.2774 130.01C73.1933 129.941 73.1348 129.848 73.1019 129.731L72.7511 128.535H70.6951L70.3388 129.725C70.2949 129.86 70.2328 129.959 70.1524 130.021C70.0756 130.087 69.9769 130.12 69.8563 130.12C69.7357 130.12 69.6297 130.074 69.5383 129.983C69.4506 129.895 69.4068 129.791 69.4068 129.67C69.4068 129.616 69.4086 129.575 69.4122 129.55C69.4159 129.521 69.4214 129.493 69.4287 129.468L71.205 123.371C71.2598 123.174 71.3256 123.037 71.4024 122.96C71.4828 122.883 71.5888 122.845 71.7204 122.845C71.8483 122.845 71.9506 122.881 72.0274 122.954C72.1041 123.027 72.1699 123.166 72.2247 123.371ZM47.8997 138.845H52.0225C52.1797 138.845 52.3058 138.889 52.4008 138.976C52.4995 139.064 52.5489 139.177 52.5489 139.316C52.5489 139.451 52.4995 139.565 52.4008 139.656C52.3022 139.744 52.1761 139.788 52.0225 139.788H48.8427V141.224H51.1015C51.255 141.224 51.3793 141.268 51.4743 141.356C51.5693 141.443 51.6168 141.557 51.6168 141.696C51.6168 141.834 51.5675 141.948 51.4688 142.035C51.3738 142.123 51.2513 142.167 51.1015 142.167H48.8427V145.594C48.8427 145.751 48.7989 145.877 48.7111 145.972C48.6234 146.071 48.5101 146.12 48.3712 146.12C48.2323 146.12 48.119 146.071 48.0313 145.972C47.9436 145.873 47.8997 145.747 47.8997 145.594V138.845ZM57.3897 140.999L56.6276 143.593H58.1407L57.3897 140.999ZM57.894 139.371L59.6704 145.473C59.6813 145.506 59.6886 145.539 59.6923 145.572C59.6996 145.605 59.7032 145.634 59.7032 145.659C59.7032 145.787 59.6576 145.895 59.5662 145.983C59.4748 146.074 59.367 146.12 59.2427 146.12C59.1331 146.12 59.0344 146.083 58.9467 146.01C58.8626 145.941 58.8041 145.848 58.7712 145.731L58.4204 144.535H56.3644L56.0081 145.725C55.9642 145.86 55.9021 145.959 55.8217 146.021C55.7449 146.087 55.6462 146.12 55.5256 146.12C55.405 146.12 55.299 146.074 55.2076 145.983C55.1199 145.895 55.0761 145.791 55.0761 145.67C55.0761 145.616 55.0779 145.575 55.0815 145.55C55.0852 145.521 55.0907 145.493 55.098 145.468L56.8743 139.371C56.9291 139.174 56.9949 139.037 57.0717 138.96C57.1521 138.883 57.2581 138.845 57.3897 138.845C57.5176 138.845 57.6199 138.881 57.6967 138.954C57.7734 139.027 57.8392 139.166 57.894 139.371ZM62.2304 138.845H63.3982L64.555 140.484L65.7118 138.845H66.8796V145.594C66.8796 145.751 66.8357 145.877 66.748 145.972C66.6603 146.071 66.547 146.12 66.4081 146.12C66.2692 146.12 66.1559 146.071 66.0682 145.972C65.9804 145.873 65.9366 145.747 65.9366 145.594V140.182L65.0265 141.438V141.641C65.0265 141.798 64.9826 141.926 64.8949 142.025C64.8072 142.12 64.6939 142.167 64.555 142.167C64.4161 142.167 64.3028 142.118 64.2151 142.019C64.1274 141.92 64.0835 141.794 64.0835 141.641V141.438L63.1734 140.182V145.594C63.1734 145.751 63.1296 145.877 63.0418 145.972C62.9541 146.071 62.8408 146.12 62.7019 146.12C62.563 146.12 62.4497 146.071 62.362 145.972C62.2743 145.873 62.2304 145.747 62.2304 145.594V138.845ZM73.5186 138.845C73.6758 138.845 73.8019 138.889 73.8969 138.976C73.9956 139.064 74.0449 139.177 74.0449 139.316C74.0449 139.451 73.9956 139.565 73.8969 139.656C73.7982 139.744 73.6721 139.788 73.5186 139.788H72.1918V145.177H73.5186C73.6758 145.177 73.8019 145.221 73.8969 145.309C73.9956 145.396 74.0449 145.51 74.0449 145.648C74.0449 145.787 73.9956 145.901 73.8969 145.988C73.7982 146.076 73.6721 146.12 73.5186 146.12H69.9221C69.7649 146.12 69.637 146.076 69.5383 145.988C69.4433 145.901 69.3958 145.787 69.3958 145.648C69.3958 145.51 69.4451 145.396 69.5438 145.309C69.6425 145.221 69.7686 145.177 69.9221 145.177H71.2489V139.788H69.9221C69.7649 139.788 69.637 139.744 69.5383 139.656C69.4433 139.568 69.3958 139.455 69.3958 139.316C69.3958 139.177 69.4451 139.064 69.5438 138.976C69.6425 138.889 69.7686 138.845 69.9221 138.845H73.5186ZM77.5041 139.371V145.177H80.684C80.8411 145.177 80.9672 145.221 81.0622 145.309C81.1609 145.396 81.2103 145.51 81.2103 145.648C81.2103 145.787 81.1609 145.901 81.0622 145.988C80.9636 146.076 80.8375 146.12 80.684 146.12H76.5611V139.371C76.5611 139.21 76.6032 139.082 76.6872 138.987C76.775 138.892 76.8901 138.845 77.0326 138.845C77.1679 138.845 77.2793 138.894 77.3671 138.993C77.4584 139.091 77.5041 139.218 77.5041 139.371ZM87.8493 138.845C88.0065 138.845 88.1326 138.889 88.2276 138.976C88.3263 139.064 88.3756 139.177 88.3756 139.316C88.3756 139.451 88.3263 139.565 88.2276 139.656C88.1289 139.744 88.0028 139.788 87.8493 139.788H86.5225V145.177H87.8493C88.0065 145.177 88.1326 145.221 88.2276 145.309C88.3263 145.396 88.3756 145.51 88.3756 145.648C88.3756 145.787 88.3263 145.901 88.2276 145.988C88.1289 146.076 88.0028 146.12 87.8493 146.12H84.2528C84.0956 146.12 83.9677 146.076 83.869 145.988C83.774 145.901 83.7265 145.787 83.7265 145.648C83.7265 145.51 83.7758 145.396 83.8745 145.309C83.9732 145.221 84.0993 145.177 84.2528 145.177H85.5796V139.788H84.2528C84.0956 139.788 83.9677 139.744 83.869 139.656C83.774 139.568 83.7265 139.455 83.7265 139.316C83.7265 139.177 83.7758 139.064 83.8745 138.976C83.9732 138.889 84.0993 138.845 84.2528 138.845H87.8493ZM91.8348 139.371V139.958L93.2164 141.685L94.598 139.958V139.371C94.598 139.218 94.6418 139.091 94.7296 138.993C94.8173 138.894 94.9306 138.845 95.0695 138.845C95.2084 138.845 95.3217 138.894 95.4094 138.993C95.4971 139.088 95.541 139.214 95.541 139.371V140.281L93.6879 142.617V145.594C93.6879 145.751 93.644 145.877 93.5563 145.972C93.4686 146.071 93.3553 146.12 93.2164 146.12C93.0775 146.12 92.9642 146.071 92.8765 145.972C92.7888 145.873 92.7449 145.747 92.7449 145.594V142.617L90.8918 140.281V139.371C90.8918 139.21 90.9339 139.082 91.0179 138.987C91.1057 138.892 91.2208 138.845 91.3633 138.845C91.4986 138.845 91.61 138.894 91.6978 138.993C91.7891 139.091 91.8348 139.218 91.8348 139.371ZM100.382 140.999L99.6197 143.593H101.133L100.382 140.999ZM100.886 139.371L102.662 145.473C102.673 145.506 102.681 145.539 102.684 145.572C102.692 145.605 102.695 145.634 102.695 145.659C102.695 145.787 102.65 145.895 102.558 145.983C102.467 146.074 102.359 146.12 102.235 146.12C102.125 146.12 102.026 146.083 101.939 146.01C101.855 145.941 101.796 145.848 101.763 145.731L101.412 144.535H99.3565L99.0002 145.725C98.9563 145.86 98.8942 145.959 98.8138 146.021C98.737 146.087 98.6383 146.12 98.5177 146.12C98.3971 146.12 98.2911 146.074 98.1997 145.983C98.112 145.895 98.0682 145.791 98.0682 145.67C98.0682 145.616 98.07 145.575 98.0736 145.55C98.0773 145.521 98.0828 145.493 98.0901 145.468L99.8664 139.371C99.9212 139.174 99.987 139.037 100.064 138.96C100.144 138.883 100.25 138.845 100.382 138.845C100.51 138.845 100.612 138.881 100.689 138.954C100.766 139.027 100.831 139.166 100.886 139.371Z" fill="url(#paint10_linear_2710_96674)"/>
<defs>
<filter id="filter0_d_2710_96674" x="10.9649" y="-0.441589" width="282.105" height="196.491" filterUnits="userSpaceOnUse" color-interpolation-filters="sRGB">
<feFlood flood-opacity="0" result="BackgroundImageFix"/>
<feColorMatrix in="SourceAlpha" type="matrix" values="0 0 0 0 0 0 0 0 0 0 0 0 0 0 0 0 0 0 127 0" result="hardAlpha"/>
<feOffset dx="7.01754" dy="5.61404"/>
<feGaussianBlur stdDeviation="10.5263"/>
<feColorMatrix type="matrix" values="0 0 0 0 0.0705882 0 0 0 0 0.239216 0 0 0 0 0.396078 0 0 0 0.26 0"/>
<feBlend mode="normal" in2="BackgroundImageFix" result="effect1_dropShadow_2710_96674"/>
<feBlend mode="normal" in="SourceGraphic" in2="effect1_dropShadow_2710_96674" result="shape"/>
</filter>
<filter id="filter1_dd_2710_96674" x="-3.07021" y="60.6161" width="196.491" height="64.5614" filterUnits="userSpaceOnUse" color-interpolation-filters="sRGB">
<feFlood flood-opacity="0" result="BackgroundImageFix"/>
<feColorMatrix in="SourceAlpha" type="matrix" values="0 0 0 0 0 0 0 0 0 0 0 0 0 0 0 0 0 0 127 0" result="hardAlpha"/>
<feOffset dy="1.40351"/>
<feGaussianBlur stdDeviation="1.40351"/>
<feColorMatrix type="matrix" values="0 0 0 0 0 0 0 0 0 0.027451 0 0 0 0 0.482353 0 0 0 0.04 0"/>
<feBlend mode="normal" in2="BackgroundImageFix" result="effect1_dropShadow_2710_96674"/>
<feColorMatrix in="SourceAlpha" type="matrix" values="0 0 0 0 0 0 0 0 0 0 0 0 0 0 0 0 0 0 127 0" result="hardAlpha"/>
<feOffset dy="5.61404"/>
<feGaussianBlur stdDeviation="10.5263"/>
<feColorMatrix type="matrix" values="0 0 0 0 0.0297049 0 0 0 0 0.159612 0 0 0 0 0.245833 0 0 0 0.26 0"/>
<feBlend mode="normal" in2="effect1_dropShadow_2710_96674" result="effect2_dropShadow_2710_96674"/>
<feBlend mode="normal" in="SourceGraphic" in2="effect2_dropShadow_2710_96674" result="shape"/>
</filter>
<filter id="filter2_dd_2710_96674" x="186.341" y="2.86471" width="80.0394" height="86.9391" filterUnits="userSpaceOnUse" color-interpolation-filters="sRGB">
<feFlood flood-opacity="0" result="BackgroundImageFix"/>
<feColorMatrix in="SourceAlpha" type="matrix" values="0 0 0 0 0 0 0 0 0 0 0 0 0 0 0 0 0 0 127 0" result="hardAlpha"/>
<feOffset dx="2.75997" dy="2.75997"/>
<feGaussianBlur stdDeviation="4.82995"/>
<feColorMatrix type="matrix" values="0 0 0 0 0.534167 0 0 0 0 0.645967 0 0 0 0 0.749167 0 0 0 0.6 0"/>
<feBlend mode="normal" in2="BackgroundImageFix" result="effect1_dropShadow_2710_96674"/>
<feColorMatrix in="SourceAlpha" type="matrix" values="0 0 0 0 0 0 0 0 0 0 0 0 0 0 0 0 0 0 127 0" result="hardAlpha"/>
<feOffset dx="-8.27992" dy="-4.13996"/>
<feGaussianBlur stdDeviation="12.4199"/>
<feColorMatrix type="matrix" values="0 0 0 0 1 0 0 0 0 1 0 0 0 0 1 0 0 0 1 0"/>
<feBlend mode="normal" in2="effect1_dropShadow_2710_96674" result="effect2_dropShadow_2710_96674"/>
<feBlend mode="normal" in="SourceGraphic" in2="effect2_dropShadow_2710_96674" result="shape"/>
</filter>
<linearGradient id="paint0_linear_2710_96674" x1="197.306" y1="-2.04591" x2="-190.364" y2="420.463" gradientUnits="userSpaceOnUse">
<stop offset="0.335303" stop-color="#EBF2F9"/>
<stop offset="1" stop-color="#C6D7EB"/>
</linearGradient>
<linearGradient id="paint1_linear_2710_96674" x1="165.37" y1="158.33" x2="-32.529" y2="217.736" gradientUnits="userSpaceOnUse">
<stop offset="0.263331" stop-color="white"/>
<stop offset="0.507086" stop-color="#DBE6F2" stop-opacity="0"/>
<stop offset="1" stop-color="#8F9FAE"/>
</linearGradient>
<linearGradient id="paint2_linear_2710_96674" x1="197.306" y1="-2.04591" x2="-190.364" y2="420.463" gradientUnits="userSpaceOnUse">
<stop offset="0.335303" stop-color="#EBF2F9"/>
<stop offset="1" stop-color="#C6D7EB"/>
</linearGradient>
<linearGradient id="paint3_linear_2710_96674" x1="165.37" y1="158.33" x2="-32.529" y2="217.736" gradientUnits="userSpaceOnUse">
<stop offset="0.263331" stop-color="white"/>
<stop offset="0.507086" stop-color="#DBE6F2" stop-opacity="0"/>
<stop offset="1" stop-color="#8F9FAE"/>
</linearGradient>
<linearGradient id="paint4_linear_2710_96674" x1="74.0333" y1="67.8091" x2="90.0074" y2="124.691" gradientUnits="userSpaceOnUse">
<stop stop-color="#FFCB05" stop-opacity="0"/>
<stop offset="1" stop-color="#FFA200"/>
</linearGradient>
<linearGradient id="paint5_linear_2710_96674" x1="25.7015" y1="56.4057" x2="75.0986" y2="9.19543" gradientUnits="userSpaceOnUse">
<stop offset="0.263331" stop-color="#FFE583"/>
<stop offset="0.507086" stop-color="#FFCB05"/>
<stop offset="1" stop-color="#FFB101"/>
</linearGradient>
<linearGradient id="paint6_linear_2710_96674" x1="242.575" y1="68.414" x2="233.95" y2="104.984" gradientUnits="userSpaceOnUse">
<stop offset="0.149729" stop-color="white"/>
<stop offset="1" stop-color="#37536F" stop-opacity="0.4"/>
</linearGradient>
<linearGradient id="paint7_linear_2710_96674" x1="256.722" y1="60.8248" x2="210.492" y2="34.605" gradientUnits="userSpaceOnUse">
<stop stop-color="#48647D"/>
<stop offset="0.234375" stop-color="#6B8299"/>
<stop offset="0.442708" stop-color="#DAE2EB"/>
<stop offset="0.682292" stop-color="#8CA2B7"/>
<stop offset="1" stop-color="#EDF2F7"/>
</linearGradient>
<linearGradient id="paint8_linear_2710_96674" x1="137.048" y1="54.2999" x2="-152.164" y2="8.78041" gradientUnits="userSpaceOnUse">
<stop stop-color="#202F45"/>
<stop offset="1" stop-color="#6E8BB3" stop-opacity="0"/>
</linearGradient>
<linearGradient id="paint9_linear_2710_96674" x1="248.155" y1="153.245" x2="94.777" y2="115.732" gradientUnits="userSpaceOnUse">
<stop stop-color="#202E43"/>
<stop offset="1" stop-color="#9BABC0" stop-opacity="0.4"/>
</linearGradient>
<linearGradient id="paint10_linear_2710_96674" x1="204.649" y1="153.245" x2="-92.2722" y2="-29.8363" gradientUnits="userSpaceOnUse">
<stop stop-color="#202E43"/>
<stop offset="0.776605" stop-color="#9BABC0" stop-opacity="0.4"/>
</linearGradient>
</defs>
</svg>
