<svg width="290" height="197" fill="none" xmlns="http://www.w3.org/2000/svg"><g filter="url(#filter0_d_2710_96674)"><rect x="25" y="169.383" width="154.386" height="240" rx="16.56" transform="rotate(-90 25 169.383)" fill="url(#paint0_linear_2710_96674)"/><rect x="25.345" y="169.038" width="153.696" height="239.31" rx="16.215" transform="rotate(-90 25.345 169.038)" stroke="url(#paint1_linear_2710_96674)" stroke-width=".69"/></g><mask id="a" style="mask-type:alpha" maskUnits="userSpaceOnUse" x="25" y="14" width="240" height="156"><rect x="25.345" y="169.038" width="153.696" height="239.31" rx="16.215" transform="rotate(-90 25.345 169.038)" fill="url(#paint2_linear_2710_96674)" stroke="url(#paint3_linear_2710_96674)" stroke-width=".69"/></mask><g opacity=".2" fill="#0071BC" mask="url(#a)"><path d="M137.877 201.828s29.204 16.903 64.571-.17c35.368-17.073 39.738-46.453 41.219-59.262 1.477-12.812-2.951-32.268-11.76-37.156-8.806-4.892-11.599 3.306-11.336 6.451.264 3.145 7.068 14.555 9.479 25.717 2.41 11.159.907 30.692-12.749 46.559-13.655 15.864-43.329 30.397-78.642 16.189l-.782 1.672z"/><path d="M158.756 200.922s21.953 4.956 46.815-13.378c24.866-18.33 22.697-53.58 14.805-55.416-6.884-1.601-8.596 4.293-7.859 8.657.733 4.364 3.093 14.153 1.142 22.045-1.957 7.892-16.176 38.32-54.903 38.092z"/><path d="M173.359 194.899s11.262-1.1 24.345-13.513c13.083-12.413 7.978-27.454 1.731-28.187-6.244-.73-6.031 4.75-5.481 8.02.55 3.271 3.901 9.461-1.529 18.852-5.429 9.39-14.624 12.744-19.066 14.828zm-64.011 15.546s2.826-11.95 8.429-19.99c0 0 10.579 7.782 27.376 14.69 0 0-1.699-20.318-30.379-35.204 0 0-8.226-27.087 12.697-34.526 10.212-3.63 25.381-1.36 41.946-4.029-5.903-3.75-14.708-11.227-16.366-23.183-8.522-.271-41.93.942-46.435 36.156 0 0-2.018-39.221 46.165-39.771-.068-5.04 1.11-10.786 4.158-17.276 0 0-11.223 28.232 18.104 42.968 15.776-3.67 32.422-12.745 47.018-36.16 0 0-27.672-32.798-68.45-22.755-40.774 10.053-72.524 53.193-46.712 102.184 0 0-9.266 18.768 2.449 36.896zM179.68 97.442a5.926 5.926 0 01-.386-8.541c2.324-2.463 6.26-2.63 8.796-.376a5.918 5.918 0 01.386 8.541c-2.314 2.463-6.256 2.63-8.796.376z"/><path d="M122.438 84.404s-16.871 11.04-24.605 35.03c0 0-6.424-21.623 4.01-37.426l20.595 2.396zm35.79 50.791l-21.409.579-5.71 11.317c.004 0 12.253 3.335 27.119-11.896z"/></g><g filter="url(#filter1_dd_2710_96674)"><rect x="17.982" y="76.055" width="154.386" height="22.456" rx="7.018" fill="#FFCB05"/><rect x="17.982" y="76.055" width="154.386" height="22.456" rx="7.018" fill="url(#paint4_linear_2710_96674)"/><rect x="18.327" y="76.4" width="153.696" height="21.766" rx="6.673" stroke="url(#paint5_linear_2710_96674)" stroke-width=".69"/></g><path d="M36.081 89.69v-4.539h1.267v4.54h-1.267zm-1.7-1.67v-1.198h4.677v1.198h-4.676zm13.36 2.84L45.6 87.548l1.288-.777 2.662 4.087h-1.808zm-4.47 0v-6.878h1.582v6.877H43.27zm1.12-2.771v-1.326h2.397v1.326h-2.397zm2.643-.491l-1.464-.177 2.23-3.439h1.68l-2.446 3.616zm4.06 1.12v-1.052h2.76v1.052h-2.76zm.736-3.243c.577 0 1.088.118 1.533.354.445.23.796.55 1.051.963.256.413.383.888.383 1.425 0 .53-.127 1.005-.383 1.424a2.69 2.69 0 01-1.051.973c-.445.229-.956.344-1.533.344a3.7 3.7 0 01-1.375-.246 2.66 2.66 0 01-1.012-.727l.874-.825c.197.196.413.35.649.462.242.104.51.157.806.157.32 0 .599-.066.835-.197a1.44 1.44 0 00.57-.55c.137-.236.206-.508.206-.815 0-.315-.07-.59-.207-.826a1.44 1.44 0 00-.57-.55 1.693 1.693 0 00-.834-.196c-.295 0-.564.055-.806.167a2.073 2.073 0 00-.649.461l-.874-.815a2.527 2.527 0 011.012-.727c.413-.17.871-.255 1.375-.255zm7.613 4.127l-.334.353v-4.381h1.532v4.382l-.353-.354h2.436l-.343.353v-4.381h1.522v5.285h-8.066v-5.285h1.523v4.382l-.344-.354h2.427zm8.554 1.375c-.432 0-.825-.062-1.179-.186a2.476 2.476 0 01-.923-.6 2.875 2.875 0 01-.6-1.05c-.137-.427-.206-.934-.206-1.524 0-.419.036-.802.108-1.15a3.72 3.72 0 01.324-.942c.144-.288.328-.54.55-.757.23-.222.495-.406.796-.55.308-.15.655-.265 1.042-.344l2.515-.5.206 1.316-2.22.442a7.215 7.215 0 00-.452.108c-.164.039-.33.101-.501.186a1.684 1.684 0 00-.462.364c-.138.15-.249.35-.334.6-.085.242-.128.543-.128.903 0 .111.004.197.01.255.013.06.023.122.03.187.013.066.02.167.02.305l-.492-.482a2.65 2.65 0 01.55-.786c.23-.216.492-.38.786-.49a2.728 2.728 0 011.002-.178c.498 0 .934.102 1.307.305.38.196.675.475.884.835.21.36.315.77.315 1.228 0 .498-.125.937-.374 1.317a2.494 2.494 0 01-1.041.874c-.439.21-.95.314-1.533.314zm.079-1.189c.255 0 .481-.055.678-.166.196-.118.347-.272.452-.462a1.31 1.31 0 00.167-.659 1.187 1.187 0 00-.62-1.06 1.44 1.44 0 00-.687-.158 1.49 1.49 0 00-.688.157c-.203.099-.36.236-.471.413a1.136 1.136 0 00-.167.619c0 .242.055.465.167.668.118.197.275.354.471.472.203.118.436.177.698.177zm4.864-1.07v-1.052h2.76v1.052h-2.76zm.737-3.243c.576 0 1.087.118 1.532.354.446.23.796.55 1.051.963.256.413.384.888.384 1.425 0 .53-.128 1.005-.384 1.424a2.69 2.69 0 01-1.05.973c-.446.229-.957.344-1.533.344a3.7 3.7 0 01-1.376-.246 2.659 2.659 0 01-1.012-.727l.875-.825c.196.196.412.35.648.462.242.104.51.157.806.157.32 0 .599-.066.835-.197.242-.13.432-.314.57-.55.137-.236.206-.508.206-.815 0-.315-.069-.59-.206-.826a1.439 1.439 0 00-.57-.55 1.693 1.693 0 00-.835-.196c-.295 0-.564.055-.806.167a2.073 2.073 0 00-.648.461l-.875-.815a2.526 2.526 0 011.012-.727 3.58 3.58 0 011.376-.255zm7.75 5.384l-1.769-2.505 1.248-.737 2.328 3.242h-1.807zm-3.744 0v-5.285h1.533v5.285h-1.532zm1.081-2.004v-1.228h1.847v1.228h-1.847zm2.29-.462l-1.435-.157 1.857-2.662h1.63l-2.053 2.82zm8.122 2.525c-.524 0-.989-.114-1.395-.344a2.56 2.56 0 01-.963-.943 2.69 2.69 0 01-.353-1.375c0-.518.118-.976.353-1.376.236-.4.557-.71.963-.933.406-.23.871-.344 1.395-.344.518 0 .98.115 1.386.344.412.223.733.534.962.933.236.393.354.852.354 1.376 0 .517-.118.976-.354 1.375-.229.4-.55.714-.962.944a2.772 2.772 0 01-1.386.343zm0-.825c.334 0 .632-.075.894-.226.269-.15.479-.363.63-.639a2.03 2.03 0 00.225-.972c0-.374-.075-.694-.226-.963a1.594 1.594 0 00-.629-.639 1.76 1.76 0 00-.894-.225 1.76 1.76 0 00-.894.225 1.689 1.689 0 00-.629.64c-.157.268-.235.588-.235.962 0 .367.078.69.235.972.158.276.367.489.63.64.261.15.56.225.893.225zm4.904.766v-4.627l.236.246h-2.142v-.826h4.755v.826h-2.132l.226-.246v4.627h-.943zm7.621-3.094v-.806h3.684v.806h-3.684zm.884-3.861a3.5 3.5 0 011.375.265c.42.17.783.416 1.091.737.314.314.557.684.727 1.11.177.426.265.894.265 1.405 0 .51-.088.979-.265 1.405-.17.425-.413.799-.727 1.12-.308.314-.671.56-1.091.737-.419.17-.877.255-1.375.255-.55 0-1.058-.092-1.523-.275a3.033 3.033 0 01-1.16-.806l.62-.619c.275.282.58.488.914.62.34.13.707.196 1.1.196.36 0 .694-.066 1.002-.197a2.388 2.388 0 001.326-1.375 2.95 2.95 0 00.187-1.061c0-.38-.062-.73-.187-1.052a2.333 2.333 0 00-.53-.835 2.345 2.345 0 00-.796-.55 2.533 2.533 0 00-1.002-.196c-.393 0-.76.065-1.1.196a2.602 2.602 0 00-.914.62l-.62-.62a3.033 3.033 0 011.16-.805 4.116 4.116 0 011.523-.275zm9.678 6.955l-2.496-3.39.796-.49 2.82 3.88h-1.12zm-4.628 0v-6.877h.963v6.877h-.963zm.668-3.026v-.864h2.23v.864h-2.23zm2.348-.304l-.904-.138 2.466-3.409h1.052l-2.614 3.547zm6.814 3.409a3.982 3.982 0 01-1.464-.265 3.537 3.537 0 01-1.159-.737 3.466 3.466 0 01-.766-1.12 3.479 3.479 0 01-.275-1.395c0-.505.091-.97.275-1.395.183-.426.438-.796.766-1.11a3.46 3.46 0 011.159-.747 3.938 3.938 0 011.464-.265 3.83 3.83 0 011.444.265c.446.17.832.416 1.16.737.334.314.589.684.766 1.11.183.426.275.894.275 1.405 0 .51-.092.979-.275 1.405a3.295 3.295 0 01-.766 1.12c-.328.314-.714.56-1.16.737-.439.17-.92.255-1.444.255zm0-.874c.38 0 .73-.066 1.051-.197a2.48 2.48 0 001.405-1.395c.138-.32.207-.671.207-1.051 0-.38-.069-.73-.207-1.052a2.436 2.436 0 00-.56-.835 2.41 2.41 0 00-.845-.56 2.754 2.754 0 00-1.051-.196c-.386 0-.743.066-1.071.197a2.545 2.545 0 00-.845.56 2.57 2.57 0 00-.57.835 2.756 2.756 0 00-.196 1.05c0 .38.065.731.196 1.052.138.32.328.603.57.845.243.236.524.42.845.55.328.131.685.197 1.071.197zm5.233.795v-6.877h2.682c.603 0 1.117.095 1.543.285.425.19.753.465.982.825.229.36.344.79.344 1.287 0 .498-.115.927-.344 1.287a2.27 2.27 0 01-.982.826c-.426.19-.94.285-1.543.285h-2.141l.442-.462v2.544h-.983zm.983-2.446l-.442-.491h2.112c.629 0 1.103-.134 1.424-.403.328-.269.492-.648.492-1.14 0-.49-.164-.87-.492-1.14-.321-.268-.795-.402-1.424-.402h-2.112l.442-.491v4.067zm9.391 1.985c-.839 0-1.556-.115-2.152-.344-.596-.236-1.051-.577-1.366-1.022-.314-.445-.471-.986-.471-1.621s.157-1.176.471-1.621c.315-.446.77-.786 1.366-1.022.596-.236 1.313-.353 2.152-.353h.245c.839 0 1.553.117 2.142.353.596.236 1.051.576 1.366 1.022.314.445.471.986.471 1.621 0 .629-.157 1.17-.471 1.621-.308.445-.757.786-1.346 1.022-.583.229-1.291.344-2.122.344h-.285zm.108-.767h.078c.668-.006 1.232-.091 1.69-.255.459-.17.806-.42 1.042-.747.242-.334.363-.743.363-1.228 0-.478-.121-.88-.363-1.208-.243-.328-.593-.577-1.052-.747-.452-.17-1.005-.255-1.66-.255h-.098c-.675 0-1.248.085-1.72.255-.465.164-.818.41-1.061.737-.242.327-.363.737-.363 1.228s.124.9.373 1.228c.249.328.606.576 1.071.747.472.163 1.038.245 1.7.245zm-.442 1.484v-7.388h.913v7.388h-.913zm6.069-.256v-6.877h.973v5.305l4.067-5.305h.904v6.877h-.963v-5.295l-4.077 5.295h-.904zm12.146-.854l-.226.255v-6.278h.962v6.278l-.245-.255h3.35l-.246.255v-6.278h.963v6.877h-8.616v-6.877h.973v6.278l-.246-.255h3.331z" fill="#202329"/><g opacity=".6" filter="url(#filter2_dd_2710_96674)"><rect x="220.15" y="68.414" width="35.88" height="28.98" rx="5.52" transform="rotate(-90 220.15 68.414)" fill="#ECF2F9"/><rect x="219.805" y="68.759" width="36.57" height="29.67" rx="5.865" transform="rotate(-90 219.805 68.76)" stroke="url(#paint6_linear_2710_96674)" stroke-width=".69"/></g><mask id="b" style="mask-type:alpha" maskUnits="userSpaceOnUse" x="220" y="32" width="29" height="37"><rect x="220.461" y="68.18" width="35.334" height="28.539" rx="5.52" transform="rotate(-90 220.461 68.18)" fill="#E5E9F4"/></mask><g mask="url(#b)"><path opacity=".6" d="M205.662 40.125H229.2m0 0v6.956m0-6.956h31.662M229.2 54.038v6.787m0-6.787h-23.538m23.538 0v-6.956m0 13.743h-23.538m23.538 0h7.834M229.2 47.08h-23.538m31.372 13.744h23.828m-23.828 0v-6.872m23.828-6.872h-22.847c-.542 0-.981.608-.981 1.358v5.514m0 0h23.828" stroke="url(#paint7_linear_2710_96674)" stroke-width=".966" stroke-linejoin="round"/></g><path d="M61.287 33.723a10.23 10.23 0 013.933 3.918c.952 1.67 1.427 3.559 1.427 5.664 0 2.107-.475 3.994-1.427 5.665a10.23 10.23 0 01-3.933 3.918c-1.67.941-3.559 1.412-5.664 1.412-1.884 0-3.58-.324-5.088-.972a9.82 9.82 0 01-3.781-2.825l3.128-2.915c1.498 1.68 3.33 2.52 5.498 2.52 1.559 0 2.88-.455 3.963-1.366 1.083-.911 1.787-2.136 2.11-3.675h-8.625V41.3h8.565c-.345-1.458-1.053-2.622-2.126-3.493-1.074-.87-2.369-1.306-3.888-1.306-2.166 0-3.998.84-5.497 2.52l-3.128-2.915a9.83 9.83 0 013.781-2.824c1.508-.648 3.204-.972 5.088-.972 2.105 0 3.993.47 5.664 1.412zm17.448 11.648h-3.402v8.564h-4.89v-21.26h4.89v8.595h3.523l5.589-8.595h5.193l-6.955 10.266 7.168 10.994h-5.588l-5.528-8.564zm53.985-11.754c1.386.627 2.455 1.518 3.204 2.672.749 1.154 1.124 2.521 1.124 4.1 0 1.56-.375 2.921-1.124 4.086-.749 1.164-1.818 2.055-3.204 2.672-1.387.618-3.022.927-4.905.927h-4.283v5.861h-4.92v-21.26h9.203c1.883 0 3.517.314 4.905.942zm-1.807 9.49c.769-.637 1.154-1.543 1.154-2.717 0-1.195-.385-2.111-1.154-2.75-.77-.637-1.894-.956-3.372-.956h-4.009v7.38h4.009c1.478 0 2.602-.318 3.372-.956zM98.718 52.68s4.593 2.66 10.155-.027c5.563-2.687 6.25-7.312 6.483-9.328.233-2.017-.464-5.08-1.849-5.849-1.385-.77-1.825.52-1.783 1.016.041.495 1.111 2.29 1.491 4.048.379 1.756.142 4.831-2.006 7.329-2.147 2.497-6.814 4.784-12.368 2.548l-.123.263zm3.283-.142s3.453.78 7.363-2.105c3.911-2.886 3.57-8.434 2.329-8.723-1.083-.252-1.352.675-1.236 1.362.115.687.486 2.228.179 3.47-.307 1.243-2.544 6.032-8.635 5.996zm2.297-.948s1.772-.173 3.829-2.127c2.058-1.954 1.255-4.321.273-4.437-.982-.115-.949.748-.862 1.263.086.515.613 1.489-.241 2.967s-2.301 2.006-2.999 2.334zM94.23 54.037s.445-1.881 1.326-3.147c0 0 1.664 1.225 4.306 2.313 0 0-.268-3.199-4.778-5.542 0 0-1.294-4.264 1.996-5.434 1.607-.572 3.992-.214 6.598-.635-.929-.59-2.314-1.767-2.574-3.649-1.34-.042-6.595.149-7.304 5.691 0 0-.317-6.173 7.261-6.26-.01-.793.175-1.698.654-2.72 0 0-1.765 4.445 2.848 6.764 2.481-.577 5.099-2.006 7.395-5.691 0 0-4.353-5.163-10.766-3.582-6.413 1.582-11.406 8.373-7.347 16.084 0 0-1.457 2.954.385 5.808zm11.063-17.788a.932.932 0 01-.061-1.344.999.999 0 011.383-.06c.4.356.426.958.061 1.345a.999.999 0 01-1.383.06zM93.05 33.82c-1.64 2.488-.63 5.891-.63 5.891 1.216-3.776 3.87-5.514 3.87-5.514l-3.24-.377zm8.868 8.372l-3.367.09-.898 1.782s1.927.525 4.265-1.872z" fill="url(#paint8_linear_2710_96674)"/><path d="M192.301 130.12c-.292 0-.546-.071-.762-.214-.212-.142-.395-.367-.548-.674l-.976-1.941a1.569 1.569 0 01-.132-.367 2.542 2.542 0 010-.878c.03-.138.074-.263.132-.372l.976-1.941c.146-.303.327-.526.543-.669.215-.146.471-.219.767-.219h1.667c.157 0 .283.044.378.131a.433.433 0 01.148.34.443.443 0 01-.148.34.548.548 0 01-.378.132h-1.667a.47.47 0 00-.257.076.546.546 0 00-.192.214l-.965 1.957a1.039 1.039 0 00-.088.445 1.03 1.03 0 00.088.449l.965 1.946a.578.578 0 00.192.22c.08.055.166.082.257.082h1.667c.157 0 .283.044.378.132a.431.431 0 01.148.339.432.432 0 01-.148.34.548.548 0 01-.378.132h-1.667zm6.439-2.379a.43.43 0 00-.313.137.443.443 0 00-.137.323v.526c0 .121.044.227.132.318a.457.457 0 00.329.132h1.255l1.015-.57-.011-.417a.412.412 0 00-.138-.318.449.449 0 00-.323-.131h-1.809zm.055-2.923h1.672c.38 0 .705.132.976.395.27.263.413.596.427.998l.126 3.372v.022a.517.517 0 01-.137.367.413.413 0 01-.323.148.439.439 0 01-.324-.126.58.58 0 01-.159-.346l-.548.346a.794.794 0 01-.208.088.682.682 0 01-.208.038h-1.338c-.388 0-.718-.137-.993-.411a1.33 1.33 0 01-.411-.982v-.526c0-.384.139-.713.417-.987.278-.278.607-.416.987-.416h1.798c.077 0 .148.007.214.021a.91.91 0 01.197.055l-.033-.663a.465.465 0 00-.137-.324.438.438 0 00-.323-.126h-1.672a.528.528 0 01-.373-.126.454.454 0 01-.132-.345c0-.139.046-.252.137-.34a.52.52 0 01.368-.132zm7.37 0h1.996c.307 0 .586.095.839.285.256.191.383.384.383.582a.445.445 0 01-.142.334.45.45 0 01-.329.137c-.117 0-.243-.066-.378-.197-.132-.132-.26-.198-.384-.198h-1.985a.257.257 0 00-.197.083.288.288 0 00-.077.213c0 .041.017.083.049.127a.326.326 0 00.121.098l2.549 1.086c.271.12.485.299.642.537.157.234.236.497.236.789 0 .392-.141.726-.423 1.004a1.37 1.37 0 01-1.003.422h-1.853c-.329 0-.638-.097-.926-.291-.289-.19-.434-.382-.434-.575 0-.125.044-.234.132-.329a.44.44 0 01.329-.143c.102 0 .241.066.417.198.175.131.336.197.482.197h1.853a.46.46 0 00.335-.143.464.464 0 00.065-.608.45.45 0 00-.224-.181l-2.533-1.102a1.226 1.226 0 01-.554-.45 1.156 1.156 0 01-.203-.658c0-.336.119-.623.357-.86a1.17 1.17 0 01.86-.357zm7.13-1.447v2.226l.685-.45.055-.038c.285-.194.566-.291.844-.291h.592c.384 0 .709.132.976.395.271.263.413.596.428.998l.115 3.372v.022a.532.532 0 01-.132.367.407.407 0 01-.318.148.479.479 0 01-.351-.137.55.55 0 01-.142-.367l-.115-3.405a.47.47 0 00-.143-.324.431.431 0 00-.318-.126h-.603a.425.425 0 00-.153.028 1.217 1.217 0 00-.187.109l-1.233.834v2.862a.534.534 0 01-.132.378.433.433 0 01-.34.148.433.433 0 01-.34-.148.552.552 0 01-.131-.378v-6.223c0-.161.042-.289.126-.384a.447.447 0 01.345-.142c.135 0 .247.049.335.148a.535.535 0 01.137.378zm8.746 2.39a.455.455 0 00-.17.033.554.554 0 00-.153.104l-.801.642a.372.372 0 00-.087.137.524.524 0 00-.033.186v1.201c0 .073.011.139.033.197a.277.277 0 00.093.132l.795.647c.055.044.11.078.164.104a.427.427 0 00.159.033h.73a.428.428 0 00.153-.027.708.708 0 00.17-.105l.318-.252a.324.324 0 00.093-.137.436.436 0 00.044-.186v-2.012a.419.419 0 00-.044-.176.324.324 0 00-.093-.137l-.313-.247a.577.577 0 00-.164-.109.462.462 0 00-.164-.028h-.73zm-1.244-2.39v2.078l.345-.302a1.41 1.41 0 01.899-.329h.73a1.42 1.42 0 01.91.329l.318.247c.142.11.261.263.356.461.099.197.148.387.148.57v2.045c0 .197-.048.396-.143.597a1.38 1.38 0 01-.361.483l-.318.246c-.136.106-.28.187-.434.242a1.365 1.365 0 01-.476.082h-.73c-.16 0-.321-.029-.482-.088a1.297 1.297 0 01-.417-.236l-.345-.307v.105a.534.534 0 01-.132.378.432.432 0 01-.34.148.433.433 0 01-.34-.148.552.552 0 01-.131-.378v-6.223c0-.161.042-.289.126-.384a.448.448 0 01.345-.142c.136 0 .247.049.335.148a.535.535 0 01.137.378zm7.952 4.37a.428.428 0 00-.313.137.443.443 0 00-.137.323v.526c0 .121.044.227.132.318a.457.457 0 00.329.132h1.255l1.014-.57-.011-.417a.411.411 0 00-.137-.318.449.449 0 00-.323-.131h-1.809zm.054-2.923h1.673c.38 0 .705.132.975.395.271.263.413.596.428.998l.126 3.372v.022a.522.522 0 01-.137.367.414.414 0 01-.323.148.439.439 0 01-.324-.126.58.58 0 01-.159-.346l-.548.346a.809.809 0 01-.208.088.687.687 0 01-.209.038h-1.337c-.388 0-.719-.137-.993-.411a1.33 1.33 0 01-.411-.982v-.526c0-.384.139-.713.417-.987.277-.278.606-.416.987-.416h1.798c.077 0 .148.007.214.021a.91.91 0 01.197.055l-.033-.663a.465.465 0 00-.137-.324.438.438 0 00-.323-.126h-1.673a.527.527 0 01-.372-.126.454.454 0 01-.132-.345c0-.139.046-.252.137-.34a.52.52 0 01.367-.132zm8.298 0h1.88c.154 0 .28.046.378.137.099.088.148.2.148.335a.432.432 0 01-.142.34c-.092.08-.219.12-.384.12h-1.88a.346.346 0 00-.159.039.64.64 0 00-.165.109l-.839.73a.343.343 0 00-.098.137.427.427 0 00-.039.175v1.047c0 .062.013.125.039.187a.384.384 0 00.093.137l.85.734a.689.689 0 00.17.105.409.409 0 00.148.027h1.88c.157 0 .283.044.378.132a.431.431 0 01.148.339.432.432 0 01-.148.34.544.544 0 01-.378.132h-1.88c-.158 0-.32-.031-.488-.093a1.344 1.344 0 01-.417-.231l-.844-.745a1.47 1.47 0 01-.368-.488 1.365 1.365 0 01-.126-.576v-1.036c0-.197.042-.387.126-.57.084-.187.207-.351.368-.494l.844-.74c.113-.098.252-.177.417-.235.168-.063.33-.094.488-.094zm6.202-1.447v3.684l2.435-2.1a.85.85 0 01.181-.115.448.448 0 01.493.104c.091.092.137.2.137.324a.48.48 0 01-.049.208.681.681 0 01-.143.187l-1.864 1.617 2.314 1.974c.069.058.12.118.153.181a.464.464 0 01-.082.537.427.427 0 01-.318.137.586.586 0 01-.197-.033.65.65 0 01-.176-.104l-2.423-2.072-.461.389v1.305a.534.534 0 01-.131.378.433.433 0 01-.34.148.433.433 0 01-.34-.148.548.548 0 01-.132-.378v-6.223c0-.161.042-.289.127-.384a.445.445 0 01.345-.142c.135 0 .247.049.334.148a.531.531 0 01.137.378zm-15.421 15.474h2.27v6.332h.91v-1.853c0-.161.042-.287.126-.378a.456.456 0 01.346-.137c.139 0 .252.047.34.142a.53.53 0 01.131.373v2.324a.432.432 0 01-.148.34.548.548 0 01-.378.132h-3.597a.552.552 0 01-.383-.132.441.441 0 01-.143-.34c0-.138.049-.252.148-.339a.548.548 0 01.378-.132h1.327v-5.389h-1.327a.558.558 0 01-.383-.126.45.45 0 01-.143-.346c0-.139.049-.252.148-.34a.552.552 0 01.378-.131zm7.919.943v5.389h2.763v-5.389h-2.763zm.099-.943h2.56c.336 0 .594.089.773.268.183.179.274.437.274.773v5.192c0 .337-.091.594-.274.773-.179.179-.437.269-.773.269h-2.56c-.336 0-.594-.09-.773-.269-.179-.179-.269-.436-.269-.773v-5.192c0-.336.09-.594.269-.773.179-.179.437-.268.773-.268zm9.717 5.537h.921c.135 0 .247.049.334.148a.533.533 0 01.138.378v.686a.534.534 0 01-.132.378.433.433 0 01-.34.148h-.921a.433.433 0 01-.34-.148.547.547 0 01-.131-.378v-.686c0-.161.042-.288.126-.383a.446.446 0 01.345-.143zm1.255-3.953l-3.634 4.682a.66.66 0 01-.187.165.46.46 0 01-.219.049.466.466 0 01-.335-.132.45.45 0 01-.104-.493.689.689 0 01.099-.175l3.64-4.672a.655.655 0 01.187-.164.43.43 0 01.219-.06c.124 0 .234.045.329.137a.434.434 0 01.143.323.415.415 0 01-.039.17.738.738 0 01-.099.17zm-4.04-1.584h.921c.135 0 .247.049.334.148a.531.531 0 01.137.378v.685a.542.542 0 01-.131.384.43.43 0 01-.34.143h-.921a.436.436 0 01-.34-.148.549.549 0 01-.132-.379v-.685c0-.161.042-.289.127-.384a.445.445 0 01.345-.142z" fill="url(#paint9_linear_2710_96674)"/><path d="M52.023 122.845c.157 0 .283.044.378.131a.434.434 0 01.148.34c0 .135-.05.249-.148.34a.547.547 0 01-.379.132h-1.326v5.389h1.327c.157 0 .283.044.378.132a.432.432 0 01.148.339c0 .139-.05.253-.148.34a.547.547 0 01-.379.132h-3.596a.555.555 0 01-.384-.132.44.44 0 01-.142-.34c0-.138.05-.252.148-.339a.547.547 0 01.378-.132h1.327v-5.389h-1.327a.555.555 0 01-.384-.132.442.442 0 01-.142-.34c0-.139.05-.252.148-.34a.551.551 0 01.378-.131h3.596zm3.042 0h1.168l1.157 1.639 1.157-1.639h1.167v6.749a.535.535 0 01-.131.378.433.433 0 01-.34.148.433.433 0 01-.34-.148.549.549 0 01-.132-.378v-5.412l-.91 1.256v.203a.558.558 0 01-.131.384.441.441 0 01-.34.142.433.433 0 01-.34-.148.549.549 0 01-.132-.378v-.203l-.91-1.256v5.412a.535.535 0 01-.132.378.433.433 0 01-.34.148.433.433 0 01-.34-.148.549.549 0 01-.13-.378v-6.749zm8.108.526v.587l1.382 1.727 1.382-1.727v-.587c0-.153.043-.28.131-.378a.433.433 0 01.34-.148c.139 0 .252.049.34.148a.535.535 0 01.132.378v.91l-1.853 2.336v2.977a.535.535 0 01-.132.378.433.433 0 01-.34.148.433.433 0 01-.34-.148.549.549 0 01-.132-.378v-2.977l-1.853-2.336v-.91a.56.56 0 01.127-.384.448.448 0 01.345-.142c.135 0 .247.049.334.148a.534.534 0 01.137.378zm8.547 1.628l-.762 2.594h1.514l-.752-2.594zm.505-1.628L74 129.473a.503.503 0 01.022.099.432.432 0 01-.126.411.451.451 0 01-.62.027.538.538 0 01-.175-.279l-.35-1.196h-2.057l-.356 1.19a.593.593 0 01-.187.296.438.438 0 01-.296.099.438.438 0 01-.318-.137.428.428 0 01-.131-.313.95.95 0 01.005-.12.54.54 0 01.017-.082l1.776-6.097c.055-.197.12-.334.197-.411a.44.44 0 01.318-.115c.128 0 .23.036.307.109.077.073.143.212.198.417zM47.9 138.845h4.123c.157 0 .283.044.378.131a.434.434 0 01.148.34c0 .135-.05.249-.148.34a.547.547 0 01-.379.132h-3.18v1.436h2.26c.153 0 .277.044.372.132a.44.44 0 01.143.34c0 .138-.05.252-.148.339a.52.52 0 01-.367.132h-2.26v3.427a.535.535 0 01-.13.378.433.433 0 01-.34.148.433.433 0 01-.34-.148.549.549 0 01-.132-.378v-6.749zm9.49 2.154l-.762 2.594h1.513l-.751-2.594zm.504-1.628l1.776 6.102a.44.44 0 01.022.099.432.432 0 01-.126.411.451.451 0 01-.62.027.538.538 0 01-.175-.279l-.35-1.196h-2.057l-.356 1.19a.593.593 0 01-.186.296.438.438 0 01-.296.099.438.438 0 01-.318-.137.428.428 0 01-.132-.313.95.95 0 01.005-.12.54.54 0 01.017-.082l1.776-6.097c.055-.197.12-.334.198-.411a.44.44 0 01.318-.115c.128 0 .23.036.307.109.076.073.142.212.197.417zm4.336-.526h1.168l1.157 1.639 1.157-1.639h1.168v6.749a.535.535 0 01-.132.378.433.433 0 01-.34.148.433.433 0 01-.34-.148.548.548 0 01-.131-.378v-5.412l-.91 1.256v.203a.558.558 0 01-.132.384.441.441 0 01-.34.142.433.433 0 01-.34-.148.549.549 0 01-.132-.378v-.203l-.91-1.256v5.412a.535.535 0 01-.131.378.433.433 0 01-.34.148.433.433 0 01-.34-.148.549.549 0 01-.132-.378v-6.749zm11.289 0c.157 0 .283.044.378.131a.434.434 0 01.148.34c0 .135-.05.249-.148.34a.547.547 0 01-.378.132h-1.327v5.389h1.327c.157 0 .283.044.378.132a.432.432 0 01.148.339c0 .139-.05.253-.148.34a.547.547 0 01-.378.132h-3.597a.555.555 0 01-.384-.132.44.44 0 01-.142-.34c0-.138.05-.252.148-.339a.547.547 0 01.378-.132h1.327v-5.389h-1.327a.555.555 0 01-.384-.132.442.442 0 01-.142-.34c0-.139.05-.252.148-.34a.551.551 0 01.378-.131h3.597zm3.985.526v5.806h3.18c.157 0 .283.044.378.132a.432.432 0 01.148.339c0 .139-.05.253-.148.34a.547.547 0 01-.378.132h-4.123v-6.749c0-.161.042-.289.126-.384a.448.448 0 01.346-.142c.135 0 .246.049.334.148a.534.534 0 01.137.378zm10.345-.526a.54.54 0 01.379.131.434.434 0 01.148.34c0 .135-.05.249-.148.34a.547.547 0 01-.379.132h-1.327v5.389h1.327c.157 0 .284.044.379.132a.432.432 0 01.148.339c0 .139-.05.253-.148.34a.547.547 0 01-.379.132h-3.596a.555.555 0 01-.384-.132.44.44 0 01-.142-.34c0-.138.049-.252.147-.339a.547.547 0 01.379-.132h1.327v-5.389h-1.327a.555.555 0 01-.384-.132.442.442 0 01-.142-.34c0-.139.049-.252.147-.34a.551.551 0 01.379-.131h3.596zm3.986.526v.587l1.381 1.727 1.382-1.727v-.587c0-.153.044-.28.132-.378a.433.433 0 01.34-.148c.138 0 .252.049.34.148a.535.535 0 01.131.378v.91l-1.853 2.336v2.977a.535.535 0 01-.132.378.433.433 0 01-.34.148.433.433 0 01-.34-.148.549.549 0 01-.131-.378v-2.977l-1.853-2.336v-.91c0-.161.042-.289.126-.384a.448.448 0 01.345-.142c.136 0 .247.049.335.148a.534.534 0 01.137.378zm8.547 1.628l-.762 2.594h1.513l-.751-2.594zm.504-1.628l1.776 6.102a.44.44 0 01.022.099.43.43 0 01-.126.411.45.45 0 01-.619.027.54.54 0 01-.176-.279l-.351-1.196h-2.056l-.356 1.19a.593.593 0 01-.186.296.438.438 0 01-.296.099.438.438 0 01-.318-.137.428.428 0 01-.132-.313.95.95 0 01.006-.12.54.54 0 01.016-.082l1.776-6.097c.055-.197.121-.334.198-.411a.439.439 0 01.318-.115c.128 0 .23.036.307.109.077.073.142.212.197.417z" fill="url(#paint10_linear_2710_96674)"/><defs><linearGradient id="paint0_linear_2710_96674" x1="197.306" y1="-2.046" x2="-190.364" y2="420.463" gradientUnits="userSpaceOnUse"><stop offset=".335" stop-color="#EBF2F9"/><stop offset="1" stop-color="#C6D7EB"/></linearGradient><linearGradient id="paint1_linear_2710_96674" x1="165.37" y1="158.33" x2="-32.529" y2="217.736" gradientUnits="userSpaceOnUse"><stop offset=".263" stop-color="#fff"/><stop offset=".507" stop-color="#DBE6F2" stop-opacity="0"/><stop offset="1" stop-color="#8F9FAE"/></linearGradient><linearGradient id="paint2_linear_2710_96674" x1="197.306" y1="-2.046" x2="-190.364" y2="420.463" gradientUnits="userSpaceOnUse"><stop offset=".335" stop-color="#EBF2F9"/><stop offset="1" stop-color="#C6D7EB"/></linearGradient><linearGradient id="paint3_linear_2710_96674" x1="165.37" y1="158.33" x2="-32.529" y2="217.736" gradientUnits="userSpaceOnUse"><stop offset=".263" stop-color="#fff"/><stop offset=".507" stop-color="#DBE6F2" stop-opacity="0"/><stop offset="1" stop-color="#8F9FAE"/></linearGradient><linearGradient id="paint4_linear_2710_96674" x1="74.033" y1="67.809" x2="90.007" y2="124.691" gradientUnits="userSpaceOnUse"><stop stop-color="#FFCB05" stop-opacity="0"/><stop offset="1" stop-color="#FFA200"/></linearGradient><linearGradient id="paint5_linear_2710_96674" x1="25.701" y1="56.406" x2="75.099" y2="9.195" gradientUnits="userSpaceOnUse"><stop offset=".263" stop-color="#FFE583"/><stop offset=".507" stop-color="#FFCB05"/><stop offset="1" stop-color="#FFB101"/></linearGradient><linearGradient id="paint6_linear_2710_96674" x1="242.575" y1="68.414" x2="233.95" y2="104.984" gradientUnits="userSpaceOnUse"><stop offset=".15" stop-color="#fff"/><stop offset="1" stop-color="#37536F" stop-opacity=".4"/></linearGradient><linearGradient id="paint7_linear_2710_96674" x1="256.722" y1="60.825" x2="210.492" y2="34.605" gradientUnits="userSpaceOnUse"><stop stop-color="#48647D"/><stop offset=".234" stop-color="#6B8299"/><stop offset=".443" stop-color="#DAE2EB"/><stop offset=".682" stop-color="#8CA2B7"/><stop offset="1" stop-color="#EDF2F7"/></linearGradient><linearGradient id="paint8_linear_2710_96674" x1="137.048" y1="54.3" x2="-152.164" y2="8.78" gradientUnits="userSpaceOnUse"><stop stop-color="#202F45"/><stop offset="1" stop-color="#6E8BB3" stop-opacity="0"/></linearGradient><linearGradient id="paint9_linear_2710_96674" x1="248.155" y1="153.245" x2="94.777" y2="115.732" gradientUnits="userSpaceOnUse"><stop stop-color="#202E43"/><stop offset="1" stop-color="#9BABC0" stop-opacity=".4"/></linearGradient><linearGradient id="paint10_linear_2710_96674" x1="204.649" y1="153.245" x2="-92.272" y2="-29.836" gradientUnits="userSpaceOnUse"><stop stop-color="#202E43"/><stop offset=".777" stop-color="#9BABC0" stop-opacity=".4"/></linearGradient><filter id="filter0_d_2710_96674" x="10.965" y="-.442" width="282.105" height="196.491" filterUnits="userSpaceOnUse" color-interpolation-filters="sRGB"><feFlood flood-opacity="0" result="BackgroundImageFix"/><feColorMatrix in="SourceAlpha" values="0 0 0 0 0 0 0 0 0 0 0 0 0 0 0 0 0 0 127 0" result="hardAlpha"/><feOffset dx="7.018" dy="5.614"/><feGaussianBlur stdDeviation="10.526"/><feColorMatrix values="0 0 0 0 0.0705882 0 0 0 0 0.239216 0 0 0 0 0.396078 0 0 0 0.26 0"/><feBlend in2="BackgroundImageFix" result="effect1_dropShadow_2710_96674"/><feBlend in="SourceGraphic" in2="effect1_dropShadow_2710_96674" result="shape"/></filter><filter id="filter1_dd_2710_96674" x="-3.07" y="60.616" width="196.491" height="64.561" filterUnits="userSpaceOnUse" color-interpolation-filters="sRGB"><feFlood flood-opacity="0" result="BackgroundImageFix"/><feColorMatrix in="SourceAlpha" values="0 0 0 0 0 0 0 0 0 0 0 0 0 0 0 0 0 0 127 0" result="hardAlpha"/><feOffset dy="1.404"/><feGaussianBlur stdDeviation="1.404"/><feColorMatrix values="0 0 0 0 0 0 0 0 0 0.027451 0 0 0 0 0.482353 0 0 0 0.04 0"/><feBlend in2="BackgroundImageFix" result="effect1_dropShadow_2710_96674"/><feColorMatrix in="SourceAlpha" values="0 0 0 0 0 0 0 0 0 0 0 0 0 0 0 0 0 0 127 0" result="hardAlpha"/><feOffset dy="5.614"/><feGaussianBlur stdDeviation="10.526"/><feColorMatrix values="0 0 0 0 0.0297049 0 0 0 0 0.159612 0 0 0 0 0.245833 0 0 0 0.26 0"/><feBlend in2="effect1_dropShadow_2710_96674" result="effect2_dropShadow_2710_96674"/><feBlend in="SourceGraphic" in2="effect2_dropShadow_2710_96674" result="shape"/></filter><filter id="filter2_dd_2710_96674" x="186.341" y="2.865" width="80.039" height="86.939" filterUnits="userSpaceOnUse" color-interpolation-filters="sRGB"><feFlood flood-opacity="0" result="BackgroundImageFix"/><feColorMatrix in="SourceAlpha" values="0 0 0 0 0 0 0 0 0 0 0 0 0 0 0 0 0 0 127 0" result="hardAlpha"/><feOffset dx="2.76" dy="2.76"/><feGaussianBlur stdDeviation="4.83"/><feColorMatrix values="0 0 0 0 0.534167 0 0 0 0 0.645967 0 0 0 0 0.749167 0 0 0 0.6 0"/><feBlend in2="BackgroundImageFix" result="effect1_dropShadow_2710_96674"/><feColorMatrix in="SourceAlpha" values="0 0 0 0 0 0 0 0 0 0 0 0 0 0 0 0 0 0 127 0" result="hardAlpha"/><feOffset dx="-8.28" dy="-4.14"/><feGaussianBlur stdDeviation="12.42"/><feColorMatrix values="0 0 0 0 1 0 0 0 0 1 0 0 0 0 1 0 0 0 1 0"/><feBlend in2="effect1_dropShadow_2710_96674" result="effect2_dropShadow_2710_96674"/><feBlend in="SourceGraphic" in2="effect2_dropShadow_2710_96674" result="shape"/></filter></defs></svg>