<svg width="48" height="48" fill="none" xmlns="http://www.w3.org/2000/svg"><rect width="48" height="48" rx="24" fill="#F4F7FB"/><path d="M20 18a1 1 0 100 2h8a1 1 0 100-2h-8zm-1 6a1 1 0 011-1h8a1 1 0 110 2h-8a1 1 0 01-1-1zm1 4a1 1 0 100 2h2.667a1 1 0 100-2H20zm5.333 0a1 1 0 100 2H28a1 1 0 100-2h-2.667z" fill="#203686"/><path fill-rule="evenodd" clip-rule="evenodd" d="M27.482 33.901c.112.028.221.069.325.12C30.193 35.215 33 33.48 33 30.813V17a4 4 0 00-4-4H19a4 4 0 00-4 4v13.812c0 2.668 2.807 4.402 5.193 3.21a1.59 1.59 0 01.325-.12l2.997-.75a2 2 0 01.97 0l2.997.75zM17 17a2 2 0 012-2h10a2 2 0 012 2v13.812a1.588 1.588 0 01-2.299 1.42 3.591 3.591 0 00-.734-.271l-2.997-.75a3.998 3.998 0 00-1.94 0l-2.997.75c-.254.063-.5.155-.734.272A1.588 1.588 0 0117 30.812V17z" fill="#203686"/></svg>