<svg width="48" height="48" fill="none" xmlns="http://www.w3.org/2000/svg"><rect width="48" height="48" rx="24" fill="#F4F7FB"/><path fill-rule="evenodd" clip-rule="evenodd" d="M24 14a5 5 0 100 10 5 5 0 000-10zm-3 5a3 3 0 116 0 3 3 0 01-6 0zm3 16c-1.54 0-3.77-.35-5.445-1.083-.822-.36-1.657-.874-2.143-1.62A2.44 2.44 0 0116 30.928c.005-.51.173-1 .456-1.455C17.826 27.266 20.626 25 24 25c3.373 0 6.175 2.266 7.544 4.473.283.455.45.944.456 1.455a2.44 2.44 0 01-.412 1.37c-.486.745-1.321 1.26-2.143 1.62C27.77 34.65 25.54 35 24 35zm-5.845-4.473c-.131.212-.154.349-.155.422 0 .068.017.148.087.256.166.256.57.574 1.27.88 1.37.6 3.316.915 4.643.915s3.273-.315 4.643-.915c.7-.306 1.104-.625 1.27-.88A.448.448 0 0030 30.95c0-.073-.024-.21-.155-.422C28.723 28.718 26.485 27 24 27c-2.484 0-4.723 1.718-5.845 3.527z" fill="#203686"/></svg>