<svg width="48" height="48" fill="none" xmlns="http://www.w3.org/2000/svg"><rect width="48" height="48" rx="24" fill="#F4F7FB"/><path fill-rule="evenodd" clip-rule="evenodd" d="M17.225 15A3.225 3.225 0 0014 18.225V29a4 4 0 004 4h12a4 4 0 004-4v-6.444a4 4 0 00-3.999-4H26.89a3.073 3.073 0 01-.138-.227c-.141-.252-.278-.548-.435-.887l-.116-.25c-.191-.41-.423-.89-.691-1.272-.223-.317-.71-.92-1.496-.92h-6.79zm7.263 3.252l.14.304H16v-.331c0-.677.548-1.225 1.225-1.225h6.597c.015.019.032.042.051.07.153.217.317.543.516.968l.099.214zM18 31a2 2 0 01-2-2v-8.444h14.001a2 2 0 011.999 2V23h-2a3 3 0 100 6h2a2 2 0 01-2 2H18zm11-5a1 1 0 011-1h2v2h-2a1 1 0 01-1-1zm-5.249-9.077l.013.01a.059.059 0 01-.013-.01z" fill="#203686"/></svg>