<svg width="48" height="48" fill="none" xmlns="http://www.w3.org/2000/svg"><rect width="48" height="48" rx="24" fill="#F4F7FB"/><path fill-rule="evenodd" clip-rule="evenodd" d="M24 17.497a4.5 4.5 0 100 9 4.5 4.5 0 000-9zm-2.5 4.5a2.5 2.5 0 115 0 2.5 2.5 0 01-5 0z" fill="#203686"/><path fill-rule="evenodd" clip-rule="evenodd" d="M19.81 15.59a7.555 7.555 0 0110.545 10.37l-3.831 5.96c-1.181 1.838-3.867 1.838-5.047 0l-3.832-5.96a7.555 7.555 0 012.164-10.37zm1.109 1.663a5.555 5.555 0 017.754 7.626l-3.832 5.96a1 1 0 01-1.682 0l-3.832-5.96a5.555 5.555 0 011.592-7.626z" fill="#203686"/><path clip-rule="evenodd" d="M24 17.497a4.5 4.5 0 100 9 4.5 4.5 0 000-9zm-2.5 4.5a2.5 2.5 0 115 0 2.5 2.5 0 01-5 0z" stroke="#fff" stroke-width=".2" stroke-linecap="round" stroke-linejoin="round"/><path clip-rule="evenodd" d="M19.81 15.59a7.555 7.555 0 0110.545 10.37l-3.831 5.96c-1.181 1.838-3.867 1.838-5.047 0l-3.832-5.96a7.555 7.555 0 012.164-10.37zm1.109 1.663a5.555 5.555 0 017.754 7.626l-3.832 5.96a1 1 0 01-1.682 0l-3.832-5.96a5.555 5.555 0 011.592-7.626z" stroke="#fff" stroke-width=".2" stroke-linecap="round" stroke-linejoin="round"/></svg>