<svg width="16" height="16" fill="none" xmlns="http://www.w3.org/2000/svg"><path d="M6.846 2.3a1.367 1.367 0 012.308 0l1.286 2.045c.187.298.484.511.828.595l2.365.577c.977.239 1.362 1.41.713 2.17l-1.57 1.84a1.333 1.333 0 00-.316.963l.175 2.402c.073.992-.934 1.716-1.867 1.34l-2.256-.906a1.374 1.374 0 00-1.024 0l-2.256.907c-.933.375-1.94-.349-1.867-1.341l.175-2.402a1.333 1.333 0 00-.316-.962l-1.57-1.84a1.338 1.338 0 01.713-2.17l2.365-.578c.344-.084.641-.297.828-.595l1.286-2.044z" fill="#FFED32"/></svg>