<svg width="370" height="255" viewBox="0 0 370 255" fill="none" xmlns="http://www.w3.org/2000/svg">
<g filter="url(#filter0_d_2710_96845)">
<rect x="37.0908" y="220" width="200" height="310.909" rx="21.4525" transform="rotate(-90 37.0908 220)" fill="url(#paint0_linear_2710_96845)"/>
<rect x="37.5377" y="219.553" width="199.106" height="310.016" rx="21.0056" transform="rotate(-90 37.5377 219.553)" stroke="url(#paint1_linear_2710_96845)" stroke-width="0.893855"/>
</g>
<mask id="mask0_2710_96845" style="mask-type:alpha" maskUnits="userSpaceOnUse" x="37" y="20" width="311" height="201">
<rect x="37.5377" y="219.553" width="199.106" height="310.016" rx="21.0056" transform="rotate(-90 37.5377 219.553)" fill="url(#paint2_linear_2710_96845)" stroke="url(#paint3_linear_2710_96845)" stroke-width="0.893855"/>
</mask>
<g mask="url(#mask0_2710_96845)">
<g opacity="0.2">
<path d="M183.319 262.034C183.319 262.034 221.152 283.931 266.969 261.813C312.786 239.696 318.448 201.635 320.365 185.042C322.279 168.445 316.542 143.24 305.131 136.908C293.723 130.572 290.104 141.191 290.446 145.265C290.788 149.339 299.602 164.12 302.725 178.581C305.848 193.037 303.901 218.341 286.21 238.896C268.52 259.447 230.078 278.273 184.332 259.868L183.319 262.034Z" fill="#0071BC"/>
<path d="M210.364 260.858C210.364 260.858 238.803 267.278 271.011 243.528C303.224 219.782 300.414 174.118 290.19 171.739C281.272 169.664 279.054 177.301 280.009 182.954C280.959 188.607 284.016 201.289 281.489 211.512C278.954 221.735 260.534 261.154 210.364 260.858Z" fill="#0071BC"/>
<path d="M229.286 253.06C229.286 253.06 243.875 251.635 260.823 235.554C277.771 219.473 271.159 199.989 263.066 199.039C254.978 198.093 255.253 205.192 255.966 209.429C256.679 213.666 261.019 221.686 253.985 233.85C246.952 246.015 235.04 250.36 229.286 253.06Z" fill="#0071BC"/>
<path d="M146.361 273.195C146.361 273.195 150.021 257.714 157.28 247.299C157.28 247.299 170.985 257.381 192.745 266.33C192.745 266.33 190.543 240.009 153.39 220.724C153.39 220.724 142.733 185.634 169.838 175.998C183.068 171.295 202.718 174.236 224.177 170.778C216.531 165.92 205.123 156.235 202.976 140.745C191.936 140.395 148.658 141.966 142.821 187.584C142.821 187.584 140.207 136.775 202.626 136.063C202.538 129.535 204.064 122.09 208.013 113.683C208.013 113.683 193.474 150.256 231.465 169.345C251.903 164.592 273.467 152.835 292.375 122.502C292.375 122.502 256.527 80.0132 203.702 93.0236C150.88 106.047 109.75 161.934 143.188 225.399C143.188 225.399 131.184 249.711 146.361 273.195ZM237.473 126.806C234.192 123.89 233.963 118.932 236.973 115.741C239.983 112.55 245.082 112.333 248.368 115.253C251.657 118.174 251.878 123.131 248.868 126.318C245.87 129.51 240.763 129.726 237.473 126.806Z" fill="#0071BC"/>
<path d="M163.318 109.916C163.318 109.916 141.462 124.218 131.443 155.297C131.443 155.297 123.121 127.285 136.638 106.813L163.318 109.916Z" fill="#0071BC"/>
<path d="M209.681 175.711L181.946 176.461L174.55 191.121C174.554 191.121 190.422 195.441 209.681 175.711Z" fill="#0071BC"/>
</g>
</g>
<g filter="url(#filter1_dd_2710_96845)">
<rect x="27.999" y="99.0938" width="200" height="29.0909" rx="9.09091" fill="#FFCB05"/>
<rect x="27.999" y="99.0938" width="200" height="29.0909" rx="9.09091" fill="url(#paint4_linear_2710_96845)"/>
<rect x="28.446" y="99.5407" width="199.106" height="28.1971" rx="8.64398" stroke="url(#paint5_linear_2710_96845)" stroke-width="0.893855"/>
</g>
<path d="M51.4439 116.22V110.34H53.0858V116.22H51.4439ZM49.2421 114.056V112.503H55.3003V114.056H49.2421ZM66.5491 117.734L63.7746 113.445L65.4419 112.44L68.8909 117.734H66.5491ZM60.7582 117.734V108.825H62.8073V117.734H60.7582ZM62.2091 114.145V112.427H65.3146V114.145H62.2091ZM65.6328 113.509L63.7364 113.28L66.6255 108.825H68.8019L65.6328 113.509ZM70.8919 114.96V113.598H74.4683V114.96H70.8919ZM71.8465 110.76C72.5931 110.76 73.2549 110.913 73.8319 111.218C74.4089 111.515 74.8628 111.931 75.1937 112.465C75.5246 113 75.6901 113.615 75.6901 114.311C75.6901 114.998 75.5246 115.613 75.1937 116.156C74.8628 116.691 74.4089 117.111 73.8319 117.416C73.2549 117.713 72.5931 117.862 71.8465 117.862C71.1931 117.862 70.5992 117.756 70.0646 117.543C69.5386 117.323 69.1016 117.009 68.7537 116.602L69.8865 115.533C70.141 115.787 70.421 115.986 70.7265 116.131C71.0404 116.266 71.3883 116.334 71.7701 116.334C72.1859 116.334 72.5465 116.25 72.8519 116.08C73.1659 115.91 73.4119 115.673 73.5901 115.367C73.7683 115.062 73.8574 114.71 73.8574 114.311C73.8574 113.903 73.7683 113.547 73.5901 113.242C73.4119 112.936 73.1659 112.699 72.8519 112.529C72.5465 112.359 72.1859 112.274 71.7701 112.274C71.3883 112.274 71.0404 112.346 70.7265 112.491C70.421 112.626 70.141 112.826 69.8865 113.089L68.7537 112.033C69.1016 111.617 69.5386 111.303 70.0646 111.091C70.5992 110.87 71.1931 110.76 71.8465 110.76ZM81.7081 116.105L81.2754 116.563V110.887H83.2608V116.563L82.8026 116.105H85.959L85.5136 116.563V110.887H87.4863V117.734H77.0372V110.887H79.0099V116.563L78.5645 116.105H81.7081ZM92.7898 117.887C92.2298 117.887 91.7207 117.806 91.2625 117.645C90.8043 117.476 90.4055 117.217 90.0661 116.869C89.7352 116.513 89.4764 116.059 89.2898 115.507C89.1116 114.956 89.0225 114.298 89.0225 113.534C89.0225 112.991 89.0692 112.495 89.1625 112.045C89.2558 111.596 89.3958 111.188 89.5825 110.823C89.7692 110.45 90.0068 110.123 90.2952 109.843C90.5922 109.555 90.9358 109.317 91.3261 109.131C91.7249 108.936 92.1746 108.787 92.6752 108.685L95.9334 108.036L96.2007 109.742L93.3243 110.314C93.1546 110.348 92.9595 110.395 92.7389 110.454C92.5268 110.505 92.3104 110.586 92.0898 110.696C91.8777 110.806 91.6783 110.963 91.4916 111.167C91.3134 111.362 91.1692 111.621 91.0589 111.943C90.9486 112.257 90.8934 112.648 90.8934 113.114C90.8934 113.259 90.8977 113.369 90.9061 113.445C90.9231 113.522 90.9358 113.602 90.9443 113.687C90.9613 113.772 90.9698 113.903 90.9698 114.082L90.3334 113.458C90.5201 113.059 90.7577 112.72 91.0461 112.44C91.3431 112.16 91.6825 111.948 92.0643 111.803C92.4546 111.651 92.8874 111.574 93.3625 111.574C94.0074 111.574 94.5716 111.706 95.0552 111.969C95.5474 112.223 95.9292 112.584 96.2007 113.051C96.4722 113.517 96.608 114.048 96.608 114.642C96.608 115.286 96.4468 115.855 96.1243 116.347C95.8019 116.831 95.3522 117.208 94.7752 117.48C94.2068 117.751 93.5449 117.887 92.7898 117.887ZM92.8916 116.347C93.2225 116.347 93.5152 116.275 93.7698 116.131C94.0243 115.978 94.2195 115.779 94.3552 115.533C94.4995 115.278 94.5716 114.994 94.5716 114.68C94.5716 114.374 94.4995 114.103 94.3552 113.865C94.2195 113.628 94.0243 113.441 93.7698 113.305C93.5152 113.17 93.2183 113.102 92.8789 113.102C92.548 113.102 92.251 113.17 91.988 113.305C91.7249 113.433 91.5213 113.611 91.3771 113.84C91.2328 114.069 91.1607 114.336 91.1607 114.642C91.1607 114.956 91.2328 115.244 91.3771 115.507C91.5298 115.762 91.7334 115.965 91.988 116.118C92.251 116.271 92.5522 116.347 92.8916 116.347ZM99.1927 114.96V113.598H102.769V114.96H99.1927ZM100.147 110.76C100.894 110.76 101.556 110.913 102.133 111.218C102.71 111.515 103.164 111.931 103.495 112.465C103.825 113 103.991 113.615 103.991 114.311C103.991 114.998 103.825 115.613 103.495 116.156C103.164 116.691 102.71 117.111 102.133 117.416C101.556 117.713 100.894 117.862 100.147 117.862C99.4939 117.862 98.9 117.756 98.3654 117.543C97.8394 117.323 97.4024 117.009 97.0545 116.602L98.1872 115.533C98.4418 115.787 98.7218 115.986 99.0272 116.131C99.3412 116.266 99.6891 116.334 100.071 116.334C100.487 116.334 100.847 116.25 101.153 116.08C101.467 115.91 101.713 115.673 101.891 115.367C102.069 115.062 102.158 114.71 102.158 114.311C102.158 113.903 102.069 113.547 101.891 113.242C101.713 112.936 101.467 112.699 101.153 112.529C100.847 112.359 100.487 112.274 100.071 112.274C99.6891 112.274 99.3412 112.346 99.0272 112.491C98.7218 112.626 98.4418 112.826 98.1872 113.089L97.0545 112.033C97.4024 111.617 97.8394 111.303 98.3654 111.091C98.9 110.87 99.4939 110.76 100.147 110.76ZM110.187 117.734L107.896 114.489L109.513 113.534L112.529 117.734H110.187ZM105.338 117.734V110.887H107.323V117.734H105.338ZM106.738 115.138V113.547H109.131V115.138H106.738ZM109.703 114.54L107.845 114.336L110.251 110.887H112.363L109.703 114.54ZM120.226 117.811C119.548 117.811 118.945 117.662 118.419 117.365C117.893 117.068 117.477 116.661 117.172 116.143C116.866 115.617 116.714 115.023 116.714 114.362C116.714 113.691 116.866 113.097 117.172 112.58C117.477 112.062 117.893 111.659 118.419 111.371C118.945 111.074 119.548 110.925 120.226 110.925C120.897 110.925 121.495 111.074 122.021 111.371C122.555 111.659 122.971 112.062 123.268 112.58C123.574 113.089 123.726 113.683 123.726 114.362C123.726 115.032 123.574 115.626 123.268 116.143C122.971 116.661 122.555 117.068 122.021 117.365C121.495 117.662 120.897 117.811 120.226 117.811ZM120.226 116.742C120.659 116.742 121.045 116.644 121.385 116.449C121.732 116.254 122.004 115.978 122.199 115.622C122.394 115.257 122.492 114.837 122.492 114.362C122.492 113.878 122.394 113.462 122.199 113.114C122.004 112.758 121.732 112.482 121.385 112.287C121.045 112.092 120.659 111.994 120.226 111.994C119.794 111.994 119.408 112.092 119.068 112.287C118.729 112.482 118.457 112.758 118.254 113.114C118.05 113.462 117.948 113.878 117.948 114.362C117.948 114.837 118.05 115.257 118.254 115.622C118.457 115.978 118.729 116.254 119.068 116.449C119.408 116.644 119.794 116.742 120.226 116.742ZM126.579 117.734V111.74L126.884 112.058H124.109V110.989H130.269V112.058H127.508L127.8 111.74V117.734H126.579ZM136.451 113.725V112.682H141.224V113.725H136.451ZM137.597 108.723C138.242 108.723 138.836 108.838 139.379 109.067C139.922 109.288 140.392 109.606 140.791 110.022C141.199 110.429 141.512 110.908 141.733 111.46C141.962 112.011 142.077 112.618 142.077 113.28C142.077 113.942 141.962 114.548 141.733 115.1C141.512 115.651 141.199 116.135 140.791 116.551C140.392 116.958 139.922 117.276 139.379 117.505C138.836 117.726 138.242 117.836 137.597 117.836C136.884 117.836 136.226 117.717 135.624 117.48C135.03 117.242 134.529 116.894 134.122 116.436L134.924 115.634C135.28 115.999 135.675 116.266 136.108 116.436C136.549 116.606 137.024 116.691 137.533 116.691C138 116.691 138.432 116.606 138.831 116.436C139.23 116.266 139.574 116.033 139.862 115.736C140.159 115.431 140.388 115.07 140.549 114.654C140.711 114.23 140.791 113.772 140.791 113.28C140.791 112.788 140.711 112.334 140.549 111.918C140.388 111.494 140.159 111.133 139.862 110.836C139.574 110.531 139.23 110.293 138.831 110.123C138.432 109.954 138 109.869 137.533 109.869C137.024 109.869 136.549 109.954 136.108 110.123C135.675 110.293 135.28 110.56 134.924 110.925L134.122 110.123C134.529 109.665 135.03 109.317 135.624 109.08C136.226 108.842 136.884 108.723 137.597 108.723ZM150.134 117.734L146.901 113.343L147.932 112.707L151.584 117.734H150.134ZM144.139 117.734V108.825H145.386V117.734H144.139ZM145.004 113.814V112.694H147.894V113.814H145.004ZM148.046 113.42L146.875 113.242L150.07 108.825H151.432L148.046 113.42ZM156.873 117.836C156.194 117.836 155.562 117.722 154.977 117.493C154.4 117.263 153.899 116.945 153.475 116.538C153.051 116.122 152.72 115.639 152.482 115.087C152.245 114.536 152.126 113.933 152.126 113.28C152.126 112.626 152.245 112.024 152.482 111.473C152.72 110.921 153.051 110.442 153.475 110.034C153.899 109.619 154.4 109.296 154.977 109.067C155.554 108.838 156.186 108.723 156.873 108.723C157.552 108.723 158.176 108.838 158.744 109.067C159.321 109.288 159.822 109.606 160.246 110.022C160.679 110.429 161.01 110.908 161.239 111.46C161.476 112.011 161.595 112.618 161.595 113.28C161.595 113.942 161.476 114.548 161.239 115.1C161.01 115.651 160.679 116.135 160.246 116.551C159.822 116.958 159.321 117.276 158.744 117.505C158.176 117.726 157.552 117.836 156.873 117.836ZM156.873 116.703C157.365 116.703 157.819 116.619 158.235 116.449C158.659 116.279 159.024 116.042 159.33 115.736C159.643 115.422 159.885 115.057 160.055 114.642C160.233 114.226 160.322 113.772 160.322 113.28C160.322 112.788 160.233 112.334 160.055 111.918C159.885 111.502 159.643 111.142 159.33 110.836C159.024 110.522 158.659 110.28 158.235 110.111C157.819 109.941 157.365 109.856 156.873 109.856C156.373 109.856 155.91 109.941 155.486 110.111C155.07 110.28 154.705 110.522 154.391 110.836C154.077 111.142 153.831 111.502 153.653 111.918C153.483 112.334 153.399 112.788 153.399 113.28C153.399 113.772 153.483 114.226 153.653 114.642C153.831 115.057 154.077 115.422 154.391 115.736C154.705 116.042 155.07 116.279 155.486 116.449C155.91 116.619 156.373 116.703 156.873 116.703ZM163.652 117.734V108.825H167.127C167.908 108.825 168.574 108.948 169.125 109.194C169.677 109.44 170.101 109.797 170.398 110.263C170.695 110.73 170.843 111.286 170.843 111.931C170.843 112.576 170.695 113.131 170.398 113.598C170.101 114.056 169.677 114.413 169.125 114.667C168.574 114.913 167.908 115.036 167.127 115.036H164.352L164.925 114.438V117.734H163.652ZM164.925 114.565L164.352 113.929H167.089C167.903 113.929 168.519 113.755 168.934 113.407C169.359 113.059 169.571 112.567 169.571 111.931C169.571 111.294 169.359 110.802 168.934 110.454C168.519 110.106 167.903 109.933 167.089 109.933H164.352L164.925 109.296V114.565ZM177.091 117.136C176.005 117.136 175.076 116.988 174.303 116.691C173.531 116.385 172.942 115.944 172.534 115.367C172.127 114.79 171.923 114.09 171.923 113.267C171.923 112.444 172.127 111.744 172.534 111.167C172.942 110.59 173.531 110.149 174.303 109.843C175.076 109.538 176.005 109.385 177.091 109.385C177.108 109.385 177.137 109.385 177.18 109.385C177.231 109.385 177.277 109.385 177.32 109.385C177.371 109.385 177.4 109.385 177.409 109.385C178.495 109.385 179.42 109.538 180.183 109.843C180.956 110.149 181.545 110.59 181.953 111.167C182.36 111.744 182.563 112.444 182.563 113.267C182.563 114.082 182.36 114.782 181.953 115.367C181.554 115.944 180.973 116.385 180.209 116.691C179.454 116.988 178.537 117.136 177.46 117.136C177.443 117.136 177.405 117.136 177.345 117.136C177.294 117.136 177.243 117.136 177.193 117.136C177.142 117.136 177.108 117.136 177.091 117.136ZM177.231 116.143C177.248 116.143 177.269 116.143 177.294 116.143C177.32 116.143 177.333 116.143 177.333 116.143C178.198 116.135 178.928 116.025 179.522 115.813C180.116 115.592 180.565 115.27 180.871 114.845C181.185 114.413 181.342 113.882 181.342 113.254C181.342 112.635 181.185 112.113 180.871 111.689C180.557 111.265 180.103 110.942 179.509 110.722C178.923 110.501 178.207 110.391 177.358 110.391C177.35 110.391 177.328 110.391 177.294 110.391C177.269 110.391 177.248 110.391 177.231 110.391C176.357 110.391 175.614 110.501 175.003 110.722C174.401 110.934 173.943 111.252 173.629 111.676C173.315 112.1 173.158 112.631 173.158 113.267C173.158 113.903 173.319 114.434 173.642 114.858C173.964 115.282 174.427 115.605 175.029 115.825C175.64 116.037 176.374 116.143 177.231 116.143ZM176.658 118.065V108.494H177.842V118.065H176.658ZM184.521 117.734V108.825H185.781V115.698L191.05 108.825H192.221V117.734H190.973V110.874L185.692 117.734H184.521ZM200.255 116.627L199.962 116.958V108.825H201.209V116.958L200.891 116.627H205.231L204.913 116.958V108.825H206.16V117.734H194.998V108.825H196.258V116.958L195.94 116.627H200.255Z" fill="#202329"/>
<g opacity="0.6" filter="url(#filter2_dd_2710_96845)">
<rect x="289.899" y="89.1875" width="46.4804" height="37.5419" rx="7.15084" transform="rotate(-90 289.899 89.1875)" fill="#ECF2F9"/>
<rect x="289.452" y="89.6344" width="47.3743" height="38.4358" rx="7.59777" transform="rotate(-90 289.452 89.6344)" stroke="url(#paint6_linear_2710_96845)" stroke-width="0.893855"/>
</g>
<mask id="mask1_2710_96845" style="mask-type:alpha" maskUnits="userSpaceOnUse" x="289" y="42" width="40" height="48">
<rect x="289.913" y="90" width="47.2727" height="38.1818" rx="3.63636" transform="rotate(-90 289.913 90)" fill="#E5E9F4"/>
</mask>
<g mask="url(#mask1_2710_96845)">
<path opacity="0.6" d="M271.128 52.5469L301.62 52.5469M301.62 52.5469V61.5587M301.62 52.5469L342.636 52.5469M301.62 70.5705V79.3625M301.62 70.5705L271.128 70.5705M301.62 70.5705V61.5587M301.62 79.3625L271.128 79.3625M301.62 79.3625H311.769M301.62 61.5587H271.128M311.769 79.3625L342.636 79.3625M311.769 79.3625V70.4606M342.636 61.5587H313.039C312.337 61.5587 311.769 62.346 311.769 63.3171V70.4606M311.769 70.4606H342.636" stroke="url(#paint7_linear_2710_96845)" stroke-width="1.2514" stroke-linejoin="round"/>
</g>
<path d="M84.0992 44.247C86.2632 45.4667 87.9609 47.1585 89.1944 49.3225C90.4272 51.4865 91.0436 53.9325 91.0436 56.6604C91.0436 59.389 90.4272 61.8343 89.1944 63.9983C87.9609 66.1623 86.2632 67.8541 84.0992 69.0739C81.9352 70.2936 79.4892 70.9034 76.7613 70.9034C74.3219 70.9034 72.1244 70.4837 70.171 69.6444C68.2168 68.805 66.584 67.5853 65.2725 65.9852L69.325 62.2081C71.2661 64.3859 73.6392 65.4738 76.4465 65.4738C78.4663 65.4738 80.1778 64.8836 81.5811 63.7032C82.9838 62.5229 83.8959 60.9359 84.3156 58.9424H73.1415V54.0636H84.2369C83.7903 52.175 82.8729 50.6668 81.4827 49.5389C80.0919 48.4117 78.4138 47.8471 76.4465 47.8471C73.6392 47.8471 71.2661 48.9356 69.325 51.1127L65.2725 47.3356C66.584 45.7362 68.2168 44.5165 70.171 43.6765C72.1244 42.8371 74.3219 42.4174 76.7613 42.4174C79.4892 42.4174 81.9352 43.0273 84.0992 44.247ZM106.702 59.3359H102.296V70.4313H95.9611V42.8895H102.296V54.0243H106.86L114.099 42.8895H120.827L111.817 56.1883L121.103 70.4313H113.863L106.702 59.3359ZM176.637 44.1093C178.434 44.9224 179.818 46.0765 180.788 47.5716C181.758 49.0668 182.244 50.8373 182.244 52.8833C182.244 54.9036 181.758 56.667 180.788 58.1752C179.818 59.6841 178.434 60.8376 176.637 61.6376C174.841 62.4383 172.723 62.8376 170.283 62.8376H164.735V70.4313H158.361V42.8895H170.283C172.723 42.8895 174.84 43.2961 176.637 44.1093ZM174.296 56.4047C175.293 55.5784 175.791 54.4046 175.791 52.8833C175.791 51.3357 175.293 50.1488 174.296 49.3225C173.299 48.4963 171.843 48.0831 169.929 48.0831H164.735V57.644H169.929C171.843 57.644 173.299 57.2309 174.296 56.4047ZM132.589 68.805C132.589 68.805 138.539 72.2516 145.745 68.7702C152.952 65.2888 153.842 59.2979 154.144 56.686C154.445 54.0735 153.542 50.1061 151.748 49.1094C149.953 48.112 149.384 49.7835 149.438 50.4248C149.492 51.0662 150.878 53.3928 151.369 55.6689C151.86 57.9444 151.554 61.9274 148.772 65.1629C145.989 68.3978 139.943 71.3611 132.748 68.464L132.589 68.805ZM136.843 68.6214C136.843 68.6214 141.316 69.6319 146.382 65.8934C151.448 62.1556 151.006 54.9679 149.398 54.5935C147.995 54.2669 147.646 55.4689 147.797 56.3588C147.946 57.2486 148.427 59.2447 148.029 60.854C147.631 62.4632 144.734 68.6679 136.843 68.6214ZM139.819 67.3932C139.819 67.3932 142.113 67.1689 144.779 64.6377C147.444 62.1065 146.404 59.0395 145.132 58.89C143.859 58.7411 143.903 59.8585 144.015 60.5254C144.127 61.1923 144.81 62.4547 143.703 64.3695C142.597 66.2843 140.723 66.9682 139.819 67.3932ZM126.776 70.5624C126.776 70.5624 127.351 68.1256 128.493 66.4862C128.493 66.4862 130.649 68.0732 134.071 69.4817C134.071 69.4817 133.725 65.3387 127.881 62.3032C127.881 62.3032 126.205 56.7798 130.468 55.263C132.549 54.5226 135.64 54.9856 139.015 54.4413C137.812 53.6767 136.018 52.1521 135.68 49.714C133.944 49.6589 127.137 49.9061 126.219 57.0866C126.219 57.0866 125.808 49.0891 135.625 48.9769C135.611 47.9494 135.851 46.7775 136.472 45.4542C136.472 45.4542 134.186 51.2111 140.161 54.2158C143.376 53.4675 146.767 51.617 149.741 46.8424C149.741 46.8424 144.103 40.1544 135.794 42.2023C127.487 44.2522 121.018 53.0492 126.277 63.0389C126.277 63.0389 124.389 66.8659 126.776 70.5624ZM141.107 47.5198C140.591 47.0608 140.554 46.2805 141.028 45.7782C141.501 45.2758 142.303 45.2417 142.82 45.7014C143.337 46.1611 143.372 46.9415 142.899 47.4431C142.427 47.9454 141.624 47.9795 141.107 47.5198ZM125.247 44.3729C123.122 47.5952 124.43 52.0045 124.43 52.0045C126.006 47.1126 129.443 44.8614 129.443 44.8614L125.247 44.3729ZM136.735 55.2177L132.373 55.3358L131.21 57.6434C131.211 57.6434 133.706 58.3234 136.735 55.2177Z" fill="url(#paint8_linear_2710_96845)"/>
<path d="M235.735 168.951C235.262 168.951 234.85 168.836 234.501 168.605C234.158 168.374 233.862 168.01 233.613 167.513L232.033 164.37C231.938 164.187 231.867 163.988 231.82 163.775C231.779 163.562 231.758 163.331 231.758 163.083C231.758 162.822 231.779 162.58 231.82 162.355C231.867 162.13 231.938 161.929 232.033 161.751L233.613 158.608C233.85 158.117 234.143 157.756 234.492 157.525C234.841 157.288 235.256 157.17 235.735 157.17H238.434C238.689 157.17 238.893 157.241 239.047 157.383C239.206 157.525 239.286 157.709 239.286 157.934C239.286 158.153 239.206 158.336 239.047 158.484C238.887 158.626 238.683 158.697 238.434 158.697H235.735C235.587 158.697 235.448 158.739 235.318 158.821C235.188 158.904 235.084 159.02 235.007 159.168L233.445 162.337C233.397 162.444 233.362 162.556 233.338 162.674C233.314 162.793 233.303 162.92 233.303 163.056C233.303 163.198 233.314 163.328 233.338 163.447C233.362 163.565 233.397 163.678 233.445 163.784L235.007 166.936C235.084 167.084 235.188 167.202 235.318 167.291C235.448 167.38 235.587 167.424 235.735 167.424H238.434C238.689 167.424 238.893 167.495 239.047 167.637C239.206 167.779 239.286 167.963 239.286 168.188C239.286 168.412 239.206 168.596 239.047 168.738C238.887 168.88 238.683 168.951 238.434 168.951H235.735ZM246.161 165.098C245.972 165.098 245.803 165.172 245.655 165.32C245.507 165.468 245.433 165.643 245.433 165.844V166.696C245.433 166.891 245.504 167.063 245.646 167.211C245.794 167.353 245.972 167.424 246.179 167.424H248.212L249.854 166.501L249.837 165.826C249.837 165.619 249.763 165.447 249.615 165.311C249.467 165.169 249.292 165.098 249.091 165.098H246.161ZM246.25 160.366H248.958C249.573 160.366 250.1 160.579 250.538 161.005C250.976 161.431 251.207 161.97 251.231 162.621L251.435 168.081V168.116C251.435 168.353 251.361 168.551 251.213 168.711C251.071 168.871 250.896 168.951 250.689 168.951C250.476 168.951 250.301 168.883 250.165 168.747C250.029 168.617 249.943 168.43 249.908 168.188L249.02 168.747C248.925 168.806 248.813 168.853 248.683 168.889C248.558 168.93 248.446 168.951 248.345 168.951H246.179C245.552 168.951 245.016 168.729 244.572 168.285C244.128 167.847 243.906 167.317 243.906 166.696V165.844C243.906 165.222 244.131 164.69 244.581 164.246C245.031 163.796 245.564 163.571 246.179 163.571H249.091C249.215 163.571 249.331 163.583 249.437 163.607C249.55 163.624 249.656 163.654 249.757 163.695L249.704 162.621C249.692 162.402 249.618 162.228 249.482 162.097C249.345 161.961 249.171 161.893 248.958 161.893H246.25C245.996 161.893 245.794 161.825 245.646 161.689C245.504 161.553 245.433 161.366 245.433 161.13C245.433 160.905 245.507 160.721 245.655 160.579C245.809 160.437 246.007 160.366 246.25 160.366ZM258.185 160.366H261.417C261.914 160.366 262.367 160.52 262.775 160.828C263.19 161.136 263.397 161.449 263.397 161.769C263.397 161.982 263.32 162.162 263.166 162.31C263.018 162.458 262.84 162.532 262.633 162.532C262.444 162.532 262.24 162.426 262.021 162.213C261.808 162 261.6 161.893 261.399 161.893H258.185C258.055 161.893 257.949 161.938 257.866 162.026C257.783 162.109 257.742 162.225 257.742 162.373C257.742 162.438 257.768 162.506 257.821 162.577C257.875 162.648 257.94 162.701 258.017 162.737L262.145 164.494C262.583 164.69 262.929 164.98 263.184 165.364C263.438 165.743 263.565 166.169 263.565 166.643C263.565 167.276 263.338 167.818 262.882 168.267C262.426 168.723 261.885 168.951 261.257 168.951H258.256C257.724 168.951 257.224 168.794 256.756 168.48C256.289 168.173 256.055 167.862 256.055 167.548C256.055 167.347 256.126 167.17 256.268 167.016C256.416 166.862 256.593 166.785 256.801 166.785C256.966 166.785 257.191 166.891 257.475 167.104C257.759 167.317 258.02 167.424 258.256 167.424H261.257C261.464 167.424 261.645 167.347 261.799 167.193C261.959 167.039 262.038 166.856 262.038 166.643C262.038 166.483 261.994 166.338 261.905 166.208C261.816 166.072 261.695 165.974 261.541 165.915L257.44 164.13C257.061 163.971 256.762 163.728 256.543 163.402C256.324 163.077 256.215 162.722 256.215 162.337C256.215 161.792 256.407 161.328 256.792 160.943C257.176 160.558 257.641 160.366 258.185 160.366ZM269.73 158.022V161.627L270.84 160.899C270.864 160.881 270.893 160.86 270.929 160.837C271.39 160.523 271.846 160.366 272.296 160.366H273.255C273.876 160.366 274.403 160.579 274.835 161.005C275.273 161.431 275.504 161.97 275.527 162.621L275.714 168.081V168.116C275.714 168.353 275.643 168.551 275.501 168.711C275.359 168.871 275.187 168.951 274.986 168.951C274.755 168.951 274.566 168.877 274.418 168.729C274.276 168.581 274.199 168.383 274.187 168.134L274 162.621C273.989 162.408 273.912 162.233 273.77 162.097C273.633 161.961 273.462 161.893 273.255 161.893H272.278C272.189 161.893 272.107 161.908 272.03 161.938C271.959 161.967 271.858 162.026 271.728 162.115L269.73 163.464V168.099C269.73 168.353 269.659 168.557 269.517 168.711C269.375 168.871 269.192 168.951 268.967 168.951C268.742 168.951 268.558 168.871 268.416 168.711C268.274 168.551 268.203 168.347 268.203 168.099V158.022C268.203 157.762 268.271 157.555 268.407 157.401C268.549 157.247 268.736 157.17 268.967 157.17C269.186 157.17 269.366 157.25 269.508 157.41C269.656 157.57 269.73 157.774 269.73 158.022ZM283.894 161.893C283.799 161.893 283.707 161.911 283.619 161.946C283.536 161.982 283.453 162.038 283.37 162.115L282.074 163.154C282.021 163.201 281.973 163.275 281.932 163.376C281.896 163.47 281.879 163.571 281.879 163.678V165.622C281.879 165.74 281.896 165.847 281.932 165.941C281.967 166.036 282.018 166.107 282.083 166.154L283.37 167.202C283.459 167.273 283.548 167.329 283.636 167.371C283.725 167.406 283.811 167.424 283.894 167.424H285.075C285.163 167.424 285.246 167.409 285.323 167.38C285.4 167.35 285.492 167.294 285.598 167.211L286.113 166.803C286.173 166.755 286.223 166.681 286.264 166.581C286.312 166.48 286.335 166.379 286.335 166.279V163.021C286.335 162.932 286.312 162.837 286.264 162.737C286.223 162.636 286.173 162.562 286.113 162.515L285.607 162.115C285.507 162.026 285.418 161.967 285.341 161.938C285.264 161.908 285.175 161.893 285.075 161.893H283.894ZM281.879 158.022V161.387L282.438 160.899C282.633 160.733 282.858 160.603 283.113 160.508C283.373 160.413 283.633 160.366 283.894 160.366H285.075C285.347 160.366 285.607 160.411 285.856 160.499C286.104 160.588 286.335 160.721 286.548 160.899L287.063 161.298C287.294 161.476 287.486 161.724 287.64 162.044C287.8 162.364 287.88 162.671 287.88 162.967V166.279C287.88 166.598 287.803 166.921 287.649 167.246C287.495 167.572 287.3 167.832 287.063 168.028L286.548 168.427C286.329 168.599 286.096 168.729 285.847 168.818C285.604 168.907 285.347 168.951 285.075 168.951H283.894C283.633 168.951 283.373 168.904 283.113 168.809C282.858 168.72 282.633 168.593 282.438 168.427L281.879 167.93V168.099C281.879 168.353 281.808 168.557 281.666 168.711C281.524 168.871 281.34 168.951 281.115 168.951C280.89 168.951 280.707 168.871 280.565 168.711C280.423 168.551 280.352 168.347 280.352 168.099V158.022C280.352 157.762 280.42 157.555 280.556 157.401C280.698 157.247 280.884 157.17 281.115 157.17C281.334 157.17 281.515 157.25 281.657 157.41C281.805 157.57 281.879 157.774 281.879 158.022ZM294.755 165.098C294.566 165.098 294.397 165.172 294.249 165.32C294.101 165.468 294.027 165.643 294.027 165.844V166.696C294.027 166.891 294.098 167.063 294.24 167.211C294.388 167.353 294.566 167.424 294.773 167.424H296.806L298.448 166.501L298.43 165.826C298.43 165.619 298.357 165.447 298.209 165.311C298.061 165.169 297.886 165.098 297.685 165.098H294.755ZM294.844 160.366H297.552C298.167 160.366 298.694 160.579 299.132 161.005C299.57 161.431 299.801 161.97 299.824 162.621L300.029 168.081V168.116C300.029 168.353 299.955 168.551 299.807 168.711C299.665 168.871 299.49 168.951 299.283 168.951C299.07 168.951 298.895 168.883 298.759 168.747C298.623 168.617 298.537 168.43 298.502 168.188L297.614 168.747C297.519 168.806 297.407 168.853 297.276 168.889C297.152 168.93 297.04 168.951 296.939 168.951H294.773C294.145 168.951 293.61 168.729 293.166 168.285C292.722 167.847 292.5 167.317 292.5 166.696V165.844C292.5 165.222 292.725 164.69 293.175 164.246C293.625 163.796 294.157 163.571 294.773 163.571H297.685C297.809 163.571 297.924 163.583 298.031 163.607C298.143 163.624 298.25 163.654 298.351 163.695L298.297 162.621C298.285 162.402 298.212 162.228 298.075 162.097C297.939 161.961 297.765 161.893 297.552 161.893H294.844C294.589 161.893 294.388 161.825 294.24 161.689C294.098 161.553 294.027 161.366 294.027 161.13C294.027 160.905 294.101 160.721 294.249 160.579C294.403 160.437 294.601 160.366 294.844 160.366ZM308.28 160.366H311.325C311.573 160.366 311.777 160.44 311.937 160.588C312.097 160.73 312.177 160.911 312.177 161.13C312.177 161.36 312.1 161.544 311.946 161.68C311.798 161.81 311.591 161.875 311.325 161.875H308.28C308.191 161.875 308.105 161.896 308.022 161.938C307.939 161.973 307.85 162.032 307.756 162.115L306.397 163.296C306.332 163.349 306.279 163.423 306.238 163.518C306.196 163.612 306.176 163.707 306.176 163.802V165.498C306.176 165.598 306.196 165.699 306.238 165.799C306.279 165.894 306.329 165.968 306.389 166.021L307.765 167.211C307.871 167.294 307.963 167.35 308.04 167.38C308.117 167.409 308.197 167.424 308.28 167.424H311.325C311.579 167.424 311.783 167.495 311.937 167.637C312.097 167.779 312.177 167.963 312.177 168.188C312.177 168.412 312.097 168.596 311.937 168.738C311.777 168.88 311.573 168.951 311.325 168.951H308.28C308.025 168.951 307.762 168.901 307.489 168.8C307.223 168.705 306.998 168.581 306.815 168.427L305.448 167.22C305.187 166.989 304.989 166.726 304.853 166.43C304.717 166.134 304.649 165.823 304.649 165.498V163.82C304.649 163.5 304.717 163.192 304.853 162.896C304.989 162.594 305.187 162.328 305.448 162.097L306.815 160.899C306.998 160.739 307.223 160.612 307.489 160.517C307.762 160.416 308.025 160.366 308.28 160.366ZM318.324 158.022V163.988L322.266 160.588C322.378 160.499 322.476 160.437 322.559 160.402C322.647 160.366 322.739 160.348 322.834 160.348C323.041 160.348 323.216 160.422 323.358 160.57C323.506 160.718 323.58 160.893 323.58 161.094C323.58 161.207 323.553 161.319 323.5 161.431C323.446 161.538 323.37 161.639 323.269 161.733L320.25 164.352L323.997 167.548C324.109 167.643 324.192 167.741 324.245 167.841C324.299 167.942 324.325 168.051 324.325 168.17C324.325 168.383 324.254 168.563 324.112 168.711C323.97 168.859 323.799 168.933 323.597 168.933C323.485 168.933 323.378 168.915 323.278 168.88C323.183 168.844 323.088 168.788 322.994 168.711L319.07 165.355L318.324 165.986V168.099C318.324 168.353 318.253 168.557 318.111 168.711C317.969 168.871 317.785 168.951 317.56 168.951C317.336 168.951 317.152 168.871 317.01 168.711C316.868 168.551 316.797 168.347 316.797 168.099V158.022C316.797 157.762 316.865 157.555 317.001 157.401C317.143 157.247 317.33 157.17 317.56 157.17C317.779 157.17 317.96 157.25 318.102 157.41C318.25 157.57 318.324 157.774 318.324 158.022ZM293.352 179.17H297.028V189.424H298.502V186.423C298.502 186.163 298.57 185.959 298.706 185.811C298.848 185.663 299.034 185.589 299.265 185.589C299.49 185.589 299.673 185.666 299.815 185.82C299.957 185.973 300.029 186.175 300.029 186.423V190.188C300.029 190.412 299.949 190.596 299.789 190.738C299.629 190.88 299.425 190.951 299.176 190.951H293.352C293.098 190.951 292.891 190.88 292.731 190.738C292.577 190.596 292.5 190.412 292.5 190.188C292.5 189.963 292.58 189.779 292.74 189.637C292.9 189.495 293.104 189.424 293.352 189.424H295.501V180.697H293.352C293.092 180.697 292.885 180.629 292.731 180.493C292.577 180.351 292.5 180.164 292.5 179.934C292.5 179.709 292.58 179.525 292.74 179.383C292.9 179.241 293.104 179.17 293.352 179.17ZM306.176 180.697V189.424H310.65V180.697H306.176ZM306.335 179.17H310.481C311.026 179.17 311.443 179.315 311.733 179.605C312.029 179.895 312.177 180.312 312.177 180.857V189.264C312.177 189.809 312.029 190.226 311.733 190.516C311.443 190.806 311.026 190.951 310.481 190.951H306.335C305.791 190.951 305.374 190.806 305.084 190.516C304.794 190.226 304.649 189.809 304.649 189.264V180.857C304.649 180.312 304.794 179.895 305.084 179.605C305.374 179.315 305.791 179.17 306.335 179.17ZM322.07 188.137H323.562C323.781 188.137 323.961 188.217 324.103 188.376C324.251 188.536 324.325 188.74 324.325 188.989V190.099C324.325 190.353 324.254 190.557 324.112 190.711C323.97 190.871 323.787 190.951 323.562 190.951H322.07C321.845 190.951 321.662 190.871 321.52 190.711C321.378 190.551 321.307 190.347 321.307 190.099V188.989C321.307 188.729 321.375 188.521 321.511 188.368C321.653 188.214 321.84 188.137 322.07 188.137ZM324.103 181.736L318.217 189.317C318.123 189.436 318.022 189.525 317.916 189.584C317.815 189.637 317.697 189.664 317.56 189.664C317.347 189.664 317.167 189.593 317.019 189.451C316.871 189.303 316.797 189.125 316.797 188.918C316.797 188.829 316.815 188.74 316.85 188.652C316.886 188.557 316.939 188.462 317.01 188.368L322.905 180.804C323 180.685 323.1 180.596 323.207 180.537C323.319 180.472 323.438 180.44 323.562 180.44C323.763 180.44 323.941 180.514 324.095 180.662C324.248 180.81 324.325 180.984 324.325 181.185C324.325 181.274 324.305 181.366 324.263 181.461C324.228 181.549 324.174 181.641 324.103 181.736ZM317.56 179.17H319.052C319.271 179.17 319.451 179.25 319.593 179.41C319.741 179.57 319.815 179.774 319.815 180.022V181.132C319.815 181.393 319.744 181.6 319.602 181.754C319.466 181.907 319.283 181.984 319.052 181.984H317.56C317.336 181.984 317.152 181.904 317.01 181.745C316.868 181.585 316.797 181.381 316.797 181.132V180.022C316.797 179.762 316.865 179.555 317.001 179.401C317.143 179.247 317.33 179.17 317.56 179.17Z" fill="url(#paint9_linear_2710_96845)"/>
<path d="M73.8041 157.17C74.0586 157.17 74.2628 157.241 74.4166 157.383C74.5764 157.525 74.6563 157.709 74.6563 157.934C74.6563 158.153 74.5764 158.336 74.4166 158.484C74.2568 158.626 74.0526 158.697 73.8041 158.697H71.6556V167.424H73.8041C74.0586 167.424 74.2628 167.495 74.4166 167.637C74.5764 167.779 74.6563 167.963 74.6563 168.188C74.6563 168.412 74.5764 168.596 74.4166 168.738C74.2568 168.88 74.0526 168.951 73.8041 168.951H67.9802C67.7257 168.951 67.5186 168.88 67.3588 168.738C67.2049 168.596 67.1279 168.412 67.1279 168.188C67.1279 167.963 67.2078 167.779 67.3676 167.637C67.5274 167.495 67.7316 167.424 67.9802 167.424H70.1286V158.697H67.9802C67.7257 158.697 67.5186 158.626 67.3588 158.484C67.2049 158.342 67.1279 158.158 67.1279 157.934C67.1279 157.709 67.2078 157.525 67.3676 157.383C67.5274 157.241 67.7316 157.17 67.9802 157.17H73.8041ZM78.7309 157.17H80.6219L82.4951 159.825L84.3683 157.17H86.2593V168.099C86.2593 168.353 86.1883 168.557 86.0463 168.711C85.9042 168.871 85.7207 168.951 85.4958 168.951C85.2709 168.951 85.0874 168.871 84.9454 168.711C84.8034 168.551 84.7323 168.347 84.7323 168.099V159.336L83.2586 161.369V161.698C83.2586 161.952 83.1876 162.159 83.0455 162.319C82.9035 162.473 82.72 162.55 82.4951 162.55C82.2702 162.55 82.0867 162.47 81.9447 162.31C81.8026 162.151 81.7316 161.946 81.7316 161.698V161.369L80.2579 159.336V168.099C80.2579 168.353 80.1869 168.557 80.0448 168.711C79.9028 168.871 79.7193 168.951 79.4944 168.951C79.2695 168.951 79.086 168.871 78.944 168.711C78.8019 168.551 78.7309 168.347 78.7309 168.099V157.17ZM91.8609 158.022V158.972L94.0981 161.769L96.3353 158.972V158.022C96.3353 157.774 96.4063 157.57 96.5484 157.41C96.6904 157.25 96.8739 157.17 97.0988 157.17C97.3237 157.17 97.5072 157.25 97.6492 157.41C97.7913 157.564 97.8623 157.768 97.8623 158.022V159.496L94.8616 163.278V168.099C94.8616 168.353 94.7906 168.557 94.6485 168.711C94.5065 168.871 94.323 168.951 94.0981 168.951C93.8732 168.951 93.6897 168.871 93.5477 168.711C93.4056 168.551 93.3346 168.347 93.3346 168.099V163.278L90.3339 159.496V158.022C90.3339 157.762 90.402 157.555 90.5381 157.401C90.6801 157.247 90.8666 157.17 91.0974 157.17C91.3164 157.17 91.4969 157.25 91.6389 157.41C91.7869 157.57 91.8609 157.774 91.8609 158.022ZM105.701 160.659L104.467 164.858H106.917L105.701 160.659ZM106.518 158.022L109.394 167.903C109.412 167.957 109.424 168.01 109.43 168.063C109.442 168.116 109.448 168.164 109.448 168.205C109.448 168.412 109.374 168.587 109.226 168.729C109.078 168.877 108.903 168.951 108.702 168.951C108.524 168.951 108.364 168.892 108.222 168.773C108.086 168.661 107.992 168.51 107.938 168.321L107.37 166.385H104.041L103.464 168.312C103.393 168.531 103.292 168.691 103.162 168.791C103.038 168.898 102.878 168.951 102.683 168.951C102.487 168.951 102.316 168.877 102.168 168.729C102.026 168.587 101.955 168.418 101.955 168.223C101.955 168.134 101.958 168.069 101.964 168.028C101.969 167.98 101.978 167.936 101.99 167.895L104.867 158.022C104.955 157.703 105.062 157.481 105.186 157.357C105.316 157.232 105.488 157.17 105.701 157.17C105.908 157.17 106.074 157.229 106.198 157.348C106.323 157.466 106.429 157.691 106.518 158.022ZM67.1279 179.17H73.8041C74.0586 179.17 74.2628 179.241 74.4166 179.383C74.5764 179.525 74.6563 179.709 74.6563 179.934C74.6563 180.153 74.5764 180.336 74.4166 180.484C74.2568 180.626 74.0526 180.697 73.8041 180.697H68.6549V183.023H72.3126C72.5612 183.023 72.7624 183.094 72.9163 183.236C73.0702 183.378 73.1471 183.562 73.1471 183.787C73.1471 184.011 73.0672 184.195 72.9074 184.337C72.7535 184.479 72.5552 184.55 72.3126 184.55H68.6549V190.099C68.6549 190.353 68.5839 190.557 68.4419 190.711C68.2998 190.871 68.1163 190.951 67.8914 190.951C67.6665 190.951 67.483 190.871 67.341 190.711C67.199 190.551 67.1279 190.347 67.1279 190.099V179.17ZM82.4951 182.659L81.2611 186.858H83.7114L82.4951 182.659ZM83.3119 180.022L86.1883 189.903C86.2061 189.957 86.2179 190.01 86.2238 190.063C86.2356 190.116 86.2416 190.164 86.2416 190.205C86.2416 190.412 86.1676 190.587 86.0196 190.729C85.8717 190.877 85.6971 190.951 85.4958 190.951C85.3183 190.951 85.1585 190.892 85.0164 190.773C84.8803 190.661 84.7856 190.51 84.7323 190.321L84.1641 188.385H80.835L80.2579 190.312C80.1869 190.531 80.0863 190.691 79.9561 190.791C79.8318 190.898 79.672 190.951 79.4766 190.951C79.2813 190.951 79.1097 190.877 78.9617 190.729C78.8197 190.587 78.7487 190.418 78.7487 190.223C78.7487 190.134 78.7516 190.069 78.7575 190.028C78.7635 189.98 78.7723 189.936 78.7842 189.895L81.6606 180.022C81.7494 179.703 81.8559 179.481 81.9802 179.357C82.1104 179.232 82.282 179.17 82.4951 179.17C82.7023 179.17 82.868 179.229 82.9923 179.348C83.1166 179.466 83.2231 179.691 83.3119 180.022ZM90.3339 179.17H92.2249L94.0981 181.825L95.9713 179.17H97.8623V190.099C97.8623 190.353 97.7913 190.557 97.6492 190.711C97.5072 190.871 97.3237 190.951 97.0988 190.951C96.8739 190.951 96.6904 190.871 96.5484 190.711C96.4063 190.551 96.3353 190.347 96.3353 190.099V181.336L94.8616 183.369V183.698C94.8616 183.952 94.7906 184.159 94.6485 184.319C94.5065 184.473 94.323 184.55 94.0981 184.55C93.8732 184.55 93.6897 184.47 93.5477 184.31C93.4056 184.151 93.3346 183.946 93.3346 183.698V183.369L91.8609 181.336V190.099C91.8609 190.353 91.7899 190.557 91.6478 190.711C91.5058 190.871 91.3223 190.951 91.0974 190.951C90.8725 190.951 90.689 190.871 90.547 190.711C90.4049 190.551 90.3339 190.347 90.3339 190.099V179.17ZM108.613 179.17C108.868 179.17 109.072 179.241 109.226 179.383C109.385 179.525 109.465 179.709 109.465 179.934C109.465 180.153 109.385 180.336 109.226 180.484C109.066 180.626 108.862 180.697 108.613 180.697H106.465V189.424H108.613C108.868 189.424 109.072 189.495 109.226 189.637C109.385 189.779 109.465 189.963 109.465 190.188C109.465 190.412 109.385 190.596 109.226 190.738C109.066 190.88 108.862 190.951 108.613 190.951H102.789C102.535 190.951 102.327 190.88 102.168 190.738C102.014 190.596 101.937 190.412 101.937 190.188C101.937 189.963 102.017 189.779 102.177 189.637C102.336 189.495 102.541 189.424 102.789 189.424H104.938V180.697H102.789C102.535 180.697 102.327 180.626 102.168 180.484C102.014 180.342 101.937 180.158 101.937 179.934C101.937 179.709 102.017 179.525 102.177 179.383C102.336 179.241 102.541 179.17 102.789 179.17H108.613ZM115.067 180.022V189.424H120.216C120.47 189.424 120.675 189.495 120.829 189.637C120.988 189.779 121.068 189.963 121.068 190.188C121.068 190.412 120.988 190.596 120.829 190.738C120.669 190.88 120.465 190.951 120.216 190.951H113.54V180.022C113.54 179.762 113.608 179.555 113.744 179.401C113.886 179.247 114.073 179.17 114.303 179.17C114.522 179.17 114.703 179.25 114.845 179.41C114.993 179.57 115.067 179.774 115.067 180.022ZM131.819 179.17C132.073 179.17 132.278 179.241 132.432 179.383C132.591 179.525 132.671 179.709 132.671 179.934C132.671 180.153 132.591 180.336 132.432 180.484C132.272 180.626 132.068 180.697 131.819 180.697H129.671V189.424H131.819C132.073 189.424 132.278 189.495 132.432 189.637C132.591 189.779 132.671 189.963 132.671 190.188C132.671 190.412 132.591 190.596 132.432 190.738C132.272 190.88 132.068 190.951 131.819 190.951H125.995C125.741 190.951 125.533 190.88 125.374 190.738C125.22 190.596 125.143 190.412 125.143 190.188C125.143 189.963 125.223 189.779 125.383 189.637C125.542 189.495 125.747 189.424 125.995 189.424H128.144V180.697H125.995C125.741 180.697 125.533 180.626 125.374 180.484C125.22 180.342 125.143 180.158 125.143 179.934C125.143 179.709 125.223 179.525 125.383 179.383C125.542 179.241 125.747 179.17 125.995 179.17H131.819ZM138.273 180.022V180.972L140.51 183.769L142.747 180.972V180.022C142.747 179.774 142.818 179.57 142.96 179.41C143.102 179.25 143.286 179.17 143.511 179.17C143.736 179.17 143.919 179.25 144.061 179.41C144.203 179.564 144.274 179.768 144.274 180.022V181.496L141.274 185.278V190.099C141.274 190.353 141.202 190.557 141.06 190.711C140.918 190.871 140.735 190.951 140.51 190.951C140.285 190.951 140.102 190.871 139.96 190.711C139.818 190.551 139.747 190.347 139.747 190.099V185.278L136.746 181.496V180.022C136.746 179.762 136.814 179.555 136.95 179.401C137.092 179.247 137.278 179.17 137.509 179.17C137.728 179.17 137.909 179.25 138.051 179.41C138.199 179.57 138.273 179.774 138.273 180.022ZM152.113 182.659L150.879 186.858H153.329L152.113 182.659ZM152.93 180.022L155.806 189.903C155.824 189.957 155.836 190.01 155.842 190.063C155.854 190.116 155.859 190.164 155.859 190.205C155.859 190.412 155.785 190.587 155.638 190.729C155.49 190.877 155.315 190.951 155.114 190.951C154.936 190.951 154.776 190.892 154.634 190.773C154.498 190.661 154.403 190.51 154.35 190.321L153.782 188.385H150.453L149.876 190.312C149.805 190.531 149.704 190.691 149.574 190.791C149.45 190.898 149.29 190.951 149.095 190.951C148.899 190.951 148.728 190.877 148.58 190.729C148.438 190.587 148.367 190.418 148.367 190.223C148.367 190.134 148.37 190.069 148.375 190.028C148.381 189.98 148.39 189.936 148.402 189.895L151.278 180.022C151.367 179.703 151.474 179.481 151.598 179.357C151.728 179.232 151.9 179.17 152.113 179.17C152.32 179.17 152.486 179.229 152.61 179.348C152.734 179.466 152.841 179.691 152.93 180.022Z" fill="url(#paint10_linear_2710_96845)"/>
<defs>
<filter id="filter0_d_2710_96845" x="4.36355" y="0.000487804" width="365.455" height="254.545" filterUnits="userSpaceOnUse" color-interpolation-filters="sRGB">
<feFlood flood-opacity="0" result="BackgroundImageFix"/>
<feColorMatrix in="SourceAlpha" type="matrix" values="0 0 0 0 0 0 0 0 0 0 0 0 0 0 0 0 0 0 127 0" result="hardAlpha"/>
<feOffset dx="-5.45455" dy="7.27273"/>
<feGaussianBlur stdDeviation="13.6364"/>
<feColorMatrix type="matrix" values="0 0 0 0 0.0705882 0 0 0 0 0.239216 0 0 0 0 0.396078 0 0 0 0.2 0"/>
<feBlend mode="normal" in2="BackgroundImageFix" result="effect1_dropShadow_2710_96845"/>
<feBlend mode="normal" in="SourceGraphic" in2="effect1_dropShadow_2710_96845" result="shape"/>
</filter>
<filter id="filter1_dd_2710_96845" x="0.726295" y="79.0937" width="254.545" height="83.6364" filterUnits="userSpaceOnUse" color-interpolation-filters="sRGB">
<feFlood flood-opacity="0" result="BackgroundImageFix"/>
<feColorMatrix in="SourceAlpha" type="matrix" values="0 0 0 0 0 0 0 0 0 0 0 0 0 0 0 0 0 0 127 0" result="hardAlpha"/>
<feOffset dy="1.81818"/>
<feGaussianBlur stdDeviation="1.81818"/>
<feColorMatrix type="matrix" values="0 0 0 0 0 0 0 0 0 0.027451 0 0 0 0 0.482353 0 0 0 0.04 0"/>
<feBlend mode="normal" in2="BackgroundImageFix" result="effect1_dropShadow_2710_96845"/>
<feColorMatrix in="SourceAlpha" type="matrix" values="0 0 0 0 0 0 0 0 0 0 0 0 0 0 0 0 0 0 127 0" result="hardAlpha"/>
<feOffset dy="7.27273"/>
<feGaussianBlur stdDeviation="13.6364"/>
<feColorMatrix type="matrix" values="0 0 0 0 0.0297049 0 0 0 0 0.159612 0 0 0 0 0.245833 0 0 0 0.26 0"/>
<feBlend mode="normal" in2="effect1_dropShadow_2710_96845" result="effect2_dropShadow_2710_96845"/>
<feBlend mode="normal" in="SourceGraphic" in2="effect2_dropShadow_2710_96845" result="shape"/>
</filter>
<filter id="filter2_dd_2710_96845" x="246.1" y="4.27133" width="103.687" height="112.626" filterUnits="userSpaceOnUse" color-interpolation-filters="sRGB">
<feFlood flood-opacity="0" result="BackgroundImageFix"/>
<feColorMatrix in="SourceAlpha" type="matrix" values="0 0 0 0 0 0 0 0 0 0 0 0 0 0 0 0 0 0 127 0" result="hardAlpha"/>
<feOffset dx="3.57542" dy="3.57542"/>
<feGaussianBlur stdDeviation="6.25698"/>
<feColorMatrix type="matrix" values="0 0 0 0 0.534167 0 0 0 0 0.645967 0 0 0 0 0.749167 0 0 0 0.6 0"/>
<feBlend mode="normal" in2="BackgroundImageFix" result="effect1_dropShadow_2710_96845"/>
<feColorMatrix in="SourceAlpha" type="matrix" values="0 0 0 0 0 0 0 0 0 0 0 0 0 0 0 0 0 0 127 0" result="hardAlpha"/>
<feOffset dx="-10.7263" dy="-5.36313"/>
<feGaussianBlur stdDeviation="16.0894"/>
<feColorMatrix type="matrix" values="0 0 0 0 1 0 0 0 0 1 0 0 0 0 1 0 0 0 1 0"/>
<feBlend mode="normal" in2="effect1_dropShadow_2710_96845" result="effect2_dropShadow_2710_96845"/>
<feBlend mode="normal" in="SourceGraphic" in2="effect2_dropShadow_2710_96845" result="shape"/>
</filter>
<linearGradient id="paint0_linear_2710_96845" x1="260.305" y1="-2.07787" x2="-241.903" y2="545.263" gradientUnits="userSpaceOnUse">
<stop offset="0.335303" stop-color="#EBF2F9"/>
<stop offset="1" stop-color="#C6D7EB"/>
</linearGradient>
<linearGradient id="paint1_linear_2710_96845" x1="218.934" y1="205.682" x2="-37.4354" y2="282.64" gradientUnits="userSpaceOnUse">
<stop offset="0.263331" stop-color="white"/>
<stop offset="0.507086" stop-color="#DBE6F2" stop-opacity="0"/>
<stop offset="1" stop-color="#8F9FAE"/>
</linearGradient>
<linearGradient id="paint2_linear_2710_96845" x1="260.305" y1="-2.07787" x2="-241.903" y2="545.263" gradientUnits="userSpaceOnUse">
<stop offset="0.335303" stop-color="#EBF2F9"/>
<stop offset="1" stop-color="#C6D7EB"/>
</linearGradient>
<linearGradient id="paint3_linear_2710_96845" x1="218.934" y1="205.682" x2="-37.4354" y2="282.64" gradientUnits="userSpaceOnUse">
<stop offset="0.263331" stop-color="white"/>
<stop offset="0.507086" stop-color="#DBE6F2" stop-opacity="0"/>
<stop offset="1" stop-color="#8F9FAE"/>
</linearGradient>
<linearGradient id="paint4_linear_2710_96845" x1="100.61" y1="88.4119" x2="121.304" y2="162.1" gradientUnits="userSpaceOnUse">
<stop stop-color="#FFCB05" stop-opacity="0"/>
<stop offset="1" stop-color="#FFA200"/>
</linearGradient>
<linearGradient id="paint5_linear_2710_96845" x1="37.9988" y1="73.6394" x2="101.99" y2="12.4806" gradientUnits="userSpaceOnUse">
<stop offset="0.263331" stop-color="#FFE583"/>
<stop offset="0.507086" stop-color="#FFCB05"/>
<stop offset="1" stop-color="#FFB101"/>
</linearGradient>
<linearGradient id="paint6_linear_2710_96845" x1="318.95" y1="89.1874" x2="307.777" y2="136.562" gradientUnits="userSpaceOnUse">
<stop offset="0.149729" stop-color="white"/>
<stop offset="1" stop-color="#37536F" stop-opacity="0.4"/>
</linearGradient>
<linearGradient id="paint7_linear_2710_96845" x1="337.273" y1="79.3625" x2="277.385" y2="45.396" gradientUnits="userSpaceOnUse">
<stop stop-color="#48647D"/>
<stop offset="0.234375" stop-color="#6B8299"/>
<stop offset="0.442708" stop-color="#DAE2EB"/>
<stop offset="0.682292" stop-color="#8CA2B7"/>
<stop offset="1" stop-color="#EDF2F7"/>
</linearGradient>
<linearGradient id="paint8_linear_2710_96845" x1="182.244" y1="70.9034" x2="-192.417" y2="11.935" gradientUnits="userSpaceOnUse">
<stop stop-color="#202F45"/>
<stop offset="1" stop-color="#6E8BB3" stop-opacity="0"/>
</linearGradient>
<linearGradient id="paint9_linear_2710_96845" x1="326.181" y1="198.187" x2="91.8786" y2="128.842" gradientUnits="userSpaceOnUse">
<stop stop-color="#202E43"/>
<stop offset="1" stop-color="#9BABC0" stop-opacity="0.4"/>
</linearGradient>
<linearGradient id="paint10_linear_2710_96845" x1="269.818" y1="198.187" x2="-114.83" y2="-38.9859" gradientUnits="userSpaceOnUse">
<stop stop-color="#202E43"/>
<stop offset="0.776605" stop-color="#9BABC0" stop-opacity="0.4"/>
</linearGradient>
</defs>
</svg>
