<svg width="16" height="16" viewBox="0 0 16 16" fill="none" xmlns="http://www.w3.org/2000/svg">
<path d="M6.84596 2.30072C7.37767 1.45534 8.62233 1.45534 9.15404 2.30072L10.44 4.34522C10.627 4.64266 10.9242 4.85611 11.2682 4.94008L13.6326 5.51725C14.6102 5.7559 14.9948 6.92607 14.3458 7.6872L12.7762 9.52793C12.5478 9.79573 12.4343 10.1411 12.4598 10.4904L12.6352 12.8916C12.7077 13.8845 11.7007 14.6077 10.7679 14.2327L8.51189 13.3259C8.18368 13.194 7.81632 13.194 7.48811 13.3259L5.23212 14.2327C4.29928 14.6077 3.29234 13.8845 3.36484 12.8916L3.54017 10.4904C3.56568 10.1411 3.45216 9.79573 3.22381 9.52793L1.65419 7.6872C1.00517 6.92607 1.38979 5.7559 2.36743 5.51725L4.73179 4.94008C5.07576 4.85611 5.37296 4.64266 5.56004 4.34522L6.84596 2.30072Z" fill="#FFED32"/>
</svg>
